<svg width="28" height="28" viewBox="0 0 28 28" fill="none" xmlns="http://www.w3.org/2000/svg">
<path d="M14.7534 1.2036C14.2876 0.933027 13.7124 0.933027 13.2466 1.2036L4.7466 6.14084C4.28441 6.4093 4 6.90341 4 7.4379V17.3281C4 17.8626 4.28441 18.3567 4.7466 18.6252L19 27V21.0958L23.2534 18.6252C23.7156 18.3567 24 17.8626 24 17.3281V7.43791C24 6.90341 23.7156 6.4093 23.2534 6.14084L14.7534 1.2036Z" fill="#788D9C"/>
<path d="M13 8.5C13 8.59137 12.9918 8.68084 12.9762 8.7677L17.5201 11.3642C17.783 11.1373 18.1255 11 18.5 11C19.3284 11 20 11.6716 20 12.5C20 13.3284 19.3284 14 18.5 14C17.6716 14 17 13.3284 17 12.5C17 12.4087 17.0082 12.3192 17.0238 12.2324L12.4798 9.63581C12.217 9.86275 11.8745 10 11.5 10C10.6716 10 10 9.32843 10 8.5C10 7.67157 10.6716 7 11.5 7C12.3284 7 13 7.67157 13 8.5Z" fill="#444444"/>
<path d="M13 16.5C13 17.3284 12.3284 18 11.5 18C10.6716 18 10 17.3284 10 16.5C10 15.6716 10.6716 15 11.5 15C11.8745 15 12.217 15.1373 12.4798 15.3642L16.1246 13.2815C16.231 13.605 16.4016 13.8993 16.6213 14.1494L12.9762 16.2323C12.9918 16.3192 13 16.4086 13 16.5Z" fill="#444444"/>
</svg>
