<svg width="28" height="28" viewBox="0 0 28 28" fill="none" xmlns="http://www.w3.org/2000/svg">
<path d="M11 4H10.5626C9.65435 4 8.98872 4.06243 8.56577 4.1873C7.94175 4.37461 7.4668 4.63129 7.14092 4.95734C6.81504 5.27645 6.5897 5.70309 6.46489 6.23725C6.34009 6.76448 6.27769 7.70101 6.27769 9.04683C6.27769 9.87235 6.24995 10.4516 6.19448 10.7846C6.12515 11.2286 5.99687 11.5997 5.80967 11.898C5.62246 12.1894 5.40059 12.3975 5.14404 12.5224C4.8875 12.6472 4.50615 12.7236 4 12.7513V15.2487C4.63789 15.2834 5.10937 15.4221 5.41445 15.6649C5.72646 15.9008 5.95874 16.2962 6.11128 16.8512C6.22222 17.2327 6.27769 18.0617 6.27769 19.3382C6.27769 20.4343 6.33662 21.2355 6.45449 21.7419C6.57236 22.2553 6.80117 22.6854 7.14092 23.0323C7.4876 23.3791 7.91055 23.6254 8.40977 23.7711C8.90898 23.9237 9.62661 24 10.5626 24H11V21.5022C10.3153 21.4975 9.86441 21.449 9.64741 21.3569C9.42554 21.2667 9.25913 21.1315 9.14819 20.9511C9.03726 20.7707 8.98179 20.4516 8.98179 19.9938C8.98179 19.6746 8.95752 18.9393 8.90898 17.7877C8.86738 17.0316 8.77725 16.428 8.63857 15.9771C8.4999 15.5262 8.29883 15.1446 8.03535 14.8325C7.77881 14.5134 7.446 14.2359 7.03691 14C7.50146 13.7017 7.84468 13.4138 8.06655 13.1363C8.29536 12.8588 8.48257 12.5085 8.62817 12.0853C8.77378 11.6552 8.86392 11.0968 8.89858 10.41C8.96099 9.18904 8.99219 8.36004 8.99219 7.923C8.99219 7.49289 9.04419 7.19112 9.14819 7.01769C9.2522 6.83732 9.41167 6.70551 9.62661 6.62227C9.83735 6.53661 10.2951 6.49164 11 6.48733V4Z" fill="#444444"/>
<path d="M17 4H17.4374C18.3457 4 19.0113 4.06243 19.4342 4.1873C20.0583 4.37461 20.5332 4.63129 20.8591 4.95734C21.185 5.27645 21.4103 5.70309 21.5351 6.23725C21.6599 6.76448 21.7223 7.70101 21.7223 9.04683C21.7223 9.87235 21.75 10.4516 21.8055 10.7846C21.8749 11.2286 22.0031 11.5997 22.1903 11.898C22.3775 12.1894 22.5994 12.3975 22.856 12.5224C23.1125 12.6472 23.4938 12.7236 24 12.7513V15.2487C23.3621 15.2834 22.8906 15.4221 22.5855 15.6649C22.2735 15.9008 22.0413 16.2962 21.8887 16.8512C21.7778 17.2327 21.7223 18.0617 21.7223 19.3382C21.7223 20.4343 21.6634 21.2355 21.5455 21.7419C21.4276 22.2553 21.1988 22.6854 20.8591 23.0323C20.5124 23.3791 20.0895 23.6254 19.5902 23.7711C19.091 23.9237 18.3734 24 17.4374 24H17V21.5022C17.6847 21.4975 18.1356 21.449 18.3526 21.3569C18.5745 21.2667 18.7409 21.1315 18.8518 20.9511C18.9627 20.7707 19.0182 20.4516 19.0182 19.9938C19.0182 19.6746 19.0425 18.9393 19.091 17.7877C19.1326 17.0316 19.2228 16.428 19.3614 15.9771C19.5001 15.5262 19.7012 15.1446 19.9646 14.8325C20.2212 14.5134 20.554 14.2359 20.9631 14C20.4985 13.7017 20.1553 13.4138 19.9334 13.1363C19.7046 12.8588 19.5174 12.5085 19.3718 12.0853C19.2262 11.6552 19.1361 11.0968 19.1014 10.41C19.039 9.18904 19.0078 8.36004 19.0078 7.923C19.0078 7.49289 18.9558 7.19112 18.8518 7.01769C18.7478 6.83732 18.5883 6.70551 18.3734 6.62227C18.1627 6.53661 17.7049 6.49164 17 6.48733V4Z" fill="#444444"/>
</svg>
