<?xml version="1.0" encoding="UTF-8"?>
<svg xmlns="http://www.w3.org/2000/svg" xmlns:xlink="http://www.w3.org/1999/xlink" width="43px" height="42px" viewBox="0 0 43 42" version="1.1">
<g id="surface1">
<path style=" stroke:none;fill-rule:nonzero;fill:rgb(0%,0%,0%);fill-opacity:0.8;" d="M 26.816406 4.5 C 27.210938 4.5 27.585938 4.660156 27.867188 4.941406 L 34.410156 11.558594 C 34.6875 11.839844 34.84375 12.222656 34.84375 12.621094 L 34.84375 36 C 34.84375 36.828125 34.179688 37.5 33.363281 37.5 L 12.601562 37.5 C 11.785156 37.5 11.121094 36.828125 11.121094 36 L 11.121094 31.5 L 12.601562 31.5 L 12.601562 36 L 33.363281 36 L 33.363281 13.5 L 27.429688 13.5 C 26.613281 13.5 25.949219 12.828125 25.949219 12 L 25.949219 6 L 12.601562 6 L 12.601562 9 L 11.121094 9 L 11.121094 6 C 11.121094 5.171875 11.785156 4.5 12.601562 4.5 Z M 27.429688 12 L 32.75 12 L 27.429688 6.621094 Z M 27.429688 12 "/>
<path style=" stroke:none;fill-rule:nonzero;fill:rgb(0%,0%,0%);fill-opacity:0.8;" d="M 29.867188 33.429688 L 16.097656 33.429688 L 16.097656 32.894531 L 29.867188 32.894531 Z M 29.867188 31.820312 L 16.097656 31.820312 L 16.097656 31.285156 L 29.867188 31.285156 Z M 29.867188 30.214844 L 16.097656 30.214844 L 16.097656 29.679688 L 29.867188 29.679688 Z M 29.867188 28.605469 L 16.097656 28.605469 L 16.097656 28.070312 L 29.867188 28.070312 Z M 29.867188 27 L 16.097656 27 L 16.097656 26.464844 L 29.867188 26.464844 Z M 29.867188 25.394531 L 23.9375 25.394531 L 23.9375 24.855469 L 29.867188 24.855469 Z M 29.867188 23.785156 L 23.9375 23.785156 L 23.9375 23.25 L 29.867188 23.25 Z M 29.867188 22.179688 L 23.9375 22.179688 L 23.9375 21.644531 L 29.867188 21.644531 Z M 29.867188 20.570312 L 23.9375 20.570312 L 23.9375 20.035156 L 29.867188 20.035156 Z M 29.867188 20.570312 "/>
<path style=" stroke:none;fill-rule:nonzero;fill:rgb(0%,0%,0%);fill-opacity:0.8;" d="M 9.390625 24 L 9.390625 21.5 L 21.746094 21.5 L 21.746094 24 Z M 11.863281 19 L 12.726562 19 L 17.546875 14.140625 L 17.097656 13.6875 L 16.664062 13.25 L 11.863281 18.125 Z M 10.625 20.25 L 10.625 17.59375 L 17.546875 10.609375 C 17.660156 10.496094 17.789062 10.40625 17.941406 10.34375 C 18.089844 10.28125 18.246094 10.25 18.410156 10.25 C 18.574219 10.25 18.734375 10.28125 18.890625 10.34375 C 19.042969 10.40625 19.183594 10.5 19.308594 10.625 L 20.15625 11.5 C 20.28125 11.613281 20.371094 11.75 20.425781 11.90625 C 20.484375 12.0625 20.511719 12.222656 20.511719 12.390625 C 20.511719 12.546875 20.484375 12.699219 20.425781 12.851562 C 20.371094 13.003906 20.28125 13.140625 20.15625 13.265625 L 13.253906 20.25 Z M 17.546875 14.140625 L 17.097656 13.6875 L 16.664062 13.25 Z M 17.546875 14.140625 "/>
</g>
</svg>
