<?xml version="1.0" encoding="UTF-8"?>
<svg xmlns="http://www.w3.org/2000/svg" xmlns:xlink="http://www.w3.org/1999/xlink" width="36px" height="35px" viewBox="0 0 36 35" version="1.1">
<g id="surface1">
<path style=" stroke:none;fill-rule:nonzero;fill:rgb(0%,0%,0%);fill-opacity:0.8;" d="M 22.453125 3.75 C 22.78125 3.75 23.097656 3.882812 23.328125 4.117188 L 28.808594 9.632812 C 29.042969 9.867188 29.171875 10.1875 29.171875 10.515625 L 29.171875 30 C 29.171875 30.691406 28.617188 31.25 27.929688 31.25 L 10.550781 31.25 C 9.867188 31.25 9.308594 30.691406 9.308594 30 L 9.308594 26.25 L 10.550781 26.25 L 10.550781 30 L 27.929688 30 L 27.929688 11.25 L 22.964844 11.25 C 22.28125 11.25 21.722656 10.691406 21.722656 10 L 21.722656 5 L 10.550781 5 L 10.550781 7.5 L 9.308594 7.5 L 9.308594 5 C 9.308594 4.308594 9.867188 3.75 10.550781 3.75 Z M 22.964844 10 L 27.417969 10 L 22.964844 5.515625 Z M 22.964844 10 "/>
<path style=" stroke:none;fill-rule:nonzero;fill:rgb(0%,0%,0%);fill-opacity:0.8;" d="M 25.003906 27.859375 L 13.476562 27.859375 L 13.476562 27.410156 L 25.003906 27.410156 Z M 25.003906 26.515625 L 13.476562 26.515625 L 13.476562 26.070312 L 25.003906 26.070312 Z M 25.003906 25.179688 L 13.476562 25.179688 L 13.476562 24.734375 L 25.003906 24.734375 Z M 25.003906 23.839844 L 13.476562 23.839844 L 13.476562 23.390625 L 25.003906 23.390625 Z M 25.003906 22.5 L 13.476562 22.5 L 13.476562 22.054688 L 25.003906 22.054688 Z M 25.003906 21.160156 L 20.039062 21.160156 L 20.039062 20.714844 L 25.003906 20.714844 Z M 25.003906 19.820312 L 20.039062 19.820312 L 20.039062 19.375 L 25.003906 19.375 Z M 25.003906 18.484375 L 20.039062 18.484375 L 20.039062 18.035156 L 25.003906 18.035156 Z M 25.003906 17.140625 L 20.039062 17.140625 L 20.039062 16.695312 L 25.003906 16.695312 Z M 25.003906 17.140625 "/>
<path style=" stroke:none;fill-rule:nonzero;fill:rgb(0%,0%,0%);fill-opacity:0.8;" d="M 7.863281 20 L 7.863281 17.917969 L 18.207031 17.917969 L 18.207031 20 Z M 9.929688 15.832031 L 10.65625 15.832031 L 14.691406 11.785156 L 14.316406 11.40625 L 13.953125 11.042969 L 9.929688 15.105469 Z M 8.898438 16.875 L 8.898438 14.660156 L 14.691406 8.839844 C 14.785156 8.746094 14.894531 8.671875 15.019531 8.621094 C 15.144531 8.566406 15.277344 8.542969 15.414062 8.542969 C 15.550781 8.542969 15.6875 8.566406 15.816406 8.621094 C 15.945312 8.671875 16.0625 8.75 16.164062 8.855469 L 16.875 9.582031 C 16.980469 9.679688 17.054688 9.792969 17.101562 9.921875 C 17.148438 10.050781 17.171875 10.1875 17.171875 10.324219 C 17.171875 10.457031 17.148438 10.582031 17.101562 10.710938 C 17.054688 10.835938 16.980469 10.949219 16.875 11.054688 L 11.09375 16.875 Z M 14.691406 11.785156 L 14.316406 11.40625 L 13.953125 11.042969 Z M 14.691406 11.785156 "/>
</g>
</svg>
