<?xml version="1.0" encoding="UTF-8"?>
<svg xmlns="http://www.w3.org/2000/svg" xmlns:xlink="http://www.w3.org/1999/xlink" width="50px" height="48px" viewBox="0 0 49 48" version="1.1">
<defs>
<clipPath id="clip1">
  <path d="M 10 11 L 25 11 L 25 27.429688 L 10 27.429688 Z M 10 11 "/>
</clipPath>
</defs>
<g id="surface1">
<path style=" stroke:none;fill-rule:nonzero;fill:rgb(0%,0%,0%);fill-opacity:0.8;" d="M 30.558594 5.144531 C 31.007812 5.144531 31.4375 5.324219 31.753906 5.644531 L 39.210938 13.210938 C 39.527344 13.535156 39.707031 13.96875 39.707031 14.425781 L 39.707031 41.144531 C 39.707031 42.089844 38.949219 42.855469 38.015625 42.855469 L 14.363281 42.855469 C 13.429688 42.855469 12.671875 42.089844 12.671875 41.144531 L 12.671875 36 L 14.363281 36 L 14.363281 41.144531 L 38.015625 41.144531 L 38.015625 15.429688 L 31.257812 15.429688 C 30.324219 15.429688 29.570312 14.660156 29.570312 13.714844 L 29.570312 6.855469 L 14.363281 6.855469 L 14.363281 10.285156 L 12.671875 10.285156 L 12.671875 6.855469 C 12.671875 5.910156 13.429688 5.144531 14.363281 5.144531 Z M 31.257812 13.714844 L 37.316406 13.714844 L 31.257812 7.566406 Z M 31.257812 13.714844 "/>
<path style=" stroke:none;fill-rule:nonzero;fill:rgb(0%,0%,0%);fill-opacity:0.8;" d="M 34.035156 38.203125 L 18.34375 38.203125 L 18.34375 37.59375 L 34.035156 37.59375 Z M 34.035156 36.367188 L 18.34375 36.367188 L 18.34375 35.753906 L 34.035156 35.753906 Z M 34.035156 34.53125 L 18.34375 34.53125 L 18.34375 33.917969 L 34.035156 33.917969 Z M 34.035156 32.695312 L 18.34375 32.695312 L 18.34375 32.082031 L 34.035156 32.082031 Z M 34.035156 30.855469 L 18.34375 30.855469 L 18.34375 30.246094 L 34.035156 30.246094 Z M 34.035156 29.019531 L 27.277344 29.019531 L 27.277344 28.40625 L 34.035156 28.40625 Z M 34.035156 27.183594 L 27.277344 27.183594 L 27.277344 26.570312 L 34.035156 26.570312 Z M 34.035156 25.347656 L 27.277344 25.347656 L 27.277344 24.734375 L 34.035156 24.734375 Z M 34.035156 23.507812 L 27.277344 23.507812 L 27.277344 22.898438 L 34.035156 22.898438 Z M 34.035156 23.507812 "/>
<g clip-path="url(#clip1)" clip-rule="nonzero">
<path style=" stroke:none;fill-rule:nonzero;fill:rgb(0%,0%,0%);fill-opacity:0.8;" d="M 10.703125 27.429688 L 10.703125 24.570312 L 24.78125 24.570312 L 24.78125 27.429688 Z M 13.515625 21.714844 L 14.503906 21.714844 L 19.996094 16.160156 L 19.484375 15.644531 L 18.992188 15.144531 L 13.515625 20.714844 Z M 12.109375 23.144531 L 12.109375 20.105469 L 19.996094 12.125 C 20.125 11.992188 20.273438 11.894531 20.441406 11.820312 C 20.613281 11.75 20.792969 11.714844 20.980469 11.714844 C 21.167969 11.714844 21.351562 11.75 21.527344 11.820312 C 21.703125 11.894531 21.859375 12 22 12.144531 L 22.96875 13.144531 C 23.109375 13.273438 23.210938 13.429688 23.277344 13.605469 C 23.339844 13.785156 23.375 13.96875 23.375 14.160156 C 23.375 14.339844 23.339844 14.515625 23.277344 14.6875 C 23.210938 14.859375 23.109375 15.019531 22.96875 15.160156 L 15.101562 23.144531 Z M 19.996094 16.160156 L 19.484375 15.644531 L 18.992188 15.144531 Z M 19.996094 16.160156 "/>
</g>
</g>
</svg>
