<?xml version="1.0" encoding="UTF-8"?>
<svg xmlns="http://www.w3.org/2000/svg" xmlns:xlink="http://www.w3.org/1999/xlink" width="58px" height="56px" viewBox="0 0 58 56" version="1.1">
<g id="surface1">
<path style=" stroke:none;fill-rule:nonzero;fill:rgb(0%,0%,0%);fill-opacity:0.8;" d="M 36.171875 6 C 36.703125 6 37.210938 6.210938 37.585938 6.585938 L 46.414062 15.414062 C 46.789062 15.789062 47 16.296875 47 16.828125 L 47 48 C 47 49.105469 46.105469 50 45 50 L 17 50 C 15.894531 50 15 49.105469 15 48 L 15 42 L 17 42 L 17 48 L 45 48 L 45 18 L 37 18 C 35.894531 18 35 17.105469 35 16 L 35 8 L 17 8 L 17 12 L 15 12 L 15 8 C 15 6.894531 15.894531 6 17 6 Z M 37 16 L 44.171875 16 L 37 8.828125 Z M 37 16 "/>
<path style=" stroke:none;fill-rule:nonzero;fill:rgb(0%,0%,0%);fill-opacity:0.8;" d="M 40.285156 44.570312 L 21.714844 44.570312 L 21.714844 43.855469 L 40.285156 43.855469 Z M 40.285156 42.429688 L 21.714844 42.429688 L 21.714844 41.714844 L 40.285156 41.714844 Z M 40.285156 40.285156 L 21.714844 40.285156 L 21.714844 39.570312 L 40.285156 39.570312 Z M 40.285156 38.144531 L 21.714844 38.144531 L 21.714844 37.429688 L 40.285156 37.429688 Z M 40.285156 36 L 21.714844 36 L 21.714844 35.285156 L 40.285156 35.285156 Z M 40.285156 33.855469 L 32.285156 33.855469 L 32.285156 33.144531 L 40.285156 33.144531 Z M 40.285156 31.714844 L 32.285156 31.714844 L 32.285156 31 L 40.285156 31 Z M 40.285156 29.570312 L 32.285156 29.570312 L 32.285156 28.855469 L 40.285156 28.855469 Z M 40.285156 27.429688 L 32.285156 27.429688 L 32.285156 26.714844 L 40.285156 26.714844 Z M 40.285156 27.429688 "/>
<path style=" stroke:none;fill-rule:nonzero;fill:rgb(0%,0%,0%);fill-opacity:0.8;" d="M 12.667969 32 L 12.667969 28.667969 L 29.332031 28.667969 L 29.332031 32 Z M 16 25.332031 L 17.167969 25.332031 L 23.667969 18.855469 L 22.480469 17.667969 L 16 24.167969 Z M 14.332031 27 L 14.332031 23.457031 L 23.667969 14.144531 C 23.820312 13.992188 23.996094 13.875 24.199219 13.792969 C 24.398438 13.707031 24.613281 13.667969 24.832031 13.667969 C 25.054688 13.667969 25.269531 13.707031 25.480469 13.792969 C 25.6875 13.875 25.875 14 26.042969 14.167969 L 27.1875 15.332031 C 27.355469 15.484375 27.476562 15.667969 27.550781 15.875 C 27.628906 16.082031 27.667969 16.296875 27.667969 16.519531 C 27.667969 16.730469 27.628906 16.933594 27.550781 17.136719 C 27.476562 17.335938 27.355469 17.519531 27.1875 17.6875 L 17.875 27 Z M 23.667969 18.855469 L 22.480469 17.667969 Z M 23.667969 18.855469 "/>
</g>
</svg>
