<svg width="120" height="60" viewBox="0 0 120 60" fill="none" xmlns="http://www.w3.org/2000/svg">
<path d="M49.6364 10H44.4545H41V13.6364V19.0909H44.4545V13.6364H49.6364V10Z" fill="white"/>
<path d="M79.0001 19.0909V10H70.3638V13.6364H75.5456V19.0909H79.0001Z" fill="white"/>
<path d="M70.3638 49.9998H75.5456H79.0001V46.3635V40.9089H75.5456V46.3635H70.3638V49.9998Z" fill="white"/>
<path d="M41 40.9089V49.9998H49.6364V46.3635H44.4545V40.9089H41Z" fill="white"/>
<path d="M41.1208 30.0721C41.0871 28.9332 41.2813 27.7996 41.6908 26.7449C41.9667 26.0689 42.359 25.4524 42.848 24.9267C43.3051 24.4353 43.8514 24.0458 44.4544 23.7812C45.2972 23.4131 46.2019 23.2276 47.1144 23.2358C47.9226 23.2047 48.7281 23.3503 49.4802 23.6632C50.2324 23.9761 50.9147 24.4497 51.4844 25.054C52.0493 25.7293 52.482 26.5154 52.7576 27.3672C53.0333 28.219 53.1465 29.1197 53.0907 30.0176C53.1391 30.9122 53.0191 31.808 52.7375 32.6536C52.4558 33.4992 52.0183 34.2778 51.4498 34.9448C50.8867 35.5532 50.2079 36.0296 49.4578 36.3429C48.7078 36.6562 47.9033 36.7994 47.0971 36.763C46.2883 36.7997 45.4812 36.6567 44.7283 36.3435C43.9754 36.0302 43.2936 35.5537 42.7271 34.9448C41.5996 33.6087 41.0219 31.8562 41.1208 30.0721V30.0721ZM43.6944 30.0721C43.6131 31.2804 43.9574 32.4778 44.6617 33.4358C44.9683 33.8058 45.3485 34.1002 45.7754 34.2982C46.2023 34.4962 46.6653 34.5928 47.1317 34.5812C47.6115 34.5926 48.0872 34.4869 48.5218 34.2724C48.9563 34.0579 49.3377 33.7404 49.6362 33.3448C50.3399 32.3804 50.6784 31.1753 50.5862 29.963C50.6697 28.763 50.3317 27.5725 49.6362 26.6176C49.3271 26.2532 48.9455 25.9649 48.5187 25.7732C48.0918 25.5815 47.63 25.4912 47.1662 25.5085C46.698 25.4894 46.2317 25.5807 45.8013 25.7758C45.371 25.9708 44.9875 26.2646 44.6789 26.6358C43.9652 27.5823 43.614 28.7758 43.6944 29.9812V30.0721Z" fill="white"/>
<path d="M63.0745 31.727L65.5099 32.527C65.2365 33.7692 64.5807 34.8814 63.6445 35.6906C62.6938 36.4178 61.5366 36.7832 60.3627 36.727C59.6045 36.7469 58.8511 36.5948 58.1537 36.2811C57.4563 35.9674 56.8312 35.4993 56.3209 34.9088C55.2543 33.5705 54.7164 31.8524 54.8181 30.1088C54.6837 28.2833 55.2218 26.4734 56.3209 25.0543C56.857 24.4539 57.5088 23.9811 58.2327 23.6675C58.9566 23.3539 59.7358 23.2068 60.5181 23.2361C61.8712 23.1788 63.1917 23.6813 64.1972 24.6361C64.8175 25.3029 65.2586 26.1311 65.4754 27.0361L63.0054 27.6724C62.8819 27.0451 62.559 26.4807 62.0899 26.0725C61.6012 25.6608 60.9882 25.4478 60.3627 25.4725C59.9395 25.4581 59.5188 25.5456 59.1327 25.7284C58.7465 25.9111 58.4051 26.1843 58.1345 26.527C57.4699 27.5015 57.1631 28.6964 57.2709 29.8906C57.1652 31.1276 57.4638 32.3656 58.1172 33.3997C58.3834 33.7385 58.7191 34.0095 59.099 34.1921C59.4789 34.3748 59.8933 34.4644 60.3108 34.4542C60.946 34.4637 61.5618 34.2239 62.0381 33.7815C62.5728 33.2226 62.9341 32.5063 63.0745 31.727Z" fill="white"/>
<path d="M67.7554 36.5088V23.4907H72.9372C73.9098 23.4496 74.8827 23.5661 75.8217 23.8362C76.4243 24.054 76.9369 24.4844 77.2726 25.0543C77.648 25.6655 77.8406 26.3812 77.8254 27.1089C77.8531 27.9969 77.5563 28.8623 76.9963 29.5271C76.3451 30.218 75.482 30.6433 74.5608 30.727C75.0544 31.0172 75.5029 31.3851 75.8908 31.818C76.4178 32.4784 76.8915 33.1838 77.3072 33.927L78.8272 36.4725H75.8908L74.0772 33.6361C73.6856 32.9661 73.2468 32.3279 72.7645 31.727C72.5597 31.4879 72.3056 31.3014 72.0217 31.1816C71.6102 31.0701 71.1856 31.0211 70.7608 31.0361H70.2599V36.4907L67.7554 36.5088ZM70.2599 28.9998H72.0908C72.8371 29.041 73.5854 28.986 74.319 28.8361C74.6057 28.7414 74.8546 28.5496 75.0272 28.2907C75.2074 27.9992 75.2979 27.6564 75.2863 27.3089C75.3033 26.9238 75.1797 26.5465 74.9408 26.2543C74.7045 25.9635 74.37 25.781 74.0081 25.7453C73.3982 25.7112 72.7871 25.7112 72.1772 25.7453H70.2599V28.9998Z" fill="white"/>
</svg>
