<svg width="28" height="28" viewBox="0 0 28 28" fill="none" xmlns="http://www.w3.org/2000/svg">
<path d="M12 3C11.4477 3 11 3.44745 11 3.99974C11 5.08451 11 6.70229 11 7H13V6C13 5.44772 13.4477 5 14 5H16V17H19V5H21C21.5523 5 22 5.44772 22 6V7H24C24 6.22374 24 4.90847 24 3.9992C24 3.44691 23.5523 3 23 3H12Z" fill="white"/>
<path d="M3 3V5H4C4.55228 5 5 5.44278 5 5.99506C5 8.3287 5 13.7558 5 16.0005C5 16.5528 5.44772 17 6 17H12C12.5523 17 13 16.5525 13 16.0003C13 14.9155 13 13.2977 13 13H11V14C11 14.5523 10.5523 15 10 15H9C8.44772 15 8 14.5523 8 14V4C8 3.44772 7.55364 3 7.00135 3C5.63593 3 3.31843 3 3 3Z" fill="white"/>
<path d="M4 23.8889C4.00001 23.6111 5.11111 20 7.33333 20C9.55556 20 9.83333 22.7778 10.6667 22.7778C11.5 22.7778 11.7778 20 14 20C16.2222 20 16.5 22.7778 17.3333 22.7778C18.1667 22.7778 18.4444 20 20.6667 20C22.8889 20 24 23.6111 24 23.8889C24 24.1667 24 25 22.8889 25C21.7778 25 21.5 22.2222 20.6667 22.2222C19.8333 22.2222 19.5556 25 17.3333 25C15.1111 25 14.8333 22.2222 14 22.2222C13.1667 22.2222 12.8889 25 10.6667 25C8.44444 25 8.16667 22.2222 7.33333 22.2222C6.5 22.2222 6.22222 25 5.11111 25C4 25 3.99999 24.1667 4 23.8889Z" fill="#7F7FFF"/>
</svg>
