<svg width="28" height="28" viewBox="0 0 28 28" fill="none" xmlns="http://www.w3.org/2000/svg">
<path d="M8.01868 16.9998C8.01844 16.3995 8.50013 16 9.01868 16C9.53955 16 10.0187 16.3908 10.0187 17C10.0187 17.0675 9.97278 17.2211 9.79224 17.4744C9.62293 17.7122 9.38245 17.9731 9.1084 18.2433C8.90052 18.4482 8.68555 18.6467 8.47815 18.8383L8.40296 18.9077L8.28333 19.0185C8.15882 19.1343 8.03418 19.2516 7.92115 19.3649C7.80603 19.4802 7.70301 19.5915 7.62403 19.6929C7.25025 20.1733 7.09363 20.6269 7.03577 20.9762C6.98035 21.3104 7.00586 21.6625 7.00586 22H11V21H8.05274C8.10279 20.8146 8.20508 20.5745 8.41321 20.3071C8.47657 20.2256 8.57776 20.1198 8.71326 19.9883C8.78699 19.9168 8.87085 19.8377 8.96436 19.7508L9.14807 19.5807C9.35779 19.3871 9.58972 19.173 9.81043 18.9555C10.0978 18.6722 10.3868 18.3633 10.6068 18.0546C10.8156 17.7614 11.0187 17.392 11.0187 17C11.0187 15.7714 10.0222 15 9.01868 15C8.0127 15 7.01831 15.7846 7.01868 17L8.01868 16.9998Z" fill="white"/>
<path d="M13 17C13 16.4477 13.4477 16 14 16C14.5523 16 15 16.4477 15 17C15 17.5523 14.5523 18 14 18H13V19H14C14.5523 19 15 19.4477 15 20C15 20.5523 14.5523 21 14 21C13.4477 21 13 20.5523 13 20H12C12 21.1046 12.8954 22 14 22C15.1046 22 16 21.1046 16 20C16 19.4027 15.7381 18.8665 15.3229 18.5C15.7381 18.1335 16 17.5973 16 17C16 15.8954 15.1046 15 14 15C12.8954 15 12 15.8954 12 17H13Z" fill="white"/>
<path d="M2 18H2.70715L4 16.7072V22H5V15H4V15.2928L2 17.2929V18Z" fill="white"/>
<rect x="8" y="6" width="17" height="1" fill="white"/>
<rect x="8" y="9" width="17" height="1" fill="white"/>
<rect x="8" y="12" width="17" height="1" fill="white"/>
<rect x="18" y="15" width="7" height="1" fill="white"/>
<rect x="18" y="18" width="7" height="1" fill="white"/>
<rect x="18" y="21" width="7" height="1" fill="white"/>
</svg>
