<svg width="120" height="60" viewBox="0 0 120 60" fill="none" xmlns="http://www.w3.org/2000/svg">
<rect x="39" y="9" width="42" height="42" rx="3" fill="#FE951F"/>
<path fill-rule="evenodd" clip-rule="evenodd" d="M54 17C54 15.8954 54.8954 15 56 15H64C65.1046 15 66 15.8954 66 17V23C66 24.1046 65.1046 25 64 25H63.1547L68.3509 34H73C74.1046 34 75 34.8954 75 36V42C75 43.1046 74.1046 44 73 44H65C63.8954 44 63 43.1046 63 42V36C63 34.8954 63.8954 34 65 34H66.0415L60.8453 25H59.1547L53.9585 34H55C56.1046 34 57 34.8954 57 36V42C57 43.1046 56.1046 44 55 44H47C45.8954 44 45 43.1046 45 42V36C45 34.8954 45.8954 34 47 34H51.6491L56.8453 25H56C54.8954 25 54 24.1046 54 23V17Z" fill="white"/>
</svg>
