<svg width="28" height="28" viewBox="0 0 28 28" fill="none" xmlns="http://www.w3.org/2000/svg">
<path fill-rule="evenodd" clip-rule="evenodd" d="M23 5H5V19.293L8.50001 15.793L10.5 17.793L16.5 11.793L18.3536 13.6465L17.6465 14.3536L16.5 13.2072L10.5 19.2072L8.50001 17.2072L5 20.7072V23H11V24H5C4.44772 24 4 23.5523 4 23V5C4 4.44772 4.44772 4 5 4H23C23.5523 4 24 4.44772 24 5V11H23V5ZM20 24L21 23H23V21L24 20V23C24 23.5523 23.5523 24 23 24H20Z" fill="#444444"/>
<path fill-rule="evenodd" clip-rule="evenodd" d="M9 10C9.55228 10 10 9.55228 10 9C10 8.44772 9.55228 8 9 8C8.44772 8 8 8.44772 8 9C8 9.55228 8.44772 10 9 10ZM9 11C10.1046 11 11 10.1046 11 9C11 7.89543 10.1046 7 9 7C7.89543 7 7 7.89543 7 9C7 10.1046 7.89543 11 9 11Z" fill="#444444"/>
<path fill-rule="evenodd" clip-rule="evenodd" d="M23 18L15 26H12V23L20 15L23 18Z" fill="#444444"/>
<path fill-rule="evenodd" clip-rule="evenodd" d="M21 14L24 17L26 15V14L24 12H23L21 14Z" fill="#444444"/>
</svg>
