<svg width="28" height="28" viewBox="0 0 28 28" fill="none" xmlns="http://www.w3.org/2000/svg">
<path d="M21.5287 13.4369C21.5287 12.0587 21.0337 11.1042 20.609 10.3612C20.5659 10.2911 20.5229 10.2218 20.4804 10.1531L20.4793 10.1514L20.4787 10.1504C19.9649 9.32136 19.5138 8.59357 19.5138 7.74602C19.5138 6.72085 20.2914 5.76657 21.3865 5.76657C21.4184 5.76657 21.4493 5.76913 21.4801 5.77169C21.497 5.77309 21.514 5.7745 21.5311 5.77548C19.5469 3.95773 16.9035 2.8479 14.0001 2.8479C10.104 2.8479 6.67628 4.84687 4.68219 7.87461C4.94384 7.88247 5.19042 7.88798 5.39987 7.88798C6.56636 7.88798 8.37201 7.74644 8.37201 7.74644C8.97319 7.711 9.04406 8.59399 8.44352 8.66508C8.44352 8.66508 7.83938 8.73617 7.16711 8.77139L11.2283 20.8512L13.6689 13.5316L11.9313 8.77097C11.3308 8.73574 10.7619 8.66465 10.7619 8.66465C10.1609 8.62943 10.2314 7.71058 10.8323 7.74602C10.8323 7.74602 12.674 7.88756 13.7699 7.88756C14.9361 7.88756 16.742 7.74602 16.742 7.74602C17.3436 7.71058 17.4143 8.59356 16.8135 8.66465C16.8135 8.66465 16.2081 8.73574 15.5371 8.77097L19.5673 20.7593L20.6797 17.0421L20.7676 16.7614C21.2057 15.3634 21.5287 14.3327 21.5287 13.4369Z" fill="white"/>
<path d="M2.84789 13.9997C2.84789 18.414 5.41323 22.2288 9.13319 24.0366L3.81342 9.46106C3.19463 10.848 2.84789 12.3829 2.84789 13.9997Z" fill="white"/>
<path d="M10.8497 24.6982L14.1958 14.9752L17.6241 24.3668C17.6464 24.422 17.6736 24.4727 17.7035 24.5204C16.5442 24.9281 15.2988 25.1526 14.0001 25.1526C12.9053 25.1526 11.8488 24.9919 10.8497 24.6982Z" fill="white"/>
<path d="M23.7857 8.64917C23.8337 9.0044 23.8609 9.38573 23.8609 9.79593C23.8609 10.9276 23.6495 12.1998 23.0129 13.7905L19.6064 23.6395C22.9218 21.7061 25.1519 18.1142 25.1519 13.9999C25.1521 12.061 24.6568 10.2377 23.7857 8.64917Z" fill="white"/>
<path fill-rule="evenodd" clip-rule="evenodd" d="M1 13.9997C1 6.83161 6.83203 1 14.0001 1C21.168 1 27.0006 6.83161 27.0008 13.9997C27.0008 21.1686 21.168 27 14.0001 27C6.83203 27 1 21.1686 1 13.9997ZM1.59608 13.9997C1.59608 20.8395 7.16074 26.4041 14.0001 26.4041C20.8393 26.4041 26.4035 20.8395 26.4035 13.9997C26.4035 7.16031 20.8393 1.59608 14.0001 1.59608C7.16053 1.59608 1.59608 7.16031 1.59608 13.9997Z" fill="white"/>
</svg>
