<svg width="28" height="28" viewBox="0 0 28 28" fill="none" xmlns="http://www.w3.org/2000/svg">
<path d="M8 20.75V9C8 7.89543 8.89543 7 10 7H17C18.5 7 21 8.12383 21 11C21 13.8762 18.5 15 17 15H16L20.5 19.5C20.5 19.5 21.5 20.5 20.5 21.5C19.5 22.5 18.5 21.5 18.5 21.5L12.5 15.5C11.5 14.5 11.5 12.5 13 12.5H17C17 12.5 18.5 12.5 18.5 11C18.5 9.5 17 9.5 17 9.5H10.5V20.75C10.5 21.4404 9.94036 22 9.25 22C8.55964 22 8 21.4404 8 20.75Z" fill="#A370FF"/>
<path d="M4 19L2 20V22C2 24.2091 3.79086 26 6 26H22C24.2091 26 26 24.2091 26 22V12L24 11V22C24 23.1046 23.1046 24 22 24H6C4.89543 24 4 23.1046 4 22V19Z" fill="#FF8C61"/>
<path d="M16 26H22C24.2091 26 26 24.2091 26 22V12L24 11V22C24 23.1046 23.1046 24 22 24H15L16 26Z" fill="#FF33A3"/>
<path d="M12 2H6C3.79086 2 2 3.79086 2 6V18L4 17V6C4 4.89543 4.89543 4 6 4H11L12 2Z" fill="#71D670"/>
<path d="M26 10V6C26 3.79086 24.2091 2 22 2H12L11 4H22C23.1046 4 24 4.89543 24 6V9L26 10Z" fill="#2EB8FF"/>
</svg>
