<svg xmlns="http://www.w3.org/2000/svg" width="20" height="20" fill="none" viewBox="0 0 20 20">
    <path fill="#383838" d="m11.611 14.605-.182-.641-1.232 1.294 1.715.403-.177-.619a3.844 3.844 0 0 0-.932-7.176l-.095.434a3.401 3.401 0 0 1 .903 6.305M8.267 8.683l.248.653 1.137-1.35L7.89 7.69l.217.573a3.846 3.846 0 0 0 1.037 7.113l.096-.435a3.401 3.401 0 0 1-.973-6.258m.8-3.053Q6.49 5.417 6.899 2.276q3.254-.204 3.198 2.573.484-.976 1.758-2.078a.156.156 0 1 1 .203.235c-1.087.941-1.715 1.794-1.89 2.55a6.067 6.067 0 1 1-1.102.074Z"/>
</svg>
