<svg width="28" height="28" viewBox="0 0 28 28" fill="none" xmlns="http://www.w3.org/2000/svg">
    <path d="M10.15 1.975c2.678 0 4.209 1.148 4.591 3.171C15.31 4.37 16.221 4 17.5 4a.5.5 0 0 1 0 1c-1.143 0-1.7.334-2.016.831-.31.487-.45 1.214-.48 2.227A9 9 0 1 1 14 8h.008l.002-.05c-3.278-.248-4.565-2.447-3.86-5.975m5.666 10.367a5.002 5.002 0 0 1 .318 9.18l-.32-.725-1.534 2.098 2.583.278-.324-.735a6.001 6.001 0 0 0-.36-11.028zm-4.357-.779a6 6 0 0 0 .36 11.028l.363-.932a5.002 5.002 0 0 1-.318-9.18l.32.725 1.534-2.098-2.583-.278z" fill="#383838"/>
</svg>
