<svg width="120" height="60" viewBox="0 0 120 60" fill="none" xmlns="http://www.w3.org/2000/svg">
<circle cx="60.5" cy="30.5" r="24.5" fill="white"/>
<path d="M59.5379 18C58.8969 18 58.2559 18.6097 58.2559 19.2195V22.2682H60.82V21.439C60.82 20.8867 61.2677 20.439 61.82 20.439H64.0252V34.463H67.2303V20.439H69.4355C69.9878 20.439 70.4355 20.8867 70.4355 21.439V22.2682H72.9996V19.2195C72.9996 18.6097 72.3586 18 71.7175 18H59.5379Z" fill="black"/>
<path d="M48 18V20.439H48.9231C49.4754 20.439 49.9231 20.8867 49.9231 21.439V33.2435C49.9231 33.8532 50.5641 34.463 51.2052 34.463H59.5386C60.1796 34.463 60.8206 33.8532 60.8206 33.2435V30.1948H57.6155V31.024C57.6155 31.5763 57.1678 32.024 56.6155 32.024H54.1283C53.576 32.024 53.1283 31.5763 53.1283 31.024V19.2195C53.1283 18.6097 52.4872 18 51.8462 18H48Z" fill="black"/>
<path d="M48.6406 41.7804C48.6406 41.4755 49.9939 37.5122 52.7005 37.5122C55.4071 37.5122 55.7454 40.5609 56.7604 40.5609C57.7753 40.5609 58.1137 37.5122 60.8202 37.5122C63.5268 37.5122 63.8651 40.5609 64.8801 40.5609C65.8951 40.5609 66.2334 37.5122 68.94 37.5122C71.6466 37.5122 72.9999 41.4755 72.9999 41.7804C72.9999 42.0853 72.9999 42.9999 71.6466 42.9999C70.2933 42.9999 69.955 39.9512 68.94 39.9512C67.925 39.9512 67.5867 42.9999 64.8801 42.9999C62.1735 42.9999 61.8352 39.9512 60.8202 39.9512C59.8053 39.9512 59.467 42.9999 56.7604 42.9999C54.0538 42.9999 53.7155 39.9512 52.7005 39.9512C51.6855 39.9512 51.3472 42.9999 49.9939 42.9999C48.6406 42.9999 48.6406 42.0853 48.6406 41.7804Z" fill="#357EE5"/>
</svg>
