<svg width="28" height="28" viewBox="0 0 28 28" fill="none" xmlns="http://www.w3.org/2000/svg">
<path d="M2 7H13V9H9V21H6V9H2V7Z" fill="white"/>
<path d="M15 7H18V12.1421C18.9196 11.1492 20.0467 10.6289 21.3189 10.6289C21.9783 10.6289 22.5731 10.7435 23.1034 10.9727C23.6336 11.2019 24.0313 11.4948 24.2964 11.8513C24.5683 12.2078 24.7519 12.6025 24.847 13.0355C24.949 13.4684 25 14.14 25 15.0505V21H22.1346V15.6425C22.1346 14.5793 22.0803 13.9045 21.9715 13.618C21.8627 13.3315 21.669 13.1055 21.3903 12.94C21.1183 12.7681 20.775 12.6821 20.3604 12.6821C19.8845 12.6821 19.4596 12.7903 19.0857 13.0068C18.7118 13.2233 18.4365 13.5511 18.2598 13.9904C18.1525 14.2638 18.0563 14.6203 18 15.0608V21H15V7Z" fill="white"/>
</svg>
