<?xml version="1.0" encoding="UTF-8" standalone="no"?>
<!DOCTYPE svg PUBLIC "-//W3C//DTD SVG 1.1//EN" "http://www.w3.org/Graphics/SVG/1.1/DTD/svg11.dtd">
<svg width="100%" height="100%" viewBox="0 0 800 800" version="1.1" xmlns="http://www.w3.org/2000/svg" xmlns:xlink="http://www.w3.org/1999/xlink" xml:space="preserve" xmlns:serif="http://www.serif.com/" style="fill-rule:evenodd;clip-rule:evenodd;stroke-linejoin:round;stroke-miterlimit:2;">
    <g transform="matrix(1,0,0,1,51.758182,10.800565)">
        <g transform="matrix(0.791386,0.017864,-0.022351,0.990168,-99.471037,-184.343768)">
            <rect x="373.2" y="600.3" width="278.7" height="8" style="fill:rgb(15,1,179);fill-rule:nonzero;"/>
        </g>
        <g transform="matrix(0.481165,0.376648,-0.471255,0.602025,301.849918,-95.307836)">
            <path d="M655.1,629.6L655.1,805.8C655.1,884.2 590.9,948.3 512.6,948.3L502.8,948.3C444.1,948.3 396.1,900.3 396.1,841.6L396.1,629.6L656.706,474.007L655.1,629.6Z" style="fill:rgb(15,1,179);"/>
        </g>
        <g transform="matrix(0.481165,0.376648,-0.471255,0.602025,301.849918,-95.307836)">
            <path d="M511.7,958.8C471,958.8 432.7,942.9 403.7,913.9C374.7,884.9 358.8,846.6 358.8,805.9L358.8,209.2L326.6,209.2C315.2,209.2 305.9,199.9 305.9,188.5L305.9,170.9C305.9,159.5 315.2,150.2 326.6,150.2L696.7,150.2C708.1,150.2 717.4,159.5 717.4,170.9L717.4,188.5C717.4,199.9 708.1,209.2 696.7,209.2L664.5,209.2L664.5,805.9C664.5,846.6 648.6,884.9 619.6,913.9C590.7,942.8 552.4,958.8 511.7,958.8ZM326.6,165.1C323.4,165.1 320.9,167.7 320.9,170.8L320.9,188.4C320.9,191.6 323.5,194.1 326.6,194.1L373.8,194.1L373.8,805.8C373.8,842.5 388.2,877.1 414.3,903.2C440.4,929.3 475,943.7 511.7,943.7C548.4,943.7 583,929.3 609.1,903.2C635.2,877.1 649.6,842.5 649.6,805.8L649.6,194.2L696.8,194.2C700,194.2 702.5,191.6 702.5,188.5L702.5,170.9C702.5,167.7 699.9,165.2 696.8,165.2L326.6,165.1Z" style="fill:rgb(15,1,179);fill-rule:nonzero;"/>
        </g>
        <g transform="matrix(0.481165,0.376648,-0.471255,0.602025,301.849918,-95.307836)">
            <path d="M373.2,193.8L423.9,193.8L423.9,201.8L373.2,201.8L373.2,193.8ZM466.8,193.8L651.9,193.8L651.9,201.8L466.8,201.8L466.8,193.8Z" style="fill:rgb(15,1,179);fill-rule:nonzero;"/>
        </g>
        <g transform="matrix(-0.610027,-0.48871,-0.48871,0.610027,864.591857,327.603649)">
            <path d="M538.999,521.753C524.899,521.753 513.499,510.353 513.499,496.253C513.499,482.153 524.899,470.753 538.999,470.753C553.099,470.753 564.499,482.153 564.499,496.253C564.499,510.253 553.099,521.753 538.999,521.753ZM538.999,478.753C529.399,478.753 521.499,486.553 521.499,496.253C521.499,505.853 529.299,513.753 538.999,513.753C548.699,513.753 556.499,505.953 556.499,496.253C556.499,486.553 548.599,478.753 538.999,478.753ZM458.1,417.6C436.8,417.6 419.5,400.3 419.5,379C419.5,357.7 436.8,340.4 458.1,340.4C479.4,340.4 496.7,357.7 496.7,379C496.7,400.3 479.4,417.6 458.1,417.6ZM458.1,348.4C441.2,348.4 427.5,362.1 427.5,379C427.5,395.9 441.2,409.6 458.1,409.6C475,409.6 488.7,395.9 488.7,379C488.7,362.1 475,348.4 458.1,348.4ZM566.7,107.3C555.3,107.3 546,98 546,86.6C546,75.2 555.3,65.9 566.7,65.9C578.1,65.9 587.4,75.2 587.4,86.6C587.4,98 578.2,107.3 566.7,107.3ZM566.7,73.9C559.7,73.9 554,79.6 554,86.6C554,93.6 559.7,99.3 566.7,99.3C573.7,99.3 579.4,93.6 579.4,86.6C579.4,79.6 573.7,73.9 566.7,73.9ZM546.023,340.927C529.323,340.927 515.723,327.327 515.723,310.627C515.723,293.927 529.323,280.327 546.023,280.327C562.723,280.327 576.323,293.927 576.323,310.627C576.323,327.327 562.723,340.927 546.023,340.927ZM546.023,288.327C533.723,288.327 523.723,298.327 523.723,310.627C523.723,322.927 533.723,332.927 546.023,332.927C558.323,332.927 568.323,322.927 568.323,310.627C568.323,298.327 558.323,288.327 546.023,288.327Z" style="fill:rgb(15,1,179);fill-rule:nonzero;"/>
        </g>
        <g transform="matrix(0.499724,0,0,0.844652,313.288567,3.351323)">
            <path d="M575.644,642.4C603.375,642.299 635.921,626.114 635.921,605.759C635.921,585.403 627.515,578.926 606.211,558.444C584.287,537.367 575.557,508.572 575.557,508.572C575.557,508.572 566.826,537.367 544.902,558.444C523.598,578.926 515.192,585.403 515.192,605.759C515.192,626.114 547.738,642.299 575.469,642.4" style="fill:rgb(15,1,179);"/>
        </g>
    </g>
</svg>
