<?xml version="1.0" standalone="no"?>
<!DOCTYPE svg PUBLIC "-//W3C//DTD SVG 20010904//EN"
 "http://www.w3.org/TR/2001/REC-SVG-20010904/DTD/svg10.dtd">
<svg version="1.0" xmlns="http://www.w3.org/2000/svg"
 width="400.000000pt" height="400.000000pt" viewBox="0 0 400.000000 400.000000"
 preserveAspectRatio="xMidYMid meet">

<g transform="translate(0.000000,400.000000) scale(0.100000,-0.100000)"
fill="#000000" stroke="none">
<path d="M1534 3372 c-10 -2 -23 -8 -28 -13 -6 -5 -20 -9 -33 -9 -24 0 -135
-32 -194 -57 -33 -13 -40 -13 -68 2 -56 28 -111 5 -252 -104 -64 -50 -118
-115 -111 -134 3 -10 -65 -96 -90 -115 -10 -7 -18 -21 -18 -30 0 -9 -15 -39
-32 -67 -70 -112 -143 -271 -180 -395 -20 -67 -47 -321 -42 -399 1 -25 -2 -56
-7 -70 -6 -13 -12 -67 -15 -119 -3 -53 -7 -98 -9 -102 -9 -15 19 -220 37 -270
11 -30 27 -73 35 -95 29 -79 85 -186 115 -221 18 -20 66 -61 107 -92 42 -30
99 -74 126 -98 46 -39 95 -70 201 -130 22 -12 67 -32 99 -43 32 -11 76 -32 98
-47 72 -47 138 -64 332 -85 55 -6 120 -12 145 -13 25 -2 47 -4 50 -5 21 -7
181 -13 375 -14 185 -2 246 2 310 16 44 9 94 20 110 23 69 13 183 71 338 172
148 96 190 132 264 224 74 94 116 168 153 276 17 52 42 114 55 138 13 25 27
66 30 92 4 26 10 56 14 67 40 101 53 181 56 345 2 85 6 188 10 228 4 44 3 84
-3 100 -6 15 -27 81 -48 147 -20 66 -56 158 -79 205 -23 47 -48 101 -56 120
-18 47 -47 89 -132 191 -61 72 -87 94 -167 140 -52 30 -115 63 -140 74 -25 10
-63 28 -85 40 -71 39 -292 88 -475 106 -63 6 -133 14 -155 17 -47 5 -96 6
-260 3 -66 -1 -174 -1 -241 1 -66 2 -129 1 -140 0z m681 -182 c279 -13 434
-52 585 -146 19 -12 68 -40 107 -61 104 -54 182 -146 261 -306 33 -67 63 -137
67 -156 4 -18 22 -79 41 -135 32 -96 34 -111 40 -291 6 -200 8 -183 -45 -415
-12 -54 -43 -135 -85 -222 -36 -75 -66 -141 -66 -146 0 -17 -81 -114 -172
-205 -48 -49 -88 -93 -88 -98 0 -5 -11 -11 -25 -15 -13 -3 -29 -12 -36 -20 -6
-8 -20 -14 -30 -14 -10 0 -33 -6 -51 -14 -209 -90 -245 -97 -574 -105 -211 -5
-275 -9 -288 -20 -15 -13 -21 -12 -45 2 -15 9 -49 16 -77 16 -27 0 -71 5 -99
11 -27 7 -77 14 -109 16 -48 3 -70 11 -114 40 -30 20 -95 55 -146 79 -50 24
-116 57 -146 74 -30 17 -77 41 -105 54 -27 13 -55 33 -60 44 -18 35 -36 53
-93 90 -49 33 -105 94 -120 133 -3 8 -18 35 -34 59 -15 25 -28 57 -28 72 0 14
-9 46 -19 70 -15 33 -20 69 -21 144 -1 55 -1 105 0 110 1 6 1 35 0 65 0 30 6
82 15 114 9 33 22 105 30 160 8 56 21 130 30 166 8 36 15 79 15 96 0 17 8 58
19 90 21 67 121 265 145 290 12 11 15 26 10 49 -5 28 0 39 39 86 26 33 51 53
62 52 10 -1 47 16 83 38 43 26 69 36 75 30 6 -6 33 -1 76 15 36 14 137 43 224
65 148 37 166 39 300 38 80 0 153 4 167 10 14 6 41 8 60 5 19 -2 121 -9 225
-14z"/>
<path d="M1483 2559 c-59 -17 -71 -49 -70 -184 0 -136 17 -188 65 -206 37 -14
84 1 99 31 6 14 15 86 18 160 6 119 4 139 -12 170 -20 38 -44 46 -100 29z"/>
<path d="M2393 2522 c-14 -9 -58 -108 -68 -152 -10 -44 4 -191 19 -194 6 -2
35 -10 63 -20 57 -18 84 -12 102 23 6 10 12 84 14 165 5 175 1 186 -71 186
-26 0 -52 -4 -59 -8z"/>
<path d="M2848 1941 c-27 -15 -61 -39 -76 -54 -28 -27 -181 -97 -212 -97 -9 0
-52 -17 -96 -38 -77 -38 -131 -55 -206 -67 -21 -3 -38 -10 -38 -16 0 -8 -84
-7 -305 6 -33 2 -130 7 -215 11 -121 5 -163 11 -190 26 -19 10 -40 18 -47 18
-25 0 -113 52 -132 79 -11 16 -34 34 -51 41 -26 11 -34 10 -57 -6 -16 -10 -31
-17 -35 -16 -4 1 -15 -9 -24 -23 -43 -65 23 -173 135 -222 31 -13 63 -28 72
-33 9 -5 34 -12 55 -15 22 -4 48 -10 59 -15 59 -25 423 -42 538 -26 54 8 52
11 36 -80 -9 -52 -8 -75 5 -125 15 -61 22 -73 81 -137 34 -39 113 -82 148 -82
13 0 28 -5 33 -10 6 -6 60 -11 120 -12 101 -1 131 4 214 34 42 15 106 80 132
133 64 130 61 119 56 216 -5 87 -7 94 -47 150 -22 32 -41 60 -41 63 0 3 21 14
48 26 82 36 192 158 192 212 0 37 -49 88 -82 87 -13 -1 -44 -13 -70 -28z
m-203 -487 c36 -76 -1 -170 -79 -198 -96 -35 -197 -25 -271 25 -41 28 -52 58
-58 161 -3 69 -2 79 17 96 12 11 35 22 53 25 l32 6 -6 -64 c-4 -47 -2 -72 10
-97 19 -41 53 -78 71 -78 26 0 84 29 90 45 11 28 6 89 -9 115 -24 42 -19 66
18 77 30 10 34 8 73 -32 23 -24 49 -60 59 -81z"/>
</g>
</svg>
