<?xml version="1.0" encoding="UTF-8"?>
<svg xmlns="http://www.w3.org/2000/svg" xmlns:xlink="http://www.w3.org/1999/xlink" width="28px" height="28px" viewBox="0 0 28 28" version="1.1">
<g id="surface1">
<path style=" stroke:none;fill-rule:nonzero;fill:rgb(0%,0%,0%);fill-opacity:1;" d="M 0.128906 0.207031 C 0.101562 0.230469 0.078125 2.300781 0.078125 4.804688 L 0.078125 9.363281 L 0.246094 9.402344 C 0.34375 9.425781 2.425781 9.433594 4.875 9.425781 L 9.324219 9.402344 L 9.324219 0.191406 L 4.75 0.167969 C 2.242188 0.160156 0.152344 0.175781 0.128906 0.207031 Z M 7.984375 4.757812 L 7.984375 8.058594 L 4.703125 8.042969 L 1.421875 8.019531 L 1.398438 4.835938 C 1.390625 3.085938 1.398438 1.605469 1.421875 1.558594 C 1.441406 1.480469 2.179688 1.457031 4.71875 1.457031 L 7.984375 1.457031 Z M 7.984375 4.757812 "/>
<path style=" stroke:none;fill-rule:nonzero;fill:rgb(0%,0%,0%);fill-opacity:1;" d="M 2.816406 2.816406 C 2.785156 2.839844 2.761719 3.738281 2.761719 4.8125 L 2.761719 6.753906 L 4.675781 6.753906 C 5.894531 6.753906 6.609375 6.722656 6.640625 6.675781 C 6.671875 6.632812 6.683594 5.765625 6.683594 4.742188 C 6.683594 3.332031 6.65625 2.878906 6.585938 2.824219 C 6.46875 2.753906 2.886719 2.738281 2.816406 2.816406 Z M 2.816406 2.816406 "/>
<path style=" stroke:none;fill-rule:nonzero;fill:rgb(0%,0%,0%);fill-opacity:1;" d="M 10.699219 0.253906 C 10.675781 0.316406 10.667969 0.597656 10.683594 0.890625 L 10.707031 1.421875 L 11.34375 1.441406 L 11.972656 1.464844 L 11.972656 0.152344 L 11.359375 0.152344 C 10.914062 0.152344 10.730469 0.183594 10.699219 0.253906 Z M 10.699219 0.253906 "/>
<path style=" stroke:none;fill-rule:nonzero;fill:rgb(0%,0%,0%);fill-opacity:1;" d="M 13.355469 1.457031 L 13.355469 2.761719 L 12.113281 2.761719 C 11.421875 2.761719 10.816406 2.792969 10.761719 2.824219 C 10.691406 2.878906 10.667969 3.324219 10.683594 4.804688 L 10.707031 6.714844 L 11.34375 6.738281 L 11.972656 6.761719 L 11.972656 8.050781 L 11.34375 8.074219 L 10.707031 8.097656 L 10.683594 8.726562 C 10.660156 9.464844 10.667969 9.464844 11.476562 9.425781 L 11.933594 9.402344 L 11.980469 8.050781 L 13.316406 8.097656 L 13.394531 9.402344 L 14.03125 9.425781 L 14.660156 9.449219 L 14.660156 10.007812 C 14.660156 10.386719 14.628906 10.601562 14.558594 10.660156 C 14.492188 10.714844 13.808594 10.753906 12.578125 10.761719 L 10.707031 10.785156 L 10.683594 11.414062 L 10.660156 12.050781 L 9.363281 12.050781 L 9.363281 10.738281 L 8.695312 10.761719 L 8.019531 10.785156 L 7.996094 11.414062 L 7.976562 12.050781 L 7.375 12.050781 C 6.683594 12.050781 6.675781 12.058594 6.675781 12.703125 C 6.675781 13.347656 6.683594 13.355469 7.375 13.355469 L 7.976562 13.355469 L 7.996094 13.984375 L 8.019531 14.621094 L 9.324219 14.699219 L 9.347656 15.367188 L 9.371094 16.042969 L 5.371094 16.042969 L 5.359375 14.714844 L 5.335938 13.394531 L 4.050781 13.371094 L 2.761719 13.355469 L 2.761719 12.050781 L 5.371094 12.050781 L 5.371094 10.746094 L 2.746094 10.761719 L 0.113281 10.785156 L 0.113281 14.621094 L 0.746094 14.644531 L 1.375 14.667969 L 1.421875 13.394531 L 2.09375 13.371094 L 2.761719 13.347656 L 2.761719 14.660156 L 3.378906 14.660156 C 4.074219 14.660156 4.050781 14.628906 4.082031 15.503906 L 4.105469 16.003906 L 5.363281 16.050781 L 5.410156 17.308594 L 9.324219 17.308594 L 9.347656 16.671875 L 9.371094 16.042969 L 11.972656 16.042969 L 11.972656 14.660156 L 10.667969 14.660156 L 10.667969 12.050781 L 11.996094 12.066406 L 13.316406 12.089844 L 13.339844 12.71875 L 13.363281 13.355469 L 13.914062 13.355469 C 14.253906 13.355469 14.515625 13.394531 14.566406 13.449219 C 14.628906 13.507812 14.660156 13.921875 14.660156 14.789062 L 14.660156 16.042969 L 13.355469 16.042969 L 13.355469 18.652344 L 13.960938 18.652344 C 14.667969 18.652344 14.660156 18.636719 14.660156 19.464844 L 14.660156 20.03125 L 19.957031 20.03125 L 19.957031 21.261719 L 19.410156 21.261719 C 18.511719 21.261719 18.574219 21.113281 18.574219 23.332031 L 18.574219 25.253906 L 17.277344 25.253906 L 17.253906 24.613281 L 17.230469 23.984375 L 16.601562 23.960938 L 15.964844 23.941406 L 15.964844 22.648438 L 16.601562 22.628906 L 17.230469 22.605469 L 17.253906 21.976562 C 17.277344 21.238281 17.269531 21.238281 16.464844 21.277344 L 16.003906 21.300781 L 15.980469 21.96875 L 15.957031 22.640625 L 13.355469 22.640625 L 13.355469 21.996094 C 13.355469 21.261719 13.355469 21.261719 12.695312 21.261719 C 12.019531 21.261719 11.972656 21.316406 11.972656 22.027344 L 11.972656 22.640625 L 10.667969 22.640625 L 10.683594 25.273438 L 10.707031 27.898438 L 11.34375 27.921875 L 11.972656 27.945312 L 11.972656 26.632812 L 13.269531 26.632812 C 14.738281 26.632812 14.660156 26.664062 14.660156 25.996094 C 14.660156 25.261719 14.652344 25.253906 13.953125 25.253906 L 13.347656 25.253906 L 13.371094 24.613281 L 13.394531 23.984375 L 14.683594 23.960938 L 15.964844 23.949219 L 15.964844 25.253906 L 17.269531 25.253906 L 17.269531 26.503906 C 17.269531 27.371094 17.300781 27.785156 17.363281 27.847656 C 17.414062 27.898438 17.683594 27.9375 18.015625 27.9375 L 18.574219 27.9375 L 18.574219 25.253906 L 19.949219 25.253906 L 19.972656 24.613281 L 19.996094 23.984375 L 20.609375 23.949219 L 21.222656 23.910156 L 21.246094 21.96875 L 21.261719 20.03125 L 22.566406 20.03125 L 22.566406 25.246094 L 21.9375 25.265625 L 21.300781 25.289062 L 21.300781 27.898438 L 23.210938 27.921875 C 24.308594 27.929688 25.144531 27.90625 25.167969 27.871094 C 25.191406 27.832031 25.207031 27.539062 25.191406 27.21875 L 25.160156 26.632812 L 23.886719 26.617188 L 22.605469 26.59375 L 22.582031 25.925781 L 22.558594 25.253906 L 23.878906 25.238281 L 25.199219 25.214844 L 25.183594 24.578125 L 25.167969 23.949219 L 26.558594 23.949219 L 26.558594 22.640625 L 25.175781 22.640625 L 25.175781 22.074219 C 25.175781 21.324219 25.238281 21.261719 25.988281 21.261719 L 26.558594 21.261719 L 26.558594 20.03125 L 25.941406 20.03125 C 25.214844 20.03125 25.175781 19.996094 25.175781 19.195312 L 25.175781 18.652344 L 23.949219 18.652344 L 23.960938 16.671875 L 23.984375 14.699219 L 25.925781 14.675781 L 27.863281 14.660156 L 27.847656 12.71875 L 27.824219 10.785156 L 26.59375 10.785156 L 26.574219 12.066406 L 26.558594 13.355469 L 23.949219 13.355469 L 23.949219 12.050781 L 25.175781 12.050781 L 25.175781 10.746094 L 23.242188 10.761719 L 21.300781 10.785156 L 21.277344 12.066406 L 21.261719 13.355469 L 19.28125 13.371094 L 17.308594 13.394531 L 17.308594 14.621094 L 19.289062 14.644531 L 21.261719 14.660156 L 21.261719 16.042969 L 15.964844 16.042969 L 15.980469 14.722656 L 16.003906 13.394531 L 17.261719 13.347656 L 17.308594 12.089844 L 17.945312 12.066406 L 18.574219 12.042969 L 18.574219 10.746094 L 18.007812 10.746094 C 17.628906 10.746094 17.414062 10.714844 17.355469 10.644531 C 17.300781 10.578125 17.261719 9.894531 17.253906 8.664062 L 17.230469 6.792969 L 16.003906 6.714844 L 15.957031 5.457031 L 17.230469 5.410156 L 17.230469 4.105469 L 16.601562 4.082031 L 15.964844 4.058594 L 15.964844 1.464844 L 16.601562 1.441406 L 17.230469 1.421875 L 17.230469 0.191406 L 15.296875 0.167969 L 13.355469 0.152344 Z M 14.574219 2.871094 C 14.636719 2.941406 14.660156 3.183594 14.652344 3.507812 L 14.628906 4.03125 L 15.296875 4.050781 L 15.964844 4.074219 L 15.964844 5.449219 L 14.660156 5.449219 L 14.660156 5.980469 C 14.660156 6.808594 14.761719 6.753906 13.269531 6.753906 L 11.972656 6.753906 L 11.972656 5.457031 L 12.648438 5.433594 L 13.316406 5.410156 L 13.339844 4.183594 C 13.347656 3.507812 13.371094 2.910156 13.394531 2.855469 C 13.449219 2.71875 14.460938 2.734375 14.574219 2.871094 Z M 15.949219 8.726562 L 15.925781 9.402344 L 15.296875 9.425781 L 14.660156 9.449219 L 14.660156 8.058594 L 15.972656 8.058594 Z M 9.363281 12.703125 L 9.363281 13.355469 L 7.984375 13.355469 L 7.984375 12.050781 L 9.363281 12.050781 Z M 22.550781 14.023438 L 22.574219 14.660156 L 21.261719 14.660156 L 21.261719 13.347656 L 21.898438 13.371094 L 22.527344 13.394531 Z M 15.964844 16.695312 L 15.964844 17.347656 L 18.574219 17.347656 L 18.574219 18.652344 L 17.292969 18.636719 L 16.003906 18.613281 L 15.980469 17.976562 L 15.957031 17.347656 L 15.367188 17.347656 C 15.035156 17.347656 14.738281 17.316406 14.699219 17.277344 C 14.652344 17.230469 14.628906 16.941406 14.644531 16.625 L 14.675781 16.042969 L 15.964844 16.042969 Z M 22.566406 16.695312 L 22.566406 17.347656 L 21.261719 17.347656 L 21.261719 20.03125 L 19.957031 20.03125 L 19.972656 18.703125 L 19.996094 17.386719 L 20.632812 17.363281 L 21.261719 17.339844 L 21.261719 16.042969 L 22.566406 16.042969 Z M 25.175781 23.296875 L 25.175781 23.949219 L 23.949219 23.949219 L 23.949219 22.640625 L 25.175781 22.640625 Z M 25.175781 23.296875 "/>
<path style=" stroke:none;fill-rule:nonzero;fill:rgb(0%,0%,0%);fill-opacity:1;" d="M 18.628906 0.207031 C 18.597656 0.230469 18.574219 2.300781 18.574219 4.804688 L 18.574219 9.363281 L 18.75 9.402344 C 18.84375 9.425781 20.921875 9.433594 23.371094 9.425781 L 27.824219 9.402344 L 27.824219 0.191406 L 23.25 0.167969 C 20.738281 0.160156 18.652344 0.175781 18.628906 0.207031 Z M 26.558594 4.757812 L 26.558594 8.058594 L 19.957031 8.058594 L 19.957031 1.457031 L 26.558594 1.457031 Z M 26.558594 4.757812 "/>
<path style=" stroke:none;fill-rule:nonzero;fill:rgb(0%,0%,0%);fill-opacity:1;" d="M 21.351562 2.824219 C 21.285156 2.878906 21.261719 3.324219 21.277344 4.804688 L 21.300781 6.714844 L 23.242188 6.738281 L 25.175781 6.753906 L 25.160156 4.78125 L 25.136719 2.800781 L 23.296875 2.785156 C 22.28125 2.769531 21.40625 2.792969 21.351562 2.824219 Z M 21.351562 2.824219 "/>
<path style=" stroke:none;fill-rule:nonzero;fill:rgb(0%,0%,0%);fill-opacity:1;" d="M 1.398438 16.671875 L 1.421875 17.308594 L 2.726562 17.308594 L 2.746094 16.671875 L 2.769531 16.042969 L 1.375 16.042969 Z M 1.398438 16.671875 "/>
<path style=" stroke:none;fill-rule:nonzero;fill:rgb(0%,0%,0%);fill-opacity:1;" d="M 26.574219 16.671875 L 26.59375 17.308594 L 27.824219 17.308594 L 27.847656 16.671875 L 27.871094 16.042969 L 26.550781 16.042969 Z M 26.574219 16.671875 "/>
<path style=" stroke:none;fill-rule:nonzero;fill:rgb(0%,0%,0%);fill-opacity:1;" d="M 10.699219 17.445312 C 10.675781 17.507812 10.667969 17.792969 10.683594 18.082031 L 10.707031 18.613281 L 11.34375 18.636719 L 11.972656 18.660156 L 11.972656 17.347656 L 11.359375 17.347656 C 10.914062 17.347656 10.730469 17.378906 10.699219 17.445312 Z M 10.699219 17.445312 "/>
<path style=" stroke:none;fill-rule:nonzero;fill:rgb(0%,0%,0%);fill-opacity:1;" d="M 0.113281 18.742188 C 0.09375 18.796875 0.0859375 20.878906 0.09375 23.371094 L 0.113281 27.898438 L 9.324219 27.898438 L 9.324219 18.691406 L 4.734375 18.667969 C 1.105469 18.652344 0.136719 18.667969 0.113281 18.742188 Z M 7.984375 23.332031 L 7.984375 26.632812 L 4.699219 26.617188 L 1.421875 26.59375 L 1.398438 23.308594 L 1.382812 20.03125 L 7.984375 20.03125 Z M 7.984375 23.332031 "/>
<path style=" stroke:none;fill-rule:nonzero;fill:rgb(0%,0%,0%);fill-opacity:1;" d="M 2.816406 21.316406 C 2.785156 21.335938 2.761719 22.234375 2.761719 23.308594 L 2.761719 25.253906 L 4.726562 25.238281 L 6.683594 25.214844 L 6.683594 23.300781 C 6.683594 21.835938 6.65625 21.375 6.585938 21.324219 C 6.460938 21.253906 2.886719 21.238281 2.816406 21.316406 Z M 2.816406 21.316406 "/>
<path style=" stroke:none;fill-rule:nonzero;fill:rgb(0%,0%,0%);fill-opacity:1;" d="M 13.355469 20.648438 L 13.355469 21.269531 L 13.992188 21.246094 L 14.621094 21.222656 L 14.621094 20.070312 L 13.992188 20.046875 L 13.355469 20.023438 Z M 13.355469 20.648438 "/>
<path style=" stroke:none;fill-rule:nonzero;fill:rgb(0%,0%,0%);fill-opacity:1;" d="M 26.585938 25.351562 C 26.566406 25.414062 26.558594 25.710938 26.574219 26.027344 L 26.59375 26.59375 L 27.824219 26.59375 L 27.824219 25.289062 L 27.226562 25.265625 C 26.773438 25.253906 26.617188 25.265625 26.585938 25.351562 Z M 26.585938 25.351562 "/>
</g>
</svg>
