<svg width="28" height="28" viewBox="0 0 28 28" fill="none" xmlns="http://www.w3.org/2000/svg">
<path d="M14.579 7H25C25.5523 7 26 7.44772 26 8V24C26 25.1046 25.1046 26 24 26H15L19 21L14.579 7Z" fill="white"/>
<path d="M13 21L19 21L15 26L13 21Z" fill="#4352B8"/>
<path d="M18.4588 19.2864C18.9258 18.8339 19.7739 18.0055 20.269 17.4802C20.9807 18.2519 21.8993 19.1799 23.0871 20.2858L23.859 19.5141C22.587 18.3601 21.654 17.4442 20.9687 16.7085C21.8873 15.6219 22.8202 14.254 23.0174 13.0014H25.0517V13.0038H25.0541V13H24.9999V12H19.9999V11H17.9999V12H16.1578L16.4748 13.0038H21.9137C21.6059 14.0881 20.9254 15.1122 20.2618 15.908C19.0859 14.516 19.0811 14.064 19.0811 14.064H17.8596C17.8596 14.064 17.9101 14.742 19.5596 16.6749C19.2168 17.0253 18.5301 17.667 18.0792 18.0843L18.4588 19.2864Z" fill="#607988"/>
<path fill-rule="evenodd" clip-rule="evenodd" d="M3 2C2.44772 2 2 2.44771 2 3V20C2 20.5523 2.44772 21 3 21H19L13 2H3ZM10.9749 9.02513C10.3868 8.43708 9.60859 8.07763 8.77962 8.01119C7.95064 7.94475 7.1251 8.17566 6.45089 8.66255C5.77669 9.14944 5.29788 9.86049 5.10026 10.6683C4.90264 11.4761 4.99912 12.3279 5.37241 13.071C5.74571 13.8142 6.37142 14.4001 7.13744 14.7239C7.90347 15.0476 8.75975 15.0881 9.55286 14.8379C10.346 14.5877 11.0241 14.0633 11.4657 13.3586C11.7267 12.9423 11.895 12.4791 11.9641 12C11.9693 11.964 11.9739 11.9279 11.978 11.8917C11.9799 11.8746 11.9817 11.8575 11.9834 11.8403C11.9935 11.7373 11.999 11.6338 11.9999 11.5299L12 11.5116V11.488C11.9995 11.3256 11.9875 11.1625 11.9641 11L11.963 10.9922L11.9098 11H9V12H10.9499C10.8904 12.2913 10.779 12.5719 10.6187 12.8278C10.3032 13.3312 9.81875 13.7058 9.25216 13.8846C8.68556 14.0633 8.07385 14.0344 7.52661 13.8031C6.97937 13.5718 6.53236 13.1532 6.26569 12.6223C5.99901 12.0914 5.93008 11.4829 6.07126 10.9058C6.21244 10.3288 6.55449 9.82079 7.03614 9.47296C7.51778 9.12513 8.10755 8.96017 8.69976 9.00763C9.29197 9.0551 9.84793 9.31188 10.268 9.73198L10.9749 9.02513Z" fill="#4285F4"/>
<path d="M8.77962 8.01119C9.60859 8.07763 10.3868 8.43708 10.9749 9.02513L10.268 9.73198C9.84793 9.31188 9.29197 9.0551 8.69976 9.00763C8.10755 8.96017 7.51778 9.12513 7.03614 9.47296C6.55449 9.82079 6.21244 10.3288 6.07126 10.9058C5.93008 11.4829 5.99901 12.0914 6.26569 12.6223C6.53236 13.1532 6.97937 13.5718 7.52661 13.8031C8.07385 14.0344 8.68556 14.0633 9.25215 13.8846C9.81875 13.7058 10.3032 13.3312 10.6187 12.8278C10.779 12.5719 10.8904 12.2913 10.9499 12H9V11H11.9098L11.963 10.9922C11.9634 10.9948 11.9637 10.9974 11.9641 11C11.9875 11.1625 11.9995 11.3256 12 11.488V11.4908C12 11.4969 12 11.5031 12 11.5093V11.5116C12 11.5177 11.9999 11.5238 11.9999 11.5299C11.999 11.6338 11.9935 11.7373 11.9834 11.8403C11.9817 11.8575 11.9799 11.8746 11.978 11.8917C11.9739 11.9279 11.9693 11.964 11.9641 12C11.895 12.4791 11.7267 12.9423 11.4657 13.3586C11.0241 14.0633 10.346 14.5877 9.55286 14.8379C8.75975 15.0881 7.90347 15.0476 7.13744 14.7239C6.37142 14.4001 5.74571 13.8142 5.37241 13.071C4.99912 12.3279 4.90264 11.4761 5.10026 10.6683C5.29788 9.86049 5.77669 9.14944 6.45089 8.66255C7.1251 8.17566 7.95064 7.94475 8.77962 8.01119Z" fill="white"/>
<path d="M15 7H25C25.5523 7 26 7.44772 26 8V18L15 7Z" fill="url(#paint0_linear_8444_61843)"/>
<path d="M3 2C2.44772 2 2 2.44771 2 3V20C2 20.5523 2.44772 21 3 21H13L15 26H24C25.1046 26 26 25.1046 26 24V8C26 7.44772 25.5523 7 25 7H14.5789L13 2H3Z" fill="url(#paint1_linear_8444_61843)"/>
<defs>
<linearGradient id="paint0_linear_8444_61843" x1="15" y1="12" x2="26" y2="12" gradientUnits="userSpaceOnUse">
<stop stop-color="white" stop-opacity="0.2"/>
<stop offset="1" stop-color="white" stop-opacity="0.02"/>
</linearGradient>
<linearGradient id="paint1_linear_8444_61843" x1="2" y1="14.5" x2="26" y2="14.5" gradientUnits="userSpaceOnUse">
<stop stop-color="white" stop-opacity="0.1"/>
<stop offset="1" stop-color="white" stop-opacity="0"/>
<stop offset="1" stop-color="white" stop-opacity="0"/>
</linearGradient>
</defs>
</svg>
