<svg width="28" height="28" viewBox="0 0 28 28" fill="none" xmlns="http://www.w3.org/2000/svg">
<path opacity="0.958" fill-rule="evenodd" clip-rule="evenodd" d="M16.7844 2.0475C17.538 1.96391 18.058 2.27381 18.3444 2.9772C18.6515 3.66149 18.8686 4.37311 18.9958 5.11206C19.036 5.60952 18.9675 6.09158 18.7901 6.55826C18.6828 6.81392 18.5628 7.06071 18.4301 7.29857C18.5283 7.57246 18.5968 7.85367 18.6358 8.14219C19.3328 8.26549 19.91 8.59836 20.3672 9.14075C20.7611 9.67285 21.0011 10.2697 21.0872 10.9313C21.2343 12.5761 21.0515 14.1829 20.5386 15.7519C20.1453 16.951 19.4539 17.9324 18.4644 18.696C18.0756 18.983 17.6413 19.1552 17.1615 19.2125C15.5172 21.0523 13.4829 21.7295 11.0587 21.2441C10.6354 21.1253 10.2353 20.9532 9.85865 20.7276C9.82436 20.7046 9.79008 20.7046 9.75579 20.7276C9.41938 21.0989 9.18511 21.5293 9.05294 22.0188C8.74917 23.3422 8.44059 24.6794 8.12722 25.9958C7.54975 24.9508 6.98976 23.8777 6.44722 22.8108C5.82902 21.1349 5.65759 19.4132 5.93294 17.6458C6.13759 16.608 6.65757 15.7759 7.49294 15.1494C7.98432 14.849 8.51006 14.7572 9.07008 14.8739C8.6604 13.7735 8.66613 12.6774 9.08722 11.5855C9.58241 10.6275 10.3424 9.97903 11.3672 9.64004C11.6471 9.54059 11.9328 9.46598 12.2244 9.41622C12.2118 8.62639 12.3318 7.85739 12.5844 7.10919C12.9312 6.34587 13.4969 5.81216 14.2815 5.50804C14.8191 5.37885 15.2819 5.1206 15.6701 4.73329C15.7494 4.62045 15.7952 4.4942 15.8072 4.35453C15.8757 3.99455 15.8928 3.633 15.8586 3.26988C15.8917 2.64623 16.2003 2.23877 16.7844 2.0475ZM16.9901 3.01163C17.0993 2.99509 17.1964 3.01804 17.2815 3.0805C17.6346 3.74272 17.8861 4.44287 18.0358 5.18093C18.0779 5.95516 17.8208 6.60939 17.2644 7.14362C17.6409 7.72589 17.7666 8.35716 17.6415 9.03745C19.1687 8.99266 20.0087 9.73869 20.1615 11.2756C20.2629 12.8686 20.0229 14.4066 19.4415 15.8897C19.1318 16.5979 18.6917 17.212 18.1215 17.7319C17.8517 17.9564 17.5488 18.1229 17.2129 18.2311C17.0683 18.1718 16.9369 18.0915 16.8186 17.9901C16.1044 19.153 15.0873 19.9163 13.7672 20.2799C12.6014 20.6034 11.4814 20.4886 10.4072 19.9356C10.2121 19.8146 10.0293 19.6769 9.85865 19.5224C9.81295 19.4994 9.76721 19.4994 9.72151 19.5224C8.88504 20.036 8.35361 20.7763 8.12722 21.7433C8.00119 22.2392 7.88533 22.7539 7.75995 23.2451C7.2314 22.3412 6.91296 21.3445 6.82437 20.2971C6.77222 19.6553 6.7608 19.0125 6.79008 18.3689C6.8736 17.4495 7.24502 16.6747 7.90437 16.0446C8.22614 15.783 8.58045 15.7256 8.96722 15.8725C9.11959 15.9203 9.26815 15.9777 9.41294 16.0446C9.95578 16.3919 10.5044 16.7304 11.0587 17.0604C11.2555 16.8577 11.3355 16.6166 11.2987 16.3373C10.6987 15.9582 10.2816 15.4303 10.0472 14.7534C9.75367 14.0169 9.67368 13.2593 9.80722 12.4808C9.99747 11.726 10.4375 11.1693 11.1272 10.8108C11.4337 10.6508 11.7537 10.5245 12.0872 10.432C12.4938 10.3439 12.8995 10.2578 13.3044 10.1738C13.0855 9.15456 13.1883 8.16746 13.6129 7.21249C13.6929 7.10919 13.7729 7.00589 13.8529 6.90259C13.9615 6.81651 14.0701 6.73042 14.1787 6.64434C14.6444 6.43106 15.1129 6.22446 15.5844 6.02454C15.894 5.84001 16.174 5.6162 16.4244 5.35309C16.5519 5.18866 16.6434 5.00501 16.6986 4.80216C16.811 4.30756 16.851 3.80827 16.8186 3.30431C16.8222 3.17075 16.8794 3.07319 16.9901 3.01163Z" fill="white"/>
<path opacity="0.715" fill-rule="evenodd" clip-rule="evenodd" d="M17.3085 4.87512C17.4836 5.58335 17.3178 6.21461 16.8114 6.76895C16.9129 6.46322 17.0157 6.15332 17.12 5.83925C17.2115 5.52305 17.2744 5.20167 17.3085 4.87512Z" fill="white"/>
<path opacity="0.937" fill-rule="evenodd" clip-rule="evenodd" d="M16.5887 5.94273C16.6187 5.93822 16.6416 5.94968 16.6572 5.97716C16.479 6.56463 16.2104 7.10409 15.8515 7.59552C15.7303 7.72874 15.5989 7.84926 15.4572 7.95707C14.903 8.16742 14.3658 8.4142 13.8458 8.69738C13.8384 8.27878 13.9241 7.87705 14.1029 7.49222C14.2607 7.33369 14.4379 7.20167 14.6343 7.09624C15.1479 6.86134 15.6507 6.60884 16.1429 6.33871C16.3069 6.22229 16.4554 6.09031 16.5887 5.94273Z" fill="white"/>
<path opacity="0.931" fill-rule="evenodd" clip-rule="evenodd" d="M16.8629 7.59546C16.9922 7.72875 17.0779 7.88945 17.12 8.07752C17.2172 8.4743 17.1315 8.82435 16.8629 9.12774C16.5407 9.24437 16.3064 9.14678 16.16 8.83506C16.0395 8.5347 16.091 8.26498 16.3143 8.02587C16.5035 7.88711 16.6864 7.74363 16.8629 7.59546Z" fill="white"/>
<path opacity="0.962" fill-rule="evenodd" clip-rule="evenodd" d="M15.4914 8.42175C15.5343 8.4244 15.5628 8.44737 15.5771 8.49062C15.5976 8.91649 15.7748 9.25507 16.1085 9.5064C16.2554 9.58219 16.404 9.65105 16.5543 9.713C16.2725 10.3172 15.8153 10.7304 15.1828 10.9526C14.9245 11.0513 14.6959 11.0054 14.4971 10.8149C13.9965 10.407 13.7623 9.88472 13.7943 9.24815C13.9839 9.05791 14.2067 8.91446 14.4628 8.81773C14.8104 8.68816 15.1533 8.55615 15.4914 8.42175Z" fill="white"/>
<path opacity="0.939" fill-rule="evenodd" clip-rule="evenodd" d="M18.3714 9.7302C18.6114 9.71006 18.8113 9.79042 18.9714 9.97123C19.3165 10.414 19.4994 10.919 19.52 11.4863C19.5679 12.4388 19.4879 13.38 19.28 14.3098C19.1703 13.766 19.0332 13.2265 18.8686 12.6915C18.6331 12.0165 18.4046 11.3393 18.1829 10.6599C18.1299 10.3234 18.1927 10.0135 18.3714 9.7302Z" fill="white"/>
<path opacity="0.971" fill-rule="evenodd" clip-rule="evenodd" d="M17.6857 9.83348C17.7218 9.82835 17.7561 9.83407 17.7886 9.8507C17.6586 10.1854 17.6529 10.524 17.7715 10.8665C18.0845 11.7179 18.3702 12.5787 18.6286 13.449C18.7249 13.8061 18.7991 14.1677 18.8515 14.5336C18.8535 14.6115 18.8307 14.6803 18.7829 14.7402C18.6731 14.7373 18.5702 14.7028 18.4743 14.6369C17.7578 14.0415 16.9692 13.5595 16.1086 13.1907C14.2668 12.5254 12.604 12.8296 11.12 14.1032C11.0768 14.2953 11.1511 14.3585 11.3429 14.2926C12.0337 14.0595 12.7423 13.9677 13.4686 14.0171C14.1611 14.1181 14.7554 14.4108 15.2515 14.8952C14.1059 15.2818 12.9345 15.5572 11.7372 15.7216C11.4591 15.7024 11.242 15.5762 11.0857 15.3428C10.4516 14.4308 10.2573 13.4322 10.5029 12.3471C10.7185 11.8781 11.0671 11.551 11.5486 11.3658C12.2872 11.0684 13.0529 10.9077 13.8457 10.8837C14.1177 11.249 14.4662 11.5072 14.8915 11.6584C15.2507 11.5727 15.5764 11.4178 15.8686 11.1936C16.2686 10.8607 16.6686 10.5279 17.0686 10.195C17.2708 10.0649 17.4766 9.94439 17.6857 9.83348Z" fill="white"/>
<path opacity="0.942" fill-rule="evenodd" clip-rule="evenodd" d="M13.8114 13.3112C14.9315 13.2366 15.96 13.5063 16.8971 14.1204C17.3542 14.4647 17.8114 14.809 18.2685 15.1534C17.646 15.4037 17.006 15.4611 16.3485 15.3255C16.0428 15.1334 15.78 14.8923 15.56 14.6024C14.775 13.8529 13.8378 13.5086 12.7485 13.5694C13.0979 13.4444 13.4522 13.3583 13.8114 13.3112Z" fill="white"/>
<path opacity="0.98" fill-rule="evenodd" clip-rule="evenodd" d="M15.4572 15.274C15.5816 15.3122 15.6845 15.3868 15.7657 15.4979C16.0743 15.7122 16.4171 15.8384 16.7943 15.8766C16.6536 17.2578 16.0021 18.3252 14.84 19.079C13.5725 19.8185 12.2468 19.9448 10.8629 19.4577C10.5211 19.3005 10.2182 19.0882 9.9543 18.8207C9.93071 18.7921 9.93644 18.7691 9.97144 18.7518C11.0118 18.3268 11.709 17.5808 12.0629 16.5137C12.4446 16.3418 12.8332 16.1869 13.2286 16.0488C13.9812 15.8065 14.7241 15.5482 15.4572 15.274Z" fill="white"/>
<path opacity="0.93" fill-rule="evenodd" clip-rule="evenodd" d="M18.8857 15.343C18.9157 15.3385 18.9386 15.35 18.9543 15.3774C18.6133 16.2874 18.059 17.0335 17.2914 17.6156C17.1841 17.5423 17.087 17.4562 17 17.3573C17.0764 17.1732 17.1392 16.9838 17.1886 16.7892C17.2355 16.4777 17.287 16.1678 17.3429 15.8595C17.7888 15.782 18.2231 15.6614 18.6457 15.4979C18.7396 15.4626 18.8196 15.411 18.8857 15.343Z" fill="white"/>
<path opacity="0.951" fill-rule="evenodd" clip-rule="evenodd" d="M8.49716 16.5481C8.54917 16.5485 8.58918 16.5714 8.61716 16.617C8.75485 17.1691 8.772 17.7257 8.66859 18.287C8.71261 18.6454 8.89546 18.9036 9.21716 19.0617C8.44464 19.592 7.91321 20.3036 7.62288 21.1966C7.39028 20.2411 7.34458 19.2769 7.48573 18.3042C7.58955 17.786 7.79526 17.3154 8.10288 16.8924C8.22065 16.7566 8.35206 16.6418 8.49716 16.5481Z" fill="white"/>
<path opacity="0.926" fill-rule="evenodd" clip-rule="evenodd" d="M9.38861 16.8579C9.83449 17.1337 10.2802 17.4091 10.7258 17.6843C10.3604 18.0342 9.93756 18.2867 9.45718 18.4418C9.41148 18.4304 9.36574 18.4189 9.32004 18.4074C9.28098 18.3079 9.25812 18.2046 9.25146 18.0975C9.30848 17.6853 9.35418 17.2721 9.38861 16.8579Z" fill="white"/>
</svg>
