<svg width="20" height="20" viewBox="0 0 20 20" fill="none" xmlns="http://www.w3.org/2000/svg">
    <path d="M15.5 8a.5.5 0 0 1 .5.5c0 3.144-2.434 5.233-5 5.476V17h2.5a.5.5 0 0 1 0 1h-6a.5.5 0 0 1 0-1H10v-3.024c-2.566-.243-5-2.332-5-5.476a.5.5 0 0 1 1 0c0 2.727 2.24 4.5 4.5 4.5S15 11.227 15 8.5a.5.5 0 0 1 .5-.5" fill="#000"/>
    <path d="M10.5 2A2.5 2.5 0 0 1 13 4.5v4a2.5 2.5 0 0 1-5 0v-4A2.5 2.5 0 0 1 10.5 2m0 1A1.5 1.5 0 0 0 9 4.5v4a1.5 1.5 0 1 0 3 0v-4A1.5 1.5 0 0 0 10.5 3" fill="#000"/>
</svg>
