<?xml version="1.0" encoding="UTF-8"?>
<svg version="1.1" xmlns="http://www.w3.org/2000/svg" width="920" height="909">
<path d="M0 0 C0.75348724 -0.00535767 1.50697449 -0.01071533 2.28329468 -0.01623535 C28.39183288 -0.15691516 28.39183288 -0.15691516 36.75 7.8125 C41.14772451 13.49057469 41.43032414 20.15569345 40.5625 27.0625 C35.11333254 56.52965399 23.68350253 84.96913267 -1 103.5625 C-13.34481041 111.97525969 -34.8363711 121.25 -49.9375 121.25 C-49.32192011 129.00630659 -48.09826731 136.57113248 -46.66796875 144.2109375 C-46.24115205 146.49464309 -45.88182936 148.72890165 -45.61328125 151.0390625 C-44.66489555 158.40444752 -40.76712452 163.98761612 -36.8359375 170.125 C-34.9375 173.25 -34.9375 173.25 -34.9375 175.25 C-23.60303249 171.43935781 -23.60303249 171.43935781 -12.5625 166.875 C-8.9375 165.25 -8.9375 165.25 -5.9375 165.25 C-6.04449219 164.32960938 -6.15148437 163.40921875 -6.26171875 162.4609375 C-8.2426562 141.54394207 -8.2426562 141.54394207 -2.015625 133.88671875 C0.0625 132.25 0.0625 132.25 3.125 131.75 C6.0625 132.25 6.0625 132.25 8 133.6875 C9.29348072 136.80707114 8.89819724 139.04155046 8.390625 142.32421875 C7.96009774 146.1630868 7.97491211 149.95321781 8 153.8125 C8.00410889 154.53985352 8.00821777 155.26720703 8.01245117 156.01660156 C8.0251256 157.76110144 8.04323625 159.50556044 8.0625 161.25 C8.51496094 160.81171875 8.96742188 160.3734375 9.43359375 159.921875 C14.59171007 155.1245343 20.06868746 150.8449459 25.75 146.6875 C26.47437256 146.13868164 27.19874512 145.58986328 27.94506836 145.02441406 C33.23255921 141.22901299 33.23255921 141.22901299 37.4609375 141.3359375 C41.62588028 142.79929577 41.62588028 142.79929577 43.0625 145.25 C43.3125 147.9375 43.3125 147.9375 42.0625 151.25 C36.08971267 157.91141458 28.239464 162.98412337 21.0625 168.25 C19.72835608 169.2489183 18.39487354 170.24872155 17.0625 171.25 C17.9503418 171.29487549 18.83818359 171.33975098 19.75292969 171.38598633 C23.05612296 171.55953149 26.35814144 171.74543883 29.66015625 171.93969727 C31.08761698 172.02114154 32.5153659 172.09769161 33.94335938 172.16918945 C35.99965789 172.27300675 38.05426666 172.39456268 40.109375 172.51953125 C41.34526367 172.58760986 42.58115234 172.65568848 43.85449219 172.72583008 C47.19778028 173.27210402 48.71733315 173.83833163 51.0625 176.25 C51.56821229 179.64549682 51.450366 181.53244789 49.8125 184.5625 C46.33064164 187.92000627 41.85107884 187.39282928 37.27734375 187.3515625 C30.53144016 187.13844768 23.79697671 186.68750661 17.0625 186.25 C17.65417969 186.84167969 18.24585938 187.43335938 18.85546875 188.04296875 C23.2578125 192.4453125 27.66015625 196.84765625 32.0625 201.25 C31.875 204.6875 31.875 204.6875 31.0625 208.25 C29.3125 209.75 29.3125 209.75 27.0625 210.25 C17.94469751 209.18174261 11.52083731 201.00710567 6.0625 194.25 C0.98466862 195.79148452 -3.81495384 197.61058859 -8.63476562 199.81396484 C-21.42915129 205.64813167 -33.80361479 209.75296174 -47.62890625 205.14453125 C-61.00996831 199.95965272 -66.82198799 187.30309362 -72.28515625 175.0546875 C-72.83843326 173.78754514 -73.39022297 172.51974527 -73.9375 171.25 C-77.19709368 175.10130336 -79.13450865 179.55497068 -81.3125 184.0625 C-99.11457739 220.20772108 -121.22477304 255.18710936 -146.9375 286.25 C-145.40996094 285.816875 -145.40996094 285.816875 -143.8515625 285.375 C-132.06302534 282.20793031 -117.36807674 278.48190549 -106.125 284.9375 C-103.84765625 286.61328125 -103.84765625 286.61328125 -101.9375 288.25 C-100.98875 289.03375 -100.04 289.8175 -99.0625 290.625 C-91.15260373 300.39604834 -91.12592545 311.21710615 -91.9375 323.25 C-92.94346535 331.96341695 -94.41669258 340.61355309 -95.9375 349.25 C-94.78894531 348.90066406 -93.64039063 348.55132812 -92.45703125 348.19140625 C-68.08526516 340.97277388 -68.08526516 340.97277388 -59.9375 345.25 C-57.78987816 348.47143276 -57.376432 349.5095467 -57.9375 353.25 C-60.8498945 355.93138664 -63.69798901 356.97876625 -67.47265625 358.0390625 C-68.52904297 358.34070313 -69.58542969 358.64234375 -70.67382812 358.953125 C-71.77146484 359.25734375 -72.86910156 359.5615625 -74 359.875 C-76.17845215 360.49195192 -78.35684052 361.10912909 -80.53515625 361.7265625 C-81.49945557 361.99549316 -82.46375488 362.26442383 -83.45727539 362.54150391 C-85.29713638 363.06707498 -87.12223636 363.64491212 -88.9375 364.25 C-81.98719177 367.46425666 -74.93159837 370.12408835 -67.69140625 372.60546875 C-63.14428024 374.22368912 -59.40967635 375.75010168 -55.9375 379.25 C-55.375 382.3125 -55.375 382.3125 -55.9375 385.25 C-57.5 387.125 -57.5 387.125 -59.9375 388.25 C-72.64318411 388.92193522 -85.27487674 382.79387919 -96.9375 378.25 C-94.31591001 387.50267054 -89.85163378 395.60485362 -83.9375 403.1875 C-81.9375 406.25 -81.9375 406.25 -81.875 409.0625 C-82.9375 411.25 -82.9375 411.25 -84.625 412.625 C-87.96148028 413.52675143 -89.61163722 413.33730129 -92.9375 412.25 C-103.86520751 405.35063273 -108.40566454 392.77325929 -112.7734375 381.20703125 C-113.64931785 378.40519929 -113.64931785 378.40519929 -114.9375 377.25 C-115.60845703 378.62671875 -115.60845703 378.62671875 -116.29296875 380.03125 C-124.57104982 396.88354982 -124.57104982 396.88354982 -127.9375 400.25 C-131.81768445 400.10628946 -134.14372677 399.97373442 -137.0625 397.3125 C-138.46274001 392.41165996 -136.983132 388.8175604 -134.9375 384.25 C-133.90270187 382.59910819 -132.86671616 380.94876604 -131.80517578 379.31494141 C-127.01686292 371.8071848 -126.12440142 366.64965185 -127.56835938 357.65869141 C-128.18596419 353.62873828 -128.62618858 349.57770209 -129.09838867 345.52856445 C-129.36249985 343.29028244 -129.63584097 341.05306683 -129.91918945 338.81713867 C-130.050271 337.78177979 -130.18135254 336.7464209 -130.31640625 335.6796875 C-130.49538452 334.29112549 -130.49538452 334.29112549 -130.67797852 332.87451172 C-130.93124994 330.31320613 -130.98370561 327.82182195 -130.9375 325.25 C-139.81576867 327.57771313 -147.94510658 329.75056317 -155.69140625 334.83203125 C-161.48419405 338.48904338 -167.52817419 340.30410847 -174.2578125 341.359375 C-175.32531738 341.52920898 -176.39282227 341.69904297 -177.49267578 341.87402344 C-178.70286377 342.06013184 -178.70286377 342.06013184 -179.9375 342.25 C-181.43488734 349.50588582 -182.88869572 356.76928752 -184.3046875 364.04150391 C-184.82766392 366.69310735 -185.3775707 369.33655257 -185.9375 371.98046875 C-190.03597403 392.62776404 -190.49067167 417.13779878 -183.9375 437.25 C-183.586875 438.35988281 -183.23625 439.46976563 -182.875 440.61328125 C-178.19710195 453.91605384 -171.34539145 466.72993534 -161.9375 477.25 C-161.25171875 478.06597656 -160.5659375 478.88195312 -159.859375 479.72265625 C-137.38274437 505.87801599 -102.87189301 520.33876267 -68.9375 523.25 C-65.52155906 523.39175875 -62.11001706 523.41343118 -58.69140625 523.41796875 C-57.7311554 523.42202225 -56.77090454 523.42607574 -55.78155518 523.43025208 C-52.68766901 523.43965821 -49.59389848 523.43965259 -46.5 523.4375 C-45.44227386 523.4382251 -44.38454773 523.4389502 -43.29476929 523.43969727 C-30.38361603 523.43871829 -17.63911535 523.1731683 -4.77905273 521.97265625 C33.19657337 518.52234467 71.78673016 523.24420234 102.28369141 548.03588867 C108.98135317 553.71743049 116.1767452 559.92136779 121.0625 567.25 C121.25 569.875 121.25 569.875 121.0625 572.25 C120.0625 573.25 120.0625 573.25 117.58984375 573.6875 C112.33268169 573.03544889 108.90900303 570.23287494 104.625 567.25 C65.3626923 540.87947282 27.48322966 543.43236713 -17.56591797 551.68554688 C-70.73694991 561.42322534 -129.43547264 559.49738657 -176.16796875 529.15234375 C-178.83208806 527.26228449 -181.39300561 525.29761675 -183.9375 523.25 C-184.86949219 522.51910156 -185.80148438 521.78820312 -186.76171875 521.03515625 C-222.14899033 492.79292723 -240.63679538 449.48594704 -246.09545898 405.33056641 C-248.92298285 379.11655492 -248.87911249 352.21975076 -243.9375 326.25 C-244.81341797 325.86134766 -244.81341797 325.86134766 -245.70703125 325.46484375 C-253.65247124 321.13729237 -259.41793843 312.18532433 -264.9375 305.25 C-265.71222656 304.28449219 -266.48695313 303.31898438 -267.28515625 302.32421875 C-269.17356941 299.96953074 -271.05755827 297.61145269 -272.9375 295.25 C-275.3399174 298.24299515 -277.01578498 301.25203214 -278.64453125 304.72265625 C-279.14919922 305.78806641 -279.65386719 306.85347656 -280.17382812 307.95117188 C-280.9540332 309.6150293 -280.9540332 309.6150293 -281.75 311.3125 C-284.74957292 317.69562158 -287.75581569 323.99806389 -291.26171875 330.12109375 C-293.54146519 334.25625698 -294.72416546 337.46364805 -294.9375 342.25 C-294.9772998 342.9929834 -295.01709961 343.7359668 -295.05810547 344.50146484 C-295.22867901 347.82864448 -295.35046161 351.15646089 -295.45507812 354.48632812 C-295.48923828 355.29908203 -295.52339844 356.11183594 -295.55859375 356.94921875 C-295.59617798 358.04496216 -295.59617798 358.04496216 -295.63452148 359.1628418 C-295.9818488 361.55551001 -296.6751947 363.19410174 -297.9375 365.25 C-300.73620027 366.64935013 -302.84248792 366.50265405 -305.9375 366.25 C-307.75 365.25 -307.75 365.25 -308.9375 363.25 C-310.62113842 355.44404007 -310.02432643 347.19944184 -309.9375 339.25 C-310.2675 339.91 -310.5975 340.57 -310.9375 341.25 C-311.5975 341.25 -312.2575 341.25 -312.9375 341.25 C-313.13988281 341.78753906 -313.34226562 342.32507813 -313.55078125 342.87890625 C-315.5126077 346.23335317 -318.26970373 348.60904193 -321.125 351.1875 C-321.95354492 351.95610352 -321.95354492 351.95610352 -322.79882812 352.74023438 C-334.29680551 363.25 -334.29680551 363.25 -342.9375 363.25 C-345.4375 362.1875 -345.4375 362.1875 -346.9375 360.25 C-347.28125 357.375 -347.28125 357.375 -346.9375 354.25 C-345.25 352.16015625 -345.25 352.16015625 -342.9375 350.3125 C-342.11507813 349.63316406 -341.29265625 348.95382812 -340.4453125 348.25390625 C-339.61773437 347.59261719 -338.79015625 346.93132812 -337.9375 346.25 C-332.4132568 341.62622867 -327.54602067 336.79462643 -322.9375 331.25 C-329.03956305 331.13686789 -334.93847737 331.5739598 -341 332.25 C-358.56602246 334.20031607 -358.56602246 334.20031607 -364.9375 330.25 C-365.875 326.5625 -365.875 326.5625 -365.9375 323.25 C-356.68233995 315.61709272 -337.56150435 315.82730893 -325.9375 316.25 C-325.9375 315.59 -325.9375 314.93 -325.9375 314.25 C-326.66710937 313.98703125 -327.39671875 313.7240625 -328.1484375 313.453125 C-330.96667118 312.23741635 -333.10381133 310.82551466 -335.5625 309 C-340.07593009 305.74707741 -344.72688479 303.11786792 -349.6875 300.609375 C-351.9375 299.25 -351.9375 299.25 -353.9375 296.25 C-353.78817143 293.26342864 -353.30931669 291.71477087 -351.4375 289.375 C-347.4052736 287.56049812 -344.05998042 288.10973946 -339.9375 289.25 C-331.6238208 292.6162155 -324.64435364 296.80273148 -317.828125 302.6484375 C-316.02250427 304.30620255 -316.02250427 304.30620255 -313.9375 305.25 C-313.83083008 304.54037109 -313.72416016 303.83074219 -313.61425781 303.09960938 C-312.36960263 295.20054001 -310.66989509 287.4945568 -308.6875 279.75 C-308.41292969 278.61691406 -308.13835937 277.48382813 -307.85546875 276.31640625 C-305.17824772 265.83562616 -301.71391906 254.13242164 -291.9375 248.25 C-284.30182879 244.30698946 -275.9399997 243.36590424 -267.59765625 245.3515625 C-254.28299792 249.84843683 -244.39779965 260.42511569 -235.9375 271.25 C-235.9375 271.91 -235.9375 272.57 -235.9375 273.25 C-235.2775 273.25 -234.6175 273.25 -233.9375 273.25 C-234.03224609 271.93515625 -234.03224609 271.93515625 -234.12890625 270.59375 C-234.11821551 264.49697416 -232.33591608 258.62857593 -230.875 252.75 C-230.71821777 252.11260895 -230.56143555 251.4752179 -230.39990234 250.81851196 C-222.58025461 219.08189328 -212.20158792 190.61809605 -190.9375 165.25 C-190.44717285 164.66492676 -189.9568457 164.07985352 -189.45166016 163.47705078 C-185.98764955 159.36564277 -182.47412258 155.29899093 -178.9375 151.25 C-177.79087891 149.93322266 -177.79087891 149.93322266 -176.62109375 148.58984375 C-175.06397568 146.80623578 -173.50363506 145.02568834 -171.9375 143.25 C-172.865625 143.311875 -173.79375 143.37375 -174.75 143.4375 C-182.71279677 143.38914293 -189.79943266 140.91264541 -196.18359375 136.23828125 C-203.0147805 128.49424103 -202.59256375 119.97986163 -202.6875 110.25 C-202.71570128 108.7929339 -202.74563444 107.33590023 -202.77734375 105.87890625 C-202.85071509 102.33608939 -202.90058952 98.79340619 -202.9375 95.25 C-203.57776123 95.14977539 -204.21802246 95.04955078 -204.87768555 94.94628906 C-207.79626657 94.48016168 -210.71039363 93.99034181 -213.625 93.5 C-214.63240234 93.34273438 -215.63980469 93.18546875 -216.67773438 93.0234375 C-226.4016641 91.35464428 -226.4016641 91.35464428 -229.9375 87.25 C-230 83.625 -230 83.625 -228.9375 80.25 C-225.58578343 77.79103037 -222.64416442 78.1410617 -218.625 78.5 C-217.53574219 78.58765625 -216.44648438 78.6753125 -215.32421875 78.765625 C-211.69099051 79.28525626 -208.43880765 80.16721284 -204.9375 81.25 C-206.03914118 79.01955389 -207.14371894 76.79064354 -208.25 74.5625 C-208.55873047 73.93666016 -208.86746094 73.31082031 -209.18554688 72.66601562 C-210.57334239 69.87581622 -211.98946819 67.1664925 -213.63671875 64.51953125 C-215.51331996 61.24534114 -215.48472048 58.94373823 -214.9375 55.25 C-212.75 53.1875 -212.75 53.1875 -209.9375 52.25 C-206.19587788 52.72969514 -204.40085627 54.620359 -202.125 57.4375 C-197.72884142 63.62426103 -194.39464872 70.51119235 -190.9375 77.25 C-187.86859514 69.04246375 -186.43897276 61.79654549 -186.35375977 53.07641602 C-186.2572784 48.64088074 -185.7414836 45.74836633 -182.9375 42.25 C-180 41.1875 -180 41.1875 -176.9375 41.25 C-174.78125 42.66796875 -174.78125 42.66796875 -172.9375 45.25 C-172.30671829 48.38150481 -172.3227551 51.43924864 -172.375 54.625 C-172.38015625 55.51026367 -172.3853125 56.39552734 -172.390625 57.30761719 C-172.61212214 65.36603285 -174.55676792 71.95727794 -177.9375 79.25 C-176.93589844 78.61191406 -175.93429688 77.97382813 -174.90234375 77.31640625 C-173.56028783 76.48114067 -172.21781768 75.64654039 -170.875 74.8125 C-170.21822266 74.39162109 -169.56144531 73.97074219 -168.88476562 73.53710938 C-164.59586042 70.8961579 -161.10084089 69.39535721 -155.9375 69.25 C-152.9375 71.25 -152.9375 71.25 -152 74.0625 C-151.9375 77.25 -151.9375 77.25 -153.390625 79.65234375 C-156.73622 83.0646454 -160.37472018 84.89435679 -164.625 87 C-166.1712222 87.78518104 -167.71682934 88.57157487 -169.26171875 89.359375 C-169.94322998 89.69936523 -170.62474121 90.03935547 -171.3269043 90.38964844 C-172.93020479 91.14586162 -172.93020479 91.14586162 -173.9375 92.25 C-174.17428716 94.94235776 -174.35948025 97.61498156 -174.5 100.3125 C-174.56477539 101.45041992 -174.56477539 101.45041992 -174.63085938 102.61132812 C-174.73723633 104.49065438 -174.83789934 106.37030244 -174.9375 108.25 C-161.45991243 107.7704294 -152.69085441 106.14852099 -141.1484375 98.7734375 C-134.58553981 94.72526391 -127.64019374 91.33412739 -120.78320312 87.81884766 C-118.72439882 86.76296057 -116.67149615 85.69546444 -114.62548828 84.61499023 C-111.9375 83.25 -111.9375 83.25 -109.83935547 82.46508789 C-105.11294983 80.53179446 -103.7668978 77.31070653 -101.8046875 72.90234375 C-100.76536192 70.34598779 -99.78605028 67.76948302 -98.8125 65.1875 C-98.31080365 63.90082884 -97.80691255 62.6150112 -97.30078125 61.33007812 C-96.55499009 59.43624296 -95.81041299 57.54209559 -95.07395935 55.64460754 C-86.94175194 34.76457832 -77.25306651 18.47733159 -56.5 8.4375 C-38.09942917 0.75956397 -19.60464784 0.07869351 0 0 Z " fill="#03AED9" transform="translate(366.9375,159.75)"/>
<path d="M0 0 C13.24167159 13.24167159 18.04628752 30.49167317 18.21850586 48.8359375 C18.20827393 50.08632813 18.19804199 51.33671875 18.1875 52.625 C18.17920166 53.93984375 18.17090332 55.2546875 18.16235352 56.609375 C17.82632222 75.93416385 12.55201859 93.22943318 -1.4140625 107.18359375 C-13.84977425 118.43739901 -28.01374764 120.4305531 -44.15917969 119.87744141 C-53.47856178 119.30939873 -63.67821409 114.32178591 -70.25 107.75 C-70.58 127.88 -70.91 148.01 -71.25 168.75 C-82.47 169.08 -93.69 169.41 -105.25 169.75 C-105.25 111.34 -105.25 52.93 -105.25 -7.25 C-100.44967373 -7.9357609 -96.41722017 -8.37041732 -91.66015625 -8.34765625 C-89.86674805 -8.34282227 -89.86674805 -8.34282227 -88.03710938 -8.33789062 C-86.80798828 -8.32951172 -85.57886719 -8.32113281 -84.3125 -8.3125 C-83.05630859 -8.30798828 -81.80011719 -8.30347656 -80.50585938 -8.29882812 C-77.42055229 -8.28709692 -74.33526988 -8.26916317 -71.25 -8.25 C-70.755 -1.815 -70.755 -1.815 -70.25 4.75 C-68.950625 3.533125 -67.65125 2.31625 -66.3125 1.0625 C-46.63884478 -16.33638884 -20.90428987 -14.47220068 0 0 Z M-67.734375 26.48046875 C-69.25 27.75 -69.25 27.75 -71.25 28.75 C-71.42785722 36.1694749 -71.55022885 43.58839798 -71.63452148 51.00952148 C-71.66966882 53.53251692 -71.71739722 56.05537033 -71.77807617 58.57788086 C-71.8632391 62.20982933 -71.90274792 65.83988963 -71.93359375 69.47265625 C-71.96972275 70.59583755 -72.00585175 71.71901886 -72.04307556 72.87623596 C-72.04584114 78.42381101 -71.85930451 81.8407681 -67.86425781 85.90844727 C-65.26205011 88.10536899 -62.58912237 90.0492002 -59.5625 91.625 C-58.83675781 92.01429688 -58.11101563 92.40359375 -57.36328125 92.8046875 C-50.0031753 96.09700846 -41.87284926 95.58721456 -34.375 93 C-25.85485656 89.50734546 -20.8023286 83.83025771 -17.23828125 75.33984375 C-12.75636472 62.24390227 -11.66603557 45.10307791 -16.9921875 32.16015625 C-21.43318286 23.65054713 -26.78257095 18.76431597 -35.8125 15.4375 C-48.78525583 12.84294883 -58.27899089 18.06858424 -67.734375 26.48046875 Z " fill="#00A9D4" transform="translate(681.25,473.25)"/>
<path d="M0 0 C4.74798248 10.73179817 8.49475685 21.78813405 12.3125 32.875 C13.64227844 36.72343836 14.97469087 40.57095813 16.30859375 44.41796875 C16.63087952 45.34803238 16.95316528 46.27809601 17.28521729 47.23634338 C20.01364257 55.08787294 22.83360594 62.90358466 25.8293457 70.65771484 C27.64222557 75.47644635 28.5463366 79.86429763 29 85 C29.66 85 30.32 85 31 85 C31.15782959 84.22398437 31.31565918 83.44796875 31.47827148 82.6484375 C33.31651237 74.11706548 35.95945809 66.14623186 39.0625 58 C40.04915598 55.36900084 41.02887792 52.73544301 42.0078125 50.1015625 C42.25617355 49.43500641 42.50453461 48.76845032 42.76042175 48.08169556 C45.43258768 40.88498864 47.94625681 33.63597618 50.4375 26.375 C50.83783447 25.2096875 51.23816895 24.044375 51.65063477 22.84375 C53.88054691 16.32937877 56.06252011 9.80176575 58.18774414 3.25244141 C59 1 59 1 60 0 C61.58994837 -0.09957139 63.18428184 -0.13080414 64.77734375 -0.1328125 C65.76669922 -0.13410156 66.75605469 -0.13539063 67.77539062 -0.13671875 C68.81888672 -0.13285156 69.86238281 -0.12898438 70.9375 -0.125 C71.94619141 -0.12886719 72.95488281 -0.13273437 73.99414062 -0.13671875 C80.38916656 -0.12848304 86.65159577 0.22831249 93 1 C92.25358992 5.80786493 90.56411144 10.16807478 88.859375 14.69921875 C88.38210968 15.98073822 88.38210968 15.98073822 87.89520264 17.28814697 C86.85061869 20.08937345 85.80040307 22.88845093 84.75 25.6875 C84.01737464 27.64844287 83.28495494 29.60946259 82.55273438 31.57055664 C78.01065899 43.71877318 73.39428013 55.83705275 68.72860718 67.93823242 C63.13125482 82.47274276 57.82625171 97.11196349 52.5546875 111.76733398 C37.98240586 152.20745621 37.98240586 152.20745621 26 164 C25.4121875 164.58652344 24.824375 165.17304687 24.21875 165.77734375 C11.72728344 177.35551912 -3.49982776 178.46516023 -19.6574707 178.16113281 C-22.45850077 177.96846165 -25.23055231 177.46157461 -28 177 C-28 168.75 -28 160.5 -28 152 C-25.40125 152.0825 -22.8025 152.165 -20.125 152.25 C-10.58448902 152.36632553 -3.19836101 150.61931304 4 144 C6.13398623 140.86311523 6.13398623 140.86311523 7.875 137.3125 C8.79925781 135.57419922 8.79925781 135.57419922 9.7421875 133.80078125 C13.06666059 125.56303283 8.68266468 116.81127903 5.58203125 109.15625 C4.66497466 106.83380829 3.74916115 104.5108754 2.83447266 102.1875 C2.36334045 100.99833984 1.89220825 99.80917969 1.40679932 98.58398438 C-0.83128107 92.88221508 -2.97315082 87.14535187 -5.11328125 81.40625 C-5.97173097 79.11164238 -6.83021105 76.81704613 -7.6887207 74.52246094 C-8.5633888 72.18166865 -9.43798064 69.84084786 -10.3125 67.5 C-17.7056046 47.69788656 -17.7056046 47.69788656 -25.25 27.953125 C-25.71867744 26.73967407 -25.71867744 26.73967407 -26.19682312 25.50170898 C-27.60353753 21.86268789 -29.01758106 18.22681703 -30.44458008 14.59570312 C-30.92810225 13.35034004 -31.41143328 12.10490271 -31.89453125 10.859375 C-32.30550049 9.81233398 -32.71646973 8.76529297 -33.13989258 7.68652344 C-34 5 -34 5 -34 1 C-22.64732258 0.20431798 -11.37981825 -0.12818318 0 0 Z " fill="#01AAD5" transform="translate(470,465)"/>
<path d="M0 0 C2.41665111 0.00187005 4.8333026 0.00329117 7.24995422 0.00428772 C13.5445362 0.00806672 19.83909431 0.01785637 26.13366699 0.0289917 C32.58324867 0.03930629 39.03283429 0.04380665 45.48242188 0.04882812 C58.08855372 0.05948379 70.69466175 0.07704195 83.30078125 0.09765625 C83.30078125 9.33765625 83.30078125 18.57765625 83.30078125 28.09765625 C60.03578125 28.59265625 60.03578125 28.59265625 36.30078125 29.09765625 C36.30078125 75.29765625 36.30078125 121.49765625 36.30078125 169.09765625 C3.30078125 169.09765625 3.30078125 169.09765625 0.30078125 168.09765625 C0.30078125 122.22765625 0.30078125 76.35765625 0.30078125 29.09765625 C-14.54921875 29.09765625 -29.39921875 29.09765625 -44.69921875 29.09765625 C-44.88484375 24.66328125 -45.07046875 20.22890625 -45.26171875 15.66015625 C-45.32302979 14.25967041 -45.38434082 12.85918457 -45.44750977 11.41625977 C-45.49061279 10.32240967 -45.53371582 9.22855957 -45.578125 8.1015625 C-45.62525635 6.97564697 -45.6723877 5.84973145 -45.72094727 4.68969727 C-45.69921875 2.09765625 -45.69921875 2.09765625 -44.69921875 1.09765625 C-42.0402935 0.84927773 -39.40868459 0.67084174 -36.74291992 0.54125977 C-35.89950892 0.49907853 -35.05609793 0.4568973 -34.18712902 0.41343784 C-22.79597939 -0.09923762 -11.39993921 -0.02626744 0 0 Z " fill="#01ABD6" transform="translate(362.69921875,420.90234375)"/>
<path d="M0 0 C2 2 2 2 2.22705078 4.43017578 C2.21657715 5.4251709 2.20610352 6.42016602 2.1953125 7.4453125 C2.18886719 8.52167969 2.18242188 9.59804688 2.17578125 10.70703125 C2.15064453 12.39892578 2.15064453 12.39892578 2.125 14.125 C2.11597656 15.26066406 2.10695313 16.39632813 2.09765625 17.56640625 C2.07403098 20.37781299 2.04109013 23.18880298 2 26 C-3.48947059 24.21893352 -8.86563999 22.18442947 -14.25390625 20.12304688 C-23.78903573 16.50907058 -33.7628577 15.08813051 -43.625 18.625 C-47.8406702 20.59416174 -50.08446322 22.64650731 -52 27 C-52.59960126 30.67255773 -52.43395604 32.29496088 -50.48046875 35.46875 C-47.25012897 38.76522272 -44.10465744 39.91715203 -39.8125 41.4375 C-39.02020996 41.73333984 -38.22791992 42.02917969 -37.41162109 42.33398438 C-33.44901552 43.80179068 -29.46293983 45.19050948 -25.45703125 46.53515625 C-11.66572848 51.17638606 0.48520859 56.21569265 7.9375 69.4375 C11.02840336 79.2933994 10.09805976 91.16503187 5.60546875 100.3515625 C-1.50597183 112.08284405 -12.01644284 118.25474313 -25 122 C-46.69380401 126.74354315 -66.03545141 121.1595796 -85 111 C-85 102.09 -85 93.18 -85 84 C-82.46655557 85.26672222 -79.94225219 86.54103108 -77.42578125 87.83984375 C-64.18425975 94.61820337 -49.5254366 101.60932695 -34.26171875 97.2109375 C-30.6206499 95.64962811 -27.51546899 94.13684973 -25 91 C-23.81897345 87.00842925 -23.63377936 83.239516 -24.8125 79.25 C-31.91669829 71.94282462 -43.85684711 69.54408391 -53.27929688 66.5703125 C-64.42898657 62.88663921 -75.96355705 57.19920921 -82.3125 46.86328125 C-86.32822553 38.42746894 -86.483162 28.04272756 -83.875 19.125 C-79.38039954 8.05496554 -71.97502754 1.00817286 -61.125 -3.8125 C-41.58878083 -11.28295362 -18.54863166 -9.57450663 0 0 Z " fill="#01A8D4" transform="translate(800,470)"/>
<path d="M0 0 C1.1323081 3.62518502 1.12928795 7.03015875 1.1328125 10.8125 C1.13376923 11.46323486 1.13472595 12.11396973 1.13571167 12.78442383 C1.13639018 14.15608823 1.13455887 15.52775589 1.13037109 16.89941406 C1.12501812 18.99291226 1.13032716 21.08619593 1.13671875 23.1796875 C1.13605791 24.51562547 1.13477663 25.85156331 1.1328125 27.1875 C1.13168457 28.39792969 1.13055664 29.60835938 1.12939453 30.85546875 C1 34 1 34 0 38 C11.55 38 23.1 38 35 38 C35.020625 41.609375 35.04125 45.21875 35.0625 48.9375 C35.071604 50.07695068 35.08070801 51.21640137 35.09008789 52.39038086 C35.09258545 53.28120361 35.09508301 54.17202637 35.09765625 55.08984375 C35.10289307 56.00628662 35.10812988 56.92272949 35.11352539 57.86694336 C35 60 35 60 34 61 C31.55391002 61.15980437 29.13268942 61.25929447 26.68359375 61.31640625 C25.95253922 61.33718735 25.22148468 61.35796844 24.46827698 61.37937927 C22.12478344 61.44495024 19.78117461 61.50379432 17.4375 61.5625 C15.85220145 61.60567808 14.26691471 61.64929213 12.68164062 61.69335938 C8.78787963 61.8006392 4.89400228 61.9018849 1 62 C0.90711731 70.61476456 0.83614305 79.22931818 0.79275131 87.84446049 C0.77192017 91.8452994 0.74368541 95.84579448 0.69824219 99.84643555 C0.6546232 103.71087945 0.63082927 107.57499366 0.62049103 111.43966484 C0.61312828 112.91041691 0.5987505 114.38115193 0.57707977 115.85176277 C0.29023045 126.61982977 0.29023045 126.61982977 5 136 C9.3103118 140.1807433 14.25449432 139.91171209 20 140 C25.0121356 139.83771879 30.00505358 139.43815319 35 139 C35.0580476 142.27075883 35.09361165 145.54138524 35.125 148.8125 C35.14175781 149.74126953 35.15851563 150.67003906 35.17578125 151.62695312 C35.18222656 152.51962891 35.18867187 153.41230469 35.1953125 154.33203125 C35.20578613 155.15421143 35.21625977 155.9763916 35.22705078 156.82348633 C35 159 35 159 33 162 C30.44570529 162.89956904 28.064228 163.59173227 25.4375 164.1875 C24.68388184 164.35967041 23.93026367 164.53184082 23.15380859 164.70922852 C8.25713212 167.83601587 -6.69357075 167.13895452 -19.7734375 158.73046875 C-27.49587915 152.7286413 -30.66323203 144.41630581 -32 135 C-32.08468033 132.54039158 -32.11778328 130.07873779 -32.11352539 127.61767578 C-32.11367142 126.90478897 -32.11381744 126.19190216 -32.1139679 125.45741272 C-32.11327572 123.12001415 -32.10551612 120.78269701 -32.09765625 118.4453125 C-32.0957896 116.81721032 -32.09436686 115.18910758 -32.09336853 113.56100464 C-32.08956282 109.28998241 -32.07974926 105.01899455 -32.06866455 100.74798584 C-32.05840848 96.38407862 -32.05386194 92.02016581 -32.04882812 87.65625 C-32.03812515 79.10414919 -32.02054422 70.55208284 -32 62 C-37.61 62 -43.22 62 -49 62 C-49.95278997 59.14163009 -50.12871126 57.3335544 -50.1328125 54.3671875 C-50.13410156 53.47902344 -50.13539063 52.59085937 -50.13671875 51.67578125 C-50.13285156 50.75152344 -50.12898437 49.82726562 -50.125 48.875 C-50.12886719 47.94300781 -50.13273438 47.01101563 -50.13671875 46.05078125 C-50.13542969 45.16519531 -50.13414062 44.27960938 -50.1328125 43.3671875 C-50.13168457 42.55362793 -50.13055664 41.74006836 -50.12939453 40.90185547 C-50 39 -50 39 -49 38 C-46.30577395 37.76304852 -43.63665389 37.57831398 -40.9375 37.4375 C-37.0084375 37.2209375 -37.0084375 37.2209375 -33 37 C-32.67 26.44 -32.34 15.88 -32 5 C-24.636875 3.7625 -24.636875 3.7625 -17.125 2.5 C-15.57699707 2.23896484 -14.02899414 1.97792969 -12.43408203 1.70898438 C-10.61432861 1.40444336 -10.61432861 1.40444336 -8.7578125 1.09375 C-7.5114502 0.88427734 -6.26508789 0.67480469 -4.98095703 0.45898438 C-2 0 -2 0 0 0 Z " fill="#01A8D4" transform="translate(869,427)"/>
<path d="M0 0 C-2.7846137 1.7720269 -5.4377116 3.17977441 -8.5 4.4375 C-12.04633372 5.83688186 -12.04633372 5.83688186 -14.75 8.25 C-15.4925 8.8275 -16.235 9.405 -17 10 C-17.99 9.67 -18.98 9.34 -20 9 C-18.2758698 7.70161824 -16.54546768 6.41156253 -14.8125 5.125 C-13.84957031 4.40570313 -12.88664063 3.68640625 -11.89453125 2.9453125 C-7.83917108 0.21984777 -4.79668837 -1.77655125 0 0 Z " fill="#059FD1" transform="translate(635,465)"/>
<path d="M0 0 C0.83724609 -0.01224609 1.67449219 -0.02449219 2.53710938 -0.03710938 C3.73883789 -0.04000977 3.73883789 -0.04000977 4.96484375 -0.04296875 C5.70210693 -0.04707764 6.43937012 -0.05118652 7.19897461 -0.05541992 C9.0625 0.1875 9.0625 0.1875 11.0625 2.1875 C9.38220703 2.17009766 9.38220703 2.17009766 7.66796875 2.15234375 C6.19531417 2.14296378 4.72265778 2.1338638 3.25 2.125 C2.51201172 2.11662109 1.77402344 2.10824219 1.01367188 2.09960938 C-2.23672068 2.08490172 -4.83154895 2.15218298 -7.9375 3.1875 C-9.62288601 5.18415314 -9.62288601 5.18415314 -10.9375 7.1875 C-9.72734598 -0.93781988 -7.70748093 0.00590612 0 0 Z " fill="#029ED0" transform="translate(538.9375,464.8125)"/>
<path d="M0 0 C2.61943903 2.61943903 3.44197838 5.57473973 4.625 9 C4.85445313 9.64195312 5.08390625 10.28390625 5.3203125 10.9453125 C7 15.72442336 7 15.72442336 7 18 C6.01 18.33 5.02 18.66 4 19 C3.896875 18.030625 3.79375 17.06125 3.6875 16.0625 C3.15114839 12.1897259 1.95949222 8.67861029 0.62109375 5.015625 C0 3 0 3 0 0 Z " fill="#039ED1" transform="translate(490,523)"/>
<path d="M0 0 C0.33 0 0.66 0 1 0 C1.05404449 2.75026417 1.09369306 5.49946203 1.125 8.25 C1.15013672 9.41595703 1.15013672 9.41595703 1.17578125 10.60546875 C1.23662606 17.72431144 1.23662606 17.72431144 -1 21 C-1.66 20.67 -2.32 20.34 -3 20 C-3 19.34 -3 18.68 -3 18 C-2.34 18 -1.68 18 -1 18 C-0.505 9.09 -0.505 9.09 0 0 Z " fill="#04A2D5" transform="translate(70,504)"/>
<path d="M0 0 C1 3 1 3 0.5 5.375 C-0.04778734 8.25088353 0.27719833 10.18910462 1 13 C-1.5224581 10.37243948 -1.99258956 9.0859611 -2.3125 5.375 C-2 2 -2 2 0 0 Z " fill="#08A4D4" transform="translate(154,213)"/>
</svg>
