<svg width="120" height="74" viewBox="0 0 120 74" fill="none" xmlns="http://www.w3.org/2000/svg">
<path fill-rule="evenodd" clip-rule="evenodd" d="M77.4042 26.2V9H78.4893V26.2H77.4042Z" fill="black"/>
<path d="M48.4956 24.5875H46.5882V19.3989H41.2315V24.5875H39.332V13.0764H41.2315V17.7848H46.5882V13.0764H48.4956V24.5875Z" fill="#FF6F3D"/>
<path d="M54.8698 24.745C53.5028 24.745 52.4326 24.3513 51.659 23.564C50.8907 22.7714 50.5066 21.6822 50.5066 20.2964C50.5066 18.874 50.8643 17.7559 51.5795 16.9423C52.2948 16.1287 53.2777 15.7219 54.5281 15.7219C55.6884 15.7219 56.605 16.071 57.2779 16.7691C57.9508 17.4672 58.2873 18.4278 58.2873 19.6508V20.6508H52.4299C52.4564 21.4958 52.6869 22.1467 53.1214 22.6034C53.5558 23.0548 54.1678 23.2805 54.9572 23.2805C55.4765 23.2805 55.9586 23.2333 56.4037 23.1388C56.8541 23.0391 57.3362 22.8763 57.8502 22.6506V24.1545C57.3945 24.3697 56.9335 24.5219 56.4673 24.6111C56.001 24.7004 55.4685 24.745 54.8698 24.745ZM54.5281 17.1234C53.9347 17.1234 53.4578 17.3098 53.0975 17.6824C52.7425 18.0551 52.5306 18.5984 52.4617 19.3123H56.4514C56.4408 18.5931 56.2659 18.0499 55.9268 17.6824C55.5878 17.3098 55.1215 17.1234 54.5281 17.1234Z" fill="#FF6F3D"/>
<path d="M61.9517 24.5875H60.084V12.3363H61.9517V24.5875Z" fill="#FF6F3D"/>
<path d="M66.1719 24.5875H64.3042V12.3363H66.1719V24.5875Z" fill="#FF6F3D"/>
<path d="M76.3212 20.2177C76.3212 21.6402 75.953 22.7504 75.2165 23.5482C74.48 24.3461 73.4548 24.745 72.1408 24.745C71.3196 24.745 70.5937 24.5613 69.9632 24.1938C69.3327 23.8264 68.8479 23.2989 68.5088 22.6113C68.1697 21.9236 68.0001 21.1258 68.0001 20.2177C68.0001 18.8057 68.3657 17.7034 69.0969 16.9108C69.8281 16.1182 70.8586 15.7219 72.1885 15.7219C73.4601 15.7219 74.4668 16.1287 75.2086 16.9423C75.9503 17.7507 76.3212 18.8425 76.3212 20.2177ZM69.9234 20.2177C69.9234 22.2281 70.6732 23.2333 72.1726 23.2333C73.6561 23.2333 74.3979 22.2281 74.3979 20.2177C74.3979 18.2283 73.6508 17.2336 72.1567 17.2336C71.3725 17.2336 70.803 17.4908 70.448 18.0052C70.0983 18.5197 69.9234 19.2571 69.9234 20.2177Z" fill="#FF6F3D"/>
<g filter="url(#filter0_d_2701_16030)">
<path d="M34 32.1125H85V52H34V32.1125Z" fill="white"/>
</g>
<g filter="url(#filter1_d_2701_16030)">
<path fill-rule="evenodd" clip-rule="evenodd" d="M84.4574 32.65H34.5426V51.4625H84.4574V32.65ZM34 32.1125V52H85V32.1125H34Z" fill="#CCCCCC"/>
</g>
<path fill-rule="evenodd" clip-rule="evenodd" d="M72.1499 39.1499C71.95 39.3497 71.95 39.6738 72.1499 39.8736L74.84 42.5638L74.84 42.5638L72.1499 45.2539C71.95 45.4538 71.95 45.7778 72.1499 45.9777C72.3498 46.1775 72.6738 46.1775 72.8736 45.9777L75.5638 43.2875L78.2539 45.9777C78.4538 46.1775 78.7778 46.1775 78.9777 45.9777C79.1775 45.7778 79.1775 45.4538 78.9777 45.2539L76.2875 42.5638L76.2875 42.5638L78.9777 39.8736C79.1776 39.6738 79.1776 39.3497 78.9777 39.1499C78.7778 38.95 78.4538 38.95 78.2539 39.1499L75.5638 41.84L75.5638 41.84L75.5638 41.84L72.8736 39.1499C72.6738 38.95 72.3497 38.95 72.1499 39.1499Z" fill="#808080"/>
<path d="M47.9994 45.55H47.0986V41.9387H43.0189V45.55H42.1182V37.8759H43.0189V41.1408H47.0986V37.8759H47.9994V45.55Z" fill="#808080"/>
<path d="M52.233 45.655C51.3746 45.655 50.6964 45.396 50.1984 44.8781C49.7039 44.3602 49.4566 43.6411 49.4566 42.7208C49.4566 41.7934 49.6862 41.0568 50.1454 40.5109C50.6081 39.965 51.228 39.6921 52.0051 39.6921C52.7328 39.6921 53.3085 39.93 53.7324 40.4059C54.1563 40.8784 54.3682 41.503 54.3682 42.2798V42.831H50.3679C50.3856 43.5064 50.5569 44.019 50.8819 44.369C51.2104 44.7189 51.6713 44.8939 52.2648 44.8939C52.89 44.8939 53.5081 44.7644 54.1192 44.5054V45.2823C53.8083 45.4153 53.5134 45.5097 53.2344 45.5657C52.9588 45.6252 52.625 45.655 52.233 45.655ZM51.9945 40.4217C51.5283 40.4217 51.1556 40.5722 50.8766 40.8731C50.6011 41.1741 50.4386 41.5905 50.3891 42.1224H53.4251C53.4251 41.573 53.3015 41.1531 53.0542 40.8626C52.807 40.5687 52.4537 40.4217 51.9945 40.4217Z" fill="#808080"/>
<path d="M56.5355 45.55H55.6559V37.3825H56.5355V45.55Z" fill="#808080"/>
<path d="M59.063 45.55H58.1835V37.3825H59.063V45.55Z" fill="#808080"/>
<path d="M65.7233 42.6683C65.7233 43.6061 65.4848 44.3392 65.008 44.8676C64.5311 45.3925 63.8724 45.655 63.0317 45.655C62.5124 45.655 62.0515 45.5342 61.6488 45.2928C61.2461 45.0513 60.9353 44.7049 60.7163 44.2535C60.4973 43.8021 60.3878 43.2737 60.3878 42.6683C60.3878 41.7304 60.6245 41.0008 61.0978 40.4794C61.5711 39.9545 62.2281 39.6921 63.0688 39.6921C63.8812 39.6921 64.5258 39.9598 65.0027 40.4952C65.4831 41.0306 65.7233 41.7549 65.7233 42.6683ZM61.2991 42.6683C61.2991 43.4031 61.4475 43.963 61.7442 44.348C62.0409 44.7329 62.4771 44.9254 63.0529 44.9254C63.6286 44.9254 64.0649 44.7346 64.3616 44.3532C64.6618 43.9683 64.8119 43.4066 64.8119 42.6683C64.8119 41.9369 64.6618 41.3823 64.3616 41.0043C64.0649 40.6229 63.6251 40.4322 63.0423 40.4322C62.4665 40.4322 62.0321 40.6194 61.7389 40.9938C61.4457 41.3683 61.2991 41.9264 61.2991 42.6683Z" fill="#808080"/>
<defs>
<filter id="filter0_d_2701_16030" x="19" y="24.1125" width="81" height="49.8875" filterUnits="userSpaceOnUse" color-interpolation-filters="sRGB">
<feFlood flood-opacity="0" result="BackgroundImageFix"/>
<feColorMatrix in="SourceAlpha" type="matrix" values="0 0 0 0 0 0 0 0 0 0 0 0 0 0 0 0 0 0 127 0" result="hardAlpha"/>
<feOffset dy="7"/>
<feGaussianBlur stdDeviation="7.5"/>
<feColorMatrix type="matrix" values="0 0 0 0 0.333333 0 0 0 0 0.333333 0 0 0 0 0.333333 0 0 0 0.1 0"/>
<feBlend mode="normal" in2="BackgroundImageFix" result="effect1_dropShadow_2701_16030"/>
<feBlend mode="normal" in="SourceGraphic" in2="effect1_dropShadow_2701_16030" result="shape"/>
</filter>
<filter id="filter1_d_2701_16030" x="19" y="24.1125" width="81" height="49.8875" filterUnits="userSpaceOnUse" color-interpolation-filters="sRGB">
<feFlood flood-opacity="0" result="BackgroundImageFix"/>
<feColorMatrix in="SourceAlpha" type="matrix" values="0 0 0 0 0 0 0 0 0 0 0 0 0 0 0 0 0 0 127 0" result="hardAlpha"/>
<feOffset dy="7"/>
<feGaussianBlur stdDeviation="7.5"/>
<feColorMatrix type="matrix" values="0 0 0 0 0.333333 0 0 0 0 0.333333 0 0 0 0 0.333333 0 0 0 0.1 0"/>
<feBlend mode="normal" in2="BackgroundImageFix" result="effect1_dropShadow_2701_16030"/>
<feBlend mode="normal" in="SourceGraphic" in2="effect1_dropShadow_2701_16030" result="shape"/>
</filter>
</defs>
</svg>
