<svg width="28" height="28" viewBox="0 0 28 28" fill="none" xmlns="http://www.w3.org/2000/svg">
<path fill-rule="evenodd" clip-rule="evenodd" d="M14.0033 11.0239C14.0072 11.0239 14.0103 11.0249 14.0141 11.0249C14.0172 11.0249 14.0206 11.0239 14.0244 11.0239C15.4328 11.0239 16.575 12.1311 16.575 13.4992C16.575 14.2644 16.2167 14.9485 15.6538 15.4021C15.4085 15.6277 15.1018 15.7924 14.7269 15.8765C14.5047 15.9392 14.2677 15.9738 14.0244 15.9738H14.0141H14.0033C13.76 15.9738 13.5239 15.9392 13.3005 15.8765C12.9264 15.7924 12.6186 15.6277 12.3738 15.4021C11.8108 14.9485 11.4524 14.2644 11.4524 13.4992C11.4524 12.1311 12.5951 11.0239 14.0033 11.0239ZM3.1997 20.9812C4.56998 21.1483 5.78671 20.1803 5.91631 18.8193C5.9593 18.3598 5.87036 17.9143 5.68555 17.5197C3.76534 13.4317 13.2382 13.3384 11.6378 17.1972C11.6342 17.2022 11.6309 17.2066 11.6266 17.2135C10.8697 18.3874 11.2798 19.9136 12.5386 20.6196C13.0014 20.8788 13.5134 20.9877 14.0141 20.9678C14.5152 20.9877 15.0277 20.8788 15.4897 20.6196C16.7477 19.9136 17.1576 18.3874 16.401 17.2135C16.3975 17.2066 16.3932 17.2022 16.3897 17.1972C14.7901 13.3384 24.2631 13.4317 22.3421 17.5197C22.1565 17.9143 22.069 18.3598 22.1114 18.8193C22.2412 20.1803 23.4573 21.1483 24.8284 20.9812C25.4377 20.9068 25.9752 20.6207 26.3725 20.2061C26.3725 20.2061 27.0104 19.6933 26.9999 18.3838C26.991 17.3169 26.3725 16.7257 26.3725 16.7257C25.8746 16.2371 25.166 15.9687 24.4071 16.0474C22.6484 16.0087 22.3878 14.6736 22.884 12.1541C23.0663 11.7077 23.1454 11.2288 23.1292 10.7504C23.1777 9.46265 22.5103 8.19253 21.2816 7.50171C21.1319 7.41767 20.9775 7.34911 20.8211 7.28693C20.7791 7.26894 20.736 7.25421 20.6933 7.23797C20.6445 7.22112 20.5974 7.20301 20.5483 7.18915C20.1658 7.0639 19.7573 6.99571 19.3319 7.00021C18.0086 7.01207 16.8565 7.69814 16.2108 8.71701C15.3251 9.65933 14.9249 10.2321 14.0141 10.2321C13.1488 10.2321 12.7026 9.65933 11.8171 8.71701C11.1715 7.69814 10.0193 7.01207 8.69585 7.00021C8.26985 6.99571 7.86226 7.0639 7.48002 7.18915C7.43086 7.20301 7.38259 7.22112 7.33523 7.23797C7.29199 7.25421 7.24965 7.26894 7.20653 7.28693C7.0508 7.34911 6.89585 7.41767 6.7472 7.50171C5.51708 8.19253 4.85016 9.46265 4.89842 10.7504C4.88195 11.2288 4.96225 11.7077 5.14385 12.1541C5.6396 14.6736 5.37937 16.0087 3.62171 16.0474C2.76045 15.9575 2.11785 16.3018 1.46817 16.9328C0.817461 17.5636 0.871 19.2513 1.46817 19.9885C1.90112 20.5239 2.48851 20.8946 3.1997 20.9812Z" fill="#E5222E"/>
</svg>
