<svg width="28" height="28" viewBox="0 0 28 28" fill="none" xmlns="http://www.w3.org/2000/svg">
<path d="M6 16V22L14 25V19L6 16Z" fill="#D99742"/>
<path d="M14 25V19L22 16V22L14 25Z" fill="#BD7A58"/>
<path d="M2 13L6 16L14 19L10 16L2 13Z" fill="#C58237"/>
<path d="M14 19L18 16L26 13L22 16L14 19Z" fill="#B08065"/>
<path d="M14 13L12.5 9L4 10L5.42857 14.2857L8 15.25L14 13Z" fill="#BD7C48"/>
<path d="M14 13L15.5 9L24 10L22.5714 14.2857L20 15.25L14 13Z" fill="#DD9D47"/>
<path d="M5.907 3.1468L6.44666 2.67459C6.44666 2.67459 6.98633 3.48409 7.32363 3.48409C7.86333 3.48409 7.99821 2 7.99821 2L8.6728 2.67459C8.6728 2.67459 8.26805 4.29359 7.45854 4.29359C6.67262 4.29359 5.907 3.1468 5.907 3.1468Z" fill="white"/>
<path d="M14.002 5.84514L14.3393 5.64276C14.3393 5.64276 14.7019 5.55258 14.879 5.71022C15.0572 5.86884 15.0139 6.24989 15.0139 6.24989L15.6885 6.85702H15.9583L15.5536 7.26177L15.2837 7.12685L14.6092 6.45227C14.6092 6.45227 14.6798 6.1889 14.6092 6.04751C14.4974 5.82397 14.002 5.84514 14.002 5.84514Z" fill="white"/>
<path d="M15.6088 12.9371L14.8721 10.7269L14.6161 10.8123L15.2798 12.8033L15.0511 12.7105C14.6525 12.5488 14.2912 12.4032 14.0261 12.298C13.8936 12.2454 13.7847 12.2027 13.7069 12.1731C13.6884 12.166 13.6715 12.1597 13.6563 12.154C13.6397 12.1478 13.6252 12.1425 13.613 12.1382C13.6056 12.1356 13.5986 12.1332 13.5922 12.1311L13.585 12.1288L13.5817 12.1277C13.5773 12.1264 13.5719 12.1248 13.5662 12.1234L13.5659 12.1233L13.5643 12.1229C13.5633 12.1227 13.562 12.1224 13.5605 12.1221L13.5576 12.1215C13.5565 12.1213 13.5553 12.1211 13.554 12.1209C13.5475 12.1198 13.539 12.1188 13.5298 12.1188V12.3886C13.5188 12.3886 13.5106 12.3872 13.5084 12.3868C13.5054 12.3863 13.5033 12.3859 13.5023 12.3856C13.5062 12.3868 13.5129 12.389 13.5231 12.3927C13.5434 12.3998 13.5727 12.4107 13.6108 12.4252C13.6868 12.4542 13.7944 12.4963 13.9265 12.5488C14.1907 12.6537 14.5512 12.799 14.9497 12.9606C15.0165 12.9877 15.0844 13.0152 15.1531 13.0431L15.3036 13.1043L14.7623 14.6081L14.4625 14.9078C14.4588 14.9096 14.4545 14.9116 14.4497 14.9138C14.4466 14.9152 14.4432 14.9167 14.4397 14.9183C14.4126 14.9304 14.3745 14.9466 14.3311 14.9625C14.2394 14.9961 14.142 15.0217 14.0737 15.0196C13.94 15.0154 13.836 14.9844 13.7492 14.931C13.6616 14.877 13.5833 14.7953 13.509 14.6776C13.4629 14.6047 13.4365 14.5467 13.4204 14.4886C13.4041 14.4298 13.3966 14.3648 13.3949 14.2749C13.3926 14.1545 13.3993 14.0633 13.4225 13.9847C13.4448 13.9092 13.4843 13.8392 13.5578 13.7657C13.6457 13.6778 13.7064 13.6243 13.7695 13.5898C13.8285 13.5575 13.8972 13.538 14.0053 13.5354C14.1526 13.5318 14.3023 13.565 14.3859 13.6374C14.4038 13.6529 14.4278 13.6931 14.4494 13.7484C14.459 13.7728 14.4663 13.7955 14.4712 13.8121L14.4733 13.8193L14.4743 13.8229L14.4765 13.8312L14.4777 13.8358L14.4779 13.8365L14.6092 13.8052C14.7404 13.774 14.7404 13.774 14.7404 13.774L14.7403 13.7735L14.7401 13.7727L14.7395 13.7703L14.7386 13.7669L14.7375 13.7624C14.7357 13.7559 14.7333 13.7468 14.73 13.7357C14.7235 13.7138 14.7138 13.6835 14.7008 13.6501C14.6772 13.5898 14.6337 13.4951 14.5626 13.4334C14.4039 13.296 14.1719 13.2614 13.9988 13.2656C13.857 13.269 13.7442 13.296 13.64 13.353C13.5399 13.4077 13.4557 13.4862 13.367 13.5749C13.2637 13.6782 13.1996 13.7868 13.1637 13.9082C13.1288 14.0265 13.1226 14.1505 13.1251 14.28C13.127 14.3819 13.1357 14.4718 13.1604 14.5607C13.1852 14.6503 13.2245 14.7325 13.2808 14.8217C13.3706 14.9638 13.476 15.0796 13.6079 15.1608C13.7406 15.2424 13.8919 15.2839 14.0653 15.2893C14.1887 15.2931 14.3274 15.2512 14.4239 15.2159C14.4746 15.1973 14.5186 15.1786 14.55 15.1645L14.5548 15.1624L14.1455 16.2538L14.3982 16.3486L14.9987 14.7472L15.0025 14.7422L15.0068 14.7366C15.0193 14.7203 15.0378 14.6967 15.0614 14.6683C15.1088 14.6113 15.1756 14.5364 15.2541 14.463C15.333 14.3892 15.4203 14.3203 15.5083 14.2726C15.5971 14.2244 15.6764 14.2033 15.7437 14.2094C15.8343 14.2177 15.8998 14.2329 15.9572 14.2575C16.0146 14.2822 16.0708 14.3191 16.1393 14.379C16.212 14.4426 16.259 14.4972 16.2921 14.5549C16.3251 14.6123 16.3485 14.6795 16.3652 14.7733C16.3993 14.965 16.3466 15.0771 16.2412 15.2989C16.1613 15.467 15.9686 15.6354 15.7757 15.7688C15.6823 15.8333 15.5943 15.8859 15.5297 15.9224C15.5168 15.9297 15.5048 15.9363 15.4939 15.9423C15.4778 15.9511 15.464 15.9584 15.4533 15.9641L15.4444 15.9687L15.4394 15.9713L15.4328 15.9746L15.4278 15.9772L15.4267 15.9777L15.4265 15.9778C15.4265 15.9778 15.4265 15.9778 15.4358 15.9966L15.4861 16.0988C15.5126 16.1525 15.5273 16.1824 15.5355 16.199L15.5441 16.2164L15.5458 16.2198L15.546 16.2197L15.5465 16.2195L15.5484 16.2186L15.5549 16.2153C15.5604 16.2124 15.5684 16.2084 15.5785 16.2031C15.5987 16.1925 15.6274 16.1771 15.6624 16.1574C15.7321 16.118 15.8273 16.0611 15.9291 15.9908C16.1265 15.8543 16.3722 15.6518 16.4849 15.4147L16.4939 15.3959C16.5934 15.1869 16.6803 15.0042 16.6308 14.726C16.6103 14.6107 16.5786 14.5118 16.526 14.4203C16.4735 14.3291 16.4041 14.2521 16.317 14.1759C16.2345 14.1037 16.1545 14.0486 16.0635 14.0095C15.9725 13.9705 15.8774 13.9507 15.7682 13.9407C15.6281 13.928 15.494 13.9733 15.3796 14.0354C15.3229 14.0662 15.2684 14.1024 15.2171 14.1412L15.5538 13.2061C16.1905 13.4654 16.8479 13.7347 17.3237 13.9301L17.4262 13.6804C16.9387 13.4802 16.2603 13.2024 15.6088 12.9371Z" fill="white"/>
<path fill-rule="evenodd" clip-rule="evenodd" d="M17.9112 11.8852L19.2232 12.7872L18.0565 13.6847L17.4819 12.2072L17.9112 11.8852ZM17.918 12.2174L17.8076 12.3002L18.1775 13.2512L18.7647 12.7995L17.918 12.2174Z" fill="white"/>
<path d="M8.13313 6.58718L7.59346 7.12685C7.59346 7.12685 8.78167 8.63391 9.81959 8.61094C10.6823 8.59185 11.641 7.5316 11.641 7.5316L10.9664 6.7221C10.9664 6.7221 10.3485 7.59424 9.75213 7.66652C8.99777 7.75796 8.13313 6.58718 8.13313 6.58718Z" fill="white"/>
<path d="M10.9009 2.65846L11.5253 3.36704L8.48167 6.04901L7.85729 5.34045L10.9009 2.65846Z" fill="white"/>
<path d="M14.7693 7.16084L14.2044 6.51972L11.1013 9.13425L11.7759 9.82519L14.7693 7.16084Z" fill="white"/>
<path d="M12.1806 6.58718C12.1806 6.73621 12.0598 6.85702 11.9108 6.85702C11.7618 6.85702 11.641 6.73621 11.641 6.58718C11.641 6.43815 11.7618 6.31735 11.9108 6.31735C12.0598 6.31735 12.1806 6.43815 12.1806 6.58718Z" fill="white"/>
<path fill-rule="evenodd" clip-rule="evenodd" d="M21.8675 7.50085L21.9737 7.32636L21.7598 7.21827L21.9423 6.85702L22.1847 6.97948L23.8793 4.19375L24.2485 4.41835L24.0596 4.72902C24.2206 4.66041 24.3741 4.62942 24.5202 4.63602C24.6672 4.64114 24.8187 4.69118 24.9748 4.78612C25.1789 4.9103 25.3271 5.07239 25.4192 5.2724C25.5114 5.4724 25.5388 5.69266 25.5015 5.93317C25.4651 6.17215 25.3775 6.40572 25.2388 6.63386C25.0899 6.87849 24.9114 7.07217 24.7033 7.21491C24.4975 7.35708 24.2787 7.42956 24.0467 7.43236C23.8171 7.43456 23.61 7.37952 23.4254 7.26722C23.2903 7.18505 23.1861 7.08258 23.1127 6.95982C23.0409 6.83796 22.9969 6.71251 22.9808 6.58346L22.6094 7.19405L24.5915 8.19552L24.409 8.55677L22.3983 7.54091L22.2728 7.74737L21.8675 7.50085ZM23.5109 5.62591C23.3237 5.93358 23.2477 6.19885 23.2828 6.42171C23.3179 6.64458 23.424 6.80986 23.6011 6.91761C23.7812 7.02716 23.9811 7.04497 24.2009 6.97098C24.4231 6.89641 24.6314 6.69929 24.8259 6.3796C25.0112 6.07494 25.087 5.80846 25.0531 5.58018C25.0208 5.35282 24.9175 5.18618 24.7434 5.08027C24.5708 4.97528 24.3684 4.9632 24.1363 5.04403C23.9065 5.12427 23.698 5.31823 23.5109 5.62591Z" fill="white"/>
<path fill-rule="evenodd" clip-rule="evenodd" d="M17.3179 11.0394L18.5321 10.4323L18.8694 8.54348L19.4766 8.13873L19.9488 9.69028L21.163 9.08315L19.8813 4.69834L16.9806 6.38481C16.9806 6.38481 16.4349 7.17934 16.7108 7.86889C16.9806 8.54348 17.7901 8.61094 17.7901 8.61094L17.3179 11.0394ZM18.1577 6.58746C17.8691 6.70934 17.7339 7.0421 17.8558 7.33071C17.9777 7.61932 18.3104 7.75448 18.599 7.63263L19.2387 7.36249L18.7974 6.31735L18.1577 6.58746Z" fill="white"/>
<path fill-rule="evenodd" clip-rule="evenodd" d="M2.35664 6.00683L3.68268 6.93571C3.98783 7.14946 4.06192 7.57011 3.84816 7.87525L2.87855 9.25945L1 7.94355L2.35664 6.00683ZM2.791 6.75509L2.93035 6.8527C3.23549 7.06646 3.30958 7.4871 3.09583 7.79225L2.55058 8.57064L1.85871 8.08599L2.791 6.75509Z" fill="white"/>
<path d="M6.49073 8.70658L4.73868 7.53699L4.49037 7.90896L5.46053 8.55661L4.35545 10.1332L4.85981 10.4868L5.97292 8.89864L6.24242 9.07855L6.49073 8.70658Z" fill="white"/>
<path d="M7.72838 9.4879L7.05379 9.01569V10.2329C6.80628 10.1209 6.50611 10.1948 6.34139 10.4239L5.85787 11.0962L6.33074 11.4362L7.05379 10.4309V11.9839L7.72838 12.3886V11.0948C7.9683 11.2183 8.26995 11.1615 8.4468 10.9437L8.96877 10.3008L8.51658 9.93364L7.72838 10.9044V9.4879Z" fill="white"/>
<path fill-rule="evenodd" clip-rule="evenodd" d="M11.2149 11.6958L10.7425 12.1387L11.5214 12.8063C11.5792 12.8451 11.6322 12.8906 11.6792 12.9416L11.6817 12.9437L11.681 12.9436C11.8237 13.0996 11.9108 13.3073 11.9108 13.5354C11.9108 14.0197 11.5182 14.4124 11.0338 14.4124C10.5495 14.4124 10.1569 14.0197 10.1569 13.5354C10.1569 13.0828 10.4998 12.7102 10.94 12.6634L10.5444 12.3244L10.1356 12.7077L10.0433 12.6092L10.4414 12.236L10.0894 11.9344L10.265 11.7295L10.6394 12.0504L11.1226 11.5974L11.2149 11.6958ZM11.641 13.5354C11.641 13.8707 11.3692 14.1425 11.0338 14.1425C10.6985 14.1425 10.4267 13.8707 10.4267 13.5354C10.4267 13.2001 10.6985 12.9283 11.0338 12.9283C11.3692 12.9283 11.641 13.2001 11.641 13.5354Z" fill="white"/>
<path fill-rule="evenodd" clip-rule="evenodd" d="M20.2887 12.0632C20.5742 11.8239 20.6459 11.4394 20.4489 11.2044C20.2519 10.9695 19.8608 10.9732 19.5753 11.2125C19.2899 11.4519 19.2181 11.8364 19.4151 12.0713C19.4499 12.1128 19.4907 12.1468 19.5359 12.1734L19.1963 12.6584C19.2482 12.6584 19.7605 12.368 20.04 12.2056C20.1267 12.1754 20.2115 12.1279 20.2887 12.0632ZM20.1153 11.8565C20.3261 11.6797 20.3133 11.4627 20.2422 11.3778C20.171 11.293 19.9595 11.2425 19.7487 11.4193C19.5379 11.5961 19.5507 11.8131 19.6219 11.898C19.693 11.9828 19.9045 12.0333 20.1153 11.8565Z" fill="white"/>
<path d="M19.4662 10.972C19.4662 10.9347 19.4964 10.9045 19.5336 10.9045C19.5709 10.9045 19.6011 10.9347 19.6011 10.972C19.6011 11.0092 19.5709 11.0394 19.5336 11.0394C19.4964 11.0394 19.4662 11.0092 19.4662 10.972Z" fill="white"/>
<path d="M21.1202 9.53502L21.6374 10.1384L21.4824 10.2159L21.4809 10.2166L21.4747 10.2198C21.4691 10.2227 21.4608 10.2269 21.4501 10.2325C21.4289 10.2435 21.3984 10.2597 21.362 10.2797C21.2889 10.3198 21.193 10.375 21.0998 10.4357C21.0053 10.4974 20.9197 10.5609 20.8633 10.6173C20.847 10.6336 20.8351 10.6475 20.8265 10.6587C20.8469 10.6684 20.8755 10.6787 20.913 10.689C21.0063 10.7144 21.1302 10.7325 21.2584 10.7449C21.3853 10.7572 21.5108 10.7634 21.605 10.7665C21.652 10.7681 21.691 10.7689 21.7181 10.7692L21.7254 10.7693C21.7324 10.7694 21.7384 10.7695 21.7434 10.7695L21.7493 10.7696L21.7573 10.7696L21.7592 10.7696H21.7597C21.7597 10.7696 21.7598 10.7696 21.7598 10.9045C21.7598 11.0395 21.7597 11.0395 21.7597 11.0395H21.7588L21.7564 11.0394L21.7475 11.0394C21.7397 11.0393 21.7285 11.0392 21.7142 11.039C21.6857 11.0386 21.6451 11.0378 21.5962 11.0362C21.4986 11.033 21.3669 11.0265 21.2324 11.0135C21.0992 11.0006 20.9574 10.9808 20.842 10.9493C20.7847 10.9337 20.7276 10.9135 20.6796 10.8863C20.6348 10.8609 20.5766 10.8172 20.5524 10.7448C20.5281 10.6717 20.5485 10.6038 20.573 10.5562C20.5977 10.5082 20.6346 10.4644 20.6725 10.4265C20.7489 10.3501 20.8531 10.2745 20.9524 10.2097C21.0441 10.1499 21.1369 10.096 21.2105 10.0551L20.9153 9.71062L21.1202 9.53502Z" fill="white"/>
<path d="M23.2438 8.88077C23.1549 8.77931 23.1549 8.77932 23.1549 8.77932L22.9832 8.92989C22.8799 9.02056 22.7416 9.14203 22.6016 9.26519C22.3251 9.50834 22.0326 9.76625 22.0016 9.79725C21.9729 9.826 21.959 9.85992 21.9518 9.88442C21.9442 9.91049 21.9408 9.93733 21.9397 9.96223C21.9375 10.0121 21.944 10.0674 21.9577 10.1208C21.9833 10.2204 22.0451 10.3548 22.1716 10.4181C22.2361 10.4503 22.3007 10.4662 22.3686 10.4646C22.4345 10.4631 22.4952 10.4453 22.5519 10.4227C22.6375 10.3884 22.7064 10.3142 22.7458 10.2667C22.7677 10.2403 22.7857 10.2156 22.7982 10.1975C22.8044 10.1884 22.8095 10.1808 22.813 10.1753C22.814 10.1737 22.8149 10.1723 22.8157 10.1711C22.8163 10.1702 22.8168 10.1694 22.8172 10.1687L22.8185 10.1666L22.8189 10.166L22.8191 10.1657L22.8192 10.1656C22.8192 10.1656 22.8192 10.1655 22.7042 10.095C22.5892 10.0245 22.5892 10.0245 22.5892 10.0245L22.5888 10.025L22.5865 10.0287C22.5842 10.0322 22.5807 10.0375 22.5761 10.0441C22.5669 10.0575 22.5537 10.0756 22.538 10.0946C22.5021 10.1379 22.4699 10.1649 22.4517 10.1721C22.4105 10.1886 22.3835 10.1944 22.3624 10.1949C22.3435 10.1953 22.3221 10.1916 22.2923 10.1767C22.2698 10.1655 22.2372 10.1245 22.2191 10.0538C22.211 10.022 22.2084 9.99349 22.2092 9.97405L22.2093 9.97246L22.2096 9.97219C22.2202 9.96258 22.2344 9.94982 22.2518 9.93424C22.2865 9.90313 22.3334 9.86148 22.3884 9.81284C22.4983 9.71559 22.6398 9.5909 22.7798 9.46781C22.9197 9.34474 23.0579 9.22334 23.1612 9.1327L23.3328 8.98224C23.3328 8.98224 23.3328 8.98223 23.3097 8.95587L23.2438 8.88077Z" fill="white"/>
<path d="M8 15.25L14 13V19L10 16L8 15.25Z" fill="#7F3C11"/>
<path d="M20 15.25L14 13V19L18 16L20 15.25Z" fill="#B77B32"/>
</svg>
