<svg width="120" height="60" viewBox="0 0 120 60" fill="none" xmlns="http://www.w3.org/2000/svg">
<path d="M19.9613 27.7156L17.0848 33.8732C16.9965 34.0662 16.9146 34.2003 16.8394 34.2755C16.7641 34.3507 16.6758 34.3884 16.5743 34.3884C16.4238 34.3884 16.2896 34.3409 16.1718 34.2461C16.0573 34.1512 16 34.0335 16 33.8928C16 33.798 16.0442 33.6508 16.1325 33.4512L16.1424 33.4316L19.0139 27.2838C19.1055 27.0843 19.189 26.9469 19.2643 26.8716C19.3395 26.7964 19.4279 26.7588 19.5293 26.7588C19.6766 26.7588 19.8091 26.8062 19.9269 26.9011C20.0447 26.9959 20.1036 27.1137 20.1036 27.2543C20.1036 27.3132 20.0938 27.3754 20.0742 27.4408C20.0545 27.5062 20.0169 27.5978 19.9613 27.7156Z" fill="#71A9CD"/>
<path d="M25.9989 27.7156L23.1224 33.8732C23.0341 34.0662 22.9523 34.2003 22.877 34.2755C22.8017 34.3507 22.7134 34.3884 22.6119 34.3884C22.4614 34.3884 22.3272 34.3409 22.2094 34.2461C22.0949 34.1512 22.0376 34.0335 22.0376 33.8928C22.0376 33.798 22.0818 33.6508 22.1702 33.4512L22.18 33.4316L25.0515 27.2838C25.1432 27.0843 25.2266 26.9469 25.3019 26.8716C25.3772 26.7964 25.4655 26.7588 25.567 26.7588C25.7142 26.7588 25.8467 26.8062 25.9646 26.9011C26.0824 26.9959 26.1413 27.1137 26.1413 27.2543C26.1413 27.3132 26.1314 27.3754 26.1118 27.4408C26.0922 27.5062 26.0545 27.5978 25.9989 27.7156Z" fill="#71A9CD"/>
<path d="M29.2533 29.0796V30.208H30.8585V29.0796H30.7799C30.6032 29.0796 30.4674 29.0338 30.3725 28.9422C30.2809 28.8506 30.2351 28.7165 30.2351 28.5398C30.2351 28.3469 30.2825 28.2078 30.3774 28.1228C30.4756 28.0377 30.636 27.9952 30.8585 27.9952H32.1249C32.3474 27.9952 32.5045 28.0377 32.5961 28.1228C32.691 28.2078 32.7385 28.3469 32.7385 28.5398C32.7385 28.7165 32.6927 28.8506 32.601 28.9422C32.5127 29.0338 32.3818 29.0796 32.2084 29.0796H32.1249V32.7398H32.2084C32.3851 32.7398 32.5192 32.7856 32.6109 32.8772C32.7025 32.9655 32.7483 33.0963 32.7483 33.2697C32.7483 33.4627 32.7009 33.6017 32.606 33.6867C32.5111 33.7718 32.3507 33.8143 32.1249 33.8143H30.8585C30.6327 33.8143 30.4723 33.7734 30.3774 33.6916C30.2825 33.6066 30.2351 33.4659 30.2351 33.2697C30.2351 33.0963 30.2809 32.9655 30.3725 32.8772C30.4674 32.7856 30.6032 32.7398 30.7799 32.7398H30.8585V31.2924H29.2533V32.7398H29.3319C29.5086 32.7398 29.6428 32.7856 29.7344 32.8772C29.8293 32.9655 29.8767 33.0963 29.8767 33.2697C29.8767 33.4627 29.8277 33.6017 29.7295 33.6867C29.6346 33.7718 29.4759 33.8143 29.2533 33.8143H27.9869C27.7611 33.8143 27.6008 33.7734 27.5059 33.6916C27.411 33.6066 27.3635 33.4659 27.3635 33.2697C27.3635 33.0963 27.4093 32.9655 27.501 32.8772C27.5926 32.7856 27.7268 32.7398 27.9035 32.7398H27.9869V29.0796H27.9035C27.73 29.0796 27.5975 29.0338 27.5059 28.9422C27.4175 28.8506 27.3733 28.7165 27.3733 28.5398C27.3733 28.3469 27.4192 28.2078 27.5108 28.1228C27.6057 28.0377 27.7644 27.9952 27.9869 27.9952H29.2533C29.4726 27.9952 29.6313 28.0377 29.7295 28.1228C29.8277 28.2078 29.8767 28.3469 29.8767 28.5398C29.8767 28.7165 29.8293 28.8506 29.7344 28.9422C29.6428 29.0338 29.5086 29.0796 29.3319 29.0796H29.2533Z" fill="#71A9CD"/>
<path d="M36.7783 32.7398H37.8337C38.0595 32.7398 38.2198 32.7807 38.3147 32.8624C38.4096 32.9442 38.4571 33.08 38.4571 33.2697C38.4571 33.4627 38.408 33.6017 38.3098 33.6867C38.2149 33.7718 38.0562 33.8143 37.8337 33.8143H34.5154C34.2929 33.8143 34.1325 33.7718 34.0344 33.6867C33.9395 33.6017 33.892 33.4627 33.892 33.2697C33.892 33.08 33.9378 32.9442 34.0295 32.8624C34.1244 32.7807 34.2863 32.7398 34.5154 32.7398H35.5708V30.3552H35.0161C34.7968 30.3552 34.6398 30.3144 34.5449 30.2326C34.45 30.1475 34.4025 30.0085 34.4025 29.8155C34.4025 29.6225 34.4483 29.4852 34.54 29.4034C34.6316 29.3216 34.7903 29.2807 35.0161 29.2807H36.4936C36.5852 29.2807 36.6556 29.3003 36.7047 29.3396C36.7538 29.3756 36.7783 29.4263 36.7783 29.4917V32.7398ZM36.0715 27.063C36.3103 27.063 36.4691 27.1088 36.5476 27.2004C36.6261 27.292 36.6654 27.5111 36.6654 27.8578C36.6654 28.1915 36.6294 28.3992 36.5574 28.481C36.4887 28.5595 36.3234 28.5987 36.0616 28.5987C35.8064 28.5987 35.6411 28.5611 35.5659 28.4859C35.4939 28.4106 35.4579 28.2602 35.4579 28.0345C35.4579 27.6158 35.4955 27.3492 35.5708 27.2347C35.646 27.1202 35.8129 27.063 36.0715 27.063Z" fill="#71A9CD"/>
<path d="M41.9177 30.1982C41.597 30.1982 41.3303 30.3144 41.1175 30.5466C40.9081 30.7788 40.8034 31.0749 40.8034 31.4347C40.8034 31.7879 40.9081 32.0807 41.1175 32.3129C41.3303 32.5419 41.597 32.6564 41.9177 32.6564C42.2416 32.6564 42.5083 32.5419 42.7178 32.3129C42.9305 32.0807 43.0368 31.7879 43.0368 31.4347C43.0368 31.0749 42.9305 30.7788 42.7178 30.5466C42.5083 30.3144 42.2416 30.1982 41.9177 30.1982ZM43.135 29.737V29.4819C43.135 29.4165 43.1579 29.3674 43.2037 29.3347C43.2528 29.2987 43.3248 29.2807 43.4197 29.2807H44.2198C44.4456 29.2807 44.6043 29.3232 44.696 29.4083C44.7876 29.4901 44.8334 29.6258 44.8334 29.8155C44.8334 29.9922 44.7876 30.1263 44.696 30.2179C44.6076 30.3094 44.4767 30.3552 44.3033 30.3552H44.2198V33.7358C44.2198 34.4521 44.0251 34.9722 43.6357 35.2961C43.2463 35.6199 42.6212 35.7818 41.7606 35.7818C41.2272 35.7818 40.8345 35.7295 40.5825 35.6248C40.3338 35.5201 40.2094 35.3549 40.2094 35.1292C40.2094 34.9722 40.2602 34.8447 40.3616 34.7465C40.4631 34.6484 40.5972 34.5993 40.7641 34.5993C40.8067 34.5993 40.9474 34.6141 41.1863 34.6435C41.4252 34.6729 41.646 34.6877 41.8489 34.6877C42.3169 34.6877 42.6392 34.5993 42.8159 34.4227C42.9959 34.2461 43.0859 33.9288 43.0859 33.4709V33.2501C42.8536 33.3842 42.6229 33.4839 42.3938 33.5494C42.168 33.6115 41.9324 33.6426 41.687 33.6426C41.0292 33.6426 40.4909 33.4381 40.072 33.0293C39.6564 32.6171 39.4486 32.0889 39.4486 31.4445C39.4486 30.7805 39.6662 30.2342 40.1015 29.8057C40.54 29.3772 41.0996 29.163 41.7802 29.163C42.0747 29.163 42.3333 29.2104 42.5558 29.3053C42.7783 29.3968 42.9714 29.5408 43.135 29.737Z" fill="#71A9CD"/>
<path d="M47.3761 29.7763C47.4906 29.5767 47.6526 29.4246 47.862 29.32C48.0715 29.2153 48.3218 29.163 48.6131 29.163C49.1301 29.163 49.5277 29.3134 49.8059 29.6144C50.0873 29.9153 50.228 30.3471 50.228 30.9097V32.7398H50.3114C50.4849 32.7398 50.6158 32.7856 50.7041 32.8772C50.7958 32.9655 50.8416 33.0963 50.8416 33.2697C50.8416 33.4627 50.7941 33.6017 50.6992 33.6867C50.6076 33.7718 50.4505 33.8143 50.228 33.8143H49.0107C48.7914 33.8143 48.6343 33.7718 48.5394 33.6867C48.4478 33.6017 48.402 33.4627 48.402 33.2697C48.402 33.0931 48.4462 32.9606 48.5345 32.8723C48.6229 32.7839 48.7554 32.7398 48.9321 32.7398H49.0107V31.312C49.0107 30.8933 48.9583 30.6038 48.8536 30.4436C48.7521 30.28 48.5771 30.1982 48.3284 30.1982C48.0666 30.1982 47.8424 30.3045 47.6559 30.5172C47.4693 30.7265 47.3761 30.9914 47.3761 31.312V32.7398H47.4546C47.6313 32.7398 47.7639 32.7856 47.8522 32.8772C47.9438 32.9655 47.9897 33.0963 47.9897 33.2697C47.9897 33.4627 47.9422 33.6017 47.8473 33.6867C47.7524 33.7718 47.5953 33.8143 47.3761 33.8143H46.1587C45.9329 33.8143 45.7742 33.7734 45.6826 33.6916C45.591 33.6066 45.5451 33.4659 45.5451 33.2697C45.5451 33.0963 45.5893 32.9655 45.6777 32.8772C45.7693 32.7856 45.9018 32.7398 46.0753 32.7398H46.1587V28.481H46.0753C45.9018 28.481 45.7677 28.4352 45.6728 28.3436C45.5811 28.2487 45.5353 28.113 45.5353 27.9363C45.5353 27.7434 45.5828 27.6043 45.6777 27.5193C45.7726 27.4342 45.9329 27.3917 46.1587 27.3917H47.0816C47.1928 27.3917 47.2697 27.4146 47.3123 27.4604C47.3548 27.5062 47.3761 27.5913 47.3761 27.7156V29.7763Z" fill="#71A9CD"/>
<path d="M54.8078 32.7398H55.8631C56.0889 32.7398 56.2476 32.7807 56.3393 32.8624C56.4309 32.9442 56.4767 33.08 56.4767 33.2697C56.4767 33.4627 56.4293 33.6017 56.3344 33.6867C56.2427 33.7718 56.0857 33.8143 55.8631 33.8143H52.5351C52.3158 33.8143 52.1587 33.7718 52.0638 33.6867C51.9722 33.6017 51.9264 33.4627 51.9264 33.2697C51.9264 33.0767 51.9706 32.941 52.0589 32.8624C52.1506 32.7807 52.3093 32.7398 52.5351 32.7398H53.5904V28.481H53.0505C52.8279 28.481 52.6676 28.4384 52.5694 28.3534C52.4745 28.2651 52.4271 28.1261 52.4271 27.9363C52.4271 27.7434 52.4745 27.6043 52.5694 27.5193C52.6643 27.4342 52.8247 27.3917 53.0505 27.3917H54.5182C54.6098 27.3917 54.6801 27.4114 54.7292 27.4506C54.7816 27.4866 54.8078 27.5373 54.8078 27.6027V32.7398Z" fill="#71A9CD"/>
<path d="M60.9288 32.7398H61.9842C62.21 32.7398 62.3704 32.7807 62.4653 32.8624C62.5602 32.9442 62.6076 33.08 62.6076 33.2697C62.6076 33.4627 62.5585 33.6017 62.4603 33.6867C62.3654 33.7718 62.2067 33.8143 61.9842 33.8143H58.666C58.4434 33.8143 58.2831 33.7718 58.1849 33.6867C58.09 33.6017 58.0426 33.4627 58.0426 33.2697C58.0426 33.08 58.0884 32.9442 58.18 32.8624C58.2749 32.7807 58.4369 32.7398 58.666 32.7398H59.7213V30.3552H59.1666C58.9474 30.3552 58.7903 30.3144 58.6954 30.2326C58.6005 30.1475 58.5531 30.0085 58.5531 29.8155C58.5531 29.6225 58.5989 29.4852 58.6905 29.4034C58.7821 29.3216 58.9408 29.2807 59.1666 29.2807H60.6441C60.7358 29.2807 60.8061 29.3003 60.8552 29.3396C60.9043 29.3756 60.9288 29.4263 60.9288 29.4917V32.7398ZM60.222 27.063C60.4609 27.063 60.6196 27.1088 60.6981 27.2004C60.7767 27.292 60.816 27.5111 60.816 27.8578C60.816 28.1915 60.78 28.3992 60.708 28.481C60.6392 28.5595 60.474 28.5987 60.2122 28.5987C59.9569 28.5987 59.7917 28.5611 59.7164 28.4859C59.6444 28.4106 59.6084 28.2602 59.6084 28.0345C59.6084 27.6158 59.6461 27.3492 59.7213 27.2347C59.7966 27.1202 59.9635 27.063 60.222 27.063Z" fill="#71A9CD"/>
<path d="M66.0682 30.1982C65.7475 30.1982 65.4808 30.3144 65.2681 30.5466C65.0587 30.7788 64.9539 31.0749 64.9539 31.4347C64.9539 31.7879 65.0587 32.0807 65.2681 32.3129C65.4808 32.5419 65.7475 32.6564 66.0682 32.6564C66.3922 32.6564 66.6589 32.5419 66.8683 32.3129C67.081 32.0807 67.1874 31.7879 67.1874 31.4347C67.1874 31.0749 67.081 30.7788 66.8683 30.5466C66.6589 30.3144 66.3922 30.1982 66.0682 30.1982ZM67.2855 29.737V29.4819C67.2855 29.4165 67.3085 29.3674 67.3543 29.3347C67.4034 29.2987 67.4753 29.2807 67.5702 29.2807H68.3704C68.5962 29.2807 68.7549 29.3232 68.8465 29.4083C68.9381 29.4901 68.9839 29.6258 68.9839 29.8155C68.9839 29.9922 68.9381 30.1263 68.8465 30.2179C68.7581 30.3094 68.6272 30.3552 68.4538 30.3552H68.3704V33.7358C68.3704 34.4521 68.1756 34.9722 67.7862 35.2961C67.3968 35.6199 66.7718 35.7818 65.9111 35.7818C65.3777 35.7818 64.985 35.7295 64.7331 35.6248C64.4843 35.5201 64.36 35.3549 64.36 35.1292C64.36 34.9722 64.4107 34.8447 64.5122 34.7465C64.6136 34.6484 64.7478 34.5993 64.9147 34.5993C64.9572 34.5993 65.0979 34.6141 65.3368 34.6435C65.5757 34.6729 65.7966 34.6877 65.9995 34.6877C66.4674 34.6877 66.7898 34.5993 66.9665 34.4227C67.1465 34.2461 67.2365 33.9288 67.2365 33.4709V33.2501C67.0041 33.3842 66.7734 33.4839 66.5443 33.5494C66.3185 33.6115 66.0829 33.6426 65.8375 33.6426C65.1797 33.6426 64.6414 33.4381 64.2226 33.0293C63.807 32.6171 63.5992 32.0889 63.5992 31.4445C63.5992 30.7805 63.8168 30.2342 64.252 29.8057C64.6905 29.3772 65.2501 29.163 65.9308 29.163C66.2253 29.163 66.4838 29.2104 66.7063 29.3053C66.9289 29.3968 67.1219 29.5408 67.2855 29.737Z" fill="#71A9CD"/>
<path d="M77.9255 29.6065H79.4227C79.6485 29.6065 79.8088 29.6474 79.9037 29.7292C79.9986 29.8109 80.0461 29.9467 80.0461 30.1364C80.0461 30.3294 79.997 30.4684 79.8988 30.5535C79.8039 30.6385 79.6452 30.681 79.4227 30.681H77.9255V31.9371C77.9255 32.2904 77.9795 32.5324 78.0875 32.6632C78.1955 32.7941 78.3853 32.8595 78.6569 32.8595C78.9122 32.8595 79.2132 32.7859 79.5601 32.6387C79.907 32.4915 80.1393 32.4179 80.2571 32.4179C80.3913 32.4179 80.5058 32.4719 80.6007 32.5798C80.6989 32.6845 80.748 32.8121 80.748 32.9625C80.748 33.2144 80.5189 33.445 80.0608 33.6544C79.6059 33.8604 79.0889 33.9635 78.5097 33.9635C78.1726 33.9635 77.8764 33.9177 77.6212 33.8261C77.3659 33.7345 77.1647 33.6037 77.0174 33.4336C76.9094 33.3027 76.8325 33.1457 76.7867 32.9625C76.7409 32.7794 76.718 32.4735 76.718 32.045V31.9371V30.681H76.2566C76.0341 30.681 75.8754 30.6385 75.7805 30.5535C75.6888 30.4684 75.643 30.3294 75.643 30.1364C75.643 29.9434 75.6888 29.8077 75.7805 29.7292C75.8721 29.6474 76.0308 29.6065 76.2566 29.6065H76.718V28.4584C76.718 28.2327 76.7638 28.0741 76.8554 27.9825C76.9503 27.8909 77.1058 27.8451 77.3218 27.8451C77.5377 27.8451 77.6916 27.8909 77.7832 27.9825C77.8781 28.0741 77.9255 28.2327 77.9255 28.4584V29.6065Z" fill="#71A9CD"/>
<path d="M91.7974 29.5967C91.8366 29.4691 91.8972 29.3743 91.979 29.3121C92.0641 29.2467 92.1721 29.214 92.303 29.214C92.4797 29.214 92.6057 29.268 92.6809 29.3759C92.7562 29.4806 92.7938 29.6638 92.7938 29.9254V30.7301C92.7938 30.9296 92.7529 31.0768 92.6711 31.1717C92.5893 31.2665 92.4633 31.314 92.2931 31.314C92.1721 31.314 92.0706 31.2862 91.9888 31.2306C91.907 31.1749 91.8203 31.0686 91.7286 30.9116C91.5978 30.6892 91.4259 30.5257 91.2132 30.421C91.0005 30.313 90.7404 30.2591 90.4328 30.2591C90.0499 30.2591 89.7357 30.385 89.4903 30.6369C89.2481 30.8855 89.1271 31.2044 89.1271 31.5936C89.1271 32.0025 89.2531 32.3312 89.505 32.5798C89.757 32.8284 90.0957 32.9527 90.5211 32.9527C90.9073 32.9527 91.2901 32.8464 91.6697 32.6338C92.0526 32.4179 92.2866 32.31 92.3717 32.31C92.4928 32.31 92.5926 32.3574 92.6711 32.4523C92.7529 32.5439 92.7938 32.66 92.7938 32.8006C92.7938 33.1081 92.5598 33.3829 92.0919 33.6249C91.6272 33.867 91.0742 33.988 90.4328 33.988C89.6408 33.988 88.9962 33.7656 88.4988 33.3207C88.0046 32.8759 87.7576 32.3034 87.7576 31.6034C87.7576 30.9198 88.003 30.3507 88.4938 29.896C88.9847 29.4413 89.6032 29.214 90.3493 29.214C90.6013 29.214 90.8467 29.2451 91.0856 29.3072C91.3245 29.3694 91.5618 29.4659 91.7974 29.5967Z" fill="#71A9CD"/>
<path d="M96.3771 30.2591C95.9943 30.2591 95.6785 30.385 95.4298 30.6369C95.1843 30.8855 95.0616 31.2044 95.0616 31.5936C95.0616 31.9862 95.1843 32.3116 95.4298 32.57C95.6785 32.8252 95.9943 32.9527 96.3771 32.9527C96.76 32.9527 97.0758 32.8252 97.3245 32.57C97.5732 32.3116 97.6976 31.9862 97.6976 31.5936C97.6976 31.2044 97.5732 30.8855 97.3245 30.6369C97.0791 30.385 96.7633 30.2591 96.3771 30.2591ZM96.3771 29.2238C97.1723 29.2238 97.817 29.4462 98.3111 29.8911C98.8053 30.3359 99.0524 30.9067 99.0524 31.6034C99.0524 32.3034 98.8053 32.8759 98.3111 33.3207C97.817 33.7656 97.1723 33.988 96.3771 33.988C95.5852 33.988 94.9422 33.7656 94.448 33.3207C93.9539 32.8759 93.7068 32.3034 93.7068 31.6034C93.7068 30.9067 93.9539 30.3359 94.448 29.8911C94.9454 29.4462 95.5885 29.2238 96.3771 29.2238Z" fill="#71A9CD"/>
<path d="M104.506 32.7908H104.589C104.766 32.7908 104.899 32.8366 104.987 32.9282C105.075 33.0165 105.119 33.1474 105.119 33.3207C105.119 33.5137 105.072 33.6527 104.977 33.7378C104.885 33.8228 104.728 33.8653 104.506 33.8653H103.755C103.66 33.8653 103.586 33.8473 103.534 33.8114C103.485 33.7721 103.46 33.7198 103.46 33.6544V33.3109C103.3 33.5301 103.094 33.6985 102.842 33.8163C102.59 33.9308 102.307 33.988 101.993 33.988C101.351 33.988 100.815 33.7705 100.383 33.3354C99.9506 32.8971 99.7347 32.3509 99.7347 31.6967C99.7347 31.0163 99.9523 30.4521 100.388 30.0039C100.826 29.5558 101.382 29.3317 102.056 29.3317C102.289 29.3317 102.515 29.371 102.734 29.4495C102.956 29.5247 103.159 29.6327 103.343 29.7733V28.532H102.69C102.464 28.532 102.304 28.4895 102.209 28.4044C102.114 28.3161 102.066 28.1771 102.066 27.9874C102.066 27.7944 102.114 27.6554 102.209 27.5703C102.304 27.4853 102.464 27.4428 102.69 27.4428H104.216C104.328 27.4428 104.403 27.4656 104.442 27.5114C104.485 27.5572 104.506 27.6423 104.506 27.7666V32.7908ZM102.204 30.3768C101.883 30.3768 101.616 30.4979 101.404 30.7399C101.194 30.9787 101.089 31.2829 101.089 31.6525C101.089 32.0319 101.194 32.3427 101.404 32.5847C101.613 32.8235 101.88 32.9429 102.204 32.9429C102.528 32.9429 102.794 32.8219 103.004 32.5798C103.217 32.3378 103.323 32.0287 103.323 31.6525C103.323 31.2862 103.217 30.982 103.004 30.7399C102.791 30.4979 102.524 30.3768 102.204 30.3768Z" fill="#71A9CD"/>
<path d="M107.117 31.888C107.202 32.2511 107.366 32.5226 107.608 32.7025C107.854 32.8824 108.179 32.9724 108.585 32.9724C108.991 32.9724 109.392 32.8742 109.788 32.678C110.184 32.4784 110.422 32.3787 110.504 32.3787C110.625 32.3787 110.723 32.4245 110.799 32.5161C110.877 32.6044 110.917 32.7189 110.917 32.8595C110.917 33.167 110.689 33.4319 110.234 33.6544C109.779 33.8768 109.217 33.988 108.546 33.988C107.754 33.988 107.109 33.7656 106.612 33.3207C106.118 32.8759 105.87 32.3034 105.87 31.6034C105.87 30.9067 106.118 30.3359 106.612 29.8911C107.109 29.4462 107.754 29.2238 108.546 29.2238C109.253 29.2238 109.838 29.4331 110.303 29.8518C110.768 30.2672 111 30.7775 111 31.3827C111 31.5756 110.953 31.7081 110.858 31.7801C110.766 31.852 110.575 31.888 110.283 31.888H107.117ZM109.763 31.1226C109.707 30.8184 109.563 30.5829 109.331 30.4161C109.102 30.2493 108.803 30.1658 108.433 30.1658C108.076 30.1658 107.788 30.246 107.569 30.4063C107.353 30.5633 107.202 30.8021 107.117 31.1226H109.763Z" fill="#71A9CD"/>
<path d="M71.6238 29.95C71.7383 29.7504 71.9003 29.5983 72.1098 29.4937C72.3192 29.389 72.5695 29.3367 72.8608 29.3367C73.3778 29.3367 73.7754 29.4871 74.0536 29.788C74.335 30.089 74.4757 30.5208 74.4757 31.0834V32.9135H74.5592C74.7326 32.9135 74.8635 32.9593 74.9519 33.0509C75.0435 33.1392 75.0893 33.27 75.0893 33.4434C75.0893 33.6364 75.0419 33.7754 74.947 33.8604C74.8553 33.9455 74.6983 33.988 74.4757 33.988H73.2584C73.0391 33.988 72.8821 33.9455 72.7872 33.8604C72.6955 33.7754 72.6497 33.6364 72.6497 33.4434C72.6497 33.2667 72.6939 33.1343 72.7823 33.046C72.8706 32.9576 73.0031 32.9135 73.1799 32.9135H73.2584V31.4857C73.2584 31.067 73.206 30.7775 73.1013 30.6172C72.9999 30.4537 72.8248 30.3719 72.5761 30.3719C72.3143 30.3719 72.0901 30.4782 71.9036 30.6908C71.7171 30.9002 71.6238 31.1651 71.6238 31.4857V32.9135H71.7023C71.8791 32.9135 72.0116 32.9593 72.0999 33.0509C72.1916 33.1392 72.2374 33.27 72.2374 33.4434C72.2374 33.6364 72.1899 33.7754 72.095 33.8604C72.0001 33.9455 71.8431 33.988 71.6238 33.988H70.4065C70.1807 33.988 70.022 33.9471 69.9303 33.8653C69.8387 33.7803 69.7929 33.6396 69.7929 33.4434C69.7929 33.27 69.8371 33.1392 69.9254 33.0509C70.017 32.9593 70.1496 32.9135 70.323 32.9135H70.4065V28.6547H70.323C70.1496 28.6547 70.0154 28.6089 69.9205 28.5173C69.8289 28.4224 69.7831 28.2867 69.7831 28.11C69.7831 27.917 69.8305 27.778 69.9254 27.693C70.0203 27.6079 70.1807 27.5654 70.4065 27.5654H71.3293C71.4406 27.5654 71.5175 27.5883 71.56 27.6341C71.6025 27.6799 71.6238 27.7649 71.6238 27.8892V29.95Z" fill="#71A9CD"/>
<path d="M46.3091 43.2317C46.2862 43.3232 46.2584 43.3821 46.2257 43.4083C46.193 43.4312 46.1373 43.4426 46.0588 43.4426H45.1949C45.1589 43.4426 45.1294 43.4345 45.1065 43.4181C45.0836 43.4017 45.0722 43.3821 45.0722 43.3592C45.0722 43.3494 45.0754 43.3347 45.082 43.3151C45.0885 43.2954 45.0951 43.2742 45.1016 43.2513L46.1815 41.0286C46.2077 40.9796 46.2339 40.9436 46.2601 40.9207C46.2862 40.8978 46.3124 40.8864 46.3386 40.8864C46.355 40.8864 46.3762 40.8896 46.4024 40.8962C46.4122 40.9027 46.4188 40.906 46.422 40.906L46.7018 41.009C46.7411 41.0221 46.7706 41.0434 46.7902 41.0728C46.8131 41.099 46.8246 41.1284 46.8246 41.1611C46.8246 41.1873 46.8229 41.2086 46.8196 41.2249C46.8196 41.238 46.818 41.2494 46.8147 41.2593L46.3091 43.2317ZM44.38 43.2317C44.3571 43.3232 44.3293 43.3821 44.2966 43.4083C44.2639 43.4312 44.2082 43.4426 44.1297 43.4426H43.2756C43.2363 43.4426 43.2036 43.4345 43.1774 43.4181C43.1545 43.4017 43.1431 43.3821 43.1431 43.3592C43.1431 43.3494 43.1447 43.3347 43.148 43.3151C43.1545 43.2954 43.1627 43.2742 43.1725 43.2513L44.2475 41.0286C44.277 40.9796 44.3048 40.9436 44.331 40.9207C44.3571 40.8978 44.3866 40.8864 44.4193 40.8864C44.4357 40.8864 44.4569 40.8896 44.4831 40.8962C44.4897 40.9027 44.4962 40.906 44.5028 40.906L44.7727 41.009C44.812 41.0221 44.8431 41.0434 44.866 41.0728C44.8922 41.099 44.9053 41.1284 44.9053 41.1611C44.9053 41.1742 44.902 41.1889 44.8955 41.2053C44.8922 41.2216 44.8873 41.2396 44.8807 41.2593L44.38 43.2317Z" fill="#FF8585"/>
<path d="M49.9465 46.1854H50.2753C50.4684 46.1854 50.6042 46.2115 50.6827 46.2639C50.7613 46.3162 50.8006 46.4029 50.8006 46.5239C50.8006 46.658 50.7662 46.7512 50.6975 46.8036C50.6288 46.8526 50.4782 46.8772 50.2459 46.8772H49.1709H48.95C48.8289 46.8772 48.7373 46.8477 48.6751 46.7889C48.6162 46.73 48.5868 46.6417 48.5868 46.5239C48.5868 46.3963 48.6211 46.308 48.6898 46.259C48.7618 46.2099 48.896 46.1854 49.0923 46.1854H49.1807V41.7646H49.1022C48.9058 41.7646 48.77 41.7385 48.6947 41.6861C48.6228 41.6338 48.5868 41.5422 48.5868 41.4114C48.5868 41.2903 48.6162 41.202 48.6751 41.1464C48.7373 41.0875 48.8322 41.0581 48.9598 41.0581H49.1709H50.1968C50.4586 41.0581 50.6238 41.0843 50.6926 41.1366C50.7646 41.1857 50.8006 41.2772 50.8006 41.4114C50.8006 41.5422 50.7564 41.6338 50.668 41.6861C50.5797 41.7385 50.4128 41.7646 50.1673 41.7646H49.9465V43.4721H52.2977V41.7646H51.9639C51.7774 41.7646 51.6432 41.7368 51.5614 41.6812C51.4829 41.6256 51.4436 41.5357 51.4436 41.4114C51.4436 41.2772 51.4796 41.1857 51.5516 41.1366C51.6268 41.0843 51.8085 41.0581 52.0964 41.0581H53.0733H53.2941C53.412 41.0581 53.5003 41.0875 53.5592 41.1464C53.6214 41.2053 53.6525 41.2936 53.6525 41.4114C53.6525 41.5389 53.6181 41.6305 53.5494 41.6861C53.4807 41.7385 53.358 41.7646 53.1813 41.7646H53.0634V46.1854H53.142C53.3383 46.1854 53.4725 46.2115 53.5445 46.2639C53.6165 46.3129 53.6525 46.3996 53.6525 46.5239C53.6525 46.658 53.6181 46.7512 53.5494 46.8036C53.4807 46.8526 53.322 46.8772 53.0733 46.8772H52.0572C51.7921 46.8772 51.6236 46.8526 51.5516 46.8036C51.4796 46.7512 51.4436 46.658 51.4436 46.5239C51.4436 46.3963 51.4861 46.308 51.5712 46.259C51.6563 46.2099 51.8183 46.1854 52.0572 46.1854H52.2977V44.1443H49.9465V46.1854Z" fill="#FF8585"/>
<path d="M55.4981 44.8263C55.5243 45.2973 55.683 45.662 55.9743 45.9204C56.2688 46.1755 56.6697 46.3031 57.1769 46.3031C57.5598 46.3031 57.977 46.2017 58.4286 45.9989C58.8802 45.7928 59.1534 45.6898 59.2483 45.6898C59.3465 45.6898 59.4283 45.7209 59.4938 45.783C59.5592 45.8452 59.5919 45.922 59.5919 46.0136C59.5919 46.1085 59.5576 46.1952 59.4889 46.2737C59.4201 46.3522 59.3105 46.429 59.16 46.5043C58.8327 46.6646 58.494 46.7872 58.1439 46.8723C57.797 46.9573 57.4518 46.9998 57.1082 46.9998C56.3621 46.9998 55.7648 46.7856 55.3165 46.3571C54.8682 45.9253 54.644 45.3545 54.644 44.6447C54.644 43.9218 54.8813 43.3363 55.3558 42.8882C55.8303 42.4401 56.4488 42.216 57.2112 42.216C57.9017 42.216 58.4744 42.4254 58.9293 42.844C59.3841 43.2627 59.6116 43.7697 59.6116 44.3651C59.6116 44.5482 59.5723 44.6709 59.4938 44.733C59.4185 44.7952 59.2107 44.8263 58.8704 44.8263H58.7967H55.4981ZM55.5227 44.1835H58.7182C58.6691 43.7943 58.5055 43.4819 58.2273 43.2464C57.9525 43.0076 57.6138 42.8882 57.2112 42.8882C56.776 42.8882 56.4095 43.0027 56.1117 43.2317C55.8139 43.4606 55.6176 43.7779 55.5227 44.1835Z" fill="#FF8585"/>
<path d="M62.866 41.1611H62.0315C61.7141 41.1611 61.5145 41.1366 61.4327 41.0875C61.3541 41.0352 61.3149 40.942 61.3149 40.8079C61.3149 40.6901 61.3476 40.6018 61.4131 40.5429C61.4818 40.484 61.5799 40.4546 61.7076 40.4546H63.3274C63.4158 40.4546 63.4845 40.4726 63.5336 40.5086C63.5827 40.5445 63.6072 40.5936 63.6072 40.6558V46.1854H65.1485C65.2729 46.1854 65.3629 46.2132 65.4185 46.2688C65.4774 46.3211 65.5069 46.4061 65.5069 46.5239C65.5069 46.658 65.479 46.7512 65.4234 46.8036C65.3678 46.8526 65.2631 46.8772 65.1093 46.8772H61.4867C61.3591 46.8772 61.2609 46.8477 61.1922 46.7889C61.1267 46.73 61.094 46.6417 61.094 46.5239C61.094 46.4094 61.1284 46.3244 61.1971 46.2688C61.2658 46.2132 61.3689 46.1854 61.5063 46.1854H62.866V41.1611Z" fill="#FF8585"/>
<path d="M68.9036 41.1611H68.0692C67.7518 41.1611 67.5521 41.1366 67.4703 41.0875C67.3918 41.0352 67.3525 40.942 67.3525 40.8079C67.3525 40.6901 67.3852 40.6018 67.4507 40.5429C67.5194 40.484 67.6176 40.4546 67.7452 40.4546H69.3651C69.4534 40.4546 69.5221 40.4726 69.5712 40.5086C69.6203 40.5445 69.6449 40.5936 69.6449 40.6558V46.1854H71.1862C71.3105 46.1854 71.4005 46.2132 71.4561 46.2688C71.515 46.3211 71.5445 46.4061 71.5445 46.5239C71.5445 46.658 71.5167 46.7512 71.4611 46.8036C71.4054 46.8526 71.3007 46.8772 71.1469 46.8772H67.5243C67.3967 46.8772 67.2985 46.8477 67.2298 46.7889C67.1644 46.73 67.1316 46.6417 67.1316 46.5239C67.1316 46.4094 67.166 46.3244 67.2347 46.2688C67.3034 46.2132 67.4065 46.1854 67.544 46.1854H68.9036V41.1611Z" fill="#FF8585"/>
<path d="M75.2702 46.3129C75.7741 46.3129 76.1864 46.1543 76.5071 45.837C76.8311 45.5164 76.9931 45.1092 76.9931 44.6153C76.9931 44.1214 76.8311 43.7141 76.5071 43.3936C76.1832 43.0697 75.7708 42.9078 75.2702 42.9078C74.7695 42.9078 74.3572 43.0697 74.0332 43.3936C73.7125 43.7141 73.5521 44.1214 73.5521 44.6153C73.5521 45.1125 73.7125 45.5197 74.0332 45.837C74.3539 46.1543 74.7662 46.3129 75.2702 46.3129ZM77.8472 44.6153C77.8472 45.3153 77.6083 45.8877 77.1305 46.3326C76.6528 46.7774 76.0326 46.9998 75.2702 46.9998C74.511 46.9998 73.8925 46.7774 73.4147 46.3326C72.9369 45.8877 72.698 45.3153 72.698 44.6153C72.698 43.9153 72.9369 43.3445 73.4147 42.9029C73.8925 42.4581 74.511 42.2356 75.2702 42.2356C76.0294 42.2356 76.6479 42.4581 77.1256 42.9029C77.6067 43.3478 77.8472 43.9186 77.8472 44.6153Z" fill="#FF8585"/>
<path d="M80.0316 41.2691C80.0545 41.1775 80.0823 41.1202 80.115 41.0973C80.1477 41.0712 80.205 41.0581 80.2868 41.0581H81.1409C81.1736 41.0581 81.2031 41.0679 81.2293 41.0875C81.2554 41.1039 81.2685 41.1251 81.2685 41.1513C81.2685 41.1611 81.2653 41.1758 81.2587 41.1955C81.2554 41.2151 81.2489 41.2364 81.2391 41.2593L80.1641 43.4819C80.1445 43.5244 80.1199 43.5571 80.0905 43.58C80.061 43.5996 80.0283 43.6095 79.9923 43.6095C79.9857 43.6095 79.9759 43.6095 79.9628 43.6095C79.953 43.6062 79.9367 43.5996 79.9137 43.5898L79.6389 43.4917C79.5996 43.4753 79.5685 43.4557 79.5456 43.4328C79.5227 43.4067 79.5112 43.3789 79.5112 43.3494C79.5112 43.3363 79.5129 43.3216 79.5161 43.3053C79.5194 43.2856 79.5243 43.2676 79.5309 43.2513L80.0316 41.2691ZM81.9656 41.2691C81.9885 41.1775 82.0146 41.1202 82.0441 41.0973C82.0768 41.0712 82.1341 41.0581 82.2159 41.0581H83.07C83.1027 41.0581 83.1305 41.0679 83.1535 41.0875C83.1764 41.1039 83.1878 41.1251 83.1878 41.1513C83.1878 41.1611 83.1845 41.1758 83.178 41.1955C83.1747 41.2151 83.1682 41.2364 83.1584 41.2593L82.0932 43.4819C82.0735 43.5244 82.049 43.5571 82.0196 43.58C81.9934 43.5996 81.9606 43.6095 81.9214 43.6095C81.9148 43.6095 81.9067 43.6095 81.8968 43.6095C81.887 43.6062 81.869 43.5996 81.8428 43.5898L81.5729 43.4917C81.5303 43.4753 81.4976 43.4557 81.4747 43.4328C81.4518 43.4067 81.4403 43.3789 81.4403 43.3494C81.4403 43.3232 81.4403 43.3036 81.4403 43.2905C81.4436 43.2742 81.4469 43.2611 81.4502 43.2513L81.9656 41.2691Z" fill="#FF8585"/>
<path d="M41.2412 17.6455L44.8393 19.3039C44.9832 19.3726 45.0863 19.4413 45.1485 19.51C45.2107 19.5754 45.2418 19.6506 45.2418 19.7357C45.2418 19.8338 45.2123 19.9123 45.1534 19.9712C45.0978 20.0301 45.0192 20.0595 44.9178 20.0595C44.872 20.0595 44.8213 20.0513 44.7656 20.035C44.71 20.0186 44.6315 19.9859 44.53 19.9368L40.6276 18.1165C40.6145 18.1133 40.5982 18.1067 40.5785 18.0969C40.2775 17.9595 40.127 17.8091 40.127 17.6455C40.127 17.482 40.2742 17.3348 40.5687 17.2039C40.5949 17.1908 40.6145 17.181 40.6276 17.1745L44.53 15.3836C44.6184 15.3411 44.6936 15.3117 44.7558 15.2953C44.818 15.2757 44.872 15.2659 44.9178 15.2659C45.0192 15.2659 45.0978 15.2937 45.1534 15.3493C45.2123 15.4049 45.2418 15.4801 45.2418 15.575C45.2418 15.6633 45.2107 15.7418 45.1485 15.8105C45.0863 15.8759 44.9832 15.9413 44.8393 16.0068L41.2412 17.6455Z" fill="#E3B73A"/>
<path d="M46.7045 20.398V19.5247C46.7045 19.3808 46.7307 19.2777 46.7831 19.2156C46.8387 19.1534 46.9271 19.1224 47.0481 19.1224C47.1823 19.1224 47.2887 19.214 47.3672 19.3971C47.4196 19.5083 47.467 19.5918 47.5096 19.6474C47.647 19.824 47.8499 19.9663 48.1182 20.0742C48.3866 20.1789 48.6827 20.2312 49.0067 20.2312C49.3536 20.2312 49.6317 20.1609 49.8412 20.0203C50.0506 19.8796 50.1553 19.6948 50.1553 19.4658C50.1553 19.2336 50.0702 19.0684 49.9001 18.9703C49.7332 18.8721 49.4452 18.8231 49.0361 18.8231H48.7662C48.0986 18.8231 47.5897 18.7069 47.2396 18.4747C46.8894 18.2425 46.7144 17.9056 46.7144 17.464C46.7144 17.0322 46.8845 16.6969 47.2249 16.4581C47.5685 16.2194 48.0495 16.1 48.668 16.1C48.92 16.1 49.1769 16.136 49.4387 16.2079C49.7005 16.2766 49.8379 16.311 49.851 16.311C49.887 16.311 49.9557 16.2799 50.0571 16.2177C50.1586 16.1523 50.2584 16.1196 50.3566 16.1196C50.4678 16.1196 50.5496 16.1605 50.602 16.2423C50.6576 16.324 50.6855 16.4467 50.6855 16.6102V17.1843C50.6855 17.3577 50.6593 17.4836 50.6069 17.5621C50.5546 17.6373 50.4711 17.675 50.3566 17.675C50.2584 17.675 50.1373 17.5915 49.9933 17.4247C49.8919 17.3102 49.8084 17.2236 49.743 17.1647C49.5696 17.0044 49.3847 16.8899 49.1883 16.8212C48.992 16.7493 48.7613 16.7133 48.4962 16.7133C48.1886 16.7133 47.9399 16.782 47.7501 16.9194C47.5636 17.0535 47.4703 17.2252 47.4703 17.4345C47.4703 17.6406 47.5668 17.7878 47.7599 17.8761C47.953 17.9644 48.3686 18.0151 49.0067 18.0282C49.6874 18.0446 50.1848 18.164 50.4989 18.3864C50.8131 18.6055 50.9702 18.9457 50.9702 19.4069C50.9702 19.8485 50.7967 20.2018 50.4498 20.4667C50.103 20.7317 49.635 20.8642 49.046 20.8642C48.8594 20.8642 48.6516 20.8462 48.4226 20.8102C48.1935 20.7775 47.9055 20.7202 47.5586 20.6385C47.4441 20.7137 47.3459 20.7693 47.2641 20.8053C47.1823 20.8445 47.1136 20.8642 47.058 20.8642C46.9434 20.8642 46.8551 20.8249 46.7929 20.7464C46.734 20.6646 46.7045 20.5485 46.7045 20.398Z" fill="#E3B73A"/>
<path d="M56.3599 16.5121V16.4925C56.3599 16.3845 56.3909 16.306 56.4531 16.257C56.5153 16.2046 56.6118 16.1785 56.7427 16.1785C56.8769 16.1785 56.9685 16.2177 57.0176 16.2962C57.07 16.3747 57.0961 16.5367 57.0961 16.782V17.6946C57.0961 17.8156 57.0651 17.9072 57.0029 17.9693C56.9407 18.0282 56.8474 18.0577 56.7231 18.0577C56.6347 18.0577 56.5578 18.0331 56.4924 17.9841C56.4302 17.9317 56.3533 17.8254 56.2617 17.6651C56.1046 17.4002 55.9132 17.2007 55.6874 17.0665C55.4648 16.9292 55.208 16.8605 54.9167 16.8605C54.4062 16.8605 53.9906 17.0109 53.6699 17.3119C53.3525 17.6128 53.1938 18.0021 53.1938 18.4796C53.1938 18.967 53.3459 19.3661 53.6503 19.6768C53.9579 19.9843 54.3522 20.138 54.8333 20.138C55.0525 20.138 55.2603 20.1086 55.4567 20.0497C55.6563 19.9875 55.8444 19.896 56.0212 19.7749C56.0833 19.7357 56.1668 19.6752 56.2715 19.5934C56.4842 19.42 56.6511 19.3333 56.7722 19.3333C56.8736 19.3333 56.9554 19.3661 57.0176 19.4315C57.0831 19.4936 57.1158 19.5754 57.1158 19.6768C57.1158 19.9352 56.8703 20.2002 56.3795 20.4716C55.8919 20.7399 55.3732 20.874 54.8234 20.874C54.1133 20.874 53.521 20.6466 53.0465 20.192C52.5753 19.7373 52.3397 19.1698 52.3397 18.4894C52.3397 17.8091 52.5753 17.2415 53.0465 16.7869C53.5177 16.3289 54.1068 16.1 54.8136 16.1C55.0623 16.1 55.311 16.1343 55.5597 16.203C55.8117 16.2684 56.0784 16.3715 56.3599 16.5121Z" fill="#E3B73A"/>
<path d="M60.4389 20.0595H62.0686C62.1962 20.0595 62.2895 20.0873 62.3484 20.1429C62.4106 20.1952 62.4417 20.2803 62.4417 20.398C62.4417 20.5322 62.4122 20.6254 62.3533 20.6777C62.2977 20.7268 62.193 20.7513 62.0392 20.7513H58.8289C58.7013 20.7513 58.6047 20.7219 58.5393 20.663C58.4738 20.6041 58.4411 20.5158 58.4411 20.398C58.4411 20.2836 58.4738 20.1985 58.5393 20.1429C58.608 20.0873 58.7127 20.0595 58.8534 20.0595H59.7075V16.9144H59.3738C59.0563 16.9144 58.8584 16.8899 58.7798 16.8409C58.7013 16.7885 58.662 16.6953 58.662 16.5612C58.662 16.4467 58.6931 16.3617 58.7553 16.306C58.8207 16.2472 58.9189 16.2177 59.0498 16.2177H60.169C60.2573 16.2177 60.3244 16.2357 60.3702 16.2717C60.416 16.3044 60.4389 16.3535 60.4389 16.4189V17.253C60.7498 16.8637 61.0738 16.5743 61.4108 16.3845C61.7479 16.1948 62.1111 16.1 62.5006 16.1C62.7918 16.1 63.0274 16.1589 63.2074 16.2766C63.3874 16.3944 63.4774 16.5465 63.4774 16.7329C63.4774 16.8539 63.4316 16.9619 63.3399 17.0567C63.2516 17.1483 63.1534 17.1941 63.0454 17.1941C62.9702 17.1941 62.8425 17.1451 62.6626 17.0469C62.4858 16.9455 62.3271 16.8948 62.1864 16.8948C61.9312 16.8948 61.6612 16.9864 61.3765 17.1696C61.0951 17.3495 60.7825 17.6357 60.4389 18.0282V20.0595Z" fill="#E3B73A"/>
<path d="M66.506 14.8047C66.506 14.4514 66.5371 14.229 66.5993 14.1374C66.6647 14.0458 66.8022 14 67.0116 14C67.2145 14 67.3487 14.0393 67.4141 14.1178C67.4796 14.193 67.5123 14.3745 67.5123 14.6624C67.5123 14.9437 67.4812 15.1187 67.419 15.1874C67.3601 15.2528 67.2243 15.2855 67.0116 15.2855C66.8022 15.2855 66.6647 15.2544 66.5993 15.1923C66.5371 15.1301 66.506 15.0009 66.506 14.8047ZM67.4141 20.0595H68.9898C69.1174 20.0595 69.2107 20.0873 69.2696 20.1429C69.3318 20.1952 69.3629 20.2803 69.3629 20.398C69.3629 20.5322 69.3334 20.6254 69.2745 20.6777C69.2189 20.7268 69.1142 20.7513 68.9603 20.7513H65.1512C65.0203 20.7513 64.9222 20.7219 64.8567 20.663C64.7913 20.6041 64.7585 20.5158 64.7585 20.398C64.7585 20.2836 64.7929 20.1985 64.8616 20.1429C64.9303 20.0873 65.0334 20.0595 65.1709 20.0595H66.668V16.9144H65.7108C65.5767 16.9144 65.4736 16.885 65.4016 16.8261C65.3329 16.764 65.2985 16.6757 65.2985 16.5612C65.2985 16.4467 65.3312 16.3617 65.3967 16.306C65.4621 16.2472 65.5603 16.2177 65.6912 16.2177H67.1294C67.2178 16.2177 67.2865 16.2357 67.3356 16.2717C67.3879 16.3077 67.4141 16.3567 67.4141 16.4189V20.0595Z" fill="#E3B73A"/>
<path d="M71.7288 22.0074H72.9069C73.0313 22.0074 73.1245 22.0368 73.1867 22.0957C73.2489 22.1546 73.28 22.2429 73.28 22.3606C73.28 22.4882 73.2489 22.5782 73.1867 22.6305C73.1278 22.6828 73.0214 22.709 72.8676 22.709H70.7029C70.572 22.709 70.4722 22.6796 70.4035 22.6207C70.338 22.5618 70.3053 22.4751 70.3053 22.3606C70.3053 22.2298 70.3462 22.1382 70.428 22.0859C70.5131 22.0335 70.6686 22.0074 70.8944 22.0074H70.9876V16.9144H70.8944C70.6686 16.9144 70.5131 16.8883 70.428 16.8359C70.3462 16.7836 70.3053 16.692 70.3053 16.5612C70.3053 16.4467 70.338 16.3617 70.4035 16.306C70.4722 16.2472 70.572 16.2177 70.7029 16.2177H71.449C71.5472 16.2177 71.6176 16.2341 71.6601 16.2668C71.7059 16.2995 71.7288 16.3502 71.7288 16.4189V16.8948C71.9514 16.6659 72.1968 16.4941 72.4651 16.3796C72.7367 16.2652 73.028 16.2079 73.3389 16.2079C73.9966 16.2079 74.5464 16.4303 74.9882 16.8752C75.4299 17.3201 75.6508 17.8778 75.6508 18.5483C75.6508 19.1927 75.4414 19.7226 75.0225 20.138C74.6037 20.5534 74.0686 20.7611 73.4174 20.7611C73.0705 20.7611 72.7515 20.7006 72.4602 20.5796C72.169 20.4553 71.9252 20.2787 71.7288 20.0497V22.0074ZM73.2505 20.0399C73.7054 20.0399 74.0784 19.8976 74.3697 19.613C74.6609 19.3252 74.8065 18.9539 74.8065 18.4992C74.8065 18.0544 74.6593 17.688 74.3648 17.4002C74.0735 17.1091 73.7021 16.9635 73.2505 16.9635C72.7989 16.9635 72.4291 17.1074 72.1412 17.3953C71.8532 17.6831 71.7092 18.0511 71.7092 18.4992C71.7092 18.9506 71.8515 19.3203 72.1362 19.6081C72.4242 19.896 72.7956 20.0399 73.2505 20.0399Z" fill="#E3B73A"/>
<path d="M80.373 16.4925C80.5333 16.4925 80.6495 16.5203 80.7215 16.5759C80.7967 16.6315 80.8344 16.7198 80.8344 16.8409C80.8344 16.9553 80.8 17.042 80.7313 17.1009C80.6626 17.1565 80.5595 17.1843 80.422 17.1843H78.434V18.8231C78.434 19.3595 78.5028 19.7128 78.6402 19.8829C78.7809 20.053 79.0198 20.138 79.3569 20.138C79.6547 20.138 80.0113 20.0513 80.4269 19.878C80.8425 19.7046 81.0994 19.6179 81.1976 19.6179C81.2892 19.6179 81.3661 19.6506 81.4283 19.716C81.4938 19.7815 81.5265 19.8616 81.5265 19.9565C81.5265 20.0644 81.4856 20.1593 81.4038 20.241C81.3252 20.3195 81.1894 20.3964 80.9964 20.4716C80.6757 20.5992 80.386 20.6924 80.1275 20.7513C79.8723 20.8102 79.6317 20.8396 79.4059 20.8396C79.0231 20.8396 78.7007 20.7791 78.4389 20.6581C78.1804 20.5338 77.9874 20.3506 77.8597 20.1086C77.7943 19.9941 77.7468 19.8583 77.7174 19.7013C77.6912 19.5443 77.6781 19.3023 77.6781 18.9752V18.8231V17.1843H76.8436C76.7062 17.1843 76.6064 17.1581 76.5442 17.1058C76.482 17.0502 76.4509 16.9619 76.4509 16.8409C76.4509 16.7067 76.4935 16.6152 76.5786 16.5661C76.6637 16.517 76.8453 16.4925 77.1234 16.4925H77.6781V15.4867V15.2266C77.6781 15.086 77.7076 14.9829 77.7665 14.9175C77.8286 14.8488 77.9235 14.8145 78.0512 14.8145C78.1951 14.8145 78.295 14.8554 78.3506 14.9371C78.4062 15.0189 78.434 15.2054 78.434 15.4965V16.4925H80.373Z" fill="#E3B73A"/>
<path d="M86.3811 17.6455L82.7929 16.0068C82.6424 15.9381 82.536 15.871 82.4739 15.8056C82.4117 15.7369 82.3806 15.66 82.3806 15.575C82.3806 15.4801 82.4084 15.4049 82.464 15.3493C82.5229 15.2937 82.6015 15.2659 82.6997 15.2659C82.7487 15.2659 82.8027 15.2757 82.8616 15.2953C82.9238 15.3117 83.0007 15.3411 83.0923 15.3836L86.9947 17.1745C87.0078 17.181 87.0274 17.1908 87.0536 17.2039C87.3481 17.3348 87.4954 17.482 87.4954 17.6455C87.4954 17.8058 87.3514 17.953 87.0634 18.0871C87.0307 18.1002 87.0078 18.11 86.9947 18.1165L83.0923 19.9368L83.0727 19.9467C82.9025 20.0219 82.7782 20.0595 82.6997 20.0595C82.6015 20.0595 82.5229 20.0301 82.464 19.9712C82.4084 19.9123 82.3806 19.8338 82.3806 19.7357C82.3806 19.6506 82.4117 19.5754 82.4739 19.51C82.536 19.4413 82.6424 19.3726 82.7929 19.3039L86.3811 17.6455Z" fill="#E3B73A"/>
</svg>
