<svg xmlns="http://www.w3.org/2000/svg" width="20" height="20" fill="none" viewBox="0 0 20 20">
    <path fill="#EAEAEA" d="M8 12a1 1 0 0 1 1 1v4a1 1 0 0 1-1 1H3a1 1 0 0 1-1-1v-4a1 1 0 0 1 1-1zm-1.793 3.5a1 1 0 0 1-1.414 0L3 13.707V17h5v-3.293zm-.707-.707L7.293 13H3.707zM6 2a4 4 0 1 1 0 8 4 4 0 0 1 0-8m11 0c.196 0 .543.065.679.422a.7.7 0 0 1 .032.376 1.2 1.2 0 0 1-.084.268c-.129.292-.392.637-.638.935-.256.31-.544.627-.753.863l-.142.165q.067.09.163.206.153.185.34.402c.123.142.251.292.374.44.233.282.483.603.611.871.034.072.068.157.088.248.02.089.034.22-.01.362a.6.6 0 0 1-.305.362A.8.8 0 0 1 17 8h-5v1.5a.5.5 0 0 1-1 0V3a1 1 0 0 1 1-1zM6 3a3 3 0 1 0 0 6 3 3 0 0 0 0-6m-.5 1.5A.5.5 0 0 1 6 5v1h.5a.5.5 0 0 1 0 1H6a1 1 0 0 1-1-1V5a.5.5 0 0 1 .5-.5M12 7h4.427a9 9 0 0 0-.227-.286c-.115-.14-.239-.284-.361-.427-.121-.141-.244-.283-.352-.413a6 6 0 0 1-.287-.371 2 2 0 0 1-.111-.18.8.8 0 0 1-.086-.268.55.55 0 0 1 .04-.272 1 1 0 0 1 .058-.106c.031-.05.07-.103.106-.148.073-.092.173-.207.28-.328.221-.25.49-.545.732-.838A7 7 0 0 0 16.502 3H12z"/>
    <path stroke="#92B7F0" d="m14.925 12.811-.647-1.615a.3.3 0 0 0-.556 0l-.647 1.615a.3.3 0 0 1-.278.189h-1.942a.3.3 0 0 0-.187.534l1.643 1.314a.3.3 0 0 1 .08.369l-.923 1.847c-.135.27.167.548.425.39l1.95-1.192a.3.3 0 0 1 .313 0l1.951 1.192c.258.158.56-.12.425-.39l-.924-1.847a.3.3 0 0 1 .081-.369l1.643-1.314a.3.3 0 0 0-.187-.534h-1.942a.3.3 0 0 1-.278-.189Z"/>
</svg>
