<svg xmlns="http://www.w3.org/2000/svg" viewBox="0 0 120 60" width="120" height="60">
<g transform="translate(36,6) scale(0.5)">
  <title>Curly</title>
  <rect x="0" y="0" width="96" height="96" rx="17" ry="17" fill="#1F3669"/>
  <path fill-rule="evenodd" fill="#FFFFFF" d="M 32.028 16.798 C 27.417 19.058, 26.032 22.145, 26.015 30.203 C 25.997 38.479, 24.554 41.939, 20.811 42.688 C 16.482 43.554, 16.626 50.326, 21.006 51.852 C 24.772 53.165, 26 56.279, 26 64.518 C 26 77.486, 29.653 80, 48.500 80 C 63.218 80, 67.960 78.423, 69.890 72.887 C 71.965 66.932, 71.507 66, 66.500 66 C 62.681 66, 62 66.300, 62 67.981 C 62 70.684, 59.515 71.135, 46.500 70.791 C 36.341 70.522, 35.485 70.347, 35.303 68.500 C 35.195 67.400, 34.821 63.453, 34.472 59.730 C 34.004 54.746, 33.226 52.233, 31.522 50.209 L 29.208 47.459 31.520 44.771 C 33.233 42.780, 33.997 40.325, 34.469 35.292 C 34.820 31.556, 35.195 27.600, 35.303 26.500 C 35.489 24.613, 36.232 24.500, 48.500 24.500 C 61.220 24.500, 61.507 24.548, 61.820 26.750 C 62.278 29.977, 71 30.184, 71 26.968 C 71 22.570, 68.196 18.109, 64.446 16.542 C 59.029 14.279, 36.810 14.454, 32.028 16.798 M 63 36.489 C 63 40.329, 65.209 45.570, 67.093 46.198 C 67.800 46.433, 67.243 48.027, 65.614 50.427 C 63.912 52.935, 63 55.626, 63 58.140 C 63 61.986, 63.015 62, 67.059 62 C 69.291 62, 70.883 61.620, 70.597 61.156 C 69.264 59, 72.218 52.744, 75.079 51.664 C 78.946 50.204, 79.367 44.470, 75.709 43.079 C 72.597 41.896, 71.241 40.064, 70.838 36.500 C 70.537 33.828, 70.090 33.466, 66.750 33.190 C 63.052 32.884, 63 32.929, 63 36.489"/>
</g>
</svg>