<svg width="28" height="28" viewBox="0 0 28 28" fill="none" xmlns="http://www.w3.org/2000/svg">
<path fill-rule="evenodd" clip-rule="evenodd" d="M20.4745 24.7C21.1745 25.4 22.2745 25.4 22.9745 24.7C23.6128 24.0618 23.4917 23 22.7745 22.3L14.9173 15.364L18.125 12.1033C21.1989 13.6403 25.7359 11.3873 24.925 7.6033L22.325 10.1033L19.425 9.40329L18.625 6.6033L21.225 4.1033C17.509 3.30702 14.9104 7.27433 16.525 10.5033C16.525 10.5033 14.9892 11.8633 12.9733 13.6479L8.27453 9.5L8.87453 9H9.07453C9.07453 9 9.37453 8.9 9.97453 8.5C10.6745 8.10001 11.4745 7.30002 11.8745 6.90002L8.87453 4L7.07453 5.80002C6.7365 6.13805 6.73736 6.48848 6.87453 6.89999C6.35988 7.07156 5.89896 7.36047 5.47453 7.70001C4.97453 8.10001 4.67453 8.60002 4.67453 8.80002C4.77453 8.90002 4.57455 9.1 4.47454 9.2C3.53785 10.4489 2.49172 13 3.27453 15.1C3.99172 12.5 4.47453 11.5 7.07453 10.8L11.2719 15.154C7.63999 18.3688 3.4684 22.0599 3.525 22.0033C2.825 22.7033 2.825 23.7033 3.525 24.4033C4.225 25.1033 5.325 25.1033 6.025 24.4033L13.1784 17.1316L20.4745 24.7Z" fill="white"/>
</svg>
