<svg width="120" height="60" viewBox="0 0 120 60" fill="none" xmlns="http://www.w3.org/2000/svg">
<path d="M56.6533 37.0078C57.4097 37.0846 58 37.7233 58 38.5V52.5C58 53.3284 57.3284 54 56.5 54H38.5C37.6741 54 37 53.3319 37 52.501V38.499C37 37.6681 37.6741 37 38.5 37H56.5L56.6533 37.0078ZM48.4658 46.4941C47.9076 46.9638 47.0924 46.9638 46.5342 46.4941L39 40.1494V52H56V40.1494L48.4658 46.4941ZM47.5 44.6924L54.2598 39H40.7402L47.5 44.6924ZM84.2568 8C84.5241 8 84.8162 8.02643 85.0879 8.125C85.372 8.22812 85.7081 8.44116 85.8877 8.84375C86.0598 9.22954 86.0021 9.60047 85.9248 9.84375C85.8469 10.0889 85.7179 10.3089 85.5928 10.4893C85.1157 11.1769 84.1756 12.009 83.2617 12.7637C82.3312 13.532 81.2481 14.361 80.4863 14.9736C80.1837 15.217 79.932 15.4292 79.7373 15.6016C79.9335 15.818 80.209 16.0812 80.5547 16.3828C81.3126 17.0442 82.2685 17.7826 83.1875 18.5234C84.055 19.2228 84.9519 19.972 85.4238 20.5752C85.5475 20.7332 85.6807 20.9277 85.7705 21.1465C85.8558 21.3542 85.9562 21.7168 85.8125 22.1182C85.6559 22.5555 85.3065 22.7791 85.0312 22.8809C84.7714 22.9769 84.4955 23 84.2568 23C80.2189 23 75.6563 23.0135 72.1025 23.0273C70.326 23.0343 68.8018 23.0417 67.7217 23.0469C67.4527 23.0482 67.2109 23.0487 67 23.0498V30C67 30.5523 66.5523 31 66 31C65.4477 31 65 30.5523 65 30V9.5C65 8.68747 65.6499 8 66.4941 8H84.2568ZM47.5 8C53.299 8 58 12.701 58 18.5C58 24.299 53.299 29 47.5 29C41.701 29 37 24.299 37 18.5C37 12.701 41.701 8 47.5 8ZM47.5 10C42.8056 10 39 13.8056 39 18.5C39 23.1944 42.8056 27 47.5 27C52.1944 27 56 23.1944 56 18.5C56 13.8056 52.1944 10 47.5 10ZM67 21.0498C67.2086 21.0488 67.4471 21.0482 67.7119 21.0469C68.7925 21.0417 70.3174 21.0343 72.0947 21.0273C75.2951 21.0148 79.315 21.0033 83.0342 21.001C82.7241 20.7285 82.3523 20.4184 81.9326 20.0801C81.0639 19.3798 80.0361 18.585 79.2393 17.8896C78.8393 17.5406 78.464 17.1888 78.1768 16.8594C78.033 16.6945 77.8938 16.5151 77.7822 16.3281C77.6774 16.1524 77.5549 15.9006 77.5244 15.6016C77.4946 15.3087 77.5924 15.0811 77.6406 14.9824C77.6978 14.8655 77.7665 14.7683 77.8203 14.6992C77.929 14.5597 78.0647 14.4213 78.1963 14.2969C78.4654 14.0424 78.833 13.7381 79.2334 13.416C80.0671 12.7456 81.0547 11.9925 81.9883 11.2217C82.5396 10.7665 83.0117 10.3507 83.3691 10H67V21.0498ZM47 13C47.5523 13 48 13.4477 48 14V18H50C50.5523 18 51 18.4477 51 19C51 19.5523 50.5523 20 50 20H47.5C46.6716 20 46 19.3284 46 18.5V14C46 13.4477 46.4477 13 47 13Z" fill="black" fill-opacity="0.8"/>
<path d="M78.2378 39.8349L75.9641 34.1587C75.7964 33.74 75.2036 33.74 75.0359 34.1587L72.7622 39.8349C72.6862 40.0246 72.5024 40.1489 72.298 40.1489H66.3433C65.8801 40.1489 65.6659 40.7244 66.0164 41.0273L70.9364 45.279C71.0971 45.4177 71.1525 45.6428 71.0748 45.8404L68.4731 52.4514C68.2915 52.9127 68.8199 53.3286 69.2257 53.0437L75.2127 48.84C75.3851 48.719 75.6149 48.719 75.7873 48.84L81.7743 53.0437C82.1801 53.3286 82.7085 52.9127 82.5269 52.4514L79.9252 45.8404C79.8475 45.6428 79.9029 45.4177 80.0636 45.279L84.9836 41.0273C85.3341 40.7244 85.1199 40.1489 84.6567 40.1489H78.702C78.4976 40.1489 78.3138 40.0246 78.2378 39.8349Z" stroke="#446ECA" stroke-width="2"/>
</svg>
