<svg width="120" height="60" viewBox="0 0 120 60" fill="none" xmlns="http://www.w3.org/2000/svg">
<path d="M89.9966 42.1437C89.759 35.2926 82.3696 37.1183 80.3802 32.9147C78.4374 28.8107 81.7777 27.4042 81.7777 22.8242C81.7777 17.3986 77.4376 13 72.0838 13C65.1718 13 65.269 18.8952 60.0004 18.8952C54.7321 18.8952 54.8285 13 47.9162 13C42.5624 13 38.2223 17.3986 38.2223 22.8242C38.2223 27.4042 41.5626 28.8107 39.6201 32.9147C37.6304 37.1183 30.2413 35.2926 30.0034 42.1437C29.8912 45.3759 32.5906 48 35.7824 48C38.974 48 41.5789 45.3778 41.5612 42.1437C41.5468 39.4999 39.7613 38.5584 40.4027 35.4072H40.4038C40.9195 32.7718 43.7035 30.5146 47.2963 30.0606C51.3225 29.5523 55.8717 31.567 55.8717 36.1166C55.8717 38.9337 54.2255 39.3151 54.2255 42.1437C54.2255 45.2521 56.7246 48 59.9957 48C63.2669 48 65.7745 45.2521 65.7745 42.1437C65.7745 39.3151 64.1285 38.9337 64.1285 36.1166C64.1285 31.567 68.6775 29.5523 72.7037 30.0606C76.2968 30.5146 79.081 32.7718 79.5962 35.4072H79.5975C80.2384 38.5584 78.4532 39.4999 78.4388 42.1437C78.4214 45.3778 81.026 48 84.2176 48C87.4094 48 90.1088 45.3759 89.9966 42.1437ZM60.0043 32.408C56.8127 32.408 54.2255 29.7859 54.2255 26.5515C54.2255 23.3173 56.8127 20.6952 60.0043 20.6952C63.1961 20.6952 65.7833 23.3173 65.7833 26.5515C65.7833 29.7859 63.1961 32.408 60.0043 32.408Z" fill="white"/>
</svg>
