<svg width="120" height="60" viewBox="0 0 120 60" fill="none" xmlns="http://www.w3.org/2000/svg">
<path fill-rule="evenodd" clip-rule="evenodd" d="M78.7526 14.9857C80.8191 15.5289 82.4432 17.1238 82.9963 19.1533C83.996 22.8282 84 30.5 84 30.5C84 30.5 84 38.1718 82.9963 41.8467C82.4432 43.8762 80.8191 45.4711 78.7526 46.0143C75.0109 47 59.9999 47 59.9999 47C59.9999 47 44.9891 47 41.2473 46.0143C39.1808 45.4711 37.5568 43.8762 37.0036 41.8467C36 38.1718 36 30.5 36 30.5C36 30.5 36 22.8282 37.0036 19.1533C37.5568 17.1238 39.1808 15.5289 41.2473 14.9857C44.9891 14 59.9999 14 59.9999 14C59.9999 14 75.0109 14 78.7526 14.9857ZM67.6658 30.5005L55.1956 37.5708V23.4302L67.6658 30.5005Z" fill="white"/>
</svg>
