<svg width="28" height="28" viewBox="0 0 28 28" fill="none" xmlns="http://www.w3.org/2000/svg">
<path fill-rule="evenodd" clip-rule="evenodd" d="M26 14C26 20.6274 20.6274 26 14 26C7.37258 26 2 20.6274 2 14C2 7.37258 7.37258 2 14 2C20.6274 2 26 7.37258 26 14ZM14.43 10.8596C13.2628 11.3451 10.9301 12.3499 7.43188 13.874C6.86382 14.0999 6.56624 14.3209 6.53915 14.537C6.49337 14.9022 6.9507 15.046 7.57346 15.2418C7.65817 15.2685 7.74594 15.2961 7.83592 15.3253C8.44862 15.5245 9.27281 15.7575 9.70127 15.7667C10.0899 15.7751 10.5237 15.6149 11.0026 15.286C14.2711 13.0797 15.9584 11.9645 16.0643 11.9405C16.139 11.9235 16.2426 11.9022 16.3128 11.9645C16.3829 12.0269 16.376 12.145 16.3686 12.1767C16.3233 12.3698 14.5281 14.0388 13.5991 14.9025C13.3095 15.1717 13.1041 15.3627 13.0621 15.4063C12.968 15.504 12.8721 15.5965 12.78 15.6853C12.2108 16.234 11.7839 16.6455 12.8036 17.3175C13.2936 17.6404 13.6857 17.9074 14.0769 18.1738C14.5041 18.4648 14.9303 18.755 15.4816 19.1164C15.6221 19.2084 15.7562 19.3041 15.8869 19.3972C16.3841 19.7517 16.8307 20.0701 17.3826 20.0193C17.7032 19.9898 18.0344 19.6883 18.2027 18.7891C18.6002 16.6638 19.3816 12.0591 19.5622 10.1617C19.578 9.99542 19.5581 9.78266 19.5421 9.68926C19.5262 9.59587 19.4928 9.4628 19.3714 9.36429C19.2276 9.24762 19.0056 9.22302 18.9064 9.22469C18.455 9.23272 17.7625 9.47351 14.43 10.8596Z" fill="url(#paint0_linear_8444_61832)"/>
<path d="M7.43189 13.874C10.9301 12.3499 13.2628 11.3451 14.43 10.8596C17.7626 9.4735 18.455 9.23272 18.9064 9.22469C19.0056 9.22302 19.2276 9.24762 19.3714 9.36429C19.4928 9.4628 19.5262 9.59587 19.5422 9.68926C19.5581 9.78266 19.578 9.99542 19.5622 10.1617C19.3816 12.0591 18.6002 16.6638 18.2027 18.7891C18.0345 19.6883 17.7032 19.9898 17.3826 20.0193C16.6857 20.0835 16.1566 19.5588 15.4816 19.1164C14.4255 18.424 13.8288 17.9931 12.8036 17.3175C11.6188 16.5367 12.3869 16.1076 13.0621 15.4063C13.2388 15.2228 16.3092 12.43 16.3686 12.1767C16.376 12.145 16.3829 12.0269 16.3128 11.9645C16.2426 11.9022 16.139 11.9235 16.0643 11.9405C15.9584 11.9645 14.2712 13.0797 11.0026 15.286C10.5237 15.6149 10.0899 15.7751 9.70129 15.7667C9.27283 15.7575 8.44864 15.5245 7.83594 15.3253C7.08444 15.081 6.48716 14.9519 6.53917 14.537C6.56626 14.3209 6.86383 14.0999 7.43189 13.874Z" fill="white"/>
<defs>
<linearGradient id="paint0_linear_8444_61832" x1="14" y1="2" x2="14" y2="25.8219" gradientUnits="userSpaceOnUse">
<stop stop-color="#1FA0E3"/>
<stop offset="1" stop-color="#1793CE"/>
</linearGradient>
</defs>
</svg>
