<svg width="120" height="60" viewBox="0 0 120 60" fill="none" xmlns="http://www.w3.org/2000/svg">
<path fill-rule="evenodd" clip-rule="evenodd" d="M91.2327 25.5972C91.6188 26.2429 91.7451 26.9774 91.7868 27.8032L91.8416 28.9039V36.6007L91.8976 37.7025C92.0097 39.502 93.3788 40.8325 95.2495 40.9457L96.3803 41V28.9039L96.4363 27.8032C96.4828 26.9867 96.6079 26.2382 97 25.588C97.3994 24.921 97.9729 24.3677 98.6628 23.9835C99.3527 23.5993 100.135 23.3978 100.93 23.3992C101.726 23.4006 102.507 23.6049 103.196 23.9915C103.884 24.3781 104.455 24.9335 104.852 25.6018C105.238 26.2475 105.359 26.9959 105.405 27.8032L105.461 28.9005V36.6007L105.517 37.7025C105.634 39.5112 106.992 40.8418 108.869 40.9457L110 41V27.8032C110 25.4697 109.044 23.2317 107.342 21.5813C105.64 19.9309 103.331 19.0032 100.924 19.0023C99.6353 19.001 98.3612 19.2662 97.1869 19.7803C96.0126 20.2944 94.9649 21.0454 94.114 21.9833C93.2626 21.0458 92.2149 20.2949 91.0407 19.7807C89.8665 19.2665 88.5927 19.0007 87.3041 19.0012C85.4191 19.0012 83.6698 19.5555 82.2209 20.513C81.3367 19.5567 79.3587 19.0012 78.2232 19.0012V41L79.3587 40.9457C81.2581 40.8244 82.6308 39.5297 82.7047 37.7025L82.7654 36.6007V28.9039L82.8214 27.8032C82.8691 26.9728 82.9883 26.2429 83.3755 25.5926C83.7753 24.9261 84.3485 24.3728 85.0379 23.9882C85.7273 23.6035 86.5087 23.4009 87.3041 23.4005C88.1002 23.4006 88.8822 23.6037 89.5717 23.9893C90.2613 24.3748 90.8341 24.9294 91.2327 25.5972ZM13.5387 40.9469L14.6743 41H31.6959L31.6399 39.9028C31.4861 38.0941 30.1647 36.7728 28.2927 36.655L27.1572 36.6007H16.9454L30.5603 23.3993L30.5043 22.3032C30.4161 20.4761 29.0387 19.1559 27.1572 19.0554L26.0216 19.0058L9 19.0012L9.056 20.1019C9.20495 21.8932 10.5455 23.2422 12.4019 23.3462L13.5387 23.4005H23.7505L10.1356 36.6018L10.1916 37.7025C10.3036 39.5159 11.6536 40.8291 13.5387 40.9457V40.9469ZM73.7679 22.2212C74.8218 23.2426 75.6579 24.4552 76.2283 25.7898C76.7987 27.1244 77.0923 28.5548 77.0923 29.9994C77.0923 31.444 76.7987 32.8744 76.2283 34.209C75.6579 35.5436 74.8218 36.7562 73.7679 37.7776C71.6385 39.8399 68.7516 40.9983 65.7415 40.9983C62.7313 40.9983 59.8444 39.8399 57.715 37.7776C53.2836 33.4823 53.2836 26.5166 57.715 22.2212C58.768 21.2002 60.0182 20.3902 61.3941 19.8375C62.7701 19.2848 64.2449 19.0002 65.7343 19C67.2262 18.999 68.7036 19.2831 70.082 19.836C71.4605 20.3889 72.713 21.1999 73.7679 22.2224V22.2212ZM70.5566 25.3362C71.833 26.5744 72.55 28.2531 72.55 30.0035C72.55 31.7538 71.833 33.4326 70.5566 34.6707C69.2792 35.908 67.5473 36.6029 65.7415 36.6029C63.9356 36.6029 62.2037 35.908 60.9263 34.6707C59.6499 33.4326 58.9329 31.7538 58.9329 30.0035C58.9329 28.2531 59.6499 26.5744 60.9263 25.3362C62.2037 24.099 63.9356 23.404 65.7415 23.404C67.5473 23.404 69.2792 24.099 70.5566 25.3362ZM41.9172 19C43.4067 19.0004 44.8815 19.2851 46.2575 19.8381C47.6334 20.391 48.8836 21.2012 49.9364 22.2224C54.3691 26.5166 54.3691 33.4834 49.9364 37.7776C47.8071 39.8399 44.9201 40.9983 41.91 40.9983C38.8999 40.9983 36.0129 39.8399 33.8836 37.7776C29.4521 33.4823 29.4521 26.5166 33.8836 22.2212C34.9366 21.2002 36.1867 20.3902 37.5627 19.8375C38.9387 19.2848 40.4134 19.0002 41.9029 19H41.9172ZM46.7252 25.3339C48.0019 26.5721 48.7192 28.2511 48.7192 30.0017C48.7192 31.7524 48.0019 33.4314 46.7252 34.6696C45.4478 35.9068 43.7158 36.6018 41.91 36.6018C40.1042 36.6018 38.3723 35.9068 37.0949 34.6696C35.8185 33.4314 35.1014 31.7527 35.1014 30.0023C35.1014 28.252 35.8185 26.5732 37.0949 25.335C38.3723 24.0978 40.1042 23.4028 41.91 23.4028C43.7158 23.4028 45.4478 24.0978 46.7252 25.335V25.3339Z" fill="white"/>
</svg>
