<svg width="174" height="38" viewBox="0 0 174 38" fill="none" xmlns="http://www.w3.org/2000/svg">
<path fill-rule="evenodd" clip-rule="evenodd" d="M18.4332 37.5342 1.10695 29.711c-1.475934-.683-1.475934-1.7385 0-2.3594l6.03209-2.732L18.369 29.711c1.4759.6829 3.8503.6829 5.262 0l11.23-5.0914 6.0321 2.732c1.4759.683 1.4759 1.7385 0 2.3594l-17.3263 7.8232c-1.3475.6209-3.7219.6209-5.1336 0Z" fill="#FF6F3D"/>
<path fill-rule="evenodd" clip-rule="evenodd" d="M18.377 27.8533 1.10358 20.0209c-1.47144-.6838-1.47144-1.7405 0-2.3621l5.88576-2.673L18.377 20.1452c1.4714.6838 3.8385.6838 5.246 0l11.3877-5.1594 5.8857 2.673c1.4715.6838 1.4715 1.7405 0 2.3621L23.623 27.8533c-1.4714.6838-3.8385.6838-5.246 0Z" fill="#95C038"/>
<path fill-rule="evenodd" clip-rule="evenodd" d="M18.377 18.2729 1.10358 10.5532c-1.47144-.67389-1.47144-1.71543 0-2.3281L18.377.505453c1.4714-.673937 3.8385-.673937 5.246 0L40.8964 8.2251c1.4715.67394 1.4715 1.71548 0 2.3281L23.623 18.2729c-1.4714.6127-3.8385.6127-5.246 0Z" fill="#5DC0E8"/>
<path fill-rule="evenodd" clip-rule="evenodd" d="M51 14.9749c0-2.6583.744-4.6646 2.2817-5.96863C54.7697 7.65204 56.5554 7 58.5891 7c2.0336 0 3.7697.65204 5.2577 2.00627 1.4881 1.35423 2.2321 3.31033 2.2321 6.01883 0 2.6583-.744 4.6646-2.2321 5.9686C62.3588 22.348 60.5731 23 58.5891 23c-2.0337 0-3.7698-.652-5.3074-2.0063C51.744 19.6395 51 17.6332 51 14.9749Zm3.2737 0c0 1.8558.3472 3.1599.992 4.0126.6945.8526 1.4385 1.4044 2.2321 1.605.0341.0086.0666.0172.0983.0255.1526.0404.283.0748.4473.0748.0744 0 .1612.0125.248.0251.0868.0125.1737.025.2481.025.1984 0 .3472 0 .5456-.0501.1643 0 .2947-.0344.4474-.0748.0316-.0083.0642-.0169.0982-.0255.7936-.2006 1.5376-.7524 2.1825-1.605.6448-.8527.992-2.2069.992-3.9624 0-1.8057-.3472-3.1097-.992-3.9624-.6449-.8527-1.3889-1.40439-2.1825-1.60502-.1984-.05016-.3968-.10031-.5456-.10031-.0992 0-.186-.01254-.2728-.02508-.0868-.01254-.1736-.02508-.2728-.02508-.1985 0-.3473 0-.4961.05016-.1488 0-.3472.05015-.5456.10031-.7936.20063-1.5376.75232-2.2321 1.60502-.6448.7523-.992 2.1066-.992 3.9122Zm13.442-7.82443h4.0674l5.357 9.83073.7936 2.1567h.0496l-.0496-2.8087V7.15047h3.1249V22.7994h-4.0673l-5.357-10.232-.7936-1.7555h-.0496l.0496 2.7586v9.2289h-3.125V7.15047Zm16.5671 0h3.1249V20.1411h6.1506v2.6583h-9.2755V7.15047Zm7.3411 0h3.6209l3.1745 5.46713.496 1.1034h.0992l.496-1.1034 3.2245-5.46713h3.323l-5.605 9.27903v6.3699h-3.1249v-6.4201l-5.7042-9.22883Zm16.3191 1.8558c-1.538 1.30403-2.282 3.31033-2.282 5.96863s.794 4.6646 2.282 6.0188C109.48 22.348 111.216 23 113.25 23c1.984 0 3.77-.652 5.258-2.0063 1.488-1.304 2.232-3.3103 2.232-5.9686 0-2.7085-.744-4.6646-2.232-6.01883C117.02 7.65204 115.284 7 113.25 7s-3.819.65204-5.307 2.00627Zm1.984 9.98123c-.645-.8527-.992-2.1568-.992-4.0126 0-1.8056.347-3.1599.992-3.9122.694-.8527 1.438-1.40439 2.232-1.60502.198-.05016.397-.10031.546-.10031.148-.05016.297-.05016.496-.05016.099 0 .186.01254.272.02508.087.01254.174.02508.273.02508.149 0 .347.05015.546.10031.793.20063 1.537.75232 2.182 1.60502.645.8527.992 2.1567.992 3.9624 0 1.7555-.347 3.1097-.992 3.9624-.645.8526-1.389 1.4043-2.182 1.605-.034.0086-.067.0172-.098.0255-.153.0404-.283.0748-.448.0748-.198.0501-.347.0501-.545.0501-.075 0-.162-.0125-.248-.025-.087-.0126-.174-.0251-.248-.0251-.165 0-.295-.0344-.448-.0748-.032-.0083-.064-.0169-.098-.0255-.843-.2007-1.538-.7524-2.232-1.605Zm21.626-11.83703h-8.631V22.7994h3.125v-6.5706h5.258v-2.6583h-5.258V9.75862h5.506V7.15047Zm2.331 0h8.631v2.60815h-5.506v3.81188h5.258v2.6583h-5.258v6.5706h-3.125V7.15047Zm10.466 0V22.7994h3.125V7.15047h-3.125Zm16.894.35097v2.70846c-.545-.2006-1.091-.35109-1.686-.45141-.595-.10031-1.29-.15047-1.984-.15047-1.637 0-2.877.50158-3.77 1.55488-.893 1.0031-1.339 2.3072-1.339 3.8621 0 1.5047.397 2.7586 1.24 3.7617.843 1.0031 2.034 1.5549 3.571 1.5549.472 0 .943-.0375 1.479-.08l.257-.0203c.645-.1004 1.29-.2508 1.984-.5518l.199 2.6583c-.099.0502-.248.1003-.397.1505-.198.0502-.397.1003-.645.1505-.256.0648-.554.1086-.893.1586-.186.0274-.384.0566-.595.0922-.595.0501-1.19.1003-1.835.1003h-.496c-1.786-.1003-3.423-.8025-4.911-2.0063-1.488-1.2539-2.232-3.21-2.232-5.8182 0-2.558.744-4.5642 2.183-5.96863 1.438-1.40439 3.422-2.10658 5.853-2.10658.644 0 1.24 0 1.736.05016.472.0434.907.12438 1.369.21042.072.01337.145.02686.218.04036.05.02508.112.03762.174.05016.062.01253.124.02507.173.05015.063-.03197.127-.02318.203-.01261.043.00602.09.01261.144.01261ZM173 7.15047h-9.276V22.7994H173v-2.4577h-6.101v-4.4138h5.506v-2.4075h-5.506V9.60815H173V7.15047Z" fill="#333"/><path d="M56.8057 30.6133c0 1.1784-.3272 2.0801-.9815 2.7051-.6543.6217-1.5967.9326-2.8271.9326H51v-7.1387h2.207c1.1361 0 2.0199.306 2.6514.918.6315.612.9473 1.473.9473 2.583Zm-1.2305.039c0-1.7089-.7992-2.5634-2.3975-2.5634H52.167v5.1806h.8301c1.7187 0 2.5781-.8724 2.5781-2.6172ZM69.0818 34.251h-4.0381v-7.1387h4.0381v.9863h-2.8711v1.9434h2.6905v.9766h-2.6905v2.2412h2.8711v.9912ZM81.3971 27.1123h1.2109l-2.5 7.1387h-1.2305l-2.4902-7.1387h1.2012l1.4892 4.4385c.0782.2116.1612.485.2491.8203.0878.332.1448.5794.1709.7422.0423-.2474.1074-.5339.1953-.8594s.1595-.5664.2148-.7227l1.4893-4.4189ZM94.2885 34.251h-4.0381v-7.1387h4.0381v.9863h-2.8711v1.9434h2.6904v.9766h-2.6904v2.2412h2.8711v.9912ZM102.536 34.251v-7.1387h1.167V33.25h3.023v1.001h-4.19ZM120.994 30.6719c0 1.1621-.291 2.0654-.874 2.7099-.579.6446-1.401.9668-2.466.9668-1.077 0-1.906-.319-2.485-.957-.576-.6413-.864-1.5511-.864-2.7295s.289-2.0833.869-2.7148c.583-.6315 1.413-.9473 2.49-.9473 1.061 0 1.882.3206 2.461.9619s.869 1.5446.869 2.71Zm-5.449 0c0 .8789.177 1.5462.532 2.0019.355.4525.881.6787 1.577.6787.694 0 1.216-.2246 1.568-.6738.354-.4492.532-1.1182.532-2.0068 0-.8757-.176-1.5397-.527-1.9922-.349-.4525-.87-.6787-1.563-.6787-.7 0-1.229.2262-1.587.6787-.355.4525-.532 1.1165-.532 1.9922ZM133.954 29.2705c0 .7455-.244 1.3167-.733 1.7139-.488.3971-1.183.5957-2.084.5957h-.743v2.6709h-1.167v-7.1387h2.056c.892 0 1.559.1823 2.002.5469.446.3646.669.9017.669 1.6113Zm-3.56 1.3281h.62c.599 0 1.039-.1041 1.319-.3125.28-.2083.42-.5338.42-.9765 0-.4102-.126-.7162-.376-.918-.251-.2018-.642-.3027-1.172-.3027h-.811v2.5097ZM146.118 34.251h-4.038v-7.1387h4.038v.9863h-2.871v1.9434h2.69v.9766h-2.69v2.2412h2.871v.9912ZM155.533 30.4326h.81c.544 0 .938-.1009 1.182-.3027.244-.2018.366-.5013.366-.8985 0-.4036-.132-.6933-.395-.8691-.264-.1758-.661-.2637-1.192-.2637h-.771v2.334Zm0 .9668v2.8516h-1.167v-7.1387h2.016c.921 0 1.603.1725 2.046.5176.443.345.664.8659.664 1.5625 0 .8887-.462 1.5218-1.387 1.8994l2.017 3.1592h-1.328l-1.709-2.8516h-1.152ZM171.578 32.3125c0 .6348-.229 1.1328-.688 1.4941-.459.3614-1.092.542-1.9.542-.807 0-1.468-.1253-1.982-.3759v-1.1036c.326.153.671.2735 1.035.3614.368.0879.71.1318 1.026.1318.462 0 .802-.0879 1.02-.2637.221-.1757.332-.4118.332-.708 0-.2669-.101-.4931-.303-.6787-.201-.1855-.618-.4053-1.25-.6592-.651-.2636-1.11-.5647-1.377-.9033-.267-.3385-.4-.7454-.4-1.2207 0-.5957.212-1.0644.635-1.4062.423-.3418.991-.5127 1.704-.5127.683 0 1.364.1497 2.041.4492l-.371.9521c-.635-.2669-1.201-.4004-1.699-.4004-.378 0-.664.0831-.86.2491-.195.1627-.293.3792-.293.6494 0 .1855.039.345.117.4785.079.1302.207.2539.386.3711.179.1172.501.2718.967.4639.524.2181.908.4215 1.152.6103.244.1888.423.402.537.6397.114.2376.171.5175.171.8398Z" fill="#AAA"/>
</svg>