<svg width="120" height="60" viewBox="0 0 120 60" fill="none" xmlns="http://www.w3.org/2000/svg">
<path fill-rule="evenodd" clip-rule="evenodd" d="M44.8728 14.0599C43.589 14.0599 42.5482 15.103 42.5482 16.3897V43.1556C42.5482 44.4423 43.589 45.4854 44.8728 45.4854H74.1263C75.4101 45.4854 76.4508 44.4423 76.4508 43.1556V30.2834C76.4508 29.5114 77.0753 28.8856 77.8455 28.8856C78.6158 28.8856 79.2403 29.5114 79.2403 30.2834V43.1556C79.2403 45.9864 76.9506 48.2812 74.1263 48.2812H44.8728C42.0484 48.2812 39.7588 45.9864 39.7588 43.1556V16.3897C39.7588 13.559 42.0484 11.2642 44.8728 11.2642H59.4995C60.2698 11.2642 60.8943 11.89 60.8943 12.662C60.8943 13.4341 60.2698 14.0599 59.4995 14.0599H44.8728Z" fill="white"/>
<path fill-rule="evenodd" clip-rule="evenodd" d="M78.3294 11.4107L75.043 5L71.7566 11.4107L65.3604 14.7045L71.7566 17.9984L75.043 24.4091L78.3294 17.9984L84.7256 14.7045L78.3294 11.4107ZM79.6391 14.7045L76.603 13.141L75.043 10.098L73.483 13.141L70.4468 14.7045L73.483 16.2681L75.043 19.3111L76.603 16.2681L79.6391 14.7045Z" fill="white"/>
<path d="M78.8652 34.1138H84.7229C85.4281 34.1138 85.9998 34.6855 85.9998 35.3907V35.3907C85.9998 36.0959 85.4281 36.6676 84.7229 36.6676H78.8652V34.1138Z" fill="white"/>
<path d="M40.1343 34.1138H34.2766C33.5714 34.1138 32.9997 34.6855 32.9997 35.3907V35.3907C32.9997 36.0959 33.5714 36.6676 34.2766 36.6676H40.1343V34.1138Z" fill="white"/>
<path d="M40.1343 21.3447H34.2766C33.5714 21.3447 32.9997 21.9164 32.9997 22.6216V22.6216C32.9997 23.3269 33.5714 23.8986 34.2766 23.8986H40.1343V21.3447Z" fill="white"/>
<path d="M52.3657 11.6396L52.3657 6.27373C52.3657 5.5701 52.9361 4.9997 53.6398 4.9997V4.9997C54.3434 4.9997 54.9138 5.5701 54.9138 6.27373L54.9138 11.6396L52.3657 11.6396Z" fill="white"/>
<path d="M64.0859 47.9043L64.0859 53.781C64.0859 54.4846 64.6563 55.055 65.36 55.055V55.055C66.0636 55.055 66.634 54.4846 66.634 53.781L66.634 47.9043L64.0859 47.9043Z" fill="white"/>
<path d="M51.3462 47.9043L51.3462 53.781C51.3462 54.4846 51.9166 55.055 52.6202 55.055V55.055C53.3238 55.055 53.8942 54.4846 53.8942 53.781L53.8942 47.9043L51.3462 47.9043Z" fill="white"/>
<path d="M66.0202 38.0978V22.3662H67.9101V38.0978H66.0202ZM63.9302 38.0978V36.2549L65.2642 36.4797H68.666L70.0001 36.2549V38.0978H63.9302ZM63.9302 24.2091V22.3662H70.0001V24.2091L68.666 23.9843H65.2642L63.9302 24.2091Z" fill="white"/>
<path d="M48 38.0978L53.892 22.3662H56.0265L61.9185 38.0978H59.784L59.2504 36.2999L55.2483 25.1979L55.0482 23.7596H54.8703L54.6702 25.1979L50.6681 36.2999L50.1345 38.0978H48ZM50.7126 33.5581V31.8052H59.1615V33.5581H50.7126Z" fill="white"/>
</svg>
