<svg width="120" height="60" viewBox="0 0 120 60" fill="none" xmlns="http://www.w3.org/2000/svg">
<path fill-rule="evenodd" clip-rule="evenodd" d="M29.1691 28.2185C29.1691 29.4038 30.1266 30.3641 31.3085 30.3641C32.4895 30.3641 33.4474 29.4038 33.4474 28.2185C33.4474 27.0336 32.4895 26.0729 31.3085 26.0729C30.7714 26.0729 30.2804 26.272 29.9048 26.6005L24.8073 23.6569C24.8318 23.5272 24.8457 23.3937 24.8457 23.2572C24.8457 22.0723 23.8878 21.1116 22.706 21.1116C21.5241 21.1116 20.5663 22.0723 20.5663 23.2572C20.5663 24.4421 21.5241 25.4029 22.706 25.4029C23.2312 25.4029 23.7125 25.2126 24.0847 24.8973L29.2008 27.8519C29.1797 27.971 29.1691 28.0935 29.1691 28.2185ZM22.6802 35.3592C23.8621 35.3592 24.8195 34.3985 24.8195 33.2136C24.8195 33.0822 24.8073 32.9538 24.7853 32.8288L28.5218 30.6747C28.207 30.3153 27.9594 29.895 27.8001 29.4335L24.0704 31.5833C23.6964 31.2621 23.2113 31.0676 22.6802 31.0676C21.4992 31.0676 20.5413 32.0283 20.5413 33.2136C20.5413 34.3985 21.4992 35.3592 22.6802 35.3592ZM27.5246 14.2972L37.6833 20.1191C38.3843 20.5209 38.817 21.2693 38.817 22.0787V33.9209C38.817 34.7278 38.3877 35.4732 37.6905 35.8762L32.6158 38.8092L32.6128 46L15.1252 35.8762C14.4289 35.4732 14 34.7278 14 33.9217V22.0787C14 21.2693 14.4327 20.5209 15.1341 20.1191L25.2919 14.2972C25.9836 13.9009 26.8329 13.9009 27.5246 14.2972ZM45.9077 22.0006C45.9077 21.5098 46.3045 21.1119 46.7938 21.1119H49.7807C51.7159 21.1119 53.2451 21.112 54.2735 21.6375C55.3933 22.2105 56.1975 22.9813 56.8063 24.0654C57.4773 25.2575 57.803 26.5919 57.803 28.143C57.803 29.2546 57.6205 30.2572 57.2461 31.2077C56.884 32.1261 56.366 32.9079 55.7072 33.5317C54.9293 34.2696 54.255 34.7095 53.5853 34.9176C52.6549 35.2083 51.206 35.3748 49.6088 35.3748H46.7938C46.3045 35.3748 45.9077 34.9768 45.9077 34.4865V22.0006ZM99.5311 21.4699C99.5311 21.272 99.6913 21.1119 99.8882 21.1119H101.875C102.071 21.1119 102.232 21.272 102.232 21.4699V33.0646H106.642C106.838 33.0646 107 33.2248 107 33.4235V35.0167C107 35.2146 106.838 35.3752 106.642 35.3752H99.8882C99.6913 35.3752 99.5311 35.2146 99.5311 35.0167V21.4699ZM49.9699 23.4225H48.6091V33.0646H50.3178C51.5343 33.0646 52.4073 32.7024 53.1007 32.3485C53.6048 32.0904 54.0966 31.5272 54.5229 30.7199C54.8766 30.0465 55.0722 29.1091 55.0722 28.0814C55.0722 26.5524 54.6437 25.385 53.7606 24.5124C53.0178 23.7788 51.7784 23.4225 49.9699 23.4225ZM61.282 25.7499C62.3463 24.6561 63.6447 24.1244 65.2495 24.1244C66.9562 24.1244 68.3036 24.6561 69.371 25.7499C70.38 26.7844 70.9585 28.4356 70.9585 30.2825L70.9569 30.6362C70.9556 30.8337 70.7955 30.9926 70.599 30.9926H62.2766C62.4156 31.6236 62.7182 32.0974 63.2633 32.5513C63.7754 32.9772 64.4671 33.1845 65.3781 33.1845C66.29 33.1845 67.1143 32.8704 67.8276 32.2521C67.934 32.1602 68.0849 32.1394 68.2108 32.1979L69.8087 32.9348C69.9093 32.9818 69.9832 33.0729 70.0069 33.1814C70.0318 33.2903 70.0052 33.4044 69.9342 33.49C69.4424 34.0837 68.8632 34.546 68.2108 34.8647C67.4367 35.2436 66.4901 35.436 65.3983 35.436C63.6993 35.436 62.3544 34.9143 61.287 33.84C60.218 32.7657 59.6995 31.4571 59.6995 29.84C59.6995 28.183 60.2167 26.845 61.282 25.7499ZM74.4376 25.7499C75.502 24.6561 76.7992 24.1244 78.4052 24.1244C80.1106 24.1244 81.458 24.6561 82.5266 25.7499C83.5357 26.7835 84.1142 28.4352 84.1142 30.2825L84.1113 30.6362C84.1104 30.8337 83.9514 30.9926 83.7545 30.9926H75.4323C75.5713 31.6232 75.8725 32.0975 76.4175 32.5518C76.9309 32.9773 77.6227 33.1845 78.5336 33.1845C79.4446 33.1845 80.2686 32.8704 80.9831 32.2521C81.0891 32.1602 81.2396 32.1394 81.3663 32.1979L82.9644 32.9348C83.0654 32.9818 83.1389 33.0731 83.1626 33.182C83.1883 33.2905 83.1605 33.4044 83.0899 33.4904C82.5981 34.0837 82.0183 34.546 81.3663 34.8647C80.5922 35.2436 79.6458 35.436 78.554 35.436C76.855 35.436 75.5101 34.9143 74.4427 33.84C73.3741 32.7648 72.8552 31.4567 72.8552 29.84C72.8552 28.183 73.3728 26.845 74.4376 25.7499ZM90.6282 24.4896C91.1749 24.2536 91.8321 24.1244 92.4811 24.1244C93.8873 24.1244 95.0936 24.6591 96.0663 25.7148C97.0504 26.7785 97.5472 28.1532 97.5472 29.8001C97.5472 31.4219 97.0516 32.7372 96.0342 33.8209C95.0142 34.9074 93.8399 35.4364 92.443 35.4364C91.8282 35.4364 91.2486 35.3244 90.7208 35.1057C90.2243 34.8998 89.5216 34.5481 88.9778 34.0378L88.7251 33.8451V39.0008C88.7251 39.1992 88.5646 39.3597 88.3673 39.3597H86.3809C86.1836 39.3597 86.0238 39.1995 86.0238 39.0016V25.0546C86.0238 24.8575 86.1831 24.6977 86.3796 24.6977H87.5808L88.7251 25.7754L88.9791 25.5719C89.4054 25.1477 89.991 24.7634 90.6282 24.4896ZM67.242 26.9743C66.6614 26.5569 66.0359 26.3451 65.3843 26.3451C64.6237 26.3451 63.9466 26.5624 63.3719 26.99C63.0542 27.2252 62.7241 27.7248 62.3633 28.5177L62.3008 28.6813H68.354L68.3122 28.5062C68.1241 27.8769 67.7524 27.3409 67.242 26.9743ZM80.3967 26.9743C79.817 26.5565 79.1911 26.3451 78.5391 26.3451C77.7785 26.3451 77.1021 26.5624 76.5258 26.99C76.2072 27.2269 75.8776 27.7266 75.5197 28.5174L75.4568 28.6813H81.5096L81.467 28.5068C81.2798 27.8771 80.9076 27.3409 80.3967 26.9743ZM94.0917 27.4578C93.5314 26.8577 92.814 26.5542 91.958 26.5542C91.0968 26.5542 90.373 26.853 89.8055 27.4425C89.2385 28.0316 88.9504 28.811 88.9504 29.7611C88.9504 30.7294 89.2384 31.5244 89.8046 32.1241C90.3729 32.7225 91.0968 33.0268 91.958 33.0268C92.7938 33.0268 93.5075 32.7174 94.0779 32.1084C94.6479 31.4999 94.9372 30.7136 94.9372 29.7707C94.9372 28.8346 94.652 28.0562 94.0917 27.4578Z" fill="white"/>
</svg>
