<svg width="120" height="60" viewBox="0 0 120 60" fill="none" xmlns="http://www.w3.org/2000/svg">
<rect x="35" y="5" width="50" height="50" rx="8" fill="white"/>
<path d="M69.041 43.2603C68.4594 43.2603 67.8837 43.0222 67.4648 42.5551L57.5196 31.4044C56.9651 30.7836 56.8295 29.8975 57.17 29.1381C57.5106 28.3786 58.264 27.8904 59.0958 27.8904H63.6163C65.6114 27.8904 67.2328 26.269 67.2328 24.274C67.2328 22.2789 65.6114 20.6575 63.6163 20.6575H52.767V41.1507C52.767 42.317 51.8237 43.2603 50.6574 43.2603C49.4911 43.2603 48.5479 42.317 48.5479 41.1507V18.5479C48.5479 17.3816 49.4911 16.4384 50.6574 16.4384H63.6163C67.938 16.4384 71.452 19.9523 71.452 24.274C71.452 28.5956 68.0374 32.0101 63.8032 32.1066L70.6172 39.7463C71.3917 40.6173 71.3163 41.9493 70.4484 42.7238C70.0476 43.0825 69.5443 43.2603 69.044 43.2603H69.041Z" fill="#584394"/>
<path d="M42.2192 14.597C42.2192 13.286 43.286 12.2192 44.597 12.2192H54.5784C55.594 10.7214 56.7332 9.30795 57.9808 8H44.597C40.9595 8 38 10.9595 38 14.597V35.6899C39.3321 34.391 40.7425 33.1734 42.2192 32.0433V14.597Z" fill="#44AC38"/>
<path d="M75.4032 12.2192C76.7141 12.2192 77.781 13.286 77.781 14.597V20.8534C79.1914 21.1247 80.5988 21.429 82.0002 21.7605V14.597C82.0002 10.9595 79.0407 8 75.4032 8H57.984C56.7333 9.30795 55.5972 10.7214 54.5815 12.2192H75.4032Z" fill="#1D85C7"/>
<path d="M44.597 47.7808C43.286 47.7808 42.2192 46.714 42.2192 45.403V37.5222C40.7093 38.8784 39.2959 40.34 38 41.8951V45.403C38 49.0406 40.9595 52 44.597 52H63.9329C63.294 50.6017 62.6792 49.1943 62.0795 47.7808H44.597Z" fill="#E84A1C"/>
<path d="M77.7809 45.403C77.7809 46.714 76.714 47.7808 75.4031 47.7808H62.0825C62.6822 49.1942 63.297 50.6016 63.9359 52H75.4061C79.0436 52 82.0031 49.0405 82.0031 45.403V26.0972C80.6047 25.7507 79.1973 25.4342 77.7839 25.1509V45.403H77.7809Z" fill="#CE0372"/>
</svg>
