<svg width="800" height="800" viewBox="0 0 800 800" fill="none" xmlns="http://www.w3.org/2000/svg">
<g clip-path="url(#clip0_1_2)">
<path d="M161.764 338.286L161.816 338.727H162.26H770.963V774.472C770.963 788.295 759.748 799.499 745.939 799.499H74.6929C60.8775 799.499 49.6629 788.298 49.6629 774.472V413.983V413.69L49.4075 413.547C26.2138 400.538 10.5 375.724 10.5 347.298C10.5 325.348 19.8719 305.557 34.8149 291.682L35.051 291.463L34.9489 291.158L19.8829 246.04C15.504 232.929 22.594 218.749 35.697 214.375L672.393 1.79352C685.496 -2.57979 699.679 4.49619 704.058 17.6076L734.623 109.161L149.781 304.431L149.159 304.639L149.524 305.184C156.015 314.88 160.32 326.149 161.764 338.286ZM535.165 76.5844L534.904 76.6715L534.838 76.9386L516.191 152.312L515.972 153.194L516.834 152.906L594.327 127.033L594.588 126.946L594.654 126.679L613.301 51.3056L613.519 50.4235L612.657 50.7113L535.165 76.5844ZM343.707 140.507L343.446 140.595L343.38 140.862L324.738 216.235L324.52 217.117L325.382 216.829L402.875 190.953L403.136 190.866L403.202 190.599L421.849 115.229L422.067 114.347L421.205 114.634L343.707 140.507ZM152.258 204.431L151.997 204.518L151.931 204.785L133.284 280.161L133.065 281.043L133.927 280.755L211.426 254.879L211.687 254.792L211.753 254.525L230.4 179.152L230.618 178.27L229.756 178.557L152.258 204.431ZM228.545 424.921H228.82L228.967 424.689L270.523 359.102L271.01 358.335H270.101H188.402H188.126L187.979 358.567L146.423 424.154L145.937 424.921H146.845H228.545ZM390.243 358.335H389.968L389.82 358.567L348.264 424.154L347.778 424.921H348.686H430.386H430.661L430.808 424.689L472.365 359.102L472.851 358.335H471.942H390.243ZM369.688 675.8V676.704L370.454 676.224L508.234 589.72L508.908 589.297L508.234 588.873L370.454 502.37L369.688 501.889V502.793V675.8ZM632.227 424.921H632.502L632.649 424.689L674.206 359.102L674.692 358.335H673.783H592.084H591.809L591.661 358.567L550.105 424.154L549.619 424.921H550.528H632.227ZM80.73 445.502H80.23V446.002V767.002V767.502H80.73H738.73H739.23V767.002V446.002V445.502H738.73H80.73ZM46.9848 347.301C46.9848 369.041 64.6707 386.727 86.4055 386.727C108.146 386.727 125.832 369.041 125.832 347.301C125.832 325.56 108.146 307.874 86.4055 307.874C64.6707 307.874 46.9848 325.56 46.9848 347.301ZM507.028 589.297L370.688 674.896V503.698L507.028 589.297ZM81.23 766.502V446.502H738.23V766.502H81.23Z" fill="black" stroke="black"/>
<path d="M425.706 471.4H465.306L395.406 770.5H355.506L425.706 471.4Z" fill="white"/>
<mask id="path-3-outside-1_1_2" maskUnits="userSpaceOnUse" x="191" y="564" width="436" height="123" fill="black">
<rect fill="white" x="191" y="564" width="436" height="123"/>
<path d="M237.1 627.6L306.7 654.9C306.7 665.3 305.2 675.3 302.2 684.9L192.1 637.5V618.3L301.9 565.5C305.1 574.9 306.7 584.9 306.7 595.5L237.1 627.6ZM510.663 654.9L579.963 627.6L510.663 595.5C510.663 587.5 512.663 577.7 516.663 566.1L625.263 618.3V637.5L515.163 684.9C512.163 675.3 510.663 665.3 510.663 654.9Z"/>
</mask>
<path d="M237.1 627.6L306.7 654.9C306.7 665.3 305.2 675.3 302.2 684.9L192.1 637.5V618.3L301.9 565.5C305.1 574.9 306.7 584.9 306.7 595.5L237.1 627.6ZM510.663 654.9L579.963 627.6L510.663 595.5C510.663 587.5 512.663 577.7 516.663 566.1L625.263 618.3V637.5L515.163 684.9C512.163 675.3 510.663 665.3 510.663 654.9Z" fill="white"/>
<path d="M237.1 627.6L236.681 626.692L234.551 627.674L236.735 628.531L237.1 627.6ZM306.7 654.9H307.7V654.218L307.065 653.969L306.7 654.9ZM302.2 684.9L301.805 685.818L302.824 686.257L303.154 685.198L302.2 684.9ZM192.1 637.5H191.1V638.158L191.705 638.418L192.1 637.5ZM192.1 618.3L191.667 617.399L191.1 617.671V618.3H192.1ZM301.9 565.5L302.847 565.178L302.483 564.11L301.467 564.599L301.9 565.5ZM306.7 595.5L307.119 596.408L307.7 596.14V595.5H306.7ZM236.735 628.531L306.335 655.831L307.065 653.969L237.465 626.669L236.735 628.531ZM305.7 654.9C305.7 665.202 304.214 675.102 301.246 684.602L303.154 685.198C306.186 675.498 307.7 665.398 307.7 654.9H305.7ZM302.595 683.982L192.495 636.582L191.705 638.418L301.805 685.818L302.595 683.982ZM193.1 637.5V618.3H191.1V637.5H193.1ZM192.533 619.201L302.333 566.401L301.467 564.599L191.667 617.399L192.533 619.201ZM300.953 565.822C304.116 575.112 305.7 585.002 305.7 595.5H307.7C307.7 584.798 306.084 574.688 302.847 565.178L300.953 565.822ZM306.281 594.592L236.681 626.692L237.519 628.508L307.119 596.408L306.281 594.592ZM510.663 654.9L510.296 653.97L509.663 654.219V654.9H510.663ZM579.963 627.6L580.329 628.53L582.502 627.674L580.383 626.693L579.963 627.6ZM510.663 595.5H509.663V596.139L510.242 596.407L510.663 595.5ZM516.663 566.1L517.096 565.199L516.083 564.712L515.717 565.774L516.663 566.1ZM625.263 618.3H626.263V617.671L625.696 617.399L625.263 618.3ZM625.263 637.5L625.658 638.418L626.263 638.158V637.5H625.263ZM515.163 684.9L514.208 685.198L514.539 686.257L515.558 685.818L515.163 684.9ZM511.029 655.83L580.329 628.53L579.596 626.67L510.296 653.97L511.029 655.83ZM580.383 626.693L511.083 594.593L510.242 596.407L579.542 628.507L580.383 626.693ZM511.663 595.5C511.663 587.654 513.627 577.971 517.608 566.426L515.717 565.774C511.698 577.429 509.663 587.346 509.663 595.5H511.663ZM516.229 567.001L624.829 619.201L625.696 617.399L517.096 565.199L516.229 567.001ZM624.263 618.3V637.5H626.263V618.3H624.263ZM624.867 636.582L514.767 683.982L515.558 685.818L625.658 638.418L624.867 636.582ZM516.117 684.602C513.148 675.102 511.663 665.202 511.663 654.9H509.663C509.663 665.398 511.177 675.498 514.208 685.198L516.117 684.602Z" fill="white" mask="url(#path-3-outside-1_1_2)"/>
</g>
<defs>
<clipPath id="clip0_1_2">
<rect width="800" height="800" fill="white"/>
</clipPath>
</defs>
</svg>
