<?xml version="1.0" encoding="UTF-8"?>
<svg xmlns="http://www.w3.org/2000/svg" xmlns:xlink="http://www.w3.org/1999/xlink" width="504px" height="504px" viewBox="0 0 504 504" version="1.1">
<defs>
<clipPath id="clip1">
  <path d="M 110 127 L 255 127 L 255 286.757812 L 110 286.757812 Z M 110 127 "/>
</clipPath>
</defs>
<g id="surface1">
<path style=" stroke:none;fill-rule:nonzero;fill:rgb(97.647059%,95.686275%,95.686275%);fill-opacity:0.8;" d="M 314.320312 60.828125 C 318.929688 60.828125 323.351562 62.660156 326.609375 65.917969 L 403.320312 142.632812 C 406.582031 145.890625 408.414062 150.3125 408.414062 154.921875 L 408.414062 425.792969 C 408.414062 435.390625 400.632812 443.171875 391.035156 443.171875 L 147.722656 443.171875 C 138.125 443.171875 130.34375 435.390625 130.34375 425.792969 L 130.34375 373.65625 L 147.722656 373.65625 L 147.722656 425.792969 L 391.035156 425.792969 L 391.035156 165.101562 L 321.515625 165.101562 C 311.917969 165.101562 304.136719 157.324219 304.136719 147.722656 L 304.136719 78.207031 L 147.722656 78.207031 L 147.722656 112.964844 L 130.34375 112.964844 L 130.34375 78.207031 C 130.34375 68.609375 138.125 60.828125 147.722656 60.828125 Z M 321.515625 147.722656 L 383.835938 147.722656 L 321.515625 85.402344 Z M 321.515625 147.722656 "/>
<path style=" stroke:none;fill-rule:nonzero;fill:rgb(97.647059%,95.686275%,95.686275%);fill-opacity:0.8;" d="M 350.066406 396.007812 L 188.695312 396.007812 L 188.695312 389.796875 L 350.066406 389.796875 Z M 350.066406 377.371094 L 188.695312 377.371094 L 188.695312 371.175781 L 350.066406 371.175781 Z M 350.066406 358.753906 L 188.695312 358.753906 L 188.695312 352.558594 L 350.066406 352.558594 Z M 350.066406 340.136719 L 188.695312 340.136719 L 188.695312 333.925781 L 350.066406 333.925781 Z M 350.066406 321.515625 L 188.695312 321.515625 L 188.695312 315.304688 L 350.066406 315.304688 Z M 350.066406 302.898438 L 280.546875 302.898438 L 280.546875 296.6875 L 350.066406 296.6875 Z M 350.066406 284.28125 L 280.546875 284.28125 L 280.546875 278.070312 L 350.066406 278.070312 Z M 350.066406 265.660156 L 280.546875 265.660156 L 280.546875 259.449219 L 350.066406 259.449219 Z M 350.066406 247.027344 L 280.546875 247.027344 L 280.546875 240.832031 L 350.066406 240.832031 Z M 350.066406 247.027344 "/>
<g clip-path="url(#clip1)" clip-rule="nonzero">
<path style=" stroke:none;fill-rule:nonzero;fill:rgb(97.647059%,95.686275%,95.686275%);fill-opacity:0.8;" d="M 110.070312 286.757812 L 110.070312 257.792969 L 254.898438 257.792969 L 254.898438 286.757812 Z M 139.039062 228.828125 L 149.175781 228.828125 L 205.65625 172.527344 L 200.40625 167.277344 L 195.339844 162.207031 L 139.039062 218.691406 Z M 124.554688 243.308594 L 124.554688 212.535156 L 205.65625 131.613281 C 206.984375 130.285156 208.523438 129.257812 210.273438 128.535156 C 212.023438 127.8125 213.863281 127.449219 215.796875 127.449219 C 217.726562 127.449219 219.597656 127.8125 221.40625 128.535156 C 223.21875 129.257812 224.847656 130.34375 226.296875 131.792969 L 236.253906 141.933594 C 237.699219 143.257812 238.757812 144.828125 239.421875 146.636719 C 240.085938 148.449219 240.417969 150.320312 240.417969 152.25 C 240.417969 154.0625 240.085938 155.839844 239.421875 157.589844 C 238.757812 159.339844 237.699219 160.941406 236.253906 162.386719 L 155.332031 243.308594 Z M 205.65625 172.527344 L 200.40625 167.277344 L 195.339844 162.207031 Z M 205.65625 172.527344 "/>
</g>
</g>
</svg>
