<svg id="SvgjsSvg1001" width="288" height="288" xmlns="http://www.w3.org/2000/svg" version="1.1" xmlns:xlink="http://www.w3.org/1999/xlink" xmlns:svgjs="http://svgjs.com/svgjs"><defs id="SvgjsDefs1002"></defs><g id="SvgjsG1008"><svg xmlns="http://www.w3.org/2000/svg" viewBox="0 0 29 28" width="288" height="288"><path fill="#f9f4f4" fill-opacity=".8" d="M18.0859 3C18.3511 3.00004 18.6055 3.10547 18.793 3.29297L23.207 7.70703C23.3945 7.89453 23.5 8.1489 23.5 8.41406V24C23.5 24.5523 23.0523 25 22.5 25H8.5C7.94772 25 7.5 24.5523 7.5 24V21H8.5V24H22.5V9H18.5C17.9477 9 17.5 8.55228 17.5 8V4H8.5V6H7.5V4C7.5 3.44772 7.94772 3 8.5 3H18.0859ZM18.5 8H22.0859L18.5 4.41406V8Z" class="svgShape color000000-0 selectable"></path><path fill="#f9f4f4" fill-opacity=".8" d="M20.1426 22.2861H10.8574V21.9287H20.1426V22.2861ZM20.1426 21.2139H10.8574V20.8574H20.1426V21.2139ZM20.1426 20.1426H10.8574V19.7861H20.1426V20.1426ZM20.1426 19.0713H10.8574V18.7139H20.1426V19.0713ZM20.1426 18H10.8574V17.6426H20.1426V18ZM20.1426 16.9287H16.1426V16.5713H20.1426V16.9287ZM20.1426 15.8574H16.1426V15.5H20.1426V15.8574ZM20.1426 14.7861H16.1426V14.4287H20.1426V14.7861ZM20.1426 13.7139H16.1426V13.3574H20.1426V13.7139Z" class="svgShape color000000-1 selectable"></path><g clip-path="url(#a)"><path fill="#f9f4f4" fill-opacity=".8" d="M6.3335 16V14.3334H14.6668V16H6.3335ZM8.00016 12.6667H8.5835L11.8335 9.42712L11.5314 9.12504L11.2397 8.83337L8.00016 12.0834V12.6667ZM7.16683 13.5V11.7292L11.8335 7.07296C11.9099 6.99657 11.9984 6.93754 12.0991 6.89587C12.1998 6.85421 12.3057 6.83337 12.4168 6.83337C12.5279 6.83337 12.6356 6.85421 12.7397 6.89587C12.8439 6.93754 12.9377 7.00004 13.021 7.08337L13.5939 7.66671C13.6772 7.7431 13.738 7.83337 13.7762 7.93754C13.8144 8.04171 13.8335 8.14935 13.8335 8.26046C13.8335 8.36462 13.8144 8.46705 13.7762 8.56775C13.738 8.66844 13.6772 8.76046 13.5939 8.84379L8.93766 13.5H7.16683ZM11.8335 9.42712L11.5314 9.12504L11.2397 8.83337L11.8335 9.42712Z" class="svgShape color000000-3 selectable"></path></g><defs><clipPath id="a"><rect width="10" height="10" fill="#fff" transform="translate(5.5 6)" class="svgShape colorffffff-6 selectable"></rect></clipPath></defs></svg></g></svg>