<?xml version="1.0" encoding="UTF-8"?>
<svg xmlns="http://www.w3.org/2000/svg" xmlns:xlink="http://www.w3.org/1999/xlink" width="576px" height="576px" viewBox="0 0 576 576" version="1.1">
<defs>
<clipPath id="clip1">
  <path d="M 125 145 L 292 145 L 292 327.722656 L 125 327.722656 Z M 125 145 "/>
</clipPath>
</defs>
<g id="surface1">
<path style=" stroke:none;fill-rule:nonzero;fill:rgb(97.647059%,95.686275%,95.686275%);fill-opacity:0.8;" d="M 359.222656 69.515625 C 364.492188 69.519531 369.542969 71.613281 373.269531 75.335938 L 460.9375 163.007812 C 464.664062 166.734375 466.757812 171.785156 466.757812 177.050781 L 466.757812 486.621094 C 466.757812 497.589844 457.867188 506.484375 446.898438 506.484375 L 168.828125 506.484375 C 157.859375 506.484375 148.964844 497.589844 148.964844 486.621094 L 148.964844 427.035156 L 168.828125 427.035156 L 168.828125 486.621094 L 446.898438 486.621094 L 446.898438 188.691406 L 367.449219 188.691406 C 356.476562 188.691406 347.585938 179.796875 347.585938 168.828125 L 347.585938 89.378906 L 168.828125 89.378906 L 168.828125 129.101562 L 148.964844 129.101562 L 148.964844 89.378906 C 148.964844 78.410156 157.859375 69.515625 168.828125 69.515625 Z M 367.449219 168.828125 L 438.671875 168.828125 L 367.449219 97.601562 Z M 367.449219 168.828125 "/>
<path style=" stroke:none;fill-rule:nonzero;fill:rgb(97.647059%,95.686275%,95.686275%);fill-opacity:0.8;" d="M 400.074219 452.578125 L 215.652344 452.578125 L 215.652344 445.480469 L 400.074219 445.480469 Z M 400.074219 431.28125 L 215.652344 431.28125 L 215.652344 424.203125 L 400.074219 424.203125 Z M 400.074219 410.003906 L 215.652344 410.003906 L 215.652344 402.925781 L 400.074219 402.925781 Z M 400.074219 388.726562 L 215.652344 388.726562 L 215.652344 381.628906 L 400.074219 381.628906 Z M 400.074219 367.449219 L 215.652344 367.449219 L 215.652344 360.347656 L 400.074219 360.347656 Z M 400.074219 346.171875 L 320.625 346.171875 L 320.625 339.070312 L 400.074219 339.070312 Z M 400.074219 324.890625 L 320.625 324.890625 L 320.625 317.792969 L 400.074219 317.792969 Z M 400.074219 303.613281 L 320.625 303.613281 L 320.625 296.515625 L 400.074219 296.515625 Z M 400.074219 282.316406 L 320.625 282.316406 L 320.625 275.238281 L 400.074219 275.238281 Z M 400.074219 282.316406 "/>
<g clip-path="url(#clip1)" clip-rule="nonzero">
<path style=" stroke:none;fill-rule:nonzero;fill:rgb(97.647059%,95.686275%,95.686275%);fill-opacity:0.8;" d="M 125.796875 327.722656 L 125.796875 294.621094 L 291.3125 294.621094 L 291.3125 327.722656 Z M 158.898438 261.519531 L 170.484375 261.519531 L 235.039062 197.171875 L 229.039062 191.171875 L 223.242188 185.378906 L 158.898438 249.933594 Z M 142.347656 278.070312 L 142.347656 242.898438 L 235.039062 150.414062 C 236.554688 148.898438 238.3125 147.726562 240.3125 146.898438 C 242.3125 146.070312 244.417969 145.65625 246.625 145.65625 C 248.828125 145.65625 250.96875 146.070312 253.035156 146.898438 C 255.105469 147.726562 256.96875 148.964844 258.625 150.621094 L 270.003906 162.207031 C 271.65625 163.726562 272.863281 165.519531 273.625 167.585938 C 274.382812 169.65625 274.761719 171.792969 274.761719 174 C 274.761719 176.070312 274.382812 178.105469 273.625 180.105469 C 272.863281 182.105469 271.65625 183.933594 270.003906 185.585938 L 177.519531 278.070312 Z M 235.039062 197.171875 L 229.039062 191.171875 L 223.242188 185.378906 Z M 235.039062 197.171875 "/>
</g>
</g>
</svg>
