<?xml version="1.0" encoding="UTF-8"?>
<svg xmlns="http://www.w3.org/2000/svg" xmlns:xlink="http://www.w3.org/1999/xlink" width="432px" height="432px" viewBox="0 0 432 432" version="1.1">
<defs>
<clipPath id="clip1">
  <path d="M 94 109 L 219 109 L 219 245.792969 L 94 245.792969 Z M 94 109 "/>
</clipPath>
</defs>
<g id="surface1">
<path style=" stroke:none;fill-rule:nonzero;fill:rgb(97.647059%,95.686275%,95.686275%);fill-opacity:0.8;" d="M 269.417969 52.136719 C 273.367188 52.136719 277.15625 53.710938 279.949219 56.503906 L 345.703125 122.257812 C 348.496094 125.050781 350.070312 128.839844 350.070312 132.789062 L 350.070312 364.964844 C 350.070312 373.191406 343.398438 379.863281 335.171875 379.863281 L 126.621094 379.863281 C 118.394531 379.863281 111.722656 373.191406 111.722656 364.964844 L 111.722656 320.277344 L 126.621094 320.277344 L 126.621094 364.964844 L 335.171875 364.964844 L 335.171875 141.515625 L 275.585938 141.515625 C 267.359375 141.515625 260.691406 134.847656 260.691406 126.621094 L 260.691406 67.035156 L 126.621094 67.035156 L 126.621094 96.828125 L 111.722656 96.828125 L 111.722656 67.035156 C 111.722656 58.808594 118.394531 52.136719 126.621094 52.136719 Z M 275.585938 126.621094 L 329.003906 126.621094 L 275.585938 73.203125 Z M 275.585938 126.621094 "/>
<path style=" stroke:none;fill-rule:nonzero;fill:rgb(97.647059%,95.686275%,95.686275%);fill-opacity:0.8;" d="M 300.054688 339.433594 L 161.738281 339.433594 L 161.738281 334.109375 L 300.054688 334.109375 Z M 300.054688 323.460938 L 161.738281 323.460938 L 161.738281 318.152344 L 300.054688 318.152344 Z M 300.054688 307.503906 L 161.738281 307.503906 L 161.738281 302.191406 L 300.054688 302.191406 Z M 300.054688 291.542969 L 161.738281 291.542969 L 161.738281 286.222656 L 300.054688 286.222656 Z M 300.054688 275.585938 L 161.738281 275.585938 L 161.738281 270.261719 L 300.054688 270.261719 Z M 300.054688 259.628906 L 240.46875 259.628906 L 240.46875 254.304688 L 300.054688 254.304688 Z M 300.054688 243.667969 L 240.46875 243.667969 L 240.46875 238.34375 L 300.054688 238.34375 Z M 300.054688 227.710938 L 240.46875 227.710938 L 240.46875 222.386719 L 300.054688 222.386719 Z M 300.054688 211.738281 L 240.46875 211.738281 L 240.46875 206.425781 L 300.054688 206.425781 Z M 300.054688 211.738281 "/>
<g clip-path="url(#clip1)" clip-rule="nonzero">
<path style=" stroke:none;fill-rule:nonzero;fill:rgb(97.647059%,95.686275%,95.686275%);fill-opacity:0.8;" d="M 94.347656 245.792969 L 94.347656 220.964844 L 218.484375 220.964844 L 218.484375 245.792969 Z M 119.175781 196.136719 L 127.863281 196.136719 L 176.277344 147.878906 L 167.433594 139.035156 L 119.175781 187.449219 Z M 106.761719 208.550781 L 106.761719 182.171875 L 176.277344 112.8125 C 177.417969 111.671875 178.734375 110.792969 180.234375 110.171875 C 181.734375 109.550781 183.3125 109.242188 184.96875 109.242188 C 186.621094 109.242188 188.226562 109.550781 189.777344 110.171875 C 191.328125 110.792969 192.726562 111.726562 193.96875 112.964844 L 202.503906 121.65625 C 203.742188 122.792969 204.648438 124.136719 205.21875 125.691406 C 205.785156 127.242188 206.070312 128.84375 206.070312 130.5 C 206.070312 132.050781 205.785156 133.578125 205.21875 135.078125 C 204.648438 136.578125 203.742188 137.949219 202.503906 139.191406 L 133.140625 208.550781 Z M 176.277344 147.878906 L 167.433594 139.035156 Z M 176.277344 147.878906 "/>
</g>
</g>
</svg>
