<?xml version="1.0" encoding="UTF-8"?>
<svg xmlns="http://www.w3.org/2000/svg" xmlns:xlink="http://www.w3.org/1999/xlink" width="360px" height="360px" viewBox="0 0 360 360" version="1.1">
<defs>
<clipPath id="clip1">
  <path d="M 78 91 L 183 91 L 183 204.828125 L 78 204.828125 Z M 78 91 "/>
</clipPath>
</defs>
<g id="surface1">
<path style=" stroke:none;fill-rule:nonzero;fill:rgb(97.647059%,95.686275%,95.686275%);fill-opacity:0.8;" d="M 224.515625 43.449219 C 227.808594 43.449219 230.964844 44.757812 233.292969 47.085938 L 288.085938 101.878906 C 290.414062 104.207031 291.722656 107.367188 291.722656 110.65625 L 291.722656 304.136719 C 291.722656 310.992188 286.167969 316.550781 279.308594 316.550781 L 105.515625 316.550781 C 98.660156 316.550781 93.101562 310.992188 93.101562 304.136719 L 93.101562 266.898438 L 105.515625 266.898438 L 105.515625 304.136719 L 279.308594 304.136719 L 279.308594 117.929688 L 229.65625 117.929688 C 222.800781 117.929688 217.242188 112.375 217.242188 105.515625 L 217.242188 55.863281 L 105.515625 55.863281 L 105.515625 80.691406 L 93.101562 80.691406 L 93.101562 55.863281 C 93.101562 49.007812 98.660156 43.449219 105.515625 43.449219 Z M 229.65625 105.515625 L 274.167969 105.515625 L 229.65625 61.003906 Z M 229.65625 105.515625 "/>
<path style=" stroke:none;fill-rule:nonzero;fill:rgb(97.647059%,95.686275%,95.686275%);fill-opacity:0.8;" d="M 250.046875 282.863281 L 134.78125 282.863281 L 134.78125 278.425781 L 250.046875 278.425781 Z M 250.046875 269.550781 L 134.78125 269.550781 L 134.78125 265.125 L 250.046875 265.125 Z M 250.046875 256.253906 L 134.78125 256.253906 L 134.78125 251.828125 L 250.046875 251.828125 Z M 250.046875 242.953125 L 134.78125 242.953125 L 134.78125 238.515625 L 250.046875 238.515625 Z M 250.046875 229.65625 L 134.78125 229.65625 L 134.78125 225.21875 L 250.046875 225.21875 Z M 250.046875 216.355469 L 200.390625 216.355469 L 200.390625 211.917969 L 250.046875 211.917969 Z M 250.046875 203.058594 L 200.390625 203.058594 L 200.390625 198.621094 L 250.046875 198.621094 Z M 250.046875 189.757812 L 200.390625 189.757812 L 200.390625 185.320312 L 250.046875 185.320312 Z M 250.046875 176.449219 L 200.390625 176.449219 L 200.390625 172.023438 L 250.046875 172.023438 Z M 250.046875 176.449219 "/>
<g clip-path="url(#clip1)" clip-rule="nonzero">
<path style=" stroke:none;fill-rule:nonzero;fill:rgb(97.647059%,95.686275%,95.686275%);fill-opacity:0.8;" d="M 78.621094 204.828125 L 78.621094 184.140625 L 182.070312 184.140625 L 182.070312 204.828125 Z M 99.3125 163.449219 L 106.554688 163.449219 L 146.898438 123.234375 L 139.527344 115.863281 L 99.3125 156.207031 Z M 88.96875 173.792969 L 88.96875 151.8125 L 146.898438 94.007812 C 147.847656 93.0625 148.945312 92.328125 150.195312 91.8125 C 151.445312 91.292969 152.761719 91.035156 154.140625 91.035156 C 155.519531 91.035156 156.855469 91.292969 158.148438 91.8125 C 159.441406 92.328125 160.605469 93.105469 161.640625 94.136719 L 168.75 101.378906 C 169.785156 102.328125 170.539062 103.449219 171.015625 104.742188 C 171.488281 106.035156 171.726562 107.371094 171.726562 108.75 C 171.726562 110.042969 171.488281 111.316406 171.015625 112.566406 C 170.539062 113.816406 169.785156 114.957031 168.75 115.992188 L 110.949219 173.792969 Z M 146.898438 123.234375 L 139.527344 115.863281 Z M 146.898438 123.234375 "/>
</g>
</g>
</svg>
