<svg width="120" height="60" viewBox="0 0 120 60" fill="none" xmlns="http://www.w3.org/2000/svg">
<path d="M61.888 34.5193H58.4354L57.779 36.4906H55.6851L59.2427 26.9232H61.0675L64.6449 36.4906H62.551L61.888 34.5193ZM58.9671 32.9225H61.3564L60.1551 29.3413L58.9671 32.9225Z" fill="#808080"/>
<path d="M71.4912 33.0014C71.4912 34.0966 71.2417 34.9749 70.7429 35.6364C70.2484 36.2935 69.5789 36.622 68.7343 36.622C68.0166 36.622 67.4368 36.3723 66.9948 35.8729V39.2242H65.0978V29.3807H66.857L66.9226 30.0773C67.3821 29.5253 67.9816 29.2493 68.7212 29.2493C69.5964 29.2493 70.2768 29.5735 70.7626 30.2218C71.2483 30.8702 71.4912 31.7638 71.4912 32.9028V33.0014ZM69.5942 32.8634C69.5942 32.2019 69.476 31.6916 69.2397 31.3323C69.0078 30.9731 68.6686 30.7935 68.2223 30.7935C67.6272 30.7935 67.218 31.0213 66.9948 31.4769V34.3879C67.2268 34.8566 67.6403 35.091 68.2354 35.091C69.1413 35.091 69.5942 34.3485 69.5942 32.8634Z" fill="#808080"/>
<path d="M75.9416 36.622C74.9001 36.622 74.0511 36.3022 73.3947 35.6627C72.7427 35.0231 72.4167 34.171 72.4167 33.1065V32.9225C72.4167 32.2085 72.5545 31.5711 72.8302 31.0104C73.1059 30.4453 73.4954 30.0116 73.9986 29.7093C74.5062 29.4026 75.0839 29.2493 75.7315 29.2493C76.703 29.2493 77.4666 29.556 78.0223 30.1693C78.5825 30.7826 78.8625 31.6521 78.8625 32.778V33.5534H74.3399C74.4012 34.0177 74.585 34.3901 74.8913 34.6704C75.202 34.9508 75.5937 35.091 76.0663 35.091C76.7971 35.091 77.3681 34.826 77.7795 34.2959L78.7116 35.3407C78.4271 35.7437 78.042 36.0591 77.5563 36.2869C77.0706 36.5103 76.5323 36.622 75.9416 36.622ZM75.7249 30.787C75.3486 30.787 75.0423 30.914 74.806 31.1681C74.5741 31.4222 74.4253 31.7857 74.3596 32.2589H76.9984V32.1077C76.9896 31.6872 76.8758 31.363 76.657 31.1352C76.4382 30.903 76.1275 30.787 75.7249 30.787Z" fill="#808080"/>
<path d="M83.9365 31.1615C83.6783 31.1265 83.4508 31.1089 83.2539 31.1089C82.5362 31.1089 82.0658 31.3521 81.8426 31.8383V36.4906H79.9456V29.3807H81.7376L81.7901 30.2284C82.1708 29.5757 82.6981 29.2493 83.372 29.2493C83.5821 29.2493 83.779 29.2778 83.9628 29.3347L83.9365 31.1615Z" fill="#808080"/>
<path d="M87.4548 27.6328V29.3807H88.6692V30.7738H87.4548V34.3222C87.4548 34.585 87.5051 34.7734 87.6058 34.8873C87.7064 35.0012 87.899 35.0581 88.1834 35.0581C88.3935 35.0581 88.5794 35.0428 88.7414 35.0121V36.4512C88.3694 36.5651 87.9865 36.622 87.5927 36.622C86.2624 36.622 85.5841 35.9496 85.5578 34.6047V30.7738H84.5207V29.3807H85.5578V27.6328H87.4548Z" fill="#808080"/>
<path d="M91.728 36.4906H89.8244V29.3807H91.728V36.4906ZM89.7128 27.5409C89.7128 27.2561 89.8069 27.0217 89.9951 26.8378C90.1876 26.6538 90.448 26.5618 90.7762 26.5618C91.1 26.5618 91.3582 26.6538 91.5507 26.8378C91.7433 27.0217 91.8396 27.2561 91.8396 27.5409C91.8396 27.83 91.7411 28.0665 91.5442 28.2505C91.3516 28.4345 91.0956 28.5265 90.7762 28.5265C90.4567 28.5265 90.1986 28.4345 90.0016 28.2505C89.8091 28.0665 89.7128 27.83 89.7128 27.5409Z" fill="#808080"/>
<path d="M97.5502 35.7678C97.082 36.3373 96.4344 36.622 95.6073 36.622C94.8459 36.622 94.2639 36.403 93.8613 35.9649C93.4631 35.5269 93.2596 34.8851 93.2508 34.0396V29.3807H95.1478V33.9739C95.1478 34.7142 95.4848 35.0844 96.1587 35.0844C96.8019 35.0844 97.2439 34.861 97.4846 34.4142V29.3807H99.3882V36.4906H97.6028L97.5502 35.7678Z" fill="#808080"/>
<path d="M102.598 29.3807L102.657 30.1758C103.16 29.5582 103.841 29.2493 104.698 29.2493C105.613 29.2493 106.241 29.6107 106.582 30.3335C107.081 29.6107 107.792 29.2493 108.716 29.2493C109.486 29.2493 110.059 29.4749 110.435 29.9261C110.812 30.373 111 31.0476 111 31.95V36.4906H109.096V31.9566C109.096 31.5536 109.018 31.2601 108.86 31.0761C108.702 30.8877 108.425 30.7935 108.026 30.7935C107.457 30.7935 107.064 31.0651 106.845 31.6083L106.851 36.4906H104.954V31.9632C104.954 31.5514 104.873 31.2535 104.712 31.0695C104.55 30.8855 104.274 30.7935 103.884 30.7935C103.346 30.7935 102.957 31.0169 102.716 31.4638V36.4906H100.819V29.3807H102.598Z" fill="#808080"/>
<path fill-rule="evenodd" clip-rule="evenodd" d="M29 48L40.2006 35.7804L62.679 35.3376L51.0462 45.6978L29 48Z" fill="url(#paint0_radial_2702_16237)"/>
<path fill-rule="evenodd" clip-rule="evenodd" d="M30.3358 26.4739L30.2529 39.7694L44.8764 31.0513L30.3358 26.4739Z" fill="url(#paint1_radial_2702_16237)"/>
<path fill-rule="evenodd" clip-rule="evenodd" d="M30.2477 26.4739L30.2533 39.1363L15.6299 30.7055L30.2477 26.4739H30.2477Z" fill="url(#paint2_radial_2702_16237)"/>
<path fill-rule="evenodd" clip-rule="evenodd" d="M29.5233 36.7578L29 48L43.4767 40.4249L44 31L29.5233 36.7578Z" fill="url(#paint3_radial_2702_16237)"/>
<path fill-rule="evenodd" clip-rule="evenodd" d="M29.1134 47.9998L29.6175 36.549L15.6299 30.2725L16.059 40.441L29.1134 47.9998Z" fill="url(#paint4_radial_2702_16237)"/>
<path fill-rule="evenodd" clip-rule="evenodd" d="M11.9102 21.4089L11.8149 22.2929L15.6241 30.8677L16.2656 30.9057L11.9102 21.4089V21.4089Z" fill="url(#paint5_radial_2702_16237)"/>
<path fill-rule="evenodd" clip-rule="evenodd" d="M27.1959 18.8765L30.2532 26.4504L15.6563 30.9058L11.8149 21.3484L27.1959 18.8765Z" fill="url(#paint6_radial_2702_16237)"/>
<path fill-rule="evenodd" clip-rule="evenodd" d="M15.5392 30.6133L8.63525 25.2075L22.8315 30.4846L29.6167 36.6037L15.5392 30.6133Z" fill="url(#paint7_radial_2702_16237)"/>
<path fill-rule="evenodd" clip-rule="evenodd" d="M8.38198 24.5745C7.79043 24.7711 8.01099 24.8676 8.21658 25.0642L23.2677 30.2725L23.8951 29.9355L8.38198 24.5745Z" fill="url(#paint8_radial_2702_16237)"/>
<path fill-rule="evenodd" clip-rule="evenodd" d="M23.7942 30.2725L29.6071 36.1126L29.6173 36.6037L23.2593 30.6421L23.7942 30.2725V30.2725Z" fill="url(#paint9_radial_2702_16237)"/>
<path fill-rule="evenodd" clip-rule="evenodd" d="M34.4658 19.5095L30.2529 26.2622L44.7731 30.9057L49.327 22.6541L34.4658 19.5095Z" fill="url(#paint10_radial_2702_16237)"/>
<path fill-rule="evenodd" clip-rule="evenodd" d="M29.6172 36.6037L37.781 29.9153L51.2345 24.5745L44.6108 30.762L29.6172 36.6037Z" fill="url(#paint11_radial_2702_16237)"/>
<path fill-rule="evenodd" clip-rule="evenodd" d="M37.8826 29.9216L37.5288 29.6396L30.5387 34.9962L29.6172 36.0821L29.6408 36.604L37.8826 29.9216V29.9216Z" fill="url(#paint12_radial_2702_16237)"/>
<path fill-rule="evenodd" clip-rule="evenodd" d="M48.9793 22.6753L49.3273 22.811L47.8237 25.7354L47.4199 25.8409L48.9793 22.6753V22.6753Z" fill="url(#paint13_radial_2702_16237)"/>
<path fill-rule="evenodd" clip-rule="evenodd" d="M37.2471 29.9695L50.4599 24.5926C50.6082 24.5471 50.9018 24.5966 51.0939 24.6377L51.2347 24.8056L37.6448 30.2725L37.2471 29.9695Z" fill="url(#paint14_radial_2702_16237)"/>
<path opacity="0.561404" d="M38.11 12L41.566 18.8128L39.7449 19.7289L38.5503 17.374L37.3932 17.956L37.2725 20.9725L35.4199 21.9044L35.561 18.4903C35.0563 18.5071 34.6103 18.4101 34.2229 18.1992C33.8397 17.9863 33.5438 17.6741 33.3351 17.2627C33.0008 16.6037 32.9822 15.936 33.2793 15.2597C33.5786 14.577 34.1539 14.011 35.0053 13.5617L38.11 12ZM36.6531 16.7318L37.9051 16.1021L37.03 14.3768L35.8412 14.9748C35.5166 15.138 35.2968 15.3566 35.1818 15.6305C35.0646 15.9002 35.0678 16.1568 35.1913 16.4002C35.3148 16.6437 35.5139 16.7964 35.7888 16.8584C36.0636 16.9204 36.3517 16.8782 36.6531 16.7318Z" fill="#1F1F1F"/>
<path opacity="0.548246" d="M24.082 24.6483C24.7331 25.0268 25.1786 25.6219 25.4185 26.4336L25.5003 26.7105C25.593 27.024 25.6178 27.3241 25.5747 27.6106C25.533 27.8945 25.4257 28.1395 25.2527 28.3455C25.0797 28.5514 24.8596 28.6936 24.5925 28.7718C24.3235 28.8507 24.0606 28.8587 23.8038 28.796C23.5464 28.7312 23.3241 28.6055 23.1368 28.4189C22.9516 28.2316 22.8196 28.0051 22.741 27.7391C22.6548 27.4474 22.6335 27.17 22.677 26.9071C22.72 26.6422 22.8251 26.4152 22.9922 26.226C23.1614 26.0363 23.3745 25.9037 23.6316 25.8284C23.9565 25.7331 24.2729 25.7633 24.5809 25.9189C24.3709 25.5599 24.084 25.2817 23.7203 25.0842L23.1988 25.7158L22.8934 25.4851L23.3522 24.9269C23.0357 24.8234 22.6807 24.7764 22.2873 24.7861L22.3178 24.2628C22.8258 24.2304 23.295 24.301 23.7253 24.4746L24.1768 23.925L24.483 24.1587L24.082 24.6483ZM24.8593 26.5749L24.804 26.4099C24.7025 26.3081 24.5714 26.2419 24.4108 26.2114C24.2515 26.1783 24.0802 26.1886 23.8969 26.2423C23.6079 26.327 23.4108 26.4883 23.3057 26.7261C23.2 26.962 23.1961 27.2456 23.2941 27.577C23.3762 27.8549 23.5287 28.0668 23.7516 28.2128C23.9765 28.3583 24.2165 28.3936 24.4716 28.3188C24.7208 28.2458 24.8879 28.075 24.9731 27.8063C25.0603 27.5371 25.0499 27.2199 24.942 26.8547L24.8593 26.5749Z" fill="black"/>
<defs>
<radialGradient id="paint0_radial_2702_16237" cx="0" cy="0" r="1" gradientUnits="userSpaceOnUse" gradientTransform="translate(20.645 46.7233) rotate(13.6173) scale(36.2482 27.4291)">
<stop stop-opacity="0.690722"/>
<stop offset="1" stop-opacity="0.0117647"/>
</radialGradient>
<radialGradient id="paint1_radial_2702_16237" cx="0" cy="0" r="1" gradientUnits="userSpaceOnUse" gradientTransform="translate(36.7145 28.5797) rotate(115.068) scale(6.06375 8.9819)">
<stop stop-color="#EBB55D"/>
<stop offset="1" stop-color="#9F601E"/>
</radialGradient>
<radialGradient id="paint2_radial_2702_16237" cx="0" cy="0" r="1" gradientUnits="userSpaceOnUse" gradientTransform="translate(31.6236 28.9329) rotate(-14.668) scale(7.32772 13.5151)">
<stop stop-color="#531108"/>
<stop offset="1" stop-color="#924E15"/>
</radialGradient>
<radialGradient id="paint3_radial_2702_16237" cx="0" cy="0" r="1" gradientUnits="userSpaceOnUse" gradientTransform="translate(42.343 39.5) rotate(-155.714) scale(10.4008 21.7742)">
<stop stop-color="#531108"/>
<stop offset="1" stop-color="#924E15"/>
</radialGradient>
<radialGradient id="paint4_radial_2702_16237" cx="0" cy="0" r="1" gradientUnits="userSpaceOnUse" gradientTransform="translate(28.2445 36.2116) rotate(161.586) scale(12.5772 19.3833)">
<stop stop-color="#EBB55D"/>
<stop offset="1" stop-color="#C67826"/>
</radialGradient>
<radialGradient id="paint5_radial_2702_16237" cx="0" cy="0" r="1" gradientUnits="userSpaceOnUse" gradientTransform="translate(15.6241 30.8677) rotate(-17.1195) scale(1.89148 9.59321)">
<stop stop-color="#7E3C11"/>
<stop offset="1" stop-color="#D79848"/>
</radialGradient>
<radialGradient id="paint6_radial_2702_16237" cx="0" cy="0" r="1" gradientUnits="userSpaceOnUse" gradientTransform="translate(25.537 20.3395) rotate(154.979) scale(23.885 9.33657)">
<stop stop-color="#7E3C11"/>
<stop offset="1" stop-color="#D79848"/>
</radialGradient>
<radialGradient id="paint7_radial_2702_16237" cx="0" cy="0" r="1" gradientUnits="userSpaceOnUse" gradientTransform="translate(15.2371 30.8922) rotate(23.8073) scale(19.0392 3.77968)">
<stop stop-color="#B36D27"/>
<stop offset="1" stop-color="#D79848"/>
</radialGradient>
<radialGradient id="paint8_radial_2702_16237" cx="0" cy="0" r="1" gradientUnits="userSpaceOnUse" gradientTransform="translate(23.8951 30.2725) rotate(-62.2379) scale(7.44554 12.0789)">
<stop stop-color="#7E3C11"/>
<stop offset="1" stop-color="#D79848"/>
</radialGradient>
<radialGradient id="paint9_radial_2702_16237" cx="0" cy="0" r="1" gradientUnits="userSpaceOnUse" gradientTransform="translate(23.2593 30.6051) rotate(40.4389) scale(10.5179 3.14942)">
<stop stop-color="#7E3C11"/>
<stop offset="1" stop-color="#D79848"/>
</radialGradient>
<radialGradient id="paint10_radial_2702_16237" cx="0" cy="0" r="1" gradientUnits="userSpaceOnUse" gradientTransform="translate(46.6735 21.9965) rotate(-163.447) scale(27.6536 8.12819)">
<stop stop-color="#C67826"/>
<stop offset="1" stop-color="#EBB55D"/>
</radialGradient>
<radialGradient id="paint11_radial_2702_16237" cx="0" cy="0" r="1" gradientUnits="userSpaceOnUse" gradientTransform="translate(44.8028 31.2501) rotate(-21.0144) scale(14.8328 5.95506)">
<stop stop-color="#260703"/>
<stop offset="1" stop-color="#924E15"/>
</radialGradient>
<radialGradient id="paint12_radial_2702_16237" cx="0" cy="0" r="1" gradientUnits="userSpaceOnUse" gradientTransform="translate(29.6172 36.604) rotate(-38.4033) scale(16.173 3.43447)">
<stop stop-color="#EBB55D"/>
<stop offset="1" stop-color="#C67826"/>
</radialGradient>
<radialGradient id="paint13_radial_2702_16237" cx="0" cy="0" r="1" gradientUnits="userSpaceOnUse" gradientTransform="translate(49.3273 22.7808) rotate(117.805) scale(8.04381 1.48903)">
<stop stop-color="#7E3C11"/>
<stop offset="1" stop-color="#D79848"/>
</radialGradient>
<radialGradient id="paint14_radial_2702_16237" cx="0" cy="0" r="1" gradientUnits="userSpaceOnUse" gradientTransform="translate(37.2471 30.2725) rotate(-15.1996) scale(10.871 2.85251)">
<stop stop-color="#7E3C11"/>
<stop offset="1" stop-color="#D79848"/>
</radialGradient>
</defs>
</svg>
