<svg xmlns="http://www.w3.org/2000/svg" width="28" height="28" fill="none" viewBox="0 0 28 28">
    <path fill="#383838" d="m16.215 20.332-.25-.882-1.694 1.78 2.357.554-.242-.851a5.286 5.286 0 0 0-1.283-9.867l-.13.597a4.677 4.677 0 0 1 1.242 8.669m-4.598-8.143.34.898 1.564-1.855-2.422-.408.299.787a5.288 5.288 0 0 0 1.425 9.78l.132-.596a4.677 4.677 0 0 1-1.338-8.606m1.099-4.198q-3.541-.293-2.98-4.612 4.474-.279 4.398 3.539.663-1.343 2.416-2.858a.214.214 0 1 1 .28.323q-2.24 1.945-2.6 3.508a8.342 8.342 0 1 1-1.514.1"/>
</svg>
