<svg width="120" height="60" viewBox="0 0 120 60" fill="none" xmlns="http://www.w3.org/2000/svg">
<path fill-rule="evenodd" clip-rule="evenodd" d="M52.2258 37.9999H40V23H52.2258L60.9999 15V45.9999L52.2258 37.9999ZM71.3653 45.056L70.1701 42.2703L70.8733 41.8108C74.5644 39.3993 77 35.234 77 30.5003C77 25.6349 74.4268 21.3696 70.5623 18.9926L69.8272 18.5404L71.0167 15.7634L71.9999 16.3554C76.7914 19.2405 79.9999 24.4952 79.9999 30.5003C79.9999 36.3546 76.9503 41.4959 72.3577 44.4234L71.3653 45.056ZM67.7774 36.6936L66.5945 33.9368L67.3302 33.4844C68.3341 32.8669 69 31.7609 69 30.5003C69 29.1324 68.2155 27.946 67.0673 27.3697L66.226 26.9475L67.4048 24.1955L68.3491 24.6566C70.5088 25.7112 72 27.9307 72 30.5003C72 32.9065 70.6919 35.0061 68.7529 36.1288L67.7774 36.6936Z" fill="white"/>
</svg>
