<svg width="1024" height="1024" viewBox="0 0 1024 1024" fill="none" xmlns="http://www.w3.org/2000/svg">
<path d="M771.533 269.718L726.101 269.72L765.297 229.114C774.205 220.09 778.659 208.66 778.659 194.825C778.659 180.989 774.205 169.559 765.297 160.535C756.389 151.512 745.105 147 731.446 147C717.787 147 706.206 151.512 696.704 160.535L582.679 269.72H446.384L331.469 160.535C322.56 151.512 311.276 147 297.618 147C283.959 147 272.675 151.512 263.767 160.535C254.858 169.559 250.404 180.989 250.404 194.825C250.404 208.66 254.858 220.09 263.767 229.114L302.962 269.72H257.531C216.553 270.923 182.851 285.06 156.423 312.13C129.995 339.201 116.187 373.19 115 414.096V726.309C116.187 770.825 129.995 806.768 156.423 834.139C182.851 861.51 216.553 875.797 257.531 877H765.297C806.274 875.797 840.125 861.811 866.85 835.041C893.575 808.271 907.233 774.132 907.828 732.624V414.094C909.609 373.188 897.583 339.199 871.749 312.128C845.916 285.058 812.51 270.921 771.533 269.718ZM811.619 726.309C811.025 740.747 805.825 753.079 796.026 763.306C786.227 773.532 774.201 778.646 759.948 778.646H263.763C249.51 778.646 237.335 773.532 227.239 763.306C217.144 753.079 212.096 740.747 212.096 726.309V420.412C212.69 405.373 217.738 393.04 227.24 383.415C236.743 373.79 248.917 368.676 263.765 368.074H759.95C774.797 368.676 786.972 373.79 796.475 383.415C805.977 393.04 811.025 405.373 811.619 420.412V726.309ZM366.207 471.846C351.954 472.448 339.924 477.712 330.125 487.637C320.326 497.563 315.13 509.745 314.536 524.183V576.519C315.13 590.957 320.178 603.138 329.681 613.064C339.183 622.99 351.358 627.953 366.205 627.953C381.052 627.953 393.227 622.99 402.73 613.064C412.232 603.138 417.28 590.957 417.874 576.519V524.183C417.28 509.745 412.084 497.563 402.285 487.637C392.486 477.712 380.46 472.448 366.207 471.846ZM662.846 471.846C648.593 472.448 636.563 477.712 626.764 487.637C616.965 497.563 611.769 509.745 611.175 524.183V576.519C611.769 590.957 616.817 603.138 626.319 613.064C635.822 622.99 647.997 627.953 662.844 627.953C677.691 627.953 689.866 622.99 699.368 613.064C708.871 603.138 713.919 590.957 714.513 576.519V524.183C713.919 509.745 708.723 497.563 698.924 487.637C689.125 477.712 677.099 472.448 662.846 471.846Z" fill="#06B6F2"/>
</svg>
