<svg xmlns="http://www.w3.org/2000/svg" width="19.745" height="17.5" viewBox="0 0 19.745 17.5">
  <g id="Group_9163" data-name="Group 9163" transform="translate(-1284.005 -602.139)">
    <path id="Path_5856" data-name="Path 5856" d="M15.585,22.466l6.993-7.077a4.957,4.957,0,0,0,0-6.95h0a4.813,4.813,0,0,0-6.865,0L6.968,17.292a3.371,3.371,0,0,0,0,4.729h0a3.276,3.276,0,0,0,4.671,0l7.942-8.039a1.79,1.79,0,0,0,0-2.509h0a1.738,1.738,0,0,0-2.478,0l-4.428,4.483" transform="translate(1279 595.889)" fill="none" stroke="#282756" stroke-linecap="round" stroke-linejoin="round" stroke-width="1.5"/>
  </g>
</svg>
