<svg xmlns="http://www.w3.org/2000/svg" width="30" height="30" viewBox="0 0 30 30">
  <g id="attach-icon" transform="translate(-1278 -595)">
    <rect id="Rectangle_3383" data-name="Rectangle 3383" width="30" height="30" transform="translate(1278 595)" fill="#fff" opacity="0.001"/>
    <path id="Path_5856" data-name="Path 5856" d="M15.585,22.466l6.993-7.077a4.957,4.957,0,0,0,0-6.95h0a4.813,4.813,0,0,0-6.865,0L6.968,17.292a3.371,3.371,0,0,0,0,4.729h0a3.276,3.276,0,0,0,4.671,0l7.942-8.039a1.79,1.79,0,0,0,0-2.509h0a1.738,1.738,0,0,0-2.478,0l-4.428,4.483" transform="translate(1277.5 595.5)" fill="none" stroke="#fff" stroke-linecap="round" stroke-linejoin="round" stroke-width="1.5"/>
  </g>
</svg>
