<svg xmlns="http://www.w3.org/2000/svg" width="30" height="30" viewBox="0 0 30 30">
  <g id="Group_50276" data-name="Group 50276" transform="translate(3879 -5412)">
    <rect id="Rectangle_3377" data-name="Rectangle 3377" width="30" height="30" transform="translate(-3879 5412)" fill="#fff" opacity="0.001"/>
    <g id="Group_9411" data-name="Group 9411" transform="translate(-3873.222 5419.698)">
      <g id="Group_9409" data-name="Group 9409">
        <path id="Path_5879" data-name="Path 5879" d="M18,20.7a1.5,1.5,0,0,1-.122.609,1.55,1.55,0,0,1-.649.738,1.474,1.474,0,0,1-.8.227H7.582A1.577,1.577,0,0,1,6,20.7a5.6,5.6,0,0,1,1.087-3.814A1.777,1.777,0,0,1,8.556,16.1a1.894,1.894,0,0,1,.844.211.272.272,0,0,0,.114.066,5.207,5.207,0,0,0,4.974,0,.266.266,0,0,0,.114-.066,1.981,1.981,0,0,1,.844-.211,1.712,1.712,0,0,1,1.006.325,1.789,1.789,0,0,1,.462.463,5.889,5.889,0,0,1,.69,1.193A6.574,6.574,0,0,1,18,20.7Z" transform="translate(-6 -7.671)" fill="none" stroke="#282756" stroke-linecap="round" stroke-linejoin="round" stroke-width="1.5"/>
        <circle id="Ellipse_21892" data-name="Ellipse 21892" cx="3.318" cy="3.318" r="3.318" transform="translate(2.684)" fill="none" stroke="#282756" stroke-linecap="round" stroke-linejoin="round" stroke-width="1.5"/>
      </g>
      <g id="Group_9410" data-name="Group 9410" transform="translate(10.452 2.898)">
        <path id="Path_5880" data-name="Path 5880" d="M24.192,20.037A1.286,1.286,0,0,1,22.927,21.3h-5.3a1.5,1.5,0,0,0,.122-.609,6.574,6.574,0,0,0-.4-2.621,5.889,5.889,0,0,0-.69-1.193,1.789,1.789,0,0,0-.462-.463,1.176,1.176,0,0,1,.414-.073,1.512,1.512,0,0,1,.681.17.263.263,0,0,0,.089.057,4.211,4.211,0,0,0,3.992,0,.263.263,0,0,0,.089-.057,1.562,1.562,0,0,1,.673-.17,1.433,1.433,0,0,1,1.177.633,4.225,4.225,0,0,1,.551.957A5.23,5.23,0,0,1,24.192,20.037Z" transform="translate(-16.2 -10.563)" fill="#282756"/>
        <circle id="Ellipse_21893" data-name="Ellipse 21893" cx="2.66" cy="2.66" r="2.66" transform="translate(0.521)" fill="#282756"/>
      </g>
    </g>
  </g>
</svg>
