<svg xmlns="http://www.w3.org/2000/svg" width="30" height="30" viewBox="0 0 30 30">
  <g id="ic_position_confirmation" transform="translate(10147 -10856)">
    <rect id="Rectangle_3377" data-name="Rectangle 3377" width="30" height="30" transform="translate(-10147 10856)" fill="#fff" opacity="0.001"/>
    <g id="Group_31299" data-name="Group 31299" transform="translate(-5859.723 74.988)">
      <path id="Path_42946" data-name="Path 42946" d="M18.582,7.451,13.305,2.174a.2.2,0,0,0-.264,0L7.765,7.451a.185.185,0,0,0,.132.33H18.45A.185.185,0,0,0,18.582,7.451Z" transform="translate(-4285.479 10784.875)" fill="#282756"/>
      <path id="Path_42947" data-name="Path 42947" d="M22.783,25.164l-.2-.2c-.462-.4-.857-.857-1.319-1.319l-1.583-1.583-.264-.264L18.1,23.119l3.364,3.43a.881.881,0,0,0,1.319,0,1.3,1.3,0,0,0,.4-.726C23.179,25.494,23.047,25.362,22.783,25.164Z" transform="translate(-4289.021 10778.178)" fill="#282756"/>
      <path id="Path_42948" data-name="Path 42948" d="M13.683,14.675v.792l-.989.989L7.944,21.205a.956.956,0,0,1-1.385,0,1.018,1.018,0,0,1,0-1.385l4.749-4.749.4-.4V6.1h1.913l.066,8.575Z" transform="translate(-4285 10783.521)" fill="#282756"/>
    </g>
  </g>
</svg>
