<svg xmlns="http://www.w3.org/2000/svg" width="19.534" height="23.5" viewBox="0 0 19.534 23.5">
  <g id="ic_appendices" transform="translate(-4.25 -2.95)">
    <g id="Group_8878" data-name="Group 8878" transform="translate(5 3.7)">
      <path id="Path_5657" data-name="Path 5657" d="M10.211,23.877H6.136A1.16,1.16,0,0,1,5,22.612V4.965A1.246,1.246,0,0,1,6.136,3.7h9.152L19.9,8.694v3.929" transform="translate(-5 -3.7)" fill="none" stroke="#282756" stroke-linecap="round" stroke-linejoin="round" stroke-miterlimit="10" stroke-width="1.5"/>
      <path id="Path_5658" data-name="Path 5658" d="M21.6,8.71H25.01L20.4,3.7V7.441A1.214,1.214,0,0,0,21.6,8.71Z" transform="translate(-10.112 -3.7)" fill="none" stroke="#282756" stroke-linecap="round" stroke-linejoin="round" stroke-miterlimit="10" stroke-width="1.5"/>
      <line id="Line_149" data-name="Line 149" x2="7.95" transform="translate(2.466 8.918)" fill="none" stroke="#282756" stroke-linecap="round" stroke-linejoin="round" stroke-miterlimit="10" stroke-width="1.5"/>
      <line id="Line_150" data-name="Line 150" x2="4.051" transform="translate(2.466 12.249)" fill="none" stroke="#282756" stroke-linecap="round" stroke-linejoin="round" stroke-miterlimit="10" stroke-width="1.5"/>
      <line id="Line_151" data-name="Line 151" x2="3.073" transform="translate(2.466 5.588)" fill="none" stroke="#282756" stroke-linecap="round" stroke-linejoin="round" stroke-miterlimit="10" stroke-width="1.5"/>
    </g>
    <g id="Group_50278" data-name="Group 50278" transform="translate(12.396 15.062)">
      <circle id="Ellipse_21858" data-name="Ellipse 21858" cx="5.319" cy="5.319" r="5.319" transform="translate(0 0)" fill="none" stroke="#282756" stroke-linecap="round" stroke-linejoin="round" stroke-miterlimit="10" stroke-width="1.5"/>
      <path id="Vector" d="M.459,4.4,1.977,5.989,5.149,2.732" transform="translate(2.547 0.958)" fill="none" stroke="#282756" stroke-linecap="round" stroke-linejoin="round" stroke-width="1.5"/>
    </g>
  </g>
</svg>
