<svg width="21" height="21" viewBox="0 0 21 21" fill="none" xmlns="http://www.w3.org/2000/svg">
    <path d="M9.39323 1.00313C7.50874 1.17516 5.74546 1.85545 4.20893 3.00491C3.72413 3.36851 2.87572 4.19346 2.46911 4.69782C-0.404537 8.26348 -0.482731 13.3109 2.28144 16.9939C3.86488 19.1091 6.23808 20.4931 8.95143 20.888C9.65127 20.9935 10.9649 20.9818 11.6882 20.8723C13.909 20.5283 15.9146 19.5039 17.4355 17.9283C19.8791 15.4026 20.8135 11.8643 19.9377 8.45115C19.5898 7.1023 18.929 5.78081 18.0533 4.69782C17.6466 4.19346 16.7982 3.36851 16.3134 3.00491C15.207 2.17605 13.8542 1.53485 12.5875 1.23771C11.6687 1.02268 10.3003 0.921025 9.39323 1.00313ZM11.5123 2.2777C13.0566 2.50446 14.6049 3.17694 15.7778 4.13482C17.5137 5.55014 18.6358 7.52455 18.9564 9.72572C19.0307 10.2144 19.0385 11.489 18.976 12.0598C18.8039 13.6237 18.0611 15.3323 16.9937 16.6068C15.6644 18.1942 13.7917 19.2694 11.7273 19.633C11.2503 19.719 9.65518 19.7581 9.18601 19.6955C5.23328 19.1755 2.17588 16.1729 1.56205 12.2045C1.50732 11.8487 1.49559 11.5985 1.51514 10.7579C1.53469 9.85865 1.54641 9.68662 1.64025 9.25655C2.19543 6.63704 3.76714 4.52188 6.11688 3.22385C6.76198 2.86807 7.74723 2.51619 8.56827 2.34807C9.40495 2.17996 10.6248 2.15259 11.5123 2.2777Z" fill="#282756"/>
    <path d="M11.4849 6.00758C10.9141 6.12487 10.5153 6.62141 10.5153 7.20396C10.5192 7.87643 11.0392 8.28304 11.743 8.16575C12.1535 8.09537 12.5484 7.76696 12.6774 7.3799C12.7556 7.15704 12.736 6.72306 12.6422 6.52758C12.4506 6.1366 11.9541 5.90984 11.4849 6.00758Z" fill="#282756"/>
    <path d="M10.4176 8.83821C9.58871 9.01415 8.75203 9.57324 8.09129 10.3982C7.80979 10.7501 7.7355 10.9495 7.8567 11.0355C7.96618 11.1176 8.0952 11.0237 8.50963 10.5507C9.10781 9.8782 9.45187 9.65535 9.63172 9.83519C9.67863 9.88211 9.71382 9.94858 9.71382 9.98767C9.71382 10.058 9.37368 10.9768 8.95143 12.0481C8.1382 14.1124 7.91535 14.9139 8.03264 15.3557C8.14211 15.7662 8.43534 15.9539 8.95143 15.95C9.69036 15.9383 10.6326 15.4456 11.4576 14.6285C12.0401 14.0538 12.2903 13.6198 12.1261 13.4791C12.0401 13.4087 11.9776 13.4517 11.5514 13.8857C10.7616 14.695 10.5818 14.8162 10.4137 14.6637C10.2651 14.5308 10.3081 14.3666 10.9258 12.6932C11.8251 10.2418 11.9267 9.8782 11.829 9.45986C11.7 8.93596 11.1409 8.68964 10.4176 8.83821Z" fill="#282756"/>
</svg>
