<svg xmlns="http://www.w3.org/2000/svg" width="17.551" height="21.578" viewBox="0 0 17.551 21.578">
  <g id="PDF_file_icon" transform="translate(53.548 -183.974)">
    <path id="Path_42978" data-name="Path 42978" d="M-51.319,183.974a2.232,2.232,0,0,0-2.229,2.229v17.12a2.232,2.232,0,0,0,2.229,2.229h13.091A2.232,2.232,0,0,0-36,203.323V189.246a1.845,1.845,0,0,0-.144-.813,2.254,2.254,0,0,0-.441-.638l0,0-3.248-3.186-.005-.005a2.57,2.57,0,0,0-.688-.44,2.515,2.515,0,0,0-.983-.186h-9.808Z" fill="#ff2116"/>
    <path id="Path_42979" data-name="Path 42979" d="M-48.909,187.117h9.823a2.092,2.092,0,0,1,.68.127,1.862,1.862,0,0,1,.474.3h0l3.24,3.178a1.788,1.788,0,0,1,.29.418,1.587,1.587,0,0,1,.081.484q0,.008,0,.016v14.093a1.485,1.485,0,0,1-1.5,1.5H-48.909a1.485,1.485,0,0,1-1.5-1.5v-17.12a1.485,1.485,0,0,1,1.5-1.5Z" transform="translate(-2.41 -2.41)" fill="#f5f5f5"/>
    <path id="Path_42980" data-name="Path 42980" d="M-35.347,210.5c-.5-.5.041-1.2,1.521-1.931l.931-.463.363-.793c.2-.436.5-1.148.661-1.582l.3-.789-.206-.584a4.171,4.171,0,0,1-.183-2.184c.218-.525.93-.471,1.213.092a3.558,3.558,0,0,1-.063,2.241l-.214.824.189.32a11.118,11.118,0,0,0,.674.929l.5.624.624-.081c1.981-.259,2.66.181,2.66.811,0,.8-1.556.861-2.862-.057a3.968,3.968,0,0,1-.5-.412s-.819.167-1.221.275-.624.182-1.233.388c0,0-.214.31-.353.536a5.774,5.774,0,0,1-1.556,1.789,1.061,1.061,0,0,1-1.247.048Zm.791-.282a5.962,5.962,0,0,0,1.253-1.482l.161-.255-.731.368c-1.13.568-1.647,1.1-1.378,1.427.151.182.332.167.7-.058Zm7.339-2.06a.425.425,0,0,0-.076-.743,2.056,2.056,0,0,0-1.073-.139c-.389.027-1.015.1-1.121.129,0,0,.344.238.5.325a6.6,6.6,0,0,0,1.057.442c.355.109.561.1.717-.014Zm-2.951-1.226a7.242,7.242,0,0,1-.633-.817,4.555,4.555,0,0,1-.355-.529s-.173.556-.315.89l-.442,1.093-.128.248s.682-.224,1.029-.314c.367-.1,1.113-.243,1.113-.243Zm-.951-3.813a1.6,1.6,0,0,0-.054-.9c-.32-.35-.706-.058-.64.773a5.669,5.669,0,0,0,.184,1.052l.169.536.119-.4A10.586,10.586,0,0,0-31.119,203.122Z" transform="translate(-13.819 -13.682)" fill="#ff2116"/>
    <path id="Path_42981" data-name="Path 42981" d="M-31.067,249.123h.818a2.223,2.223,0,0,1,.636.075.747.747,0,0,1,.411.327,1.074,1.074,0,0,1,.167.607,1.1,1.1,0,0,1-.136.561.8.8,0,0,1-.365.339,1.78,1.78,0,0,1-.7.1h-.283v1.29h-.547Zm.547.423V250.7h.271a.714.714,0,0,0,.5-.136.591.591,0,0,0,.14-.44.661.661,0,0,0-.092-.368.377.377,0,0,0-.2-.174,1.272,1.272,0,0,0-.346-.034Zm1.9-.423h.743a1.679,1.679,0,0,1,.862.191,1.189,1.189,0,0,1,.489.569,2.048,2.048,0,0,1,.167.837,2.337,2.337,0,0,1-.15.864,1.374,1.374,0,0,1-.455.61,1.414,1.414,0,0,1-.871.232h-.784Zm.547.438v2.427h.227a.766.766,0,0,0,.692-.329,1.6,1.6,0,0,0,.215-.883q0-1.215-.908-1.215Zm2.239-.438H-24v.438h-1.287v.987h1.031v.438h-1.031v1.44h-.547Z" transform="translate(-17.242 -49.968)" fill="#2c2c2c"/>
  </g>
</svg>
