<svg xmlns="http://www.w3.org/2000/svg" width="18" height="18" viewBox="0 0 18 18">
  <g id="pending-icon" transform="translate(-363 -1083)">
    <rect id="Rectangle_2923" data-name="Rectangle 2923" width="18" height="18" rx="9" transform="translate(363 1083)" fill="#e9be0a"/>
    <path id="pending" d="M5.722,9.638a.4.4,0,1,1,.1.787,5.333,5.333,0,0,1-1.039.031A5.136,5.136,0,1,1,6.564.4,5.1,5.1,0,0,1,7.64.848l-.1-.265a.43.43,0,1,1,.8-.306L8.771,1.4A.438.438,0,0,1,8.8,1.53a.429.429,0,0,1-.3.478l-1.146.351A.429.429,0,1,1,7.1,1.538L7.2,1.509A4.343,4.343,0,1,0,4.8,9.662a4.536,4.536,0,0,0,.92-.024ZM4.35,3.243a.4.4,0,0,1,.794,0V5.659L6.8,6.386a.4.4,0,0,1-.32.726L4.607,6.29a.4.4,0,0,1-.257-.372V3.243ZM7.105,9.214a.4.4,0,1,0,.359.708,5.064,5.064,0,0,0,.732-.45.4.4,0,1,0-.473-.638A4.258,4.258,0,0,1,7.105,9.214ZM8.724,7.791a.4.4,0,1,0,.659.442,5.155,5.155,0,0,0,.419-.75.4.4,0,1,0-.723-.327A4.349,4.349,0,0,1,8.724,7.791Zm.729-2.036a.4.4,0,1,0,.79.075,5.249,5.249,0,0,0,.012-.858.4.4,0,1,0-.792.056,4.432,4.432,0,0,1-.01.728ZM9.125,3.621a.4.4,0,0,0,.729-.314,5.146,5.146,0,0,0-.4-.758.4.4,0,0,0-.667.43A4.333,4.333,0,0,1,9.125,3.621Z" transform="translate(366.866 1086.766)" fill="#fff" stroke="#fff" stroke-width="0.1"/>
  </g>
</svg>
