<svg xmlns="http://www.w3.org/2000/svg" width="62" height="62" viewBox="0 0 62 62">
  <g id="position_confirmation" transform="translate(-180 -724)">
    <rect id="Rectangle_5520" data-name="Rectangle 5520" width="62" height="62" transform="translate(180 724)" fill="#f3f3f3" opacity="0"/>
    <g id="position_confirmation-2" data-name="position_confirmation" transform="translate(-132 684)">
      <g id="Group_7261" data-name="Group 7261" transform="translate(323 45)">
        <path id="Union_9" data-name="Union 9" d="M20.734,52A28.908,28.908,0,0,1,12.7,50.7c-.868-.218-1.738-.545-2.823-.761v.327A1.809,1.809,0,0,1,8.033,52H4.125A4,4,0,0,1,0,48.2V33.76a3.994,3.994,0,0,1,4.125-3.8H8.033A1.809,1.809,0,0,1,9.878,31.7v1.521a14.506,14.506,0,0,0,1.412-.76c1.085-.65,5.97-2.5,7.925-2.5h1.194V23.775H12.7a3.2,3.2,0,0,1-3.257-3.259V3.256A3.2,3.2,0,0,1,12.7,0H36.8a3.432,3.432,0,0,1,3.364,3.256V20.409a3.2,3.2,0,0,1-3.257,3.256H29.2v6.188H32.35a3.521,3.521,0,0,1,3.474,3.583,3.605,3.605,0,0,1-1.629,3.038,3.747,3.747,0,0,1,.544,1.955,3.6,3.6,0,0,1-1.846,3.147,3.675,3.675,0,0,1,.542,1.846,3.6,3.6,0,0,1-1.845,3.149,3.66,3.66,0,0,1,.543,1.846A3.522,3.522,0,0,1,28.659,52ZM12.267,34.411c-.434.217-1.195.654-2.5,1.3V47.873c1.3.327,2.387.653,3.364.868a26.5,26.5,0,0,0,7.491,1.3h7.923a1.415,1.415,0,0,0,0-2.822H25.185a1.085,1.085,0,0,1,0-2.171h4.668a1.416,1.416,0,0,0,0-2.823H26.487a1.086,1.086,0,0,1,0-2.172h4.668a1.416,1.416,0,0,0,0-2.823H28.008c-.109,0-1.3-.108-1.3-1.085a1.088,1.088,0,0,1,1.087-1.085h4.451a1.423,1.423,0,0,0,1.3-1.412,1.347,1.347,0,0,0-1.3-1.412H19.215A25.838,25.838,0,0,0,12.267,34.411Zm-10.2-.541V48.309a1.829,1.829,0,0,0,1.953,1.626H7.6V32.242H4.015A1.831,1.831,0,0,0,2.062,33.87Zm20.409-3.8h4.342V23.882H22.472ZM11.616,3.256v17.26A1.026,1.026,0,0,0,12.7,21.6H36.8a1.026,1.026,0,0,0,1.085-1.087V3.256A1.025,1.025,0,0,0,36.8,2.171H12.7A1.025,1.025,0,0,0,11.616,3.256Zm10.7,13.687-4.16-4.159a1.176,1.176,0,0,1,1.664-1.664l3.327,3.328,7.487-7.485a1.175,1.175,0,0,1,1.662,1.661l-8.316,8.319a1.173,1.173,0,0,1-1.664,0Z" fill="#282756"/>
      </g>
    </g>
  </g>
</svg>
