<svg xmlns="http://www.w3.org/2000/svg" width="52.139" height="52.139" viewBox="0 0 52.139 52.139">
  <g id="schedule_meeting-icon" transform="translate(1 1)">
    <g id="Group_7596" data-name="Group 7596" transform="translate(0 0)">
      <path id="Path_842" data-name="Path 842" d="M-47.388,93.268h-6.53A6.082,6.082,0,0,1-60,87.185V64.019a6.082,6.082,0,0,1,6.083-6.083h27.438A6.082,6.082,0,0,1-20.4,64.019v2.259" transform="translate(60.002 -53.664)" fill="none" stroke="#282756" stroke-linecap="round" stroke-linejoin="round" stroke-width="2"/>
      <line id="Line_137" data-name="Line 137" y2="8.543" transform="translate(9.656)" fill="none" stroke="#282756" stroke-linecap="round" stroke-linejoin="round" stroke-width="2"/>
      <line id="Line_138" data-name="Line 138" y2="8.543" transform="translate(19.802)" fill="none" stroke="#282756" stroke-linecap="round" stroke-linejoin="round" stroke-width="2"/>
      <line id="Line_139" data-name="Line 139" y2="8.543" transform="translate(29.948)" fill="none" stroke="#282756" stroke-linecap="round" stroke-linejoin="round" stroke-width="2"/>
      <path id="Union_6" data-name="Union 6" d="M0,16.63a1.777,1.777,0,1,1,1.776,1.777A1.777,1.777,0,0,1,0,16.63ZM6.763,9.2A1.777,1.777,0,1,1,8.54,10.98,1.777,1.777,0,0,1,6.763,9.2ZM0,9.2A1.777,1.777,0,1,1,1.776,10.98,1.776,1.776,0,0,1,0,9.2ZM13.528,1.776a1.777,1.777,0,1,1,1.777,1.777A1.777,1.777,0,0,1,13.528,1.776Zm-6.765,0A1.777,1.777,0,1,1,8.54,3.553,1.777,1.777,0,0,1,6.763,1.776ZM0,1.776A1.777,1.777,0,1,1,1.776,3.553,1.776,1.776,0,0,1,0,1.776Z" transform="translate(7.88 13.959)" fill="#282756" stroke="rgba(0,0,0,0)" stroke-miterlimit="10" stroke-width="1"/>
    </g>
    <circle id="Ellipse_51" data-name="Ellipse 51" cx="16.034" cy="16.034" r="16.034" transform="translate(18.07 18.07)" fill="none" stroke="#282756" stroke-linecap="round" stroke-linejoin="round" stroke-width="2"/>
    <g id="Group_7597" data-name="Group 7597" transform="translate(31.019 28.378)">
      <path id="Path_6148" data-name="Path 6148" d="M0,0V8.812" transform="translate(0)" fill="none" stroke="#282756" stroke-linecap="round" stroke-width="2"/>
      <line id="Line_141" data-name="Line 141" x1="8.809" transform="translate(0.607 8.812)" fill="none" stroke="#282756" stroke-linecap="round" stroke-linejoin="round" stroke-width="2"/>
    </g>
  </g>
</svg>
