<svg xmlns="http://www.w3.org/2000/svg" width="40" height="40" viewBox="0 0 40 40">
  <g id="schedule-meeting-icon" transform="translate(-1263 -580)">
    <circle id="Ellipse_19" data-name="Ellipse 19" cx="20" cy="20" r="20" transform="translate(1263 580)" fill="#282756"/>
    <g id="ic_schedule_meeting" transform="translate(1272.068 589.068)">
      <g id="Group_7596" data-name="Group 7596" transform="translate(0 0)">
        <path id="Path_842" data-name="Path 842" d="M-54.5,73.343h-2.848A2.652,2.652,0,0,1-60,70.691v-10.1a2.652,2.652,0,0,1,2.653-2.653h11.965a2.652,2.652,0,0,1,2.653,2.653v.985" transform="translate(60.002 -56.073)" fill="none" stroke="#fff" stroke-linecap="round" stroke-linejoin="round" stroke-width="1.5"/>
        <line id="Line_137" data-name="Line 137" y2="3.725" transform="translate(4.211)" fill="none" stroke="#fff" stroke-linecap="round" stroke-linejoin="round" stroke-width="1.5"/>
        <line id="Line_138" data-name="Line 138" y2="3.725" transform="translate(8.635)" fill="none" stroke="#fff" stroke-linecap="round" stroke-linejoin="round" stroke-width="1.5"/>
        <line id="Line_139" data-name="Line 139" y2="3.725" transform="translate(13.06)" fill="none" stroke="#fff" stroke-linecap="round" stroke-linejoin="round" stroke-width="1.5"/>
        <path id="Union_6" data-name="Union 6" d="M0,7.252a.775.775,0,1,1,.774.775A.775.775,0,0,1,0,7.252ZM2.949,4.013a.775.775,0,1,1,.775.775A.775.775,0,0,1,2.949,4.013ZM0,4.013a.775.775,0,1,1,.774.775A.775.775,0,0,1,0,4.013ZM5.9.774a.775.775,0,1,1,.775.775A.775.775,0,0,1,5.9.774Zm-2.95,0a.775.775,0,1,1,.775.775A.775.775,0,0,1,2.949.774ZM0,.774a.775.775,0,1,1,.774.775A.775.775,0,0,1,0,.774Z" transform="translate(3.436 6.087)" fill="#fff" stroke="rgba(0,0,0,0)" stroke-miterlimit="10" stroke-width="1"/>
      </g>
      <circle id="Ellipse_51" data-name="Ellipse 51" cx="6.992" cy="6.992" r="6.992" transform="translate(7.88 7.88)" fill="none" stroke="#fff" stroke-linecap="round" stroke-linejoin="round" stroke-width="1.5"/>
      <g id="Group_7597" data-name="Group 7597" transform="translate(13.527 12.375)">
        <path id="Path_6148" data-name="Path 6148" d="M0,0V3.843" transform="translate(0)" fill="none" stroke="#fff" stroke-linecap="round" stroke-width="1.5"/>
        <line id="Line_141" data-name="Line 141" x1="3.841" transform="translate(0.265 3.843)" fill="none" stroke="#fff" stroke-linecap="round" stroke-linejoin="round" stroke-width="1.5"/>
      </g>
    </g>
  </g>
</svg>
