<svg width="120" height="60" viewBox="0 0 120 60" fill="none" xmlns="http://www.w3.org/2000/svg">
<path d="M79.0062 52C80.6518 52 81.9998 50.6747 81.9998 49.052V18.9814C81.9998 17.3586 80.6518 16.0334 79.0062 16.0334H49.7861L61.5129 52H79.0062Z" fill="#DBDBDB"/>
<path d="M79.0062 17.3857C79.4435 17.3857 79.8583 17.5569 80.1694 17.8635C80.4759 18.1655 80.6473 18.5622 80.6473 18.9814V49.052C80.6473 49.4712 80.4805 49.8679 80.1694 50.1699C79.8583 50.4764 79.4435 50.6477 79.0062 50.6477H62.4958L51.6482 17.3857H79.0062ZM79.0062 16.0334H49.7861L61.5129 52H79.0062C80.6518 52 81.9998 50.6747 81.9998 49.052V18.9814C81.9998 17.3586 80.6518 16.0334 79.0062 16.0334Z" fill="#DCDCDC"/>
<path d="M58.7446 43.5031L61.5129 52L69.209 43.5031H58.7446Z" fill="#4352B8"/>
<path d="M79.2046 28.461V26.6985H70.706V23.8496H67.9468V26.6985H62.5229V28.461H73.3165C72.7394 30.4939 71.4634 32.4142 70.2191 33.9062C68.0144 31.2963 68.0054 30.4489 68.0054 30.4489H65.715C65.715 30.4489 65.8097 31.72 68.9026 35.3442C67.8972 36.3719 67.1352 36.9805 67.1352 36.9805L67.8385 39.1802C67.8385 39.1802 68.9026 38.2651 70.2326 36.8542C71.5671 38.3012 73.2894 40.0412 75.5166 42.1147L76.9639 40.6677C74.5789 38.5041 72.8295 36.7866 71.5446 35.4073C73.2669 33.3698 75.0162 30.805 75.3859 28.4565H79.2001V28.461H79.2046Z" fill="#607988"/>
<path d="M39.9937 7C38.3481 7 37 8.34779 37 9.9976V40.5145C37 42.1598 38.3481 43.5076 39.9937 43.5076H69.2137L57.4869 7H39.9937Z" fill="#4285F4"/>
<path d="M61.0894 16.0334H79.0064C80.652 16.0334 82.0001 17.3586 82.0001 18.9814V37.021L61.0894 16.0334Z" fill="url(#paint0_linear_2701_16010)"/>
<path d="M53.7447 26.41C53.632 27.7758 52.4642 29.7998 49.6374 29.7998C47.1892 29.7998 45.2054 27.7758 45.2054 25.2831C45.2054 22.7903 47.1892 20.7664 49.6374 20.7664C51.0305 20.7664 51.9593 21.3704 52.4913 21.8618L54.3488 20.0767C53.127 18.9498 51.5355 18.2466 49.6374 18.2466C45.7555 18.2466 42.604 21.3975 42.604 25.2786C42.604 29.1597 45.7555 32.3105 49.6374 32.3105C53.7041 32.3105 56.3912 29.4572 56.3912 25.4318C56.3912 24.8548 56.3191 24.4311 56.2244 23.9984H49.6419V26.4055L53.7447 26.41Z" fill="#EEEEEE"/>
<path d="M79.0063 16.0334H60.3904L57.4869 7H39.9937C38.3481 7 37 8.34779 37 9.9976V40.5145C37 42.1598 38.3481 43.5076 39.9937 43.5076H58.7448L61.5131 52H79.0063C80.6519 52 82 50.6747 82 49.052V37.021V18.9814C82 17.3586 80.6519 16.0334 79.0063 16.0334Z" fill="url(#paint1_radial_2701_16010)"/>
<defs>
<linearGradient id="paint0_linear_2701_16010" x1="61.0894" y1="26.5272" x2="82.0001" y2="26.5272" gradientUnits="userSpaceOnUse">
<stop stop-color="white" stop-opacity="0.2"/>
<stop offset="1" stop-color="white" stop-opacity="0.02"/>
</linearGradient>
<radialGradient id="paint1_radial_2701_16010" cx="0" cy="0" r="1" gradientUnits="userSpaceOnUse" gradientTransform="translate(39.9399 7.87293) scale(63.042 63.0293)">
<stop stop-color="white" stop-opacity="0.1"/>
<stop offset="1" stop-color="white" stop-opacity="0"/>
</radialGradient>
</defs>
</svg>
