<svg width="28" height="28" viewBox="0 0 28 28" fill="none" xmlns="http://www.w3.org/2000/svg">
    <path d="M18 10h1V4a1 1 0 0 0-1-1H4a1 1 0 0 0-1 1v14a1 1 0 0 0 1 1h6v-1H4V7h14v3Zm0-4H4V4h14v2Z" fill="#444"/>
    <path d="M6 9h10v1H6V9Zm4 3H6v1h4v-1Zm-4 3h4v1H6v-1Zm16 8v-7h2a1 1 0 0 0 1-1v-1a2 2 0 0 0-2-2h-9a2 2 0 0 0-2 2v7h-2a1 1 0 0 0-1 1v1a2 2 0 0 0 2 2h9a2 2 0 0 0 2-2Zm-9-2v-7a1 1 0 0 1 1-1h7.268A1.99 1.99 0 0 0 21 14v9a1 1 0 0 1-2 0v-2h-6Zm9-7a1 1 0 0 1 2 0v1h-2v-1Zm-12 9v-1h8v1c0 .364.097.706.268 1H11a1 1 0 0 1-1-1Z" fill="#444"/>
</svg>
