<svg width="120" height="60" viewBox="0 0 120 60" fill="none" xmlns="http://www.w3.org/2000/svg">
<path d="M36 16H58V20H50V44H44V20H36V16Z" fill="white"/>
<path d="M62 16H68V26.2843C69.8391 24.2984 72.0934 23.2578 74.6378 23.2578C75.9566 23.2578 77.1462 23.487 78.2067 23.9454C79.2672 24.4038 80.0626 24.9895 80.5928 25.7026C81.1367 26.4156 81.5037 27.2051 81.6941 28.0709C81.898 28.9368 82 30.2801 82 32.1009V44H76.2693V33.2851C76.2693 31.1587 76.1605 29.809 75.943 29.236C75.7254 28.663 75.338 28.211 74.7805 27.8799C74.2367 27.5361 73.5501 27.3642 72.7207 27.3642C71.769 27.3642 70.9193 27.5807 70.1715 28.0136C69.4237 28.4465 68.8731 29.1023 68.5196 29.9809C68.3049 30.5276 68.1126 31.2407 68 32.1216V44H62V16Z" fill="white"/>
</svg>
