<svg width="160" height="30" viewBox="0 0 160 30" fill="none" xmlns="http://www.w3.org/2000/svg">
<path d="M13.615 3.32989C14.1274 2.09796 15.8726 2.09795 16.385 3.32989L18.6157 8.69319C18.8317 9.21255 19.3201 9.5674 19.8808 9.61235L25.6709 10.0765C27.0009 10.1832 27.5402 11.8429 26.5269 12.7109L22.1154 16.4898C21.6883 16.8558 21.5017 17.4299 21.6322 17.9771L22.98 23.6272C23.2896 24.9251 21.8777 25.9509 20.739 25.2554L15.7819 22.2276C15.3019 21.9344 14.6981 21.9344 14.2181 22.2276L9.26096 25.2554C8.12231 25.9509 6.71043 24.9251 7.02001 23.6272L8.36779 17.9771C8.4983 17.4299 8.31174 16.8558 7.88456 16.4898L3.47309 12.7109C2.45978 11.8429 2.99907 10.1832 4.32905 10.0765L10.1192 9.61235C10.6799 9.5674 11.1683 9.21255 11.3843 8.69319L13.615 3.32989Z" fill="#DADADA"/>
<path d="M46.115 3.32989C46.6274 2.09796 48.3726 2.09795 48.885 3.32989L51.1157 8.69319C51.3317 9.21255 51.8201 9.5674 52.3808 9.61235L58.1709 10.0765C59.5009 10.1832 60.0402 11.8429 59.0269 12.7109L54.6154 16.4898C54.1883 16.8558 54.0017 17.4299 54.1322 17.9771L55.48 23.6272C55.7896 24.9251 54.3777 25.9509 53.239 25.2554L48.2819 22.2276C47.8019 21.9344 47.1981 21.9344 46.7181 22.2276L41.761 25.2554C40.6223 25.9509 39.2104 24.9251 39.52 23.6272L40.8678 17.9771C40.9983 17.4299 40.8117 16.8558 40.3846 16.4898L35.9731 12.7109C34.9598 11.8429 35.4991 10.1832 36.8291 10.0765L42.6192 9.61235C43.1799 9.5674 43.6683 9.21255 43.8843 8.69319L46.115 3.32989Z" fill="#DADADA"/>
<path d="M78.615 3.32989C79.1274 2.09796 80.8726 2.09795 81.385 3.32989L83.6157 8.69319C83.8317 9.21255 84.3201 9.5674 84.8808 9.61235L90.6709 10.0765C92.0009 10.1832 92.5402 11.8429 91.5269 12.7109L87.1154 16.4898C86.6883 16.8558 86.5017 17.4299 86.6322 17.9771L87.98 23.6272C88.2896 24.9251 86.8777 25.9509 85.739 25.2554L80.7819 22.2276C80.3019 21.9344 79.6981 21.9344 79.2181 22.2276L74.261 25.2554C73.1223 25.9509 71.7104 24.9251 72.02 23.6272L73.3678 17.9771C73.4983 17.4299 73.3117 16.8558 72.8846 16.4898L68.4731 12.7109C67.4598 11.8429 67.9991 10.1832 69.3291 10.0765L75.1192 9.61235C75.6799 9.5674 76.1683 9.21255 76.3843 8.69319L78.615 3.32989Z" fill="#DADADA"/>
<path d="M111.115 3.32989C111.627 2.09796 113.373 2.09795 113.885 3.32989L116.116 8.69319C116.332 9.21255 116.82 9.5674 117.381 9.61235L123.171 10.0765C124.501 10.1832 125.04 11.8429 124.027 12.7109L119.615 16.4898C119.188 16.8558 119.002 17.4299 119.132 17.9771L120.48 23.6272C120.79 24.9251 119.378 25.9509 118.239 25.2554L113.282 22.2276C112.802 21.9344 112.198 21.9344 111.718 22.2276L106.761 25.2554C105.622 25.9509 104.21 24.9251 104.52 23.6272L105.868 17.9771C105.998 17.4299 105.812 16.8558 105.385 16.4898L100.973 12.7109C99.9598 11.8429 100.499 10.1832 101.829 10.0765L107.619 9.61235C108.18 9.5674 108.668 9.21255 108.884 8.69319L111.115 3.32989Z" fill="#DADADA"/>
<path d="M143.615 3.32989C144.127 2.09796 145.873 2.09795 146.385 3.32989L148.616 8.69319C148.832 9.21255 149.32 9.5674 149.881 9.61235L155.671 10.0765C157.001 10.1832 157.54 11.8429 156.527 12.7109L152.115 16.4898C151.688 16.8558 151.502 17.4299 151.632 17.9771L152.98 23.6272C153.29 24.9251 151.878 25.9509 150.739 25.2554L145.782 22.2276C145.302 21.9344 144.698 21.9344 144.218 22.2276L139.261 25.2554C138.122 25.9509 136.71 24.9251 137.02 23.6272L138.368 17.9771C138.498 17.4299 138.312 16.8558 137.885 16.4898L133.473 12.7109C132.46 11.8429 132.999 10.1832 134.329 10.0765L140.119 9.61235C140.68 9.5674 141.168 9.21255 141.384 8.69319L143.615 3.32989Z" fill="#DADADA"/>
</svg>
