<svg width="28" height="28" viewBox="0 0 28 28" fill="none" xmlns="http://www.w3.org/2000/svg">
<rect x="2" y="2" width="24" height="24" rx="1" fill="#FFA12B"/>
<path d="M6 22L10 26H25C25.5523 26 26 25.5523 26 25V14L18 6V10C18 10.5523 17.5523 11 17 11L19 16H22C22.5523 16 23 16.4477 23 17V21C23 21.5523 22.5523 22 22 22H17C16.4477 22 16 21.5523 16 21V17C16 16.4477 16.4477 16 17 16H18L16 11H12L10 16H11C11.5523 16 12 16.4477 12 17V21C12 21.5523 11.5523 22 11 22H6Z" fill="#F08830"/>
<path d="M10 6C10 5.44772 10.4477 5 11 5H17C17.5523 5 18 5.44772 18 6V10C18 10.5523 17.5523 11 17 11L19 16H22C22.5523 16 23 16.4477 23 17V21C23 21.5523 22.5523 22 22 22H17C16.4477 22 16 21.5523 16 21V17C16 16.4477 16.4477 16 17 16H18L16 11H12L10 16H11C11.5523 16 12 16.4477 12 17V21C12 21.5523 11.5523 22 11 22H6C5.44772 22 5 21.5523 5 21V17C5 16.4477 5.44772 16 6 16H9L11 11C10.4477 11 10 10.5523 10 10V6Z" fill="white"/>
</svg>
