<?xml version="1.0" encoding="utf-8"?>
<!-- Generator: Adobe Illustrator 27.5.0, SVG Export Plug-In . SVG Version: 6.00 Build 0)  -->
<svg version="1.1" id="Layer_1" xmlns="http://www.w3.org/2000/svg" xmlns:xlink="http://www.w3.org/1999/xlink" x="0px" y="0px"
	 viewBox="0 0 419.484 378.609" style="enable-background:new 0 0 419.484 378.609;" xml:space="preserve">
<g>
	<g>
		<g>
			<path style="fill:#FEE8D4;" d="M368.875,372.929H50.609c-24.475,0-44.317-19.841-44.317-44.317V82.139
				c0-24.475,19.841-44.317,44.317-44.317h318.266c24.475,0,44.317,19.841,44.317,44.317v246.474
				C413.191,353.088,393.35,372.929,368.875,372.929z"/>
			<path style="fill:#84CFC6;" d="M413.191,117.952V81.662c0-24.212-19.628-43.84-43.84-43.84H50.132
				c-24.212,0-43.84,19.628-43.84,43.84v36.291H413.191z"/>
			<path style="opacity:0.63;fill:#CBCCCE;" d="M369.352,37.822H50.132c-24.212,0-43.84,19.628-43.84,43.84v247.427
				c0,24.212,19.628,43.84,43.84,43.84h319.219c24.212,0,43.84-19.628,43.84-43.84V81.662
				C413.192,57.45,393.564,37.822,369.352,37.822z M395.349,268.898c0,25.299-19.628,45.808-43.84,45.808H70.326
				c-24.212,0-43.84-20.509-43.84-45.808V91.905c0-25.299,19.628-45.808,43.84-45.808h281.183c24.212,0,43.84,20.509,43.84,45.808
				V268.898z"/>
			<g>
				<path style="opacity:0.63;fill:#CBCCCE;" d="M363.655,351.252H57.079c-23.253,0-42.104-18.22-42.104-40.695v13.138
					c0,22.475,18.851,40.695,42.104,40.695h306.576c23.253,0,42.104-18.22,42.104-40.695v-13.138
					C405.759,333.032,386.909,351.252,363.655,351.252z"/>
			</g>
			<g>
				<g>
					
						<ellipse transform="matrix(0.2318 -0.9728 0.9728 0.2318 -9.9791 115.0937)" style="fill:#001239;" cx="67.883" cy="63.865" rx="20.888" ry="20.888"/>
					<g>
						<path style="fill:#004F8A;" d="M72.853,75.454h-9.939c-4.837,0-8.759-3.921-8.759-8.759V14.438
							c0-4.837,3.921-8.759,8.759-8.759h9.939c4.837,0,8.759,3.921,8.759,8.759v52.258C81.612,71.533,77.69,75.454,72.853,75.454z"
							/>
						<path style="fill:#0087BE;" d="M69.301,49.459h-5.594c-3.902,0-7.065-3.163-7.065-7.065V16.802
							c0-3.902,3.163-7.065,7.065-7.065h5.594c3.902,0,7.065,3.163,7.065,7.065v25.592C76.365,46.296,73.202,49.459,69.301,49.459z"
							/>
					</g>
				</g>
				<g>
					
						<ellipse transform="matrix(0.2318 -0.9728 0.9728 0.2318 212.5528 396.8905)" style="fill:#001239;" cx="357.572" cy="63.865" rx="20.888" ry="20.888"/>
					<g>
						<path style="fill:#004F8A;" d="M362.541,75.454h-9.939c-4.837,0-8.759-3.921-8.759-8.759V14.438
							c0-4.837,3.921-8.759,8.759-8.759h9.939c4.837,0,8.759,3.921,8.759,8.759v52.258C371.3,71.533,367.379,75.454,362.541,75.454z
							"/>
						<path style="fill:#0087BE;" d="M358.989,49.459h-5.594c-3.902,0-7.065-3.163-7.065-7.065V16.802
							c0-3.902,3.163-7.065,7.065-7.065h5.594c3.902,0,7.065,3.163,7.065,7.065v25.592
							C366.054,46.296,362.891,49.459,358.989,49.459z"/>
					</g>
				</g>
				<g>
					
						<ellipse transform="matrix(0.1612 -0.9869 0.9869 0.1612 74.9027 215.8628)" style="fill:#001239;" cx="164.446" cy="63.865" rx="20.888" ry="20.888"/>
					<g>
						<path style="fill:#004F8A;" d="M169.416,75.454h-9.939c-4.837,0-8.759-3.921-8.759-8.759V14.438
							c0-4.837,3.921-8.759,8.759-8.759h9.939c4.837,0,8.759,3.921,8.759,8.759v52.258
							C178.174,71.533,174.253,75.454,169.416,75.454z"/>
						<path style="fill:#0087BE;" d="M165.864,49.459h-5.594c-3.902,0-7.065-3.163-7.065-7.065V16.802
							c0-3.902,3.163-7.065,7.065-7.065h5.594c3.902,0,7.065,3.163,7.065,7.065v25.592
							C172.928,46.296,169.765,49.459,165.864,49.459z"/>
					</g>
				</g>
				<g>
					
						<ellipse transform="matrix(0.7071 -0.7071 0.7071 0.7071 31.2882 203.2669)" style="fill:#001239;" cx="261.009" cy="63.865" rx="20.888" ry="20.888"/>
					<g>
						<path style="fill:#004F8A;" d="M265.978,75.454h-9.939c-4.837,0-8.759-3.921-8.759-8.759V14.438
							c0-4.837,3.921-8.759,8.759-8.759h9.939c4.837,0,8.759,3.921,8.759,8.759v52.258
							C274.737,71.533,270.816,75.454,265.978,75.454z"/>
						<path style="fill:#0087BE;" d="M262.426,49.459h-5.594c-3.902,0-7.065-3.163-7.065-7.065V16.802
							c0-3.902,3.163-7.065,7.065-7.065h5.594c3.902,0,7.065,3.163,7.065,7.065v25.592
							C269.491,46.296,266.328,49.459,262.426,49.459z"/>
					</g>
				</g>
			</g>
		</g>
		<path style="opacity:0.5;fill:#FFFFFF;" d="M44.299,45.849c0,0-25.562,3.195-30.583,24.193
			c-5.021,20.998-5.934,84.447,3.195,82.165c9.129-2.282,2.739-60.71,11.868-79.882C37.908,53.152,48.407,48.131,44.299,45.849z"/>
	</g>
	<g>
		<g>
			<rect x="183.625" y="262.568" style="fill:#FFFFFF;" width="50.864" height="35.605"/>
			<path style="fill:#E8DFDB;" d="M235.459,299.142h-52.804v-37.545h52.804V299.142z M184.595,297.202h48.924v-33.665h-48.924
				V297.202z"/>
		</g>
		<g>
			<rect x="132.762" y="262.568" style="fill:#FFFFFF;" width="50.864" height="35.605"/>
			<path style="fill:#E8DFDB;" d="M184.595,299.142h-52.803v-37.545h52.803V299.142z M133.732,297.202h48.923v-33.665h-48.923
				V297.202z"/>
		</g>
		<g>
			<rect x="81.898" y="262.568" style="fill:#FFFFFF;" width="50.864" height="35.605"/>
			<path style="fill:#E8DFDB;" d="M133.732,299.142H80.928v-37.545h52.803V299.142z M82.868,297.202h48.923v-33.665H82.868V297.202z
				"/>
		</g>
		<g>
			<rect x="81.898" y="226.963" style="fill:#FFFFFF;" width="50.864" height="35.605"/>
			<path style="fill:#E8DFDB;" d="M133.732,263.538H80.928v-37.544h52.803V263.538z M82.868,261.598h48.923v-33.664H82.868V261.598z
				"/>
		</g>
		<g>
			<rect x="285.353" y="262.568" style="fill:#FFFFFF;" width="50.864" height="35.605"/>
			<path style="fill:#E8DFDB;" d="M337.187,299.142h-52.804v-37.545h52.804V299.142z M286.323,297.202h48.924v-33.665h-48.924
				V297.202z"/>
		</g>
		<g>
			<rect x="285.353" y="191.358" style="fill:#FFFFFF;" width="50.864" height="35.605"/>
			<path style="fill:#E8DFDB;" d="M337.187,227.933h-52.804v-37.545h52.804V227.933z M286.323,225.993h48.924v-33.665h-48.924
				V225.993z"/>
		</g>
		<g>
			<rect x="234.489" y="262.568" style="fill:#FFFFFF;" width="50.864" height="35.605"/>
			<path style="fill:#E8DFDB;" d="M286.323,299.142h-52.803v-37.545h52.803V299.142z M235.459,297.202h48.923v-33.665h-48.923
				V297.202z"/>
		</g>
		<g>
			<rect x="285.353" y="155.754" style="fill:#FFFFFF;" width="50.864" height="35.605"/>
			<path style="fill:#E8DFDB;" d="M337.187,192.328h-52.804v-37.544h52.804V192.328z M286.323,190.388h48.924v-33.664h-48.924
				V190.388z"/>
		</g>
		<g>
			<rect x="285.353" y="226.963" style="fill:#FFFFFF;" width="50.864" height="35.605"/>
			<path style="fill:#E8DFDB;" d="M337.187,263.538h-52.804v-37.544h52.804V263.538z M286.323,261.598h48.924v-33.664h-48.924
				V261.598z"/>
		</g>
		<g>
			<rect x="81.898" y="191.358" style="fill:#FFFFFF;" width="50.864" height="35.605"/>
			<path style="fill:#E8DFDB;" d="M133.732,227.933H80.928v-37.545h52.803V227.933z M82.868,225.993h48.923v-33.665H82.868V225.993z
				"/>
		</g>
		<g>
			<rect x="132.762" y="155.754" style="fill:#FFFFFF;" width="50.864" height="35.605"/>
			<path style="fill:#E8DFDB;" d="M184.595,192.328h-52.803v-37.544h52.803V192.328z M133.732,190.388h48.923v-33.664h-48.923
				V190.388z"/>
		</g>
		<g>
			<rect x="132.762" y="226.963" style="fill:#FFFFFF;" width="50.864" height="35.605"/>
			<path style="fill:#E8DFDB;" d="M184.595,263.538h-52.803v-37.544h52.803V263.538z M133.732,261.598h48.923v-33.664h-48.923
				V261.598z"/>
		</g>
		<g>
			<rect x="183.625" y="226.963" style="fill:#FFFFFF;" width="50.864" height="35.605"/>
			<path style="fill:#E8DFDB;" d="M235.459,263.538h-52.804v-37.544h52.804V263.538z M184.595,261.598h48.924v-33.664h-48.924
				V261.598z"/>
		</g>
		<g>
			<rect x="132.762" y="191.358" style="fill:#FFFFFF;" width="50.864" height="35.605"/>
			<path style="fill:#E8DFDB;" d="M184.595,227.933h-52.803v-37.545h52.803V227.933z M133.732,225.993h48.923v-33.665h-48.923
				V225.993z"/>
		</g>
		<g>
			<rect x="81.898" y="155.754" style="fill:#FFFFFF;" width="50.864" height="35.605"/>
			<path style="fill:#E8DFDB;" d="M133.732,192.328H80.928v-37.544h52.803V192.328z M82.868,190.388h48.923v-33.664H82.868V190.388z
				"/>
		</g>
		<g>
			<rect x="183.625" y="191.358" style="fill:#FFFFFF;" width="50.864" height="35.605"/>
			<path style="fill:#E8DFDB;" d="M235.459,227.933h-52.804v-37.545h52.804V227.933z M184.595,225.993h48.924v-33.665h-48.924
				V225.993z"/>
		</g>
		<g>
			<rect x="234.489" y="226.963" style="fill:#FFFFFF;" width="50.864" height="35.605"/>
			<path style="fill:#E8DFDB;" d="M286.323,263.538h-52.803v-37.544h52.803V263.538z M235.459,261.598h48.923v-33.664h-48.923
				V261.598z"/>
		</g>
		<g>
			<rect x="336.217" y="155.754" style="fill:#FFFFFF;" width="51.549" height="35.605"/>
			<path style="fill:#E8DFDB;" d="M388.735,192.328h-53.488v-37.544h53.488V192.328z M337.187,190.388h49.608v-33.664h-49.608
				V190.388z"/>
		</g>
		<g>
			<rect x="234.489" y="191.358" style="fill:#FFFFFF;" width="50.864" height="35.605"/>
			<path style="fill:#E8DFDB;" d="M286.323,227.933h-52.803v-37.545h52.803V227.933z M235.459,225.993h48.923v-33.665h-48.923
				V225.993z"/>
		</g>
		<g>
			<rect x="183.625" y="155.754" style="fill:#FFFFFF;" width="50.864" height="35.605"/>
			<path style="fill:#E8DFDB;" d="M235.459,192.328h-52.804v-37.544h52.804V192.328z M184.595,190.388h48.924v-33.664h-48.924
				V190.388z"/>
		</g>
		<g>
			<rect x="234.489" y="155.754" style="fill:#FFFFFF;" width="50.864" height="35.605"/>
			<path style="fill:#E8DFDB;" d="M286.323,192.328h-52.803v-37.544h52.803V192.328z M235.459,190.388h48.923v-33.664h-48.923
				V190.388z"/>
		</g>
		<g>
			<rect x="81.898" y="128.366" style="fill:#8CA4D5;" width="50.864" height="27.388"/>
			<path style="fill:#C1D1D9;" d="M133.732,156.724H80.928v-29.328h52.803V156.724z M82.868,154.784h48.923v-25.448H82.868V154.784z
				"/>
		</g>
		<g>
			<rect x="234.489" y="298.172" style="fill:#FFFFFF;" width="50.864" height="34.786"/>
			<path style="fill:#E8DFDB;" d="M286.323,333.928h-52.803v-36.726h52.803V333.928z M235.459,331.988h48.923v-32.846h-48.923
				V331.988z"/>
		</g>
		<g>
			<rect x="183.625" y="298.172" style="fill:#FFFFFF;" width="50.864" height="34.786"/>
			<path style="fill:#E8DFDB;" d="M235.459,333.928h-52.804v-36.726h52.804V333.928z M184.595,331.988h48.924v-32.846h-48.924
				V331.988z"/>
		</g>
		<g>
			<rect x="81.898" y="298.172" style="fill:#FFFFFF;" width="50.864" height="34.786"/>
			<path style="fill:#E8DFDB;" d="M133.732,333.928H80.928v-36.726h52.803V333.928z M82.868,331.988h48.923v-32.846H82.868V331.988z
				"/>
		</g>
		<g>
			<rect x="132.762" y="298.172" style="fill:#FFFFFF;" width="50.864" height="34.786"/>
			<path style="fill:#E8DFDB;" d="M184.595,333.928h-52.803v-36.726h52.803V333.928z M133.732,331.988h48.923v-32.846h-48.923
				V331.988z"/>
		</g>
		<g>
			<rect x="32.403" y="298.172" style="fill:#FFFFFF;" width="49.494" height="34.786"/>
			<path style="fill:#E8DFDB;" d="M82.868,333.928H31.434v-36.726h51.435V333.928z M33.374,331.988h47.555v-32.846H33.374V331.988z"
				/>
		</g>
		<g>
			<rect x="285.353" y="298.172" style="fill:#FFFFFF;" width="50.864" height="34.786"/>
			<path style="fill:#E8DFDB;" d="M337.187,333.928h-52.804v-36.726h52.804V333.928z M286.323,331.988h48.924v-32.846h-48.924
				V331.988z"/>
		</g>
		<g>
			<rect x="336.217" y="191.358" style="fill:#FFFFFF;" width="51.549" height="35.605"/>
			<path style="fill:#E8DFDB;" d="M388.735,227.933h-53.488v-37.545h53.488V227.933z M337.187,225.993h49.608v-33.665h-49.608
				V225.993z"/>
		</g>
		<g>
			<rect x="336.217" y="298.172" style="fill:#FFFFFF;" width="51.549" height="34.786"/>
			<path style="fill:#E8DFDB;" d="M388.735,333.928h-53.488v-36.726h53.488V333.928z M337.187,331.988h49.608v-32.846h-49.608
				V331.988z"/>
		</g>
		<g>
			<rect x="336.217" y="226.963" style="fill:#FFFFFF;" width="51.549" height="35.605"/>
			<path style="fill:#E8DFDB;" d="M388.735,263.538h-53.488v-37.544h53.488V263.538z M337.187,261.598h49.608v-33.664h-49.608
				V261.598z"/>
		</g>
		<g>
			<rect x="336.217" y="262.568" style="fill:#FFFFFF;" width="51.549" height="35.605"/>
			<path style="fill:#E8DFDB;" d="M388.735,299.142h-53.488v-37.545h53.488V299.142z M337.187,297.202h49.608v-33.665h-49.608
				V297.202z"/>
		</g>
		<g>
			<rect x="183.625" y="128.366" style="fill:#8CA4D5;" width="50.864" height="27.388"/>
			<path style="fill:#C1D1D9;" d="M235.459,156.724h-52.804v-29.328h52.804V156.724z M184.595,154.784h48.924v-25.448h-48.924
				V154.784z"/>
		</g>
		<g>
			<rect x="32.403" y="262.568" style="fill:#FFFFFF;" width="49.494" height="35.605"/>
			<path style="fill:#E8DFDB;" d="M82.868,299.142H31.434v-37.545h51.435V299.142z M33.374,297.202h47.555v-33.665H33.374V297.202z"
				/>
		</g>
		<g>
			<rect x="132.762" y="128.366" style="fill:#8CA4D5;" width="50.864" height="27.388"/>
			<path style="fill:#C1D1D9;" d="M184.595,156.724h-52.803v-29.328h52.803V156.724z M133.732,154.784h48.923v-25.448h-48.923
				V154.784z"/>
		</g>
		<g>
			<rect x="336.217" y="128.366" style="fill:#D95125;" width="51.549" height="27.388"/>
			<path style="fill:#C1D1D9;" d="M388.735,156.724h-53.488v-29.328h53.488V156.724z M337.187,154.784h49.608v-25.448h-49.608
				V154.784z"/>
		</g>
		<g>
			<rect x="285.353" y="128.366" style="fill:#8CA4D5;" width="50.864" height="27.388"/>
			<path style="fill:#C1D1D9;" d="M337.187,156.724h-52.804v-29.328h52.804V156.724z M286.323,154.784h48.924v-25.448h-48.924
				V154.784z"/>
		</g>
		<g>
			<rect x="234.489" y="128.366" style="fill:#8CA4D5;" width="50.864" height="27.388"/>
			<path style="fill:#C1D1D9;" d="M286.323,156.724h-52.803v-29.328h52.803V156.724z M235.459,154.784h48.923v-25.448h-48.923
				V154.784z"/>
		</g>
		<g>
			<rect x="32.403" y="226.963" style="fill:#FFFFFF;" width="49.494" height="35.605"/>
			<path style="fill:#E8DFDB;" d="M82.868,263.538H31.434v-37.544h51.435V263.538z M33.374,261.598h47.555v-33.664H33.374V261.598z"
				/>
		</g>
		<g>
			<rect x="32.403" y="191.358" style="fill:#FFFFFF;" width="49.494" height="35.605"/>
			<path style="fill:#E8DFDB;" d="M82.868,227.933H31.434v-37.545h51.435V227.933z M33.374,225.993h47.555v-33.665H33.374V225.993z"
				/>
		</g>
		<g>
			<rect x="32.403" y="128.366" style="fill:#8CA4D5;" width="49.494" height="27.388"/>
			<path style="fill:#C1D1D9;" d="M82.868,156.724H31.434v-29.328h51.435V156.724z M33.374,154.784h47.555v-25.448H33.374V154.784z"
				/>
		</g>
		<g>
			<rect x="32.403" y="155.754" style="fill:#FFFFFF;" width="49.494" height="35.605"/>
			<path style="fill:#E8DFDB;" d="M82.868,192.328H31.434v-37.544h51.435V192.328z M33.374,190.388h47.555v-33.664H33.374V190.388z"
				/>
		</g>
	</g>
</g>
</svg>
