<?xml version="1.0" encoding="UTF-8"?>
<svg xmlns="http://www.w3.org/2000/svg" xmlns:xlink="http://www.w3.org/1999/xlink" width="90px" height="90px" viewBox="0 0 90 90" version="1.1">
<g id="surface1">
<path style=" stroke:none;fill-rule:evenodd;fill:rgb(20.784314%,37.64706%,46.666667%);fill-opacity:1;" d="M 19.957031 7.417969 C 19.410156 9.515625 17.652344 10.464844 13.722656 10.792969 L 8.25 11.25 L 8.25 84.75 L 81.75 84.75 L 82.183594 72.375 C 82.460938 64.527344 82.050781 60 81.058594 60 C 80.203125 60 78.996094 59.988281 78.375 59.972656 C 77.753906 59.960938 76.914062 64.179688 76.5 69.347656 L 75.75 78.75 L 14.25 78.75 L 13.429688 28.5 L 76.5 28.5 L 76.5 33.859375 C 76.5 38.15625 77.019531 39.121094 79.125 38.714844 C 81.394531 38.277344 81.75 36.375 81.75 24.730469 L 81.75 11.25 L 76.277344 10.792969 C 72.347656 10.464844 70.589844 9.515625 70.042969 7.417969 C 69.050781 3.617188 65.9375 3.664062 64.933594 7.5 C 64.203125 10.300781 62.890625 10.5 45 10.5 C 27.109375 10.5 25.796875 10.300781 25.066406 7.5 C 24.0625 3.664062 20.949219 3.617188 19.957031 7.417969 M 16.5 19.5 C 16.5 20.324219 17.554688 21 18.839844 21 C 20.125 21 20.761719 20.324219 20.25 19.5 C 19.738281 18.675781 18.6875 18 17.910156 18 C 17.132812 18 16.5 18.675781 16.5 19.5 M 24.75 19.5 C 24.148438 20.472656 31.265625 21 45 21 C 58.734375 21 65.851562 20.472656 65.25 19.5 C 64.019531 17.507812 25.980469 17.507812 24.75 19.5 M 69.75 19.5 C 69.238281 20.324219 70.214844 21 71.910156 21 C 73.609375 21 75 20.324219 75 19.5 C 75 18.675781 74.027344 18 72.839844 18 C 71.648438 18 70.261719 18.675781 69.75 19.5 M 19.875 36.375 C 20.21875 37.40625 21.402344 38.25 22.5 38.25 C 23.597656 38.25 24.78125 37.40625 25.125 36.375 C 25.496094 35.257812 24.433594 34.5 22.5 34.5 C 20.566406 34.5 19.503906 35.257812 19.875 36.375 M 31.5 36.75 C 31.5 37.988281 32.511719 39 33.75 39 C 34.988281 39 36 37.988281 36 36.75 C 36 35.511719 34.988281 34.5 33.75 34.5 C 32.511719 34.5 31.5 35.511719 31.5 36.75 M 42.375 36.375 C 42.71875 37.40625 43.902344 38.25 45 38.25 C 46.097656 38.25 47.28125 37.40625 47.625 36.375 C 47.996094 35.257812 46.933594 34.5 45 34.5 C 43.066406 34.5 42.003906 35.257812 42.375 36.375 M 54 36.75 C 54 37.988281 55.011719 39 56.25 39 C 57.488281 39 58.5 37.988281 58.5 36.75 C 58.5 35.511719 57.488281 34.5 56.25 34.5 C 55.011719 34.5 54 35.511719 54 36.75 M 64.875 36.375 C 65.21875 37.40625 66.402344 38.25 67.5 38.25 C 68.597656 38.25 69.78125 37.40625 70.125 36.375 C 70.496094 35.257812 69.433594 34.5 67.5 34.5 C 65.566406 34.5 64.503906 35.257812 64.875 36.375 M 77.210938 43.566406 C 75.851562 45.761719 77.824219 47.972656 80.296875 47.023438 C 81.507812 46.558594 82.5 45.648438 82.5 45 C 82.5 43.140625 78.195312 41.972656 77.210938 43.566406 M 20.167969 46.628906 C 18.625 49.132812 22.097656 52 24.167969 49.929688 C 25.902344 48.199219 24.816406 45 22.5 45 C 21.773438 45 20.722656 45.734375 20.167969 46.628906 M 31.765625 47.328125 C 32.445312 50.585938 35.105469 50.785156 35.714844 47.625 C 36.03125 45.984375 35.296875 45 33.75 45 C 32.308594 45 31.480469 45.96875 31.765625 47.328125 M 42.667969 46.628906 C 41.125 49.132812 44.597656 52 46.667969 49.929688 C 48.402344 48.199219 47.316406 45 45 45 C 44.273438 45 43.222656 45.734375 42.667969 46.628906 M 54.265625 47.328125 C 54.945312 50.585938 57.605469 50.785156 58.214844 47.625 C 58.53125 45.984375 57.796875 45 56.25 45 C 54.808594 45 53.980469 45.96875 54.265625 47.328125 M 65.167969 46.628906 C 63.625 49.132812 67.097656 52 69.167969 49.929688 C 70.902344 48.199219 69.816406 45 67.5 45 C 66.773438 45 65.722656 45.734375 65.167969 46.628906 M 76.5 53.140625 C 76.5 54.53125 77.78125 55.5 79.625 55.5 C 83.28125 55.5 82.765625 51.996094 79 51.265625 C 77.519531 50.976562 76.5 51.742188 76.5 53.140625 M 19.875 58.875 C 20.21875 59.90625 21.402344 60.75 22.5 60.75 C 23.597656 60.75 24.78125 59.90625 25.125 58.875 C 25.496094 57.757812 24.433594 57 22.5 57 C 20.566406 57 19.503906 57.757812 19.875 58.875 M 31.796875 64.875 L 32.25 72.75 L 47.25 72.75 L 48.15625 57 L 31.34375 57 L 31.796875 64.875 M 54.296875 64.875 L 54.75 72.75 L 69.75 72.75 L 70.65625 57 L 53.84375 57 L 54.296875 64.875 M 36 64.5 C 36 66.5 37 67.5 39 67.5 C 41 67.5 42 66.5 42 64.5 C 42 62.5 41 61.5 39 61.5 C 37 61.5 36 62.5 36 64.5 M 58.5 64.5 C 58.5 66.5 59.5 67.5 61.5 67.5 C 63.5 67.5 64.5 66.5 64.5 64.5 C 64.5 62.5 63.5 61.5 61.5 61.5 C 59.5 61.5 58.5 62.5 58.5 64.5 M 20.167969 69.128906 C 18.625 71.632812 22.097656 74.5 24.167969 72.429688 C 25.902344 70.699219 24.816406 67.5 22.5 67.5 C 21.773438 67.5 20.722656 68.234375 20.167969 69.128906 "/>
<path style=" stroke:none;fill-rule:evenodd;fill:rgb(91.37255%,83.529413%,51.764709%);fill-opacity:1;" d="M 16.5 19.5 C 16.5 20.324219 17.554688 21 18.839844 21 C 20.125 21 20.761719 20.324219 20.25 19.5 C 19.738281 18.675781 18.6875 18 17.910156 18 C 17.132812 18 16.5 18.675781 16.5 19.5 M 24.75 19.5 C 24.148438 20.472656 31.265625 21 45 21 C 58.734375 21 65.851562 20.472656 65.25 19.5 C 64.019531 17.507812 25.980469 17.507812 24.75 19.5 M 69.75 19.5 C 69.238281 20.324219 70.214844 21 71.910156 21 C 73.609375 21 75 20.324219 75 19.5 C 75 18.675781 74.027344 18 72.839844 18 C 71.648438 18 70.261719 18.675781 69.75 19.5 M 13.839844 53.625 L 14.25 78.75 L 75.75 78.75 L 76.5 69 C 77.132812 60.769531 77.660156 59.320312 79.875 59.691406 C 81.433594 59.953125 82.5 59.1875 82.5 57.816406 C 82.5 56.5 81.203125 55.5 79.5 55.5 C 77.738281 55.5 76.5 54.5 76.5 53.074219 C 76.5 51.386719 77.414062 50.890625 79.5 51.433594 C 81.742188 52.023438 82.5 51.480469 82.5 49.292969 C 82.5 47.339844 81.628906 46.515625 79.875 46.808594 C 78.347656 47.066406 77.25 46.3125 77.25 45 C 77.25 43.6875 78.347656 42.933594 79.875 43.191406 C 81.628906 43.484375 82.5 42.660156 82.5 40.707031 C 82.5 38.519531 81.742188 37.976562 79.5 38.566406 C 76.90625 39.242188 76.5 38.613281 76.5 33.925781 L 76.5 28.5 L 13.429688 28.5 L 13.839844 53.625 M 19.875 36.375 C 20.21875 37.40625 21.402344 38.25 22.5 38.25 C 23.597656 38.25 24.78125 37.40625 25.125 36.375 C 25.496094 35.257812 24.433594 34.5 22.5 34.5 C 20.566406 34.5 19.503906 35.257812 19.875 36.375 M 31.5 36.75 C 31.5 37.988281 32.511719 39 33.75 39 C 34.988281 39 36 37.988281 36 36.75 C 36 35.511719 34.988281 34.5 33.75 34.5 C 32.511719 34.5 31.5 35.511719 31.5 36.75 M 42.375 36.375 C 42.71875 37.40625 43.902344 38.25 45 38.25 C 46.097656 38.25 47.28125 37.40625 47.625 36.375 C 47.996094 35.257812 46.933594 34.5 45 34.5 C 43.066406 34.5 42.003906 35.257812 42.375 36.375 M 54 36.75 C 54 37.988281 55.011719 39 56.25 39 C 57.488281 39 58.5 37.988281 58.5 36.75 C 58.5 35.511719 57.488281 34.5 56.25 34.5 C 55.011719 34.5 54 35.511719 54 36.75 M 64.875 36.375 C 65.21875 37.40625 66.402344 38.25 67.5 38.25 C 68.597656 38.25 69.78125 37.40625 70.125 36.375 C 70.496094 35.257812 69.433594 34.5 67.5 34.5 C 65.566406 34.5 64.503906 35.257812 64.875 36.375 M 20.167969 46.628906 C 18.625 49.132812 22.097656 52 24.167969 49.929688 C 25.902344 48.199219 24.816406 45 22.5 45 C 21.773438 45 20.722656 45.734375 20.167969 46.628906 M 31.765625 47.328125 C 32.445312 50.585938 35.105469 50.785156 35.714844 47.625 C 36.03125 45.984375 35.296875 45 33.75 45 C 32.308594 45 31.480469 45.96875 31.765625 47.328125 M 42.667969 46.628906 C 41.125 49.132812 44.597656 52 46.667969 49.929688 C 48.402344 48.199219 47.316406 45 45 45 C 44.273438 45 43.222656 45.734375 42.667969 46.628906 M 54.265625 47.328125 C 54.945312 50.585938 57.605469 50.785156 58.214844 47.625 C 58.53125 45.984375 57.796875 45 56.25 45 C 54.808594 45 53.980469 45.96875 54.265625 47.328125 M 65.167969 46.628906 C 63.625 49.132812 67.097656 52 69.167969 49.929688 C 70.902344 48.199219 69.816406 45 67.5 45 C 66.773438 45 65.722656 45.734375 65.167969 46.628906 M 19.875 58.875 C 20.21875 59.90625 21.402344 60.75 22.5 60.75 C 23.597656 60.75 24.78125 59.90625 25.125 58.875 C 25.496094 57.757812 24.433594 57 22.5 57 C 20.566406 57 19.503906 57.757812 19.875 58.875 M 31.796875 64.875 L 32.25 72.75 L 47.25 72.75 L 48.15625 57 L 31.34375 57 L 31.796875 64.875 M 54.296875 64.875 L 54.75 72.75 L 69.75 72.75 L 70.65625 57 L 53.84375 57 L 54.296875 64.875 M 36 64.5 C 36 66.5 37 67.5 39 67.5 C 41 67.5 42 66.5 42 64.5 C 42 62.5 41 61.5 39 61.5 C 37 61.5 36 62.5 36 64.5 M 58.5 64.5 C 58.5 66.5 59.5 67.5 61.5 67.5 C 63.5 67.5 64.5 66.5 64.5 64.5 C 64.5 62.5 63.5 61.5 61.5 61.5 C 59.5 61.5 58.5 62.5 58.5 64.5 M 20.167969 69.128906 C 18.625 71.632812 22.097656 74.5 24.167969 72.429688 C 25.902344 70.699219 24.816406 67.5 22.5 67.5 C 21.773438 67.5 20.722656 68.234375 20.167969 69.128906 "/>
</g>
</svg>
