<?xml version="1.0" encoding="UTF-8"?>
<svg xmlns="http://www.w3.org/2000/svg" xmlns:xlink="http://www.w3.org/1999/xlink" width="75px" height="75px" viewBox="0 0 75 75" version="1.1">
<g id="surface1">
<path style=" stroke:none;fill-rule:evenodd;fill:rgb(3.529412%,4.705882%,4.313726%);fill-opacity:1;" d="M 16.628906 6.183594 C 16.171875 7.929688 14.707031 8.722656 11.433594 8.996094 L 6.875 9.375 L 6.875 70.625 L 68.125 70.625 L 68.488281 60.3125 C 68.71875 53.769531 68.375 50 67.550781 50 C 66.835938 50 65.828125 49.988281 65.3125 49.980469 C 64.796875 49.96875 64.09375 53.484375 63.75 57.792969 L 63.125 65.625 L 11.875 65.625 L 11.53125 44.6875 L 11.191406 23.75 L 63.75 23.75 L 63.75 28.214844 C 63.75 31.796875 64.183594 32.601562 65.9375 32.261719 C 67.828125 31.898438 68.125 30.3125 68.125 20.609375 L 68.125 9.375 L 63.566406 8.996094 C 60.292969 8.722656 58.828125 7.929688 58.371094 6.183594 C 57.542969 3.015625 54.949219 3.054688 54.113281 6.25 C 53.5 8.585938 52.40625 8.75 37.5 8.75 C 22.59375 8.75 21.5 8.585938 20.886719 6.25 C 20.050781 3.054688 17.457031 3.015625 16.628906 6.183594 M 13.75 16.25 C 13.75 16.9375 14.628906 17.5 15.699219 17.5 C 16.769531 17.5 17.300781 16.9375 16.875 16.25 C 16.449219 15.5625 15.574219 15 14.925781 15 C 14.277344 15 13.75 15.5625 13.75 16.25 M 20.625 16.25 C 20.125 17.0625 26.054688 17.5 37.5 17.5 C 48.945312 17.5 54.875 17.0625 54.375 16.25 C 53.347656 14.589844 21.652344 14.589844 20.625 16.25 M 58.125 16.25 C 57.699219 16.9375 58.511719 17.5 59.925781 17.5 C 61.339844 17.5 62.5 16.9375 62.5 16.25 C 62.5 15.5625 61.691406 15 60.699219 15 C 59.707031 15 58.550781 15.5625 58.125 16.25 M 16.5625 30.3125 C 16.847656 31.171875 17.832031 31.875 18.75 31.875 C 19.667969 31.875 20.652344 31.171875 20.9375 30.3125 C 21.246094 29.382812 20.359375 28.75 18.75 28.75 C 17.140625 28.75 16.253906 29.382812 16.5625 30.3125 M 26.25 30.625 C 26.25 31.65625 27.09375 32.5 28.125 32.5 C 29.15625 32.5 30 31.65625 30 30.625 C 30 29.59375 29.15625 28.75 28.125 28.75 C 27.09375 28.75 26.25 29.59375 26.25 30.625 M 35.3125 30.3125 C 35.597656 31.171875 36.582031 31.875 37.5 31.875 C 38.417969 31.875 39.402344 31.171875 39.6875 30.3125 C 39.996094 29.382812 39.109375 28.75 37.5 28.75 C 35.890625 28.75 35.003906 29.382812 35.3125 30.3125 M 45 30.625 C 45 31.65625 45.84375 32.5 46.875 32.5 C 47.90625 32.5 48.75 31.65625 48.75 30.625 C 48.75 29.59375 47.90625 28.75 46.875 28.75 C 45.84375 28.75 45 29.59375 45 30.625 M 54.0625 30.3125 C 54.347656 31.171875 55.332031 31.875 56.25 31.875 C 57.167969 31.875 58.152344 31.171875 58.4375 30.3125 C 58.746094 29.382812 57.859375 28.75 56.25 28.75 C 54.640625 28.75 53.753906 29.382812 54.0625 30.3125 M 64.339844 36.304688 C 63.210938 38.136719 64.855469 39.976562 66.914062 39.1875 C 67.921875 38.800781 68.75 38.039062 68.75 37.5 C 68.75 35.953125 65.160156 34.976562 64.339844 36.304688 M 16.808594 38.859375 C 15.519531 40.945312 18.417969 43.332031 20.140625 41.609375 C 21.582031 40.167969 20.679688 37.5 18.75 37.5 C 18.144531 37.5 17.269531 38.109375 16.808594 38.859375 M 26.472656 39.441406 C 27.035156 42.15625 29.253906 42.324219 29.761719 39.6875 C 30.023438 38.320312 29.414062 37.5 28.125 37.5 C 26.921875 37.5 26.234375 38.308594 26.472656 39.441406 M 35.558594 38.859375 C 34.269531 40.945312 37.167969 43.332031 38.890625 41.609375 C 40.332031 40.167969 39.429688 37.5 37.5 37.5 C 36.894531 37.5 36.019531 38.109375 35.558594 38.859375 M 45.222656 39.441406 C 45.785156 42.15625 48.003906 42.324219 48.511719 39.6875 C 48.773438 38.320312 48.164062 37.5 46.875 37.5 C 45.671875 37.5 44.984375 38.308594 45.222656 39.441406 M 54.308594 38.859375 C 53.019531 40.945312 55.917969 43.332031 57.640625 41.609375 C 59.082031 40.167969 58.179688 37.5 56.25 37.5 C 55.644531 37.5 54.769531 38.109375 54.308594 38.859375 M 63.75 44.285156 C 63.75 45.441406 64.820312 46.25 66.355469 46.25 C 69.398438 46.25 68.96875 43.328125 65.832031 42.722656 C 64.601562 42.480469 63.75 43.117188 63.75 44.285156 M 16.5625 49.0625 C 16.847656 49.921875 17.832031 50.625 18.75 50.625 C 19.667969 50.625 20.652344 49.921875 20.9375 49.0625 C 21.246094 48.132812 20.359375 47.5 18.75 47.5 C 17.140625 47.5 16.253906 48.132812 16.5625 49.0625 M 26.496094 54.0625 L 26.875 60.625 L 39.375 60.625 L 40.132812 47.5 L 26.117188 47.5 L 26.496094 54.0625 M 45.246094 54.0625 L 45.625 60.625 L 58.125 60.625 L 58.882812 47.5 L 44.867188 47.5 L 45.246094 54.0625 M 30 53.75 C 30 55.417969 30.832031 56.25 32.5 56.25 C 34.167969 56.25 35 55.417969 35 53.75 C 35 52.082031 34.167969 51.25 32.5 51.25 C 30.832031 51.25 30 52.082031 30 53.75 M 48.75 53.75 C 48.75 55.417969 49.582031 56.25 51.25 56.25 C 52.917969 56.25 53.75 55.417969 53.75 53.75 C 53.75 52.082031 52.917969 51.25 51.25 51.25 C 49.582031 51.25 48.75 52.082031 48.75 53.75 M 16.808594 57.609375 C 15.519531 59.695312 18.417969 62.082031 20.140625 60.359375 C 21.582031 58.917969 20.679688 56.25 18.75 56.25 C 18.144531 56.25 17.269531 56.859375 16.808594 57.609375 "/>
<path style=" stroke:none;fill-rule:evenodd;fill:rgb(45.09804%,67.450982%,54.509807%);fill-opacity:1;" d="M 13.75 16.25 C 13.75 16.9375 14.628906 17.5 15.699219 17.5 C 16.769531 17.5 17.300781 16.9375 16.875 16.25 C 16.449219 15.5625 15.574219 15 14.925781 15 C 14.277344 15 13.75 15.5625 13.75 16.25 M 20.625 16.25 C 20.125 17.0625 26.054688 17.5 37.5 17.5 C 48.945312 17.5 54.875 17.0625 54.375 16.25 C 53.347656 14.589844 21.652344 14.589844 20.625 16.25 M 58.125 16.25 C 57.699219 16.9375 58.511719 17.5 59.925781 17.5 C 61.339844 17.5 62.5 16.9375 62.5 16.25 C 62.5 15.5625 61.691406 15 60.699219 15 C 59.707031 15 58.550781 15.5625 58.125 16.25 M 11.53125 44.6875 L 11.875 65.625 L 63.125 65.625 L 63.75 57.5 C 64.277344 50.640625 64.714844 49.433594 66.5625 49.742188 C 67.859375 49.960938 68.75 49.324219 68.75 48.179688 C 68.75 47.082031 67.671875 46.25 66.25 46.25 C 64.78125 46.25 63.75 45.417969 63.75 44.230469 C 63.75 42.824219 64.511719 42.40625 66.25 42.863281 C 68.117188 43.351562 68.75 42.898438 68.75 41.078125 C 68.75 39.449219 68.023438 38.761719 66.5625 39.007812 C 65.289062 39.222656 64.375 38.59375 64.375 37.5 C 64.375 36.40625 65.289062 35.777344 66.5625 35.992188 C 68.023438 36.238281 68.75 35.550781 68.75 33.921875 C 68.75 32.101562 68.117188 31.648438 66.25 32.136719 C 64.089844 32.703125 63.75 32.175781 63.75 28.269531 L 63.75 23.75 L 11.191406 23.75 L 11.53125 44.6875 M 16.5625 30.3125 C 16.847656 31.171875 17.832031 31.875 18.75 31.875 C 19.667969 31.875 20.652344 31.171875 20.9375 30.3125 C 21.246094 29.382812 20.359375 28.75 18.75 28.75 C 17.140625 28.75 16.253906 29.382812 16.5625 30.3125 M 26.25 30.625 C 26.25 31.65625 27.09375 32.5 28.125 32.5 C 29.15625 32.5 30 31.65625 30 30.625 C 30 29.59375 29.15625 28.75 28.125 28.75 C 27.09375 28.75 26.25 29.59375 26.25 30.625 M 35.3125 30.3125 C 35.597656 31.171875 36.582031 31.875 37.5 31.875 C 38.417969 31.875 39.402344 31.171875 39.6875 30.3125 C 39.996094 29.382812 39.109375 28.75 37.5 28.75 C 35.890625 28.75 35.003906 29.382812 35.3125 30.3125 M 45 30.625 C 45 31.65625 45.84375 32.5 46.875 32.5 C 47.90625 32.5 48.75 31.65625 48.75 30.625 C 48.75 29.59375 47.90625 28.75 46.875 28.75 C 45.84375 28.75 45 29.59375 45 30.625 M 54.0625 30.3125 C 54.347656 31.171875 55.332031 31.875 56.25 31.875 C 57.167969 31.875 58.152344 31.171875 58.4375 30.3125 C 58.746094 29.382812 57.859375 28.75 56.25 28.75 C 54.640625 28.75 53.753906 29.382812 54.0625 30.3125 M 16.808594 38.859375 C 15.519531 40.945312 18.417969 43.332031 20.140625 41.609375 C 21.582031 40.167969 20.679688 37.5 18.75 37.5 C 18.144531 37.5 17.269531 38.109375 16.808594 38.859375 M 26.472656 39.441406 C 27.035156 42.15625 29.253906 42.324219 29.761719 39.6875 C 30.023438 38.320312 29.414062 37.5 28.125 37.5 C 26.921875 37.5 26.234375 38.308594 26.472656 39.441406 M 35.558594 38.859375 C 34.269531 40.945312 37.167969 43.332031 38.890625 41.609375 C 40.332031 40.167969 39.429688 37.5 37.5 37.5 C 36.894531 37.5 36.019531 38.109375 35.558594 38.859375 M 45.222656 39.441406 C 45.785156 42.15625 48.003906 42.324219 48.511719 39.6875 C 48.773438 38.320312 48.164062 37.5 46.875 37.5 C 45.671875 37.5 44.984375 38.308594 45.222656 39.441406 M 54.308594 38.859375 C 53.019531 40.945312 55.917969 43.332031 57.640625 41.609375 C 59.082031 40.167969 58.179688 37.5 56.25 37.5 C 55.644531 37.5 54.769531 38.109375 54.308594 38.859375 M 16.5625 49.0625 C 16.847656 49.921875 17.832031 50.625 18.75 50.625 C 19.667969 50.625 20.652344 49.921875 20.9375 49.0625 C 21.246094 48.132812 20.359375 47.5 18.75 47.5 C 17.140625 47.5 16.253906 48.132812 16.5625 49.0625 M 26.496094 54.0625 L 26.875 60.625 L 39.375 60.625 L 40.132812 47.5 L 26.117188 47.5 L 26.496094 54.0625 M 45.246094 54.0625 L 45.625 60.625 L 58.125 60.625 L 58.882812 47.5 L 44.867188 47.5 L 45.246094 54.0625 M 30 53.75 C 30 55.417969 30.832031 56.25 32.5 56.25 C 34.167969 56.25 35 55.417969 35 53.75 C 35 52.082031 34.167969 51.25 32.5 51.25 C 30.832031 51.25 30 52.082031 30 53.75 M 48.75 53.75 C 48.75 55.417969 49.582031 56.25 51.25 56.25 C 52.917969 56.25 53.75 55.417969 53.75 53.75 C 53.75 52.082031 52.917969 51.25 51.25 51.25 C 49.582031 51.25 48.75 52.082031 48.75 53.75 M 16.808594 57.609375 C 15.519531 59.695312 18.417969 62.082031 20.140625 60.359375 C 21.582031 58.917969 20.679688 56.25 18.75 56.25 C 18.144531 56.25 17.269531 56.859375 16.808594 57.609375 "/>
</g>
</svg>
