<?xml version="1.0" encoding="UTF-8"?>
<svg xmlns="http://www.w3.org/2000/svg" xmlns:xlink="http://www.w3.org/1999/xlink" width="105px" height="105px" viewBox="0 0 105 105" version="1.1">
<g id="surface1">
<path style=" stroke:none;fill-rule:evenodd;fill:rgb(20.784314%,37.64706%,46.666667%);fill-opacity:1;" d="M 23.28125 8.65625 C 22.644531 11.101562 20.59375 12.210938 16.007812 12.59375 L 9.625 13.125 L 9.625 98.875 L 95.375 98.875 L 95.882812 84.4375 C 96.207031 75.28125 95.726562 70 94.570312 70 C 93.570312 70 92.160156 69.984375 91.4375 69.96875 C 90.714844 69.953125 89.730469 74.875 89.25 80.90625 L 88.375 91.875 L 16.625 91.875 L 15.664062 33.25 L 89.25 33.25 L 89.25 39.503906 C 89.25 44.515625 89.855469 45.640625 92.3125 45.167969 C 94.957031 44.65625 95.375 42.4375 95.375 28.851562 L 95.375 13.125 L 88.992188 12.59375 C 84.40625 12.210938 82.355469 11.101562 81.71875 8.65625 C 80.558594 4.21875 76.925781 4.277344 75.757812 8.75 C 74.902344 12.019531 73.371094 12.25 52.5 12.25 C 31.628906 12.25 30.097656 12.019531 29.242188 8.75 C 28.074219 4.277344 24.441406 4.21875 23.28125 8.65625 M 19.25 22.75 C 19.25 23.710938 20.476562 24.5 21.976562 24.5 C 23.476562 24.5 24.21875 23.710938 23.625 22.75 C 23.03125 21.789062 21.804688 21 20.898438 21 C 19.992188 21 19.25 21.789062 19.25 22.75 M 28.875 22.75 C 28.171875 23.886719 36.476562 24.5 52.5 24.5 C 68.523438 24.5 76.828125 23.886719 76.125 22.75 C 74.6875 20.425781 30.3125 20.425781 28.875 22.75 M 81.375 22.75 C 80.78125 23.710938 81.914062 24.5 83.898438 24.5 C 85.878906 24.5 87.5 23.710938 87.5 22.75 C 87.5 21.789062 86.367188 21 84.976562 21 C 83.589844 21 81.96875 21.789062 81.375 22.75 M 23.1875 42.4375 C 23.589844 43.640625 24.96875 44.625 26.25 44.625 C 27.53125 44.625 28.910156 43.640625 29.3125 42.4375 C 29.746094 41.136719 28.503906 40.25 26.25 40.25 C 23.996094 40.25 22.753906 41.136719 23.1875 42.4375 M 36.75 42.875 C 36.75 44.320312 37.929688 45.5 39.375 45.5 C 40.820312 45.5 42 44.320312 42 42.875 C 42 41.429688 40.820312 40.25 39.375 40.25 C 37.929688 40.25 36.75 41.429688 36.75 42.875 M 49.4375 42.4375 C 49.839844 43.640625 51.21875 44.625 52.5 44.625 C 53.78125 44.625 55.160156 43.640625 55.5625 42.4375 C 55.996094 41.136719 54.753906 40.25 52.5 40.25 C 50.246094 40.25 49.003906 41.136719 49.4375 42.4375 M 63 42.875 C 63 44.320312 64.179688 45.5 65.625 45.5 C 67.070312 45.5 68.25 44.320312 68.25 42.875 C 68.25 41.429688 67.070312 40.25 65.625 40.25 C 64.179688 40.25 63 41.429688 63 42.875 M 75.6875 42.4375 C 76.089844 43.640625 77.46875 44.625 78.75 44.625 C 80.03125 44.625 81.410156 43.640625 81.8125 42.4375 C 82.246094 41.136719 81.003906 40.25 78.75 40.25 C 76.496094 40.25 75.253906 41.136719 75.6875 42.4375 M 90.078125 50.828125 C 88.492188 53.390625 90.796875 55.96875 93.679688 54.859375 C 95.09375 54.320312 96.25 53.257812 96.25 52.5 C 96.25 50.332031 91.226562 48.96875 90.078125 50.828125 M 23.53125 54.402344 C 21.726562 57.320312 25.78125 60.667969 28.199219 58.253906 C 30.21875 56.234375 28.953125 52.5 26.25 52.5 C 25.402344 52.5 24.179688 53.355469 23.53125 54.402344 M 37.058594 55.21875 C 37.851562 59.019531 40.957031 59.25 41.667969 55.5625 C 42.035156 53.644531 41.175781 52.5 39.375 52.5 C 37.691406 52.5 36.730469 53.632812 37.058594 55.21875 M 49.78125 54.402344 C 47.976562 57.320312 52.03125 60.667969 54.449219 58.253906 C 56.46875 56.234375 55.203125 52.5 52.5 52.5 C 51.652344 52.5 50.429688 53.355469 49.78125 54.402344 M 63.308594 55.21875 C 64.101562 59.019531 67.207031 59.25 67.917969 55.5625 C 68.285156 53.644531 67.425781 52.5 65.625 52.5 C 63.941406 52.5 62.980469 53.632812 63.308594 55.21875 M 76.03125 54.402344 C 74.226562 57.320312 78.28125 60.667969 80.699219 58.253906 C 82.71875 56.234375 81.453125 52.5 78.75 52.5 C 77.902344 52.5 76.679688 53.355469 76.03125 54.402344 M 89.25 61.996094 C 89.25 63.621094 90.746094 64.75 92.894531 64.75 C 97.160156 64.75 96.558594 60.660156 92.167969 59.808594 C 90.441406 59.472656 89.25 60.367188 89.25 61.996094 M 23.1875 68.6875 C 23.589844 69.890625 24.96875 70.875 26.25 70.875 C 27.53125 70.875 28.910156 69.890625 29.3125 68.6875 C 29.746094 67.386719 28.503906 66.5 26.25 66.5 C 23.996094 66.5 22.753906 67.386719 23.1875 68.6875 M 37.097656 75.6875 L 37.625 84.875 L 55.125 84.875 L 55.652344 75.6875 L 56.183594 66.5 L 36.566406 66.5 L 37.097656 75.6875 M 63.347656 75.6875 L 63.875 84.875 L 81.375 84.875 L 81.902344 75.6875 L 82.433594 66.5 L 62.816406 66.5 L 63.347656 75.6875 M 42 75.25 C 42 77.582031 43.167969 78.75 45.5 78.75 C 47.832031 78.75 49 77.582031 49 75.25 C 49 72.917969 47.832031 71.75 45.5 71.75 C 43.167969 71.75 42 72.917969 42 75.25 M 68.25 75.25 C 68.25 77.582031 69.417969 78.75 71.75 78.75 C 74.082031 78.75 75.25 77.582031 75.25 75.25 C 75.25 72.917969 74.082031 71.75 71.75 71.75 C 69.417969 71.75 68.25 72.917969 68.25 75.25 M 23.53125 80.652344 C 21.726562 83.570312 25.78125 86.917969 28.199219 84.503906 C 30.21875 82.484375 28.953125 78.75 26.25 78.75 C 25.402344 78.75 24.179688 79.605469 23.53125 80.652344 "/>
<path style=" stroke:none;fill-rule:evenodd;fill:rgb(91.37255%,83.529413%,51.764709%);fill-opacity:1;" d="M 19.25 22.75 C 19.25 23.710938 20.476562 24.5 21.976562 24.5 C 23.476562 24.5 24.21875 23.710938 23.625 22.75 C 23.03125 21.789062 21.804688 21 20.898438 21 C 19.992188 21 19.25 21.789062 19.25 22.75 M 28.875 22.75 C 28.171875 23.886719 36.476562 24.5 52.5 24.5 C 68.523438 24.5 76.828125 23.886719 76.125 22.75 C 74.6875 20.425781 30.3125 20.425781 28.875 22.75 M 81.375 22.75 C 80.78125 23.710938 81.914062 24.5 83.898438 24.5 C 85.878906 24.5 87.5 23.710938 87.5 22.75 C 87.5 21.789062 86.367188 21 84.976562 21 C 83.589844 21 81.96875 21.789062 81.375 22.75 M 16.144531 62.5625 L 16.625 91.875 L 88.375 91.875 L 89.25 80.5 C 89.988281 70.898438 90.601562 69.207031 93.1875 69.640625 C 95.003906 69.945312 96.25 69.054688 96.25 67.453125 C 96.25 65.917969 94.738281 64.75 92.75 64.75 C 90.695312 64.75 89.25 63.582031 89.25 61.921875 C 89.25 59.953125 90.316406 59.371094 92.75 60.007812 C 95.367188 60.691406 96.25 60.058594 96.25 57.511719 C 96.25 55.230469 95.234375 54.265625 93.1875 54.609375 C 91.402344 54.910156 90.125 54.03125 90.125 52.5 C 90.125 50.96875 91.402344 50.089844 93.1875 50.390625 C 95.234375 50.734375 96.25 49.769531 96.25 47.488281 C 96.25 44.941406 95.367188 44.308594 92.75 44.992188 C 89.726562 45.785156 89.25 45.046875 89.25 39.578125 L 89.25 33.25 L 15.664062 33.25 L 16.144531 62.5625 M 23.1875 42.4375 C 23.589844 43.640625 24.96875 44.625 26.25 44.625 C 27.53125 44.625 28.910156 43.640625 29.3125 42.4375 C 29.746094 41.136719 28.503906 40.25 26.25 40.25 C 23.996094 40.25 22.753906 41.136719 23.1875 42.4375 M 36.75 42.875 C 36.75 44.320312 37.929688 45.5 39.375 45.5 C 40.820312 45.5 42 44.320312 42 42.875 C 42 41.429688 40.820312 40.25 39.375 40.25 C 37.929688 40.25 36.75 41.429688 36.75 42.875 M 49.4375 42.4375 C 49.839844 43.640625 51.21875 44.625 52.5 44.625 C 53.78125 44.625 55.160156 43.640625 55.5625 42.4375 C 55.996094 41.136719 54.753906 40.25 52.5 40.25 C 50.246094 40.25 49.003906 41.136719 49.4375 42.4375 M 63 42.875 C 63 44.320312 64.179688 45.5 65.625 45.5 C 67.070312 45.5 68.25 44.320312 68.25 42.875 C 68.25 41.429688 67.070312 40.25 65.625 40.25 C 64.179688 40.25 63 41.429688 63 42.875 M 75.6875 42.4375 C 76.089844 43.640625 77.46875 44.625 78.75 44.625 C 80.03125 44.625 81.410156 43.640625 81.8125 42.4375 C 82.246094 41.136719 81.003906 40.25 78.75 40.25 C 76.496094 40.25 75.253906 41.136719 75.6875 42.4375 M 23.53125 54.402344 C 21.726562 57.320312 25.78125 60.667969 28.199219 58.253906 C 30.21875 56.234375 28.953125 52.5 26.25 52.5 C 25.402344 52.5 24.179688 53.355469 23.53125 54.402344 M 37.058594 55.21875 C 37.851562 59.019531 40.957031 59.25 41.667969 55.5625 C 42.035156 53.644531 41.175781 52.5 39.375 52.5 C 37.691406 52.5 36.730469 53.632812 37.058594 55.21875 M 49.78125 54.402344 C 47.976562 57.320312 52.03125 60.667969 54.449219 58.253906 C 56.46875 56.234375 55.203125 52.5 52.5 52.5 C 51.652344 52.5 50.429688 53.355469 49.78125 54.402344 M 63.308594 55.21875 C 64.101562 59.019531 67.207031 59.25 67.917969 55.5625 C 68.285156 53.644531 67.425781 52.5 65.625 52.5 C 63.941406 52.5 62.980469 53.632812 63.308594 55.21875 M 76.03125 54.402344 C 74.226562 57.320312 78.28125 60.667969 80.699219 58.253906 C 82.71875 56.234375 81.453125 52.5 78.75 52.5 C 77.902344 52.5 76.679688 53.355469 76.03125 54.402344 M 23.1875 68.6875 C 23.589844 69.890625 24.96875 70.875 26.25 70.875 C 27.53125 70.875 28.910156 69.890625 29.3125 68.6875 C 29.746094 67.386719 28.503906 66.5 26.25 66.5 C 23.996094 66.5 22.753906 67.386719 23.1875 68.6875 M 37.097656 75.6875 L 37.625 84.875 L 55.125 84.875 L 55.652344 75.6875 L 56.183594 66.5 L 36.566406 66.5 L 37.097656 75.6875 M 63.347656 75.6875 L 63.875 84.875 L 81.375 84.875 L 81.902344 75.6875 L 82.433594 66.5 L 62.816406 66.5 L 63.347656 75.6875 M 42 75.25 C 42 77.582031 43.167969 78.75 45.5 78.75 C 47.832031 78.75 49 77.582031 49 75.25 C 49 72.917969 47.832031 71.75 45.5 71.75 C 43.167969 71.75 42 72.917969 42 75.25 M 68.25 75.25 C 68.25 77.582031 69.417969 78.75 71.75 78.75 C 74.082031 78.75 75.25 77.582031 75.25 75.25 C 75.25 72.917969 74.082031 71.75 71.75 71.75 C 69.417969 71.75 68.25 72.917969 68.25 75.25 M 23.53125 80.652344 C 21.726562 83.570312 25.78125 86.917969 28.199219 84.503906 C 30.21875 82.484375 28.953125 78.75 26.25 78.75 C 25.402344 78.75 24.179688 79.605469 23.53125 80.652344 "/>
</g>
</svg>
