<svg width="120" height="60" viewBox="0 0 120 60" fill="none" xmlns="http://www.w3.org/2000/svg">
<path d="M26.4263 25.4688L16.4834 38.4093H26.7883V40.5659H13V38.8397L22.9412 25.9001H13.508V23.7444H26.4263V25.4688Z" fill="#CC2936"/>
<path d="M45.9457 32.1551C45.9577 33.3615 45.7299 34.5584 45.2753 35.6776C44.8499 36.7304 44.2122 37.6862 43.4012 38.4866C42.5901 39.2869 41.6228 39.9149 40.5583 40.3322C39.3975 40.7862 38.1586 41.0121 36.9108 40.9972C35.6754 41.0099 34.4494 40.7841 33.3013 40.3322C32.2368 39.9149 31.2695 39.2869 30.4584 38.4866C29.6473 37.6862 29.0096 36.7304 28.5842 35.6776C28.1282 34.5587 27.8998 33.3617 27.9121 32.1551C27.8997 30.9486 28.1281 29.7515 28.5842 28.6327C29.0094 27.5796 29.6471 26.6235 30.4584 25.8231C31.2696 25.0228 32.2373 24.3949 33.3021 23.978C34.4501 23.5255 35.6762 23.2993 36.9116 23.3122C38.1596 23.2972 39.3986 23.5234 40.5591 23.978C41.6238 24.395 42.5914 25.0229 43.4025 25.8233C44.2136 26.6237 44.8512 27.5797 45.2762 28.6327C45.7306 29.7519 45.9581 30.9488 45.9457 32.1551ZM43.3341 32.1551C43.3408 31.2607 43.1869 30.3723 42.8797 29.5313C42.5975 28.7473 42.1611 28.0265 41.5959 27.4106C41.0304 26.8051 40.3448 26.3217 39.582 25.9909C37.8735 25.2948 35.9567 25.2948 34.2481 25.9909C33.4893 26.319 32.8094 26.8029 32.2533 27.4106C31.6967 28.0303 31.2655 28.7503 30.9834 29.5313C30.3786 31.2289 30.3786 33.0805 30.9834 34.7781C31.2649 35.5597 31.6961 36.2801 32.2533 36.8997C32.8094 37.5073 33.4893 37.9913 34.2481 38.3194C35.9571 39.0132 37.873 39.0132 39.582 38.3194C40.3448 37.9886 41.0304 37.5052 41.5959 36.8997C42.1632 36.2843 42.6011 35.5631 42.884 34.7781C43.1898 33.9372 43.3423 33.049 43.3341 32.1551Z" fill="#D0D0D0"/>
<path d="M57.6311 25.9003H52.7326V35.8215C52.719 36.3366 52.7801 36.8511 52.9141 37.3491C53.0052 37.6913 53.1799 38.0061 53.4229 38.2656C53.6379 38.4802 53.906 38.6351 54.2004 38.7149C54.5257 38.8018 54.8614 38.8439 55.1983 38.8399C55.6278 38.8376 56.0551 38.7774 56.4683 38.661C56.8834 38.5491 57.285 38.3924 57.6657 38.1937L57.7745 40.3863C56.7551 40.818 55.6535 41.0265 54.5452 40.9973C54.0619 40.9944 53.5807 40.9341 53.1119 40.8176C52.6116 40.6951 52.1461 40.461 51.7512 40.133C51.3115 39.7594 50.9639 39.291 50.7352 38.7637C50.4422 38.0453 50.3062 37.2735 50.3361 36.4993V25.9003H46.7456V23.7445H50.3378V19H52.7326V23.7445H57.6311V25.9003Z" fill="#D0D0D0"/>
<path d="M61.1137 32.802C61.1803 33.6216 61.3877 34.4239 61.7271 35.1743C62.3679 36.6117 63.5353 37.7549 64.9936 38.3732C65.7385 38.6884 66.5413 38.8472 67.3513 38.8396C68.5209 38.8708 69.6745 38.5652 70.6722 37.9599C71.5243 37.4489 72.2497 36.7549 72.7949 35.9291L74.6445 37.4387C73.7621 38.6014 72.6116 39.5381 71.2891 40.1704C70.0522 40.7247 68.7088 41.0068 67.3513 40.9971C66.1511 41.0077 64.9609 40.7817 63.8498 40.3321C62.8061 39.9103 61.8612 39.2802 61.074 38.4811C60.2875 37.6714 59.6654 36.7197 59.2416 35.6775C58.7863 34.5584 58.5582 33.3615 58.5703 32.155C58.5579 30.9502 58.78 29.7542 59.2243 28.6326C59.6373 27.5889 60.2538 26.6359 61.0386 25.8282C61.8126 25.038 62.7381 24.409 63.7608 23.9779C64.8273 23.5289 65.9757 23.3023 67.1344 23.3121C68.3197 23.293 69.4953 23.5265 70.5815 23.9968C71.5518 24.4196 72.4228 25.0374 73.1396 25.811C73.8401 26.5844 74.3768 27.4892 74.718 28.4717C75.0853 29.517 75.2694 30.6169 75.2623 31.7237V32.802H61.1137ZM72.6523 30.8611C72.6834 30.1482 72.571 29.4363 72.3219 28.7668C72.0727 28.0973 71.6917 27.4836 71.2009 26.9612C70.6655 26.4473 70.0281 26.0492 69.3291 25.7922C68.63 25.5353 67.8848 25.4251 67.1405 25.4687C66.369 25.4691 65.6054 25.6218 64.8943 25.918C64.1931 26.2039 63.5493 26.612 62.9936 27.123C62.4568 27.6154 62.0143 28.1999 61.6874 28.8482C61.3659 29.4715 61.1977 30.1612 61.1967 30.8611H72.6523Z" fill="#D0D0D0"/>
<path d="M78.7862 28.9923C78.7862 28.2506 78.7678 27.4958 78.7309 26.7279C78.6941 25.9599 78.6653 24.9655 78.6445 23.7446H81.0022V26.8733H81.0748C81.2517 26.4035 81.4962 25.9614 81.8005 25.5606C82.1253 25.1316 82.5102 24.7507 82.9434 24.4292C83.4164 24.0808 83.9418 23.8082 84.5002 23.6213C85.1497 23.4092 85.8303 23.306 86.514 23.3158C87.1139 23.306 87.7123 23.3786 88.292 23.5315L87.8186 25.8644C87.3717 25.726 86.9041 25.6652 86.4363 25.6846C85.6185 25.6619 84.808 25.8413 84.0778 26.2067C83.4481 26.5357 82.8925 26.9882 82.4449 27.5366C82.0206 28.0552 81.6948 28.6459 81.4834 29.2798C81.2852 29.8589 81.1811 30.4656 81.175 31.077V40.566H78.7862V28.9923Z" fill="#D0D0D0"/>
<path d="M105.999 32.1551C106.012 33.3616 105.784 34.5586 105.328 35.6776C104.903 36.7304 104.265 37.6862 103.454 38.4866C102.643 39.2869 101.676 39.9149 100.611 40.3322C99.4507 40.7862 98.2121 41.0121 96.9645 40.9972C95.7289 41.01 94.5026 40.7841 93.3542 40.3322C92.2897 39.9149 91.3223 39.2869 90.5113 38.4866C89.7002 37.6862 89.0625 36.7304 88.6371 35.6776C88.1814 34.5587 87.9533 33.3616 87.9658 32.1551C87.9531 30.9487 88.1813 29.7516 88.6371 28.6327C89.0621 27.5797 89.6997 26.6237 90.5108 25.8233C91.3219 25.0229 92.2895 24.395 93.3542 23.978C94.5024 23.5254 95.7288 23.2993 96.9645 23.3122C98.2122 23.2972 99.4509 23.5233 100.611 23.978C101.676 24.395 102.643 25.0229 103.454 25.8233C104.266 26.6237 104.903 27.5797 105.328 28.6327C105.784 29.7517 106.012 30.9487 105.999 32.1551V32.1551ZM103.387 32.1551C103.394 31.2608 103.24 30.3725 102.933 29.5313C102.649 28.7472 102.211 28.0265 101.645 27.4106C101.079 26.8051 100.394 26.3218 99.6306 25.9909C97.9223 25.2949 96.0058 25.2949 94.2976 25.9909C93.5383 26.3188 92.8581 26.8027 92.3019 27.4106C91.7452 28.0303 91.314 28.7503 91.0319 29.5313C90.4271 31.2289 90.4271 33.0805 91.0319 34.7781C91.3134 35.5597 91.7447 36.2801 92.3019 36.8997C92.8581 37.5076 93.5383 37.9915 94.2976 38.3194C96.0062 39.0132 97.9219 39.0132 99.6306 38.3194C100.394 37.9885 101.079 37.5052 101.645 36.8997C102.212 36.2838 102.65 35.5627 102.933 34.7781C103.24 33.9373 103.394 33.0492 103.387 32.1551Z" fill="#D0D0D0"/>
</svg>
