<svg width="120" height="60" viewBox="0 0 120 60" fill="none" xmlns="http://www.w3.org/2000/svg">
<path d="M36.7123 29.1495C41.5135 26.5013 46.8842 24.2811 51.899 22.0531C60.5285 18.4137 69.1896 14.8218 77.9378 11.4837C79.6384 10.9128 82.6836 10.3578 83 12.8872C82.8339 16.4711 82.1616 20.0233 81.6949 23.5834C80.5163 31.4093 79.1321 39.2114 77.835 47.0136C77.7172 47.6234 77.4477 48.1935 77.0514 48.6711C76.6551 49.1486 76.1449 49.518 75.5681 49.745C74.9913 49.972 74.3667 50.0492 73.7521 49.9695C73.1376 49.8899 72.5531 49.6558 72.053 49.2892C67.0619 45.9114 62.0313 42.5654 57.1036 39.1004C55.49 37.4433 56.9849 35.0646 58.4245 33.9228C62.5217 29.8632 66.8958 26.4061 70.7953 22.1403C71.8473 19.5951 68.7388 21.7359 67.7184 22.394C62.0867 26.2792 56.5974 30.4103 50.6572 33.8277C47.6277 35.5007 44.0921 34.0735 41.0627 33.1378C38.3496 32.0119 34.3631 30.8701 36.7123 29.1733V29.1495Z" fill="white"/>
</svg>
