<svg width="120" height="60" viewBox="0 0 120 60" fill="none" xmlns="http://www.w3.org/2000/svg">
<path d="M45 15C45 14.4477 45.4477 14 46 14H80C80.5523 14 81 14.4477 81 15C81 15.5523 80.5523 16 80 16H46C45.4477 16 45 15.5523 45 15Z" fill="white"/>
<path d="M45 21C45 20.4477 45.4477 20 46 20H80C80.5523 20 81 20.4477 81 21C81 21.5523 80.5523 22 80 22H46C45.4477 22 45 21.5523 45 21Z" fill="white"/>
<path d="M45 27C45 26.4477 45.4477 26 46 26H80C80.5523 26 81 26.4477 81 27C81 27.5523 80.5523 28 80 28H46C45.4477 28 45 27.5523 45 27Z" fill="white"/>
<path d="M70 33C70 32.4477 70.4477 32 71 32H80C80.5523 32 81 32.4477 81 33C81 33.5523 80.5523 34 80 34H71C70.4477 34 70 33.5523 70 33Z" fill="white"/>
<path d="M70 39C70 38.4477 70.4477 38 71 38H80C80.5523 38 81 38.4477 81 39C81 39.5523 80.5523 40 80 40H71C70.4477 40 70 39.5523 70 39Z" fill="white"/>
<path d="M70 45C70 44.4477 70.4477 44 71 44H80C80.5523 44 81 44.4477 81 45C81 45.5523 80.5523 46 80 46H71C70.4477 46 70 45.5523 70 45Z" fill="white"/>
<path d="M41.1836 31.7715V46H38.127V35.248L34.8262 36.2539V33.8906L40.8809 31.7715H41.1836Z" fill="white"/>
<path d="M55.4805 43.627V46H45.6562V43.9883L50.2461 39.125C50.6758 38.6302 51.0176 38.194 51.2715 37.8164C51.5319 37.4388 51.7207 37.097 51.8379 36.791C51.9551 36.4785 52.0137 36.1921 52.0137 35.9316C52.0137 35.5085 51.9453 35.1504 51.8086 34.8574C51.6784 34.5645 51.4863 34.3398 51.2324 34.1836C50.9785 34.0273 50.6693 33.9492 50.3047 33.9492C49.9141 33.9492 49.5788 34.0501 49.2988 34.252C49.0189 34.4538 48.804 34.7337 48.6543 35.0918C48.5046 35.4434 48.4297 35.8438 48.4297 36.293H45.3633C45.3633 35.4271 45.5716 34.6393 45.9883 33.9297C46.4049 33.2135 46.9876 32.6439 47.7363 32.2207C48.485 31.791 49.3607 31.5762 50.3633 31.5762C51.3919 31.5762 52.2546 31.7389 52.9512 32.0645C53.6478 32.39 54.1751 32.8555 54.5332 33.4609C54.8913 34.0664 55.0703 34.7956 55.0703 35.6484C55.0703 36.1302 54.9922 36.5957 54.8359 37.0449C54.6862 37.4941 54.4681 37.9401 54.1816 38.3828C53.8952 38.8255 53.5501 39.278 53.1465 39.7402C52.7428 40.196 52.2871 40.6777 51.7793 41.1855L49.6309 43.627H55.4805Z" fill="white"/>
<path d="M60.1387 37.5918H61.6914C62.1341 37.5918 62.4987 37.5137 62.7852 37.3574C63.0781 37.2012 63.293 36.9798 63.4297 36.6934C63.5729 36.4069 63.6445 36.0716 63.6445 35.6875C63.6445 35.3555 63.5794 35.0592 63.4492 34.7988C63.319 34.5384 63.1204 34.3333 62.8535 34.1836C62.5931 34.0273 62.2546 33.9492 61.8379 33.9492C61.5384 33.9492 61.252 34.0111 60.9785 34.1348C60.7116 34.252 60.4935 34.4245 60.3242 34.6523C60.1549 34.8737 60.0703 35.1406 60.0703 35.4531H57.0137C57.0137 34.6589 57.2285 33.972 57.6582 33.3926C58.0944 32.8132 58.6706 32.3672 59.3867 32.0547C60.1094 31.7357 60.8971 31.5762 61.75 31.5762C62.7331 31.5762 63.5957 31.7324 64.3379 32.0449C65.0866 32.3509 65.666 32.8066 66.0762 33.4121C66.4928 34.0111 66.7012 34.7533 66.7012 35.6387C66.7012 36.1009 66.5905 36.5469 66.3691 36.9766C66.1543 37.3997 65.8451 37.7773 65.4414 38.1094C65.0443 38.4349 64.569 38.6953 64.0156 38.8906C63.4688 39.0794 62.86 39.1738 62.1895 39.1738H60.1387V37.5918ZM60.1387 39.8867V38.334H62.1895C62.9316 38.334 63.5957 38.4186 64.1816 38.5879C64.7676 38.7572 65.2656 39.0013 65.6758 39.3203C66.0859 39.6393 66.3984 40.0267 66.6133 40.4824C66.8281 40.9382 66.9355 41.446 66.9355 42.0059C66.9355 42.6699 66.8053 43.2624 66.5449 43.7832C66.2845 44.304 65.9199 44.7435 65.4512 45.1016C64.9824 45.4596 64.4323 45.7331 63.8008 45.9219C63.1693 46.1042 62.4857 46.1953 61.75 46.1953C61.1576 46.1953 60.5684 46.1139 59.9824 45.9512C59.3965 45.7884 58.8659 45.541 58.3906 45.209C57.9154 44.8704 57.5345 44.444 57.248 43.9297C56.9616 43.4089 56.8184 42.7904 56.8184 42.0742H59.875C59.875 42.4062 59.9596 42.7057 60.1289 42.9727C60.3047 43.2331 60.5423 43.4414 60.8418 43.5977C61.1478 43.7474 61.4798 43.8223 61.8379 43.8223C62.2676 43.8223 62.6322 43.7441 62.9316 43.5879C63.2376 43.4251 63.4688 43.2038 63.625 42.9238C63.7878 42.6439 63.8691 42.3216 63.8691 41.957C63.8691 41.4622 63.7812 41.0651 63.6055 40.7656C63.4362 40.4596 63.1888 40.2383 62.8633 40.1016C62.5378 39.9583 62.1471 39.8867 61.6914 39.8867H60.1387Z" fill="white"/>
</svg>
