<?xml version="1.0" encoding="UTF-8"?>
<svg version="1.1" xmlns="http://www.w3.org/2000/svg" width="48" height="48">
<path d="M0 0 C0.8245166 -0.00478363 1.6490332 -0.00956726 2.49853516 -0.01449585 C4.23667313 -0.01788872 5.97487544 -0.00872903 7.71289062 0.01220703 C10.36733825 0.03898521 13.01755825 0.01244254 15.671875 -0.01953125 C17.36459263 -0.01622704 19.05730763 -0.00982056 20.75 0 C21.93456787 -0.01518173 21.93456787 -0.01518173 23.14306641 -0.03067017 C27.11276955 0.05339275 28.99170918 0.40801499 32.37255859 2.66650391 C35.0441572 6.66575868 35.09944932 9.57732793 35.0390625 14.2890625 C35.04384613 15.1135791 35.04862976 15.9380957 35.05355835 16.78759766 C35.05695122 18.52573563 35.04779153 20.26393794 35.02685547 22.00195312 C35.00007729 24.65640075 35.02661996 27.30662075 35.05859375 29.9609375 C35.05528954 31.65365513 35.04888306 33.34637013 35.0390625 35.0390625 C35.04918365 35.82877441 35.05930481 36.61848633 35.06973267 37.43212891 C34.98566975 41.40183205 34.63104751 43.28077168 32.37255859 46.66162109 C28.37330382 49.3332197 25.46173457 49.38851182 20.75 49.328125 C19.5132251 49.33530045 19.5132251 49.33530045 18.25146484 49.34262085 C16.51332687 49.34601372 14.77512456 49.33685403 13.03710938 49.31591797 C10.38266175 49.28913979 7.73244175 49.31568246 5.078125 49.34765625 C3.38540737 49.34435204 1.69269237 49.33794556 0 49.328125 C-0.78971191 49.33824615 -1.57942383 49.34836731 -2.39306641 49.35879517 C-6.36276955 49.27473225 -8.24170918 48.92011001 -11.62255859 46.66162109 C-14.2941572 42.66236632 -14.34944932 39.75079707 -14.2890625 35.0390625 C-14.29384613 34.2145459 -14.29862976 33.3900293 -14.30355835 32.54052734 C-14.30695122 30.80238937 -14.29779153 29.06418706 -14.27685547 27.32617188 C-14.25007729 24.67172425 -14.27661996 22.02150425 -14.30859375 19.3671875 C-14.30528954 17.67446987 -14.29888306 15.98175487 -14.2890625 14.2890625 C-14.29918365 13.49935059 -14.30930481 12.70963867 -14.31973267 11.89599609 C-14.23566975 7.92629295 -13.88104751 6.04735332 -11.62255859 2.66650391 C-7.62330382 -0.0050947 -4.71173457 -0.06038682 0 0 Z " fill="#0293FE" transform="translate(13.625,-0.6640625)"/>
<path d="M0 0 C3.53571429 0.53571429 3.53571429 0.53571429 5 2 C5.07226502 3.85287502 5.0838122 5.70833878 5.0625 7.5625 C5.05347656 8.57441406 5.04445313 9.58632813 5.03515625 10.62890625 C5.02355469 11.41136719 5.01195312 12.19382812 5 13 C6.98 13 8.96 13 11 13 C10.98839844 12.21753906 10.97679687 11.43507813 10.96484375 10.62890625 C10.95582031 9.61699219 10.94679688 8.60507812 10.9375 7.5625 C10.92589844 6.55316406 10.91429687 5.54382813 10.90234375 4.50390625 C11 2 11 2 12 1 C14.5 0.875 14.5 0.875 17 1 C18 2 18 2 18.11352539 4.31665039 C18.10828857 5.31688232 18.10305176 6.31711426 18.09765625 7.34765625 C18.09443359 8.42724609 18.09121094 9.50683594 18.08789062 10.61914062 C18.07951172 11.75544922 18.07113281 12.89175781 18.0625 14.0625 C18.05798828 15.20267578 18.05347656 16.34285156 18.04882812 17.51757812 C18.03699747 20.34510351 18.0205141 23.1725264 18 26 C19.98 26 21.96 26 24 26 C24 17.42 24 8.84 24 0 C31.98540928 6.84463652 31.98540928 6.84463652 32.19287109 9.05371094 C32.27999481 11.95255448 32.33462199 14.85012448 32.375 17.75 C32.43107422 19.25433594 32.43107422 19.25433594 32.48828125 20.7890625 C32.54241297 25.32409765 32.47428005 28.18809686 30.15625 32.15625 C25.50693792 34.87218478 21.4224267 34.80598337 16.125 34.75 C14.67287109 34.80414063 14.67287109 34.80414063 13.19140625 34.859375 C7.80372037 34.859375 4.72579152 34.37160752 0.8046875 30.515625 C-2 27.29216779 -2 27.29216779 -2 26 C2.29 26 6.58 26 11 26 C11 24.02 11 22.04 11 20 C10.22914062 20.02320312 9.45828125 20.04640625 8.6640625 20.0703125 C7.66117188 20.08835937 6.65828125 20.10640625 5.625 20.125 C4.62726562 20.14820312 3.62953125 20.17140625 2.6015625 20.1953125 C0 20 0 20 -2 18 C-2.19852102 15.29077199 -2.27839477 12.70696821 -2.25 10 C-2.25773438 9.26265625 -2.26546875 8.5253125 -2.2734375 7.765625 C-2.2533196 2.2533196 -2.2533196 2.2533196 0 0 Z " fill="#236AED" transform="translate(16,14)"/>
<path d="M0 0 C0.66 -0.33 1.32 -0.66 2 -1 C7.26883876 -1.59873168 9.8846468 -0.25400021 14 3 C15.35700647 5.71401294 15.1123861 7.84846316 15.09765625 10.8828125 C15.09443359 12.04941406 15.09121094 13.21601563 15.08789062 14.41796875 C15.07532227 16.25294922 15.07532227 16.25294922 15.0625 18.125 C15.05798828 19.35605469 15.05347656 20.58710938 15.04882812 21.85546875 C15.0370133 24.90369392 15.02054028 27.95182314 15 31 C13.02 31 11.04 31 9 31 C8.505 19.12 8.505 19.12 8 7 C6.35 7 4.7 7 3 7 C2.67 10.63 2.34 14.26 2 18 C0.02 18 -1.96 18 -4 18 C-4.33 14.37 -4.66 10.74 -5 7 C-6.32 6.67 -7.64 6.34 -9 6 C-10.82116003 7.82116003 -10.1323508 10.30671764 -10.13671875 12.7265625 C-10.13285156 13.47679687 -10.12898437 14.22703125 -10.125 15 C-10.12886719 15.75023438 -10.13273438 16.50046875 -10.13671875 17.2734375 C-10.47675541 20.93606117 -10.47675541 20.93606117 -9 24 C-7.15108054 24.23363881 -5.29511969 24.41303635 -3.4375 24.5625 C-2.42558594 24.64628906 -1.41367187 24.73007812 -0.37109375 24.81640625 C0.80259766 24.90728516 0.80259766 24.90728516 2 25 C2 26.98 2 28.96 2 31 C-9.57983353 31.76294657 -9.57983353 31.76294657 -12.94140625 29.95703125 C-17.56339285 25.2522628 -17.24348294 20.87602966 -17.3125 14.6875 C-17.34150391 13.83220703 -17.37050781 12.97691406 -17.40039062 12.09570312 C-17.44288075 7.87610668 -17.38274023 5.61475183 -15.10546875 1.95703125 C-10.61291069 -2.2187973 -5.65466149 -1.46602335 0 0 Z " fill="#F6FAFE" transform="translate(25,9)"/>
</svg>
