<svg width="12" height="13" viewBox="0 0 12 13" fill="none" xmlns="http://www.w3.org/2000/svg">
<path d="M1.7469 11.2273L1.75523 1.77337C2.7922 2.35228 8.9664 5.80981 10.1783 6.51481C9.08816 7.12905 2.88692 10.6049 1.7469 11.2273ZM10.7289 5.88398L10.7289 5.88397L1.94462 11.9186C2.50265 11.6185 10.2084 7.2996 10.68 7.03004L10.7296 7.11686C10.7296 7.11686 10.7296 7.11686 10.7296 7.11685C11.2182 6.8377 11.229 6.16459 10.7289 5.88398ZM1.62256 12.1C1.74696 12.1 1.87422 12.0701 1.99203 12.0066L2.01274 1.00635C1.88164 0.933633 1.74774 0.899987 1.61934 0.9C1.22179 0.900041 0.9 1.22193 0.9 1.62049V1.62264V1.62499V1.62753V1.63026V1.63319V1.63631V1.63962V1.64313V1.64682V1.6507V1.65477V1.65903V1.66347V1.66811V1.67292V1.67792V1.68311V1.68848V1.69403V1.69976V1.70567V1.71176V1.71804V1.72449V1.73112V1.73792V1.74491V1.75206V1.7594V1.7669V1.77458V1.78244V1.79046V1.79866V1.80702V1.81556V1.82426V1.83313V1.84217V1.85138V1.86075V1.87028V1.87998V1.88985V1.89987V1.91006V1.92041V1.93092V1.94159V1.95242V1.96341V1.97455V1.98585V1.99731V2.00892V2.02068V2.0326V2.04467V2.0569V2.06927V2.0818V2.09447V2.1073V2.12027V2.13339V2.14666V2.16007V2.17363V2.18733V2.20118V2.21517V2.2293V2.24357V2.25799V2.27254V2.28723V2.30206V2.31703V2.33214V2.34738V2.36276V2.37827V2.39391V2.40969V2.4256V2.44164V2.45782V2.47412V2.49055V2.50711V2.5238V2.54062V2.55756V2.57463V2.59182V2.60914V2.62658V2.64414V2.66182V2.67962V2.69755V2.71559V2.73376V2.75204V2.77043V2.78895V2.80758V2.82632V2.84518V2.86415V2.88324V2.90243V2.92174V2.94116V2.96069V2.98032V3.00007V3.01992V3.03988V3.05994V3.08011V3.10038V3.12076V3.14124V3.16182V3.1825V3.20328V3.22416V3.24515V3.26622V3.2874V3.30867V3.33004V3.35151V3.37307V3.39472V3.41647V3.4383V3.46023V3.48225V3.50436V3.52656V3.54885V3.57122V3.59368V3.61623V3.63886V3.66158V3.68438V3.70726V3.73023V3.75327V3.7764V3.79961V3.8229V3.84626V3.8697V3.89322V3.91682V3.94049V3.96424V3.98806V4.01195V4.03592V4.05995V4.08406V4.10824V4.13249V4.1568V4.18119V4.20564V4.23016V4.25474V4.27939V4.3041V4.32887V4.35371V4.37861V4.40357V4.42859V4.45367V4.47881V4.50401V4.52926V4.55457V4.57993V4.60536V4.63083V4.65636V4.68194V4.70757V4.73326V4.75899V4.78477V4.81061V4.83649V4.86242V4.88839V4.91441V4.94048V4.96659V4.99274V5.01894V5.04517V5.07145V5.09777V5.12413V5.15053V5.17697V5.20344V5.22995V5.2565V5.28308V5.3097V5.33635V5.36303V5.38975V5.4165V5.44327V5.47008V5.49692V5.52378V5.55067V5.57759V5.60454V5.63151V5.6585V5.68552V5.71257V5.73963V5.76672V5.79382V5.82095V5.84809V5.87526V5.90244V5.92964V5.95686V5.98409V6.01133V6.03859V6.06586V6.09315V6.12045V6.14775V6.17507V6.2024V6.22973V6.25708V6.28443V6.31179V6.33915V6.36652V6.39389V6.42126V6.44864V6.47602V6.5034V6.53078V6.55816V6.58554V6.61292V6.64029V6.66766V6.69503V6.72239V6.74975V6.77709V6.80444V6.83177V6.85909V6.88641V6.91371V6.94101V6.96829V6.99556V7.02282V7.05006V7.07729V7.1045V7.13169V7.15887V7.18603V7.21317V7.24029V7.26739V7.29447V7.32153V7.34857V7.37558V7.40257V7.42954V7.45648V7.48339V7.51027V7.53713V7.56396V7.59076V7.61753V7.64427V7.67098V7.69765V7.72429V7.7509V7.77748V7.80401V7.83052V7.85698V7.88341V7.9098V7.93615V7.96246V7.98873V8.01495V8.04114V8.06728V8.09338V8.11944V8.14544V8.17141V8.19732V8.22319V8.24901V8.27479V8.30051V8.32618V8.3518V8.37737V8.40288V8.42834V8.45375V8.4791V8.5044V8.52964V8.55482V8.57994V8.60501V8.63001V8.65496V8.67984V8.70467V8.72942V8.75412V8.77875V8.80332V8.82782V8.85225V8.87662V8.90092V8.92515V8.94931V8.9734V8.99742V9.02137V9.04524V9.06905V9.09277V9.11643V9.14V9.1635V9.18693V9.21027V9.23354V9.25673V9.27984V9.30287V9.32581V9.34867V9.37145V9.39415V9.41676V9.43929V9.46172V9.48408V9.50634V9.52852V9.5506V9.5726V9.59451V9.61632V9.63804V9.65967V9.68121V9.70265V9.724V9.74524V9.7664V9.78745V9.80841V9.82927V9.85003V9.87068V9.89124V9.91169V9.93204V9.95229V9.97243V9.99247V10.0124V10.0322V10.0519V10.0716V10.0911V10.1104V10.1297V10.1489V10.1679V10.1869V10.2057V10.2244V10.243V10.2615V10.2799V10.2981V10.3163V10.3343V10.3522V10.37V10.3876V10.4051V10.4226V10.4398V10.457V10.474V10.4909V10.5077V10.5244V10.5409V10.5573V10.5736V10.5897V10.6057V10.6216V10.6374V10.653V10.6685V10.6838V10.699V10.7141V10.729V10.7438V10.7585V10.773V10.7874V10.8016V10.8157V10.8296V10.8435V10.8571V10.8706V10.884V10.8973V10.9103V10.9233V10.9361V10.9487V10.9612V10.9735V10.9857V10.9977V11.0096V11.0214V11.0329V11.0443V11.0556V11.0667V11.0777V11.0884V11.0991V11.1095V11.1199V11.13V11.14V11.1498V11.1595V11.169V11.1783V11.1875V11.1965V11.2053V11.214V11.2224V11.2308V11.2389V11.2469V11.2547V11.2623V11.2698V11.2771V11.2842V11.2912V11.2979V11.3045V11.3109V11.3171V11.3232V11.3291V11.3347V11.3402V11.3456V11.3507V11.3557V11.3604V11.365V11.3694V11.3736V11.3776V11.3815V11.3851V11.3886V11.3918V11.3949C0.9 11.8339 1.25455 12.1 1.62256 12.1Z" fill="#009900" stroke="#009900" stroke-width="0.2"/>
</svg>
