<svg width="20" height="20" viewBox="0 0 20 20" fill="none" xmlns="http://www.w3.org/2000/svg">
<path d="M5.65538 5.60406C5.65947 5.60586 5.6643 5.60823 5.66988 5.61133C6.04012 5.81652 13.6352 10.0678 14.3783 10.5166C14.0129 10.7255 6.22379 15.0926 5.64675 15.3949L5.65538 5.60406ZM5.61935 5C5.27712 5.00004 5 5.27705 5 5.62049C5 5.97095 5 14.8869 5 15.3949C5 15.7696 5.3002 16 5.62256 16C5.73092 16 5.84182 15.9739 5.94462 15.9186C6.50265 15.6185 14.2084 11.2996 14.68 11.03C15.103 10.7883 15.1103 10.2127 14.68 9.97119C14.0248 9.6037 6.34837 5.30669 5.96427 5.09382C5.84723 5.02889 5.72992 4.99999 5.61935 5Z" fill="#009900"/>
</svg>
