<svg xmlns="http://www.w3.org/2000/svg" width="60" height="60" viewBox="0 0 60 60" version="1.1"><path d="M 13.304 4.946 C 12.939 6.343, 11.767 6.977, 9.148 7.196 L 5.500 7.500 5.500 32 L 5.500 56.500 30 56.500 L 54.500 56.500 54.790 48.250 C 54.975 43.017, 54.700 40, 54.040 40 C 53.468 40, 52.663 39.992, 52.250 39.983 C 51.837 39.974, 51.275 42.786, 51 46.233 L 50.500 52.500 30 52.500 L 9.500 52.500 9.226 35.750 L 8.952 19 29.976 19 L 51 19 51 22.573 C 51 25.438, 51.347 26.080, 52.750 25.810 C 54.262 25.518, 54.500 24.250, 54.500 16.486 L 54.500 7.500 50.852 7.196 C 48.233 6.977, 47.061 6.343, 46.696 4.946 C 46.033 2.411, 43.958 2.444, 43.290 5 C 42.801 6.868, 41.926 7, 30 7 C 18.074 7, 17.199 6.868, 16.710 5 C 16.042 2.444, 13.967 2.411, 13.304 4.946 M 11 13 C 11 13.550, 11.702 14, 12.559 14 C 13.416 14, 13.840 13.550, 13.500 13 C 13.160 12.450, 12.459 12, 11.941 12 C 11.423 12, 11 12.450, 11 13 M 16.500 13 C 16.099 13.649, 20.843 14, 30 14 C 39.157 14, 43.901 13.649, 43.500 13 C 42.679 11.671, 17.321 11.671, 16.500 13 M 46.500 13 C 46.160 13.550, 46.809 14, 47.941 14 C 49.073 14, 50 13.550, 50 13 C 50 12.450, 49.352 12, 48.559 12 C 47.766 12, 46.840 12.450, 46.500 13 M 13.250 24.250 C 13.479 24.938, 14.267 25.500, 15 25.500 C 15.733 25.500, 16.521 24.938, 16.750 24.250 C 16.998 23.506, 16.289 23, 15 23 C 13.711 23, 13.002 23.506, 13.250 24.250 M 21 24.500 C 21 25.325, 21.675 26, 22.500 26 C 23.325 26, 24 25.325, 24 24.500 C 24 23.675, 23.325 23, 22.500 23 C 21.675 23, 21 23.675, 21 24.500 M 28.250 24.250 C 28.479 24.938, 29.267 25.500, 30 25.500 C 30.733 25.500, 31.521 24.938, 31.750 24.250 C 31.998 23.506, 31.289 23, 30 23 C 28.711 23, 28.002 23.506, 28.250 24.250 M 36 24.500 C 36 25.325, 36.675 26, 37.500 26 C 38.325 26, 39 25.325, 39 24.500 C 39 23.675, 38.325 23, 37.500 23 C 36.675 23, 36 23.675, 36 24.500 M 43.250 24.250 C 43.479 24.938, 44.267 25.500, 45 25.500 C 45.733 25.500, 46.521 24.938, 46.750 24.250 C 46.998 23.506, 46.289 23, 45 23 C 43.711 23, 43.002 23.506, 43.250 24.250 M 51.473 29.044 C 50.568 30.508, 51.884 31.982, 53.532 31.349 C 54.339 31.040, 55 30.432, 55 30 C 55 28.761, 52.129 27.982, 51.473 29.044 M 13.446 31.087 C 12.416 32.755, 14.733 34.667, 16.113 33.287 C 17.267 32.133, 16.545 30, 15 30 C 14.515 30, 13.816 30.489, 13.446 31.087 M 21.177 31.553 C 21.629 33.725, 23.404 33.858, 23.810 31.750 C 24.020 30.655, 23.530 30, 22.500 30 C 21.539 30, 20.988 30.647, 21.177 31.553 M 28.446 31.087 C 27.416 32.755, 29.733 34.667, 31.113 33.287 C 32.267 32.133, 31.545 30, 30 30 C 29.515 30, 28.816 30.489, 28.446 31.087 M 36.177 31.553 C 36.629 33.725, 38.404 33.858, 38.810 31.750 C 39.020 30.655, 38.530 30, 37.500 30 C 36.539 30, 35.988 30.647, 36.177 31.553 M 43.446 31.087 C 42.416 32.755, 44.733 34.667, 46.113 33.287 C 47.267 32.133, 46.545 30, 45 30 C 44.515 30, 43.816 30.489, 43.446 31.087 M 51 35.427 C 51 36.354, 51.855 37, 53.083 37 C 55.520 37, 55.176 34.663, 52.667 34.177 C 51.680 33.985, 51 34.495, 51 35.427 M 13.250 39.250 C 13.479 39.938, 14.267 40.500, 15 40.500 C 15.733 40.500, 16.521 39.938, 16.750 39.250 C 16.998 38.506, 16.289 38, 15 38 C 13.711 38, 13.002 38.506, 13.250 39.250 M 21.198 43.250 L 21.500 48.500 26.500 48.500 L 31.500 48.500 31.802 43.250 L 32.105 38 26.500 38 L 20.895 38 21.198 43.250 M 36.198 43.250 L 36.500 48.500 41.500 48.500 L 46.500 48.500 46.802 43.250 L 47.105 38 41.500 38 L 35.895 38 36.198 43.250 M 24 43 C 24 44.333, 24.667 45, 26 45 C 27.333 45, 28 44.333, 28 43 C 28 41.667, 27.333 41, 26 41 C 24.667 41, 24 41.667, 24 43 M 39 43 C 39 44.333, 39.667 45, 41 45 C 42.333 45, 43 44.333, 43 43 C 43 41.667, 42.333 41, 41 41 C 39.667 41, 39 41.667, 39 43 M 13.446 46.087 C 12.416 47.755, 14.733 49.667, 16.113 48.287 C 17.267 47.133, 16.545 45, 15 45 C 14.515 45, 13.816 45.489, 13.446 46.087" stroke="none" fill="#090c0b" fill-rule="evenodd"/><path d="M 11 13 C 11 13.550, 11.702 14, 12.559 14 C 13.416 14, 13.840 13.550, 13.500 13 C 13.160 12.450, 12.459 12, 11.941 12 C 11.423 12, 11 12.450, 11 13 M 16.500 13 C 16.099 13.649, 20.843 14, 30 14 C 39.157 14, 43.901 13.649, 43.500 13 C 42.679 11.671, 17.321 11.671, 16.500 13 M 46.500 13 C 46.160 13.550, 46.809 14, 47.941 14 C 49.073 14, 50 13.550, 50 13 C 50 12.450, 49.352 12, 48.559 12 C 47.766 12, 46.840 12.450, 46.500 13 M 9.226 35.750 L 9.500 52.500 30 52.500 L 50.500 52.500 51 46 C 51.422 40.514, 51.773 39.546, 53.250 39.794 C 54.288 39.968, 55 39.459, 55 38.544 C 55 37.667, 54.136 37, 53 37 C 51.825 37, 51 36.333, 51 35.383 C 51 34.259, 51.609 33.926, 53 34.290 C 54.495 34.681, 55 34.320, 55 32.863 C 55 31.560, 54.419 31.010, 53.250 31.206 C 52.231 31.377, 51.500 30.874, 51.500 30 C 51.500 29.126, 52.231 28.623, 53.250 28.794 C 54.419 28.990, 55 28.440, 55 27.137 C 55 25.680, 54.495 25.319, 53 25.710 C 51.272 26.162, 51 25.741, 51 22.617 L 51 19 29.976 19 L 8.952 19 9.226 35.750 M 13.250 24.250 C 13.479 24.938, 14.267 25.500, 15 25.500 C 15.733 25.500, 16.521 24.938, 16.750 24.250 C 16.998 23.506, 16.289 23, 15 23 C 13.711 23, 13.002 23.506, 13.250 24.250 M 21 24.500 C 21 25.325, 21.675 26, 22.500 26 C 23.325 26, 24 25.325, 24 24.500 C 24 23.675, 23.325 23, 22.500 23 C 21.675 23, 21 23.675, 21 24.500 M 28.250 24.250 C 28.479 24.938, 29.267 25.500, 30 25.500 C 30.733 25.500, 31.521 24.938, 31.750 24.250 C 31.998 23.506, 31.289 23, 30 23 C 28.711 23, 28.002 23.506, 28.250 24.250 M 36 24.500 C 36 25.325, 36.675 26, 37.500 26 C 38.325 26, 39 25.325, 39 24.500 C 39 23.675, 38.325 23, 37.500 23 C 36.675 23, 36 23.675, 36 24.500 M 43.250 24.250 C 43.479 24.938, 44.267 25.500, 45 25.500 C 45.733 25.500, 46.521 24.938, 46.750 24.250 C 46.998 23.506, 46.289 23, 45 23 C 43.711 23, 43.002 23.506, 43.250 24.250 M 13.446 31.087 C 12.416 32.755, 14.733 34.667, 16.113 33.287 C 17.267 32.133, 16.545 30, 15 30 C 14.515 30, 13.816 30.489, 13.446 31.087 M 21.177 31.553 C 21.629 33.725, 23.404 33.858, 23.810 31.750 C 24.020 30.655, 23.530 30, 22.500 30 C 21.539 30, 20.988 30.647, 21.177 31.553 M 28.446 31.087 C 27.416 32.755, 29.733 34.667, 31.113 33.287 C 32.267 32.133, 31.545 30, 30 30 C 29.515 30, 28.816 30.489, 28.446 31.087 M 36.177 31.553 C 36.629 33.725, 38.404 33.858, 38.810 31.750 C 39.020 30.655, 38.530 30, 37.500 30 C 36.539 30, 35.988 30.647, 36.177 31.553 M 43.446 31.087 C 42.416 32.755, 44.733 34.667, 46.113 33.287 C 47.267 32.133, 46.545 30, 45 30 C 44.515 30, 43.816 30.489, 43.446 31.087 M 13.250 39.250 C 13.479 39.938, 14.267 40.500, 15 40.500 C 15.733 40.500, 16.521 39.938, 16.750 39.250 C 16.998 38.506, 16.289 38, 15 38 C 13.711 38, 13.002 38.506, 13.250 39.250 M 21.198 43.250 L 21.500 48.500 26.500 48.500 L 31.500 48.500 31.802 43.250 L 32.105 38 26.500 38 L 20.895 38 21.198 43.250 M 36.198 43.250 L 36.500 48.500 41.500 48.500 L 46.500 48.500 46.802 43.250 L 47.105 38 41.500 38 L 35.895 38 36.198 43.250 M 24 43 C 24 44.333, 24.667 45, 26 45 C 27.333 45, 28 44.333, 28 43 C 28 41.667, 27.333 41, 26 41 C 24.667 41, 24 41.667, 24 43 M 39 43 C 39 44.333, 39.667 45, 41 45 C 42.333 45, 43 44.333, 43 43 C 43 41.667, 42.333 41, 41 41 C 39.667 41, 39 41.667, 39 43 M 13.446 46.087 C 12.416 47.755, 14.733 49.667, 16.113 48.287 C 17.267 47.133, 16.545 45, 15 45 C 14.515 45, 13.816 45.489, 13.446 46.087" stroke="none" fill="#73ac8b" fill-rule="evenodd"/></svg>