<?xml version="1.0" encoding="UTF-8"?>
<svg xmlns="http://www.w3.org/2000/svg" xmlns:xlink="http://www.w3.org/1999/xlink" width="120px" height="120px" viewBox="0 0 120 120" version="1.1">
<g id="surface1">
<path style=" stroke:none;fill-rule:evenodd;fill:rgb(3.529412%,4.705882%,4.313726%);fill-opacity:1;" d="M 26.609375 9.890625 C 25.878906 12.6875 23.535156 13.953125 18.296875 14.390625 L 11 15 L 11 113 L 109 113 L 109.578125 96.5 C 109.949219 86.035156 109.398438 80 108.078125 80 C 106.9375 80 105.324219 79.984375 104.5 79.964844 C 103.675781 79.949219 102.550781 85.570312 102 92.464844 L 101 105 L 19 105 L 18.453125 71.5 L 17.902344 38 L 102 38 L 102 45.144531 C 102 50.875 102.695312 52.160156 105.5 51.621094 C 108.523438 51.035156 109 48.5 109 32.972656 L 109 15 L 101.703125 14.390625 C 96.464844 13.953125 94.121094 12.6875 93.390625 9.890625 C 92.066406 4.820312 87.914062 4.886719 86.578125 10 C 85.601562 13.734375 83.851562 14 60 14 C 36.148438 14 34.398438 13.734375 33.421875 10 C 32.085938 4.886719 27.933594 4.820312 26.609375 9.890625 M 22 26 C 22 27.101562 23.402344 28 25.117188 28 C 26.832031 28 27.679688 27.101562 27 26 C 26.320312 24.898438 24.917969 24 23.882812 24 C 22.847656 24 22 24.898438 22 26 M 33 26 C 32.199219 27.296875 41.6875 28 60 28 C 78.3125 28 87.800781 27.296875 87 26 C 85.359375 23.34375 34.640625 23.34375 33 26 M 93 26 C 92.320312 27.101562 93.617188 28 95.882812 28 C 98.144531 28 100 27.101562 100 26 C 100 24.898438 98.703125 24 97.117188 24 C 95.53125 24 93.679688 24.898438 93 26 M 26.5 48.5 C 26.957031 49.875 28.535156 51 30 51 C 31.464844 51 33.042969 49.875 33.5 48.5 C 33.996094 47.011719 32.578125 46 30 46 C 27.421875 46 26.003906 47.011719 26.5 48.5 M 42 49 C 42 50.648438 43.351562 52 45 52 C 46.648438 52 48 50.648438 48 49 C 48 47.351562 46.648438 46 45 46 C 43.351562 46 42 47.351562 42 49 M 56.5 48.5 C 56.957031 49.875 58.535156 51 60 51 C 61.464844 51 63.042969 49.875 63.5 48.5 C 63.996094 47.011719 62.578125 46 60 46 C 57.421875 46 56.003906 47.011719 56.5 48.5 M 72 49 C 72 50.648438 73.351562 52 75 52 C 76.648438 52 78 50.648438 78 49 C 78 47.351562 76.648438 46 75 46 C 73.351562 46 72 47.351562 72 49 M 86.5 48.5 C 86.957031 49.875 88.535156 51 90 51 C 91.464844 51 93.042969 49.875 93.5 48.5 C 93.996094 47.011719 92.578125 46 90 46 C 87.421875 46 86.003906 47.011719 86.5 48.5 M 102.945312 58.089844 C 101.136719 61.015625 103.769531 63.964844 107.0625 62.699219 C 108.679688 62.078125 110 60.863281 110 60 C 110 57.523438 104.257812 55.964844 102.945312 58.089844 M 26.890625 62.175781 C 24.832031 65.511719 29.464844 69.335938 32.226562 66.574219 C 34.535156 64.265625 33.089844 60 30 60 C 29.03125 60 27.632812 60.976562 26.890625 62.175781 M 42.355469 63.105469 C 43.257812 67.449219 46.808594 67.714844 47.621094 63.5 C 48.039062 61.308594 47.058594 60 45 60 C 43.078125 60 41.976562 61.292969 42.355469 63.105469 M 56.890625 62.175781 C 54.832031 65.511719 59.464844 69.335938 62.226562 66.574219 C 64.535156 64.265625 63.089844 60 60 60 C 59.03125 60 57.632812 60.976562 56.890625 62.175781 M 72.355469 63.105469 C 73.257812 67.449219 76.808594 67.714844 77.621094 63.5 C 78.039062 61.308594 77.058594 60 75 60 C 73.078125 60 71.976562 61.292969 72.355469 63.105469 M 86.890625 62.175781 C 84.832031 65.511719 89.464844 69.335938 92.226562 66.574219 C 94.535156 64.265625 93.089844 60 90 60 C 89.03125 60 87.632812 60.976562 86.890625 62.175781 M 102 70.855469 C 102 72.707031 103.710938 74 106.164062 74 C 111.039062 74 110.351562 69.324219 105.335938 68.355469 C 103.359375 67.96875 102 68.988281 102 70.855469 M 26.5 78.5 C 26.957031 79.875 28.535156 81 30 81 C 31.464844 81 33.042969 79.875 33.5 78.5 C 33.996094 77.011719 32.578125 76 30 76 C 27.421875 76 26.003906 77.011719 26.5 78.5 M 42.394531 86.5 L 43 97 L 63 97 L 64.210938 76 L 41.789062 76 L 42.394531 86.5 M 72.394531 86.5 L 73 97 L 93 97 L 94.210938 76 L 71.789062 76 L 72.394531 86.5 M 48 86 C 48 88.664062 49.335938 90 52 90 C 54.664062 90 56 88.664062 56 86 C 56 83.335938 54.664062 82 52 82 C 49.335938 82 48 83.335938 48 86 M 78 86 C 78 88.664062 79.335938 90 82 90 C 84.664062 90 86 88.664062 86 86 C 86 83.335938 84.664062 82 82 82 C 79.335938 82 78 83.335938 78 86 M 26.890625 92.175781 C 24.832031 95.511719 29.464844 99.335938 32.226562 96.574219 C 34.535156 94.265625 33.089844 90 30 90 C 29.03125 90 27.632812 90.976562 26.890625 92.175781 "/>
<path style=" stroke:none;fill-rule:evenodd;fill:rgb(45.09804%,67.450982%,54.509807%);fill-opacity:1;" d="M 22 26 C 22 27.101562 23.402344 28 25.117188 28 C 26.832031 28 27.679688 27.101562 27 26 C 26.320312 24.898438 24.917969 24 23.882812 24 C 22.847656 24 22 24.898438 22 26 M 33 26 C 32.199219 27.296875 41.6875 28 60 28 C 78.3125 28 87.800781 27.296875 87 26 C 85.359375 23.34375 34.640625 23.34375 33 26 M 93 26 C 92.320312 27.101562 93.617188 28 95.882812 28 C 98.144531 28 100 27.101562 100 26 C 100 24.898438 98.703125 24 97.117188 24 C 95.53125 24 93.679688 24.898438 93 26 M 18.453125 71.5 L 19 105 L 101 105 L 102 92 C 102.84375 81.027344 103.546875 79.09375 106.5 79.589844 C 108.574219 79.9375 110 78.917969 110 77.089844 C 110 75.335938 108.273438 74 106 74 C 103.648438 74 102 72.664062 102 70.765625 C 102 68.519531 103.21875 67.851562 106 68.578125 C 108.988281 69.363281 110 68.640625 110 65.726562 C 110 63.121094 108.839844 62.019531 106.5 62.410156 C 104.460938 62.753906 103 61.746094 103 60 C 103 58.253906 104.460938 57.246094 106.5 57.589844 C 108.839844 57.980469 110 56.878906 110 54.273438 C 110 51.359375 108.988281 50.636719 106 51.421875 C 102.542969 52.324219 102 51.480469 102 45.234375 L 102 38 L 17.902344 38 L 18.453125 71.5 M 26.5 48.5 C 26.957031 49.875 28.535156 51 30 51 C 31.464844 51 33.042969 49.875 33.5 48.5 C 33.996094 47.011719 32.578125 46 30 46 C 27.421875 46 26.003906 47.011719 26.5 48.5 M 42 49 C 42 50.648438 43.351562 52 45 52 C 46.648438 52 48 50.648438 48 49 C 48 47.351562 46.648438 46 45 46 C 43.351562 46 42 47.351562 42 49 M 56.5 48.5 C 56.957031 49.875 58.535156 51 60 51 C 61.464844 51 63.042969 49.875 63.5 48.5 C 63.996094 47.011719 62.578125 46 60 46 C 57.421875 46 56.003906 47.011719 56.5 48.5 M 72 49 C 72 50.648438 73.351562 52 75 52 C 76.648438 52 78 50.648438 78 49 C 78 47.351562 76.648438 46 75 46 C 73.351562 46 72 47.351562 72 49 M 86.5 48.5 C 86.957031 49.875 88.535156 51 90 51 C 91.464844 51 93.042969 49.875 93.5 48.5 C 93.996094 47.011719 92.578125 46 90 46 C 87.421875 46 86.003906 47.011719 86.5 48.5 M 26.890625 62.175781 C 24.832031 65.511719 29.464844 69.335938 32.226562 66.574219 C 34.535156 64.265625 33.089844 60 30 60 C 29.03125 60 27.632812 60.976562 26.890625 62.175781 M 42.355469 63.105469 C 43.257812 67.449219 46.808594 67.714844 47.621094 63.5 C 48.039062 61.308594 47.058594 60 45 60 C 43.078125 60 41.976562 61.292969 42.355469 63.105469 M 56.890625 62.175781 C 54.832031 65.511719 59.464844 69.335938 62.226562 66.574219 C 64.535156 64.265625 63.089844 60 60 60 C 59.03125 60 57.632812 60.976562 56.890625 62.175781 M 72.355469 63.105469 C 73.257812 67.449219 76.808594 67.714844 77.621094 63.5 C 78.039062 61.308594 77.058594 60 75 60 C 73.078125 60 71.976562 61.292969 72.355469 63.105469 M 86.890625 62.175781 C 84.832031 65.511719 89.464844 69.335938 92.226562 66.574219 C 94.535156 64.265625 93.089844 60 90 60 C 89.03125 60 87.632812 60.976562 86.890625 62.175781 M 26.5 78.5 C 26.957031 79.875 28.535156 81 30 81 C 31.464844 81 33.042969 79.875 33.5 78.5 C 33.996094 77.011719 32.578125 76 30 76 C 27.421875 76 26.003906 77.011719 26.5 78.5 M 42.394531 86.5 L 43 97 L 63 97 L 64.210938 76 L 41.789062 76 L 42.394531 86.5 M 72.394531 86.5 L 73 97 L 93 97 L 94.210938 76 L 71.789062 76 L 72.394531 86.5 M 48 86 C 48 88.664062 49.335938 90 52 90 C 54.664062 90 56 88.664062 56 86 C 56 83.335938 54.664062 82 52 82 C 49.335938 82 48 83.335938 48 86 M 78 86 C 78 88.664062 79.335938 90 82 90 C 84.664062 90 86 88.664062 86 86 C 86 83.335938 84.664062 82 82 82 C 79.335938 82 78 83.335938 78 86 M 26.890625 92.175781 C 24.832031 95.511719 29.464844 99.335938 32.226562 96.574219 C 34.535156 94.265625 33.089844 90 30 90 C 29.03125 90 27.632812 90.976562 26.890625 92.175781 "/>
</g>
</svg>
