<svg width="120" height="60" viewBox="0 0 120 60" fill="none" xmlns="http://www.w3.org/2000/svg">
    <path d="M17 19h22v22H17z" fill="#ff8c00"/>
    <path d="M23 32.5a3.5 3.5 0 1 1 0 7 3.5 3.5 0 0 1 0-7M37 35h-8v-2h8zm-10-4h-8v-2h8zm10 0h-8v-2h8zm-10-4h-8v-2h8zm10 0h-8v-2h8zm-10-4h-8v-2h8zm10 0h-8v-2h8z" fill="#fff"/>
    <path d="M56.805 26.273q0 1.32-.328 2.407a5.1 5.1 0 0 1-1 1.86 4.35 4.35 0 0 1-1.688 1.202q-1.024.414-2.422.414t-2.422-.414a4.4 4.4 0 0 1-1.695-1.203 5.1 5.1 0 0 1-.992-1.867q-.328-1.086-.328-2.414 0-1.773.578-3.086.586-1.32 1.797-2.047t3.078-.727q1.86 0 3.054.727a4.4 4.4 0 0 1 1.782 2.047q.585 1.32.586 3.101m-8.336 0q0 1.196.297 2.063.304.86.945 1.328.641.46 1.656.461 1.032 0 1.672-.46.64-.47.93-1.33.297-.866.297-2.062 0-1.796-.672-2.828-.672-1.03-2.211-1.03-1.024 0-1.672.468-.64.46-.945 1.328-.297.86-.297 2.062m20.179-.093q0 1.93-.742 3.226-.734 1.29-2.133 1.946-1.398.648-3.367.648h-3.234V20.578h3.586q1.797 0 3.117.64a4.6 4.6 0 0 1 2.047 1.884q.726 1.242.726 3.078m-2.515.062q0-1.265-.375-2.078-.368-.82-1.094-1.21-.72-.392-1.781-.392h-1.29V30h1.04q1.773 0 2.633-.945.867-.945.867-2.813m8.273-3.156q1.757 0 2.696.766.937.765.937 2.328V32h-1.664l-.46-1.187h-.063q-.376.468-.766.765t-.898.438-1.235.14q-.774 0-1.39-.297a2.2 2.2 0 0 1-.961-.906q-.352-.617-.352-1.562 0-1.391.977-2.047.975-.665 2.93-.735l1.515-.047v-.382q0-.688-.36-1.008-.359-.32-1-.32-.632 0-1.242.18a10 10 0 0 0-1.218.452l-.79-1.609a6.8 6.8 0 0 1 1.555-.578 7.5 7.5 0 0 1 1.79-.211m1.266 4.867-.922.031q-1.155.032-1.61.414-.445.384-.445 1.008 0 .547.32.782.321.225.837.226.765 0 1.289-.453.53-.453.53-1.29zm8.507 2.305q.39 0 .757-.078.375-.078.743-.196v1.774a4.4 4.4 0 0 1-.953.281 6 6 0 0 1-1.235.117q-.781 0-1.406-.25a2 2 0 0 1-.977-.883q-.351-.632-.351-1.757v-4.211h-1.14v-1.008l1.312-.797.687-1.844h1.524v1.86h2.445v1.789H83.14v4.21q0 .501.28.75.29.243.759.243m6.852-7.172q1.757 0 2.696.766.937.765.937 2.328V32H93l-.46-1.187h-.063q-.376.468-.766.765t-.898.438-1.235.14q-.774 0-1.39-.297a2.2 2.2 0 0 1-.961-.906q-.352-.617-.352-1.562 0-1.391.977-2.047.975-.665 2.93-.735l1.515-.047v-.382q0-.688-.36-1.008-.359-.32-1-.32-.632 0-1.242.18a10 10 0 0 0-1.218.452l-.79-1.609a6.8 6.8 0 0 1 1.555-.578 7.5 7.5 0 0 1 1.79-.211m1.266 4.867-.922.031q-1.155.032-1.61.414-.445.384-.445 1.008 0 .547.32.782.321.225.837.226.765 0 1.289-.453.53-.453.53-1.29zm-42.28 10.542q0 .578-.147 1.052a2.3 2.3 0 0 1-.438.814q-.287.338-.714.523a2.5 2.5 0 0 1-.992.184 2.6 2.6 0 0 1-1.015-.184 1.9 1.9 0 0 1-.717-.527q-.284-.341-.428-.816a3.7 3.7 0 0 1-.14-1.053q0-.765.253-1.343a1.96 1.96 0 0 1 .766-.9q.516-.32 1.292-.32.741 0 1.247.317.51.318.77.896.263.574.263 1.357m-3.979 0q0 .636.181 1.1.182.465.554.718.375.253.953.253.582 0 .95-.253.374-.253.551-.718t.178-1.1q0-.968-.407-1.511-.404-.547-1.261-.547-.582 0-.957.25a1.5 1.5 0 0 0-.56.71q-.182.459-.182 1.098m6.768-1.309q.701 0 1.117.481.417.483.417 1.45 0 .64-.191 1.073a1.44 1.44 0 0 1-.54.656q-.346.222-.817.222-.298 0-.523-.078a1.2 1.2 0 0 1-.386-.212 1.4 1.4 0 0 1-.267-.29h-.04l.023.32q.017.189.017.329v1.538h-.57v-5.421h.468l.075.554h.027q.11-.171.267-.311.157-.144.383-.226.228-.086.54-.086m-.1.478q-.39 0-.628.15a.86.86 0 0 0-.346.452 2.3 2.3 0 0 0-.116.748v.11q0 .474.103.803.105.328.345.499.242.17.65.17a.9.9 0 0 0 .58-.187q.232-.189.346-.523.116-.34.116-.776 0-.663-.26-1.053-.255-.393-.79-.393m4.068-.477q.478 0 .82.212.342.21.523.594.18.38.181.889v.352h-2.587q.01.66.328 1.005t.895.345q.355 0 .63-.065a3.5 3.5 0 0 0 .567-.191v.499q-.284.126-.564.184a3.2 3.2 0 0 1-.656.058q-.54 0-.944-.218a1.53 1.53 0 0 1-.622-.65q-.222-.427-.222-1.046 0-.605.202-1.046.204-.444.574-.683.372-.24.875-.24m-.007.464q-.454 0-.724.298-.27.297-.322.83h1.983a1.6 1.6 0 0 0-.106-.588.83.83 0 0 0-.305-.396.9.9 0 0 0-.526-.144m4.269-.463q.666 0 1.008.328.342.324.342 1.046V41h-.56v-2.403q0-.468-.216-.7-.211-.233-.652-.233-.623 0-.876.352-.252.353-.252 1.022V41h-.568v-3.746h.458l.086.54h.03q.12-.198.305-.332.184-.136.413-.205.229-.071.482-.072m8.391 1.269q0 .843-.307 1.411a2 2 0 0 1-.892.851q-.582.285-1.412.284H65.46v-4.997h1.507q.762 0 1.313.28.551.278.847.824.301.543.301 1.347m-.612.02q0-.674-.225-1.11a1.4 1.4 0 0 0-.656-.65q-.432-.215-1.057-.215h-.837V40.5h.708q1.032 0 1.548-.51.52-.509.52-1.517m3.038-1.281q.67 0 .995.301.324.3.324.96V41h-.413l-.11-.554h-.027a2 2 0 0 1-.328.346q-.17.136-.397.208-.222.069-.546.068-.342 0-.609-.12a.95.95 0 0 1-.417-.362q-.15-.242-.15-.615 0-.56.444-.861.445-.3 1.354-.328l.646-.028v-.229q0-.485-.209-.68t-.588-.195q-.294 0-.56.086a4 4 0 0 0-.506.202l-.174-.431a3 3 0 0 1 .58-.222q.33-.093.691-.093m.759 1.962-.571.024q-.7.028-.988.23a.66.66 0 0 0-.287.57q0 .321.195.475t.516.154q.5 0 .817-.277.318-.276.318-.83zm2.939 1.45a1.8 1.8 0 0 0 .527-.082v.44q-.1.045-.277.076-.175.03-.342.03-.297 0-.54-.102a.84.84 0 0 1-.39-.356q-.144-.249-.143-.69v-2.222h-.534v-.277l.537-.222.226-.813h.341v.868h1.098v.444h-1.097v2.205q0 .352.16.526.165.174.434.174m2.687-3.411q.67 0 .994.301.325.3.325.96V41h-.413l-.11-.554h-.027a2 2 0 0 1-.328.346q-.17.136-.397.208-.222.069-.547.068-.341 0-.608-.12a.95.95 0 0 1-.417-.362q-.15-.242-.15-.615 0-.56.444-.861t1.353-.328l.646-.028v-.229q0-.485-.208-.68-.21-.195-.588-.195-.294 0-.56.086a4 4 0 0 0-.506.202l-.175-.431q.254-.13.581-.222.33-.093.69-.093m.759 1.962-.571.024q-.701.028-.988.23a.66.66 0 0 0-.287.57q0 .321.195.475t.516.154q.499 0 .817-.277.318-.276.318-.83zm4.94-3.151q.966 0 1.411.38.448.375.448 1.08 0 .317-.106.604-.102.285-.335.503a1.7 1.7 0 0 1-.612.342q-.375.123-.923.123h-.608V41h-.581v-4.997zm-.055.495h-.67v2.038h.543q.48 0 .797-.103a.9.9 0 0 0 .482-.331q.16-.232.16-.616 0-.499-.318-.741-.318-.246-.994-.246m4.577.687q.112 0 .235.013.123.01.22.031l-.073.526a1.8 1.8 0 0 0-.417-.051 1.01 1.01 0 0 0-.776.352 1.2 1.2 0 0 0-.235.407 1.5 1.5 0 0 0-.086.526V41h-.57v-3.746h.471l.061.69h.024q.117-.208.28-.38.165-.173.38-.276a1.1 1.1 0 0 1 .486-.102m4.392 1.934q0 .462-.12.824t-.345.612-.547.383q-.319.13-.721.13-.376 0-.69-.13a1.6 1.6 0 0 1-.54-.383 1.8 1.8 0 0 1-.353-.612 2.6 2.6 0 0 1-.123-.824q0-.615.209-1.046.209-.435.594-.66.39-.228.927-.229.512 0 .895.23.387.228.598.663.216.43.216 1.042m-2.851 0q0 .45.12.783.12.33.369.513.249.18.642.18.39 0 .64-.18.252-.182.372-.513t.12-.783q0-.447-.12-.772a1.04 1.04 0 0 0-.37-.506q-.248-.178-.645-.178-.585 0-.858.386-.27.387-.27 1.07m5.042 1.484a1.8 1.8 0 0 0 .526-.082v.44q-.1.045-.277.076-.174.03-.342.03-.297 0-.54-.102a.84.84 0 0 1-.39-.356q-.143-.249-.143-.69v-2.222h-.533v-.277l.536-.222.226-.813h.342v.868h1.097v.444h-1.097v2.205q0 .352.16.526.165.174.434.174m4.516-1.483q0 .462-.12.824t-.345.612-.547.383q-.318.13-.721.13-.376 0-.69-.13a1.6 1.6 0 0 1-.54-.383 1.8 1.8 0 0 1-.353-.612 2.6 2.6 0 0 1-.123-.824q0-.615.209-1.046.209-.435.594-.66.39-.228.927-.229.512 0 .895.23.387.228.598.663.216.43.216 1.042m-2.851 0q0 .45.12.783.12.33.369.513.249.18.642.18.39 0 .64-.18.252-.182.372-.513t.12-.783q0-.447-.12-.772a1.04 1.04 0 0 0-.369-.506q-.25-.178-.646-.178-.585 0-.858.386-.27.387-.27 1.07m5.332 1.948q-.506 0-.892-.208a1.43 1.43 0 0 1-.602-.636q-.215-.428-.215-1.076 0-.68.226-1.111.228-.435.629-.643.399-.209.909-.209.28 0 .54.059.263.054.43.14l-.17.475a3 3 0 0 0-.397-.123 1.8 1.8 0 0 0-.417-.055q-.39 0-.649.168-.256.166-.387.492a2.2 2.2 0 0 0-.126.8q0 .454.123.776.127.321.373.492.249.167.622.167.297 0 .536-.061.24-.066.434-.15v.505a1.8 1.8 0 0 1-.42.147 2.5 2.5 0 0 1-.547.051m5.086-1.948q0 .462-.12.824a1.7 1.7 0 0 1-.345.612q-.226.25-.547.383-.318.13-.721.13-.376 0-.69-.13a1.55 1.55 0 0 1-.54-.383 1.8 1.8 0 0 1-.352-.612 2.6 2.6 0 0 1-.123-.824q0-.615.208-1.046.208-.435.595-.66.39-.228.926-.229.513 0 .896.23.385.228.598.663.215.43.215 1.042m-2.851 0q0 .45.12.783.12.33.369.513.25.18.643.18.39 0 .639-.18.253-.182.372-.513a2.3 2.3 0 0 0 .12-.783q0-.447-.12-.772a1.03 1.03 0 0 0-.369-.506q-.249-.178-.646-.178-.583 0-.858.386-.27.387-.27 1.07m4.403 1.88h-.571v-5.318h.571z" fill="#000"/>
</svg>
