<svg width="28" height="28" viewBox="0 0 28 28" fill="none" xmlns="http://www.w3.org/2000/svg">
<path fill-rule="evenodd" clip-rule="evenodd" d="M20.0556 7.34276L18.4 8.99839H23.7846V3.61377L22.1787 5.21967C20.0354 3.22214 17.1599 2 13.999 2C7.37161 2 1.99902 7.37258 1.99902 14H4.99902C4.99902 9.02944 9.02846 5 13.999 5C16.3315 5 18.4567 5.88729 20.0556 7.34276ZM7.94507 20.6572L9.6007 19.0016H4.2161V24.3862L5.82199 22.7803C7.96527 24.7779 10.8407 26 14.0017 26C20.6291 26 26.0017 20.6274 26.0017 14H23.0017C23.0017 18.9706 18.9722 23 14.0017 23C11.6692 23 9.54395 22.1127 7.94507 20.6572ZM14.4554 10.2198L12.5043 17.5014L13.5446 17.7802L15.4957 10.4986L14.4554 10.2198ZM18 14L16 12L17 11L20 14L17 17L16 16L18 14ZM12 12L10 14L12 16L11 17L8 14L11 11L12 12Z" fill="#444444"/>
</svg>
