<svg width="120" height="60" viewBox="0 0 120 60" fill="none" xmlns="http://www.w3.org/2000/svg">
<path d="M111 33H108V36H109.688C109.688 36.8284 108.932 37.5 108 37.5V39C109.864 39 111 37.6569 111 36V33Z" fill="white"/>
<path d="M103 33H106V36C106 37.6569 104.864 39 103 39V37.5C103.932 37.5 104.688 36.8284 104.688 36H103V33Z" fill="white"/>
<path fill-rule="evenodd" clip-rule="evenodd" d="M37.5007 22H26V26.081H26.5503C26.6685 24.7299 27.1846 23.8076 28.0987 23.314C28.5961 23.0487 29.3112 22.9037 30.244 22.8791V32.8551C30.244 33.5461 30.1196 34.0088 29.8709 34.2432C29.6284 34.4715 29.134 34.5857 28.3878 34.5857V35.0669H35.1968V34.5857C34.4195 34.5857 33.9065 34.4715 33.6578 34.2432C33.4153 34.015 33.294 33.5523 33.294 32.8551V22.8791C34.2454 22.9037 34.9605 23.0487 35.4393 23.314C36.2912 23.7952 36.8073 24.7176 36.9877 26.081H37.538L37.5007 22ZM95.4035 34.3544C95.2356 34.4963 94.9558 34.5827 94.564 34.6135V35.067H99.8713V34.6135C99.2184 34.5704 98.7956 34.4747 98.6028 34.3267C98.4163 34.1786 98.323 33.7776 98.323 33.1236V27.3027H99.9833V26.4698H98.323V24.0175C98.323 23.4252 98.4069 23.0396 98.5748 22.8607C98.7427 22.6818 98.9821 22.5923 99.293 22.5923C99.4236 22.5923 99.5449 22.6139 99.6568 22.6571C99.7687 22.7003 99.8247 22.799 99.8247 22.9532C99.8247 23.0026 99.7532 23.1445 99.6102 23.3789C99.4734 23.6072 99.405 23.8262 99.405 24.036C99.405 24.3136 99.5138 24.5511 99.7314 24.7485C99.9491 24.946 100.21 25.0447 100.515 25.0447C100.882 25.0447 101.174 24.9367 101.392 24.7208C101.616 24.5048 101.727 24.221 101.727 23.8694C101.727 23.308 101.463 22.8576 100.935 22.5183C100.412 22.1728 99.7718 22 99.0132 22C97.5892 22 96.613 22.5306 96.0844 23.5918C95.8046 24.1594 95.6647 24.8843 95.6647 25.7665V26.4698H94.564V27.3027H95.6647V33.466C95.6647 33.9164 95.5776 34.2125 95.4035 34.3544ZM52.1151 34.2804C52.8053 34.2804 53.2717 33.8269 53.5142 32.92C53.6448 32.4203 53.71 31.7015 53.71 30.7638C53.71 29.678 53.6106 28.8142 53.4116 28.1726C53.2126 27.5248 52.8084 27.2009 52.199 27.2009C51.7886 27.2009 51.4217 27.3798 51.0984 27.7377C50.775 28.0955 50.6133 28.3546 50.6133 28.515V33.1236C50.6133 33.3087 50.7657 33.5493 51.0704 33.8454C51.3813 34.1354 51.7295 34.2804 52.1151 34.2804ZM46.8731 38.5188C47.2835 38.4756 47.5633 38.38 47.7125 38.2319C47.8618 38.09 47.9364 37.8186 47.9364 37.4176V27.895C47.9364 27.5001 47.8649 27.2348 47.7219 27.0991C47.5851 26.9572 47.3177 26.8585 46.9197 26.803V26.3403H50.5667V27.5896C50.8279 27.1577 51.0828 26.84 51.3316 26.6364C51.7793 26.2786 52.3514 26.0997 53.0478 26.0997C54.0489 26.0997 54.8791 26.4729 55.5382 27.2194C56.2036 27.9659 56.5362 29.0795 56.5362 30.5602C56.5362 31.936 56.1787 33.0773 55.4636 33.9842C54.7547 34.885 53.8904 35.3354 52.8706 35.3354C52.3482 35.3354 51.8539 35.1842 51.3875 34.8819C51.1388 34.7215 50.8807 34.4932 50.6133 34.1971V35.7981C50.6196 36.6495 50.6258 37.1276 50.632 37.2325C50.6755 37.7322 50.803 38.0746 51.0144 38.2597C51.2321 38.4448 51.5927 38.5527 52.0964 38.5836V38.9723H46.8731V38.5188ZM37.2845 37.5101C37.2845 37.0782 37.4089 36.7605 37.6576 36.5569C37.9125 36.3533 38.2141 36.2515 38.5624 36.2515C38.867 36.2515 39.1158 36.341 39.3085 36.5199C39.5075 36.6988 39.607 36.9117 39.607 37.1584L39.5604 37.5749C39.5604 37.6551 39.5915 37.7291 39.6537 37.797C39.7158 37.8649 39.7936 37.8988 39.8868 37.8988C40.1978 37.8988 40.4869 37.6489 40.7543 37.1492C40.9222 36.8407 41.1647 36.2361 41.4818 35.3354L39.1873 29.7181C39.0256 29.3232 38.867 28.953 38.7116 28.6075C38.5624 28.2621 38.4038 27.9258 38.2359 27.5988C38.0618 27.2657 37.925 27.0559 37.8255 26.9696C37.726 26.8832 37.5457 26.8277 37.2845 26.803V26.3403H42.0601V26.803C41.7616 26.8091 41.516 26.8431 41.3233 26.9048C41.1367 26.9665 41.0434 27.0991 41.0434 27.3027C41.0434 27.3459 41.0528 27.4045 41.0714 27.4785C41.0963 27.5526 41.146 27.6852 41.2207 27.8765L42.7224 31.6892H42.8716L44.0935 28.2744C44.1557 28.0893 44.2054 27.9289 44.2427 27.7932C44.2863 27.6513 44.308 27.5279 44.308 27.423C44.308 27.1577 44.2179 26.9911 44.0375 26.9233C43.8634 26.8492 43.6023 26.8091 43.254 26.803V26.3403H46.1455V26.803C45.8968 26.8215 45.6916 26.8893 45.5299 27.0066C45.3745 27.1176 45.2128 27.3922 45.0449 27.8302L42.1907 35.3816C41.6684 36.7759 41.2176 37.723 40.8382 38.2227C40.4651 38.7224 39.8775 38.9723 39.0754 38.9723C38.4908 38.9723 38.0462 38.818 37.7415 38.5096C37.4368 38.2073 37.2845 37.8741 37.2845 37.5101ZM58.8028 27.423C57.9882 28.3052 57.5809 29.4065 57.5809 30.7268C57.5809 32.0409 57.9882 33.1421 58.8028 34.0305C59.6174 34.9128 60.6465 35.3539 61.8902 35.3539C63.1711 35.3539 64.2096 34.9004 65.0055 33.9935C65.8015 33.0804 66.1994 31.9915 66.1994 30.7268C66.1994 29.4435 65.7952 28.3515 64.9869 27.4508C64.1847 26.55 63.1525 26.0997 61.8902 26.0997C60.6527 26.0997 59.6236 26.5408 58.8028 27.423ZM60.5937 33.5123C60.4569 32.9817 60.3885 32.0532 60.3885 30.7268C60.3885 29.4188 60.46 28.4903 60.603 27.9412C60.8206 27.1207 61.2528 26.7104 61.8995 26.7104C62.4902 26.7104 62.8851 27.0282 63.0841 27.6636C63.2893 28.2929 63.3919 29.314 63.3919 30.7268C63.3919 32.1457 63.2955 33.1699 63.1027 33.7992C62.91 34.4285 62.5058 34.7431 61.8902 34.7431C61.2435 34.7431 60.8113 34.3328 60.5937 33.5123ZM69.9397 29.1721C69.9397 29.9001 70.0019 30.4399 70.1263 30.7915C70.3128 31.3468 70.6704 31.6244 71.1989 31.6244C71.6777 31.6244 72.0073 31.4177 72.1876 31.0044C72.3679 30.5849 72.4581 29.9741 72.4581 29.1721C72.4581 28.3207 72.3617 27.7006 72.169 27.312C71.9824 26.9233 71.6591 26.7289 71.1989 26.7289C70.6952 26.7289 70.3594 26.9387 70.1916 27.3582C70.0237 27.7716 69.9397 28.3762 69.9397 29.1721ZM68.8298 37.1307C68.8298 37.5194 69.0381 37.8248 69.4547 38.0469C69.8775 38.269 70.4869 38.38 71.2829 38.38C71.9917 38.38 72.5763 38.3245 73.0364 38.2134C73.9007 38.0037 74.3329 37.6181 74.3329 37.0566C74.3329 36.7297 74.2086 36.4829 73.9598 36.3163C73.7173 36.1559 73.2727 36.0757 72.626 36.0757H69.492C69.293 36.2361 69.15 36.3718 69.0629 36.4829C68.9075 36.6865 68.8298 36.9024 68.8298 37.1307ZM67.1508 37.2602C67.1508 36.9888 67.2628 36.7081 67.4866 36.4181C67.7167 36.1343 68.1115 35.9492 68.6712 35.8629V35.7333C68.2981 35.5914 68.0276 35.4464 67.8597 35.2983C67.5612 35.0331 67.412 34.6783 67.412 34.2341C67.412 33.7035 67.6452 33.2501 68.1115 32.8737C68.5841 32.4974 69.0443 32.2352 69.492 32.0871V31.9576C68.8453 31.6985 68.323 31.3283 67.925 30.8471C67.527 30.3659 67.328 29.7828 67.328 29.098C67.328 28.2343 67.6763 27.5217 68.3727 26.9603C69.0692 26.3989 70.0112 26.1182 71.1989 26.1182C71.6466 26.1182 72.057 26.1613 72.4301 26.2477C72.8032 26.3341 73.0924 26.4236 73.2976 26.5161H75.816V27.5248H74.2676C74.5164 27.7654 74.706 28.0461 74.8366 28.3669C74.9734 28.6878 75.0418 29.0363 75.0418 29.4127C75.0418 30.5972 74.4728 31.4085 73.3349 31.8465C72.7379 32.081 71.9949 32.1982 71.1056 32.1982C70.9129 32.1982 70.7854 32.1951 70.7232 32.1889C70.6673 32.1828 70.5802 32.1797 70.462 32.1797C70.2755 32.2105 70.0796 32.3092 69.8744 32.4758C69.663 32.6486 69.5573 32.8552 69.5573 33.0958C69.5573 33.2871 69.6101 33.4352 69.7159 33.54C69.8216 33.6449 69.9677 33.7097 70.1542 33.7344C70.2475 33.7467 70.4465 33.7591 70.7512 33.7714C71.0559 33.7776 71.2922 33.7807 71.4601 33.7807L72.7006 33.7992C73.4033 33.8115 73.994 33.9133 74.4728 34.1046C75.3869 34.4747 75.844 35.1379 75.844 36.0942C75.844 37.3281 75.1599 38.1764 73.7919 38.6391C73.0706 38.8797 72.1627 39 71.0683 39C70.1729 39 69.4018 38.9137 68.7551 38.7409C67.6856 38.451 67.1508 37.9574 67.1508 37.2602ZM77.3736 34.3544C77.2306 34.484 76.9757 34.5704 76.6088 34.6135V35.067H81.7016V34.6135C81.1544 34.5642 80.7875 34.4624 80.6009 34.3081C80.4206 34.1477 80.3304 33.7529 80.3304 33.1236V29.5422C80.3304 28.9623 80.4579 28.5181 80.7129 28.2096C80.974 27.895 81.2321 27.7377 81.487 27.7377C81.6052 27.7377 81.8104 27.9258 82.1026 28.3022C82.4011 28.6785 82.7524 28.8667 83.1566 28.8667C83.5111 28.8667 83.7971 28.7464 84.0148 28.5058C84.2386 28.2651 84.3505 27.9598 84.3505 27.5896C84.3505 27.1084 84.192 26.7444 83.8748 26.4976C83.5639 26.2446 83.2126 26.1182 82.8209 26.1182C82.2985 26.1182 81.8384 26.2724 81.4404 26.5809C81.0424 26.8893 80.6413 27.3058 80.2372 27.8302V26.3403H76.6088V26.803C77.013 26.8523 77.2835 26.948 77.4203 27.0899C77.5571 27.2318 77.6255 27.5001 77.6255 27.895V33.0496L77.6068 33.6048C77.5944 33.975 77.5167 34.2249 77.3736 34.3544ZM88.9396 33.9842C89.2505 33.9842 89.5397 33.8917 89.8071 33.7066C89.9563 33.5956 90.1335 33.4228 90.3387 33.1884V30.4214C89.8288 30.5448 89.3811 30.7391 88.9956 31.0044C88.3427 31.4548 88.0162 32.0285 88.0162 32.7257C88.0162 33.139 88.1095 33.4537 88.296 33.6696C88.4888 33.8794 88.7033 33.9842 88.9396 33.9842ZM85.2366 33.2994C85.2366 32.448 85.6502 31.7725 86.4772 31.2728C87.3042 30.773 88.6007 30.2702 90.3667 29.7643V28.3854C90.3667 27.824 90.2455 27.4107 90.0029 27.1454C89.7667 26.8739 89.3438 26.7382 88.7344 26.7382C88.3924 26.7382 88.1095 26.803 87.8856 26.9325C87.668 27.0559 87.5592 27.2132 87.5592 27.4045C87.5592 27.4785 87.5716 27.5402 87.5965 27.5896C87.6213 27.6389 87.6587 27.6914 87.7084 27.7469L87.8203 27.8765C87.9074 27.9813 87.9758 28.0986 88.0255 28.2281C88.0815 28.3515 88.1095 28.4842 88.1095 28.6261C88.1095 28.9839 87.9882 29.2615 87.7457 29.4589C87.5094 29.6502 87.2327 29.7458 86.9156 29.7458C86.5487 29.7458 86.2347 29.6379 85.9735 29.4219C85.7186 29.206 85.5911 28.8944 85.5911 28.4872C85.5911 27.7592 85.9362 27.1824 86.6264 26.7567C87.3167 26.331 88.1654 26.1182 89.1728 26.1182C90.2548 26.1182 91.1595 26.3248 91.8871 26.7382C92.6084 27.1577 92.9691 27.9289 92.9691 29.0518V33.6418C92.9691 33.7776 93.0033 33.8948 93.0717 33.9935C93.1463 34.086 93.2271 34.1323 93.3142 34.1323C93.3888 34.1323 93.4541 34.12 93.51 34.0953C93.5722 34.0645 93.6655 33.9873 93.7899 33.8639L94.079 34.2619C93.7059 34.6937 93.2924 34.996 92.8385 35.1688C92.5524 35.2798 92.2508 35.3354 91.9337 35.3354C91.3679 35.3354 90.9543 35.1719 90.6932 34.8449C90.5439 34.6598 90.4351 34.3853 90.3667 34.0213C89.8382 34.5457 89.2412 34.9158 88.5759 35.1318C88.1717 35.2675 87.7737 35.3354 87.3819 35.3354C86.8596 35.3354 86.3715 35.1719 85.9175 34.8449C85.4636 34.5117 85.2366 33.9966 85.2366 33.2994Z" fill="white"/>
<path d="M16 22H18.8571L15.4286 27.5L18.8571 33H16L12 27.5L16 22Z" fill="white"/>
<path d="M21.1429 22H24L20.5714 27.5L24 33H21.1429L17.1429 27.5L21.1429 22Z" fill="white"/>
</svg>
