<?xml version="1.0" standalone="no"?>
<!DOCTYPE svg PUBLIC "-//W3C//DTD SVG 20010904//EN"
 "http://www.w3.org/TR/2001/REC-SVG-20010904/DTD/svg10.dtd">
<svg version="1.0" xmlns="http://www.w3.org/2000/svg"
 width="114.000000pt" height="122.000000pt" viewBox="0 0 114.000000 122.000000"
 preserveAspectRatio="xMidYMid meet">

<g transform="translate(0.000000,122.000000) scale(0.100000,-0.100000)"
fill="#000000" stroke="none">
<path d="M350 1121 c0 -31 42 -87 81 -106 36 -19 38 -35 4 -35 -14 0 -49 -8
-78 -18 -32 -12 -60 -16 -72 -11 -31 12 -39 10 -26 -5 9 -11 3 -19 -31 -39
-65 -38 -118 -94 -147 -156 -21 -46 -27 -74 -29 -156 -4 -122 16 -195 85 -297
53 -81 114 -135 208 -185 69 -37 72 -38 198 -41 114 -4 136 -1 190 18 110 40
182 96 251 194 70 99 99 184 98 291 0 151 -46 243 -154 314 -35 22 -70 47 -80
55 -9 8 -19 12 -21 9 -3 -2 -29 3 -58 11 -29 9 -65 16 -81 16 -38 0 -35 16 6
30 52 17 86 53 86 92 l0 33 -19 -31 c-23 -38 -58 -64 -86 -64 -11 0 -33 -7
-49 -15 -15 -8 -30 -15 -31 -15 -10 0 -12 33 -5 64 7 33 6 36 -15 36 -20 0
-24 -6 -30 -50 -4 -28 -10 -49 -14 -47 -3 1 -24 11 -46 20 -75 33 -87 42 -111
77 -22 32 -24 33 -24 11z m455 -301 l0 -35 -236 -3 -237 -2 -4 35 c-2 20 -2
38 1 40 2 3 111 4 240 3 l236 -3 0 -35z m-87 -96 c4 -52 -30 -96 -91 -117
l-42 -14 0 -68 0 -69 34 -10 c18 -5 49 -24 67 -41 29 -28 34 -39 34 -79 l0
-46 -150 0 -150 0 0 46 c0 40 5 51 34 79 19 18 47 36 63 40 37 9 43 20 43 80
0 60 -6 70 -44 79 -16 4 -44 22 -63 41 -28 28 -33 40 -33 79 l0 47 148 -3 147
-3 3 -41z m82 -494 l0 -40 -235 0 c-256 0 -255 0 -241 55 l6 25 235 0 235 0 0
-40z"/>
</g>
</svg>
