<?xml version="1.0" encoding="UTF-8"?>
<svg version="1.1" xmlns="http://www.w3.org/2000/svg" width="114" height="122">
<path d="M0 0 C1.32 0.33 2.64 0.66 4 1 C5.9593426 6.53226146 6.30237833 10.23232455 5 16 C3.17890734 18.76101146 1.95798903 20.52100548 -1 22 C3.14520361 24.07260181 5.52066791 23.7963257 10 23 C12 25 12 25 12 28 C12.70125 28.2475 13.4025 28.495 14.125 28.75 C23.03675135 32.6246745 29.02684403 39.34134487 33.2734375 47.9453125 C37.48307172 59.849977 35.86765621 74.44652954 30.78125 85.6953125 C27.22024293 92.79754327 22.58744595 98.39277548 17 104 C16.44699219 104.57621094 15.89398438 105.15242188 15.32421875 105.74609375 C3.99539101 116.56891926 -10.03500654 117.53237392 -24.77734375 117.34375 C-31.84673152 117.09183418 -36.94577377 115.79518659 -43 112 C-44.18142578 111.33097656 -44.18142578 111.33097656 -45.38671875 110.6484375 C-57.35445432 103.37432997 -67.06488408 91.72135663 -71 78.1875 C-73.59281087 65.47599214 -73.19872795 52.45343036 -66.25 41.25 C-63.33529204 37.1462072 -60.0013335 34.02279916 -56 31 C-55.195625 30.38125 -54.39125 29.7625 -53.5625 29.125 C-53.046875 28.75375 -52.53125 28.3825 -52 28 C-53.2375 27.3503125 -53.2375 27.3503125 -54.5 26.6875 C-55.325 26.130625 -56.15 25.57375 -57 25 C-57 24.01 -57 23.02 -57 22 C-56.030625 22.144375 -55.06125 22.28875 -54.0625 22.4375 C-53.42570312 22.52515625 -52.78890625 22.6128125 -52.1328125 22.703125 C-50.66714382 22.90713749 -49.20359024 23.12676418 -47.7421875 23.359375 C-42.91291468 24.04693249 -39.59786989 24.00419969 -35 22 C-35.49371094 21.5153125 -35.98742188 21.030625 -36.49609375 20.53125 C-41.13013065 15.68276068 -43 12.75658358 -43 6 C-42.5625 3.5 -42.5625 3.5 -42 2 C-40.08203125 2.26171875 -40.08203125 2.26171875 -38 3 C-37.19921875 4.70703125 -37.19921875 4.70703125 -36.6875 6.8125 C-35.59825495 10.13975673 -34.68873743 11.63469127 -31.625 13.375 C-27.35510045 15.29288367 -27.35510045 15.29288367 -23 17 C-23.020625 15.865625 -23.04125 14.73125 -23.0625 13.5625 C-23 10 -23 10 -22 9 C-20.48071962 8.92820036 -18.95832518 8.91607993 -17.4375 8.9375 C-16.61121094 8.94652344 -15.78492188 8.95554687 -14.93359375 8.96484375 C-14.29550781 8.97644531 -13.65742187 8.98804688 -13 9 C-13 11.64 -13 14.28 -13 17 C-8.28005942 15.85027088 -4.84944641 14.89088282 -1.4375 11.3125 C0.36484757 7.1592643 0.30936438 4.48578353 0 0 Z " fill="#EA292A" transform="translate(75,0)"/>
<path d="M0 0 C1.32 0.33 2.64 0.66 4 1 C5.9593426 6.53226146 6.30237833 10.23232455 5 16 C3.17890734 18.76101146 1.95798903 20.52100548 -1 22 C3.07369424 24.03684712 5.58937864 24.0257259 10 23 C10.495 24.98 10.495 24.98 11 27 C5.03733123 31.24012001 0.23554611 31.85761923 -7 31 C-10.4165582 30.20280309 -13.70480182 29.20085313 -17 28 C-16.505 28.61875 -16.01 29.2375 -15.5 29.875 C-14 32 -14 32 -14 34 C-16.25 34.25 -16.25 34.25 -19 34 C-21.3125 32.125 -21.3125 32.125 -23 30 C-23 29.34 -23 28.68 -23 28 C-23.65484375 28.2165625 -24.3096875 28.433125 -24.984375 28.65625 C-33.39351519 31.2217504 -42.32647949 33.15250453 -50.5625 29.125 C-52.77777267 27.83871264 -54.86601397 26.42265736 -57 25 C-57 24.01 -57 23.02 -57 22 C-56.030625 22.144375 -55.06125 22.28875 -54.0625 22.4375 C-53.42570312 22.52515625 -52.78890625 22.6128125 -52.1328125 22.703125 C-50.66714382 22.90713749 -49.20359024 23.12676418 -47.7421875 23.359375 C-42.91291468 24.04693249 -39.59786989 24.00419969 -35 22 C-35.49371094 21.5153125 -35.98742187 21.030625 -36.49609375 20.53125 C-41.13013065 15.68276068 -43 12.75658358 -43 6 C-42.5625 3.5 -42.5625 3.5 -42 2 C-40.08203125 2.26171875 -40.08203125 2.26171875 -38 3 C-37.19921875 4.70703125 -37.19921875 4.70703125 -36.6875 6.8125 C-35.59825495 10.13975673 -34.68873743 11.63469127 -31.625 13.375 C-27.35510045 15.29288367 -27.35510045 15.29288367 -23 17 C-23.020625 15.865625 -23.04125 14.73125 -23.0625 13.5625 C-23 10 -23 10 -22 9 C-20.48071962 8.92820036 -18.95832518 8.91607993 -17.4375 8.9375 C-16.61121094 8.94652344 -15.78492188 8.95554687 -14.93359375 8.96484375 C-14.29550781 8.97644531 -13.65742187 8.98804688 -13 9 C-13 11.64 -13 14.28 -13 17 C-8.28005942 15.85027088 -4.84944641 14.89088282 -1.4375 11.3125 C0.36484757 7.1592643 0.30936438 4.48578353 0 0 Z " fill="#0F9B42" transform="translate(75,0)"/>
<path d="M0 0 C9.9 0 19.8 0 30 0 C30 9.72727273 30 9.72727273 27 13 C19.83934426 17 19.83934426 17 16 17 C16 21.95 16 26.9 16 32 C17.65 32.33 19.3 32.66 21 33 C23.203125 34.12109375 23.203125 34.12109375 25.25 35.4375 C25.93578125 35.86933594 26.6215625 36.30117187 27.328125 36.74609375 C29 38 29 38 30 40 C30 42.97 30 45.94 30 49 C20.1 49 10.2 49 0 49 C0 39 0 39 3.125 35.5 C6.39884457 32.99732771 8.79865003 32.40044999 13 31 C13 26.38 13 21.76 13 17 C11.783125 16.773125 10.56625 16.54625 9.3125 16.3125 C4.95397089 15.17448263 2.57185444 13.85778165 0 10 C0 6.7 0 3.4 0 0 Z " fill="#FAECEC" transform="translate(42,45)"/>
<path d="M0 0 C15.51 0 31.02 0 47 0 C47 2.31 47 4.62 47 7 C31.49 7 15.98 7 0 7 C0 4.69 0 2.38 0 0 Z " fill="#FAE9E9" transform="translate(33,95)"/>
<path d="M0 0 C15.84 0 31.68 0 48 0 C48 1.65 48 3.3 48 5 C47 6 47 6 45.09544373 6.12025452 C44.26271439 6.11803391 43.42998505 6.11581329 42.57202148 6.11352539 C41.63112167 6.11344986 40.69022186 6.11337433 39.72080994 6.11329651 C38.69790359 6.10813522 37.67499725 6.10297394 36.62109375 6.09765625 C35.57929459 6.0962413 34.53749542 6.09482635 33.46412659 6.09336853 C30.12188906 6.0877508 26.77971743 6.0751953 23.4375 6.0625 C21.17773534 6.05748728 18.91796963 6.05292398 16.65820312 6.04882812 C11.10544609 6.03777561 5.55272775 6.02102024 0 6 C0 4.02 0 2.04 0 0 Z " fill="#FAF7F7" transform="translate(33,37)"/>
<path d="M0 0 C0.969375 0.144375 1.93875 0.28875 2.9375 0.4375 C3.57816406 0.52515625 4.21882813 0.6128125 4.87890625 0.703125 C6.30617167 0.90288959 7.73084485 1.12202854 9.15234375 1.359375 C14.26385591 2.11397433 18.19291634 1.75555051 23.15234375 0.27734375 C24.06693359 0.14005859 24.06693359 0.14005859 25 0 C25.66 0.66 26.32 1.32 27 2 C26.39816251 4.02045442 25.72693904 6.02111039 25 8 C20.8116549 10.09417255 15.55863492 9.42790691 11 9 C6.88475994 7.62390546 3.59013295 5.39342196 0 3 C0 2.01 0 1.02 0 0 Z " fill="#407E37" transform="translate(18,22)"/>
<path d="M0 0 C4.55639859 0.54676783 8.7331369 1.27293636 13 3 C13.33 3.66 13.66 4.32 14 5 C16.52733235 5.65555119 16.52733235 5.65555119 19 6 C19 6.66 19 7.32 19 8 C4.71056896 7.57598127 4.71056896 7.57598127 0 3 C0 2.01 0 1.02 0 0 Z " fill="#1BA04D" transform="translate(18,22)"/>
<path d="M0 0 C1.47726563 0.43119141 1.47726563 0.43119141 2.984375 0.87109375 C3.73203125 1.09925781 4.4796875 1.32742187 5.25 1.5625 C4.59 2.8825 3.93 4.2025 3.25 5.5625 C-3.96712538 6.05179664 -3.96712538 6.05179664 -7.75 3.6875 C-9.75 1.5625 -9.75 1.5625 -9.75 -0.4375 C-6.09142468 -1.75284494 -3.66973519 -1.09218309 0 0 Z " fill="#E24035" transform="translate(76.75,23.4375)"/>
<path d="M0 0 C3.46679688 0.04882812 3.46679688 0.04882812 6.93359375 0.09765625 C6.93359375 3.39765625 6.93359375 6.69765625 6.93359375 10.09765625 C6.27359375 10.09765625 5.61359375 10.09765625 4.93359375 10.09765625 C4.93359375 7.12765625 4.93359375 4.15765625 4.93359375 1.09765625 C2.95359375 1.09765625 0.97359375 1.09765625 -1.06640625 1.09765625 C-1.06640625 4.72765625 -1.06640625 8.35765625 -1.06640625 12.09765625 C-1.72640625 12.09765625 -2.38640625 12.09765625 -3.06640625 12.09765625 C-3.50597656 11.64777344 -3.94554687 11.19789062 -4.3984375 10.734375 C-6.369977 8.79977301 -8.2158291 7.97688433 -10.75390625 6.91015625 C-11.56214844 6.56597656 -12.37039062 6.22179687 -13.203125 5.8671875 C-13.81800781 5.61324219 -14.43289062 5.35929688 -15.06640625 5.09765625 C-15.06640625 4.10765625 -15.06640625 3.11765625 -15.06640625 2.09765625 C-14.01453125 2.71640625 -12.96265625 3.33515625 -11.87890625 3.97265625 C-9.01624948 5.61344733 -6.17433379 6.96750078 -3.06640625 8.09765625 C-3.08703125 6.96328125 -3.10765625 5.82890625 -3.12890625 4.66015625 C-3.04967763 0.14412465 -3.04967763 0.14412465 0 0 Z " fill="#46B470" transform="translate(55.06640625,8.90234375)"/>
<path d="M0 0 C1.32 0.33 2.64 0.66 4 1 C5.9593426 6.53226146 6.30237833 10.23232455 5 16 C3.31725539 19.29232641 1.9590305 20.62662549 -1.48828125 21.96875 C-3.97913863 22.72974745 -6.46485667 23.40491865 -9 24 C-9 23.34 -9 22.68 -9 22 C-5.62902617 20.50178941 -3.79557881 20 0 20 C0 19.34 0 18.68 0 18 C0.66 18 1.32 18 2 18 C3.00259507 14.99221479 3.30314642 12.46179353 3.5625 9.3125 C3.64628906 8.31863281 3.73007813 7.32476562 3.81640625 6.30078125 C3.87699219 5.54152344 3.93757813 4.78226562 4 4 C3.34 4 2.68 4 2 4 C1.67 5.32 1.34 6.64 1 8 C0.67 5.36 0.34 2.72 0 0 Z " fill="#4EB472" transform="translate(75,0)"/>
<path d="M0 0 C0.66 0.33 1.32 0.66 2 1 C0.56354149 2.60509934 -0.87420706 4.20904424 -2.3125 5.8125 C-3.11300781 6.70582031 -3.91351563 7.59914063 -4.73828125 8.51953125 C-6.01263568 9.9171393 -7.31244779 11.29508958 -8.6875 12.59375 C-10.18600371 14.19928969 -10.88130236 15.65281073 -11.6875 17.6875 C-12.120625 18.780625 -12.55375 19.87375 -13 21 C-14.00166319 18.39087732 -14.12220063 17.30524592 -13.06640625 14.66796875 C-9.43896694 8.68504937 -5.55601834 4.25867396 0 0 Z " fill="#ED4C46" transform="translate(19,31)"/>
<path d="M0 0 C1.98 0.495 1.98 0.495 4 1 C4.66 3.64 5.32 6.28 6 9 C5.34 9 4.68 9 4 9 C3.67 7.35 3.34 5.7 3 4 C2.34 4 1.68 4 1 4 C1 6.31 1 8.62 1 11 C1.66 11 2.32 11 3 11 C3.33 12.65 3.66 14.3 4 16 C0.91363675 13.61055748 -0.28846349 11.79572391 -0.8125 8 C-1.04770562 5.13476794 -1.02464201 2.7323787 0 0 Z " fill="#3BB168" transform="translate(33,2)"/>
<path d="M0 0 C0.99 0.33 1.98 0.66 3 1 C2.875 2.8125 2.875 2.8125 2 5 C-3.24624481 8.86565407 -8.78577669 8.2985481 -15 8 C-15 7.67 -15 7.34 -15 7 C-13.75283203 6.87044922 -13.75283203 6.87044922 -12.48046875 6.73828125 C-10.85044922 6.52751953 -10.85044922 6.52751953 -9.1875 6.3125 C-8.10855469 6.18488281 -7.02960938 6.05726562 -5.91796875 5.92578125 C-2.79299348 5.25077543 -2.79299348 5.25077543 -1.11328125 2.41796875 C-0.74589844 1.62003906 -0.37851563 0.82210938 0 0 Z " fill="#4E904D" transform="translate(83,23)"/>
<path d="M0 0 C-4.96993194 2.43425238 -8.34605369 3.34615998 -14 3 C-14 2.34 -14 1.68 -14 1 C-12.42298018 0.44021816 -10.83800758 -0.09719401 -9.25 -0.625 C-7.92742188 -1.07746094 -7.92742188 -1.07746094 -6.578125 -1.5390625 C-3.58982529 -2.07333427 -2.50076998 -1.62433191 0 0 Z " fill="#E85248" transform="translate(45,24)"/>
<path d="M0 0 C0.66 0 1.32 0 2 0 C3.15143825 2.0804054 4.29624112 4.16401997 5.4375 6.25 C5.76298828 6.83652344 6.08847656 7.42304687 6.42382812 8.02734375 C8.02882617 10.9725979 9.4163488 13.67894245 10 17 C7.02430637 14.21190445 4.83951712 11.43585821 2.75 7.9375 C1.96882812 6.65166016 1.96882812 6.65166016 1.171875 5.33984375 C0 3 0 3 0 0 Z " fill="#ED4E48" transform="translate(6,81)"/>
<path d="M0 0 C4.571279 0.54855348 8.67435795 1.41744803 13 3 C13 3.33 13 3.66 13 4 C11.20841511 4.02696365 9.41671527 4.04637917 7.625 4.0625 C6.62726562 4.07410156 5.62953125 4.08570313 4.6015625 4.09765625 C2 4 2 4 0 3 C0 2.01 0 1.02 0 0 Z " fill="#5FBF85" transform="translate(18,22)"/>
<path d="M0 0 C1.32 0.33 2.64 0.66 4 1 C4.66 3.64 5.32 6.28 6 9 C5.34 9 4.68 9 4 9 C3.67 7.35 3.34 5.7 3 4 C2.34 4 1.68 4 1 4 C0.67 2.68 0.34 1.36 0 0 Z " fill="#58BC7E" transform="translate(33,2)"/>
<path d="M0 0 C1.32 0.33 2.64 0.66 4 1 C4.33 2.98 4.66 4.96 5 7 C4.67 6.01 4.34 5.02 4 4 C3.34 4 2.68 4 2 4 C1.67 5.32 1.34 6.64 1 8 C0.67 5.36 0.34 2.72 0 0 Z " fill="#6DC48E" transform="translate(75,0)"/>
</svg>
