<svg width="120" height="60" viewBox="0 0 120 60" fill="none" xmlns="http://www.w3.org/2000/svg">
<path d="M78.0719 49.107C77.4603 49.6804 76.6498 50 75.8072 50C74.9647 50 74.1542 49.6804 73.5426 49.107V49.017L47.3853 22.2558L46.9306 22.4718C45.5313 23.1262 44.2079 23.9288 42.9833 24.8653L42.8378 25.0093C41.957 26.0529 41.3341 27.2853 41.0188 28.6087C40.8963 29.0805 40.7256 29.5387 40.5095 29.9764C40.1821 29.6705 39.7091 28.5007 40.2366 24.0915C40.5438 22.3222 41.4326 20.7027 42.7651 19.4843C42.947 19.3043 43.238 19.0164 43.2016 18.6924C43.4761 17.9169 43.9456 17.2232 44.5659 16.6768C45.1609 16.1454 45.8439 15.7192 46.585 15.417L47.0761 15.2011L46.967 14.7151C46.9746 14.1768 47.1528 13.6544 47.4763 13.2214L50.7869 10L56.2439 15.1651C55.1756 16.1901 54.0523 17.1573 52.8787 18.0626C52.3938 18.4918 51.8047 18.7895 51.1689 18.9264H50.8778L49.8592 19.8982L78.0355 44.7878C78.3375 45.0615 78.5793 45.3938 78.7459 45.764C78.9124 46.1342 79.0001 46.5343 79.0035 46.9395C79.007 47.3447 78.926 47.7463 78.7657 48.1192C78.6054 48.4921 78.3693 48.8283 78.0719 49.107Z" fill="white"/>
<path d="M41.0007 48.6753C40.7067 48.3995 40.4726 48.0674 40.3127 47.6992C40.1527 47.331 40.0702 46.9344 40.0702 46.5336C40.0702 46.1329 40.1527 45.7363 40.3127 45.3681C40.4726 44.9999 40.7067 44.6678 41.0007 44.392L64.6477 23.6778L64.4112 23.2638C63.6372 21.8048 63.3675 20.1351 63.6435 18.5101C63.9194 16.885 64.7257 15.3942 65.9392 14.2655C66.8978 13.3691 68.055 12.7071 69.3184 12.3321C70.5817 11.9571 71.9162 11.8796 73.2152 12.1059L68.4312 16.641L69.8318 21.6261L75.0888 22.9399L79.8909 18.3327C80.1066 19.5789 80.0013 20.8588 79.5848 22.0541C79.1684 23.2494 78.4541 24.3215 77.508 25.1715C76.2478 26.3602 74.6481 27.1361 72.9264 27.3937C71.2048 27.6513 69.4447 27.3781 67.8855 26.6112L67.4489 26.3953L45.6209 48.6393C45.0075 49.2399 44.1812 49.5799 43.3182 49.5866C42.4551 49.5933 41.6236 49.2663 41.0007 48.6753Z" fill="white"/>
</svg>
