<svg width="28" height="28" viewBox="0 0 28 28" fill="none" xmlns="http://www.w3.org/2000/svg">
<path d="M8 3H5H3V5V8H5V5H8V3Z" fill="white"/>
<path d="M25 8V3H20V5H23V8H25Z" fill="white"/>
<path d="M20 25H23H25V23V20H23V23H20V25Z" fill="white"/>
<path d="M3 20V25H8V23H5V20H3Z" fill="white"/>
<path d="M3.09961 14.0006C3.09961 13.3006 3.19961 12.7006 3.39961 12.2006C3.59961 11.8006 3.79961 11.5006 4.09961 11.2006C4.39961 10.9006 4.69961 10.7006 4.99961 10.6006C5.39961 10.4006 5.99961 10.3006 6.49961 10.3006C7.59961 10.3006 8.39961 10.6006 8.99961 11.3006C9.59961 12.0006 9.89961 12.9006 9.89961 14.0006C9.89961 15.2006 9.59961 16.1006 8.99961 16.7006C8.39961 17.4006 7.49961 17.7006 6.49961 17.7006C5.39961 17.7006 4.59961 17.4006 3.99961 16.7006C3.39961 16.1006 3.09961 15.2006 3.09961 14.0006ZM4.59961 14.0006C4.59961 14.8006 4.79961 15.4006 5.19961 15.8006C5.59961 16.2006 5.99961 16.4006 6.59961 16.4006C7.19961 16.4006 7.59961 16.2006 7.99961 15.8006C8.39961 15.4006 8.59961 14.8006 8.59961 13.9006C8.59961 13.1006 8.39961 12.5006 8.09961 12.1006C7.69961 11.7006 7.29961 11.5006 6.69961 11.5006C6.09961 11.5006 5.59961 11.7006 5.29961 12.1006C4.69961 12.6006 4.59961 13.2006 4.59961 14.0006Z" fill="white"/>
<path d="M15.7996 14.9006L17.1996 15.3006C16.9996 16.1006 16.5996 16.7006 16.0996 17.0006C15.5996 17.4006 14.9996 17.6006 14.1996 17.6006C13.1996 17.6006 12.4996 17.3006 11.8996 16.6006C11.2996 15.9006 10.9996 15.1006 10.9996 13.9006C10.9996 12.7006 11.2996 11.8006 11.8996 11.1006C12.4996 10.4006 13.2996 10.1006 14.2996 10.1006C15.1996 10.1006 15.8996 10.4006 16.3996 10.9006C16.6996 11.2006 16.9996 11.6006 17.0996 12.2006L15.6996 12.5006C15.5996 12.1006 15.3996 11.8006 15.1996 11.6006C14.8996 11.4006 14.5996 11.3006 14.1996 11.3006C13.6996 11.3006 13.1996 11.5006 12.8996 11.9006C12.5996 12.3006 12.3996 12.9006 12.3996 13.8006C12.3996 14.7006 12.5996 15.3006 12.8996 15.7006C13.1996 16.1006 13.5996 16.3006 14.1996 16.3006C14.8892 16.3006 15.6922 15.5451 15.7996 14.9006Z" fill="white"/>
<path d="M18.4996 17.6006V10.4006H21.4996C22.2996 10.4006 22.7996 10.5006 23.1996 10.6006C23.4996 10.7006 23.7996 11.0006 23.9996 11.3006C24.1996 11.6006 24.2996 12.0006 24.2996 12.4006C24.2996 12.9006 24.0996 13.4006 23.7996 13.7006C23.4996 14.0006 22.9996 14.3006 22.3996 14.4006C22.6996 14.6006 22.9996 14.8006 23.1996 15.0006C23.3996 15.2006 23.6996 15.6006 23.9996 16.2006L24.8996 17.6006H23.1996L22.1996 16.0006C21.7996 15.4006 21.5996 15.1006 21.3996 14.9006C21.2996 14.8006 21.0996 14.7006 20.9996 14.6006C20.7996 14.5006 20.5996 14.5006 20.2996 14.5006H19.9996V17.5006H18.4996V17.6006ZM19.8996 13.4006H20.9996C21.6996 13.4006 22.0996 13.4006 22.2996 13.3006C22.4996 13.2006 22.5996 13.1006 22.6996 13.0006C22.7996 12.9006 22.7996 12.7006 22.7996 12.5006C22.7996 12.3006 22.6996 12.1006 22.5996 11.9006C22.4996 11.8006 22.2996 11.7006 22.0996 11.6006C21.9996 11.6006 21.5996 11.6006 20.9996 11.6006H19.8996V13.4006Z" fill="white"/>
</svg>
