<svg width="20" height="20" viewBox="0 0 20 20" fill="none" xmlns="http://www.w3.org/2000/svg">
<path d="M5 4H7V3H8V4H12V3H13V4H15V3H16V4H17C17.5523 4 18 4.44772 18 5V15C18 15.5523 17.5523 16 17 16H3C2.44772 16 2 15.5523 2 15V5C2 4.44772 2.44772 4 3 4H4V3H5V4ZM3 15H17V5H16V6H15V5H13V6H12V5H8V6H7V5H5V6H4V5H3V15ZM6 13H5V12H6V13ZM9 13H8V12H9V13ZM12 13H11V12H12V13ZM6 11H5V10H6V11ZM9 11H8V10H9V11ZM12 11H11V10H12V11ZM15 11H14V10H15V11ZM6 9H5V8H6V9ZM9 9H8V8H9V9ZM12 9H11V8H12V9ZM15 9H14V8H15V9Z" fill="black" fill-opacity="0.8"/>
</svg>
