<svg width="28" height="28" viewBox="0 0 28 28" fill="none" xmlns="http://www.w3.org/2000/svg">
    <path d="M11.934 7.784a4.3 4.3 0 0 1 3.033-1.24c1.582 0 2.954.838 3.692 2.086a5.3 5.3 0 0 1 2.084-.423c2.848 0 5.16 2.22 5.16 4.96s-2.312 4.959-5.16 4.959q-.522-.001-1.02-.097c-.646 1.098-1.881 1.843-3.288 1.843a3.9 3.9 0 0 1-1.653-.362c-.655 1.466-2.18 2.497-3.956 2.497-1.855 0-3.428-1.115-4.035-2.681a4 4 0 0 1-.82.081c-2.207 0-3.992-1.725-3.992-3.845 0-1.424.803-2.663 1.995-3.334a4.2 4.2 0 0 1-.382-1.759c0-2.446 2.084-4.423 4.65-4.423 1.504 0 2.849.683 3.693 1.743" fill="#00a1e0"/>
    <path d="M5.464 14.786c-.015.037.005.045.01.052.045.03.09.053.136.079.245.123.475.159.716.159.49 0 .795-.25.795-.65v-.007c0-.37-.344-.505-.666-.602l-.042-.013c-.244-.075-.454-.14-.454-.293v-.008c0-.13.123-.227.313-.227.211 0 .463.067.624.152 0 0 .047.03.065-.015l.1-.256c.01-.025-.007-.043-.024-.053a1.44 1.44 0 0 0-.703-.18h-.05c-.449 0-.762.26-.762.63v.008c0 .39.346.517.67.605l.052.016c.235.069.44.129.44.286v.008c0 .145-.134.253-.346.253-.083 0-.347-.001-.632-.174-.035-.019-.055-.032-.081-.048-.014-.008-.05-.023-.065.021zm7.182 0c-.015.037.005.045.01.051.045.031.09.054.136.079.245.123.475.159.716.159.49 0 .796-.249.796-.65v-.007c0-.37-.344-.505-.667-.601l-.042-.014c-.243-.075-.453-.14-.453-.293v-.008c0-.13.123-.227.313-.227.21 0 .461.067.623.152 0 0 .048.03.065-.014l.1-.257c.009-.024-.008-.043-.024-.052a1.44 1.44 0 0 0-.704-.18h-.049c-.449 0-.763.259-.763.629v.008c0 .39.347.518.67.605l.052.016c.236.069.44.129.44.286v.008c0 .145-.133.253-.346.253a1.2 1.2 0 0 1-.632-.173c-.035-.02-.055-.033-.081-.049-.009-.005-.05-.02-.064.021l-.097.257M17.55 14q0 .34-.13.53-.129.188-.4.187-.271.001-.397-.185-.13-.19-.13-.531 0-.34.13-.53c.085-.123.214-.182.397-.182s.313.06.4.183q.13.188.13.528m.41-.42a.89.89 0 0 0-.501-.567 1.1 1.1 0 0 0-.44-.083 1.1 1.1 0 0 0-.44.084.9.9 0 0 0-.314.228.9.9 0 0 0-.186.339q-.06.194-.06.42t.06.42.186.338.315.227q.19.082.44.082a1.1 1.1 0 0 0 .438-.082.88.88 0 0 0 .501-.566q.06-.194.06-.42 0-.224-.059-.42m3.366 1.073c-.013-.038-.052-.024-.052-.024a1 1 0 0 1-.19.052q-.105.015-.225.016-.298 0-.469-.168c-.113-.111-.176-.29-.175-.534 0-.22.056-.386.157-.514q.15-.189.454-.19c.17 0 .298.018.434.058 0 0 .032.014.047-.027.036-.094.063-.162.101-.266.011-.03-.016-.042-.025-.046a1.7 1.7 0 0 0-.581-.085q-.26 0-.457.083a.9.9 0 0 0-.33.228 1 1 0 0 0-.199.34 1.3 1.3 0 0 0-.067.42c0 .323.092.585.273.777s.454.29.809.29c.21 0 .425-.04.58-.099 0 0 .03-.013.017-.046zm.717-.871a.74.74 0 0 1 .113-.312c.085-.124.214-.192.396-.192s.302.069.389.192c.057.082.082.19.091.312h-.993zm1.38-.277a.82.82 0 0 0-.441-.5 1.1 1.1 0 0 0-.398-.076c-.173 0-.33.027-.457.084a.91.91 0 0 0-.508.576q-.06.196-.06.421 0 .23.062.422a.86.86 0 0 0 .55.556q.212.079.504.078c.401-.001.612-.086.698-.132.016-.008.03-.023.012-.063l-.09-.242c-.014-.037-.053-.024-.053-.024-.099.036-.24.1-.57.098-.215 0-.374-.06-.474-.155-.102-.098-.153-.24-.16-.44h1.388s.037 0 .04-.034c.002-.014.048-.27-.041-.568zm-12.483.277a.74.74 0 0 1 .112-.312c.085-.124.215-.192.397-.192s.302.069.388.192c.057.082.082.19.092.312h-.994zm1.38-.277a.82.82 0 0 0-.441-.5 1.1 1.1 0 0 0-.398-.076c-.173 0-.33.027-.458.084a.91.91 0 0 0-.507.576q-.06.196-.06.421 0 .23.062.422a.87.87 0 0 0 .55.556q.21.079.503.078c.401-.001.612-.086.698-.132.016-.008.03-.023.012-.063l-.09-.242c-.014-.037-.053-.024-.053-.024-.1.036-.24.1-.57.098-.214 0-.374-.06-.474-.155-.102-.098-.153-.24-.161-.44h1.389s.037 0 .04-.034c.002-.014.047-.271-.042-.569m-4.378 1.14a.3.3 0 0 1-.08-.079.3.3 0 0 1-.042-.171q-.001-.173.124-.256s.12-.099.403-.095q.19.003.376.03v.6s-.176.037-.374.048c-.282.016-.408-.078-.407-.077m.552-.93a3 3 0 0 0-.216-.006q-.18 0-.341.042a.9.9 0 0 0-.29.128.61.61 0 0 0-.276.523q0 .176.064.301a.56.56 0 0 0 .182.207.8.8 0 0 0 .282.117q.164.035.367.035.215 0 .421-.033.175-.03.35-.065l.097-.023c.034-.009.032-.044.032-.044l-.001-1.206c0-.264-.074-.461-.22-.583q-.221-.182-.637-.182c-.104 0-.272.013-.372.032 0 0-.303.056-.428.15 0 0-.027.015-.012.052l.098.251c.013.033.046.021.046.021l.023-.01c.266-.139.604-.134.604-.134q.226 0 .343.085c.075.055.114.14.114.315v.056c-.119-.017-.229-.026-.229-.026zm11.165-.681.003-.014a.04.04 0 0 0-.024-.034 1.3 1.3 0 0 0-.232-.037.72.72 0 0 0-.592.22v-.161a.04.04 0 0 0-.04-.04h-.355a.04.04 0 0 0-.04.04v1.968q0 .016.013.028a.04.04 0 0 0 .03.012h.363a.04.04 0 0 0 .03-.011.04.04 0 0 0 .012-.029v-.988c0-.133.016-.264.046-.347a.5.5 0 0 1 .121-.194.4.4 0 0 1 .172-.098.7.7 0 0 1 .338-.008c.027.003.042-.012.051-.035.024-.06.091-.242.105-.278" fill="#fffffe"/>
    <path d="M16.26 12.126a1.2 1.2 0 0 0-.326-.045c-.25 0-.449.068-.587.201q-.208.2-.28.6l-.016.09h-.315s-.038-.002-.046.037l-.052.275c-.004.027.008.043.045.043h.307l-.311 1.654a2 2 0 0 1-.083.325.7.7 0 0 1-.097.188.26.26 0 0 1-.127.094.54.54 0 0 1-.274.01c-.033-.006-.05-.013-.075-.023 0 0-.036-.013-.05.022-.012.028-.094.242-.103.268-.01.026.004.047.021.053a.9.9 0 0 0 .33.054q.194-.001.34-.05a.64.64 0 0 0 .257-.171.9.9 0 0 0 .18-.296q.072-.181.122-.444l.312-1.684h.457s.039.001.046-.039l.052-.274c.004-.027-.008-.043-.045-.043h-.444c.003-.01.023-.158.074-.298a.4.4 0 0 1 .097-.141.3.3 0 0 1 .116-.069.6.6 0 0 1 .334.007c.045.013.051 0 .06-.02l.106-.278c.01-.03-.016-.042-.026-.046m-6.196 2.858a.04.04 0 0 1-.04.04h-.367a.04.04 0 0 1-.04-.04v-2.82c0-.022.016-.04.04-.04h.367c.024 0 .04.018.04.04z" fill="#fffffe"/>
</svg>
