<svg width="28" height="28" viewBox="0 0 28 28" fill="none" xmlns="http://www.w3.org/2000/svg">
<path d="M17.5859 3C17.8511 3.00004 18.1055 3.10547 18.293 3.29297L22.707 7.70703C22.8945 7.89453 23 8.1489 23 8.41406V24C23 24.5523 22.5523 25 22 25H8C7.44772 25 7 24.5523 7 24V21H8V24H22V9H18C17.4477 9 17 8.55228 17 8V4H8V6H7V4C7 3.44772 7.44772 3 8 3H17.5859ZM18 8H21.5859L18 4.41406V8Z" fill="white"/>
<g clip-path="url(#clip0_1_29)">
<path d="M9.58333 11.5833H10.4167V8.66667C10.4167 8.54861 10.3767 8.44965 10.2969 8.36979C10.217 8.28993 10.1181 8.25 10 8.25C9.88194 8.25 9.78299 8.28993 9.70312 8.36979C9.62326 8.44965 9.58333 8.54861 9.58333 8.66667V11.5833ZM7.08333 13.25H12.9167V12.4167H7.08333V13.25ZM6.47917 15.75H7.5V14.9167C7.5 14.7986 7.53993 14.6997 7.61979 14.6198C7.69965 14.5399 7.79861 14.5 7.91667 14.5C8.03472 14.5 8.13368 14.5399 8.21354 14.6198C8.2934 14.6997 8.33333 14.7986 8.33333 14.9167V15.75H9.58333V14.9167C9.58333 14.7986 9.62326 14.6997 9.70312 14.6198C9.78299 14.5399 9.88194 14.5 10 14.5C10.1181 14.5 10.217 14.5399 10.2969 14.6198C10.3767 14.6997 10.4167 14.7986 10.4167 14.9167V15.75H11.6667V14.9167C11.6667 14.7986 11.7066 14.6997 11.7865 14.6198C11.8663 14.5399 11.9653 14.5 12.0833 14.5C12.2014 14.5 12.3003 14.5399 12.3802 14.6198C12.4601 14.6997 12.5 14.7986 12.5 14.9167V15.75H13.5208L13.1042 14.0833H6.89583L6.47917 15.75ZM13.5208 16.5833H6.47917C6.20833 16.5833 5.98958 16.4757 5.82292 16.2604C5.65625 16.0451 5.60764 15.8056 5.67708 15.5417L6.25 13.25V12.4167C6.25 12.1875 6.3316 11.9913 6.49479 11.8281C6.65799 11.6649 6.85417 11.5833 7.08333 11.5833H8.75V8.66667C8.75 8.31944 8.87153 8.0243 9.11458 7.78125C9.35764 7.53819 9.65278 7.41667 10 7.41667C10.3472 7.41667 10.6424 7.53819 10.8854 7.78125C11.1285 8.0243 11.25 8.31944 11.25 8.66667V11.5833H12.9167C13.1458 11.5833 13.342 11.6649 13.5052 11.8281C13.6684 11.9913 13.75 12.1875 13.75 12.4167V13.25L14.3229 15.5417C14.4132 15.8056 14.3733 16.0451 14.2031 16.2604C14.033 16.4757 13.8056 16.5833 13.5208 16.5833Z" fill="white"/>
</g>
<path d="M19.6426 22.2861H10.3574V21.9287H19.6426V22.2861ZM19.6426 21.2139H10.3574V20.8574H19.6426V21.2139ZM19.6426 20.1426H10.3574V19.7861H19.6426V20.1426ZM19.6426 19.0713H10.3574V18.7139H19.6426V19.0713ZM19.6426 18H10.3574V17.6426H19.6426V18ZM19.6426 16.9287H15.6426V16.5713H19.6426V16.9287ZM19.6426 15.8574H15.6426V15.5H19.6426V15.8574ZM19.6426 14.7861H15.6426V14.4287H19.6426V14.7861ZM19.6426 13.7139H15.6426V13.3574H19.6426V13.7139Z" fill="white"/>
<defs>
<clipPath id="clip0_1_29">
<rect width="10" height="10" fill="white" transform="translate(5 7)"/>
</clipPath>
</defs>
</svg>
