<svg width="42" height="42" viewBox="0 0 42 42" fill="none" xmlns="http://www.w3.org/2000/svg">
<path d="M26.3789 4.5C26.7766 4.50006 27.1582 4.6582 27.4395 4.93945L34.0605 11.5605C34.3418 11.8418 34.4999 12.2234 34.5 12.6211V36C34.5 36.8284 33.8284 37.5 33 37.5H12C11.1716 37.5 10.5 36.8284 10.5 36V31.5H12V36H33V13.5H27C26.1716 13.5 25.5 12.8284 25.5 12V6H12V9H10.5V6C10.5 5.17157 11.1716 4.5 12 4.5H26.3789ZM27 12H32.3789L27 6.62109V12Z" fill="white"/>
<path d="M16.375 17.375H17.625V13C17.625 12.8229 17.5651 12.6745 17.4453 12.5547C17.3255 12.4349 17.1771 12.375 17 12.375C16.8229 12.375 16.6745 12.4349 16.5547 12.5547C16.4349 12.6745 16.375 12.8229 16.375 13V17.375ZM12.625 19.875H21.375V18.625H12.625V19.875ZM11.7188 23.625H13.25V22.375C13.25 22.1979 13.3099 22.0495 13.4297 21.9297C13.5495 21.8099 13.6979 21.75 13.875 21.75C14.0521 21.75 14.2005 21.8099 14.3203 21.9297C14.4401 22.0495 14.5 22.1979 14.5 22.375V23.625H16.375V22.375C16.375 22.1979 16.4349 22.0495 16.5547 21.9297C16.6745 21.8099 16.8229 21.75 17 21.75C17.1771 21.75 17.3255 21.8099 17.4453 21.9297C17.5651 22.0495 17.625 22.1979 17.625 22.375V23.625H19.5V22.375C19.5 22.1979 19.5599 22.0495 19.6797 21.9297C19.7995 21.8099 19.9479 21.75 20.125 21.75C20.3021 21.75 20.4505 21.8099 20.5703 21.9297C20.6901 22.0495 20.75 22.1979 20.75 22.375V23.625H22.2812L21.6562 21.125H12.3438L11.7188 23.625ZM22.2812 24.875H11.7188C11.3125 24.875 10.9844 24.7135 10.7344 24.3906C10.4844 24.0677 10.4115 23.7083 10.5156 23.3125L11.375 19.875V18.625C11.375 18.2812 11.4974 17.987 11.7422 17.7422C11.987 17.4974 12.2813 17.375 12.625 17.375H15.125V13C15.125 12.4792 15.3073 12.0365 15.6719 11.6719C16.0365 11.3073 16.4792 11.125 17 11.125C17.5208 11.125 17.9635 11.3073 18.3281 11.6719C18.6927 12.0365 18.875 12.4792 18.875 13V17.375H21.375C21.7187 17.375 22.013 17.4974 22.2578 17.7422C22.5026 17.987 22.625 18.2812 22.625 18.625V19.875L23.4844 23.3125C23.6198 23.7083 23.5599 24.0677 23.3047 24.3906C23.0495 24.7135 22.7083 24.875 22.2812 24.875Z" fill="white"/>
<path d="M28.9639 33.4287H15.0361V32.8926H28.9639V33.4287ZM28.9639 31.8213H15.0361V31.2861H28.9639V31.8213ZM28.9639 30.2139H15.0361V29.6787H28.9639V30.2139ZM28.9639 28.6074H15.0361V28.0713H28.9639V28.6074ZM28.9639 27H15.0361V26.4639H28.9639V27ZM28.9639 26.4287H22.9639V26.0713H28.9639V26.4287ZM28.9639 25.3574H22.9639V25H28.9639V25.3574ZM28.9639 24.2861H22.9639V23.9287H28.9639V24.2861ZM28.9639 23.2139H22.9639V22.8574H28.9639V23.2139Z" fill="white"/>
</svg>
