<svg width="56" height="56" viewBox="0 0 56 56" fill="none" xmlns="http://www.w3.org/2000/svg">
<path d="M35.1719 6C35.7022 6.00008 36.2109 6.21094 36.5859 6.58594L45.4141 15.4141C45.7891 15.7891 45.9999 16.2978 46 16.8281V48C46 49.1046 45.1046 50 44 50H16C14.8954 50 14 49.1046 14 48V42H16V48H44V18H36C34.8954 18 34 17.1046 34 16V8H16V12H14V8C14 6.89543 14.8954 6 16 6H35.1719ZM36 16H43.1719L36 8.82812V16Z" fill="white"/>
<path d="M23.1667 23.1667H24.8333V17.3333C24.8333 17.0972 24.7535 16.8993 24.5937 16.7396C24.434 16.5799 24.2361 16.5 24 16.5C23.7639 16.5 23.566 16.5799 23.4062 16.7396C23.2465 16.8993 23.1667 17.0972 23.1667 17.3333V23.1667ZM18.1667 26.5H29.8333V24.8333H18.1667V26.5ZM16.9583 31.5H19V29.8333C19 29.5972 19.0799 29.3993 19.2396 29.2396C19.3993 29.0799 19.5972 29 19.8333 29C20.0694 29 20.2674 29.0799 20.4271 29.2396C20.5868 29.3993 20.6667 29.5972 20.6667 29.8333V31.5H23.1667V29.8333C23.1667 29.5972 23.2465 29.3993 23.4062 29.2396C23.566 29.0799 23.7639 29 24 29C24.2361 29 24.434 29.0799 24.5937 29.2396C24.7535 29.3993 24.8333 29.5972 24.8333 29.8333V31.5H27.3333V29.8333C27.3333 29.5972 27.4132 29.3993 27.5729 29.2396C27.7326 29.0799 27.9306 29 28.1667 29C28.4028 29 28.6007 29.0799 28.7604 29.2396C28.9201 29.3993 29 29.5972 29 29.8333V31.5H31.0417L30.2083 28.1667H17.7917L16.9583 31.5ZM31.0417 33.1667H16.9583C16.4167 33.1667 15.9792 32.9514 15.6458 32.5208C15.3125 32.0903 15.2153 31.6111 15.3542 31.0833L16.5 26.5V24.8333C16.5 24.375 16.6632 23.9826 16.9896 23.6563C17.316 23.3299 17.7083 23.1667 18.1667 23.1667H21.5V17.3333C21.5 16.6389 21.7431 16.0486 22.2292 15.5625C22.7153 15.0764 23.3056 14.8333 24 14.8333C24.6944 14.8333 25.2847 15.0764 25.7708 15.5625C26.2569 16.0486 26.5 16.6389 26.5 17.3333V23.1667H29.8333C30.2917 23.1667 30.684 23.3299 31.0104 23.6563C31.3368 23.9826 31.5 24.375 31.5 24.8333V26.5L32.6458 31.0833C32.8264 31.6111 32.7465 32.0903 32.4062 32.5208C32.066 32.9514 31.6111 33.1667 31.0417 33.1667Z" fill="white"/>
<path d="M38.2861 44.5713H19.7139V43.8574H38.2861V44.5713ZM38.2861 42.4287H19.7139V41.7139H38.2861V42.4287ZM38.2861 40.2861H19.7139V39.5713H38.2861V40.2861ZM38.2861 38.1426H19.7139V37.4287H38.2861V38.1426ZM38.2861 36H19.7139V35.2861H38.2861V36ZM38.2861 34.9287H30.2861V34.5713H38.2861V34.9287ZM38.2861 33.8574H30.2861V33.5H38.2861V33.8574ZM38.2861 32.7861H30.2861V32.4287H38.2861V32.7861ZM38.2861 31.7139H30.2861V31.3574H38.2861V31.7139Z" fill="white"/>
</svg>
