<svg width="49" height="49" viewBox="0 0 49 49" fill="none" xmlns="http://www.w3.org/2000/svg">
<path d="M30.7754 5.25C31.2394 5.25007 31.6846 5.43457 32.0127 5.7627L39.7373 13.4873C40.0654 13.8154 40.2499 14.2606 40.25 14.7246V42C40.25 42.9665 39.4665 43.75 38.5 43.75H14C13.0335 43.75 12.25 42.9665 12.25 42V36.75H14V42H38.5V15.75H31.5C30.5335 15.75 29.75 14.9665 29.75 14V7H14V10.5H12.25V7C12.25 6.0335 13.0335 5.25 14 5.25H30.7754ZM31.5 14H37.7754L31.5 7.72461V14Z" fill="black" fill-opacity="0.8"/>
<g clip-path="url(#clip0_1_192)">
<path d="M20.2708 20.2708H21.7292V15.1667C21.7292 14.9601 21.6593 14.7869 21.5195 14.6471C21.3798 14.5074 21.2066 14.4375 21 14.4375C20.7934 14.4375 20.6202 14.5074 20.4805 14.6471C20.3407 14.7869 20.2708 14.9601 20.2708 15.1667V20.2708ZM15.8958 23.1875H26.1042V21.7292H15.8958V23.1875ZM14.8385 27.5625H16.625V26.1042C16.625 25.8976 16.6949 25.7244 16.8346 25.5846C16.9744 25.4449 17.1476 25.375 17.3542 25.375C17.5608 25.375 17.7339 25.4449 17.8737 25.5846C18.0135 25.7244 18.0833 25.8976 18.0833 26.1042V27.5625H20.2708V26.1042C20.2708 25.8976 20.3407 25.7244 20.4805 25.5846C20.6202 25.4449 20.7934 25.375 21 25.375C21.2066 25.375 21.3798 25.4449 21.5195 25.5846C21.6593 25.7244 21.7292 25.8976 21.7292 26.1042V27.5625H23.9167V26.1042C23.9167 25.8976 23.9865 25.7244 24.1263 25.5846C24.2661 25.4449 24.4392 25.375 24.6458 25.375C24.8524 25.375 25.0256 25.4449 25.1654 25.5846C25.3051 25.7244 25.375 25.8976 25.375 26.1042V27.5625H27.1615L26.4323 24.6458H15.5677L14.8385 27.5625ZM27.1615 29.0208H14.8385C14.3646 29.0208 13.9818 28.8325 13.6901 28.4557C13.3984 28.079 13.3134 27.6597 13.4349 27.1979L14.4375 23.1875V21.7292C14.4375 21.3281 14.5803 20.9848 14.8659 20.6992C15.1515 20.4136 15.4948 20.2708 15.8958 20.2708H18.8125V15.1667C18.8125 14.559 19.0252 14.0425 19.4505 13.6172C19.8759 13.1918 20.3924 12.9792 21 12.9792C21.6076 12.9792 22.1241 13.1918 22.5495 13.6172C22.9748 14.0425 23.1875 14.559 23.1875 15.1667V20.2708H26.1042C26.5052 20.2708 26.8485 20.4136 27.1341 20.6992C27.4197 20.9848 27.5625 21.3281 27.5625 21.7292V23.1875L28.5651 27.1979C28.7231 27.6597 28.6532 28.079 28.3555 28.4557C28.0577 28.8325 27.6597 29.0208 27.1615 29.0208Z" fill="black" fill-opacity="0.8"/>
</g>
<path d="M34.125 39H17.875V38.375H34.125V39ZM34.125 37.125H17.875V36.5H34.125V37.125ZM34.125 35.25H17.875V34.625H34.125V35.25ZM34.125 33.375H17.875V32.75H34.125V33.375ZM34.125 31.5H17.875V30.875H34.125V31.5ZM34.125 30.6787H27.125V30.3213H34.125V30.6787ZM34.125 29.6074H27.125V29.25H34.125V29.6074ZM34.125 28.5361H27.125V28.1787H34.125V28.5361ZM34.125 27.4639H27.125V27.1074H34.125V27.4639Z" fill="black" fill-opacity="0.8"/>
<defs>
<clipPath id="clip0_1_192">
<rect width="17.5" height="17.5" fill="white" transform="translate(12.25 12.25)"/>
</clipPath>
</defs>
</svg>
