<svg width="35" height="35" viewBox="0 0 35 35" fill="none" xmlns="http://www.w3.org/2000/svg">
<path d="M21.9824 3.75C22.3139 3.75005 22.6318 3.88183 22.8662 4.11621L28.3838 9.63379C28.6182 9.86816 28.7499 10.1861 28.75 10.5176V30C28.75 30.6904 28.1904 31.25 27.5 31.25H10C9.30964 31.25 8.75 30.6904 8.75 30V26.25H10V30H27.5V11.25H22.5C21.8096 11.25 21.25 10.6904 21.25 10V5H10V7.5H8.75V5C8.75 4.30964 9.30964 3.75 10 3.75H21.9824ZM22.5 10H26.9824L22.5 5.51758V10Z" fill="black" fill-opacity="0.8"/>
<path d="M13.4792 14.4792H14.5208V10.8333C14.5208 10.6858 14.4709 10.5621 14.3711 10.4622C14.2713 10.3624 14.1476 10.3125 14 10.3125C13.8524 10.3125 13.7287 10.3624 13.6289 10.4622C13.5291 10.5621 13.4792 10.6858 13.4792 10.8333V14.4792ZM10.3542 16.5625H17.6458V15.5208H10.3542V16.5625ZM9.59896 19.6875H10.875V18.6458C10.875 18.4983 10.9249 18.3746 11.0247 18.2747C11.1246 18.1749 11.2483 18.125 11.3958 18.125C11.5434 18.125 11.6671 18.1749 11.7669 18.2747C11.8668 18.3746 11.9167 18.4983 11.9167 18.6458V19.6875H13.4792V18.6458C13.4792 18.4983 13.5291 18.3746 13.6289 18.2747C13.7287 18.1749 13.8524 18.125 14 18.125C14.1476 18.125 14.2713 18.1749 14.3711 18.2747C14.4709 18.3746 14.5208 18.4983 14.5208 18.6458V19.6875H16.0833V18.6458C16.0833 18.4983 16.1332 18.3746 16.2331 18.2747C16.3329 18.1749 16.4566 18.125 16.6042 18.125C16.7517 18.125 16.8754 18.1749 16.9753 18.2747C17.0751 18.3746 17.125 18.4983 17.125 18.6458V19.6875H18.401L17.8802 17.6042H10.1198L9.59896 19.6875ZM18.401 20.7292H9.59896C9.26042 20.7292 8.98698 20.5946 8.77865 20.3255C8.57031 20.0564 8.50955 19.7569 8.59635 19.4271L9.3125 16.5625V15.5208C9.3125 15.2344 9.4145 14.9892 9.61849 14.7852C9.82248 14.5812 10.0677 14.4792 10.3542 14.4792H12.4375V10.8333C12.4375 10.3993 12.5894 10.0304 12.8932 9.72656C13.197 9.42274 13.566 9.27083 14 9.27083C14.434 9.27083 14.803 9.42274 15.1068 9.72656C15.4106 10.0304 15.5625 10.3993 15.5625 10.8333V14.4792H17.6458C17.9323 14.4792 18.1775 14.5812 18.3815 14.7852C18.5855 14.9892 18.6875 15.2344 18.6875 15.5208V16.5625L19.4036 19.4271C19.5165 19.7569 19.4666 20.0564 19.2539 20.3255C19.0412 20.5946 18.7569 20.7292 18.401 20.7292Z" fill="black" fill-opacity="0.8"/>
<path d="M24.8037 27.8574H13.1963V27.4111H24.8037V27.8574ZM24.8037 26.5176H13.1963V26.0713H24.8037V26.5176ZM24.8037 25.1787H13.1963V24.7324H24.8037V25.1787ZM24.8037 23.8389H13.1963V23.3926H24.8037V23.8389ZM24.8037 22.5H13.1963V22.0537H24.8037V22.5ZM24.8037 21.1787H19.8037V20.8213H24.8037V21.1787ZM24.8037 20.1074H19.8037V19.75H24.8037V20.1074ZM24.8037 19.0361H19.8037V18.6787H24.8037V19.0361ZM24.8037 17.9639H19.8037V17.6074H24.8037V17.9639Z" fill="black" fill-opacity="0.8"/>
</svg>
