<svg width="28" height="28" viewBox="0 0 28 28" fill="none" xmlns="http://www.w3.org/2000/svg">
<path fill-rule="evenodd" clip-rule="evenodd" d="M3 6H25V22H16L14 24L12 22H3V6ZM10 10H8.5L6 13.5L8.5 17H10L8 13.5L10 10ZM13 10H11.5L9 13.5L11.5 17H13L11 13.5L13 10ZM21 16H19V18H20C20 18.5523 19.5523 19 19 19V20C20.1046 20 21 19.1046 21 18V16ZM18 16H16V18H17C17 18.5523 16.5523 19 16 19V20C17.1046 20 18 19.1046 18 18V16Z" fill="#1197B2"/>
<path d="M8.5 10H10L8 13.5L10 17H8.5L6 13.5L8.5 10Z" fill="white"/>
<path d="M11.5 10H13L11 13.5L13 17H11.5L9 13.5L11.5 10Z" fill="white"/>
<path d="M21 16H19V18H20C20 18.5523 19.5523 19 19 19V20C20.1046 20 21 19.1046 21 18V16Z" fill="white"/>
<path d="M16 16H18V18C18 19.1046 17.1046 20 16 20V19C16.5523 19 17 18.5523 17 18H16V16Z" fill="white"/>
</svg>
