<svg width="320" height="160" viewBox="0 0 320 160" fill="none" xmlns="http://www.w3.org/2000/svg">
<path d="M53.4667 14.9491C53.4667 14.8184 54.0885 14.6661 54.1933 14.7712C54.2296 14.8075 54.2275 14.8888 54.1885 14.9517C54.0952 15.1029 53.4667 15.1005 53.4667 14.9491Z" fill="#10C2DD" stroke="#10C2DD"/>
<path d="M151.68 86.8C151.53 86.384 151.473 77.0461 151.613 75.868C151.695 75.1763 151.67 74.9088 151.491 74.5347C151.341 74.2213 151.271 73.7581 151.28 73.1333C151.288 72.62 151.303 71.6301 151.315 70.9333C151.326 70.2365 151.297 68.6331 151.249 67.3699C151.155 64.8907 151.202 64.6667 151.867 64.9333C151.61 65.1893 151.6 65.3779 151.6 69.6896C151.6 73.08 151.641 74.2307 151.767 74.3896C151.897 74.5539 151.919 75.9725 151.867 80.8667C151.825 84.8165 151.755 87.0101 151.68 86.8Z" fill="#10C2DD" stroke="#10C2DD"/>
<path d="M113.623 50.1789C113.649 50.044 113.76 49.9333 113.869 49.9333C114.154 49.9333 114.113 50.3208 113.821 50.3768C113.643 50.4112 113.589 50.3571 113.623 50.1789Z" fill="#10C2DD" stroke="#10C2DD"/>
<path d="M76.8509 88.3333C76.8512 87.4533 76.8725 87.1107 76.8987 87.5717C76.9251 88.0331 76.9248 88.7531 76.8984 89.1717C76.872 89.5907 76.8507 89.2133 76.8509 88.3333Z" fill="#10C2DD" stroke="#10C2DD"/>
<path d="M76.4667 58.2669C76.3725 58.1141 76.748 57.6 76.9539 57.6C77.1568 57.6 77.0723 57.9539 76.8133 58.188C76.6365 58.3477 76.5315 58.3717 76.4667 58.2669Z" fill="#10C2DD" stroke="#10C2DD"/>
<path d="M84.6667 98.4731C84.6667 98.4397 84.8723 98.3149 85.1232 98.1957C85.4947 98.0195 85.5965 97.8813 85.6683 97.4571C85.7867 96.7552 86 96.6573 86 97.3048C86 97.8296 85.868 98.0128 85.2352 98.3667C84.9347 98.5347 84.6667 98.5845 84.6667 98.4731Z" fill="#10C2DD" stroke="#10C2DD"/>
<path d="M21.6 72.2917C21.6 72.2227 21.6901 72.0912 21.8 72C21.9099 71.9088 22 71.7685 22 71.6885C22 71.4941 23.0816 70.4 23.2736 70.4C23.4552 70.2224 24.5363 69.6443 24.6077 69.6709C24.7504 69.5635 25.0419 69.4733 25.256 69.4709C25.4704 69.4685 25.7557 69.3669 25.8901 69.2453C26.0248 69.1235 26.1787 69.0675 26.2323 69.1211C26.3616 69.2504 25.7315 69.7267 25.4259 69.7304C25.1176 69.7341 24.044 70.2211 23.9269 70.4104C23.8779 70.4899 23.6552 70.6659 23.432 70.8016C23.2091 70.9373 22.8704 71.3373 22.6797 71.6909C22.4125 72.1861 22.2493 72.3429 21.9667 72.3755C21.7651 72.3987 21.6 72.3611 21.6 72.2917Z" fill="#10C2DD" stroke="#10C2DD"/>
<path d="M58.6035 22.8059C58.5603 22.7357 58.4285 22.7152 58.5645 22.4608C58.7528 22.4573 58.9899 22.3859 59.3333 22.6648C58.9661 22.9541 58.724 23.0011 58.6035 22.8059Z" fill="#10C2DD" stroke="#10C2DD"/>
<path d="M113.832 53.2144C113.637 53.1432 113.672 53.0885 114.038 52.8912C114.281 52.7605 114.545 52.4821 114.624 52.2723C114.775 51.8717 114.717 51.2467 114.517 51.1235C114.326 51.0051 114.381 50.4 114.584 50.4C114.89 50.4 115.038 50.7 115.076 51.4C115.116 52.1355 114.961 52.6221 114.582 52.9464C114.21 53.2653 114.09 53.3083 113.832 53.2144Z" fill="#10C2DD" stroke="#10C2DD"/>
<path d="M164.142 64.3104C164.144 64.0299 164.153 63.3499 164.161 62.8C164.17 62.2501 164.164 61.6349 164.148 61.4333C164.099 60.8005 164.085 59.2947 164.122 58.6C164.142 58.2333 164.137 57.8133 164.112 57.6667C164.086 57.5123 164.141 57.4 164.242 57.4C164.382 57.4 164.416 58.1253 164.411 61.0656C164.408 63.3968 164.357 64.7477 164.272 64.776C164.197 64.8008 164.14 64.5944 164.142 64.3104Z" fill="#10C2DD" stroke="#10C2DD"/>
<path d="M86.0013 106.5C86.3024 106.006 86.2525 105.421 85.848 104.7C85.5443 104.159 85.7992 104.102 86.2717 104.606C86.7264 105.089 86.7288 106.059 86.2768 106.567C85.832 107.066 85.6789 107.029 86.0013 106.5Z" fill="#10C2DD" stroke="#10C2DD"/>
<path d="M41.0933 27.5733C40.8451 27.3251 40.9037 27.1773 41.232 27.224C41.3963 27.2475 41.5507 27.3717 41.5749 27.5C41.6259 27.7675 41.332 27.8123 41.0933 27.5733Z" fill="#10C2DD" stroke="#10C2DD"/>
<path d="M40.4515 26.9083C40.2877 26.6853 40.2995 25.8619 40.4699 25.6C40.9773 25.9157 40.9773 25.9157 40.7283 26.2435C40.8371 26.7397 40.6528 27.1827 40.4515 26.9083Z" fill="#10C2DD" stroke="#10C2DD"/>
<path d="M163.6 115.94C163.6 115.649 163.605 115.648 164.254 115.857C164.614 115.972 164.899 116.074 164.887 116.082C164.876 116.091 164.582 116.128 164.233 116.166C163.649 116.229 163.6 116.211 163.6 115.94Z" fill="#10C2DD" stroke="#10C2DD"/>
<path d="M76.8245 86.1267C76.8109 85.9397 76.7371 85.7237 76.3616 84.7123C76.3128 84.6339 76.2325 84.2219 76.1827 83.7973C76.1155 83.2283 76.1323 83.0501 76.2459 83.1205C76.4069 83.4629 76.7475 84.6565 76.8077 84.8877C76.8856 84.9656 76.9264 85.3499 76.8989 85.7475C76.8717 86.1429 76.8384 86.3136 76.8245 86.1267Z" fill="#10C2DD" stroke="#10C2DD"/>
<path d="M78.8245 113.11C78.9133 112.903 79.0411 112.658 79.1091 112.567C79.2819 112.334 78.9664 111.616 78.4944 111.169C78.1139 110.808 78.0691 110.533 78.3741 110.431C78.4608 110.402 78.5853 110.518 78.6507 110.689C78.716 110.86 78.8992 111.117 79.0576 111.26C79.216 111.402 79.4416 111.721 79.5587 111.968C79.7579 112.388 79.7552 112.448 79.5133 112.908C79.3549 113.21 79.1405 113.417 78.9595 113.443C78.6832 113.483 78.6744 113.461 78.8245 113.11Z" fill="#10C2DD" stroke="#10C2DD"/>
<path d="M151.333 102.292C151.333 102.223 151.408 102.104 151.5 102.028C151.625 101.924 151.66 101.212 151.64 99.1781C151.625 97.6867 151.574 96.2565 151.528 96C151.423 95.4219 151.425 95.232 151.541 94.7621C151.606 94.5008 151.566 94.3171 151.409 94.1424C151.212 93.9256 151.194 93.6616 151.261 92.0472C151.304 91.0312 151.337 90.08 151.335 89.9333C151.317 88.4109 151.362 88.0533 151.604 87.8075C151.922 87.484 152.125 87.6416 151.822 87.9763C151.63 88.1885 151.6 88.6037 151.6 91.0941C151.6 93.4853 151.634 93.9952 151.8 94.1333C152.061 94.3496 152.054 94.6531 151.782 94.9539C151.613 95.1405 151.598 95.2371 151.718 95.3816C151.826 95.512 151.875 96.5867 151.879 98.9507C151.886 102.273 151.882 102.334 151.61 102.376C151.458 102.399 151.333 102.362 151.333 102.292Z" fill="#10C2DD" stroke="#10C2DD"/>
<path d="M58.1429 131.515C57.8416 131.132 57.8051 130.987 57.9821 130.878C58.1043 130.802 58.3555 131.067 58.6344 131.567C58.8824 132.01 58.5005 131.97 58.1429 131.515Z" fill="#10C2DD" stroke="#10C2DD"/>
<path d="M102.8 29.6677C102.8 29.4717 103.513 28.6667 103.687 28.6667C103.79 28.6667 103.912 28.5616 103.957 28.4333C104.076 28.0968 104.551 27.6 104.753 27.6C104.849 27.6 105.014 27.4307 105.121 27.2235C105.228 27.0165 105.425 26.7616 105.547 26.9333C105.61 26.9333 105.191 27.4051 104.618 27.9813C104.045 28.5581 103.505 29.1725 103.418 29.3469C103.276 29.6323 102.8 29.8789 102.8 29.6677Z" fill="#10C2DD" stroke="#10C2DD"/>
<path d="M277.035 92.6667C276.982 92.4101 276.927 89.74 276.915 86.7333C276.902 83.7267 276.886 80.5467 276.879 79.6667C276.873 78.7867 276.922 77.9168 276.99 77.7333C277.058 77.5499 277.148 77.04 277.19 76.6C277.232 76.16 277.322 75.8149 277.39 75.8333C277.57 75.8819 277.542 77.4152 277.358 77.6371C277.244 77.7741 277.193 79.8821 277.168 85.4789C277.149 89.6891 277.089 92.9232 277.035 92.6667Z" fill="#10C2DD" stroke="#10C2DD"/>
<path d="M261.029 92.9773C260.921 91.1499 260.421 88.796 260.056 88.3896C259.839 88.1488 259.812 87.916 259.987 87.808C260.135 87.7168 260.667 88.5904 260.667 88.9245C260.892 89.2557 261.088 89.9947 261.068 90.068C261.155 90.1736 261.193 91.0661 261.17 92.4843L261.133 94.7333L261.029 92.9773Z" fill="#10C2DD" stroke="#10C2DD"/>
<path d="M169.896 116.421C169.679 116.283 170.287 115.982 170.891 115.928C171.125 115.907 171.447 115.849 171.607 115.798C171.819 115.73 171.882 115.754 171.839 115.886C171.803 115.994 171.534 116.083 171.167 116.107C170.83 116.129 170.482 116.234 170.394 116.34C170.211 116.561 170.135 116.573 169.896 116.421Z" fill="#10C2DD" stroke="#10C2DD"/>
<path d="M109.791 58.4571C109.86 58.1288 109.811 57.9808 109.545 57.7144C109.362 57.5312 109.149 57.2355 109.073 57.0573C108.996 56.8792 108.861 56.6312 108.772 56.5064C108.683 56.3816 108.649 56.24 108.697 56.192C108.818 56.0709 109.6 56.6451 109.6 56.8552C109.6 56.9488 109.708 57.1235 109.841 57.2429C110.125 57.5003 110.15 58.4405 109.88 58.6995C109.737 58.8363 109.721 58.7923 109.791 58.4571Z" fill="#10C2DD" stroke="#10C2DD"/>
<path d="M103.545 41.0853C103.501 41.0149 103.5 40.8677 103.542 40.7584C103.622 40.5517 103.173 39.5477 102.935 39.4013C102.742 39.2816 102.768 39.0667 102.977 39.0667C103.552 39.0667 104.232 40.708 103.804 41.0632C103.693 41.1555 103.594 41.164 103.545 41.0853Z" fill="#10C2DD" stroke="#10C2DD"/>
<path d="M53.5952 124.461C53.4627 124.301 53.4603 124.22 53.5845 124.095C53.7088 123.971 53.7725 123.98 53.8701 124.134C54.1557 124.586 53.9259 124.859 53.5952 124.461Z" fill="#10C2DD" stroke="#10C2DD"/>
<path d="M7.33333 82.0872C7.33333 81.8243 7.83786 81.1645 8.20453 80.9483C8.624 80.7005 8.6664 80.6968 8.6664 80.9045C8.66613 81.1443 7.70186 82.1333 7.46826 82.1333C7.39413 82.1333 7.33333 82.1125 7.33333 82.0872Z" fill="#10C2DD" stroke="#10C2DD"/>
<path d="M231.744 88.2C231.718 87.98 231.711 86.5699 231.727 85.0667C231.748 83.2192 231.707 82.2037 231.601 81.9333C231.446 81.5387 231.295 80.8483 231.075 79.5211C231.013 79.148 230.886 78.7211 230.793 78.5723C230.615 78.2872 230.696 77.8667 231.2 78.6C231.273 78.6453 231.333 78.8853 231.333 79.1333C231.333 79.3813 231.393 79.6213 231.467 79.6667C231.54 79.712 231.6 80.0557 231.6 80.4307C231.6 80.8056 231.675 81.2069 231.767 81.3229C231.895 81.4845 231.917 82.3525 231.862 85.0667C231.823 87.0101 231.77 88.42 231.744 88.2Z" fill="#10C2DD" stroke="#10C2DD"/>
<path d="M52.0808 16.5563C52.0381 16.4869 52.0952 16.3539 52.2077 16.2605C52.3203 16.1672 52.3779 16.0008 52.3355 15.8912C52.2496 15.6672 52.7507 15.0667 52.7016 15.8947C52.724 16.176 52.6493 16.3493 52.4461 16.4875C52.2787 16.6011 52.1261 16.6296 52.0808 16.5563Z" fill="#10C2DD" stroke="#10C2DD"/>
<path d="M42.0123 130.615C41.9141 130.497 41.8819 130.4 41.9403 130.4C41.9987 130.4 41.9112 130.256 41.7459 130.08C41.3245 129.631 40.268 127.485 40.3557 127.256C40.3957 127.152 40.4768 127.067 40.536 127.067C40.6749 127.067 41.684 129.143 41.7995 129.667C41.8477 129.887 41.9789 130.168 42.0907 130.292C42.2027 130.417 42.2707 130.588 42.2421 130.674C42.2072 130.778 42.1317 130.759 42.0123 130.615Z" fill="#17AACD" stroke="#17AACD"/>
<path d="M131.87 156.31C131.697 156.223 131.502 156.058 130.667 155.468C130.59 155.322 130.376 155.166 130.193 155.119C130.01 155.074 129.799 154.923 129.725 154.785C129.21 154.482 128.086 153.831 127.877 153.6C127.571 153.6 127.124 152.981 127.038 152.4C126.966 152.4 126.731 152.274 126.516 152.121C126.22 151.91 126.08 151.878 125.946 151.99C125.755 152.147 125.611 152.114 125.271 151.34C125.167 151.171 124.321 150.8 124.041 150.8C124.144 151.116 123.411 151.299 123.235 151.004C123.032 150.954 122.765 150.821 122.642 150.71C122.518 150.598 122.361 150.542 122.292 150.584C122.166 150.662 121.11 150.179 119.997 149.664C119.832 149.514 119.632 149.463 119.421 149.516C119.209 149.569 119.037 149.525 118.923 149.387C118.808 149.249 118.624 149.202 118.386 149.25C118.152 149.296 117.964 149.251 117.857 149.121C117.716 148.952 117.242 148.923 114.9 148.942C113.003 148.956 112.062 148.916 111.962 148.815C111.765 148.619 110.097 148.623 109.899 148.821C109.795 148.925 109.162 148.965 107.931 148.945C106.603 148.923 106.06 148.961 105.908 149.088C105.77 149.202 105.397 149.247 104.808 149.219C104.158 149.19 103.874 149.23 103.758 149.37C103.646 149.505 103.414 149.543 102.962 149.499C102.497 149.455 102.278 149.493 102.156 149.639C102.04 149.779 101.837 149.819 101.489 149.773C101.141 149.726 100.938 149.767 100.822 149.906C100.707 150.045 100.504 150.086 100.156 150.039C99.8133 149.994 99.6045 150.034 99.4944 150.167C99.3792 150.305 99.1507 150.343 98.6949 150.299C98.2307 150.255 98.0109 150.293 97.8896 150.439C97.7736 150.579 97.5707 150.619 97.2224 150.573C96.8776 150.527 96.6715 150.567 96.5587 150.703C96.4411 150.845 96.2269 150.881 95.7987 150.833C95.4019 150.788 95.1283 150.827 94.9813 150.949C94.8349 151.07 94.5064 151.117 94.0056 151.089C93.4651 151.057 93.2048 151.1 93.0896 151.239C92.9747 151.377 92.7568 151.414 92.332 151.366C91.9395 151.322 91.6613 151.36 91.5187 151.479C91.3685 151.604 90.9992 151.646 90.3123 151.617C89.6635 151.59 89.2541 151.633 89.1232 151.742C88.9813 151.859 88.4 151.899 87.1197 151.878C85.9064 151.858 85.2552 151.899 85.1299 152.003C84.8733 152.216 81.2595 152.215 81.0029 152.002C80.8781 151.899 80.2632 151.858 79.1477 151.879C77.9699 151.901 77.4205 151.861 77.2789 151.743C77.1443 151.632 76.7083 151.59 75.9525 151.616C75.1608 151.643 74.7629 151.602 74.6123 151.477C74.4723 151.36 74.1912 151.322 73.8013 151.366C73.3731 151.414 73.1589 151.378 73.0413 151.236C72.9285 151.1 72.7224 151.06 72.3776 151.106C72.0296 151.153 71.8264 151.112 71.7109 150.973C71.5952 150.833 71.392 150.793 71.0443 150.839C70.6963 150.886 70.4931 150.845 70.3776 150.706C70.2619 150.567 70.0587 150.526 69.7109 150.573C69.3648 150.619 69.1597 150.579 69.0461 150.442C68.9405 150.315 68.7512 150.27 68.5192 150.316C68.2827 150.363 68.0971 150.317 67.9856 150.183C67.8744 150.049 67.6888 150.002 67.4523 150.05C67.216 150.097 67.0304 150.05 66.9189 149.916C66.8077 149.782 66.6221 149.735 66.3856 149.783C66.0288 149.854 65.7336 149.668 65.7779 149.4C65.7901 149.327 65.62 149.246 65.4 149.222C65.18 149.198 64.8981 149.086 64.7733 148.974C64.6272 148.843 64.2408 148.762 63.6872 148.747C63.2147 148.733 62.7344 148.645 62.62 148.55C62.5053 148.455 62.3515 148.414 62.2779 148.46C62.1432 148.543 61.7253 148.354 61.3083 148.02C61.1845 147.922 61.0285 147.874 60.9616 147.916C60.8587 147.979 58.4933 146.872 57.8667 146.467C57.7568 146.396 57.6365 146.332 57.6 146.324C57.3467 146.274 56.8099 145.991 56.7333 145.867C56.6824 145.784 56.4955 145.662 56.3179 145.594C56.1405 145.527 55.9352 145.314 55.8619 145.121C54.7747 144.832 54.7747 144.228 54.3747 144.091C54.3445 143.88 54.2251 143.788 53.9397 143.755C53.7232 143.731 53.4773 143.617 53.3933 143.501C53.3093 143.386 53.1805 143.33 53.1075 143.375C53.0341 143.42 52.8037 143.279 52.5955 143.062C52.3872 142.845 52.1501 142.667 52.0688 142.667C51.9872 142.667 51.6864 142.427 51.4 142.133C51.1136 141.84 50.8115 141.6 50.7285 141.6C50.4541 141.6 47.6 138.56 47.6 138.268C47.6 138.116 47.4931 137.949 47.3621 137.896C47.0429 137.767 46.0941 136.691 45.8971 136.233C45.8101 136.031 45.6485 135.867 45.5381 135.867C45.4275 135.867 45.2491 135.657 45.1419 135.4C45.0347 135.143 44.884 134.933 44.8067 134.933C44.7299 134.933 44.6667 134.825 44.6667 134.692C44.6667 134.559 44.4867 134.278 44.2667 134.067C44.0467 133.856 43.8667 133.607 43.3333 132.855C43.3333 132.743 43.1835 132.432 43 132.162C42.8165 131.892 42.6667 131.573 42.6667 131.452C42.5333 131.212 42.1 130.328 42.0752 130.274C41.9699 130.186 41.8461 129.924 41.8 129.691C41.6533 128.947 40.6797 127.101 40.3955 127.027C40.2259 126.983 40.1333 126.844 40.1333 126.636C40.1333 126.458 39.9827 126.172 39.7987 125.999C39.5984 125.81 39.4925 125.595 39.5349 125.461C39.44 125.214 39.1613 124.315 39.2139 124.342C39.0083 124.215 38.6627 123.447 38.7485 123.309C38.6163 123.003 38.248 121.83 38.2171 121.646C38.2693 121.438 38.22 121.236 37.8117 120.276C37.6827 120.169 37.6371 119.981 37.684 119.747C37.7312 119.511 37.6848 119.326 37.5507 119.214C37.4163 119.103 37.3699 118.917 37.4173 118.681C37.4635 118.449 37.4187 118.259 37.2917 118.154C37.1547 118.04 37.1141 117.835 37.1605 117.489C37.2072 117.141 37.1667 116.938 37.0272 116.822C36.8877 116.707 36.8472 116.504 36.8939 116.156C36.94 115.811 36.9 115.605 36.7637 115.492C36.6221 115.374 36.5856 115.16 36.6339 114.732C36.6787 114.334 36.6397 114.062 36.5173 113.914C36.3957 113.767 36.3491 113.448 36.3795 112.975C36.4085 112.52 36.3619 112.181 36.252 112.049C36.132 111.905 36.0904 111.492 36.1173 110.714C36.1429 109.983 36.1005 109.521 35.9968 109.396C35.8827 109.258 35.8435 108.39 35.8589 106.324C35.8744 104.24 35.836 103.39 35.7192 103.25C35.5064 102.993 35.5077 101.272 35.7208 101.015C35.8365 100.876 35.876 100.218 35.8565 98.7456C35.8371 97.2661 35.8763 96.6155 35.9933 96.4747C36.1 96.3461 36.1429 95.9309 36.116 95.2877C36.0877 94.6133 36.1304 94.2307 36.2496 94.0872C36.3664 93.9467 36.4099 93.5875 36.3803 93.0101C36.3512 92.4443 36.3931 92.0869 36.5013 91.9789C36.7619 91.7181 36.7128 90.8077 36.4333 90.7112C36.1381 90.6096 33.3333 87.8531 33.3333 87.6648C33.3333 87.5877 32.9733 87.1688 32.5333 86.7333C32.0933 86.2979 31.7333 85.8776 31.7333 85.7992C31.7333 85.7208 31.4333 85.3611 31.0667 85C30.7 84.6389 30.4 84.2773 30.4 84.1968C30.4 84.116 30.22 83.8776 30 83.6667C29.78 83.4557 29.6 83.2165 29.6 83.1347C29.6 83.0525 29.3925 82.7845 29.1387 82.5387C28.7507 82.1624 28.6451 82.1187 28.472 82.2621C27.9445 82.9027 27.9445 83.0173 27.8848 82.6667C27.7456 82.6667 27.6011 82.9515 26.6661 85.0667C26.4229 85.6165 26.1435 86.1851 26.0453 86.3296C25.9472 86.4744 25.8667 86.7293 25.8667 86.8963C25.8667 87.0635 25.8061 87.2 25.7323 87.2C25.62 87.2 25.0496 88.2917 24.4093 89.7333C24.328 89.9168 24.1155 90.3067 23.9371 90.6C23.7587 90.8933 23.5755 91.2232 23.2 92.1379C23.2 92.2157 23.0371 92.4197 22.8379 92.5909L22.4757 92.9024L22.464 96.4216C22.4576 98.3571 22.4069 100.014 22.3517 100.104C22.2963 100.193 22.2896 100.329 22.3368 100.406C22.5669 100.778 21.7184 101.237 20.8 101.237C19.6163 101.237 19.2717 100.892 19.3291 99.7621C19.3451 99.4477 19.2875 99.1051 19.1251 98.3864C18.9515 98.1056 18.9875 95.8744 19.1667 95.8056C19.4187 95.7091 19.3853 94.1339 19.1235 93.7597L18.9133 93.4597L18.2901 94.1496C17.9472 94.5288 17.5747 94.9768 17.4624 95.1453C17.1448 95.6211 15.412 97.4091 15.0192 97.6664C14.8253 97.7936 14.6667 97.9621 14.6667 98.0413C14.6667 98.2352 13.9883 98.9333 13.8 98.9333C13.7176 98.9333 13.4776 99.1133 13.2667 99.3333C13.0557 99.5533 12.8141 99.7333 12.7291 99.7333C12.5469 99.9957 11.4491 100.339 11.4907 100.305C11.3344 100.493 10.5136 100.509 10.0667 100.333C9.92 100.275 9.64986 100.089 9.46613 99.9203C9.1904 99.6667 9.13386 99.4949 9.14213 98.9352C9.15146 98.2989 9.19626 98.2123 9.87146 97.5285C10.2672 97.1277 10.6568 96.8 10.7371 96.8C10.8176 96.8 11.0557 96.62 11.2667 96.4C11.4776 96.18 11.7152 96 11.7949 96C11.9728 96 13.8667 94.1107 13.8667 93.9333C13.8667 93.8635 14.2941 93.3763 14.8165 92.8501C15.3517 92.3115 15.7264 91.8301 15.6752 91.7469C15.54 91.528 13.5371 91.5547 13.3517 91.7779C13.2488 91.9019 12.9816 91.9371 12.4688 91.8947C11.9835 91.8544 11.6632 91.8923 11.5264 92.0059C11.3776 92.1291 10.8752 92.1688 9.75013 92.1461C8.5824 92.1229 8.144 92.1597 8.03546 92.2909C7.8464 92.5187 6.35413 92.5051 6.07466 92.2733C5.96213 92.18 5.7344 92.1341 5.56826 92.1717C5.16746 92.2627 4.5328 91.8813 4.272 91.3936C3.98666 90.8595 4.01066 90.0901 4.3232 89.7443C4.63786 89.3968 5.324 89.0451 5.48853 89.1469C5.55626 89.1888 5.70826 89.1429 5.8264 89.0448C5.96506 88.9296 6.2952 88.8829 6.7584 88.9128C7.22053 88.9424 7.55173 88.8955 7.68933 88.7811C7.83253 88.6621 8.18533 88.6181 8.75653 88.6475C9.3224 88.6768 9.68053 88.6325 9.82053 88.5165C9.964 88.3971 10.3467 88.3544 11.0208 88.3827C11.6915 88.4107 12.0779 88.368 12.2197 88.2501C12.3621 88.1323 12.7579 88.0891 13.456 88.1155C14.2517 88.1456 14.5213 88.1083 14.6531 87.9499C14.8165 87.3752 13.6429 87.0499 13.6709 86.9333C13.5859 86.9333 13.3443 86.7533 13.1333 86.5333C12.9224 86.3133 12.6787 86.1333 12.5915 86.1333C12.504 86.1333 12.3555 86.0403 12.2613 85.9269C12.1669 85.8133 11.8331 85.6032 11.5197 85.4603C11.2061 85.3176 10.9149 85.1448 10.8725 85.0763C10.8301 85.0077 10.1779 84.6485 9.4232 84.2781C8.668 83.9075 7.93413 83.4685 7.792 83.3021C7.23626 82.6528 6.99866 81.9312 7.3904 82.0813C7.6456 82.1795 8.66613 81.2072 8.6664 80.8661C8.6664 80.6339 8.75226 80.6005 9.324 80.6088C9.68533 80.6139 10.0728 80.6941 10.1848 80.7872C10.3648 80.7725 11.28 81.1315 11.3077 81.1493C11.4403 81.0672 12.5269 81.5744 12.9064 81.8955C13.0312 82.0013 13.4667 82.2467 13.8741 82.4411C14.2813 82.6352 14.7571 82.9456 14.9307 83.1304C15.1045 83.3155 15.3136 83.4667 15.3963 83.4667C15.4784 83.4667 15.7803 83.7067 16.0667 84C16.3531 84.2933 16.6469 84.5333 16.7197 84.5333C16.7925 84.5333 17.0181 84.6923 17.2211 84.8869C17.5344 85.1872 17.6221 85.2141 18.0813 84.2504C18.2371 84.0784 18.2803 83.8693 18.2275 83.5448C18.1752 83.2229 18.2139 83.0325 18.3544 82.9157C18.4851 82.8075 18.5307 82.62 18.4837 82.3859C18.4365 82.1493 18.4829 81.964 18.6171 81.8525C18.7515 81.7411 18.7979 81.5555 18.7504 81.3192C18.7032 81.0827 18.7496 80.8973 18.8837 80.7859C19.0181 80.6744 19.0645 80.4888 19.0171 80.2525C18.9699 80.016 19.0163 79.8307 19.1504 79.7192C19.2848 79.6077 19.3312 79.4221 19.2837 79.1859C19.2365 78.9493 19.2829 78.764 19.4171 78.6525C19.5515 78.5411 19.5979 78.3555 19.5504 78.1192C19.5032 77.8827 19.5496 77.6973 19.6837 77.5859C19.8181 77.4744 19.8645 77.2888 19.8171 77.0525C19.7704 76.8189 19.816 76.6307 20.2133 75.7184C20.3443 75.5739 20.4029 75.3595 20.3584 75.1891C20.2851 74.9083 20.4224 74.5557 20.9696 73.3584C21.0773 73.2347 21.2219 72.9565 21.2915 72.7403C21.3979 72.4088 21.4888 72.3464 21.8741 72.3403C22.28 72.3341 22.3693 72.2621 22.6784 71.6909C22.8699 71.3373 23.2091 70.9373 23.432 70.8016C23.6552 70.6659 23.8779 70.4899 23.9269 70.4104C24.044 70.2211 25.1176 69.7341 25.4259 69.7304C25.5584 69.7288 25.8165 69.6101 26 69.4667C26.2141 69.2992 26.544 69.2048 26.9227 69.2029C27.2805 69.2013 27.6083 69.1133 27.756 68.9795C27.9835 68.7736 28.0176 68.7747 28.2581 68.9923C28.4536 69.1693 28.6904 69.2147 29.2376 69.1795C29.7045 69.1499 30.0344 69.1963 30.1736 69.3115C30.2917 69.4096 30.4419 69.4565 30.5077 69.416C30.6525 69.3264 32.4501 70.2056 32.6736 70.4749C32.7923 70.5152 33.7645 71.1805 33.7893 71.2C33.9749 71.2 37.3333 74.5547 37.3333 74.7403C37.3333 74.8155 37.6333 75.1723 38 75.5333C38.3667 75.8944 38.6667 76.2635 38.6667 76.3539C38.6667 76.6152 38.9269 76.7045 39.1499 76.5195C39.3013 76.3941 39.3435 76.1512 39.3115 75.5944C39.2827 75.0963 39.3299 74.7648 39.4496 74.6205C39.5507 74.4989 39.5971 74.2699 39.5541 74.1056C39.5075 73.9272 39.5613 73.7165 39.6896 73.5747C39.8371 73.4117 39.8795 73.1976 39.8275 72.8781C39.7752 72.5563 39.8139 72.3659 39.9544 72.2491C40.0851 72.1408 40.1307 71.9533 40.084 71.7192C40.0365 71.4813 40.0829 71.2971 40.2195 71.184C40.3667 71.0616 40.408 70.8651 40.3605 70.5109C40.3147 70.1699 40.3549 69.9595 40.7459 69.0528C40.8867 68.8973 40.936 68.6952 40.8837 68.4872C40.8304 68.2755 40.8749 68.1035 41.0128 67.9893C41.1512 67.8747 41.1984 67.6909 41.1507 67.4523C41.1032 67.216 41.1496 67.0304 41.284 66.9189C41.4181 66.8077 41.4645 66.6221 41.4173 66.3856C41.3704 66.1523 41.416 65.964 41.8125 65.0528C41.9533 64.8973 42.0027 64.6952 41.9504 64.4872C42.2059 63.4768 42.8112 61.8149 43.0085 61.2139C42.924 61.0771 43.1112 60.6613 43.4464 60.2416C43.5451 60.1179 43.592 59.9619 43.5504 59.8944C43.4763 59.7744 44.4787 57.6539 44.9955 56.5371C45.1099 56.4424 45.3845 55.9851 45.6061 55.5208C45.8275 55.0568 46.0667 54.6411 46.1381 54.5971C46.2093 54.5531 46.3872 54.2544 46.5333 53.9333C46.6795 53.6123 46.8597 53.3123 46.9333 53.2667C47.0069 53.2211 47.1843 52.9272 47.3269 52.6139C47.4699 52.3 47.6797 51.9664 47.7936 51.872C47.9069 51.7779 48 51.6293 48 51.5419C48 51.4547 48.18 51.2109 48.4 51C48.62 50.7891 48.8 50.5475 49.3333 49.6709C49.3333 49.5859 49.5133 49.3443 49.7333 49.1333C49.9533 48.9224 50.1333 48.684 50.1333 48.6032C50.1333 48.5227 50.4333 48.1613 50.8 47.8C51.1667 47.4387 51.4667 47.0789 51.4667 47C51.4667 46.9211 51.7667 46.5613 52.1333 46.2C52.5 45.8387 52.8 45.4821 52.8 45.4069C52.8 45.332 53.5003 44.5683 54.3565 43.7101C55.7328 42.3301 55.892 42.1243 55.7312 41.9307C55.5925 41.7637 55.3701 41.7221 54.7944 41.7552C54.2936 41.784 53.9651 41.7371 53.8187 41.6155C53.6781 41.4989 53.4307 41.4592 53.1403 41.5064C52.8235 41.5579 52.632 41.5189 52.5163 41.3795C52.4195 41.2629 52.2171 41.2037 52.0336 41.2389C51.7 41.3027 50.5363 40.7915 50.2613 40.4603C50.1731 40.3539 50.0301 40.2667 49.9443 40.2667C49.7491 40.2667 48.8 39.3077 48.8 39.1107C48.8 39.0312 48.7112 38.8923 48.6029 38.8021C48.3304 38.5763 47.9877 37.8608 48.0803 37.7112C48.1221 37.6437 48.0859 37.5037 48.0003 37.4003C47.888 37.2651 47.8491 36.0965 47.8605 33.2344L47.8768 29.256L47.5437 28.9432C47.2795 28.6949 47.1144 28.6456 46.7467 28.7053C46.4205 28.7584 46.2328 28.72 46.1133 28.576C45.9891 28.4261 45.7736 28.3877 45.308 28.4325C44.8003 28.4813 44.6256 28.4424 44.4413 28.2387C44.2211 27.9955 44.0784 27.988 43.5773 28.1949C43.4115 28.2635 43.3432 28.2075 43.3107 27.9768C43.2733 27.7141 43.1776 27.6603 42.6848 27.6251C42.3648 27.6019 42.0064 27.6203 41.8885 27.6656C41.8555 27.9693 41.8763 27.9909 41.5971 27.5901C41.5376 27.3403 41.4309 27.2656 41.1288 27.2616C40.748 27.2568 40.7376 27.2381 40.7232 26.5525C40.7093 25.8829 40.7237 25.852 41.3053 24.9544C41.6632 24.6845 43.1259 24.5723 43.2691 24.8037C43.3275 24.8984 43.6533 24.9392 44.1285 24.912C44.6344 24.8829 44.968 24.9293 45.1117 25.0488C45.2384 25.1539 45.464 25.196 45.6496 25.1496C46.2099 25.2971 47.0853 25.5632 47.1797 25.1032C47.0693 24.9731 46.8147 24.5227 46.6144 24.1027C46.4136 23.6821 46.1952 23.3051 46.1291 23.264C46.0629 23.2232 45.8248 22.8043 45.6 22.3333C45.3752 21.8624 45.1333 21.4411 45.0619 21.3971C44.7581 21.2091 44.3587 20.0355 44.3461 19.2931C44.3349 18.6195 44.3795 18.4749 44.6891 18.1784C44.8851 17.9909 45.1125 17.8792 45.1952 17.9304C45.3731 17.8048 46.2656 17.8845 46.2736 17.9291C46.4397 17.8264 47.7333 19.0221 47.7333 19.2787C47.7333 19.364 47.8216 19.5075 47.9296 19.5971C48.0768 19.7192 49.092 21.6251 49.0971 23.0912C49.1883 23.3645 49.5709 23.376 49.6344 23.1075C50.1525 24.3285 50.9235 24.3285 51.2067 23.9291C51.264 23.8939 51.2923 23.64 51.2693 23.3656C51.2435 23.0592 51.3043 22.7797 51.6701 21.8627C51.8144 21.7035 51.8709 21.4971 51.8219 21.3093C51.7749 21.1307 51.8251 20.9197 51.9451 20.7869C52.1107 20.604 52.1397 20.2027 52.1067 18.5611C52.0845 17.4595 52.1019 16.58 52.1448 16.6069C52.188 16.6339 52.3565 16.5621 52.5192 16.4483C52.7539 16.284 52.7979 16.16 52.7304 15.8539C54.1592 14.4029 54.1592 15.0109 54.3259 14.7939C54.44 14.8883 54.5333 15.1197 54.5333 15.3077C54.5333 15.4957 54.6629 15.7875 54.8216 15.9563C55.0837 16.2355 55.1128 16.428 55.1456 18.0981C55.1653 19.1075 55.2445 20.1392 55.3219 20.3912C55.5363 21.464 55.2328 20.5251 55.092 21.2765C55.0819 21.5448 55.0069 21.8448 54.9253 21.9429C54.9781 22.0773 54.5949 23.0216 54.5848 23.0421C54.6696 23.1789 54.3264 23.9475 54.1251 24.0717C53.9315 24.1917 53.9776 24.6155 54.2048 24.804C54.376 24.9459 54.4704 24.9155 54.7789 24.6203C54.9819 24.4259 55.2123 24.2667 55.2909 24.2667C55.3696 24.2667 55.5112 24.1736 55.6053 24.06C55.6997 23.9464 56.0333 23.7365 56.3472 23.5939C56.6605 23.4509 56.9533 23.2755 56.9976 23.2037C57.2371 22.8163 58.1539 22.6291 58.6891 22.8584C58.9589 22.9736 59.6 22.5859 59.6 22.3069C60.3365 21.516 60.3365 24.1496 60.4907 24.1859C60.3253 24.6168 58.5925 25.848 56.9997 26.6664C55.0581 27.664 54.3331 28.24 54.4419 28.6981C54.4813 28.8643 54.5557 29.6901 54.6069 30.5333C54.6581 31.3765 54.7752 32.2133 54.8672 32.3925L55.0347 32.7187L57.0173 32.6816C58.4115 32.6557 59.0592 32.5933 59.2 32.4709C59.3192 32.3669 59.5773 32.324 59.8384 32.3643C60.1152 32.4067 60.3613 32.3605 60.5051 32.2384C60.6307 32.132 60.9499 31.9456 61.2149 31.8248C61.4797 31.7037 61.7723 31.5139 62.5347 30.9984C62.6267 30.8875 63.0816 30.6155 63.5459 30.3941C64.0099 30.1725 64.4221 29.9387 64.4619 29.8747C64.5013 29.8107 65.5237 29.2669 66.7333 28.6667C67.9429 28.0664 68.964 27.5251 69.0019 27.4635C69.04 27.4019 69.6992 27.0432 70.4667 26.6667C71.2341 26.2901 71.8955 25.9277 71.9363 25.8619C71.9771 25.796 72.3981 25.5568 72.8717 25.3309C73.6077 24.9797 73.7715 24.8349 73.9995 24.3347C74.1461 24.0131 74.3301 23.7099 74.4088 23.6613C74.3653 23.6411 74.7488 22.5013 74.7419 22.5472C74.6573 22.4104 74.8448 21.9947 75.1797 21.5749C75.2787 21.4512 75.3216 21.2888 75.2752 21.2139C75.1907 21.0771 75.3781 20.6613 75.7131 20.2416C75.812 20.1179 75.8584 19.9608 75.816 19.8923C75.7379 19.7659 76.2208 18.7099 76.5237 18.3448C76.6152 18.2349 76.6525 18.0848 76.6069 18.0112C76.5237 17.8765 76.7133 17.4587 77.0464 17.0419C77.1453 16.9181 77.1917 16.7608 77.1493 16.6923C77.0723 16.5677 77.5525 15.512 78.0589 14.4064C78.1717 14.3131 78.5024 13.7459 78.7941 13.1459C79.0859 12.5459 79.4763 11.912 79.6621 11.7376C79.848 11.5629 80 11.3531 80 11.2704C80 11.1883 80.24 10.8864 80.5333 10.6C80.8267 10.3136 81.0667 10.0125 81.0667 9.9312C81.0667 9.65467 81.8264 9.05387 82.2141 9.02374C82.816 8.59014 82.7899 8.38827 83.3155 8.45574C83.4352 8.308 83.6392 8.1464 83.7685 8.0968C83.8981 8.0472 84.0667 7.8424 84.1429 7.64134C84.2224 7.30534 85.0315 7.53814 84.8813 7.12374C84.8144 6.9488 87.2168 5.66667 87.6117 5.66667C88.1099 5.13627 89.3424 5.13627 89.5904 5.01174C89.6973 4.88267 89.8856 4.83734 90.1192 4.88374C90.3576 4.93174 90.5411 4.88454 90.656 4.74614C90.7693 4.60934 90.9424 4.564 91.1501 4.61627C91.336 4.66267 91.5616 4.62027 91.6891 4.51494C91.832 4.396 92.1557 4.34934 92.6251 4.3792C93.0739 4.408 93.4192 4.36134 93.5475 4.2552C93.6912 4.13547 94.168 4.0952 95.1499 4.11974C96.0379 4.14187 96.6131 4.09974 96.7277 4.00454C96.9224 3.8432 105.087 3.7808 106.126 3.92694C106.33 4.11147 106.58 4.14934 107.375 4.116C108.051 4.088 108.436 4.1304 108.579 4.2488C108.783 4.25494 109.654 4.5752 109.749 4.6008C109.991 4.508 111.553 6.064 111.347 6.192C111.115 6.3352 111.173 6.8472 111.548 7.96374C111.74 8.53387 111.917 9.14987 111.941 9.33334C111.993 9.7248 111.765 11.1493 111.589 11.5333C111.521 11.68 111.485 12.1437 111.507 12.5643C111.529 12.9848 111.493 13.3467 111.425 13.3693C111.247 13.4288 110.805 14.6573 110.886 14.868C110.923 14.9661 110.824 15.1157 110.666 15.2005C110.411 15.3368 110.383 15.4469 110.422 16.1376C110.457 16.7581 110.424 16.9312 110.26 16.9741C110.122 17.0099 109.998 17.3261 109.888 17.924C109.797 18.4171 109.672 18.9208 109.61 19.0435C109.411 19.4376 108.367 22.0456 108.147 22.6981C108.029 23.0456 107.864 23.3307 107.779 23.3315C107.59 23.3336 106.696 24.7277 106.229 25.7485C106.041 26.1603 105.791 26.5336 105.674 26.5787C105.557 26.6235 105.337 26.8717 105.184 27.1301C105.032 27.3885 104.833 27.6 104.743 27.6C104.549 27.6 104.074 28.1037 103.957 28.4333C103.912 28.5616 103.79 28.6667 103.687 28.6667C103.486 28.6667 102.8 29.4853 102.8 29.7243C102.8 29.8027 102.725 29.868 102.633 29.8701C102.542 29.8717 102.171 30.0901 101.81 30.3549C101.449 30.62 100.759 31.0443 100.277 31.2981C99.7944 31.552 99.28 31.8669 99.1333 31.9979C98.9867 32.1288 98.7168 32.2781 98.5333 32.3296C98.3499 32.3808 98.0584 32.5829 97.8853 32.7781C97.7123 32.9733 97.6109 33.0584 97.6597 32.9667C97.8067 32.6923 97.1365 32.7683 96.8768 33.0557C96.74 33.2067 96.3731 33.3488 95.98 33.4027C95.604 33.4544 95.2832 33.5752 95.2429 33.6805C95.2037 33.7829 95.044 33.8667 94.8883 33.8667C94.4347 33.8667 93.1731 34.4341 93.364 34.5523C93.4552 34.6085 93.2539 34.6243 92.9165 34.5872C92.3992 34.5304 92.2411 34.572 91.9059 34.8541C91.6424 35.0757 91.464 35.144 91.376 35.056C91.288 34.9683 91.1208 34.9701 90.8797 35.0619C90.6797 35.1379 90.3379 35.2 90.1205 35.2C89.264 35.6184 88.5525 36.1696 88.7584 35.6C88.3448 35.6 87.8821 35.8595 87.8787 36.0936C87.8763 36.2253 87.836 36.5288 87.7885 36.768C87.7371 37.0288 87.7653 37.2776 87.9333 38.3752C88.1427 38.5517 88.2101 38.8011 88.2467 39.5333C88.2723 40.0467 88.3544 40.5413 88.4288 40.6325C88.5037 40.7237 88.5648 41.1659 88.5648 41.6147C88.5648 42.6016 88.692 43.1333 88.9283 43.1333C89.0576 43.1333 89.1149 43.4485 89.1448 44.3272C89.1859 45.5211 89.1859 45.5216 89.6771 45.9339C90.0605 46.2557 90.1485 46.4085 90.0781 46.6301C90.0171 46.8227 90.0576 46.9523 90.204 47.0344C90.4117 47.1507 90.6501 47.4995 90.9136 48.072C90.9827 48.2219 91.1352 48.4243 91.6731 49.2053C91.7867 49.2997 91.9984 49.6371 92.1435 49.9552C92.3643 50.4405 92.468 50.5333 92.7872 50.5333C92.9963 50.5333 93.2432 50.4419 94.0581 50.1472C94.1853 49.9416 94.9525 49.596 95.0912 49.6819C95.1603 49.7245 95.3179 49.6784 95.4416 49.5797C95.8611 49.2445 96.2771 49.0573 96.4139 49.1419C96.4888 49.1883 96.6512 49.1451 96.7749 49.0464C97.1923 48.7131 97.6101 48.5237 97.7445 48.6069C97.8181 48.6523 97.9683 48.6149 98.0781 48.5237C98.4397 48.2237 99.4987 47.7373 99.6232 47.8144C99.6901 47.8557 99.8325 47.8173 99.9392 47.7285C100.087 47.6056 100.133 47.2253 100.133 46.1251C100.133 45.3317 100.08 44.6496 100.015 44.6096C99.8803 44.5259 99.9072 43.9141 100.062 43.5611C100.119 43.4296 100.138 43.0248 100.103 42.6611C100.057 42.1867 100.093 41.9552 100.231 41.8411C100.352 41.7405 100.396 41.5477 100.351 41.3189C100.304 41.0856 100.349 40.8973 100.478 40.7904C100.589 40.6987 100.647 40.5429 100.61 40.4437C100.501 40.1597 100.981 39.4189 101.41 39.2093C101.793 39.0221 103.184 38.9115 102.893 39.0917C102.789 39.1557 102.808 39.2565 102.956 39.4253C103.277 39.7915 103.627 40.5379 103.559 40.7139C103.526 40.7997 103.542 41.1544 103.595 41.5021C103.659 41.9211 103.637 42.2128 103.532 42.3669C103.444 42.4952 103.326 43.2 103.269 43.9333C103.153 45.4421 103.153 45.4493 103.295 46.2627C103.392 46.8147 103.431 46.8603 103.823 46.88C104.117 46.8947 104.328 46.8069 104.514 46.5939C104.683 46.3997 104.875 46.3115 105.038 46.3539C105.227 46.4035 105.369 46.2957 105.576 45.944C105.743 45.6605 105.962 45.4667 106.113 45.4667C106.328 45.4667 107.067 44.7032 107.067 44.4811C107.067 44.4424 107.364 44.1083 107.728 43.7387C108.205 43.2541 108.493 43.0659 108.762 43.0637C109.238 43.06 109.801 42.6365 109.696 42.3616C109.617 42.1555 109.918 41.9349 110.217 41.9811C110.299 41.9936 110.461 41.86 110.577 41.6837C110.737 41.4397 110.888 41.3712 111.211 41.3968C111.445 41.4149 111.69 41.5285 111.758 41.6483C111.825 41.7683 111.99 41.8667 112.124 41.8667C112.49 41.8667 112.739 42.2187 112.542 42.4565C112.45 42.5675 112.417 42.8307 112.462 43.0899C112.533 43.4933 112.464 43.6144 111.702 44.4333C111.242 44.9283 110.799 45.3333 110.719 45.3333C110.639 45.3333 110.26 45.6933 109.878 46.1333C109.495 46.5733 109.107 46.9333 109.016 46.9333C108.925 46.9333 108.678 47.1133 108.467 47.3333C108.256 47.5533 108.017 47.7333 107.935 47.7333C107.854 47.7333 107.553 47.9733 107.267 48.2667C106.98 48.56 106.678 48.8 106.596 48.8C106.354 48.8 105.83 49.4331 105.934 49.6003C105.997 49.7035 106.462 49.7421 107.349 49.7184C108.235 49.6947 108.722 49.7349 108.828 49.8413C108.938 49.9517 109.689 50 111.293 50C113.255 50 113.6 50.0299 113.6 50.2C114.079 50.2672 114.875 50.2243 114.56 50.4C114.377 50.4 114.34 51.0141 114.517 51.1235C114.715 51.2459 114.775 51.8704 114.627 52.264C114.463 52.6976 113.993 53.0061 113.101 53.2637C112.246 53.5112 110.889 53.5731 110.651 53.3752C110.534 53.2781 109.853 53.208 108.864 53.1907C107.986 53.1757 107.196 53.1075 107.109 53.0397C107.023 52.9717 106.724 52.9349 106.445 52.9581C105.989 52.9957 105.936 53.0397 105.908 53.4C105.868 53.9285 106.297 54.5184 106.562 54.2984C106.712 54.1736 106.935 54.3349 107.707 55.1251C108.235 55.6648 108.667 56.1949 109.067 57.008C109.067 57.1048 109.248 57.3824 109.47 57.6251C109.799 57.9851 109.858 58.1405 109.788 58.4667C109.688 58.9336 109.501 59.2 108.472 59.7333C108.184 59.7333 106.979 59.0656 106.666 58.7328C106.494 58.5496 106.29 58.4 106.213 58.4C106.026 58.4 103.733 56.1136 103.733 55.9277C103.733 55.8483 103.555 55.6128 103.338 55.4048C103.003 55.0829 102.911 55.0523 102.733 55.2005C102.362 55.508 101.303 55.9971 101.177 55.9189C101.11 55.8776 100.966 55.9176 100.857 56.0083C100.49 56.3128 98.8973 57.0603 98.7757 56.9851C98.7091 56.944 98.5651 56.9851 98.4552 57.0763C98.0899 57.3792 97.0341 57.8621 96.9077 57.784C96.7512 57.8757 95.7187 58.1811 95.7429 58.1883C95.636 58.3173 95.4477 58.3629 95.2141 58.316C94.984 58.2699 94.7928 58.3147 94.6899 58.4384C94.5744 58.5776 94.3576 58.6141 93.932 58.5661C93.5507 58.5232 93.2608 58.5608 93.1288 58.6704C92.8544 58.8984 91.1469 58.8995 90.8731 58.672C90.7603 58.5784 90.5349 58.5365 90.3723 58.5792C90.1941 58.6256 89.9835 58.5725 89.8427 58.4448C89.7128 58.3272 89.4885 58.2648 89.3384 58.304C88.8181 58.44 87.3515 57.5456 86.1741 56.3744C85.5648 55.7683 85.0667 55.2067 85.0667 55.1261C85.0667 55.0456 84.9176 54.8397 84.7352 54.6685C84.4168 54.3693 83.2 52.0851 83.2 51.7861C83.2 51.5603 82.8163 50.8461 82.5973 50.6645C82.2741 50.2459 82.7917 50.3965 82.2325 49.4955C82.3171 49.252 81.9936 48.9072 81.5224 48.6667C81.3995 48.6667 81.1355 49.0717 80.8491 49.7C80.5899 50.2683 80.3229 50.8376 80.0195 51.5453C79.8763 51.4568 79.5693 52.1091 79.6741 52.2789C79.7168 52.3477 79.8227 52.3627 79.9091 52.3117C79.9957 52.2611 79.8181 52.4637 79.5141 52.7624C78.8539 53.4115 77.1429 56.8101 77.272 57.2168C77.3293 57.3971 77.264 57.4997 77.0368 57.5859C76.6211 57.7443 76.3771 58.052 76.472 58.2992C76.4739 58.4027 75.9347 59.2448 76.016 59.2C75.8379 59.2 74.9155 60.484 74.3395 61.5333C73.9005 62.3333 72.9005 64.0219 72.108 65.3027C71.8211 65.7661 71.1565 67.0915 71.1229 67.2667C71.1091 67.34 71.0904 67.4675 71.0821 67.5499C71.0736 67.6323 70.7517 68.0637 70.3667 68.5088C69.5133 69.4949 68.7648 70.4859 68.5357 70.9333C68.4416 71.1168 68.1627 71.5168 67.9157 71.8224C67.6688 72.1283 67.4667 72.4357 67.4667 72.5061C67.3333 72.5835 66.9 73.5592 66.8131 73.6547C66.6736 73.7808 66.5232 74.0795 66.4781 74.3187C66.4333 74.5576 66.2173 74.9251 65.9984 75.1349C65.7795 75.3448 65.6 75.584 65.6 75.6667C65.6 75.7493 65.42 75.9891 65.2 76.2C64.98 76.4109 64.8 76.6507 64.8 76.7333C64.8 76.816 64.62 77.0557 64.4 77.2667C64.18 77.4776 64 77.7173 64 77.8C64 77.8827 63.82 78.1224 63.6 78.3333C63.38 78.5443 63.2 78.7781 63.2 78.8533C63.2 78.9283 62.9528 79.2416 62.6509 79.5493C62.3493 79.8568 62.1427 80.1741 62.1923 80.2544C62.3227 80.4653 62.7397 80.4331 62.936 80.1968C63.2888 80.0837 64.4037 79.7091 64.5261 79.6755C64.6309 79.5493 64.8205 79.504 65.0523 79.5507C65.2867 79.5973 65.4741 79.5515 65.5824 79.4211C65.6987 79.2811 65.8893 79.2421 66.2069 79.2936C66.4757 79.3371 66.7445 79.3016 66.8584 79.2069C66.9928 79.0955 67.7451 79.0461 69.3187 79.0461C71.5731 79.0461 71.5904 79.0485 72.4416 79.4547C72.9128 79.6795 73.3733 79.9541 73.4653 80.0651C73.5573 80.176 73.7003 80.2683 73.7829 80.2704C74.0467 80.2768 74.9333 81.1936 74.9333 81.4605C75.4432 81.436 75.6003 82.6405 75.7661 82.5205C76.0584 82.6315 76.1013 82.7443 76.172 83.5891C76.2155 84.1088 76.296 84.6061 76.3507 84.6944C76.4051 84.7829 76.4651 84.9973 76.4835 85.1712C76.5021 85.3448 76.5909 85.5755 76.6811 85.684C76.9397 85.9955 76.8101 91.2 76.5352 91.5309C76.4392 91.6467 76.3931 92.0123 76.4205 92.4416C76.4509 92.9147 76.404 93.2341 76.2827 93.3805C76.1603 93.5283 76.1213 93.8011 76.1661 94.1987C76.2125 94.6104 76.1768 94.8421 76.0501 94.9472C75.7877 95.1648 75.8027 96.5808 76.0693 96.8021C76.2339 96.9389 76.3147 96.9315 76.5027 96.7629C76.6403 96.6392 76.8712 96.5824 77.0749 96.6219C77.2872 96.6629 77.4805 96.6107 77.5864 96.4832C77.6973 96.3496 77.8832 96.3032 78.1192 96.3507C78.3555 96.3979 78.5411 96.3515 78.6525 96.2173C78.764 96.0829 78.9493 96.0365 79.1859 96.084C79.4243 96.1315 79.6077 96.0845 79.7227 95.9461C79.836 95.8096 80.0091 95.764 80.2168 95.816C80.4013 95.8624 80.628 95.8208 80.752 95.7179C80.8973 95.5973 81.2565 95.5525 81.8584 95.5803C82.4963 95.6099 82.7931 95.5691 82.9027 95.4368C83.0949 95.2051 84.032 95.2165 84.3181 95.4539C84.4371 95.5525 84.6669 95.5955 84.8429 95.5512C85.1656 95.4701 85.5936 95.8307 85.9667 96.4981C86.1744 96.8699 86.1757 96.9421 85.9736 96.9C85.8832 96.8813 85.7595 97.1109 85.6893 97.4264C85.5885 97.8808 85.4771 98.028 84.628 98.5883C84.3731 98.5288 84.1797 98.5707 83.2096 98.9883C83.1027 99.1173 82.9144 99.1629 82.6808 99.116C82.4424 99.0685 82.2589 99.1155 82.144 99.2539C82.0296 99.3917 81.8579 99.436 81.6461 99.3829C81.4349 99.3301 81.2347 99.3813 81.0699 99.5307C80.3584 99.7725 78.7168 100.317 78.2461 100.466C78.1395 100.425 77.9128 100.542 77.7371 100.73C77.5629 100.915 77.4757 101.076 77.5435 101.087C77.8421 101.136 77.9493 101.165 78.2 101.267C78.3467 101.326 78.568 101.461 78.6917 101.567C79.104 101.651 80.4552 102.142 80.6528 102.209C80.7896 102.124 81.2056 102.311 81.6251 102.646C81.7488 102.745 81.9112 102.788 81.9861 102.742C82.1229 102.657 82.5389 102.845 82.9584 103.18C83.2664 103.206 84.4136 103.643 84.5083 103.634C84.632 103.741 84.9259 103.91 85.1611 104.011C85.4357 104.128 85.6837 104.386 85.8531 104.73C86.2648 105.566 86.3051 106.009 86.0133 106.483C85.7851 106.855 85.6581 106.915 84.8453 107.035C84.0872 107.147 83.8949 107.135 83.7051 106.969C83.56 106.841 83.3184 106.791 83.0405 106.832C82.6141 106.895 82.2995 106.786 81.8387 106.417C81.7053 106.311 81.4765 106.269 80.44 106.058C80.2557 106.129 79.8629 105.957 79.4416 105.62C79.3179 105.521 79.1555 105.478 79.0805 105.525C78.9437 105.609 78.5277 105.422 78.1083 105.087C77.4501 104.947 75.7616 104.311 75.4725 104.33C75.2672 104.457 75.3035 104.876 75.7187 105.791C75.7901 105.835 76.1565 106.499 76.5333 107.267C76.9101 108.034 77.2704 108.694 77.3339 108.734C77.5437 108.863 77.8557 109.594 77.7485 109.935C78.1179 109.939 78.4264 110.274 78.668 111.333C78.7387 111.333 78.8888 111.554 79.0019 111.825C79.1888 112.273 79.1872 112.358 78.9835 112.791C78.7317 113.327 78.2091 113.867 77.9429 113.867C77.7192 113.647 76.9419 113.436 76.7613 113.432C76.3379 113.197 74.6667 111.569 74.6667 111.391C74.4891 111.146 73.9109 110.254 73.9416 110.274C73.6696 110.048 72.7936 108.252 72.884 108.105C72.9256 108.038 72.8787 107.882 72.7797 107.758C72.4448 107.339 72.2573 106.923 72.3419 106.786C72.3883 106.711 72.3349 106.549 72.2235 106.425C72.112 106.301 71.9803 106.037 71.9307 105.839C71.8811 105.64 71.7571 105.408 71.6549 105.324C71.5397 105.228 71.5 105.047 71.5504 104.846C71.6 104.649 71.5552 104.434 71.436 104.295C71.3285 104.169 71.2032 103.962 71.1576 103.833C71.1123 103.705 71.0173 103.6 70.9467 103.6C70.7797 103.6 70.3629 104.209 70.1288 104.794C70.0275 105.048 69.8371 105.363 69.7059 105.494C69.5744 105.626 69.4667 105.846 69.4667 105.984C69.4667 106.294 69.1152 107.154 68.9456 107.259C68.8768 107.302 68.7789 107.531 68.7283 107.768C68.6773 108.006 68.5776 108.273 68.5064 108.361C68.4352 108.449 68.4141 108.582 68.4597 108.655C68.5672 108.829 68.3093 109.281 67.7653 109.874C67.4037 110.268 67.2461 110.344 66.8317 110.326C66.5576 110.315 66.1835 110.243 66 110.167C65.5507 109.98 65.0168 109.389 65.1307 109.204C65.2741 109.004 65.2741 107.204 65.4144 107.123C65.3477 106.95 66.3584 104.825 66.6973 104.425C66.8027 104.301 66.9875 103.983 67.1085 103.718C67.2296 103.453 67.4195 103.161 67.9333 102.4C68.1832 102.193 68.2093 100.796 67.968 100.554C67.8597 100.446 67.8179 100.089 67.8469 99.5232C67.8768 98.9411 67.8333 98.5872 67.7144 98.4435C67.5957 98.3008 67.5517 97.9475 67.5811 97.3768C67.6101 96.8064 67.5661 96.4531 67.4477 96.3101C67.3291 96.1675 67.2851 95.8141 67.3144 95.2435C67.3432 94.68 67.2989 94.3192 67.184 94.1808C67.0653 94.0379 67.0224 93.6435 67.0491 92.944C67.0784 92.164 67.0403 91.8776 66.8907 91.7533C66.7552 91.6408 66.7144 91.4341 66.76 91.0941C66.8504 90.4203 66.4565 90.0277 65.9035 90.2408C65.7 90.3192 65.3403 90.4213 65.1045 90.468C64.8685 90.5147 64.4595 90.6992 63.52 90.9888C63.3075 91.0405 63.0075 91.0941 61.9485 91.3872C61.6763 91.2827 61.3179 91.5643 61.3651 91.8456C61.3869 91.9773 61.3003 92.0579 61.1333 92.0613C60.8019 92.068 59.6488 92.7475 59.5555 92.9909C59.5173 93.0899 59.2957 93.2659 58.6763 93.2C58.3021 93.2 57.5704 93.5776 57.6608 93.7237C57.8701 93.9197 56.7301 93.9197 56.8131 94.0333C56.6603 94.4341 56.5371 94.4837 56.2952 94.2416C55.7224 94.3901 55.3051 94.6448 55.0931 94.3251C54.7581 94.3037 54.6032 94.3731 54.4445 94.6152C53.7293 95.344 54.3077 94.5488 53.7704 94.4848C53.384 94.5859 53.0035 95.1635 53.1816 95.3781C53.2733 95.4885 53.236 95.6405 53.0603 95.8691C52.9205 96.0512 52.8045 96.3328 52.8029 96.4955C52.8013 96.6576 52.6843 96.8525 52.5429 96.9283C52.372 97.0197 52.2837 97.2117 52.2797 97.4995C52.2765 97.7381 52.2368 98.2453 52.1915 98.6264C52.1291 99.148 52.1611 99.3947 52.4115 100.014C52.0445 99.4341 51.6336 100.597 51.812 101.711C51.8696 102.071 51.844 102.334 51.4952 103.142C51.2765 103.295 51.2291 103.474 51.2352 104.125C51.2395 104.563 51.1707 105.008 51.0824 105.114C50.992 105.223 50.9584 105.453 51.0056 105.642C51.0517 105.825 51.0216 106.102 50.9384 106.257C50.8555 106.412 50.8339 106.613 50.8904 106.703C50.9469 106.793 50.9741 108.803 50.9507 111.171C50.9275 113.538 50.9589 115.466 51.0208 115.455C51.276 115.41 51.3888 115.478 51.2277 115.58C51.0909 115.667 51.0872 115.811 51.208 116.278C51.2917 116.602 51.3523 117.113 51.3429 117.414C51.332 117.751 51.4005 118.023 51.5213 118.123C51.6291 118.213 51.6875 118.364 51.6512 118.459C51.6147 118.554 51.7088 118.852 51.8603 119.122C52.0411 119.444 52.1064 119.727 52.0512 119.947C51.9845 120.213 52.024 120.298 52.2397 120.354C52.4677 120.414 52.5003 120.501 52.4381 120.883C52.3867 121.201 52.4304 121.413 52.5824 121.581C52.7024 121.713 52.7621 121.86 52.7149 121.907C52.668 121.954 52.7843 122.196 52.9736 122.444C53.2416 122.795 53.2827 122.932 53.1589 123.06C53.0349 123.188 53.0952 123.298 53.4344 123.563C53.8312 123.873 53.8488 123.917 53.6395 124.07C53.1483 124.892 54.6912 124.892 54.2989 125.017C54.0744 124.882 53.9181 125.307 54.0915 125.582C54.4736 125.808 55.1923 126.325 54.8163 126.21C54.4925 126.01 54.5157 126.56 54.8509 127.044C55.0429 127.321 55.2 127.608 55.2 127.681C55.2 127.754 55.4069 128.015 55.66 128.26C55.9128 128.505 56.1381 128.832 56.7048 129.505C56.6413 129.839 57.2243 130.476 57.6667 130.555C57.8531 130.589 57.9352 130.711 57.9395 130.961C57.9464 131.371 58.3392 131.867 58.6565 131.867C58.7747 131.867 59.4995 132.497 60.2667 133.267C61.0339 134.037 61.7256 134.667 61.8037 134.667C61.8821 134.667 62.1803 134.907 62.4667 135.2C62.7531 135.493 63.0539 135.733 63.1355 135.733C63.2168 135.733 63.4557 135.913 63.6667 136.133C63.8776 136.353 64.1173 136.533 64.2 136.533C64.2827 136.533 64.5224 136.713 64.7333 136.933C64.9443 137.153 65.188 137.333 65.2752 137.333C65.3627 137.333 65.5093 137.424 65.6013 137.535C65.6933 137.646 66.1483 137.918 66.6125 138.139C67.0765 138.361 67.4904 138.597 67.5317 138.664C67.5731 138.731 68.1139 139.032 68.7333 139.333C69.3531 139.635 69.8973 139.942 69.9435 140.016C69.9896 140.091 70.1072 140.121 70.2053 140.083C70.3821 140.015 71.4051 140.472 71.7885 140.791C72.496 140.937 74.3923 141.644 74.9365 141.803C75.1013 141.952 75.3016 142.003 75.5128 141.95C75.988 142.027 76.6387 142.312 76.8149 142.347C76.9648 142.482 77.1725 142.537 77.3573 142.489C77.5397 142.441 77.7488 142.493 77.892 142.623C78.0549 142.77 78.2691 142.813 78.5885 142.761C78.9125 142.709 79.1008 142.747 79.22 142.891C79.3443 143.041 79.5597 143.079 80.0283 143.034C80.48 142.99 80.7128 143.028 80.8251 143.163C80.9435 143.306 81.2459 143.345 82.0229 143.315C82.7093 143.289 83.1173 143.331 83.2245 143.438C83.4507 143.664 95.4739 143.673 95.6997 143.447C95.8037 143.343 96.4776 143.303 97.8019 143.323C99.2192 143.343 99.8069 143.305 99.9557 143.182C100.095 143.066 100.52 143.024 101.286 143.051C101.987 143.075 102.481 143.033 102.594 142.938C102.851 142.725 109.95 142.726 110.206 142.938C110.318 143.032 110.774 143.074 111.379 143.049C112.066 143.021 112.435 143.063 112.585 143.188C112.728 143.306 113.006 143.345 113.399 143.301C113.827 143.252 114.041 143.289 114.159 143.431C114.271 143.567 114.478 143.607 114.822 143.561C115.169 143.514 115.374 143.555 115.487 143.691C115.593 143.818 115.782 143.864 116.014 143.817C116.251 143.77 116.436 143.816 116.547 143.95C116.659 144.085 116.845 144.131 117.081 144.084C117.314 144.037 117.503 144.083 117.61 144.212C118.277 144.435 119.967 144.982 120.371 145.151C120.498 145.073 124.785 147.167 125.176 147.498C125.299 147.603 125.611 147.785 125.869 147.902C126.126 148.02 126.482 148.27 126.658 148.458C126.835 148.646 127.05 148.8 127.927 149.333C128.011 149.333 128.314 149.573 128.6 149.867C128.886 150.16 129.184 150.4 129.262 150.4C129.448 150.4 133.333 154.294 133.333 154.481C133.333 154.56 133.442 154.723 133.574 154.843C133.85 155.093 133.886 156.034 133.63 156.29C133.423 156.497 132.271 156.51 131.87 156.31ZM49.5984 51.9349C49.6891 51.8259 49.7221 51.6312 49.6717 51.5016C49.5888 51.2885 49.5565 51.2957 49.324 51.5805C49.0824 51.8768 49.0827 52.1333 49.3251 52.1333C49.3851 52.1333 49.508 52.0443 49.5984 51.9349Z" fill="#07B7DE" stroke="#07B7DE"/>
<path d="M57.6 93.6701C57.6 93.5224 58.4424 93.1877 58.7091 93.2291C58.9736 93.2704 58.9616 93.2949 58.5733 93.5037C58.1773 93.7168 57.6 93.8155 57.6 93.6701Z" fill="#10C2DD" stroke="#10C2DD"/>
<path d="M51.7979 101.596C51.6405 101.342 51.8691 99.9909 52.0829 99.9088C52.3843 99.7931 52.4627 99.9672 52.2709 100.326C52.172 100.51 52.1312 100.822 52.1763 101.047C52.2619 101.476 51.9779 101.888 51.7979 101.596Z" fill="#10C2DD" stroke="#10C2DD"/>
<path d="M53.1355 95.3371C52.9317 95.0075 53.8128 94.2685 54.1565 94.4808C54.3632 94.6088 54.2672 94.8 53.9968 94.8C53.8315 94.8 53.6776 94.9293 53.6 95.1333C53.4691 95.4779 53.2752 95.5629 53.1355 95.3371Z" fill="#10C2DD" stroke="#10C2DD"/>
<path d="M98.0077 32.5907C98.0827 32.5003 98.3069 32.3859 98.5056 32.3365C98.704 32.2872 98.9867 32.1373 99.1333 32.0035C99.28 31.8693 99.7944 31.552 100.277 31.2981C100.759 31.0443 101.449 30.62 101.81 30.3549C102.546 29.8147 102.837 29.7227 102.454 30.1504C101.954 30.7083 98.6187 32.7003 98.1224 32.7368C97.9376 32.7504 97.9072 32.7117 98.0077 32.5907Z" fill="#10C2DD" stroke="#10C2DD"/>
<path d="M49.1333 23.2C49.0219 23.0195 49.1723 22.8 49.408 22.8C49.5136 22.8 49.6 22.92 49.6 23.0667C49.6 23.3427 49.2781 23.4347 49.1333 23.2Z" fill="#10C2DD" stroke="#10C2DD"/>
<path d="M71.1275 67.368C71.1531 67.1232 71.7192 65.9304 72.108 65.3027C72.9005 64.0219 73.9005 62.3333 74.3395 61.5333C75.0155 60.3019 75.8485 59.2 76.1032 59.2C76.2829 59.2 76.2845 59.2285 76.1149 59.4333C76.0088 59.5616 75.836 59.8467 75.7309 60.0667C75.6261 60.2867 75.4035 60.6363 75.2365 60.8435C75.0699 61.0509 74.9333 61.3285 74.9333 61.4605C74.9333 61.5925 74.8403 61.7779 74.7269 61.872C74.6133 61.9664 74.3995 62.2888 74.2515 62.5885C73.8584 63.3864 73.6696 63.7021 72.9411 64.7267C72.7984 64.8555 72.6448 65.1285 72.6 65.3333C72.5552 65.5381 72.4016 65.8112 72.2589 65.94C72.1165 66.0691 72 66.2461 72 66.3333C72 66.4205 71.88 66.6005 71.7333 66.7333C71.5867 66.8661 71.4667 67.048 71.4667 67.1379C71.4667 67.2272 71.3848 67.3685 71.2848 67.4517C71.1424 67.5699 71.1083 67.552 71.1275 67.368Z" fill="#10C2DD" stroke="#10C2DD"/>
<path d="M54.5477 94.4491C54.6933 94.2741 55.4 94.2776 55.4 94.4533C55.4 94.5181 55.18 94.5779 54.9112 94.5859C54.5613 94.596 54.4581 94.5571 54.5477 94.4491Z" fill="#10C2DD" stroke="#10C2DD"/>
<path d="M103.953 46.8416C103.844 46.7333 104.789 45.7333 104.999 45.7333C105.079 45.7333 105.41 45.4635 105.733 45.1333C106.057 44.8032 106.376 44.5333 106.442 44.5333C106.508 44.5333 106.74 44.3835 106.958 44.2C107.175 44.0165 107.424 43.8685 107.067 44.4635C107.067 44.6992 106.337 45.4667 106.113 45.4667C105.962 45.4667 105.743 45.6605 105.576 45.944C105.369 46.2957 105.227 46.4035 105.038 46.3539C104.873 46.3109 104.68 46.4029 104.5 46.6099C104.205 46.9496 104.103 46.9923 103.953 46.8416Z" fill="#10C2DD" stroke="#10C2DD"/>
<path d="M42.5752 131.7C42.2979 131.269 42.1592 130.933 42.2584 130.933C42.416 130.933 42.6168 131.22 42.7016 131.567C42.7837 131.901 42.7365 131.951 42.5752 131.7Z" fill="#17AACD" stroke="#17AACD"/>
<path d="M55.2021 19.6C55.1741 19.2701 55.1472 18.3899 55.1421 17.644C55.1341 16.4283 55.1024 16.2555 54.8333 15.9688C54.4667 15.5784 54.4237 15.0259 55.2445 15.8C55.3568 15.8963 55.3795 16.5272 55.3267 18.0667C55.2864 19.24 55.2304 19.9299 55.2021 19.6Z" fill="#10C2DD" stroke="#10C2DD"/>
<path d="M57.0251 130.159C56.6576 129.776 56.5349 129.268 56.8333 129.366C56.9251 129.396 57.0653 129.551 57.1451 129.71C57.2251 129.868 57.3995 130.119 57.5325 130.266C57.9285 130.703 57.4496 130.603 57.0251 130.159Z" fill="#10C2DD" stroke="#10C2DD"/>
<path d="M103.168 45.7C103.135 45.6083 103.15 45.2333 103.203 44.8667L103.298 44.2L103.315 45.0333C103.333 45.8464 103.29 46.0379 103.168 45.7Z" fill="#10C2DD" stroke="#10C2DD"/>
<path d="M96.9333 33C97.0245 32.8901 97.2533 32.8 97.4419 32.8C97.7717 32.8 97.7747 32.8072 97.5256 32.9957C97.3832 33.1035 97.1544 33.1933 97.0171 33.1957C96.8101 33.1992 96.7957 33.1656 96.9333 33Z" fill="#10C2DD" stroke="#10C2DD"/>
<path d="M106.082 54.0715C105.67 53.4419 105.882 53.2488 106.391 53.7901C106.558 53.968 106.655 54.1779 106.606 54.2568C106.467 54.4811 106.315 54.4272 106.082 54.0715Z" fill="#10C2DD" stroke="#10C2DD"/>
<path d="M124.755 151.449C124.62 151.371 124.38 151.332 124.114 150.806C124.435 150.816 125.239 151.24 125.301 151.433C125.367 151.636 125.089 151.644 124.755 151.449Z" fill="#1DAEDB" stroke="#1DAEDB"/>
<path d="M126.547 152.862C125.683 152.413 124.986 151.863 125.517 152.05C125.654 152.098 125.847 152.071 125.946 151.99C126.08 151.878 126.22 151.91 126.516 152.121C126.731 152.274 126.966 152.4 127.038 152.4C127.599 152.48 127.269 153.154 127.344 153.146C127.539 153.381 127.565 153.39 126.547 152.862Z" fill="#17AACD" stroke="#17AACD"/>
<path d="M68.6685 107.974C68.6699 107.879 68.7563 107.65 68.8608 107.467C69.2211 106.835 69.4667 106.233 69.4667 105.984C69.4667 105.846 69.5808 105.619 69.72 105.48C69.8589 105.341 70.0507 105.013 70.1453 104.75C70.2403 104.488 70.4517 104.107 71.0384 104.012C70.9128 104.083 70.6256 104.527 70.4005 104.999C70.1757 105.47 69.9309 105.894 69.6629 106.67C69.5477 106.765 69.3365 107.1 69.1936 107.414C68.9256 108.003 68.6653 108.281 68.6685 107.974Z" fill="#10C2DD" stroke="#10C2DD"/>
<path d="M59.6 92.8867C59.6 92.8072 60.9432 92 61.0755 92C61.3781 92 61.1459 92.228 60.4976 92.5667C59.8379 92.9115 59.6 92.9963 59.6 92.8867Z" fill="#10C2DD" stroke="#10C2DD"/>
<path d="M54.6245 30.6C54.5648 29.72 54.4829 28.8643 54.4429 28.6981C54.3325 28.24 55.0568 27.6645 56.9997 26.6664C58.5925 25.848 60.3253 24.6168 60.4907 24.1859C60.3189 23.7909 59.9968 22.5997 60.0893 22.4C60.3957 22.4 60.7968 22.7861 60.7144 23.0019C60.6768 23.0989 60.7477 23.3328 60.8712 23.5216C61.1032 23.8757 61.0947 23.928 60.6891 24.6C60.432 25.0259 59.3936 25.7312 58.0384 26.4C57.5829 26.6248 57.1757 26.8648 57.1333 26.9333C57.0909 27.0019 56.6824 27.2363 56.2253 27.4544C54.8403 28.1155 54.8141 28.1677 54.7707 30.3376L54.7333 32.2L54.6245 30.6Z" fill="#10C2DD" stroke="#10C2DD"/>
<path d="M109.062 42.6051C109.498 42.1544 109.733 42.1035 109.733 42.4592C109.733 42.6755 109.162 43.0667 108.845 43.0667C108.668 43.0667 108.718 42.9595 109.062 42.6051Z" fill="#10C2DD" stroke="#10C2DD"/>
<path d="M61.3333 91.7496C61.3333 91.5352 61.7269 91.3024 61.9467 91.3867C62.1221 91.4539 62.132 91.5075 61.9987 91.6683C61.8211 91.8821 61.3333 91.9416 61.3333 91.7496Z" fill="#10C2DD" stroke="#10C2DD"/>
<path d="M50.8728 106.676C50.8259 106.601 50.8555 106.412 50.9384 106.257C51.0216 106.102 51.0517 105.825 51.0056 105.642C50.9584 105.453 50.992 105.223 51.0824 105.114C51.1707 105.008 51.2397 104.566 51.2355 104.132C51.2304 103.612 51.2915 103.29 51.4141 103.189C51.5693 103.06 51.6 103.154 51.6 103.757C51.6 104.155 51.5429 104.537 51.4731 104.607C51.4035 104.677 51.3285 105.179 51.3064 105.723C51.2693 106.647 51.0936 107.034 50.8728 106.676Z" fill="#10C2DD" stroke="#10C2DD"/>
<path d="M65.0667 149.4C64.9699 149.283 64.8027 149.222 64.6952 149.263C64.4475 149.287 63.5259 148.834 63.6667 148.867C63.6667 148.673 64.5624 148.786 64.8107 149.01C64.9264 149.114 65.1779 149.2 65.3693 149.2C65.5608 149.2 65.7547 149.26 65.8 149.333C65.8453 149.407 65.8237 149.467 65.7523 149.467C65.6805 149.467 65.5365 149.499 65.4323 149.539C65.328 149.579 65.1635 149.517 65.0667 149.4Z" fill="#10C2DD" stroke="#10C2DD"/>
<path d="M110.4 16.092C110.4 15.4699 110.447 15.3176 110.677 15.1944C110.83 15.1128 110.923 14.9661 110.886 14.868C110.801 14.6483 111.251 13.4272 111.439 13.3645C111.698 13.2784 111.759 13.6173 111.531 13.8696C111.381 14.0347 111.33 14.2349 111.383 14.4459C110.866 16.1296 110.866 16.1296 110.669 16.5981C110.402 16.8392 110.4 16.8347 110.4 16.092Z" fill="#10C2DD" stroke="#10C2DD"/>
<path d="M108 23.084C108 23.0021 108.33 22.1597 108.733 21.2117C109.137 20.2637 109.467 19.4227 109.467 19.3424C109.467 19.2621 109.528 19.0923 109.603 18.9648C109.678 18.8376 109.816 18.3432 109.909 17.8667C110.051 17.1376 110.124 16.9931 110.309 17.8493C110.371 18.1757 110.243 18.5128 109.887 18.9584C109.883 19.1792 109.54 20.0749 109.525 20.1195C109.609 20.2563 109.422 20.672 109.087 21.0917C108.988 21.2155 108.941 21.3717 108.983 21.4395C109.075 21.5877 108.466 22.8456 108.194 23.072C108.058 23.1843 108 23.1877 108 23.084Z" fill="#10C2DD" stroke="#10C2DD"/>
<path d="M111.487 12.388C111.496 11.9939 111.551 11.5805 111.609 11.4693C111.767 11.1696 111.992 9.71761 111.941 9.33334C111.917 9.14987 111.737 8.52481 111.542 7.94401C111.346 7.36321 111.205 6.73787 111.227 6.55414C111.825 7.05654 111.936 7.05654 111.989 7.39281C112.068 7.44214 112.133 7.78294 112.133 8.14987C112.133 8.51707 112.194 8.92987 112.267 9.0672C112.357 9.2344 112.357 9.34454 112.267 9.39974C112.194 9.44507 112.133 9.98534 112.133 10.6C112.133 11.2696 112.074 11.7541 111.987 11.8083C111.905 11.8587 111.873 12.0629 111.914 12.268C111.966 12.5304 111.913 12.7043 111.729 12.8707C111.476 13.0995 111.471 13.0888 111.487 12.388Z" fill="#10C2DD" stroke="#10C2DD"/>
<path d="M52.1883 99.4173C52.1429 99.3 52.1445 98.9179 52.1915 98.5685C52.2384 98.2192 52.2787 97.7381 52.2811 97.4995C52.284 97.2109 52.3715 97.02 52.5429 96.9283C52.6843 96.8525 52.8019 96.6576 52.8043 96.4955C52.8064 96.3328 52.8968 96.0835 53.0043 95.9411C53.188 95.6981 53.2 95.7123 53.2 96.1667C53.2 96.4331 53.14 96.688 53.0667 96.7333C52.9933 96.7787 52.9333 97.1088 52.9333 97.4667C52.9333 97.8245 52.8677 98.1581 52.7875 98.2077C52.7072 98.2573 52.6715 98.4539 52.7077 98.6443C52.7901 99.0757 52.3237 99.7699 52.1883 99.4173Z" fill="#10C2DD" stroke="#10C2DD"/>
<path d="M51.1981 116.456C51.1971 116.315 51.1603 116.065 51.116 115.9C51.0579 115.683 51.0931 115.6 51.2427 115.6C51.4069 115.6 51.4339 115.704 51.3728 116.1C51.2856 116.665 51.2008 116.838 51.1981 116.456Z" fill="#10C2DD" stroke="#10C2DD"/>
<path d="M15.6003 97.2333C15.6003 97.1784 15.9088 96.8333 16.2859 96.4667C16.6627 96.1 17.132 95.5805 17.3288 95.3123C17.5256 95.044 17.9605 94.5197 18.2955 94.1475C18.7656 93.6243 18.936 93.5093 19.0451 93.6408C19.0472 94.0477 18.2392 94.7499 18.1776 94.7667C18.0877 95.0275 15.864 97.3333 15.7029 97.3333C15.6461 97.3333 15.6 97.2883 15.6003 97.2333Z" fill="#10C2DD" stroke="#10C2DD"/>
<path d="M87.8981 38.3779C87.6813 38.1613 87.6896 37.9355 87.9213 37.7432C88.1704 37.5365 88.2784 37.7365 88.1589 38.1827C88.0827 38.4685 88.0288 38.5088 87.8981 38.3779Z" fill="#10C2DD" stroke="#10C2DD"/>
<path d="M88.7429 43.0744C88.6749 42.9685 88.6021 42.4075 88.5811 41.8269C88.56 41.2467 88.4888 40.7032 88.4227 40.6192C88.3565 40.5352 88.2621 40.0557 88.2128 39.5539C88.1427 38.8381 88.1603 38.6539 88.2949 38.7003C88.3965 38.7355 88.4507 38.9227 88.4275 39.1587C88.4045 39.3925 88.4715 39.6267 88.5885 39.7237C88.724 39.8363 88.7629 40.0181 88.7096 40.2861C88.6659 40.5043 88.7013 40.8155 88.788 40.9779C88.9795 41.3352 88.9355 43.3736 88.7429 43.0744Z" fill="#10C2DD" stroke="#10C2DD"/>
<path d="M87.8077 36.8667C87.8421 36.5733 87.8725 36.2253 87.876 36.0936C87.8827 35.836 88.4448 35.5568 88.7896 35.6403C88.9392 35.6765 88.8968 35.7339 88.6429 35.8387C88.3123 35.9752 87.9827 36.4904 87.8155 37.1333C87.7771 37.28 87.7736 37.16 87.8077 36.8667Z" fill="#10C2DD" stroke="#10C2DD"/>
<path d="M53.7891 143.988C53.5384 143.711 53.5395 143.71 53.9341 143.755C54.1832 143.783 54.3477 143.887 54.3752 144.033C54.4363 144.355 54.0973 144.329 53.7891 143.988Z" fill="#10C2DD" stroke="#10C2DD"/>
<path d="M92.2096 34.8048C91.9717 34.72 91.9699 34.7067 92.1872 34.6235C92.5147 34.4976 92.8 34.5112 92.8 34.6523C92.8 34.8309 92.5 34.9083 92.2096 34.8048Z" fill="#10C2DD" stroke="#10C2DD"/>
<path d="M77.2 57.084C77.2 57.0115 77.588 56.1528 78.0627 55.1763C78.8984 53.4549 79.4941 52.5189 79.6536 52.6765C79.7365 52.7587 79.0179 54.2509 78.6328 54.7965C78.5045 54.9779 78.4 55.2253 78.4 55.3467C78.4 55.468 78.3069 55.6445 78.1936 55.7387C78.08 55.8331 77.8699 56.1667 77.7269 56.4805C77.4744 57.0355 77.2 57.3493 77.2 57.084Z" fill="#10C2DD" stroke="#10C2DD"/>
<path d="M64.5448 90.668C64.6613 90.6 64.9915 90.4861 65.2781 90.4147C65.5651 90.3432 65.9499 90.2461 66.1333 90.1992C66.4035 90.1299 66.3907 90.1496 66.0667 90.3035C65.2443 90.6939 63.9851 90.9955 64.5448 90.668Z" fill="#10C2DD" stroke="#10C2DD"/>
<path d="M56.2251 129.247C56.1747 129.197 56.1333 129.057 56.1333 128.937C56.1333 128.817 55.9235 128.515 55.6667 128.267C55.4099 128.018 55.2 127.754 55.2 127.681C55.2 127.608 55.0429 127.321 54.8509 127.044C54.6411 126.741 54.536 126.452 54.5872 126.319C54.9189 125.886 55.3915 127.191 55.4667 127.133C55.6133 127.266 55.7333 127.483 55.7333 127.616C55.7333 127.749 55.9077 128.056 56.1205 128.298C56.3333 128.541 56.5285 128.852 56.5539 128.989C56.6013 129.245 56.3893 129.411 56.2251 129.247Z" fill="#10C2DD" stroke="#10C2DD"/>
<path d="M79.6728 52.2765C79.5688 52.1083 79.8773 51.4573 80.2557 50.9648C80.3229 50.8376 80.5899 50.2683 80.8491 49.7C81.1355 49.0717 81.3995 48.6667 81.5224 48.6667C81.7499 48.6667 81.6963 48.8899 81.3133 49.5333C81.1821 49.7533 80.9512 50.2032 80.7997 50.5333C80.648 50.8635 80.468 51.2235 80.3992 51.3333C80.3304 51.4432 80.1757 51.7283 80.0552 51.9667C79.8173 52.4371 79.7872 52.4619 79.6728 52.2765Z" fill="#10C2DD" stroke="#10C2DD"/>
<path d="M75.0224 81.7776C74.9733 81.7288 74.9333 81.5397 74.9333 81.3571C74.9333 81.0376 74.9429 81.0339 75.1909 81.2584C75.3328 81.3867 75.4165 81.5763 75.3768 81.6792C75.2992 81.8819 75.164 81.9192 75.0224 81.7776Z" fill="#10C2DD" stroke="#10C2DD"/>
<path d="M54.668 144.602C54.5349 144.441 54.5432 144.388 54.7117 144.323C54.9728 144.223 55.2 144.355 55.2 144.608C55.2 144.859 54.8779 144.855 54.668 144.602Z" fill="#10C2DD" stroke="#10C2DD"/>
<path d="M43.1387 28.0091C43.0904 27.9307 42.7509 27.8667 42.3843 27.8667C41.9736 27.8667 41.7493 27.8155 41.8 27.7333C41.9395 27.5077 43.1965 27.5688 43.2872 27.8059C43.3816 28.0512 43.2643 28.2117 43.1387 28.0091Z" fill="#10C2DD" stroke="#10C2DD"/>
<path d="M66.5333 74.1104C66.5333 73.9992 66.6533 73.7995 66.8 73.6667C66.9467 73.5339 67.0667 73.3219 67.4667 72.5061C67.4667 72.4357 67.6688 72.1283 67.9157 71.8224C68.1627 71.5168 68.4416 71.1168 68.5357 70.9333C68.8088 70.4005 69.6128 69.3581 70.3219 68.6176C70.6824 68.2413 70.8771 68.0581 70.7549 68.2109C70.7261 68.4803 69.9627 69.4816 69.8512 69.6795C69.6963 69.8192 69.5136 70.0533 69.4456 70.2C69.2141 70.6984 68.9712 71.076 68.6853 71.3803C68.5283 71.5472 68.4 71.7445 68.4 71.8187C68.4 71.8928 68.2501 72.0944 68.0667 72.2667C67.8832 72.4389 67.7333 72.6501 67.2 73.5307C67.2 73.6165 67.0501 73.8277 66.8667 74C66.6171 74.2347 66.5333 74.2621 66.5333 74.1104Z" fill="#10C2DD" stroke="#10C2DD"/>
<path d="M110.267 45.6667C110.439 45.4832 110.644 45.3333 110.722 45.3333C110.801 45.3333 111.241 44.9283 111.701 44.4333C112.475 43.5989 112.531 43.4984 112.46 43.056C112.406 42.716 112.443 42.5299 112.59 42.408C112.872 42.1747 112.991 42.4971 112.894 43.2256C112.835 43.6648 112.669 43.9251 112.047 44.5525C111.623 44.9821 111.209 45.3333 111.127 45.3333C111.046 45.3333 110.839 45.4832 110.667 45.6667C110.494 45.8501 110.263 46 110.153 46C110.006 46 110.036 45.9128 110.267 45.6667Z" fill="#10C2DD" stroke="#10C2DD"/>
<path d="M106.023 26.2C106.059 26.1267 106.198 25.8267 106.331 25.5333C106.696 24.7336 107.605 23.3333 107.76 23.3333C107.963 23.3333 107.756 24.0211 107.457 24.3419C107.297 24.6565 106.708 25.4376 106.667 25.5307C106.667 25.6165 106.507 25.8323 106.312 26.0101C106.117 26.1877 105.987 26.2733 106.023 26.2Z" fill="#10C2DD" stroke="#10C2DD"/>
<path d="M54.16 125.707C53.976 125.523 53.9475 125.115 54.1112 125.014C54.1725 124.976 54.3216 125.152 54.4427 125.406C54.6096 125.756 54.6211 125.867 54.4912 125.867C54.3971 125.867 54.248 125.795 54.16 125.707Z" fill="#10C2DD" stroke="#10C2DD"/>
<path d="M50.6709 24.7099C50.6768 24.5565 51.0096 24.1333 51.124 24.1333C51.3285 24.1333 51.1189 24.7333 50.9 24.7749C50.7717 24.7995 50.6685 24.7701 50.6709 24.7099Z" fill="#10C2DD" stroke="#10C2DD"/>
<path d="M22.468 93.9771C22.5037 92.9808 22.5408 92.8464 22.8536 92.5771C23.044 92.4133 23.2 92.2157 23.5299 91.3333C23.5755 91.2232 23.7587 90.8933 23.9371 90.6C24.1155 90.3067 24.328 89.9168 24.4093 89.7333C25.0496 88.2917 25.62 87.2 25.7323 87.2C25.8061 87.2 25.8667 87.0635 25.8667 86.8963C25.8667 86.7293 25.9472 86.4744 26.0453 86.3296C26.1435 86.1851 26.4229 85.6165 26.6661 85.0667C27.5931 82.9691 27.7448 82.6667 27.8704 82.6667C27.9416 82.6667 28 82.7005 28 82.7421C28 82.8501 27.4664 84.1624 27.3259 84.4C27.2608 84.5101 27.1075 84.8101 26.9853 85.0667C25.8963 87.3573 25.1571 88.8109 25.0472 88.8789C24.9744 88.9237 24.9464 89.0411 24.9843 89.14C25.0709 89.3661 24.7536 90.0133 24.3989 90.3341C24.248 90.4707 24.1603 90.6749 24.1995 90.7981C24.2405 90.9277 24.1315 91.1472 23.9333 91.3333C23.732 91.5224 23.6259 91.7384 23.6685 91.8723C23.6632 92.204 23.1403 92.8517 23.0725 92.9949C22.8741 93.1744 22.8021 93.4403 22.7725 94.1048C22.7499 94.6099 22.6688 95 22.5808 95.0291C22.4725 95.0648 22.44 94.7597 22.468 93.9771Z" fill="#10C2DD" stroke="#10C2DD"/>
<path d="M94.1333 34.0667C94.3168 33.9619 94.6251 33.8741 95.6123 33.4667C96.0992 33.4667 95.6448 33.8563 95.0464 33.952C94.7608 33.9976 94.4952 34.0869 94.4557 34.1507C94.4165 34.2144 94.2528 34.2645 94.0923 34.2619C93.8099 34.2573 93.8115 34.2507 94.1333 34.0667Z" fill="#10C2DD" stroke="#10C2DD"/>
<path d="M82.8629 8.52747C82.7589 8.35893 83.0339 8 83.2667 8C83.2907 7.6832 84.5792 7.77387 83.7941 8.05733C83.6531 8.13573 83.4579 8.3048 83.3611 8.43333C83.1608 8.69813 82.9885 8.73067 82.8629 8.52747Z" fill="#10C2DD" stroke="#10C2DD"/>
<path d="M51.4325 118.055C51.2909 117.913 51.3096 117.23 51.4573 117.139C51.5256 117.097 51.6109 117.11 51.6467 117.168C51.7472 117.33 51.5451 118.167 51.4325 118.055Z" fill="#10C2DD" stroke="#10C2DD"/>
<path d="M49.1419 52.0139C49.1013 51.948 49.1835 51.7533 49.324 51.5805C49.5565 51.2957 49.5888 51.2885 49.6717 51.5016C49.8147 51.8688 49.3373 52.3301 49.1419 52.0139Z" fill="#10C2DD" stroke="#10C2DD"/>
<path d="M50.9917 111.933C50.9917 109.953 51.0101 109.125 51.0331 110.092C51.0557 111.059 51.0557 112.679 51.0331 113.692C51.0104 114.705 50.992 113.913 50.9917 111.933Z" fill="#10C2DD" stroke="#10C2DD"/>
<path d="M89.6331 35.4333C89.6635 35.3416 89.9235 35.2328 90.2109 35.1909C90.4981 35.1493 90.8635 35.072 91.0221 35.0189C92.4109 35.3808 90.0795 35.3808 90.2056 35.4576C90.0808 35.6597 89.5653 35.6379 89.6331 35.4333Z" fill="#10C2DD" stroke="#10C2DD"/>
<path d="M84.4 7.41627C84.4 7.3152 84.4845 7.1624 84.588 7.07653C84.8416 6.86587 85.0147 7.14107 84.7952 7.40587C84.592 7.65093 84.4 7.65573 84.4 7.41627Z" fill="#10C2DD" stroke="#10C2DD"/>
<path d="M199.333 116.467C199.333 116.43 199.332 105.825 199.332 92.9L199.331 69.4L200.07 69.4461C200.498 69.4725 200.886 69.4275 200.993 69.3389C201.122 69.2325 202.241 69.1859 204.677 69.1859H208.176L208.146 70.9128C208.124 72.1157 208.163 72.6691 208.271 72.736C208.365 72.7941 208.755 72.5075 209.25 72.016C209.703 71.5672 210.136 71.2 210.212 71.2C210.288 71.2 210.523 71.02 210.733 70.8C210.944 70.58 211.186 70.4 211.271 70.4C211.683 70.0507 213.094 69.2563 213.258 69.3472C213.389 69.136 214.132 68.8083 214.319 68.8795C214.413 68.916 214.564 68.8571 214.654 68.7491C214.765 68.6144 214.96 68.576 215.274 68.6269C215.545 68.6707 215.811 68.6347 215.927 68.5384C216.2 68.3123 219.8 68.312 220.073 68.5384C220.194 68.6389 220.497 68.6755 220.865 68.6339C221.291 68.5859 221.508 68.6224 221.623 68.7616C221.726 68.8853 221.917 68.9301 222.147 68.884C222.381 68.8371 222.569 68.8827 222.677 69.0117C222.768 69.1219 222.918 69.1835 223.01 69.148C223.35 69.0173 226.023 70.4979 226.791 71.2429C227.199 71.6389 227.638 71.9995 227.767 72.044C227.895 72.0885 228 72.2045 228 72.3021C228 72.3995 228.24 72.7136 228.533 73C228.827 73.2864 229.067 73.5789 229.067 73.6499C229.067 73.7211 229.163 73.8853 229.28 74.0149C229.609 74.3787 230.668 76.5565 230.583 76.6944C230.541 76.7616 230.588 76.9179 230.687 77.0416C230.891 77.2968 231.2 77.8307 231.2 77.9275C231.2 77.9627 231.11 77.9573 231.001 77.9155C230.723 77.8088 230.587 78.2413 230.793 78.5723C230.886 78.7211 231.013 79.148 231.075 79.5211C231.294 80.8371 231.445 81.5376 231.598 81.9328C231.702 82.204 231.739 83.2963 231.713 85.3328C231.692 86.9832 231.724 88.4123 231.784 88.5083C231.851 88.616 231.804 88.7816 231.663 88.9379C231.536 89.0776 231.413 89.3653 231.388 89.5773C231.363 89.7893 231.277 90.316 231.197 90.748C231.117 91.18 231.017 91.7435 230.975 92C230.934 92.2565 230.818 92.5147 230.717 92.5733C230.616 92.632 230.533 92.7557 230.533 92.8483C230.533 92.9408 230.413 93.2648 230.267 93.5685C230.12 93.8723 230 94.1995 230 94.296C230 94.3925 229.85 94.6923 229.667 94.9621C229.483 95.2317 229.333 95.4949 229.333 95.5467C229.333 95.8187 228.608 97.0872 228.107 97.6912C227.791 98.0717 227.278 98.6923 226.966 99.0704C226.655 99.4485 226.428 99.8037 226.462 99.8597C225.659 100.958 226.03 100.22 226.203 99.8867C226.059 99.9136 225.873 100.07 225.791 100.234C225.582 100.654 225.188 101.067 224.996 101.067C224.906 101.067 224.76 101.154 224.672 101.26C224.446 101.533 223.188 102.142 223.04 102.05C222.972 102.008 222.815 102.055 222.691 102.154C222.27 102.49 221.878 102.662 221.693 102.592C221.592 102.553 221.438 102.606 221.352 102.711C221.242 102.844 221.018 102.88 220.599 102.833C220.233 102.792 219.927 102.828 219.809 102.926C219.538 103.15 215.13 103.152 214.86 102.928C214.754 102.84 214.535 102.803 214.372 102.846C214.194 102.892 213.983 102.839 213.843 102.711C213.713 102.594 213.489 102.531 213.339 102.57C213.063 102.642 210.999 101.689 210.548 101.28C210.307 101.2 209.484 100.56 209.419 100.533C209.342 100.533 209.087 100.347 208.851 100.118C208.616 99.8901 208.357 99.7443 208.275 99.7947C208.17 99.86 208.13 102.203 208.136 108.021L208.145 116.155L204.027 116.139C200.47 116.125 199.885 116.151 199.737 116.328C199.574 116.525 199.334 116.607 199.333 116.467ZM216.536 96.4635C216.629 96.352 216.807 96.2933 216.933 96.3333C217.515 95.6699 219 95.6699 219.26 95.4667C219.348 95.4667 219.566 95.3101 219.743 95.1192C219.921 94.9283 220.203 94.7192 220.369 94.6549C220.535 94.5907 220.724 94.4019 220.788 94.2357C220.853 94.0693 221.062 93.7877 221.253 93.6101C221.443 93.4325 221.6 93.2165 221.6 93.1307C222.339 91.9949 222.339 91.9949 222.475 91.64C222.404 91.4549 222.577 91.0616 222.917 90.6379C223.019 90.5096 223.066 90.2771 223.022 90.1093C222.974 89.9269 223.027 89.7179 223.156 89.5747C223.304 89.4117 223.346 89.1976 223.294 88.8781C223.243 88.5653 223.281 88.3656 223.41 88.2584C223.7 88.0173 223.689 82.6397 223.397 82.3973C223.309 82.1312 223.03 81.2736 223.017 81.1128C223.069 80.9048 223.02 80.7027 222.879 80.5472C222.839 79.7936 221.624 78.3213 221.333 77.8211C221.333 77.6296 220.786 77.0667 220.6 77.0667C220.515 77.0667 220.301 76.9115 220.123 76.7219C219.945 76.5323 219.549 76.2624 219.241 76.1224C218.934 75.9821 218.643 75.8032 217.853 75.5208C217.697 75.38 217.495 75.3307 217.287 75.3829C217.081 75.4349 216.904 75.3925 216.799 75.2653C216.577 74.9973 215.162 74.9909 214.941 75.2571C214.834 75.3859 214.635 75.4232 214.322 75.3725C213.997 75.3197 213.788 75.3629 212.875 75.72C212.828 75.796 212.417 76.0368 211.962 76.2552C211.43 76.5101 210.825 76.9653 210.27 77.5264C209.796 78.0069 209.338 78.4 209.254 78.4C209.169 78.4 209.019 78.4963 208.922 78.6139C208.824 78.7315 208.607 78.88 208.439 78.9437L208.133 79.0603V85.9603V92.8608L209.164 93.8971C209.73 94.4672 210.263 94.9333 210.347 94.9333C210.432 94.9333 210.574 95.0219 210.664 95.1301C210.754 95.2384 211.166 95.4888 211.581 95.6864C211.995 95.884 212.436 96.1325 212.561 96.2387C212.699 96.3552 212.917 96.3995 213.113 96.3504C213.319 96.2984 213.496 96.3408 213.601 96.468C213.841 96.7571 216.295 96.7533 216.536 96.4635Z" fill="#00B3D9" stroke="#00B3D9"/>
<path d="M244.761 102.953C244.658 102.828 244.41 102.791 243.972 102.833C243.519 102.876 243.287 102.838 243.174 102.702C243.074 102.581 242.881 102.537 242.653 102.583C242.419 102.63 242.231 102.584 242.123 102.455C240.573 101.978 240.573 101.978 240.145 101.8C240.029 101.8 239.284 101.47 238.491 101.067C236.366 99.9869 236.404 100.011 236.486 99.7963C236.528 99.6891 236.611 99.632 236.671 99.6696C236.907 99.8152 236.947 99.4309 236.741 98.9973C236.565 98.6269 236.527 98.1091 236.539 96.2373C236.547 94.9704 236.51 93.6656 236.455 93.3384L236.357 92.7435L236.936 93.2021C237.255 93.4544 237.759 93.7901 238.058 93.9483C239.378 94.648 239.623 94.7867 239.8 94.9336C239.904 95.0195 240.043 95.0557 240.11 95.0141C240.235 94.9373 241.294 95.4237 241.655 95.7237C242.12 95.7915 243.695 96.3885 244.005 96.4712C244.197 96.6448 244.409 96.6853 244.861 96.6344C245.277 96.5875 245.509 96.6232 245.614 96.7499C245.845 97.0277 248.836 97.0109 249.069 96.7301C249.53 96.2032 250.842 96.2032 250.987 96C251.27 96 252.682 94.4627 252.599 94.2456C252.556 94.1339 252.614 93.9659 252.727 93.8717C253.007 93.6397 253.007 92.4936 252.727 92.2616C252.614 92.1675 252.556 91.9995 252.599 91.8885C252.719 91.5744 251.643 90.5704 250.705 90.1211C250.25 89.9032 249.839 89.6627 249.792 89.5867C248.227 89.184 245.293 88.1123 243.891 87.6515C243.753 87.7373 242.985 87.3917 242.135 87.0013C242.041 86.8888 241.596 86.6211 241.146 86.4061C240.696 86.1912 240.183 85.8621 240.007 85.6744C239.831 85.4867 239.621 85.3333 239.54 85.3333C239.459 85.3333 238.957 84.8944 238.424 84.3576C237.489 83.4165 236.723 82.232 236.882 81.9744C236.766 81.7517 236.491 80.8635 236.533 80.8659C236.317 80.6056 236.316 76.9949 236.532 76.7347C236.618 76.6307 236.669 76.348 236.645 76.1064C236.599 75.6445 237.538 73.5283 237.935 73.1987C238.044 73.1083 238.133 72.9643 238.133 72.8795C238.133 72.6981 239.617 71.2 239.797 71.2C239.864 71.2 240.079 71.0459 240.276 70.8576C240.71 70.4424 242.923 69.3109 243.094 69.4171C243.394 69.2808 244.571 68.9157 244.75 68.8827C244.936 68.9296 245.162 68.8872 245.289 68.7816C245.432 68.6629 245.756 68.616 246.225 68.6461C246.646 68.6731 247.02 68.6269 247.131 68.5352C247.393 68.3173 251.54 68.3173 251.802 68.5352C251.913 68.6269 252.287 68.6731 252.708 68.6461C253.181 68.6157 253.501 68.6627 253.647 68.784C253.788 68.9008 254.035 68.9408 254.326 68.8936C254.64 68.8427 254.835 68.8811 254.946 69.0157C255.352 69.1539 256.741 69.5949 256.905 69.684C257.063 69.5861 258.834 70.4688 259.125 70.7909C259.321 71.0077 259.349 71.4224 259.349 74.1336C259.349 75.836 259.326 77.2515 259.298 77.2795C259.237 77.3408 257.02 76.2379 256.743 76.0077C256.04 75.8648 254.14 75.1547 253.597 74.9973C253.432 74.848 253.232 74.7968 253.021 74.8496C252.814 74.9016 252.638 74.8592 252.532 74.732C252.292 74.4421 249.042 74.4421 248.801 74.732C248.696 74.8592 248.519 74.9016 248.313 74.8496C248.119 74.8011 247.898 74.8445 247.761 74.9579C247.636 75.0621 247.233 75.2907 246.867 75.4661C245.994 75.8832 245.503 76.3392 245.19 77.0251C245.049 77.3325 244.874 77.6211 244.8 77.6664C244.649 77.7597 244.628 78.4821 244.754 79.2451C244.814 79.6077 244.932 79.7992 245.158 79.9021C245.534 79.9917 245.468 81.0851 245.949 80.8507C246.285 80.7667 246.787 80.9467 247.225 81.3072C247.446 81.3216 248.342 81.6579 248.386 81.6752C248.523 81.5907 248.939 81.7781 249.358 82.1131C249.886 82.2061 251.414 82.7813 251.737 82.8704C251.891 83.0091 252.104 83.0704 252.278 83.0251C252.559 82.9517 252.911 83.0891 253.358 83.4464C253.482 83.5453 253.645 83.5883 253.719 83.5419C253.856 83.4573 254.272 83.6448 254.691 83.9797C254.815 84.0787 254.971 84.1256 255.038 84.084C255.185 83.9936 256.981 84.8696 257.207 85.1416C257.326 85.1819 258.298 85.8472 258.325 85.8667C258.407 85.8667 258.826 86.2213 259.255 86.6547C259.934 87.3405 260.023 87.4899 259.944 87.8037C259.885 88.0424 259.92 88.2387 260.049 88.3824C260.157 88.5021 260.403 89.2 260.595 89.9333C260.876 91 260.958 91.672 261.007 93.2947C261.066 95.2221 261.056 95.3296 260.801 95.4661C260.617 95.5648 260.533 95.7453 260.533 96.0453C260.533 96.5712 259.991 97.7032 259.533 98.1339C259.35 98.3059 259.2 98.5091 259.2 98.5859C259.2 98.7632 257.719 100.267 257.545 100.267C257.473 100.267 257.254 100.421 257.057 100.609C256.624 101.024 254.41 102.156 254.239 102.05C254.172 102.008 254.015 102.055 253.891 102.154C253.446 102.51 253.109 102.638 252.783 102.575C252.586 102.538 252.385 102.591 252.289 102.706C252.175 102.844 251.957 102.881 251.532 102.833C251.17 102.792 250.86 102.828 250.744 102.924C250.449 103.169 244.962 103.195 244.761 102.953Z" fill="#07B7DE" stroke="#07B7DE"/>
<path d="M164.974 116.18C164.941 116.095 164.719 115.99 164.481 115.945C163.596 115.779 163.611 115.835 163.59 112.6C163.572 109.945 163.591 109.662 163.795 109.622C163.918 109.597 164.128 109.674 164.259 109.794C164.459 109.974 164.816 110.007 166.416 109.993C167.47 109.983 168.393 109.928 168.467 109.871C168.54 109.814 168.915 109.738 169.301 109.703C169.995 109.639 170.588 109.297 170.494 109.014C170.445 108.868 171.087 108.267 171.293 108.267C171.461 108.267 172.267 107.42 172.267 107.243C172.267 107.164 172.356 107.025 172.465 106.935C172.574 106.844 172.907 106.268 173.206 105.655C173.504 105.042 173.807 104.503 174.064 103.736C174.193 103.628 174.267 103.338 174.267 102.933C174.267 102.528 174.193 102.238 173.881 101.409C173.675 101.281 173.329 100.514 173.415 100.375C173.458 100.306 173.412 100.149 173.313 100.025C172.978 99.6056 172.791 99.1896 172.875 99.0528C172.922 98.9779 172.878 98.8155 172.78 98.6917C172.445 98.2723 172.257 97.8563 172.342 97.7195C172.169 97.2837 171.746 95.9501 171.713 95.7584C171.378 95.3389 171.191 94.9229 171.275 94.7861C171.171 94.5448 170.892 93.6621 170.913 93.6251C170.578 93.2056 170.391 92.7896 170.475 92.6528C170.371 92.4115 170.092 91.5288 170.113 91.4917C169.778 91.0723 169.591 90.6563 169.675 90.5195C169.571 90.2781 169.292 89.3955 169.313 89.3584C168.978 88.9389 168.791 88.5229 168.875 88.3861C168.922 88.3112 168.878 88.1488 168.78 88.0251C168.445 87.6056 168.257 87.1896 168.342 87.0528C168.237 86.8115 167.958 85.9288 167.98 85.8917C167.645 85.4723 167.457 85.0563 167.542 84.9195C167.437 84.6781 167.158 83.7955 167.18 83.7584C166.845 83.3389 166.657 82.9229 166.742 82.7861C166.637 82.5448 166.358 81.6621 166.38 81.6251C166.045 81.2056 165.857 80.7896 165.942 80.6528C165.769 80.2171 165.346 78.8835 165.313 78.6917C164.978 78.2723 164.791 77.8563 164.875 77.7195C164.922 77.6445 164.878 77.4821 164.78 77.3584C164.445 76.9389 164.257 76.5229 164.342 76.3861C164.169 75.9504 163.746 74.6168 163.713 74.4251C163.378 74.0056 163.191 73.5896 163.275 73.4528C163.322 73.3779 163.278 73.2155 163.18 73.0917C162.845 72.6723 162.657 72.2563 162.742 72.1195C162.637 71.8781 162.358 70.9955 162.38 70.9584C162.051 70.5464 161.914 70.2037 161.924 69.8141L161.933 69.4283L164.047 69.4563C165.627 69.4768 166.215 69.4397 166.38 69.3085C166.548 69.1744 167.055 69.1491 168.533 69.2L170.467 69.2667L170.698 70.2C170.825 70.7133 171.039 71.2245 171.638 71.9891C172.069 72.1531 172.402 72.9672 172.111 73.1467C171.89 73.2837 172.007 73.6091 172.708 74.0923C172.628 74.0427 172.572 74.2512 172.566 74.6205C172.559 75.1091 172.607 75.2443 172.806 75.2963C172.997 75.3461 173.038 75.4453 172.982 75.7256C172.881 76.2269 173.253 77.2717 173.523 77.248C173.763 77.2269 173.795 77.3515 173.6 77.5467C173.413 77.7333 174.095 79.7333 174.737 79.6987C174.899 79.9301 174.909 80.0424 174.785 80.2416C174.559 80.6037 174.745 81.1859 175.135 81.3339C175.489 81.468 175.485 82.4299 175.412 82.2667C175.026 82.2667 175.011 82.6613 175.385 83.0507C175.578 83.2531 175.698 83.4576 175.65 83.5051C175.522 83.6333 175.975 84.2667 176.195 84.2667C176.497 84.2667 176.581 84.536 176.335 84.7155C176.033 84.9363 176.116 85.6176 176.467 85.7968C176.682 85.9072 176.739 86.0845 176.761 86.7259C176.786 87.4371 176.832 87.5512 177.201 87.8403C177.563 88.124 177.586 88.1803 177.398 88.3181C177.086 88.5461 177.362 89.2584 177.724 89.1637C178.01 89.0891 178.218 89.5693 177.996 89.7909C177.804 89.9827 177.839 90.3672 178.082 90.7384C178.205 90.9261 178.265 91.1936 178.221 91.3621C178.136 91.684 178.451 92.1333 178.76 92.1333C178.863 92.1333 179.028 91.9397 179.127 91.7032C179.257 91.3944 179.396 91.2725 179.621 91.2699C179.89 91.2672 179.933 91.2005 179.933 90.7872C179.933 90.5237 180.014 90.2112 180.112 90.0928C180.234 89.9456 180.258 89.7389 180.189 89.4389C179.964 88.4597 180.117 87.9744 180.826 87.4192C181.205 87.1232 181.259 86.6741 180.891 86.8864C180.721 86.5589 182.142 86.3651 181.972 86.4333C181.953 86.0189 182.26 84.6357 182.413 84.4512C182.518 84.3248 182.521 84.1571 182.292 82.9485C182.182 82.6347 182.195 82.5152 182.348 82.3877C182.582 81.3421 182.813 82.1235 182.948 81.9C183.075 81.0485 183.061 80.9053 182.866 81.0669C182.757 81.1581 182.667 81.1944 182.667 81.148C182.667 81.0328 182.959 80.5181 183.183 80.2379C183.284 80.112 183.333 79.88 183.292 79.7224C183.218 79.4416 183.356 79.0891 183.713 78.6416C183.812 78.5179 183.852 78.3504 183.802 78.2693C183.694 78.0944 183.98 77.7053 184.142 77.8059C184.204 77.8437 184.352 77.7275 184.47 77.5469C184.669 77.2429 184.668 77.1923 184.448 76.8568C184.212 76.4965 184.213 76.4936 184.639 76.1379C185.079 75.7704 185.223 75.3781 184.869 75.5141C184.548 75.6371 184.91 75.1403 185.25 74.9909C185.747 74.5616 185.796 73.3579 186.158 73.3968C186.135 73.252 186.119 72.9939 186.124 72.8232C186.128 72.6528 186.067 72.3928 185.989 72.2456C186.069 71.4139 186.649 70.1315 186.731 69.7072C186.551 69.24 186.978 69.1691 189.827 69.1923C191.347 69.2045 192.653 69.2629 192.728 69.3224C192.879 69.4403 192.852 69.4355 194.2 69.5723C195.023 69.6557 195.131 69.6981 195.111 69.9333C195.086 70.2512 194.57 71.7949 194.333 72.2667C194.24 72.4501 193.944 73.2301 193.674 74C193.404 74.7699 193.037 75.6781 192.858 76.0179C192.679 76.3579 192.533 76.7179 192.533 76.8179C192.532 76.9181 192.438 77.1789 192.324 77.3976C192.21 77.6163 191.965 78.1864 191.778 78.6643C191.592 79.1424 191.296 79.9037 191.12 80.3563C190.944 80.8088 190.8 81.2443 190.8 81.3245C190.8 81.4045 190.747 81.5744 190.682 81.7019C190.617 81.8293 190.379 82.5032 190.155 83.2C189.931 83.8968 189.534 84.9949 189.274 85.6408C189.013 86.2867 188.798 86.9165 188.796 87.0408C188.658 87.3648 188.238 88.412 188.224 88.3803C188.127 88.4608 187.849 89.1429 187.606 89.8965C187.363 90.6501 187.052 91.5211 186.915 91.832C186.778 92.1429 186.667 92.4744 186.667 92.5691C186.667 92.6635 186.586 92.8589 186.487 93.0037C186.389 93.1483 186.238 93.552 186.152 93.9005C186.014 94.4624 185.522 95.7019 185.212 96.2712C185.151 96.3835 185.055 96.6813 185 96.9333C184.945 97.1853 184.849 97.4832 184.788 97.5955C184.451 98.2107 184.123 99.1152 183.871 100.142C183.869 100.256 183.747 100.598 183.6 100.902C183.168 101.795 182.902 102.964 183.101 103.091C183.222 103.168 183.175 103.277 182.924 103.498C182.389 103.97 181.638 106.133 182.01 106.133C182.047 106.179 181.711 107.042 181.748 106.778C181.538 106.727 181.158 107.307 180.742 108.315C180.586 108.692 180.191 109.39 179.863 109.866C179.239 110.772 176.263 113.867 176.016 113.867C175.712 114.263 174.663 114.951 174.667 114.821C174.667 114.547 174.395 114.657 173.975 115.1C173.444 115.783 173.667 114.917 173.335 115.463C173.226 115.667 173.106 115.708 172.801 115.647C172.585 115.604 172.301 115.614 172.171 115.669C171.891 115.789 171.715 115.823 170.996 115.901C170.7 115.933 170.31 116.044 170.129 116.147C169.699 116.39 165.066 116.421 164.974 116.18Z" fill="#07B7DE" stroke="#07B7DE"/>
<path d="M181.933 105.7C182.046 105.135 182.545 103.847 182.732 103.632C183.201 103.478 182.281 105.154 182.408 105.169C182.339 105.296 182.248 105.565 182.205 105.767C182.163 105.969 182.065 106.133 181.987 106.133C181.898 106.133 181.878 105.971 181.933 105.7Z" fill="#10C2DD" stroke="#10C2DD"/>
<path d="M180.588 87.3133C180.481 87.1413 180.909 86.7691 181.086 86.8789C181.275 86.9955 181.215 87.1827 180.941 87.3291C180.757 87.4277 180.655 87.4232 180.588 87.3133Z" fill="#10C2DD" stroke="#10C2DD"/>
<path d="M183.022 102.633C183.128 102.08 183.597 100.773 183.75 100.607C183.814 100.537 183.869 100.357 183.871 100.207C183.873 100.056 183.959 99.8224 184.062 99.6872C184.164 99.5515 184.218 99.3624 184.182 99.2667C184.123 99.1152 184.451 98.2107 184.788 97.5955C184.849 97.4832 184.945 97.1853 185 96.9333C185.055 96.6813 185.151 96.3835 185.212 96.2712C185.522 95.7019 186.014 94.4624 186.152 93.9005C186.238 93.552 186.389 93.1483 186.487 93.0037C186.586 92.8589 186.667 92.6635 186.667 92.5691C186.667 92.4744 186.778 92.1429 186.915 91.832C187.052 91.5211 187.363 90.6501 187.606 89.8965C187.849 89.1429 188.127 88.4608 188.224 88.3803C188.318 88.2643 188.765 87.0848 188.796 87.0408C188.798 86.9165 189.013 86.2867 189.274 85.6408C189.534 84.9949 189.931 83.8968 190.155 83.2C190.379 82.5032 190.617 81.8293 190.682 81.7019C190.747 81.5744 190.8 81.4045 190.8 81.3245C190.8 81.2443 190.95 80.7936 191.133 80.3229C191.317 79.852 191.613 79.0907 191.792 78.6309C191.971 78.1712 192.21 77.6163 192.324 77.3976C192.438 77.1789 192.532 76.9181 192.533 76.8179C192.533 76.7179 192.679 76.3579 192.858 76.0179C193.037 75.6781 193.404 74.7699 193.674 74C193.944 73.2301 194.24 72.4501 194.333 72.2667C194.57 71.7949 195.086 70.2512 195.111 69.9333C195.131 69.6981 195.031 69.6584 194.267 69.5955L193.4 69.5243L194.467 69.4584C195.053 69.4224 195.579 69.428 195.635 69.4712C195.763 69.5704 195.494 70.3917 195.03 71.4416C194.922 71.5653 194.795 71.8859 194.747 72.1533C194.699 72.4211 194.569 72.7155 194.457 72.808C194.389 72.9693 194.069 73.9987 194.058 73.9861C194.143 74.1229 193.955 74.5389 193.62 74.9584C193.611 75.1845 193.283 76.0648 193.212 76.1536C193.25 76.3832 193.081 76.8032 192.833 77.0917C192.727 77.2155 192.678 77.3779 192.725 77.4528C192.809 77.5896 192.622 78.0056 192.287 78.4251C192.274 78.6557 191.956 79.5237 191.894 79.5563C191.916 79.6237 191.804 79.9464 191.646 80.2731C191.239 81.1136 190.933 81.9635 190.933 82.2531C190.578 84.3739 190.173 84.3739 189.954 84.7859C189.851 84.9037 189.728 85.2192 189.68 85.4867C189.632 85.7544 189.502 86.0488 189.39 86.1413C189.278 86.432 188.903 87.6469 188.898 87.7083C188.791 87.832 188.664 88.1392 188.617 88.3912C188.569 88.6429 188.438 88.9507 188.326 89.0744C188.214 89.1987 188.137 89.3525 188.154 89.4165C188.205 89.6029 187.986 90.18 187.771 90.4251C187.374 91.7243 186.733 93.6976 186.325 94.4933C186.397 94.6795 186.222 95.0731 185.878 95.5008C185.793 95.7725 185.349 97.3261 185.212 97.4869C185.25 97.7173 185.081 98.1368 184.83 98.4283C184.328 98.9744 184.328 100.036 184.138 100.429C184.135 100.555 184.012 100.874 183.864 101.138C183.716 101.401 183.632 101.677 183.374 102.485C183.481 102.593 183.23 103.067 183.065 103.067C182.996 103.067 182.977 102.873 183.022 102.633Z" fill="#10C2DD" stroke="#10C2DD"/>
<path d="M171.395 71.8576C171.346 71.7795 171.34 71.6821 171.381 71.6411C171.422 71.6003 171.338 71.4693 171.194 71.3501C170.903 71.1091 170.372 69.2328 170.561 69.116C170.754 68.9971 171.067 69.3435 171.067 69.6749C171.177 70.2168 171.972 71.8648 171.928 71.8757C171.824 72.0437 171.503 72.0328 171.395 71.8576Z" fill="#10C2DD" stroke="#10C2DD"/>
<path d="M174.137 115.069C174.006 114.988 174.032 114.926 174.24 114.814C174.599 114.622 174.667 114.628 174.667 114.853C174.667 115.086 174.364 115.209 174.137 115.069Z" fill="#10C2DD" stroke="#10C2DD"/>
<path d="M177.322 88.836C177.212 88.5475 177.227 88.4429 177.398 88.3181C177.586 88.1803 177.563 88.124 177.201 87.8403C176.832 87.5512 176.786 87.4371 176.761 86.7259C176.739 86.0845 176.682 85.9072 176.467 85.7968C176.182 85.6507 176.056 85.1909 176.2 84.8237C176.272 84.6397 176.326 84.6712 176.505 85C176.625 85.22 176.707 85.4525 177.01 86.2496C176.965 86.3229 177.05 86.5987 177.197 86.8621C177.346 87.1256 177.469 87.4445 177.471 87.5707C177.7 88.1328 177.985 89.0264 177.796 89.1699C177.539 89.1909 177.426 89.1115 177.322 88.836Z" fill="#10C2DD" stroke="#10C2DD"/>
<path d="M184.8 74.9496C184.8 74.8853 184.891 74.7573 185.002 74.6653C185.113 74.5731 185.191 74.4307 185.176 74.3488C185.132 74.1179 185.343 73.5584 185.57 73.2992C185.683 73.1704 185.739 73.0275 185.693 72.9816C185.583 72.8723 185.838 72.4 186.007 72.4C186.079 72.4 186.133 72.5648 186.127 72.7667C186.121 72.9685 186.135 73.252 186.158 73.3968C185.709 73.6592 185.473 74.7843 185.462 74.8725C185.287 75.0832 184.8 75.1397 184.8 74.9496Z" fill="#10C2DD" stroke="#10C2DD"/>
<path d="M172.045 73.5243C171.939 73.2493 172.216 72.9624 172.404 73.1512C172.557 73.3037 172.442 73.7333 172.248 73.7333C172.181 73.7333 172.089 73.6392 172.045 73.5243Z" fill="#10C2DD" stroke="#10C2DD"/>
<path d="M225.766 100.233C225.796 100.142 225.946 100.004 226.099 99.9269C226.251 99.8501 226.637 99.4712 226.955 99.0848C227.273 98.6987 227.791 98.0717 228.107 97.6912C228.608 97.0872 229.333 95.8187 229.333 95.5467C229.333 95.4949 229.483 95.2317 229.667 94.9621C229.85 94.6923 230 94.3925 230 94.296C230 94.1995 230.12 93.8723 230.267 93.5685C230.413 93.2648 230.533 92.9408 230.533 92.8483C230.533 92.7557 230.616 92.632 230.717 92.5733C230.818 92.5147 230.934 92.2565 230.975 92C231.017 91.7435 231.117 91.18 231.197 90.748C231.277 90.316 231.363 89.7917 231.387 89.5829C231.444 89.0944 231.726 88.7397 231.911 88.9245C232.003 89.0168 231.975 89.1397 231.823 89.3072C231.676 89.4707 231.6 89.7853 231.6 90.236C231.6 90.6109 231.534 90.9584 231.453 91.0083C231.371 91.0589 231.339 91.2635 231.381 91.4712C231.429 91.7128 231.386 91.9008 231.258 92.0072C231.182 92.2635 230.893 93.1301 230.8 93.2123C230.8 93.3477 230.679 93.6744 230.531 93.9379C230.383 94.2013 230.294 94.4693 230.333 94.5328C230.372 94.5963 230.249 94.8776 230.059 95.1576C229.869 95.4373 229.681 95.8275 229.642 96.024C229.603 96.2205 229.427 96.516 229.252 96.6805C229.077 96.8451 228.933 97.0488 228.933 97.1333C228.933 97.2179 228.783 97.4277 228.6 97.6C228.417 97.7723 228.267 97.9872 228.267 98.0779C228.267 98.2632 226.03 100.4 225.836 100.4C225.767 100.4 225.736 100.325 225.766 100.233Z" fill="#10C2DD" stroke="#10C2DD"/>
<path d="M168.786 109.55C168.892 109.422 169.072 109.359 169.208 109.402C169.338 109.444 169.481 109.419 169.525 109.347C169.674 109.106 170.392 108.813 170.482 108.958C170.655 109.239 170.034 109.636 169.311 109.705C168.658 109.768 168.615 109.755 168.786 109.55Z" fill="#10C2DD" stroke="#10C2DD"/>
<path d="M175.733 114.067C175.825 113.957 175.958 113.867 176.029 113.867C176.1 113.867 176.858 113.161 177.713 112.299C179.253 110.745 180.328 109.374 180.616 108.596C180.862 107.931 181.451 106.826 181.612 106.726C181.822 106.596 181.628 107.198 181.363 107.501C181.25 107.63 181.19 107.768 181.23 107.808C181.27 107.849 181.162 108.133 180.99 108.441C180.818 108.748 180.557 109.245 180.411 109.545C180.266 109.845 180.054 110.167 179.94 110.261C179.826 110.355 179.733 110.504 179.733 110.59C179.733 110.758 176.984 113.459 176.297 113.967C175.819 114.32 175.472 114.382 175.733 114.067Z" fill="#10C2DD" stroke="#10C2DD"/>
<path d="M172.582 75.1333C172.539 75.0232 172.543 74.8328 172.591 74.7096C172.667 74.5109 172.699 74.5083 172.877 74.6859C172.989 74.7981 173.039 74.984 172.991 75.1096C172.884 75.3872 172.683 75.3989 172.582 75.1333Z" fill="#10C2DD" stroke="#10C2DD"/>
<path d="M245.465 80.664C245.234 80.2309 245.454 80.0744 245.815 80.4147C246.055 80.6392 246.094 80.7429 245.968 80.8224C245.711 80.9853 245.622 80.9571 245.465 80.664Z" fill="#10C2DD" stroke="#10C2DD"/>
<path d="M180.862 86.5251C180.813 86.4469 180.871 86.2757 181.199 85.4005C181.37 85.2949 181.636 84.7147 181.957 83.6459C181.847 83.536 182.109 83.0667 182.28 83.0667C182.355 83.0667 182.401 83.1717 182.381 83.3C182.362 83.4283 182.391 83.704 182.445 83.9128C182.504 84.1349 182.487 84.3621 182.405 84.4611C182.258 84.6376 181.953 86.0296 181.972 86.4333C181.978 86.5616 181.93 86.6667 181.865 86.6667C181.8 86.6667 181.683 86.5616 181.607 86.4333C181.473 86.2109 181.46 86.2109 181.327 86.4333C181.168 86.6981 180.99 86.7331 180.862 86.5251Z" fill="#10C2DD" stroke="#10C2DD"/>
<path d="M184.102 77.6277C184.014 77.2915 184.295 76.8531 184.513 76.9875C184.726 77.1192 184.706 77.2552 184.421 77.6069L184.176 77.9101L184.102 77.6277Z" fill="#10C2DD" stroke="#10C2DD"/>
<path d="M175.785 83.9293C175.663 83.7435 175.603 83.5525 175.65 83.5051C175.698 83.4576 175.578 83.2531 175.385 83.0507C174.99 82.6389 175.031 82.2667 175.471 82.2667C175.741 83.2781 175.953 83.2781 175.964 83.6352C176.172 83.9032 176.268 84.2667 176.132 84.2667C176.063 84.2667 175.907 84.1147 175.785 83.9293Z" fill="#10C2DD" stroke="#10C2DD"/>
<path d="M173.812 78.7064C173.592 78.0531 173.513 77.6333 173.595 77.552C173.781 77.3661 174.155 77.7216 174.067 78C174.196 78.3661 174.543 79.4579 174.578 79.5429C174.411 79.9768 174.139 79.6795 173.812 78.7064Z" fill="#10C2DD" stroke="#10C2DD"/>
<path d="M179.532 90.8181C179.539 90.5296 179.621 90.2027 179.713 90.0917C179.805 89.9803 179.862 89.7256 179.84 89.5256C179.784 89.0147 180.089 88.9632 180.2 89.4651C180.259 89.7333 180.228 89.9528 180.112 90.0928C180.014 90.2112 179.933 90.5224 179.933 90.7843C179.933 91.1085 179.867 91.2736 179.726 91.3019C179.565 91.3339 179.522 91.2259 179.532 90.8181Z" fill="#10C2DD" stroke="#10C2DD"/>
<path d="M174.805 81.0755C174.729 80.9336 174.667 80.6861 174.667 80.5256C174.667 80.0917 175.022 80.4323 175.096 80.9376C175.162 81.3875 175.01 81.4595 174.805 81.0755Z" fill="#10C2DD" stroke="#10C2DD"/>
<path d="M184.595 75.8589C184.542 75.7733 184.582 75.6512 184.683 75.5872C184.965 75.4088 185.091 75.4443 185.043 75.6891C184.99 75.9656 184.723 76.0667 184.595 75.8589Z" fill="#10C2DD" stroke="#10C2DD"/>
<path d="M178.359 91.8949C178.229 91.7509 178.174 91.5403 178.221 91.3621C178.265 91.1936 178.205 90.9261 178.082 90.7384C177.82 90.3379 177.805 89.9499 178.046 89.7507C178.292 89.5461 178.401 89.6963 178.315 90.1232C178.269 90.3552 178.316 90.5416 178.45 90.6525C178.586 90.7653 178.63 90.9491 178.581 91.1949C178.525 91.4744 178.576 91.6147 178.786 91.7616C178.939 91.8693 179.025 91.9968 178.977 92.0453C178.823 92.1995 178.581 92.1405 178.359 91.8949Z" fill="#10C2DD" stroke="#10C2DD"/>
<path d="M182.74 81.5768C182.769 81.3437 182.855 81.0917 182.931 81.016C183.052 80.8949 183.057 81.1685 182.948 81.9C182.94 81.9549 182.878 82 182.81 82C182.742 82 182.71 81.8096 182.74 81.5768Z" fill="#10C2DD" stroke="#10C2DD"/>
<path d="M173.25 77.1C173.209 76.9717 173.116 76.7072 173.043 76.5128C172.886 76.0917 172.945 75.5056 173.399 76.2667C173.799 76.8685 173.876 77.1117 173.704 77.2211C173.444 77.3859 173.332 77.3557 173.25 77.1Z" fill="#10C2DD" stroke="#10C2DD"/>
<path d="M236.319 99.6557C236.364 99.5397 236.4 98.0899 236.4 96.4336C236.4 94.7773 236.436 93.4579 236.479 93.5013C236.523 93.5451 236.551 94.6981 236.543 96.064C236.53 98.0952 236.567 98.6296 236.742 99C236.953 99.4429 236.905 99.8139 236.658 99.6608C236.589 99.6187 236.533 99.648 236.533 99.7256C236.533 99.8032 236.467 99.8667 236.386 99.8667C236.305 99.8667 236.274 99.7717 236.319 99.6557Z" fill="#1DAEDB" stroke="#1DAEDB"/>
<path d="M143.176 102.17C143.101 102.081 142.924 102.021 142.782 102.037C142.532 102.066 142.523 101.957 142.52 99.0813C142.518 97.1507 142.567 96.0461 142.659 95.9547C142.755 95.8576 142.8 92.9435 142.8 86.684C142.8 78.3757 142.78 77.5325 142.579 77.3104C142.374 77.0835 142.374 77.0499 142.579 76.8229C142.748 76.6363 142.8 76.3133 142.8 75.4493C142.8 74.8195 142.737 74.2565 142.656 74.1763C142.559 74.0787 142.517 72.6315 142.528 69.6693C142.539 66.4848 142.501 65.2547 142.386 65.116C142.253 64.956 141.289 64.9275 136.362 64.9376L130.496 64.9493L130.523 62.8653C130.542 61.4096 130.502 60.7235 130.391 60.5893C130.19 60.3475 130.175 58.0381 130.373 57.8403C130.464 57.7493 131.356 57.708 132.867 57.724C134.387 57.74 135.282 57.6984 135.393 57.6059C135.628 57.4109 159.056 57.4029 159.251 57.5979C159.442 57.7888 160.537 57.7667 160.79 57.5667C160.937 57.4496 161.444 57.4125 162.49 57.4413L163.979 57.4829L164.118 57.8813C164.211 58.1477 164.215 58.5043 164.129 58.9581C163.965 59.8189 163.964 60.7499 164.125 61.0509C164.199 61.1883 164.207 61.7192 164.145 62.3421C164.087 62.924 164.091 63.5392 164.154 63.7093C164.216 63.8795 164.231 64.1643 164.186 64.3427L164.104 64.6667H157.802C152.319 64.6667 151.477 64.6931 151.331 64.8699C151.202 65.0253 151.182 65.6093 151.249 67.3699C151.297 68.6331 151.326 70.2365 151.315 70.9333C151.303 71.6301 151.288 72.62 151.28 73.1333C151.271 73.7581 151.341 74.2213 151.491 74.5347C151.67 74.9088 151.695 75.1763 151.613 75.868C151.431 77.3952 151.534 86.3979 151.739 86.9651C151.904 87.4224 151.896 87.4851 151.635 87.764C151.363 88.0552 151.317 88.3885 151.335 89.9333C151.337 90.08 151.304 91.0312 151.261 92.0472C151.194 93.6616 151.212 93.9256 151.409 94.1424C151.566 94.3171 151.606 94.5008 151.541 94.7621C151.425 95.232 151.423 95.4219 151.528 96C151.574 96.2565 151.625 97.6859 151.64 99.1763C151.663 101.547 151.639 101.911 151.446 102.085C151.3 102.218 151.197 102.237 151.139 102.142C151.024 101.956 149.031 101.956 148.845 102.142C148.631 102.356 143.351 102.383 143.176 102.17Z" fill="#07B7DE" stroke="#07B7DE"/>
<path d="M277.027 102.953C276.929 102.834 276.706 102.795 276.378 102.839C276.032 102.886 275.826 102.845 275.713 102.709C275.619 102.596 275.415 102.538 275.235 102.572C274.914 102.633 272.882 101.702 272.415 101.28C272.285 101.163 272.122 101.067 272.051 101.067C271.875 101.067 270.667 99.8256 270.667 99.6451C270.667 99.5648 270.579 99.4269 270.473 99.3387C270.2 99.1123 269.592 97.8544 269.683 97.7061C269.59 97.5525 269.286 96.5181 269.289 96.552C269.156 96.4416 269.12 96.2179 269.167 95.7987C269.207 95.4419 269.172 95.1267 269.079 95.0147C268.963 94.8752 268.925 92.3611 268.931 85.232C268.937 77.0115 268.911 75.6139 268.745 75.4765C268.609 75.364 267.925 75.3243 266.443 75.3435C264.454 75.3688 264.333 75.356 264.333 75.1187C264.333 74.98 264.284 74.7907 264.224 74.6976C264.063 74.448 264.087 69.4597 264.25 69.2963C264.333 69.2139 265.154 69.1717 266.342 69.1893C268.213 69.2168 268.311 69.2048 268.62 68.9141L268.943 68.6107L268.927 64.472L268.911 60.3333L269.697 60.3776C270.26 60.4091 270.528 60.3672 270.641 60.2304C270.754 60.0949 270.986 60.0571 271.438 60.1005C271.895 60.1445 272.123 60.1064 272.238 59.9672C272.354 59.828 272.582 59.7901 273.038 59.8339C273.503 59.8784 273.722 59.8403 273.844 59.6941C273.96 59.5544 274.163 59.5139 274.511 59.5605C274.853 59.6064 275.062 59.5664 275.172 59.4333C275.287 59.2947 275.516 59.2568 275.972 59.3005C276.451 59.3464 276.655 59.3083 276.788 59.1477C277.043 58.8408 277.153 58.8787 277.391 59.3555C277.578 59.7315 277.58 59.8016 277.401 59.9992C277.116 60.3144 277.101 66.6845 277.384 66.9203C277.606 67.1045 277.594 67.7931 277.365 68.0221C277.143 68.244 277.156 68.864 277.386 69.0552C277.52 69.1664 278.84 69.2056 282.086 69.1947L286.6 69.1795L286.612 69.5565C286.619 69.7637 286.569 70.0059 286.501 70.0941C286.433 70.1827 286.417 70.3197 286.466 70.3989C286.606 70.6256 286.57 74.8165 286.427 74.9597C286.35 75.0371 284.607 75.0819 282.041 75.0725C277.07 75.0544 277.359 74.9691 277.201 76.4987C277.15 76.9944 277.05 77.5499 276.978 77.7333C276.899 77.9331 276.867 79.3757 276.898 81.3333C276.926 83.1301 276.961 86.4685 276.975 88.7525C276.997 92.3656 277.028 92.9373 277.499 93.9744C277.606 94.0987 277.732 94.3088 278.091 94.6275C277.978 94.8109 279.116 95.9475 279.682 96.2163C279.955 96.3456 280.293 96.4013 280.524 96.3552C280.778 96.3045 280.965 96.3443 281.071 96.4723C281.258 96.6976 281.943 96.7333 282.708 96.4411C282.791 96.3899 283.374 96.3643 284.004 96.3843C284.853 96.4109 285.19 96.3725 285.303 96.2363C285.392 96.1288 285.685 96.0576 286.004 96.0656L286.552 96.0795L286.552 98.6064C286.551 99.9963 286.508 101.253 286.455 101.4C286.296 101.842 285.97 102.142 285.73 102.066C285.606 102.026 285.431 102.083 285.341 102.191C285.236 102.317 285.046 102.363 284.814 102.316C284.578 102.269 284.393 102.315 284.281 102.449C284.17 102.584 283.984 102.63 283.747 102.583C283.517 102.537 283.326 102.581 283.223 102.705C283.108 102.844 282.891 102.881 282.465 102.833C282.1 102.792 281.794 102.828 281.675 102.926C281.381 103.171 277.228 103.194 277.027 102.953Z" fill="#00B3D9" stroke="#00B3D9"/>
</svg>
