<svg width="120" height="60" viewBox="0 0 120 60" fill="none" xmlns="http://www.w3.org/2000/svg">
<path d="M60.0001 7C72.7022 7 83 17.2976 83 30.0007C83 42.7029 72.7022 53 60.0001 53C47.2974 53 37 42.7029 37 30.0007C37 17.2976 47.2975 7 60.0001 7Z" stroke="white" stroke-width="2"/>
<path fill-rule="evenodd" clip-rule="evenodd" d="M67.0472 7.05124L60.0006 15.7218L52.9539 7.0511C55.182 6.36775 57.5483 6 60.0004 6C62.4526 6 64.8189 6.3678 67.0472 7.05124ZM72.807 31.0661L59.7717 44.1533L46.7363 31.0661H52.6827V20.235L60.1208 29.2607L67.3189 20.235V31.0661H72.807Z" fill="white"/>
</svg>
