<?xml version="1.0" encoding="UTF-8" standalone="no"?>
<!DOCTYPE svg PUBLIC "-//W3C//DTD SVG 1.1//EN" "http://www.w3.org/Graphics/SVG/1.1/DTD/svg11.dtd">
<svg width="100%" height="100%" viewBox="0 0 102 36" version="1.1" xmlns="http://www.w3.org/2000/svg" xmlns:xlink="http://www.w3.org/1999/xlink" xml:space="preserve" xmlns:serif="http://www.serif.com/" style="fill-rule:evenodd;clip-rule:evenodd;stroke-linejoin:round;stroke-miterlimit:2;">
    <g transform="matrix(1,0,0,1,-12.888986,12.323064)">
        <path d="M20.721,-7.949L20.721,10.403C20.721,10.948 20.911,11.173 21.372,11.173L22.294,11.173C22.755,11.173 22.945,10.948 22.945,10.403L22.945,-7.949L28.18,-7.949C28.641,-7.949 28.777,-8.141 28.777,-8.687L28.777,-9.585C28.777,-10.131 28.641,-10.323 28.18,-10.323L15.486,-10.323C15.025,-10.323 14.889,-10.131 14.889,-9.585L14.889,-8.687C14.889,-8.141 15.025,-7.949 15.486,-7.949L20.721,-7.949Z" style="fill-rule:nonzero;"/>
        <path d="M34.481,-4.997C33.45,-4.997 32.989,-4.805 32.012,-3.842L29.598,-1.5C28.839,-0.762 28.649,-0.409 28.649,0.97L28.649,4.114C28.649,6.521 29.273,8.029 30.331,9.248C31.551,10.627 33.342,11.301 35.376,11.301C36.651,11.301 38.36,11.012 39.363,10.531C39.607,10.403 39.662,10.274 39.662,9.954L39.662,8.767C39.662,8.446 39.553,8.253 39.228,8.349C38.034,8.767 36.624,8.991 35.376,8.991C33.938,8.991 32.691,8.478 31.877,7.515C31.009,6.489 30.71,5.237 30.71,3.312L30.71,1.099C30.71,0.585 30.765,0.425 31.063,0.136L33.477,-2.206C33.857,-2.559 34.074,-2.687 34.644,-2.687C37.193,-2.687 38.956,-0.794 38.956,2.061L38.956,2.189L33.179,2.189C32.826,2.189 32.718,2.35 32.718,2.767L32.718,3.794C32.718,4.211 32.826,4.371 33.179,4.371L39.906,4.371C40.774,4.371 41.018,4.018 41.018,3.024L41.018,2.189C41.018,-0.217 40.394,-1.725 39.336,-2.944C38.116,-4.323 36.298,-4.997 34.698,-4.997L34.481,-4.997Z" style="fill-rule:nonzero;"/>
        <path d="M45.834,-4.452C45.617,-4.805 45.536,-4.869 45.102,-4.869L43.772,-4.869C43.42,-4.869 43.311,-4.58 43.555,-4.195L47.787,2.863L43.366,10.499C43.149,10.884 43.23,11.173 43.555,11.173L44.803,11.173C45.237,11.173 45.319,11.077 45.508,10.756L49.035,4.596L52.778,10.756C52.968,11.077 53.076,11.173 53.483,11.173L54.867,11.173C55.165,11.173 55.301,10.884 55.056,10.499L50.364,2.799L54.405,-4.195C54.622,-4.58 54.541,-4.869 54.216,-4.869L52.968,-4.869C52.534,-4.869 52.452,-4.773 52.263,-4.452L49.116,1.067L45.834,-4.452Z" style="fill-rule:nonzero;"/>
        <path d="M62.033,-2.719L67.283,-2.719C67.738,-2.719 67.913,-2.912 67.913,-3.329L67.913,-4.259C67.913,-4.676 67.738,-4.869 67.283,-4.869L62.033,-4.869L62.033,-7.885C62.033,-8.43 61.858,-8.591 61.263,-8.591L60.143,-8.591C59.548,-8.591 59.373,-8.43 59.373,-7.885L59.373,-4.869L57.483,-4.869C57.028,-4.869 56.853,-4.676 56.853,-4.259L56.853,-3.329C56.853,-2.912 57.028,-2.719 57.483,-2.719L59.373,-2.719L59.373,4.852C59.373,7.227 59.863,8.446 61.053,9.633C62.173,10.724 63.923,11.301 65.918,11.301C66.793,11.301 67.913,11.205 68.718,11.012C69.103,10.916 69.243,10.756 69.243,10.371L69.243,9.312C69.243,8.927 69.068,8.767 68.648,8.831C67.983,8.927 67.003,9.023 66.338,9.023C64.938,9.023 63.853,8.702 63.153,8.061C62.313,7.291 62.033,6.328 62.033,4.211L62.033,-2.719Z" style="fill-rule:nonzero;"/>
    </g>
    <g transform="matrix(1,0,0,1,30.101514,22.827231)">
        <path d="M23.922,11.301C25.576,11.301 27.285,10.948 28.668,10.371C28.967,10.242 29.048,10.082 29.048,9.761L29.048,8.221C29.048,7.9 28.913,7.772 28.587,7.868C26.905,8.478 25.468,8.734 23.867,8.734C22.104,8.734 20.585,8.061 19.663,6.938C18.497,5.526 18.144,4.05 18.144,1.419L18.144,-3.297C18.144,-3.906 18.225,-4.163 18.632,-4.58L21.426,-7.275C21.969,-7.788 22.267,-7.917 22.918,-7.917L22.945,-7.917C24.057,-7.917 25.034,-7.596 25.766,-7.115C26.526,-6.601 27.068,-5.928 27.611,-4.965C27.828,-4.58 28.017,-4.516 28.37,-4.676L29.211,-5.126C29.591,-5.318 29.645,-5.575 29.482,-5.992C28.858,-7.436 27.99,-8.526 26.905,-9.296C25.793,-10.066 24.491,-10.451 22.864,-10.451L22.809,-10.451C21.589,-10.451 20.992,-10.195 19.988,-9.232L17.005,-6.345C16.137,-5.511 15.92,-5.029 15.92,-3.457L15.92,2.574C15.92,5.366 16.652,7.323 17.873,8.734C19.31,10.403 21.209,11.301 23.922,11.301Z" style="fill:rgb(0,60,134);fill-rule:nonzero;"/>
        <path d="M34.907,-4.163C34.907,-4.708 34.772,-4.869 34.31,-4.869L33.442,-4.869C32.981,-4.869 32.846,-4.708 32.846,-4.163L32.846,4.114C32.846,6.521 33.47,8.029 34.527,9.248C35.748,10.627 37.565,11.301 39.166,11.301L39.193,11.301C40.224,11.301 40.658,11.109 41.634,10.146L44.048,7.804C44.808,7.066 44.998,6.713 44.998,5.334L44.998,-4.163C44.998,-4.708 44.862,-4.869 44.401,-4.869L43.533,-4.869C43.072,-4.869 42.936,-4.708 42.936,-4.163L42.936,5.173C42.936,5.687 42.882,5.847 42.584,6.136L40.169,8.478C39.79,8.831 39.573,8.927 39.193,8.927C38.108,8.927 36.86,8.414 36.074,7.483C35.206,6.457 34.907,5.205 34.907,3.28L34.907,-4.163Z" style="fill:rgb(0,60,134);fill-rule:nonzero;"/>
        <path d="M50.667,2.093C50.667,-0.024 50.884,-0.987 51.535,-1.757C52.077,-2.398 52.918,-2.719 54.003,-2.719C54.464,-2.719 55.332,-2.655 55.793,-2.623C56.146,-2.591 56.255,-2.751 56.255,-3.104L56.255,-4.099C56.255,-4.516 56.146,-4.644 55.848,-4.741C55.251,-4.901 54.41,-4.997 53.678,-4.997C52.132,-4.997 50.775,-4.42 49.907,-3.329C48.985,-2.142 48.605,-0.923 48.605,1.452L48.605,10.467C48.605,11.012 48.741,11.173 49.202,11.173L50.07,11.173C50.531,11.173 50.667,11.012 50.667,10.467L50.667,2.093Z" style="fill:rgb(0,60,134);fill-rule:nonzero;"/>
        <path d="M63.361,-4.997C62.331,-4.997 61.869,-4.805 60.893,-3.842L58.479,-1.5C57.719,-0.762 57.529,-0.409 57.529,0.97L57.529,4.114C57.529,6.521 58.153,8.029 59.211,9.248C60.432,10.627 62.222,11.301 64.256,11.301C65.531,11.301 67.24,11.012 68.244,10.531C68.488,10.403 68.542,10.274 68.542,9.954L68.542,8.767C68.542,8.446 68.434,8.253 68.108,8.349C66.915,8.767 65.504,8.991 64.256,8.991C62.819,8.991 61.571,8.478 60.757,7.515C59.889,6.489 59.591,5.237 59.591,3.312L59.591,1.099C59.591,0.585 59.645,0.425 59.944,0.136L62.358,-2.206C62.737,-2.559 62.954,-2.687 63.524,-2.687C66.074,-2.687 67.837,-0.794 67.837,2.061L67.837,2.189L62.059,2.189C61.707,2.189 61.598,2.35 61.598,2.767L61.598,3.794C61.598,4.211 61.707,4.371 62.059,4.371L68.786,4.371C69.654,4.371 69.898,4.018 69.898,3.024L69.898,2.189C69.898,-0.217 69.275,-1.725 68.217,-2.944C66.996,-4.323 65.179,-4.997 63.578,-4.997L63.361,-4.997Z" style="fill:rgb(0,60,134);fill-rule:nonzero;"/>
    </g>
</svg>
