<?xml version="1.0" standalone="yes"?>
<svg xmlns="http://www.w3.org/2000/svg" width="512" height="512">
<path style="fill:#1b1934; stroke:none;" d="M0 0L0 100L1 100C9.68304 85.2983 36.1576 91 51 91C51 80.7721 47.4912 63.1678 55.3295 55.3295C63.1678 47.4911 80.7721 51 91 51C91 36.1576 85.2983 9.68311 100 1L69 0L0 0z"/>
<path style="fill:#5f55af; stroke:none;" d="M91 51L121 51C121 39.1939 125.173 17.4906 119.427 7.04013C113.909 -2.99658 96.847 -2.48438 92.0895 8.03937C87.1402 18.9874 91 39.0354 91 51z"/>
<path style="fill:#1b1934; stroke:none;" d="M112 0L112 1C126.702 9.68311 121 36.1576 121 51L151 51C151 36.1575 145.298 9.68314 160 1C147.586 -4.20923 125.526 0 112 0z"/>
<path style="fill:#5f55af; stroke:none;" d="M151 51L181 51C181 39.1939 185.173 17.4906 179.427 7.04013C173.909 -2.99664 156.847 -2.48438 152.09 8.03937C147.14 18.9875 151 39.0354 151 51z"/>
<path style="fill:#1b1934; stroke:none;" d="M172 0L172 1C186.702 9.68314 181 36.1575 181 51L211 51C211 36.1576 205.298 9.68311 220 1C207.586 -4.20923 185.526 0 172 0z"/>
<path style="fill:#5f55af; stroke:none;" d="M211 51L241 51C241 39.1939 245.173 17.4906 239.427 7.04013C233.909 -2.99658 216.847 -2.48438 212.09 8.03937C207.14 18.9875 211 39.0354 211 51z"/>
<path style="fill:#1b1934; stroke:none;" d="M232 0L232 1C246.702 9.68314 241 36.1575 241 51L399 51L438 51C444.238 51 450.747 50.1416 455.815 54.5332C462.852 60.6313 461 70.6557 461 79L461 142L461 377L461 434C461 442.127 462.662 451.533 455.815 457.467C450.747 461.858 444.238 461 438 461L399 461L241 461C241 475.842 246.702 502.317 232 511L232 512L512 512L512 0L232 0z"/>
<path style="fill:#5f55af; stroke:none;" d="M280 0L281 1L280 0M291 0L292 1L291 0M340 0L341 1L340 0M351 0L352 1L351 0M400 0L401 1L400 0M411 0L412 1L411 0z"/>
<path style="fill:#01019d; stroke:none;" d="M95 3L96 4L95 3M155 3L156 4L155 3M215 3L216 4L215 3M296 3L298 5L296 3M356 3L358 5L356 3M416 3L418 5L416 3M274 4L275 5L274 4M334 4L335 5L334 4M394 4L395 5L394 4z"/>
<path style="fill:#5f55af; stroke:none;" d="M271 9L272 10L271 9M300 9L301 10L300 9M331 9L332 10L331 9M360 9L361 10L360 9M391 9L392 10L391 9M420 9L421 10L420 9z"/>
<path style="fill:#96abf4; stroke:none;" d="M60 51.7423C49.4808 55.7675 51 66.9465 51 76L51 143L51 369L51 429C51 436.143 48.8085 447.739 52.7423 453.995C58.318 462.863 69.0111 461 78 461L145 461L363 461L425 461C433.17 461 445.419 463.263 452.985 459.91C462.683 455.613 461 444.695 461 436L461 370L461 139L461 80C461 72.7368 462.973 62.2637 458.196 56.1852C452.405 48.8162 441.264 51 433 51L365 51L151 51L88 51C79.7772 51 67.7328 48.7833 60 51.7423z"/>
<path style="fill:#eeecf7; stroke:none;" d="M55 54L56 55L55 54M54 55L55 56L54 55z"/>
<path style="fill:#5f55af; stroke:none;" d="M51 121L51 91C39.1306 91 18.811 87.0819 8.01466 92.1396C-2.8988 97.2523 -2.8988 114.748 8.01466 119.86C18.811 124.918 39.1306 121 51 121M502 91L503 92L502 91z"/>
<path style="fill:#01019d; stroke:none;" d="M4 94L5 95L4 94M507 94L509 96L507 94z"/>
<path style="fill:#5f55af; stroke:none;" d="M511 100L512 101L511 100M256 401L256 302L221 302C216.813 302 210.249 300.769 206.394 302.603C195.429 307.819 200.152 336.103 180 330.427C160.557 324.95 172.103 303.758 176.576 292C184.817 270.336 193.275 248.737 201.319 227C205.681 215.211 209.096 200.548 215.969 190.004C232.82 164.155 251.168 196.83 255 213L256 213L256 111L155 111C144.188 111 125.124 107.32 116.329 114.8C110.582 119.689 111 127.165 111 134L111 177L111 340L111 379C111 385.553 110.855 392.544 116.329 397.2C125.123 404.68 144.188 401 155 401L256 401z"/>
<path style="fill:#1b1934; stroke:none;" d="M256 111L256 180C256 191.031 254.018 204.279 256.761 215C263.003 239.397 274.936 263.368 283.681 287C286.855 295.576 293.761 306.713 293.515 316C293.208 327.592 279.694 335.195 270.015 328.347C262.542 323.06 259.027 310.552 257 302L256 302L256 401L357 401C367.956 401 387.126 404.704 395.811 396.657C401.163 391.697 401 384.724 401 378L401 339L401 177L401 135C401 128.077 401.477 120.461 395.811 115.394C386.897 107.423 368.05 111 357 111L256 111z"/>
<path style="fill:#5f55af; stroke:none;" d="M387 111L387 112L391 112L387 111z"/>
<path style="fill:#01019d; stroke:none;" d="M511 111L512 112L511 111z"/>
<path style="fill:#1b1934; stroke:none;" d="M0 112L0 160L1 160C9.68305 145.298 36.1576 151 51 151L51 121C33.1865 121 13.1758 125.427 0 112z"/>
<path style="fill:#5f55af; stroke:none;" d="M391.667 112.333L392.333 112.667L391.667 112.333M393.667 113.333L394.333 113.667L393.667 113.333M395 114L396 115L395 114M396 115L397 116L396 115M397 116L398 117L397 116z"/>
<path style="fill:#01019d; stroke:none;" d="M508 116L507 118L508 116M4 117L5 118L4 117z"/>
<path style="fill:#5f55af; stroke:none;" d="M398 117L400 120L398 117M504 119L505 120L504 119z"/>
<path style="fill:#01019d; stroke:none;" d="M502 120L503 121L502 120z"/>
<path style="fill:#5f55af; stroke:none;" d="M400 121L400 124L401 124L400 121M51 181L51 151C39.1306 151 18.811 147.082 8.01466 152.14C-2.8988 157.252 -2.8988 174.748 8.01466 179.86C18.811 184.918 39.1306 181 51 181M502 151L503 152L502 151z"/>
<path style="fill:#01019d; stroke:none;" d="M4 154L5 155L4 154M507 154L509 156L507 154z"/>
<path style="fill:#5f55af; stroke:none;" d="M511 160L512 161L511 160z"/>
<path style="fill:#01019d; stroke:none;" d="M511 171L512 172L511 171z"/>
<path style="fill:#1b1934; stroke:none;" d="M0 172L0 220L1 220C9.68305 205.298 36.1576 211 51 211L51 181C33.1865 181 13.1758 185.427 0 172z"/>
<path style="fill:#01019d; stroke:none;" d="M508 176L507 178L508 176M4 177L5 178L4 177z"/>
<path style="fill:#5f55af; stroke:none;" d="M504 179L505 180L504 179z"/>
<path style="fill:#01019d; stroke:none;" d="M502 180L503 181L502 180z"/>
<path style="fill:#96abf4; stroke:none;" d="M226.667 181.333L227.333 181.667L226.667 181.333z"/>
<path style="fill:#eeecf7; stroke:none;" d="M228 181.472C215.551 183.737 212.397 197.87 208.576 208C198.254 235.367 187.463 262.567 177.319 290C173.712 299.753 164.187 314.976 171.653 324.906C176.606 331.495 186.521 332.564 192.895 327.431C200.523 321.29 198.619 308.702 205.51 302.603C208.342 300.096 213.517 301 217 301C226.635 301 246.466 297.203 254.867 302.028C266.327 308.61 261.072 335.838 282 330.441C299.348 325.968 290.96 306.918 286.808 296C275.41 266.028 264.523 235.845 252.797 206C248.283 194.511 243.917 178.577 228 181.472z"/>
<path style="fill:#96abf4; stroke:none;" d="M234.667 181.333L235.333 181.667L234.667 181.333z"/>
<path style="fill:#5f55af; stroke:none;" d="M323.667 181.333L324.333 181.667L323.667 181.333z"/>
<path style="fill:#96abf4; stroke:none;" d="M325.667 181.333L326.333 181.667L325.667 181.333z"/>
<path style="fill:#eeecf7; stroke:none;" d="M327 181.559C311.743 183.368 314 199.812 314 211L314 303C314 314.139 313.297 332.368 330 330.442C345.284 328.68 343 312.232 343 301L343 209C343 197.82 343.746 179.573 327 181.559z"/>
<path style="fill:#96abf4; stroke:none;" d="M330.667 181.333L331.333 181.667L330.667 181.333z"/>
<path style="fill:#5f55af; stroke:none;" d="M332.667 181.333L333.333 181.667L332.667 181.333z"/>
<path style="fill:#96abf4; stroke:none;" d="M223 182L224 183L223 182M238 182L239 183L238 182z"/>
<path style="fill:#5f55af; stroke:none;" d="M321 182L322 183L321 182z"/>
<path style="fill:#96abf4; stroke:none;" d="M322 182L323 183L322 182M334 182L335 183L334 182z"/>
<path style="fill:#5f55af; stroke:none;" d="M335 182L336 183L335 182z"/>
<path style="fill:#96abf4; stroke:none;" d="M240 183L241 184L240 183z"/>
<path style="fill:#5f55af; stroke:none;" d="M319 183L318 185L319 183z"/>
<path style="fill:#96abf4; stroke:none;" d="M320 183L321 184L320 183M336 183L337 184L336 183z"/>
<path style="fill:#5f55af; stroke:none;" d="M337 183L338 184L337 183z"/>
<path style="fill:#96abf4; stroke:none;" d="M220 184L221 185L220 184M241 184L242 185L241 184M319 184L320 185L319 184z"/>
<path style="fill:#5f55af; stroke:none;" d="M338 184L339 185L338 184z"/>
<path style="fill:#96abf4; stroke:none;" d="M219 185L220 186L219 185z"/>
<path style="fill:#5f55af; stroke:none;" d="M317 185L318 186L317 185M339 185L340 186L339 185z"/>
<path style="fill:#96abf4; stroke:none;" d="M218 186L219 187L218 186z"/>
<path style="fill:#5f55af; stroke:none;" d="M316 186L317 187L316 186M340 186L341 187L340 186z"/>
<path style="fill:#96abf4; stroke:none;" d="M217 187L218 188L217 187M316 187L317 188L316 187M340 187L341 188L340 187M216 188L217 189L216 188M245 188L246 189L245 188z"/>
<path style="fill:#5f55af; stroke:none;" d="M315 188L316 189L315 188M341 188L342 189L341 188M314.333 189.667L314.667 190.333L314.333 189.667M342.333 189.667L342.667 190.333L342.333 189.667z"/>
<path style="fill:#96abf4; stroke:none;" d="M215 190L216 191L215 190M314 191L315 192L314 191M342 191L343 192L342 191M214 192L215 193L214 192M247 192L248 193L247 192z"/>
<path style="fill:#5f55af; stroke:none;" d="M313 192L313 195L314 195L313 192M343 192L343 195L344 195L343 192z"/>
<path style="fill:#96abf4; stroke:none;" d="M213.333 194.667L213.667 195.333L213.333 194.667M248 194L249 195L248 194M313 195L313 317L314 317L314 232C314 221.366 317.108 204.789 313 195M343 195L343 317L344 317L344 232C344 221.366 347.108 204.789 343 195M212 197L213 198L212 197M249 197L250 198L249 197M250.333 199.667L250.667 200.333L250.333 199.667M211 200L212 201L211 200M210 202L211 203L210 202M251 202L252 203L251 202M209 205L210 206L209 205M252 205L253 206L252 205M253 207L254 208L253 207M208 208L209 209L208 208M207 210L208 211L207 210M254 210L255 211L254 210z"/>
<path style="fill:#5f55af; stroke:none;" d="M51 241L51 211C39.1306 211 18.811 207.082 8.01466 212.14C-2.89881 217.252 -2.8988 234.748 8.01466 239.86C18.811 244.918 39.1306 241 51 241M502 211L503 212L502 211z"/>
<path style="fill:#96abf4; stroke:none;" d="M206 213L207 214L206 213M255 213L256 214L255 213z"/>
<path style="fill:#01019d; stroke:none;" d="M4 214L5 215L4 214z"/>
<path style="fill:#5f55af; stroke:none;" d="M256 214L257 215L256 214z"/>
<path style="fill:#01019d; stroke:none;" d="M507 214L509 216L507 214z"/>
<path style="fill:#96abf4; stroke:none;" d="M205.333 215.667L205.667 216.333L205.333 215.667M256 215L257 216L256 215z"/>
<path style="fill:#5f55af; stroke:none;" d="M257 217L258 218L257 217z"/>
<path style="fill:#96abf4; stroke:none;" d="M204 218L205 219L204 218M257 218L258 219L257 218z"/>
<path style="fill:#5f55af; stroke:none;" d="M258 220L259 221L258 220M511 220L512 221L511 220z"/>
<path style="fill:#96abf4; stroke:none;" d="M203 221L204 222L203 221z"/>
<path style="fill:#5f55af; stroke:none;" d="M259 222L260 223L259 222z"/>
<path style="fill:#96abf4; stroke:none;" d="M202 223L203 224L202 223M259 223L260 224L259 223z"/>
<path style="fill:#5f55af; stroke:none;" d="M260 225L261 226L260 225z"/>
<path style="fill:#96abf4; stroke:none;" d="M201 226L202 227L201 226M260 226L261 227L260 226M261 228L262 229L261 228M200 229L201 230L200 229z"/>
<path style="fill:#5f55af; stroke:none;" d="M262 230L263 231L262 230z"/>
<path style="fill:#96abf4; stroke:none;" d="M199 231L200 232L199 231M262 231L263 232L262 231z"/>
<path style="fill:#01019d; stroke:none;" d="M511 231L512 232L511 231z"/>
<path style="fill:#1b1934; stroke:none;" d="M0 232L0 280L1 280C9.68307 265.298 36.1576 271 51 271L51 241C33.1865 241 13.1758 245.427 0 232z"/>
<path style="fill:#5f55af; stroke:none;" d="M263 233L264 234L263 233z"/>
<path style="fill:#96abf4; stroke:none;" d="M198 234L199 235L198 234M230.667 234.333L231.333 234.667L230.667 234.333M263 234L264 235L263 234z"/>
<path style="fill:#5f55af; stroke:none;" d="M230 235L217 271L245 271C242.003 261.806 237.711 240.786 230 235z"/>
<path style="fill:#96abf4; stroke:none;" d="M197.333 236.667L197.667 237.333L197.333 236.667M264 236L265 237L264 236z"/>
<path style="fill:#01019d; stroke:none;" d="M508 236L507 238L508 236M4 237L5 238L4 237z"/>
<path style="fill:#96abf4; stroke:none;" d="M229 237L230 238L229 237M232 237L233 238L232 237z"/>
<path style="fill:#5f55af; stroke:none;" d="M265 238L266 239L265 238z"/>
<path style="fill:#96abf4; stroke:none;" d="M196 239L197 240L196 239M228.333 239.667L228.667 240.333L228.333 239.667M233.333 239.667L233.667 240.333L233.333 239.667M265 239L266 240L265 239z"/>
<path style="fill:#5f55af; stroke:none;" d="M504 239L505 240L504 239z"/>
<path style="fill:#01019d; stroke:none;" d="M502 240L503 241L502 240z"/>
<path style="fill:#5f55af; stroke:none;" d="M266 241L267 242L266 241z"/>
<path style="fill:#96abf4; stroke:none;" d="M195 242L196 243L195 242M227 242L228 243L227 242M234 242L235 243L234 242M266 242L267 243L266 242z"/>
<path style="fill:#5f55af; stroke:none;" d="M267 243L268 244L267 243z"/>
<path style="fill:#96abf4; stroke:none;" d="M194 244L195 245L194 244M267 244L268 245L267 244M226 245L227 246L226 245M235 245L236 246L235 245z"/>
<path style="fill:#5f55af; stroke:none;" d="M268 246L269 247L268 246z"/>
<path style="fill:#96abf4; stroke:none;" d="M193 247L194 248L193 247M225.333 247.667L225.667 248.333L225.333 247.667M236.333 247.667L236.667 248.333L236.333 247.667M268 247L269 248L268 247z"/>
<path style="fill:#5f55af; stroke:none;" d="M269 249L270 250L269 249z"/>
<path style="fill:#96abf4; stroke:none;" d="M192 250L193 251L192 250M224 250L225 251L224 250M237 250L238 251L237 250M269 250L270 251L269 250z"/>
<path style="fill:#5f55af; stroke:none;" d="M270 251L271 252L270 251z"/>
<path style="fill:#96abf4; stroke:none;" d="M191 252L192 253L191 252M270 252L271 253L270 252M223 253L224 254L223 253M238 253L239 254L238 253z"/>
<path style="fill:#5f55af; stroke:none;" d="M271 254L272 255L271 254z"/>
<path style="fill:#96abf4; stroke:none;" d="M190 255L191 256L190 255M222 255L223 256L222 255M239.333 255.667L239.667 256.333L239.333 255.667M271 255L272 256L271 255M189.333 257.667L189.667 258.333L189.333 257.667z"/>
<path style="fill:#5f55af; stroke:none;" d="M272 257L273 258L272 257z"/>
<path style="fill:#96abf4; stroke:none;" d="M221 258L222 259L221 258M240 258L241 259L240 258M272 258L273 259L272 258z"/>
<path style="fill:#5f55af; stroke:none;" d="M273 259L274 260L273 259z"/>
<path style="fill:#96abf4; stroke:none;" d="M188 260L189 261L188 260M220.333 260.667L220.667 261.333L220.333 260.667M273 260L274 261L273 260M241 261L242 262L241 261z"/>
<path style="fill:#5f55af; stroke:none;" d="M274 262L275 263L274 262z"/>
<path style="fill:#96abf4; stroke:none;" d="M187 263L188 264L187 263M219 263L220 264L219 263M242 263L243 264L242 263M274 263L275 264L274 263M186 265L187 266L186 265z"/>
<path style="fill:#5f55af; stroke:none;" d="M275 265L276 266L275 265z"/>
<path style="fill:#96abf4; stroke:none;" d="M218 266L219 267L218 266M243 266L244 267L243 266z"/>
<path style="fill:#5f55af; stroke:none;" d="M276 267L277 268L276 267z"/>
<path style="fill:#96abf4; stroke:none;" d="M185 268L186 269L185 268M217.333 268.667L217.667 269.333L217.333 268.667M276 268L277 269L276 268M244 269L245 270L244 269z"/>
<path style="fill:#5f55af; stroke:none;" d="M277 270L278 271L277 270M51 301L51 271C39.1306 271 18.811 267.082 8.01466 272.14C-2.89879 277.252 -2.89882 294.748 8.01466 299.86C18.811 304.918 39.1306 301 51 301z"/>
<path style="fill:#96abf4; stroke:none;" d="M184 271L185 272L184 271M217 271L217 272L245 272L217 271M277 271L278 272L277 271z"/>
<path style="fill:#5f55af; stroke:none;" d="M502 271L503 272L502 271z"/>
<path style="fill:#96abf4; stroke:none;" d="M183 273L184 274L183 273z"/>
<path style="fill:#5f55af; stroke:none;" d="M278 273L279 274L278 273z"/>
<path style="fill:#01019d; stroke:none;" d="M4 274L5 275L4 274M507 274L509 276L507 274z"/>
<path style="fill:#5f55af; stroke:none;" d="M279 275L280 276L279 275z"/>
<path style="fill:#96abf4; stroke:none;" d="M182 276L183 277L182 276M279 276L280 277L279 276M181.333 278.667L181.667 279.333L181.333 278.667z"/>
<path style="fill:#5f55af; stroke:none;" d="M280 278L281 279L280 278z"/>
<path style="fill:#96abf4; stroke:none;" d="M280 279L281 280L280 279z"/>
<path style="fill:#5f55af; stroke:none;" d="M511 280L512 281L511 280z"/>
<path style="fill:#96abf4; stroke:none;" d="M180 281L181 282L180 281M281 281L282 282L281 281z"/>
<path style="fill:#5f55af; stroke:none;" d="M282 283L283 284L282 283z"/>
<path style="fill:#96abf4; stroke:none;" d="M179 284L180 285L179 284M282 284L283 285L282 284M178 286L179 287L178 286z"/>
<path style="fill:#5f55af; stroke:none;" d="M283 286L284 287L283 286z"/>
<path style="fill:#96abf4; stroke:none;" d="M283 287L284 288L283 287M177 289L178 290L177 289M284 289L285 290L284 289z"/>
<path style="fill:#5f55af; stroke:none;" d="M285 291L286 292L285 291z"/>
<path style="fill:#01019d; stroke:none;" d="M511 291L512 292L511 291z"/>
<path style="fill:#1b1934; stroke:none;" d="M0 292L0 340L1 340C9.68307 325.298 36.1576 331 51 331L51 301C33.1865 301 13.1757 305.427 0 292z"/>
<path style="fill:#96abf4; stroke:none;" d="M176 292L177 293L176 292M285 292L286 293L285 292M175 294L176 295L175 294z"/>
<path style="fill:#5f55af; stroke:none;" d="M286 294L287 295L286 294z"/>
<path style="fill:#96abf4; stroke:none;" d="M286 295L287 296L286 295z"/>
<path style="fill:#5f55af; stroke:none;" d="M287 296L288 297L287 296z"/>
<path style="fill:#01019d; stroke:none;" d="M508 296L507 298L508 296M4 297L5 298L4 297z"/>
<path style="fill:#96abf4; stroke:none;" d="M174 297L175 298L174 297M287 297L288 298L287 297M173.333 299.667L173.667 300.333L173.333 299.667z"/>
<path style="fill:#5f55af; stroke:none;" d="M288 299L289 300L288 299M504 299L505 300L504 299z"/>
<path style="fill:#96abf4; stroke:none;" d="M288 300L289 301L288 300z"/>
<path style="fill:#01019d; stroke:none;" d="M502 300L503 301L502 300z"/>
<path style="fill:#96abf4; stroke:none;" d="M205 301L205 302L256 302C242.873 296.492 219.311 301 205 301M172 302L173 303L172 302M204.333 302.667L204.667 303.333L204.333 302.667z"/>
<path style="fill:#5f55af; stroke:none;" d="M289 302L290 303L289 302z"/>
<path style="fill:#96abf4; stroke:none;" d="M257 303L258 304L257 303M289 303L290 304L289 303z"/>
<path style="fill:#5f55af; stroke:none;" d="M257 304L258 305L257 304M290 304L291 305L290 304z"/>
<path style="fill:#96abf4; stroke:none;" d="M171 305L172 306L171 305M203 305L204 306L203 305M290 305L291 306L290 305M258 306L259 307L258 306M170 307L171 308L170 307z"/>
<path style="fill:#5f55af; stroke:none;" d="M258 307L259 308L258 307M291 307L292 308L291 307z"/>
<path style="fill:#96abf4; stroke:none;" d="M202 308L203 309L202 308M291 308L292 309L291 308M259 309L260 310L259 309M169 310L170 311L169 310M201.333 310.667L201.667 311.333L201.333 310.667z"/>
<path style="fill:#5f55af; stroke:none;" d="M292 310L293 311L292 310z"/>
<path style="fill:#96abf4; stroke:none;" d="M260 311L261 312L260 311M292 311L293 312L292 311z"/>
<path style="fill:#5f55af; stroke:none;" d="M260 312L261 313L260 312z"/>
<path style="fill:#96abf4; stroke:none;" d="M168 313L168 318L169 318L168 313M200 313L201 314L200 313z"/>
<path style="fill:#5f55af; stroke:none;" d="M293 313L293 318L294 318L293 313z"/>
<path style="fill:#96abf4; stroke:none;" d="M261 314L262 315L261 314z"/>
<path style="fill:#5f55af; stroke:none;" d="M261 315L262 316L261 315z"/>
<path style="fill:#96abf4; stroke:none;" d="M199 316L200 317L199 316z"/>
<path style="fill:#5f55af; stroke:none;" d="M262 317L263 318L262 317M313 317L313 320L314 320L313 317M343 317L343 320L344 320L343 317z"/>
<path style="fill:#96abf4; stroke:none;" d="M198 318L199 319L198 318M263 319L264 320L263 319z"/>
<path style="fill:#5f55af; stroke:none;" d="M263 320L264 321L263 320z"/>
<path style="fill:#96abf4; stroke:none;" d="M292 320L293 321L292 320M314 320L315 321L314 320M342 320L343 321L342 320M169 321L170 322L169 321M197 321L198 322L197 321z"/>
<path style="fill:#5f55af; stroke:none;" d="M292 321L293 322L292 321M314.333 321.667L314.667 322.333L314.333 321.667M342.333 321.667L342.667 322.333L342.333 321.667M264 322L265 323L264 322z"/>
<path style="fill:#96abf4; stroke:none;" d="M170 323L171 324L170 323M196 323L197 324L196 323z"/>
<path style="fill:#5f55af; stroke:none;" d="M291 323L292 324L291 323M315 323L316 324L315 323M341 323L342 324L341 323M265 324L266 325L265 324z"/>
<path style="fill:#96abf4; stroke:none;" d="M290 324L291 325L290 324M316 324L317 325L316 324M340 324L341 325L340 324M266 325L267 326L266 325z"/>
<path style="fill:#5f55af; stroke:none;" d="M290 325L291 326L290 325M316 325L317 326L316 325M340 325L341 326L340 325z"/>
<path style="fill:#96abf4; stroke:none;" d="M267 326L268 327L267 326z"/>
<path style="fill:#5f55af; stroke:none;" d="M289 326L290 327L289 326M317 326L318 327L317 326M339 326L340 327L339 326z"/>
<path style="fill:#96abf4; stroke:none;" d="M268 327L269 328L268 327z"/>
<path style="fill:#5f55af; stroke:none;" d="M288 327L289 328L288 327M318 327L320 329L318 327z"/>
<path style="fill:#96abf4; stroke:none;" d="M319 327L320 328L319 327z"/>
<path style="fill:#5f55af; stroke:none;" d="M338 327L339 328L338 327z"/>
<path style="fill:#96abf4; stroke:none;" d="M175 328L176 329L175 328M191 328L192 329L191 328z"/>
<path style="fill:#5f55af; stroke:none;" d="M269 328L270 329L269 328z"/>
<path style="fill:#96abf4; stroke:none;" d="M286 328L287 329L286 328M320 328L321 329L320 328M336 328L337 329L336 328z"/>
<path style="fill:#5f55af; stroke:none;" d="M337 328L338 329L337 328z"/>
<path style="fill:#96abf4; stroke:none;" d="M176 329L177 330L176 329M271 329L272 330L271 329z"/>
<path style="fill:#5f55af; stroke:none;" d="M285 329L286 330L285 329M321 329L322 330L321 329z"/>
<path style="fill:#96abf4; stroke:none;" d="M322 329L323 330L322 329M334 329L335 330L334 329z"/>
<path style="fill:#5f55af; stroke:none;" d="M335 329L336 330L335 329z"/>
<path style="fill:#96abf4; stroke:none;" d="M179.667 330.333L180.333 330.667L179.667 330.333M186.667 330.333L187.333 330.667L186.667 330.333z"/>
<path style="fill:#5f55af; stroke:none;" d="M273 330L274 331L273 330z"/>
<path style="fill:#96abf4; stroke:none;" d="M274 330L275 331L274 330M282 330L283 331L282 330z"/>
<path style="fill:#5f55af; stroke:none;" d="M283 330L284 331L283 330M323.667 330.333L324.333 330.667L323.667 330.333z"/>
<path style="fill:#96abf4; stroke:none;" d="M325.667 330.333L326.333 330.667L325.667 330.333M330.667 330.333L331.333 330.667L330.667 330.333z"/>
<path style="fill:#5f55af; stroke:none;" d="M332.667 330.333L333.333 330.667L332.667 330.333M51 361L51 331C39.1306 331 18.811 327.082 8.01466 332.14C-2.8988 337.252 -2.89881 354.748 8.01466 359.86C18.811 364.918 39.1306 361 51 361M502 331L503 332L502 331z"/>
<path style="fill:#01019d; stroke:none;" d="M4 334L5 335L4 334M507 334L509 336L507 334z"/>
<path style="fill:#5f55af; stroke:none;" d="M511 340L512 341L511 340z"/>
<path style="fill:#01019d; stroke:none;" d="M511 351L512 352L511 351z"/>
<path style="fill:#1b1934; stroke:none;" d="M0 352L0 400L1 400C9.68306 385.298 36.1576 391 51 391L51 361C33.1865 361 13.1757 365.427 0 352z"/>
<path style="fill:#01019d; stroke:none;" d="M508 356L507 358L508 356M4 357L5 358L4 357z"/>
<path style="fill:#5f55af; stroke:none;" d="M504 359L505 360L504 359z"/>
<path style="fill:#01019d; stroke:none;" d="M502 360L503 361L502 360z"/>
<path style="fill:#5f55af; stroke:none;" d="M400 388L400 391L401 391L400 388M51 421L51 391C39.1306 391 18.811 387.082 8.01466 392.14C-2.8988 397.252 -2.8988 414.748 8.01466 419.86C18.811 424.918 39.1306 421 51 421M502 391L503 392L502 391M399 392L400 393L399 392M398.333 393.667L398.667 394.333L398.333 393.667z"/>
<path style="fill:#01019d; stroke:none;" d="M4 394L5 395L4 394M507 394L509 396L507 394z"/>
<path style="fill:#5f55af; stroke:none;" d="M397 395L398 396L397 395M396 396L397 397L396 396M395 397L396 398L395 397M393.667 398.333L394.333 398.667L393.667 398.333M392 399L393 400L392 399M388 400L388 401L391 401L388 400M511 400L512 401L511 400z"/>
<path style="fill:#01019d; stroke:none;" d="M511 411L512 412L511 411z"/>
<path style="fill:#1b1934; stroke:none;" d="M0 412L0 512L100 512L100 511C85.2983 502.317 91 475.842 91 461C80.7721 461 63.1678 464.509 55.3295 456.671C47.4912 448.832 51 431.228 51 421C33.1865 421 13.1757 425.427 0 412z"/>
<path style="fill:#01019d; stroke:none;" d="M508 416L507 418L508 416M4 417L5 418L4 417z"/>
<path style="fill:#5f55af; stroke:none;" d="M504 419L505 420L504 419z"/>
<path style="fill:#01019d; stroke:none;" d="M502 420L503 421L502 420z"/>
<path style="fill:#eeecf7; stroke:none;" d="M54 456L55 457L54 456M55 457L56 458L55 457M60 460L61 461L60 460z"/>
<path style="fill:#5f55af; stroke:none;" d="M91 461C91 472.965 87.1402 493.013 92.0895 503.961C96.847 514.484 113.909 514.997 119.427 504.96C125.173 494.509 121 472.806 121 461L91 461z"/>
<path style="fill:#1b1934; stroke:none;" d="M121 461C121 475.842 126.702 502.317 112 511L112 512L160 512L160 511C145.298 502.317 151 475.842 151 461L121 461z"/>
<path style="fill:#5f55af; stroke:none;" d="M151 461C151 472.965 147.14 493.013 152.09 503.961C156.847 514.484 173.909 514.997 179.427 504.96C185.173 494.509 181 472.806 181 461L151 461z"/>
<path style="fill:#1b1934; stroke:none;" d="M181 461C181 475.842 186.702 502.317 172 511L172 512L220 512L220 511C205.298 502.317 211 475.842 211 461L181 461z"/>
<path style="fill:#5f55af; stroke:none;" d="M211 461C211 472.965 207.14 493.013 212.09 503.961C216.847 514.484 233.909 514.997 239.427 504.96C245.173 494.509 241 472.806 241 461L211 461M271 502L272 503L271 502z"/>
<path style="fill:#01019d; stroke:none;" d="M300 502L301 503L300 502z"/>
<path style="fill:#5f55af; stroke:none;" d="M331 502L332 503L331 502z"/>
<path style="fill:#01019d; stroke:none;" d="M360 502L361 503L360 502z"/>
<path style="fill:#5f55af; stroke:none;" d="M391 502L392 503L391 502z"/>
<path style="fill:#01019d; stroke:none;" d="M420 502L421 503L420 502z"/>
<path style="fill:#5f55af; stroke:none;" d="M272 504L273 505L272 504M332 504L333 505L332 504M392 504L393 505L392 504z"/>
<path style="fill:#01019d; stroke:none;" d="M274 507L275 508L274 507M297 507L296 509L297 507M334 507L335 508L334 507M357 507L356 509L357 507M394 507L395 508L394 507M417 507L416 509L417 507M95 508L96 509L95 508M155 508L156 509L155 508M215 508L216 509L215 508z"/>
<path style="fill:#5f55af; stroke:none;" d="M278 510L279 511L278 510M293 510L294 511L293 510M338 510L339 511L338 510M353 510L354 511L353 510M398 510L399 511L398 510M413 510L414 511L413 510z"/>
<path style="fill:#01019d; stroke:none;" d="M280 511L281 512L280 511M291 511L292 512L291 511M340 511L341 512L340 511M351 511L352 512L351 511M400 511L401 512L400 511M411 511L412 512L411 511z"/>
</svg>
