<svg width="28" height="28" viewBox="0 0 28 28" fill="none" xmlns="http://www.w3.org/2000/svg">
<path d="M3 18H9.44444L15 23V5L9.44444 10H3V18Z" fill="#444444"/>
<path d="M20.3702 21.8699C23.1317 20.3331 25 17.3848 25 14.0003C25 10.618 23.1343 7.67149 20.3758 6.13379L19.9796 7.05877C22.3821 8.43909 24 11.0307 24 14.0003C24 16.9723 22.3793 19.5659 19.9735 20.9453L20.3702 21.8699Z" fill="#444444"/>
<path d="M20 14.0003C20 15.239 19.2492 16.3024 18.1778 16.7602L17.7834 15.841C18.4986 15.5362 19 14.8268 19 14.0003C19 13.1774 18.5031 12.4706 17.793 12.1636L18.1868 11.2442C19.2534 11.7041 20 12.765 20 14.0003Z" fill="#444444"/>
</svg>
