<svg width="28" height="28" viewBox="0 0 28 28" fill="none" xmlns="http://www.w3.org/2000/svg">
<path d="M12.622 1.00007C9.73921 1.00007 7.17808 2.8314 6.28536 5.53441C5.36923 5.72072 4.50382 6.09739 3.74673 6.63936C2.98964 7.18133 2.35823 7.87616 1.89453 8.67762C0.448729 11.1429 0.778871 14.2421 2.71577 16.3552C2.11778 18.125 2.32302 20.0618 3.27803 21.6645C4.71497 24.1385 7.60625 25.4064 10.4355 24.8164C11.055 25.5061 11.8164 26.0577 12.669 26.4342C13.5216 26.8107 14.4457 27.0036 15.3798 26.9999C18.2625 26.9999 20.8237 25.1686 21.7164 22.4656C23.5726 22.0869 25.1702 20.9422 26.0984 19.3224C27.553 16.8571 27.2229 13.7579 25.2863 11.6449V11.6361C25.5817 10.7613 25.6843 9.83433 25.5874 8.9172C25.4904 8.00008 25.1961 7.11396 24.724 6.3181C23.2868 3.85283 20.3952 2.58463 17.575 3.17458C16.9527 2.48663 16.1893 1.93701 15.3354 1.56213C14.4815 1.18725 13.5566 0.995664 12.622 1.00007ZM12.622 2.6907L12.6131 2.69944C13.7733 2.69944 14.889 3.09565 15.7814 3.82662C15.7457 3.84409 15.6742 3.88808 15.6208 3.9146L10.3733 6.89932C10.1054 7.04908 9.94476 7.33079 9.94476 7.63903V14.6474L7.68689 13.362V7.56852C7.68638 6.27623 8.20586 5.03659 9.1312 4.12192C10.0565 3.20725 11.3121 2.69268 12.622 2.6907ZM18.9434 4.73106C19.813 4.72941 20.6676 4.95428 21.4209 5.38294C22.1741 5.8116 22.7994 6.42885 23.2333 7.17231C23.8044 8.15848 24.0185 9.31187 23.8221 10.43C23.7864 10.4035 23.7153 10.3686 23.6704 10.342L18.4229 7.34827C18.2908 7.27461 18.1418 7.2359 17.9901 7.2359C17.8384 7.2359 17.6894 7.27461 17.5573 7.34827L11.4083 10.8524V8.2814L16.4863 5.38466C17.2329 4.95761 18.0803 4.73207 18.9434 4.73074V4.73106ZM5.96439 7.39225V13.5467C5.96439 13.8549 6.12504 14.1279 6.39288 14.2864L12.5328 17.7818L10.2657 19.0759L5.19659 16.1879C4.06375 15.5402 3.23769 14.4755 2.89975 13.2276C2.56181 11.9796 2.7396 10.6503 3.39408 9.53151C3.97144 8.54419 4.88074 7.78758 5.96439 7.39225ZM17.7268 8.91535L22.8048 11.8034C25.1699 13.1505 25.9728 16.1265 24.6073 18.4598L24.6162 18.4685C24.0362 19.4547 23.1258 20.2119 22.0459 20.5993V14.4446C22.0459 14.1363 21.8852 13.8546 21.6174 13.7052L15.4686 10.2007L17.7268 8.91535ZM13.9963 11.0374L16.5846 12.5165V15.466L13.9963 16.9451L11.4083 15.466V12.5165L13.9963 11.0374ZM18.0658 13.362L20.3237 14.6474V20.4321C20.3237 23.1264 18.1104 25.3099 15.3886 25.3099V25.3012C14.2373 25.3012 13.1127 24.905 12.2292 24.1743C12.2649 24.1569 12.3453 24.1126 12.3898 24.086L17.6373 21.1013C17.9052 20.9516 18.0747 20.6699 18.0655 20.3616L18.0658 13.362ZM16.5932 17.1479V19.7186L11.5152 22.6066C9.15008 23.945 6.13357 23.1526 4.7681 20.828H4.77695C4.19699 19.8506 3.99144 18.6885 4.18782 17.5703C4.22355 17.5968 4.29502 17.6318 4.33961 17.6583L9.58711 20.6521C9.71912 20.7257 9.8682 20.7644 10.0199 20.7644C10.1715 20.7644 10.3206 20.7257 10.4526 20.6521L16.5932 17.1479Z" fill="white"/>
</svg>
