<svg width="120" height="60" viewBox="0 0 120 60" fill="none" xmlns="http://www.w3.org/2000/svg">
<path fill-rule="evenodd" clip-rule="evenodd" d="M51.9359 15.708C51.9359 11.4579 55.3293 8 59.5001 8C63.6709 8 67.0643 11.4579 67.0643 15.708V30.9099C67.0643 35.1306 63.6709 38.5644 59.5001 38.5644C55.3293 38.5644 51.9359 35.1065 51.9359 30.8569V15.708ZM59.5001 35.3522C61.9327 35.3522 63.912 33.3589 63.912 30.9095V15.708C63.9125 13.2286 61.9332 11.2117 59.5001 11.2117C57.067 11.2117 55.0877 13.2286 55.0877 15.708V30.8564C55.0877 33.3358 57.0675 35.3522 59.5001 35.3522ZM61.0759 44.734C67.7801 43.9362 73 38.1128 73 31.0705V29.7858C73 28.8989 72.2945 28.18 71.4241 28.18C70.5537 28.18 69.8483 28.8988 69.8483 29.7858V31.0705C69.8483 36.8846 65.2058 41.6155 59.5 41.6155C53.7938 41.6155 49.1517 36.8847 49.1517 31.0705V29.7858C49.1517 28.8988 48.4463 28.18 47.5759 28.18C46.7055 28.18 46 28.8988 46 29.7858V31.0705C46 38.1128 51.2199 43.9362 57.9241 44.734V48.7886H55.3501C54.4797 48.7886 53.7742 49.5074 53.7742 50.3944C53.7742 51.2814 54.4797 52.0002 55.3501 52.0002H63.6497C64.5201 52.0002 65.2256 51.2814 65.2256 50.3944C65.2256 49.5074 64.5201 48.7886 63.6497 48.7886H61.0759V44.734Z" fill="url(#paint0_linear_2702_16604)"/>
<defs>
<linearGradient id="paint0_linear_2702_16604" x1="59.5" y1="8" x2="59.5" y2="52" gradientUnits="userSpaceOnUse">
<stop stop-color="#FF8E3D"/>
<stop offset="1" stop-color="#FF6F3D"/>
</linearGradient>
</defs>
</svg>
