<svg width="120" height="60" viewBox="0 0 120 60" fill="none" xmlns="http://www.w3.org/2000/svg">
<path fill-rule="evenodd" clip-rule="evenodd" d="M74.5455 11.8182H41.8182V37.8054L48.1818 31.4418L51.8182 35.0781L62.7273 24.169L66.0974 27.5391L64.8117 28.8248L62.7273 26.7403L51.8182 37.6494L48.1818 34.0131L41.8182 40.3767V44.5455H52.7273V46.3636H41.8182C40.814 46.3636 40 45.5496 40 44.5455V11.8182C40 10.814 40.814 10 41.8182 10H74.5455C75.5496 10 76.3636 10.814 76.3636 11.8182V22.7273H74.5455V11.8182ZM69.0909 46.3636L70.9091 44.5455H74.5455V40.9091L76.3636 39.0909V44.5455C76.3636 45.5496 75.5496 46.3636 74.5455 46.3636H69.0909Z" fill="white"/>
<path fill-rule="evenodd" clip-rule="evenodd" d="M49.091 20.9089C50.0951 20.9089 50.9091 20.0949 50.9091 19.0907C50.9091 18.0866 50.0951 17.2725 49.091 17.2725C48.0868 17.2725 47.2728 18.0866 47.2728 19.0907C47.2728 20.0949 48.0868 20.9089 49.091 20.9089ZM49.091 22.7271C51.0993 22.7271 52.7273 21.099 52.7273 19.0907C52.7273 17.0824 51.0993 15.4543 49.091 15.4543C47.0826 15.4543 45.4546 17.0824 45.4546 19.0907C45.4546 21.099 47.0826 22.7271 49.091 22.7271Z" fill="white"/>
<path fill-rule="evenodd" clip-rule="evenodd" d="M74.5454 35.4545L60 50H54.5454V44.5455L69.0909 30L74.5454 35.4545Z" fill="white"/>
<path fill-rule="evenodd" clip-rule="evenodd" d="M70.9092 28.182L76.3637 33.6366L80.0001 30.0002V28.182L76.3637 24.5457H74.5455L70.9092 28.182Z" fill="white"/>
</svg>
