<svg width="120" height="60" viewBox="0 0 120 60" fill="none" xmlns="http://www.w3.org/2000/svg">
<path opacity="0.926" fill-rule="evenodd" clip-rule="evenodd" d="M71.4437 4.20389C70.7713 2.56003 69.5502 1.83577 67.7804 2.03112C66.409 2.47815 65.6844 3.43041 65.6067 4.88791C65.6869 5.73655 65.6467 6.58152 65.4859 7.42281C65.4576 7.74922 65.3502 8.04428 65.1639 8.30801C64.2524 9.21316 63.1655 9.8167 61.9032 10.1186C60.0609 10.8294 58.7324 12.0767 57.9179 13.8606C57.3249 15.6092 57.0431 17.4064 57.0725 19.2523C56.3878 19.3686 55.7169 19.543 55.0598 19.7754C52.6533 20.5676 50.8686 22.0833 49.7058 24.3221C48.717 26.8739 48.7036 29.4357 49.6656 32.0073C48.3505 31.7346 47.116 31.9492 45.9621 32.6511C44.0005 34.1153 42.7794 36.06 42.2989 38.4853C41.6523 42.6159 42.0548 46.6396 43.5065 50.5563C44.7805 53.0496 46.0955 55.5577 47.4515 58C48.1874 54.9234 48.912 51.7984 49.6253 48.7054C49.9357 47.5614 50.4858 46.5555 51.2758 45.6877C51.3563 45.634 51.4368 45.634 51.5173 45.6877C52.4019 46.2149 53.3412 46.6173 54.3352 46.8947C60.0278 48.0292 64.8048 46.4466 68.6661 42.1468C69.7926 42.0129 70.8125 41.6106 71.7255 40.9398C74.0491 39.1551 75.6727 36.8616 76.5964 34.0593C77.8005 30.3924 78.2299 26.6371 77.8845 22.7931C77.6823 21.2469 77.1187 19.8521 76.1938 18.6085C75.12 17.3409 73.7647 16.563 72.128 16.2748C72.0366 15.6005 71.8755 14.9433 71.645 14.3032C71.9565 13.7473 72.2383 13.1706 72.4903 12.5731C72.9069 11.4824 73.0679 10.3558 72.9734 9.19321C72.6748 7.46623 72.1649 5.80312 71.4437 4.20389ZM68.9478 4.44531C68.7481 4.29936 68.5199 4.24571 68.2635 4.28436C68.0036 4.42824 67.8694 4.65625 67.861 4.96838C67.9369 6.14618 67.8429 7.31303 67.5792 8.46895C67.4494 8.94304 67.2347 9.37223 66.9351 9.75652C66.3472 10.3714 65.6897 10.8945 64.9626 11.3257C63.8556 11.793 62.7553 12.2758 61.6616 12.7743L60.8968 13.3778L60.3332 14.1021C59.3362 16.3339 59.0947 18.6408 59.6086 21.0227C58.658 21.2192 57.7053 21.4204 56.7505 21.6263C55.9672 21.8425 55.2158 22.1375 54.4962 22.5115C52.8765 23.3494 51.8433 24.6504 51.3966 26.4144C51.083 28.2339 51.2708 30.0043 51.9601 31.7256C52.5104 33.3075 53.49 34.5414 54.8988 35.4274C54.9852 36.0802 54.7973 36.6435 54.3352 37.1173C53.0336 36.3461 51.7454 35.5548 50.4707 34.7433C50.1307 34.5869 49.7818 34.4528 49.424 34.341C48.5158 33.9978 47.6838 34.132 46.9282 34.7433C45.3799 36.2159 44.5078 38.0266 44.3116 40.1753C44.2429 41.6795 44.2697 43.1817 44.3921 44.6817C44.6002 47.1295 45.3479 49.459 46.5891 51.5713C46.7386 50.9884 46.8823 50.3914 47.0263 49.7931L47.0263 49.7931C47.166 49.2132 47.3059 48.6321 47.4515 48.0616C47.9831 45.8015 49.2311 44.0714 51.1953 42.8711C51.3026 42.8174 51.41 42.8174 51.5173 42.8711C51.9179 43.2322 52.3473 43.5541 52.8055 43.8368C55.3279 45.1293 57.9578 45.3975 60.6955 44.6415C63.7953 43.7917 66.1838 42.0079 67.861 39.2901C68.1386 39.5271 68.4472 39.7148 68.7868 39.8534C69.5756 39.6004 70.2868 39.2114 70.9204 38.6865C72.2594 37.4716 73.2927 36.0365 74.02 34.3812C75.3852 30.9153 75.9487 27.3209 75.7107 23.5979C75.352 20.0059 73.3795 18.2624 69.7932 18.3671C70.087 16.7772 69.7918 15.3019 68.9076 13.9411C70.2142 12.6926 70.818 11.1636 70.7191 9.35415C70.3676 7.62926 69.7771 5.99298 68.9478 4.44531ZM67.844 13.0657C69.0332 11.7701 69.4224 10.2948 69.0114 8.63965C68.9311 9.40282 68.7835 10.1539 68.5686 10.8929L67.844 13.0657ZM67.3207 11.1343C67.3912 11.1238 67.4449 11.1506 67.4817 11.2148C67.0633 12.5877 66.4326 13.8485 65.5897 14.997C65.3052 15.3083 64.9966 15.59 64.6638 15.842C63.3623 16.3336 62.101 16.9103 60.8798 17.5721C60.8626 16.5938 61.0638 15.6549 61.4836 14.7556C61.8542 14.3851 62.2702 14.0766 62.7315 13.8301C63.9374 13.2812 65.1181 12.6911 66.274 12.0597C66.659 11.7877 67.0079 11.4792 67.3207 11.1343ZM68.5684 16.1234C68.4695 15.6839 68.2683 15.3083 67.9646 14.9968C67.5502 15.3431 67.1208 15.6784 66.6763 16.0027C66.1519 16.5615 66.0312 17.1919 66.314 17.8938C66.6579 18.6224 67.2081 18.8504 67.9646 18.5779C68.5953 17.8688 68.7966 17.0507 68.5684 16.1234ZM64.7443 16.9281C64.845 16.9343 64.912 16.988 64.9456 17.089C64.9938 18.0843 65.4098 18.8756 66.1935 19.463C66.5383 19.6401 66.8873 19.8011 67.2402 19.9458C66.5784 21.3579 65.5049 22.3235 64.0197 22.8428C63.4131 23.0736 62.8764 22.9664 62.4095 22.521C61.2341 21.5677 60.684 20.3471 60.7591 18.8594C61.2043 18.4148 61.7276 18.0796 62.329 17.8535C63.1452 17.5507 63.9503 17.2422 64.7443 16.9281ZM72.9159 20.5493C72.54 20.1267 72.0704 19.9389 71.507 19.986C71.0873 20.6481 70.9397 21.3723 71.0642 22.1587C71.5848 23.7464 72.1215 25.3291 72.6744 26.9066C73.0609 28.1571 73.383 29.4178 73.6405 30.6888C74.1287 28.5157 74.3165 26.3161 74.2041 24.0901C74.1558 22.7643 73.7264 21.5841 72.9159 20.5493ZM69.897 20.2273C69.9817 20.2153 70.0623 20.2286 70.1386 20.2675C69.8334 21.0498 69.82 21.8412 70.0983 22.6415C70.8335 24.6313 71.5044 26.6431 72.1111 28.6769C72.3372 29.5116 72.5115 30.3565 72.6344 31.2118C72.6393 31.3937 72.5856 31.5547 72.4734 31.6946C72.2156 31.6877 71.9741 31.6072 71.7488 31.4532C70.0662 30.0618 68.2145 28.9351 66.1936 28.0734C61.8687 26.5185 57.9639 27.2294 54.4793 30.2059C54.3778 30.6549 54.5522 30.8024 55.0026 30.6485C56.6247 30.1038 58.2886 29.8892 59.9943 30.0047C61.6203 30.2407 63.0159 30.9247 64.1808 32.0568C61.4909 32.9603 58.7401 33.6041 55.9285 33.9881C55.2756 33.9434 54.7657 33.6483 54.3988 33.1029C52.9096 30.9715 52.4533 28.6378 53.0301 26.1018C53.5363 25.0057 54.3549 24.2412 55.4857 23.8083C57.22 23.1133 59.0181 22.7377 60.8799 22.6817C61.5185 23.5353 62.3369 24.1389 63.3354 24.4923C64.179 24.2919 64.9439 23.9298 65.63 23.4059L68.4479 21.0722C68.9228 20.7681 69.4059 20.4865 69.897 20.2273ZM68.0452 30.2461C65.8448 28.811 63.4294 28.1806 60.7992 28.355C59.9558 28.4651 59.1239 28.6663 58.3034 28.9585C60.8612 28.8163 63.0619 29.6211 64.9053 31.3727C65.4219 32.0502 66.0392 32.6135 66.757 33.0626C68.301 33.3794 69.8038 33.2452 71.2656 32.6603L68.0452 30.2461ZM64.6637 32.9424C64.956 33.0315 65.1975 33.2059 65.3883 33.4655C66.1128 33.9663 66.9179 34.2613 67.8036 34.3507C67.4731 37.5785 65.9434 40.0732 63.2145 41.8347C60.2381 43.5631 57.1251 43.8582 53.8753 42.7199C53.0727 42.3525 52.3614 41.8563 51.7417 41.2312C51.6863 41.1642 51.6998 41.1106 51.782 41.0702C54.2251 40.0769 55.8622 38.3333 56.6931 35.8394C57.5896 35.4379 58.502 35.0757 59.4305 34.753C61.1979 34.1867 62.9423 33.5831 64.6637 32.9424ZM72.8758 33.1837C72.839 33.1194 72.7853 33.0926 72.7148 33.1032C72.5596 33.262 72.3717 33.3827 72.1512 33.4653C71.1589 33.8474 70.1391 34.129 69.0918 34.3103C68.9606 35.0307 68.8398 35.755 68.7295 36.483C68.6136 36.9379 68.466 37.3805 68.2867 37.8108C68.491 38.042 68.719 38.2431 68.971 38.4144C70.7735 37.0539 72.075 35.3103 72.8758 33.1837ZM48.3201 35.9198C48.4422 35.9207 48.5362 35.9743 48.6019 36.0807C48.9252 37.371 48.9655 38.672 48.7226 39.9837C48.826 40.8213 49.2554 41.4249 50.0108 41.7943C48.1967 43.0336 46.9488 44.6967 46.2671 46.7836C45.7209 44.5505 45.6136 42.2973 45.945 40.0239C46.1888 38.8129 46.6719 37.7131 47.3942 36.7245C47.6708 36.4071 47.9794 36.1388 48.3201 35.9198ZM53.5533 38.5753C52.507 37.9321 51.4604 37.2883 50.4133 36.6439C50.3325 37.6119 50.2252 38.5776 50.0913 39.5409C50.1069 39.7913 50.1606 40.0327 50.2523 40.2652L50.5744 40.3457C51.7024 39.9831 52.6954 39.393 53.5533 38.5753Z" fill="white"/>
</svg>
