<svg width="120" height="60" viewBox="0 0 120 60" fill="none" xmlns="http://www.w3.org/2000/svg">
<path d="M65.0116 11.18L59.666 5.83441L35.8336 29.6668L50.7567 44.5899L56.0876 39.259L46.5101 29.6815L65.0116 11.18Z" fill="#073F77"/>
<path fill-rule="evenodd" clip-rule="evenodd" d="M59.666 5.00073L65.8452 11.1799L47.3437 29.6814L56.9212 39.2589L50.7567 45.4234L35 29.6667L59.666 5.00073ZM46.5101 29.6814L65.0116 11.1799L59.666 5.8343L35.8336 29.6667L50.7567 44.5898L56.0876 39.2589L46.5101 29.6814Z" fill="#BFDFFA"/>
<path d="M64.1216 11.1817L59.667 6.72705L36.7255 29.6685L50.7577 43.7007L55.2123 39.246L45.6348 29.6685L64.1216 11.1817Z" fill="#63A1D0"/>
<path fill-rule="evenodd" clip-rule="evenodd" d="M45.6348 29.6685L64.1216 11.1817L59.667 6.72705L36.7255 29.6685L50.7577 43.7007L55.2123 39.246L45.6348 29.6685ZM54.3788 39.246L44.8013 29.6685L63.2881 11.1817L59.667 7.56062L37.5591 29.6685L50.7577 42.8671L54.3788 39.246Z" fill="#316F9D"/>
<path d="M54.9889 48.8201L60.3345 54.1656L84.1669 30.3332L69.2438 15.4101L63.9129 20.7411L73.4904 30.3186L54.9889 48.8201Z" fill="#073F77"/>
<path fill-rule="evenodd" clip-rule="evenodd" d="M60.3345 54.9993L54.1553 48.8201L72.6568 30.3186L63.0793 20.7411L69.2438 14.5766L85.0004 30.3333L60.3345 54.9993ZM73.4904 30.3186L54.9889 48.8201L60.3345 54.1657L84.1669 30.3333L69.2438 15.4102L63.9129 20.7411L73.4904 30.3186Z" fill="#BFDFFA"/>
<path d="M55.8798 48.8184L60.3345 53.2731L83.276 30.3316L69.2438 16.2994L64.7891 20.7541L74.3666 30.3316L55.8798 48.8184Z" fill="#63A1D0"/>
<path fill-rule="evenodd" clip-rule="evenodd" d="M74.3666 30.3316L55.8798 48.8184L60.3345 53.2731L83.276 30.3316L69.2438 16.2994L64.7891 20.7541L74.3666 30.3316ZM65.6227 20.7541L75.2002 30.3316L56.7134 48.8184L60.3345 52.4395L82.4424 30.3316L69.2438 17.133L65.6227 20.7541Z" fill="#316F9D"/>
<path d="M65.4023 29.9261L60.0004 35.3281L54.5985 29.9261L60.0004 24.5242L65.4023 29.9261Z" fill="#073F77"/>
<path fill-rule="evenodd" clip-rule="evenodd" d="M66.2358 29.9261L60.0004 36.1616L53.7649 29.9261L60.0004 23.6907L66.2358 29.9261ZM65.4023 29.9261L60.0004 24.5242L54.5984 29.9261L60.0004 35.3281L65.4023 29.9261Z" fill="#BFDFFA"/>
<path d="M64.502 29.9261L60.0004 34.4277L55.4988 29.9261L60.0004 25.4245L64.502 29.9261Z" fill="#63A1D0"/>
<path fill-rule="evenodd" clip-rule="evenodd" d="M60.0004 33.5942L63.6684 29.9261L60.0004 26.2581L56.3323 29.9261L60.0004 33.5942ZM64.502 29.9261L60.0004 25.4245L55.4988 29.9261L60.0004 34.4277L64.502 29.9261Z" fill="#316F9D"/>
</svg>
