<svg width="28" height="28" viewBox="0 0 28 28" fill="none" xmlns="http://www.w3.org/2000/svg">
    <path d="M14.5 4a.5.5 0 0 1 0 1h-7a.5.5 0 0 0-.5.5v17a.5.5 0 0 0 .5.5h13a.5.5 0 0 0 .5-.5v-10a.5.5 0 0 1 1 0v10a1.5 1.5 0 0 1-1.5 1.5h-13A1.5 1.5 0 0 1 6 22.5v-17A1.5 1.5 0 0 1 7.5 4z" fill="#fff"/>
    <path d="M15.5 18a.5.5 0 0 1 0 1h-6a.5.5 0 0 1 0-1zm3-4a.5.5 0 0 1 0 1h-9a.5.5 0 0 1 0-1zm0-4a.5.5 0 0 1 0 1h-9a.5.5 0 0 1 0-1zm1.963-7.779c.356-.962 1.718-.962 2.074 0l.429 1.16c.112.302.35.541.653.653l1.16.429c.962.356.962 1.718 0 2.074l-1.16.429-.11.047c-.25.125-.445.341-.543.606l-.429 1.16-.078.168c-.415.737-1.503.737-1.918 0l-.078-.169-.429-1.16a1.1 1.1 0 0 0-.543-.605l-.11-.047-1.16-.43c-.962-.355-.962-1.717 0-2.073l1.16-.43c.302-.111.541-.35.653-.652zM21.5 2.5a.1.1 0 0 0-.064.016c-.006.004-.02.015-.035.053l-.43 1.16A2.1 2.1 0 0 1 19.73 4.97l-1.16.43c-.038.014-.048.029-.052.035a.1.1 0 0 0-.017.064c0 .03.009.051.017.063.004.007.014.021.052.035l1.16.43c.575.213 1.03.667 1.243 1.243l.43 1.16c.014.038.028.048.034.052a.1.1 0 0 0 .064.017c.03 0 .052-.01.064-.017.006-.004.02-.014.035-.053l.43-1.159a2.1 2.1 0 0 1 1.242-1.243l1.16-.43c.038-.014.048-.028.052-.035A.1.1 0 0 0 24.5 5.5a.1.1 0 0 0-.017-.064c-.004-.006-.014-.02-.052-.035l-1.16-.43a2.1 2.1 0 0 1-1.243-1.243l-.43-1.159c-.014-.038-.028-.049-.034-.053A.1.1 0 0 0 21.5 2.5" fill="#fff"/>
</svg>
