<svg width="240" height="120" viewBox="0 0 240 120" fill="none" xmlns="http://www.w3.org/2000/svg">
<rect width="240" height="120" fill="#F1F1F1"/>
<path d="M123.971 67.3119H118.978L118.028 70.1142H115L120.145 56.5138H122.785L127.958 70.1142H124.93L123.971 67.3119ZM119.747 65.042H123.202L121.465 59.9512L119.747 65.042Z" fill="#808080"/>
<path d="M137.86 65.1541C137.86 66.7109 137.499 67.9595 136.778 68.8998C136.062 69.8339 135.094 70.301 133.873 70.301C132.835 70.301 131.996 69.946 131.357 69.2361V74H128.613V60.0073H131.158L131.253 60.9974C131.917 60.2128 132.784 59.8204 133.854 59.8204C135.119 59.8204 136.104 60.2813 136.806 61.2029C137.509 62.1245 137.86 63.3949 137.86 65.014V65.1541ZM135.116 64.958C135.116 64.0176 134.945 63.2922 134.604 62.7815C134.268 62.2709 133.778 62.0156 133.132 62.0156C132.271 62.0156 131.68 62.3394 131.357 62.987V67.1251C131.692 67.7914 132.29 68.1245 133.151 68.1245C134.461 68.1245 135.116 67.069 135.116 64.958Z" fill="#808080"/>
<path d="M144.296 70.301C142.79 70.301 141.562 69.8464 140.613 68.9372C139.67 68.028 139.198 66.8168 139.198 65.3036V65.042C139.198 64.027 139.398 63.1209 139.796 62.3238C140.195 61.5205 140.758 60.904 141.486 60.4743C142.22 60.0384 143.056 59.8204 143.993 59.8204C145.398 59.8204 146.502 60.2564 147.306 61.1282C148.116 62 148.521 63.2361 148.521 64.8365V65.9388H141.98C142.069 66.5989 142.334 67.1282 142.777 67.5267C143.227 67.9253 143.793 68.1245 144.477 68.1245C145.534 68.1245 146.36 67.7478 146.954 66.9943L148.302 68.4795C147.891 69.0524 147.334 69.5008 146.632 69.8246C145.929 70.1422 145.151 70.301 144.296 70.301ZM143.983 62.0062C143.439 62.0062 142.996 62.1868 142.654 62.548C142.319 62.9092 142.103 63.4261 142.008 64.0986H145.825V63.8838C145.812 63.2859 145.648 62.8251 145.331 62.5013C145.015 62.1713 144.565 62.0062 143.983 62.0062Z" fill="#808080"/>
<path d="M155.859 62.5387C155.486 62.4888 155.157 62.4639 154.872 62.4639C153.834 62.4639 153.154 62.8095 152.831 63.5008V70.1142H150.087V60.0073H152.679L152.755 61.2122C153.305 60.2844 154.068 59.8204 155.043 59.8204C155.347 59.8204 155.631 59.8609 155.897 59.9419L155.859 62.5387Z" fill="#808080"/>
<path d="M160.948 57.5226V60.0073H162.704V61.9875H160.948V67.0317C160.948 67.4053 161.02 67.6731 161.166 67.835C161.311 67.9969 161.59 68.0778 162.001 68.0778C162.305 68.0778 162.574 68.056 162.808 68.0125V70.0581C162.27 70.22 161.717 70.301 161.147 70.301C159.223 70.301 158.242 69.3451 158.204 67.4333V61.9875H156.704V60.0073H158.204V57.5226H160.948Z" fill="#808080"/>
<path d="M167.128 70.1142H164.375V60.0073H167.128V70.1142ZM164.213 57.3918C164.213 56.987 164.349 56.6539 164.621 56.3923C164.9 56.1308 165.276 56 165.751 56C166.219 56 166.593 56.1308 166.871 56.3923C167.15 56.6539 167.289 56.987 167.289 57.3918C167.289 57.8028 167.147 58.1391 166.862 58.4006C166.583 58.6622 166.213 58.7929 165.751 58.7929C165.289 58.7929 164.916 58.6622 164.631 58.4006C164.352 58.1391 164.213 57.8028 164.213 57.3918Z" fill="#808080"/>
<path d="M175.548 69.0867C174.871 69.8962 173.934 70.301 172.738 70.301C171.637 70.301 170.795 69.9896 170.213 69.3669C169.637 68.7442 169.343 67.8319 169.33 66.63V60.0073H172.074V66.5366C172.074 67.589 172.561 68.1152 173.536 68.1152C174.466 68.1152 175.105 67.7976 175.453 67.1624V60.0073H178.206V70.1142H175.624L175.548 69.0867Z" fill="#808080"/>
<path d="M182.849 60.0073L182.934 61.1375C183.662 60.2595 184.646 59.8204 185.886 59.8204C187.209 59.8204 188.117 60.3342 188.611 61.3617C189.332 60.3342 190.361 59.8204 191.696 59.8204C192.81 59.8204 193.639 60.1412 194.184 60.7826C194.728 61.4177 195 62.3768 195 63.6596V70.1142H192.247V63.6689C192.247 63.096 192.133 62.6788 191.905 62.4172C191.677 62.1495 191.275 62.0156 190.7 62.0156C189.877 62.0156 189.307 62.4017 188.991 63.1738L189 70.1142H186.257V63.6783C186.257 63.0929 186.14 62.6694 185.905 62.4079C185.671 62.1463 185.273 62.0156 184.709 62.0156C183.931 62.0156 183.368 62.3332 183.019 62.9683V70.1142H180.276V60.0073H182.849Z" fill="#808080"/>
<path fill-rule="evenodd" clip-rule="evenodd" d="M74.9566 85.9999L90.9343 68.3777L123 67.7393L106.406 82.6798L74.9566 85.9999Z" fill="url(#paint0_radial_3113_1792)"/>
<path fill-rule="evenodd" clip-rule="evenodd" d="M76.8625 54.9561L76.7442 74.1297L97.6047 61.5572L76.8625 54.9561Z" fill="url(#paint1_radial_3113_1792)"/>
<path fill-rule="evenodd" clip-rule="evenodd" d="M76.7362 54.9561L76.7442 73.2167L55.8837 61.0585L76.7362 54.9561H76.7362Z" fill="url(#paint2_radial_3113_1792)"/>
<path fill-rule="evenodd" clip-rule="evenodd" d="M75.7031 69.7868L74.9567 85.9993L95.6078 75.0751L96.3543 61.4834L75.7031 69.7868Z" fill="url(#paint3_radial_3113_1792)"/>
<path fill-rule="evenodd" clip-rule="evenodd" d="M75.118 85.999L75.8372 69.4856L55.8837 60.4341L56.4958 75.0982L75.118 85.999Z" fill="url(#paint4_radial_3113_1792)"/>
<path fill-rule="evenodd" clip-rule="evenodd" d="M50.5777 47.6523L50.4419 48.9272L55.8757 61.2929L56.7907 61.3478L50.5777 47.6523Z" fill="url(#paint5_radial_3113_1792)"/>
<path fill-rule="evenodd" clip-rule="evenodd" d="M72.3829 44L76.7442 54.9224L55.9215 61.3476L50.4419 47.5649L72.3829 44Z" fill="url(#paint6_radial_3113_1792)"/>
<path fill-rule="evenodd" clip-rule="evenodd" d="M55.7549 60.9257L45.9063 53.1299L66.1573 60.7401L75.8366 69.5645L55.7549 60.9257Z" fill="url(#paint7_radial_3113_1792)"/>
<path fill-rule="evenodd" clip-rule="evenodd" d="M45.5449 52.2178C44.7011 52.5013 45.0157 52.6405 45.309 52.9241L66.7795 60.4351L67.6744 59.949L45.5449 52.2178Z" fill="url(#paint8_radial_3113_1792)"/>
<path fill-rule="evenodd" clip-rule="evenodd" d="M67.5306 60.4341L75.8227 68.8562L75.8373 69.5644L66.7675 60.9671L67.5306 60.4341Z" fill="url(#paint9_radial_3113_1792)"/>
<path fill-rule="evenodd" clip-rule="evenodd" d="M82.7539 44.9131L76.7442 54.6513L97.4573 61.3477L103.954 49.448L82.7539 44.9131Z" fill="url(#paint10_radial_3113_1792)"/>
<path fill-rule="evenodd" clip-rule="evenodd" d="M75.8372 69.5654L87.483 59.9199L106.674 52.2178L97.2256 61.141L75.8372 69.5654Z" fill="url(#paint11_radial_3113_1792)"/>
<path fill-rule="evenodd" clip-rule="evenodd" d="M87.6279 59.9281L87.1232 59.5215L77.1517 67.2463L75.8372 68.8122L75.8709 69.5648L87.6279 59.9281Z" fill="url(#paint12_radial_3113_1792)"/>
<path fill-rule="evenodd" clip-rule="evenodd" d="M103.457 49.479L103.953 49.6747L101.809 53.892L101.233 54.0442L103.457 49.479Z" fill="url(#paint13_radial_3113_1792)"/>
<path fill-rule="evenodd" clip-rule="evenodd" d="M86.7209 59.998L105.569 52.244C105.781 52.1783 106.199 52.2497 106.473 52.3089L106.674 52.5511L87.2883 60.4351L86.7209 59.998Z" fill="url(#paint14_radial_3113_1792)"/>
<path opacity="0.561404" d="M89.3396 35L94 44.6099L91.529 45.9107L89.9181 42.589L88.348 43.4155L88.1743 47.6767L85.6604 49L85.8633 44.1772C85.1792 44.2028 84.5751 44.0675 84.0508 43.7711C83.5323 43.4718 83.1323 43.032 82.8509 42.4517C82.4001 41.5221 82.3772 40.5791 82.7821 39.6226C83.1899 38.6573 83.9715 37.8556 85.1269 37.2177L89.3396 35ZM87.3492 41.6892L89.0481 40.7949L87.8679 38.3613L86.2549 39.2104C85.8144 39.4423 85.5158 39.7519 85.359 40.1392C85.1993 40.5205 85.2027 40.8829 85.3693 41.2264C85.5358 41.5698 85.8052 41.7847 86.1774 41.8712C86.5497 41.9577 86.9403 41.897 87.3492 41.6892Z" fill="#1F1F1F"/>
<path opacity="0.548246" d="M68.1664 53.3097C69.0626 53.8409 69.6832 54.6774 70.0283 55.8193L70.146 56.2088C70.2794 56.6499 70.3198 57.0722 70.2675 57.4755C70.2169 57.8753 70.076 58.2203 69.8447 58.5106C69.6134 58.8009 69.3166 59.0015 68.9542 59.1123C68.5891 59.2239 68.2308 59.2358 67.8793 59.1481C67.527 59.0576 67.2211 58.8812 66.9617 58.6189C66.7049 58.3558 66.52 58.0372 66.4069 57.6631C66.2829 57.2527 66.2476 56.8624 66.3012 56.4922C66.3539 56.1193 66.4921 55.7995 66.7158 55.5328C66.9422 55.2654 67.2298 55.0783 67.5786 54.9717C68.0194 54.8369 68.4516 54.8786 68.875 55.0969C68.5806 54.5921 68.1833 54.2012 67.683 53.9241L66.986 54.8143L66.5646 54.4902L67.1776 53.7035C66.7439 53.5586 66.2589 53.4933 65.7226 53.5078L65.7526 52.7713C66.4445 52.7244 67.0857 52.8227 67.6763 53.0661L68.2796 52.2915L68.7023 52.6197L68.1664 53.3097ZM69.269 56.0195L69.19 55.7874C69.0493 55.6444 68.8691 55.5516 68.6494 55.5089C68.4316 55.4627 68.1983 55.4776 67.9495 55.5536C67.5574 55.6735 67.2923 55.901 67.1543 56.236C67.0154 56.5682 67.0164 56.9674 67.1573 57.4336C67.2755 57.8245 67.4881 58.1224 67.7953 58.3274C68.1051 58.5316 68.4331 58.5808 68.7793 58.4749C69.1173 58.3716 69.3414 58.1307 69.4516 57.7524C69.5645 57.3733 69.5433 56.9268 69.388 56.4131L69.269 56.0195Z" fill="black"/>
<defs>
<radialGradient id="paint0_radial_3113_1792" cx="0" cy="0" r="1" gradientUnits="userSpaceOnUse" gradientTransform="translate(63.0382 84.1587) rotate(13.7606) scale(51.7399 39.5319)">
<stop stop-opacity="0.690722"/>
<stop offset="1" stop-opacity="0.0117647"/>
</radialGradient>
<radialGradient id="paint1_radial_3113_1792" cx="0" cy="0" r="1" gradientUnits="userSpaceOnUse" gradientTransform="translate(85.9616 57.9929) rotate(114.83) scale(8.72771 12.8376)">
<stop stop-color="#EBB55D"/>
<stop offset="1" stop-color="#9F601E"/>
</radialGradient>
<radialGradient id="paint2_radial_3113_1792" cx="0" cy="0" r="1" gradientUnits="userSpaceOnUse" gradientTransform="translate(78.6989 58.5022) rotate(-14.8215) scale(10.4604 19.4766)">
<stop stop-color="#531108"/>
<stop offset="1" stop-color="#924E15"/>
</radialGradient>
<radialGradient id="paint3_radial_3113_1792" cx="0" cy="0" r="1" gradientUnits="userSpaceOnUse" gradientTransform="translate(93.9906 73.7414) rotate(-155.48) scale(14.8644 31.3426)">
<stop stop-color="#531108"/>
<stop offset="1" stop-color="#924E15"/>
</radialGradient>
<radialGradient id="paint4_radial_3113_1792" cx="0" cy="0" r="1" gradientUnits="userSpaceOnUse" gradientTransform="translate(73.8786 68.999) rotate(161.398) scale(17.9611 27.9223)">
<stop stop-color="#EBB55D"/>
<stop offset="1" stop-color="#C67826"/>
</radialGradient>
<radialGradient id="paint5_radial_3113_1792" cx="0" cy="0" r="1" gradientUnits="userSpaceOnUse" gradientTransform="translate(55.8757 61.2929) rotate(-17.2957) scale(2.70078 13.8213)">
<stop stop-color="#7E3C11"/>
<stop offset="1" stop-color="#D79848"/>
</radialGradient>
<radialGradient id="paint6_radial_3113_1792" cx="0" cy="0" r="1" gradientUnits="userSpaceOnUse" gradientTransform="translate(70.0165 46.1099) rotate(154.739) scale(34.139 13.438)">
<stop stop-color="#7E3C11"/>
<stop offset="1" stop-color="#D79848"/>
</radialGradient>
<radialGradient id="paint7_radial_3113_1792" cx="0" cy="0" r="1" gradientUnits="userSpaceOnUse" gradientTransform="translate(55.324 61.3278) rotate(24.0384) scale(27.2081 5.44099)">
<stop stop-color="#B36D27"/>
<stop offset="1" stop-color="#D79848"/>
</radialGradient>
<radialGradient id="paint8_radial_3113_1792" cx="0" cy="0" r="1" gradientUnits="userSpaceOnUse" gradientTransform="translate(67.6744 60.4351) rotate(-62.4941) scale(10.7122 17.2711)">
<stop stop-color="#7E3C11"/>
<stop offset="1" stop-color="#D79848"/>
</radialGradient>
<radialGradient id="paint9_radial_3113_1792" cx="0" cy="0" r="1" gradientUnits="userSpaceOnUse" gradientTransform="translate(66.7675 60.9138) rotate(40.747) scale(15.0731 4.52094)">
<stop stop-color="#7E3C11"/>
<stop offset="1" stop-color="#D79848"/>
</radialGradient>
<radialGradient id="paint10_radial_3113_1792" cx="0" cy="0" r="1" gradientUnits="userSpaceOnUse" gradientTransform="translate(100.168 48.4996) rotate(-163.276) scale(39.4833 11.7113)">
<stop stop-color="#C67826"/>
<stop offset="1" stop-color="#EBB55D"/>
</radialGradient>
<radialGradient id="paint11_radial_3113_1792" cx="0" cy="0" r="1" gradientUnits="userSpaceOnUse" gradientTransform="translate(97.4996 61.8448) rotate(-21.224) scale(21.189 8.57575)">
<stop stop-color="#260703"/>
<stop offset="1" stop-color="#924E15"/>
</radialGradient>
<radialGradient id="paint12_radial_3113_1792" cx="0" cy="0" r="1" gradientUnits="userSpaceOnUse" gradientTransform="translate(75.8372 69.5648) rotate(-38.7072) scale(23.1686 4.93201)">
<stop stop-color="#EBB55D"/>
<stop offset="1" stop-color="#C67826"/>
</radialGradient>
<radialGradient id="paint13_radial_3113_1792" cx="0" cy="0" r="1" gradientUnits="userSpaceOnUse" gradientTransform="translate(103.953 49.6312) rotate(117.549) scale(11.5729 2.1291)">
<stop stop-color="#7E3C11"/>
<stop offset="1" stop-color="#D79848"/>
</radialGradient>
<radialGradient id="paint14_radial_3113_1792" cx="0" cy="0" r="1" gradientUnits="userSpaceOnUse" gradientTransform="translate(86.7209 60.4351) rotate(-15.3581) scale(15.5193 4.11054)">
<stop stop-color="#7E3C11"/>
<stop offset="1" stop-color="#D79848"/>
</radialGradient>
</defs>
</svg>
