<svg width="240" height="120" viewBox="0 0 240 120" fill="none" xmlns="http://www.w3.org/2000/svg">
<rect width="240" height="120" fill="#FF6F3D"/>
<g clip-path="url(#clip0_3113_1537)">
<path fill-rule="evenodd" clip-rule="evenodd" d="M140 56V37H141V56H140Z" fill="black"/>
<path d="M107.157 53.835H105.043V48.3991H99.1054V53.835H97V41.7754H99.1054V46.7081H105.043V41.7754H107.157V53.835Z" fill="white"/>
<path d="M114.223 54C112.707 54 111.521 53.5876 110.664 52.7627C109.812 51.9323 109.386 50.7913 109.386 49.3395C109.386 47.8492 109.783 46.6779 110.576 45.8255C111.368 44.9731 112.458 44.547 113.844 44.547C115.13 44.547 116.146 44.9127 116.892 45.644C117.638 46.3754 118.011 47.3818 118.011 48.6631V49.7107H111.518C111.547 50.596 111.803 51.2779 112.285 51.7564C112.766 52.2293 113.444 52.4657 114.319 52.4657C114.895 52.4657 115.429 52.4163 115.923 52.3173C116.422 52.2128 116.956 52.0423 117.526 51.8058V53.3814C117.021 53.6068 116.51 53.7663 115.993 53.8598C115.476 53.9533 114.886 54 114.223 54ZM113.844 46.0152C113.186 46.0152 112.657 46.2105 112.258 46.6009C111.865 46.9913 111.63 47.5605 111.553 48.3084H115.976C115.964 47.555 115.77 46.9858 115.394 46.6009C115.018 46.2105 114.502 46.0152 113.844 46.0152Z" fill="white"/>
<path d="M122.072 53.835H120.001V41H122.072V53.835Z" fill="white"/>
<path d="M126.75 53.835H124.68V41H126.75V53.835Z" fill="white"/>
<path d="M138 49.257C138 50.7473 137.592 51.9103 136.776 52.7462C135.959 53.5821 134.823 54 133.367 54C132.456 54 131.652 53.8075 130.953 53.4226C130.254 53.0376 129.717 52.485 129.341 51.7646C128.965 51.0442 128.777 50.2083 128.777 49.257C128.777 47.7777 129.182 46.6229 129.993 45.7925C130.803 44.9621 131.945 44.547 133.419 44.547C134.829 44.547 135.945 44.9731 136.767 45.8255C137.589 46.6724 138 47.8162 138 49.257ZM130.909 49.257C130.909 51.3632 131.74 52.4162 133.402 52.4162C135.046 52.4162 135.868 51.3632 135.868 49.257C135.868 47.1728 135.04 46.1307 133.384 46.1307C132.515 46.1307 131.884 46.4002 131.49 46.9391C131.103 47.478 130.909 48.2506 130.909 49.257Z" fill="white"/>
<g filter="url(#filter0_d_3113_1537)">
<path d="M91 62H148V83H91V62Z" fill="white"/>
</g>
<g filter="url(#filter1_d_3113_1537)">
<path fill-rule="evenodd" clip-rule="evenodd" d="M147.394 62.5676H91.6064V82.4324H147.394V62.5676ZM91 62V83H148V62H91Z" fill="#CCCCCC"/>
</g>
<path fill-rule="evenodd" clip-rule="evenodd" d="M133.661 69.4095C133.429 69.6287 133.429 69.9979 133.661 70.2171L136.645 73.0361L136.645 73.0361L133.661 75.855C133.429 76.0742 133.429 76.4434 133.661 76.6626C133.875 76.8649 134.21 76.8649 134.424 76.6626L137.454 73.8003L140.483 76.6626C140.698 76.8649 141.032 76.8649 141.246 76.6626C141.478 76.4434 141.478 76.0742 141.246 75.855L138.263 73.0361L138.263 73.0361L141.246 70.2171C141.479 69.9979 141.479 69.6287 141.246 69.4095C141.032 69.2072 140.698 69.2072 140.483 69.4095L137.454 72.2718L137.454 72.2718L137.454 72.2718L134.424 69.4095C134.21 69.2072 133.875 69.2072 133.661 69.4095Z" fill="#808080"/>
<path d="M106.646 76.1893H105.64V72.376H101.08V76.1893H100.073V68.086H101.08V71.5335H105.64V68.086H106.646V76.1893Z" fill="#808080"/>
<path d="M111.378 76.3002C110.419 76.3002 109.661 76.0267 109.104 75.4798C108.551 74.933 108.275 74.1736 108.275 73.2018C108.275 72.2226 108.532 71.4448 109.045 70.8684C109.562 70.2919 110.255 70.0037 111.123 70.0037C111.937 70.0037 112.58 70.255 113.054 70.7575C113.528 71.2563 113.764 71.9159 113.764 72.7362V73.3182H109.294C109.313 74.0314 109.505 74.5727 109.868 74.9422C110.235 75.3117 110.75 75.4965 111.414 75.4965C112.112 75.4965 112.803 75.3598 113.486 75.0863V75.9066C113.139 76.047 112.809 76.1468 112.497 76.2059C112.189 76.2688 111.816 76.3002 111.378 76.3002ZM111.112 70.7741C110.59 70.7741 110.174 70.933 109.862 71.2508C109.554 71.5686 109.373 72.0083 109.317 72.57H112.71C112.71 71.9898 112.572 71.5464 112.296 71.2397C112.02 70.9293 111.625 70.7741 111.112 70.7741Z" fill="#808080"/>
<path d="M116.187 76.1893H115.204V67.5649H116.187V76.1893Z" fill="#808080"/>
<path d="M119.012 76.1893H118.029V67.5649H119.012V76.1893Z" fill="#808080"/>
<path d="M126.455 73.1464C126.455 74.1367 126.189 74.9108 125.656 75.4688C125.123 76.023 124.387 76.3002 123.447 76.3002C122.867 76.3002 122.352 76.1727 121.902 75.9177C121.452 75.6628 121.104 75.2969 120.859 74.8203C120.615 74.3436 120.492 73.7856 120.492 73.1464C120.492 72.1561 120.757 71.3857 121.286 70.8351C121.815 70.2808 122.549 70.0037 123.489 70.0037C124.397 70.0037 125.117 70.2864 125.65 70.8517C126.187 71.4171 126.455 72.182 126.455 73.1464ZM121.511 73.1464C121.511 73.9224 121.677 74.5136 122.008 74.92C122.34 75.3265 122.827 75.5297 123.471 75.5297C124.114 75.5297 124.602 75.3283 124.934 74.9256C125.269 74.5191 125.437 73.9261 125.437 73.1464C125.437 72.3741 125.269 71.7884 124.934 71.3894C124.602 70.9866 124.11 70.7852 123.459 70.7852C122.816 70.7852 122.33 70.9829 122.002 71.3783C121.675 71.7737 121.511 72.363 121.511 73.1464Z" fill="#808080"/>
</g>
<defs>
<filter id="filter0_d_3113_1537" x="76" y="54" width="87" height="51" filterUnits="userSpaceOnUse" color-interpolation-filters="sRGB">
<feFlood flood-opacity="0" result="BackgroundImageFix"/>
<feColorMatrix in="SourceAlpha" type="matrix" values="0 0 0 0 0 0 0 0 0 0 0 0 0 0 0 0 0 0 127 0" result="hardAlpha"/>
<feOffset dy="7"/>
<feGaussianBlur stdDeviation="7.5"/>
<feColorMatrix type="matrix" values="0 0 0 0 0.333333 0 0 0 0 0.333333 0 0 0 0 0.333333 0 0 0 0.1 0"/>
<feBlend mode="normal" in2="BackgroundImageFix" result="effect1_dropShadow_3113_1537"/>
<feBlend mode="normal" in="SourceGraphic" in2="effect1_dropShadow_3113_1537" result="shape"/>
</filter>
<filter id="filter1_d_3113_1537" x="76" y="54" width="87" height="51" filterUnits="userSpaceOnUse" color-interpolation-filters="sRGB">
<feFlood flood-opacity="0" result="BackgroundImageFix"/>
<feColorMatrix in="SourceAlpha" type="matrix" values="0 0 0 0 0 0 0 0 0 0 0 0 0 0 0 0 0 0 127 0" result="hardAlpha"/>
<feOffset dy="7"/>
<feGaussianBlur stdDeviation="7.5"/>
<feColorMatrix type="matrix" values="0 0 0 0 0.333333 0 0 0 0 0.333333 0 0 0 0 0.333333 0 0 0 0.1 0"/>
<feBlend mode="normal" in2="BackgroundImageFix" result="effect1_dropShadow_3113_1537"/>
<feBlend mode="normal" in="SourceGraphic" in2="effect1_dropShadow_3113_1537" result="shape"/>
</filter>
<clipPath id="clip0_3113_1537">
<rect width="170" height="85" fill="white" transform="translate(35 18)"/>
</clipPath>
</defs>
</svg>
