<svg width="240" height="120" viewBox="0 0 240 120" fill="none" xmlns="http://www.w3.org/2000/svg">
<rect width="240" height="120" fill="url(#paint0_linear_3113_2032)"/>
<path d="M129.145 73.6392H111.857C111.758 73.639 111.661 73.6655 111.575 73.7161C111.489 73.7667 111.417 73.8395 111.367 73.9273C111.317 74.0152 111.29 74.115 111.29 74.2167C111.289 74.3185 111.314 74.4187 111.363 74.5074L112.61 76.0549H128.391L129.639 74.5074C129.687 74.4188 129.713 74.3186 129.712 74.2169C129.711 74.1152 129.684 74.0155 129.634 73.9277C129.584 73.8399 129.513 73.767 129.427 73.7164C129.341 73.6658 129.244 73.6391 129.145 73.6392Z" fill="#DFDFDF"/>
<path d="M132.904 84.6919H108.096C107.54 84.6919 107.007 84.9189 106.614 85.3229C106.221 85.7269 106 86.2749 106 86.8462H135C135 86.2749 134.779 85.7269 134.386 85.3229C133.993 84.9189 133.46 84.6919 132.904 84.6919Z" fill="#DFDFDF"/>
<path d="M124.608 86.8457H106V89H124.608H135V86.8457H124.608Z" fill="#F0F0F0"/>
<path d="M132.525 79.652C131.479 79.0154 130.506 78.2591 129.625 77.3974C129.4 77.1775 129.182 76.9508 128.969 76.7173C128.89 76.6261 128.415 76.0723 128.415 76.0723H112.588C112.588 76.0723 112.113 76.6261 112.034 76.7173C111.822 76.9503 111.604 77.177 111.378 77.3974C110.938 77.8274 110.476 78.2315 109.992 78.6078C109.507 78.985 109.002 79.3336 108.478 79.652C107.338 80.3426 106 80.9674 106 82.5393C106 83.1105 106.221 83.6583 106.614 84.0621C107.007 84.466 107.54 84.6928 108.096 84.6928H132.904C133.46 84.6928 133.993 84.466 134.386 84.0621C134.779 83.6583 135 83.1105 135 82.5393C135 80.9674 133.662 80.3426 132.525 79.652Z" fill="#F0F0F0"/>
<path d="M132.652 44.9617C131.724 42.6079 130.195 40.5557 128.225 39.0224C127.238 38.2618 126.157 37.6377 125.011 37.1662C123.951 36.7247 121.409 36.1318 121.409 36.2703V32.39C121.41 32.3247 121.394 32.2603 121.363 32.2029C121.333 32.1455 121.289 32.0969 121.235 32.0616C121.182 32.0263 121.12 32.0055 121.057 32.0009C120.994 31.9964 120.93 32.0084 120.872 32.0357C120.019 32.4445 119.273 33.0561 118.696 33.8199C118.119 34.5837 117.726 35.4778 117.552 36.4283V36.4356H117.547C116.553 36.4356 115.854 36.9504 115.227 37.8202C115.227 37.8202 108.555 46.4253 108.555 46.4261C108.183 46.8835 107.965 47.4528 107.935 48.0484C107.905 48.644 108.063 49.2336 108.388 49.7283C108.712 50.2229 109.183 50.5959 109.732 50.791C110.28 50.986 110.875 50.9926 111.427 50.8097C111.803 50.1071 112.314 49.4904 112.928 48.9971C113.543 48.5038 114.249 48.1443 115.003 47.9403C115.198 47.8957 115.396 47.8733 115.595 47.8735C115.765 47.8729 115.935 47.8895 116.102 47.9232C116.261 47.9549 116.403 48.0193 116.556 48.06C116.88 48.1474 117.212 48.1918 117.547 48.1919C118.376 48.1914 119.185 47.925 119.86 47.4299C120.536 46.9347 121.044 46.2353 121.314 45.4292V45.4341C121.34 45.7599 121.353 46.0903 121.354 46.4253C121.357 48.7051 120.731 50.9391 119.549 52.8679C119.446 53.0121 119.055 53.548 118.483 54.2037C117.216 55.6348 115.58 56.6472 114.23 57.9911C111.303 60.9148 109.593 64.8913 109.459 69.0844C109.459 69.0844 109.459 69.0844 109.459 69.0885C109.43 69.587 109.444 70.0863 109.444 70.5847C109.445 71.2553 109.657 71.9077 110.049 72.4435C110.441 72.9794 110.992 73.3698 111.619 73.556C112.043 73.6814 112.928 73.6374 112.928 73.6374H128.494C129.262 73.6376 130 73.3276 130.548 72.7742C131.097 72.2207 131.412 71.4682 131.426 70.6784C131.414 70.5063 131.403 70.3341 131.392 70.162C131.338 69.2319 131.307 68.2952 131.307 67.3512C131.307 63.8994 131.624 60.1886 132.404 56.7425C132.563 56.0396 132.74 55.3472 132.937 54.6712C133.859 51.5118 133.862 48.0445 132.652 44.9617Z" fill="#F0F0F0"/>
<path d="M112.94 73.6383H128.503C129.271 73.6384 130.009 73.3284 130.557 72.775C131.106 72.2216 131.421 71.469 131.435 70.6792C131.423 70.5071 131.412 70.335 131.401 70.1629C131.347 69.2327 131.315 68.296 131.315 67.352C131.315 64.1617 131.59 60.7547 132.244 57.5317C131.234 61.4535 126.881 73.5552 111.63 73.5552C111.838 73.6055 112.05 73.6328 112.264 73.6367L112.94 73.6383Z" fill="#DFDFDF"/>
<path d="M119.376 36.2577H121.414V32.3896C121.414 32.3896 119.11 36.2577 119.376 36.2577Z" fill="#CACACA"/>
<defs>
<linearGradient id="paint0_linear_3113_2032" x1="120" y1="0" x2="120" y2="120" gradientUnits="userSpaceOnUse">
<stop stop-color="#FF8E3E"/>
<stop offset="0.995" stop-color="#FF713E"/>
</linearGradient>
</defs>
</svg>
