<svg width="240" height="120" viewBox="0 0 240 120" fill="none" xmlns="http://www.w3.org/2000/svg">
<rect width="240" height="120" fill="#052B47"/>
<path fill-rule="evenodd" clip-rule="evenodd" d="M69.4664 57.6607C69.4664 59.5498 71.0107 61.0803 72.9169 61.0803C74.8217 61.0803 76.3667 59.5498 76.3667 57.6607C76.3667 55.7722 74.8217 54.2411 72.9169 54.2411C72.0507 54.2411 71.2587 54.5585 70.6529 55.082L62.4311 50.3906C62.4706 50.184 62.4931 49.9712 62.4931 49.7537C62.4931 47.8653 60.9481 46.3341 59.0419 46.3341C57.1357 46.3341 55.5907 47.8653 55.5907 49.7537C55.5907 51.6421 57.1357 53.1733 59.0419 53.1733C59.889 53.1733 60.6653 52.87 61.2657 52.3675L69.5175 57.0765C69.4834 57.2662 69.4664 57.4614 69.4664 57.6607ZM59.0003 69.0413C60.9065 69.0413 62.4509 67.5101 62.4509 65.6217C62.4509 65.4123 62.4311 65.2077 62.3957 65.0084L68.4223 61.5753C67.9146 61.0026 67.5152 60.3326 67.2583 59.5971L61.2425 63.0234C60.6394 62.5114 59.857 62.2014 59.0003 62.2014C57.0955 62.2014 55.5505 63.7326 55.5505 65.6217C55.5505 67.5101 57.0955 69.0413 59.0003 69.0413ZM66.8139 35.4736L83.1989 44.7523C84.3295 45.3926 85.0274 46.5854 85.0274 47.8754V66.7489C85.0274 68.0349 84.335 69.2229 83.2105 69.8653L75.0255 74.5397L75.0207 86L46.8149 69.8653C45.6917 69.2229 45 68.0349 45 66.7503V47.8754C45 46.5854 45.6979 45.3926 46.8292 44.7523L63.2128 35.4736C64.3284 34.8421 65.6983 34.8421 66.8139 35.4736ZM96.4641 47.7508C96.4641 46.9687 97.104 46.3345 97.8932 46.3345H102.711C105.832 46.3345 108.299 46.3346 109.957 47.1721C111.763 48.0853 113.06 49.3138 114.043 51.0415C115.125 52.9414 115.65 55.0683 115.65 57.5403C115.65 59.3118 115.356 60.9098 114.752 62.4247C114.168 63.8883 113.332 65.1344 112.27 66.1286C111.015 67.3045 109.928 68.0056 108.847 68.3372C107.347 68.8005 105.01 69.066 102.434 69.066H97.8932C97.104 69.066 96.4641 68.4317 96.4641 67.6503V47.7508ZM182.953 46.905C182.953 46.5896 183.212 46.3345 183.529 46.3345H186.734C187.051 46.3345 187.31 46.5896 187.31 46.905V65.3841H194.422C194.739 65.3841 195 65.6394 195 65.9561V68.4952C195 68.8106 194.739 69.0666 194.422 69.0666H183.529C183.212 69.0666 182.953 68.8106 182.953 68.4952V46.905ZM103.016 50.0169H100.821V65.3841H103.577C105.539 65.3841 106.947 64.8068 108.066 64.2428C108.879 63.8315 109.672 62.9338 110.36 61.6472C110.93 60.5739 111.246 59.08 111.246 57.4421C111.246 55.0053 110.554 53.1447 109.13 51.754C107.932 50.5849 105.933 50.0169 103.016 50.0169ZM121.261 53.7263C122.978 51.9831 125.072 51.1356 127.661 51.1356C130.413 51.1356 132.587 51.9831 134.308 53.7263C135.936 55.375 136.869 58.0066 136.869 60.95L136.866 61.5139C136.864 61.8286 136.606 62.0818 136.289 62.0818H122.866C123.09 63.0875 123.578 63.8426 124.457 64.566C125.283 65.2447 126.399 65.5752 127.868 65.5752C129.339 65.5752 130.668 65.0746 131.819 64.0892C131.99 63.9427 132.234 63.9095 132.437 64.0027L135.014 65.1771C135.176 65.2521 135.296 65.3974 135.334 65.5703C135.374 65.7438 135.331 65.9257 135.217 66.0621C134.423 67.0083 133.489 67.7451 132.437 68.253C131.188 68.8568 129.662 69.1635 127.901 69.1635C125.16 69.1635 122.991 68.332 121.269 66.6198C119.545 64.9077 118.709 62.8221 118.709 60.2448C118.709 57.604 119.543 55.4716 121.261 53.7263ZM142.48 53.7263C144.197 51.9831 146.289 51.1356 148.879 51.1356C151.63 51.1356 153.803 51.9831 155.527 53.7263C157.154 55.3736 158.087 58.006 158.087 60.95L158.083 61.5139C158.081 61.8286 157.825 62.0818 157.507 62.0818H144.084C144.309 63.0868 144.794 63.8428 145.673 64.5668C146.502 65.2449 147.617 65.5752 149.087 65.5752C150.556 65.5752 151.885 65.0746 153.037 64.0892C153.208 63.9427 153.451 63.9095 153.655 64.0027L156.233 65.1771C156.396 65.2521 156.514 65.3976 156.553 65.5711C156.594 65.744 156.549 65.9256 156.435 66.0627C155.642 67.0082 154.707 67.7451 153.655 68.253C152.407 68.8568 150.88 69.1635 149.119 69.1635C146.379 69.1635 144.21 68.332 142.488 66.6198C140.765 64.9063 139.928 62.8215 139.928 60.2448C139.928 57.604 140.763 55.4716 142.48 53.7263ZM168.594 51.7177C169.476 51.3415 170.536 51.1356 171.582 51.1356C173.851 51.1356 175.796 51.9878 177.365 53.6703C178.952 55.3655 179.754 57.5566 179.754 60.1812C179.754 62.766 178.954 64.8623 177.313 66.5894C175.668 68.3211 173.774 69.1641 171.521 69.1641C170.529 69.1641 169.595 68.9857 168.743 68.6371C167.943 68.3089 166.809 67.7483 165.932 66.9352L165.524 66.628V74.845C165.524 75.1611 165.266 75.4169 164.947 75.4169H161.743C161.425 75.4169 161.167 75.1615 161.167 74.8461V52.6181C161.167 52.304 161.424 52.0493 161.741 52.0493H163.679L165.524 53.767L165.934 53.4427C166.622 52.7666 167.566 52.154 168.594 51.7177ZM130.874 55.6777C129.938 55.0124 128.929 54.6749 127.878 54.6749C126.651 54.6749 125.559 55.0212 124.632 55.7027C124.12 56.0775 123.587 56.8738 123.005 58.1375L122.905 58.3982H132.668L132.6 58.1192C132.297 57.1162 131.697 56.2619 130.874 55.6777ZM152.092 55.6777C151.157 55.0118 150.147 54.6749 149.095 54.6749C147.869 54.6749 146.778 55.0212 145.848 55.7027C145.334 56.0802 144.803 56.8766 144.225 58.1369L144.124 58.3982H153.887L153.818 58.1201C153.516 57.1164 152.916 56.2619 152.092 55.6777ZM174.18 56.4483C173.277 55.4919 172.119 55.0082 170.739 55.0082C169.35 55.0082 168.182 55.4844 167.267 56.4239C166.352 57.3627 165.888 58.6048 165.888 60.1191C165.888 61.6624 166.352 62.9294 167.266 63.8851C168.182 64.8388 169.35 65.3238 170.739 65.3238C172.087 65.3238 173.238 64.8307 174.158 63.8601C175.077 62.8903 175.544 61.6372 175.544 60.1345C175.544 58.6425 175.084 57.402 174.18 56.4483Z" fill="white"/>
</svg>
