<svg width="240" height="120" viewBox="0 0 240 120" fill="none" xmlns="http://www.w3.org/2000/svg">
<rect width="240" height="120" fill="#F1F1F1"/>
<path d="M146.252 87.7275C145.381 88.5446 144.226 89 143.025 89C141.825 89 140.67 88.5446 139.798 87.7275V87.5992L102.524 49.4645L101.876 49.7723C99.8821 50.7049 97.9962 51.8485 96.2513 53.1831L96.0439 53.3883C94.7887 54.8754 93.9012 56.6316 93.4518 58.5173C93.2772 59.1897 93.034 59.8427 92.726 60.4664C92.2595 60.0304 91.5855 58.3634 92.3372 52.0803C92.7749 49.5591 94.0414 47.2514 95.9402 45.5151C96.1994 45.2586 96.6142 44.8483 96.5623 44.3867C96.9534 43.2816 97.6225 42.2931 98.5064 41.5144C99.3542 40.7571 100.328 40.1499 101.384 39.7193L102.083 39.4115L101.928 38.7191C101.939 37.9519 102.193 37.2075 102.654 36.5905L107.371 32L115.148 39.3602C113.625 40.8208 112.024 42.1991 110.352 43.4891C109.661 44.1009 108.822 44.525 107.916 44.7201H107.501L106.049 46.105L146.201 81.5725C146.631 81.9626 146.976 82.4361 147.213 82.9637C147.45 83.4912 147.575 84.0614 147.58 84.6388C147.585 85.2162 147.47 85.7885 147.241 86.3199C147.013 86.8512 146.676 87.3304 146.252 87.7275Z" fill="#717171"/>
<path d="M93.4259 87.1122C93.0071 86.7193 92.6735 86.246 92.4456 85.7213C92.2176 85.1967 92.1001 84.6315 92.1001 84.0604C92.1001 83.4893 92.2176 82.9243 92.4456 82.3996C92.6735 81.8749 93.0071 81.4016 93.4259 81.0086L127.123 51.4908L126.786 50.901C125.683 48.8218 125.299 46.4425 125.692 44.1268C126.085 41.8112 127.234 39.6867 128.963 38.0783C130.329 36.801 131.978 35.8576 133.779 35.3232C135.579 34.7889 137.481 34.6785 139.332 35.0008L132.514 41.4635L134.51 48.5672L142.001 50.4393L148.845 43.8741C149.152 45.6499 149.002 47.4738 148.408 49.1771C147.815 50.8804 146.797 52.4082 145.449 53.6194C143.653 55.3133 141.373 56.419 138.92 56.7861C136.467 57.1532 133.959 56.7638 131.737 55.671L131.115 55.3632L100.01 87.0609C99.1357 87.9169 97.9582 88.4013 96.7284 88.4109C95.4986 88.4205 94.3136 87.9545 93.4259 87.1122Z" fill="#717171"/>
</svg>
