<svg width="240" height="120" viewBox="0 0 240 120" fill="none" xmlns="http://www.w3.org/2000/svg">
<rect width="240" height="120" fill="#444444"/>
<path fill-rule="evenodd" clip-rule="evenodd" d="M127.498 34.9339C138.738 38.0035 147 48.2872 147 60.5008C147 75.136 135.135 87 120.5 87C105.864 87 94 75.136 94 60.5008C94 48.2869 102.262 38.003 113.503 34.9337L120.5 43.5443L127.498 34.9339ZM128.868 33.2483C140.524 36.8235 149 47.6723 149 60.5008C149 76.2406 136.24 89 120.5 89C104.76 89 92 76.2406 92 60.5008C92 44.7601 104.76 32 120.5 32C120.5 32 120.5 32 120.5 32C123.412 32 126.222 32.4367 128.868 33.2483L128.868 33.2483ZM120.229 77.3065L135.708 61.7654H129.191V48.9038L120.643 59.6218L111.811 48.9038V61.7654H104.749L120.229 77.3065Z" fill="white"/>
</svg>
