<svg width="240" height="120" viewBox="0 0 240 120" fill="none" xmlns="http://www.w3.org/2000/svg">
<rect width="240" height="120" fill="url(#paint0_linear_3113_2002)"/>
<rect x="92" y="32" width="57" height="57" rx="3" fill="white"/>
<path fill-rule="evenodd" clip-rule="evenodd" d="M112.357 42.1431C112.357 41.0385 113.253 40.1431 114.357 40.1431H126.643C127.747 40.1431 128.643 41.0385 128.643 42.1431V51.7145C128.643 52.8191 127.747 53.7145 126.643 53.7145H124.781L131.833 65.9288H138.857C139.962 65.9288 140.857 66.8242 140.857 67.9288V77.5002C140.857 78.6048 139.962 79.5002 138.857 79.5002H126.571C125.467 79.5002 124.571 78.6048 124.571 77.5002V67.9288C124.571 66.8242 125.467 65.9288 126.571 65.9288H128.699L121.647 53.7145H119.353L112.301 65.9288H114.429C115.533 65.9288 116.429 66.8242 116.429 67.9288V77.5002C116.429 78.6048 115.533 79.5002 114.429 79.5002H102.143C101.038 79.5002 100.143 78.6048 100.143 77.5002V67.9288C100.143 66.8242 101.038 65.9288 102.143 65.9288H109.167L116.219 53.7145H114.357C113.253 53.7145 112.357 52.8191 112.357 51.7145V42.1431Z" fill="#FD9117"/>
<defs>
<linearGradient id="paint0_linear_3113_2002" x1="120" y1="0" x2="120" y2="120" gradientUnits="userSpaceOnUse">
<stop stop-color="#FE951F"/>
<stop offset="1" stop-color="#F08705"/>
</linearGradient>
</defs>
</svg>
