<svg width="240" height="120" viewBox="0 0 240 120" fill="none" xmlns="http://www.w3.org/2000/svg">
<rect width="240" height="120" fill="#1D3F5A"/>
<path d="M74.3686 72.2318L75.1765 74.1772V74.3784C74.041 74.8554 72.8401 75.2655 71.5736 75.6083C70.3218 75.9363 69.0189 76.1823 67.6651 76.3462C66.3259 76.5101 64.9356 76.5922 63.4945 76.5922C60.9034 76.5922 58.5743 76.2494 56.5072 75.5636C54.4401 74.863 52.6787 73.8492 51.223 72.5225C49.7673 71.1958 48.661 69.5782 47.904 67.6701C47.147 65.762 46.7686 63.6004 46.7686 61.1854C46.7686 58.025 47.4673 55.2597 48.8648 52.8894C50.2768 50.5042 52.2929 48.6557 54.9132 47.3439C57.5334 46.0171 60.6632 45.3537 64.3024 45.3537C65.3651 45.3537 66.384 45.4208 67.3594 45.555C68.3348 45.6742 69.4337 45.8904 70.6565 46.2034L68.866 46.5612L71.792 44.4146H72.447L73.9537 55.3715L72.7527 55.6175L68.2546 47.9923L70.591 50.4073C69.4702 49.5278 68.3274 48.8793 67.1629 48.4619C66.0128 48.0445 64.7319 47.8358 63.3198 47.8358C61.6167 47.8358 60.11 48.0818 58.7999 48.5737C57.4898 49.0657 56.3907 49.8036 55.5027 50.7875C54.6148 51.7714 53.9379 52.9938 53.472 54.4547C53.0208 55.9156 52.7951 57.6151 52.7951 59.553C52.7951 62.7283 53.2828 65.4042 54.2581 67.5807C55.248 69.7423 56.5872 71.3747 58.2758 72.4777C59.979 73.5808 61.8932 74.1325 64.0186 74.1325C64.9066 74.1325 65.7582 74.058 66.5733 73.9089C67.403 73.7449 68.1673 73.5137 68.866 73.2157C69.5794 72.9026 70.1689 72.5299 70.6347 72.0976L68.6258 75.0493V64.8079L64.9356 63.5109V62.5718H77.2508V63.5109L74.3686 64.7408V72.2318ZM102.422 77.6655H101.723L98.7536 76.0555H85.4777V73.6182H100.631L98.1859 74.4455L103.405 66.2166L104.496 66.485L102.422 77.6655ZM88.622 48.0594V76.0555H79.5603V75.1387L82.8356 73.9089V48.0594L79.5603 46.8296V45.9127H91.9191V46.8296L88.622 48.0594ZM103.595 48.1041L100.342 46.8296V45.9127H113.552V46.8296L109.84 48.0594L119.164 71.3821L117.985 71.4268L126.195 48.0818L122.68 46.8296V45.9127H132.047V46.8296L128.793 48.0818L118.378 76.3239H115.19L103.595 48.1041ZM146.332 59.6201C148.035 59.6201 149.425 59.1431 150.502 58.189C151.579 57.22 152.118 55.8187 152.118 53.9851C152.118 52.7925 151.878 51.7788 151.398 50.944C150.932 50.0943 150.168 49.4532 149.105 49.0209C148.042 48.5737 146.637 48.3501 144.891 48.3501H137.619L138.471 45.9127H147.642C150.116 45.9127 152.104 46.2556 153.603 46.9414C155.102 47.6122 156.194 48.5141 156.878 49.6471C157.577 50.78 157.926 52.0471 157.926 53.4484C157.926 54.7752 157.621 55.9678 157.009 57.0262C156.398 58.0846 155.495 58.9567 154.302 59.6425C153.108 60.3282 151.623 60.768 149.847 60.9618V60.85C151.114 60.9096 152.118 61.1109 152.861 61.4537C153.618 61.7817 154.222 62.2811 154.673 62.9519C155.139 63.6227 155.553 64.5098 155.917 65.6129L157.839 71.3373C158.188 72.3362 158.516 73.0665 158.822 73.5287C159.142 73.9759 159.513 74.2592 159.935 74.3784C160.357 74.4829 160.881 74.535 161.507 74.535V76.1002C159.717 76.2344 158.261 76.2791 157.14 76.2344C156.019 76.1897 155.131 76.0258 154.476 75.7425C153.821 75.4444 153.304 74.9972 152.926 74.4008C152.562 73.8044 152.242 73.0218 151.965 72.0529L150.175 66.239C149.84 65.1359 149.505 64.2862 149.17 63.6898C148.85 63.0787 148.45 62.6538 147.969 62.4152C147.504 62.1767 146.878 62.0575 146.092 62.0575H138.318L137.467 59.6201H146.332ZM142.358 45.9127V73.8865L145.655 75.1387V76.0555H133.274V75.1387L136.593 73.8865V48.0594L133.274 46.8296V45.9127H142.358ZM187.15 60.604C187.15 56.4001 186.073 53.3068 183.919 51.3241C181.779 49.3414 178.816 48.3501 175.032 48.3501H169.114L168.743 45.9127H176.102C179.916 45.9127 183.089 46.4345 185.622 47.478C188.155 48.5215 190.054 50.0943 191.321 52.1962C192.587 54.2982 193.221 56.9293 193.221 60.0897C193.221 63.4886 192.478 66.3732 190.993 68.7434C189.509 71.1137 187.478 72.925 184.901 74.1772C182.325 75.4294 179.413 76.0555 176.167 76.0555H168.743L169.114 73.6182H175.468C177.827 73.6182 179.879 73.1783 181.626 72.2989C183.373 71.4044 184.727 70.0031 185.687 68.095C186.663 66.1719 187.15 63.6749 187.15 60.604ZM162.978 76.0555V75.1387L166.254 73.9089V48.0594L162.978 46.8296V45.9127H172.04V76.0555H162.978Z" fill="#FF6F3D"/>
</svg>
