<svg width="240" height="120" viewBox="0 0 240 120" fill="none" xmlns="http://www.w3.org/2000/svg">
<rect width="240" height="120" fill="#F1F1F1"/>
<path d="M125.234 39.0402L119.146 32.9521L91.9504 60.1478L108.946 77.1436L115.029 71.0603L104.122 60.1526L125.234 39.0402Z" fill="#073F77"/>
<path fill-rule="evenodd" clip-rule="evenodd" d="M119.147 32.0015L126.184 39.0389L105.072 60.1512L115.98 71.059L108.945 78.0934L91.0002 60.1483L119.147 32.0015ZM104.122 60.1522L125.234 39.0398L119.146 32.9517L91.9504 60.1473L108.946 77.1431L115.029 71.0599L104.122 60.1522Z" fill="#BFDFFA"/>
<path d="M124.219 39.0426L119.146 33.9692L92.967 60.1482L108.948 76.1293L114.031 71.046L103.124 60.1383L124.219 39.0426Z" fill="#63A1D0"/>
<path fill-rule="evenodd" clip-rule="evenodd" d="M103.124 60.1383L124.219 39.0426L119.146 33.9692L92.967 60.1482L108.948 76.1293L114.031 71.046L103.124 60.1383ZM113.081 71.047L102.173 60.1392L123.269 39.0435L119.145 34.9195L93.9173 60.1473L108.949 75.179L113.081 71.047Z" fill="#316F9D"/>
<path d="M113.766 81.9598L119.854 88.0479L147.05 60.8522L130.054 43.8564L123.971 49.9397L134.879 60.8474L113.766 81.9598Z" fill="#073F77"/>
<path fill-rule="evenodd" clip-rule="evenodd" d="M119.854 88.9985L112.816 81.9611L133.928 60.8488L123.021 49.941L130.055 42.9066L148 60.8517L119.854 88.9985ZM134.879 60.8478L113.766 81.9602L119.854 88.0483L147.05 60.8527L130.054 43.8569L123.971 49.9401L134.879 60.8478Z" fill="#BFDFFA"/>
<path d="M114.782 81.9569L119.855 87.0303L146.034 60.8513L130.053 44.8702L124.97 49.9535L135.878 60.8612L114.782 81.9569Z" fill="#63A1D0"/>
<path fill-rule="evenodd" clip-rule="evenodd" d="M135.878 60.8612L114.782 81.9569L119.855 87.0303L146.034 60.8513L130.053 44.8702L124.97 49.9535L135.878 60.8612ZM125.92 49.9526L136.828 60.8603L115.732 81.956L119.856 86.08L145.084 60.8522L130.052 45.8205L125.92 49.9526Z" fill="#316F9D"/>
<path d="M125.658 60.4102L119.494 66.5744L113.342 60.4222L119.506 54.258L125.658 60.4102Z" fill="#073F77"/>
<path fill-rule="evenodd" clip-rule="evenodd" d="M126.609 60.4092L119.493 67.5246L112.392 60.4231L119.507 53.3076L126.609 60.4092ZM125.659 60.4101L119.506 54.2579L113.342 60.4221L119.494 66.5743L125.659 60.4101Z" fill="#BFDFFA"/>
<path d="M124.632 60.4111L119.495 65.548L114.369 60.4212L119.505 55.2843L124.632 60.4111Z" fill="#63A1D0"/>
<path fill-rule="evenodd" clip-rule="evenodd" d="M119.496 64.5977L123.682 60.4121L119.505 56.2346L115.319 60.4202L119.496 64.5977ZM124.632 60.4111L119.505 55.2843L114.369 60.4212L119.495 65.548L124.632 60.4111Z" fill="#316F9D"/>
</svg>
