<svg width="240" height="120" viewBox="0 0 240 120" fill="none" xmlns="http://www.w3.org/2000/svg">
<rect width="240" height="120" fill="#313948"/>
<path d="M51.2547 56.4845L46.7129 66.0386C46.5734 66.338 46.4442 66.5461 46.3253 66.6629C46.2065 66.7796 46.067 66.838 45.9068 66.838C45.6691 66.838 45.4573 66.7644 45.2713 66.6172C45.0904 66.47 45 66.2873 45 66.0691C45 65.9219 45.0698 65.6935 45.2093 65.3839L45.2248 65.3535L49.7588 55.8146C49.9035 55.505 50.0352 55.2918 50.1541 55.1751C50.2729 55.0584 50.4124 55 50.5726 55C50.8051 55 51.0144 55.0736 51.2004 55.2208C51.3864 55.368 51.4794 55.5507 51.4794 55.7689C51.4794 55.8603 51.4639 55.9567 51.4329 56.0582C51.4019 56.1597 51.3425 56.3018 51.2547 56.4845Z" fill="#71A9CD"/>
<path d="M60.7878 56.4845L56.246 66.0386C56.1065 66.338 55.9773 66.5461 55.8584 66.6629C55.7396 66.7796 55.6001 66.838 55.4399 66.838C55.2022 66.838 54.9904 66.7644 54.8044 66.6172C54.6235 66.47 54.5331 66.2873 54.5331 66.0691C54.5331 65.9219 54.6029 65.6935 54.7424 65.3839L54.7579 65.3535L59.2919 55.8146C59.4366 55.505 59.5683 55.2918 59.6872 55.1751C59.806 55.0584 59.9455 55 60.1057 55C60.3382 55 60.5475 55.0736 60.7335 55.2208C60.9195 55.368 61.0125 55.5507 61.0125 55.7689C61.0125 55.8603 60.997 55.9567 60.966 56.0582C60.935 56.1597 60.8756 56.3018 60.7878 56.4845Z" fill="#71A9CD"/>
<path d="M65.9263 58.6009V60.3518H68.4608V58.6009H68.3367C68.0577 58.6009 67.8433 58.5298 67.6935 58.3877C67.5488 58.2456 67.4764 58.0375 67.4764 57.7635C67.4764 57.464 67.5514 57.2483 67.7012 57.1164C67.8562 56.9844 68.1094 56.9184 68.4608 56.9184H70.4604C70.8117 56.9184 71.0598 56.9844 71.2044 57.1164C71.3543 57.2483 71.4292 57.464 71.4292 57.7635C71.4292 58.0375 71.3569 58.2456 71.2122 58.3877C71.0727 58.5298 70.866 58.6009 70.5921 58.6009H70.4604V64.28H70.5921C70.8712 64.28 71.083 64.3511 71.2277 64.4932C71.3724 64.6302 71.4447 64.8332 71.4447 65.1022C71.4447 65.4017 71.3698 65.6174 71.2199 65.7493C71.0701 65.8813 70.8169 65.9473 70.4604 65.9473H68.4608C68.1042 65.9473 67.851 65.8838 67.7012 65.7569C67.5514 65.625 67.4764 65.4067 67.4764 65.1022C67.4764 64.8332 67.5488 64.6302 67.6935 64.4932C67.8433 64.3511 68.0577 64.28 68.3367 64.28H68.4608V62.0343H65.9263V64.28H66.0503C66.3294 64.28 66.5412 64.3511 66.6859 64.4932C66.8357 64.6302 66.9107 64.8332 66.9107 65.1022C66.9107 65.4017 66.8331 65.6174 66.6781 65.7493C66.5283 65.8813 66.2777 65.9473 65.9263 65.9473H63.9267C63.5702 65.9473 63.317 65.8838 63.1672 65.7569C63.0173 65.625 62.9424 65.4067 62.9424 65.1022C62.9424 64.8332 63.0147 64.6302 63.1594 64.4932C63.3041 64.3511 63.5159 64.28 63.795 64.28H63.9267V58.6009H63.795C63.5211 58.6009 63.3118 58.5298 63.1672 58.3877C63.0277 58.2456 62.9579 58.0375 62.9579 57.7635C62.9579 57.464 63.0302 57.2483 63.1749 57.1164C63.3248 56.9844 63.5754 56.9184 63.9267 56.9184H65.9263C66.2725 56.9184 66.5231 56.9844 66.6781 57.1164C66.8331 57.2483 66.9107 57.464 66.9107 57.7635C66.9107 58.0375 66.8357 58.2456 66.6859 58.3877C66.5412 58.5298 66.3294 58.6009 66.0503 58.6009H65.9263Z" fill="#71A9CD"/>
<path d="M77.8078 64.28H79.4742C79.8307 64.28 80.0839 64.3435 80.2338 64.4704C80.3836 64.5972 80.4585 64.8079 80.4585 65.1022C80.4585 65.4017 80.381 65.6174 80.226 65.7493C80.0762 65.8813 79.8256 65.9473 79.4742 65.9473H74.2349C73.8835 65.9473 73.6303 65.8813 73.4753 65.7493C73.3255 65.6174 73.2506 65.4017 73.2506 65.1022C73.2506 64.8079 73.3229 64.5972 73.4676 64.4704C73.6174 64.3435 73.8732 64.28 74.2349 64.28H75.9012V60.5802H75.0254C74.6792 60.5802 74.4312 60.5168 74.2814 60.3899C74.1315 60.2579 74.0566 60.0422 74.0566 59.7428C74.0566 59.4434 74.1289 59.2302 74.2736 59.1033C74.4183 58.9764 74.6689 58.913 75.0254 58.913H77.3583C77.503 58.913 77.6141 58.9434 77.6916 59.0044C77.7691 59.0602 77.8078 59.1388 77.8078 59.2403V64.28ZM76.6918 55.472C77.069 55.472 77.3196 55.543 77.4436 55.6852C77.5676 55.8273 77.6296 56.1673 77.6296 56.7053C77.6296 57.2229 77.5728 57.5452 77.4591 57.6721C77.3506 57.7939 77.0896 57.8548 76.6763 57.8548C76.2733 57.8548 76.0123 57.7964 75.8935 57.6797C75.7798 57.563 75.723 57.3295 75.723 56.9793C75.723 56.3297 75.7824 55.9161 75.9012 55.7384C76.0201 55.5608 76.2836 55.472 76.6918 55.472Z" fill="#71A9CD"/>
<path d="M85.9226 60.3366C85.4163 60.3366 84.9951 60.5168 84.6593 60.8771C84.3286 61.2374 84.1633 61.6968 84.1633 62.255C84.1633 62.8032 84.3286 63.2574 84.6593 63.6177C84.9951 63.973 85.4163 64.1506 85.9226 64.1506C86.4342 64.1506 86.8553 63.973 87.186 63.6177C87.5218 63.2574 87.6897 62.8032 87.6897 62.255C87.6897 61.6968 87.5218 61.2374 87.186 60.8771C86.8553 60.5168 86.4342 60.3366 85.9226 60.3366ZM87.8447 59.621V59.2251C87.8447 59.1236 87.8809 59.0475 87.9533 58.9967C88.0308 58.9409 88.1444 58.913 88.2943 58.913H89.5576C89.9141 58.913 90.1647 58.979 90.3094 59.1109C90.4541 59.2378 90.5264 59.4484 90.5264 59.7428C90.5264 60.0169 90.4541 60.2249 90.3094 60.367C90.1699 60.5092 89.9632 60.5802 89.6894 60.5802H89.5576V65.8254C89.5576 66.9369 89.2502 67.7439 88.6353 68.2463C88.0204 68.7488 87.0335 69 85.6746 69C84.8324 69 84.2123 68.9188 83.8145 68.7564C83.4218 68.594 83.2254 68.3377 83.2254 67.9875C83.2254 67.7439 83.3055 67.5459 83.4657 67.3937C83.6259 67.2414 83.8377 67.1653 84.1013 67.1653C84.1684 67.1653 84.3906 67.1881 84.7678 67.2338C85.145 67.2795 85.4938 67.3023 85.8141 67.3023C86.553 67.3023 87.0619 67.1653 87.341 66.8912C87.6251 66.6172 87.7672 66.1249 87.7672 65.4144V65.0718C87.4004 65.2799 87.0361 65.4347 86.6744 65.5362C86.3179 65.6326 85.9459 65.6808 85.5583 65.6808C84.5198 65.6808 83.6698 65.3636 83.0084 64.7292C82.3522 64.0897 82.0241 63.2701 82.0241 62.2703C82.0241 61.24 82.3677 60.3924 83.0549 59.7276C83.7473 59.0627 84.6309 58.7303 85.7056 58.7303C86.1706 58.7303 86.5788 58.8039 86.9302 58.9511C87.2815 59.0932 87.5864 59.3165 87.8447 59.621Z" fill="#71A9CD"/>
<path d="M94.5412 59.6819C94.722 59.3723 94.9778 59.1363 95.3085 58.9739C95.6392 58.8115 96.0344 58.7303 96.4943 58.7303C97.3107 58.7303 97.9385 58.9637 98.3777 59.4307C98.822 59.8976 99.0442 60.5675 99.0442 61.4405V64.28H99.176C99.4498 64.28 99.6565 64.3511 99.796 64.4932C99.9407 64.6302 100.013 64.8332 100.013 65.1022C100.013 65.4017 99.9381 65.6174 99.7883 65.7493C99.6436 65.8813 99.3956 65.9473 99.0442 65.9473H97.1221C96.7759 65.9473 96.5279 65.8813 96.378 65.7493C96.2334 65.6174 96.161 65.4017 96.161 65.1022C96.161 64.8282 96.2308 64.6226 96.3703 64.4856C96.5098 64.3486 96.7191 64.28 96.9981 64.28H97.1221V62.0647C97.1221 61.4151 97.0394 60.9659 96.8741 60.7172C96.7139 60.4635 96.4375 60.3366 96.0448 60.3366C95.6314 60.3366 95.2775 60.5015 94.9829 60.8314C94.6884 61.1562 94.5412 61.5673 94.5412 62.0647V64.28H94.6652C94.9442 64.28 95.1535 64.3511 95.293 64.4932C95.4376 64.6302 95.51 64.8332 95.51 65.1022C95.51 65.4017 95.4351 65.6174 95.2852 65.7493C95.1354 65.8813 94.8874 65.9473 94.5412 65.9473H92.619C92.2625 65.9473 92.0119 65.8838 91.8672 65.7569C91.7226 65.625 91.6502 65.4067 91.6502 65.1022C91.6502 64.8332 91.72 64.6302 91.8595 64.4932C92.0042 64.3511 92.2134 64.28 92.4873 64.28H92.619V57.6721H92.4873C92.2134 57.6721 92.0016 57.6011 91.8517 57.4589C91.7071 57.3118 91.6347 57.1011 91.6347 56.8271C91.6347 56.5276 91.7097 56.3119 91.8595 56.18C92.0093 56.048 92.2625 55.9821 92.619 55.9821H94.0761C94.2518 55.9821 94.3732 56.0176 94.4404 56.0886C94.5076 56.1597 94.5412 56.2916 94.5412 56.4845V59.6819Z" fill="#71A9CD"/>
<path d="M106.275 64.28H107.942C108.298 64.28 108.549 64.3435 108.694 64.4704C108.838 64.5972 108.911 64.8079 108.911 65.1022C108.911 65.4017 108.836 65.6174 108.686 65.7493C108.541 65.8813 108.293 65.9473 107.942 65.9473H102.687C102.341 65.9473 102.093 65.8813 101.943 65.7493C101.798 65.6174 101.726 65.4017 101.726 65.1022C101.726 64.8028 101.796 64.5922 101.935 64.4704C102.08 64.3435 102.33 64.28 102.687 64.28H104.353V57.6721H103.501C103.149 57.6721 102.896 57.6061 102.741 57.4742C102.591 57.3371 102.516 57.1214 102.516 56.8271C102.516 56.5276 102.591 56.3119 102.741 56.18C102.891 56.048 103.144 55.9821 103.501 55.9821H105.818C105.963 55.9821 106.074 56.0125 106.151 56.0734C106.234 56.1292 106.275 56.2079 106.275 56.3094V64.28Z" fill="#71A9CD"/>
<path d="M115.94 64.28H117.607C117.963 64.28 118.216 64.3435 118.366 64.4704C118.516 64.5972 118.591 64.8079 118.591 65.1022C118.591 65.4017 118.513 65.6174 118.358 65.7493C118.209 65.8813 117.958 65.9473 117.607 65.9473H112.367C112.016 65.9473 111.763 65.8813 111.608 65.7493C111.458 65.6174 111.383 65.4017 111.383 65.1022C111.383 64.8079 111.455 64.5972 111.6 64.4704C111.75 64.3435 112.006 64.28 112.367 64.28H114.034V60.5802H113.158C112.812 60.5802 112.564 60.5168 112.414 60.3899C112.264 60.2579 112.189 60.0422 112.189 59.7428C112.189 59.4434 112.261 59.2302 112.406 59.1033C112.551 58.9764 112.801 58.913 113.158 58.913H115.491C115.635 58.913 115.747 58.9434 115.824 59.0044C115.902 59.0602 115.94 59.1388 115.94 59.2403V64.28ZM114.824 55.472C115.201 55.472 115.452 55.543 115.576 55.6852C115.7 55.8273 115.762 56.1673 115.762 56.7053C115.762 57.2229 115.705 57.5452 115.592 57.6721C115.483 57.7939 115.222 57.8548 114.809 57.8548C114.406 57.8548 114.145 57.7964 114.026 57.6797C113.912 57.563 113.855 57.3295 113.855 56.9793C113.855 56.3297 113.915 55.9161 114.034 55.7384C114.153 55.5608 114.416 55.472 114.824 55.472Z" fill="#71A9CD"/>
<path d="M124.055 60.3366C123.549 60.3366 123.128 60.5168 122.792 60.8771C122.461 61.2374 122.296 61.6968 122.296 62.255C122.296 62.8032 122.461 63.2574 122.792 63.6177C123.128 63.973 123.549 64.1506 124.055 64.1506C124.567 64.1506 124.988 63.973 125.318 63.6177C125.654 63.2574 125.822 62.8032 125.822 62.255C125.822 61.6968 125.654 61.2374 125.318 60.8771C124.988 60.5168 124.567 60.3366 124.055 60.3366ZM125.977 59.621V59.2251C125.977 59.1236 126.013 59.0475 126.086 58.9967C126.163 58.9409 126.277 58.913 126.427 58.913H127.69C128.047 58.913 128.297 58.979 128.442 59.1109C128.587 59.2378 128.659 59.4484 128.659 59.7428C128.659 60.0169 128.587 60.2249 128.442 60.367C128.302 60.5092 128.096 60.5802 127.822 60.5802H127.69V65.8254C127.69 66.9369 127.383 67.7439 126.768 68.2463C126.153 68.7488 125.166 69 123.807 69C122.965 69 122.345 68.9188 121.947 68.7564C121.554 68.594 121.358 68.3377 121.358 67.9875C121.358 67.7439 121.438 67.5459 121.598 67.3937C121.758 67.2414 121.97 67.1653 122.234 67.1653C122.301 67.1653 122.523 67.1881 122.9 67.2338C123.277 67.2795 123.626 67.3023 123.947 67.3023C124.685 67.3023 125.194 67.1653 125.473 66.8912C125.758 66.6172 125.9 66.1249 125.9 65.4144V65.0718C125.533 65.2799 125.169 65.4347 124.807 65.5362C124.45 65.6326 124.078 65.6808 123.691 65.6808C122.652 65.6808 121.802 65.3636 121.141 64.7292C120.485 64.0897 120.157 63.2701 120.157 62.2703C120.157 61.24 120.5 60.3924 121.187 59.7276C121.88 59.0627 122.763 58.7303 123.838 58.7303C124.303 58.7303 124.711 58.8039 125.063 58.9511C125.414 59.0932 125.719 59.3165 125.977 59.621Z" fill="#71A9CD"/>
<path d="M142.777 59.4185H145.141C145.498 59.4185 145.751 59.4819 145.901 59.6088C146.05 59.7357 146.125 59.9463 146.125 60.2407C146.125 60.5401 146.048 60.7558 145.893 60.8878C145.743 61.0197 145.492 61.0857 145.141 61.0857H142.777V63.0346C142.777 63.5827 142.862 63.9583 143.033 64.1613C143.203 64.3643 143.503 64.4658 143.932 64.4658C144.335 64.4658 144.81 64.3516 145.358 64.1232C145.906 63.8948 146.273 63.7806 146.459 63.7806C146.67 63.7806 146.851 63.8644 147.001 64.0319C147.156 64.1943 147.234 64.3922 147.234 64.6257C147.234 65.0165 146.872 65.3743 146.149 65.6991C145.43 66.0188 144.614 66.1787 143.699 66.1787C143.167 66.1787 142.7 66.1076 142.297 65.9655C141.894 65.8234 141.576 65.6204 141.343 65.3565C141.173 65.1535 141.051 64.9099 140.979 64.6257C140.907 64.3415 140.871 63.8669 140.871 63.2021V63.0346V61.0857H140.142C139.791 61.0857 139.54 61.0197 139.39 60.8878C139.246 60.7558 139.173 60.5401 139.173 60.2407C139.173 59.9412 139.246 59.7306 139.39 59.6088C139.535 59.4819 139.785 59.4185 140.142 59.4185H140.871V57.6371C140.871 57.2869 140.943 57.0407 141.088 56.8986C141.237 56.7565 141.483 56.6855 141.824 56.6855C142.165 56.6855 142.408 56.7565 142.552 56.8986C142.702 57.0407 142.777 57.2869 142.777 57.6371V59.4185Z" fill="#71A9CD"/>
<path d="M164.68 59.4033C164.742 59.2053 164.838 59.0581 164.967 58.9617C165.101 58.8602 165.272 58.8095 165.478 58.8095C165.757 58.8095 165.956 58.8932 166.075 59.0607C166.194 59.2231 166.253 59.5073 166.253 59.9133V61.1618C166.253 61.4714 166.189 61.6998 166.06 61.847C165.93 61.9942 165.732 62.0678 165.463 62.0678C165.272 62.0678 165.112 62.0246 164.982 61.9383C164.853 61.8521 164.716 61.6871 164.572 61.4435C164.365 61.0984 164.094 60.8446 163.758 60.6822C163.422 60.5147 163.011 60.431 162.525 60.431C161.921 60.431 161.425 60.6264 161.037 61.0172C160.655 61.4029 160.464 61.8977 160.464 62.5017C160.464 63.1361 160.663 63.6461 161.061 64.0319C161.458 64.4176 161.993 64.6104 162.665 64.6104C163.275 64.6104 163.879 64.4455 164.479 64.1156C165.083 63.7806 165.453 63.6132 165.587 63.6132C165.778 63.6132 165.936 63.6868 166.06 63.8339C166.189 63.976 166.253 64.1562 166.253 64.3744C166.253 64.8515 165.884 65.2778 165.145 65.6534C164.411 66.029 163.538 66.2167 162.525 66.2167C161.275 66.2167 160.257 65.8716 159.472 65.1814C158.692 64.4912 158.301 63.603 158.301 62.5169C158.301 61.4562 158.689 60.5731 159.464 59.8676C160.239 59.1622 161.216 58.8095 162.394 58.8095C162.792 58.8095 163.179 58.8577 163.556 58.9541C163.933 59.0505 164.308 59.2003 164.68 59.4033Z" fill="#71A9CD"/>
<path d="M171.911 60.431C171.307 60.431 170.808 60.6264 170.415 61.0172C170.028 61.4029 169.834 61.8977 169.834 62.5017C169.834 63.1107 170.028 63.6157 170.415 64.0166C170.808 64.4125 171.307 64.6104 171.911 64.6104C172.516 64.6104 173.014 64.4125 173.407 64.0166C173.8 63.6157 173.996 63.1107 173.996 62.5017C173.996 61.8977 173.8 61.4029 173.407 61.0172C173.02 60.6264 172.521 60.431 171.911 60.431ZM171.911 58.8247C173.167 58.8247 174.185 59.1698 174.965 59.86C175.745 60.5503 176.135 61.4359 176.135 62.5169C176.135 63.603 175.745 64.4912 174.965 65.1814C174.185 65.8716 173.167 66.2167 171.911 66.2167C170.661 66.2167 169.646 65.8716 168.865 65.1814C168.085 64.4912 167.695 63.603 167.695 62.5169C167.695 61.4359 168.085 60.5503 168.865 59.86C169.651 59.1698 170.666 58.8247 171.911 58.8247Z" fill="#71A9CD"/>
<path d="M184.746 64.3592H184.878C185.157 64.3592 185.366 64.4303 185.506 64.5724C185.645 64.7094 185.715 64.9124 185.715 65.1814C185.715 65.4808 185.64 65.6965 185.49 65.8285C185.345 65.9605 185.097 66.0264 184.746 66.0264H183.56C183.41 66.0264 183.294 65.9985 183.212 65.9427C183.134 65.8818 183.095 65.8006 183.095 65.6991V65.1662C182.842 65.5062 182.517 65.7676 182.119 65.9503C181.721 66.1279 181.274 66.2167 180.778 66.2167C179.765 66.2167 178.918 65.8792 178.236 65.2042C177.554 64.5242 177.213 63.6766 177.213 62.6616C177.213 61.6059 177.556 60.7304 178.243 60.0351C178.936 59.3398 179.814 58.9922 180.879 58.9922C181.245 58.9922 181.602 59.0531 181.948 59.1749C182.3 59.2916 182.62 59.4591 182.909 59.6773V57.7513H181.878C181.522 57.7513 181.269 57.6853 181.119 57.5533C180.969 57.4163 180.894 57.2006 180.894 56.9063C180.894 56.6068 180.969 56.3911 181.119 56.2592C181.269 56.1272 181.522 56.0612 181.878 56.0612H184.289C184.464 56.0612 184.583 56.0968 184.645 56.1678C184.713 56.2389 184.746 56.3708 184.746 56.5637V64.3592ZM181.111 60.6137C180.605 60.6137 180.184 60.8015 179.848 61.1771C179.517 61.5475 179.352 62.0195 179.352 62.593C179.352 63.1818 179.517 63.6639 179.848 64.0395C180.178 64.41 180.6 64.5952 181.111 64.5952C181.623 64.5952 182.044 64.4074 182.374 64.0319C182.71 63.6563 182.878 63.1767 182.878 62.593C182.878 62.0246 182.71 61.5526 182.374 61.1771C182.039 60.8015 181.617 60.6137 181.111 60.6137Z" fill="#71A9CD"/>
<path d="M188.869 62.9585C189.004 63.5218 189.262 63.943 189.644 64.2222C190.032 64.5013 190.546 64.6409 191.187 64.6409C191.827 64.6409 192.46 64.4886 193.086 64.1841C193.711 63.8745 194.088 63.7197 194.217 63.7197C194.408 63.7197 194.563 63.7908 194.682 63.9329C194.806 64.0699 194.868 64.2476 194.868 64.4658C194.868 64.9429 194.509 65.354 193.791 65.6991C193.073 66.0442 192.184 66.2167 191.125 66.2167C189.874 66.2167 188.856 65.8716 188.071 65.1814C187.291 64.4912 186.901 63.603 186.901 62.5169C186.901 61.4359 187.291 60.5503 188.071 59.86C188.856 59.1698 189.874 58.8247 191.125 58.8247C192.241 58.8247 193.166 59.1495 193.899 59.7991C194.633 60.4437 195 61.2354 195 62.1743C195 62.4738 194.925 62.6793 194.775 62.791C194.631 62.9026 194.328 62.9585 193.868 62.9585H188.869ZM193.047 61.7709C192.959 61.2989 192.732 60.9334 192.365 60.6746C192.003 60.4158 191.53 60.2864 190.946 60.2864C190.383 60.2864 189.929 60.4107 189.582 60.6594C189.241 60.903 189.004 61.2735 188.869 61.7709H193.047Z" fill="#71A9CD"/>
<path d="M132.827 59.9514C133.008 59.6418 133.264 59.4058 133.594 59.2434C133.925 59.081 134.32 58.9998 134.78 58.9998C135.597 58.9998 136.224 59.2332 136.664 59.7002C137.108 60.1671 137.33 60.837 137.33 61.71V64.5495H137.462C137.736 64.5495 137.942 64.6206 138.082 64.7627C138.227 64.8997 138.299 65.1027 138.299 65.3717C138.299 65.6712 138.224 65.8869 138.074 66.0188C137.929 66.1508 137.681 66.2167 137.33 66.2167H135.408C135.062 66.2167 134.814 66.1508 134.664 66.0188C134.519 65.8869 134.447 65.6712 134.447 65.3717C134.447 65.0977 134.517 64.8921 134.656 64.7551C134.796 64.6181 135.005 64.5495 135.284 64.5495H135.408V62.3342C135.408 61.6846 135.325 61.2354 135.16 60.9867C135 60.733 134.723 60.6061 134.331 60.6061C133.917 60.6061 133.563 60.771 133.269 61.1009C132.974 61.4257 132.827 61.8368 132.827 62.3342V64.5495H132.951C133.23 64.5495 133.439 64.6206 133.579 64.7627C133.724 64.8997 133.796 65.1027 133.796 65.3717C133.796 65.6712 133.721 65.8869 133.571 66.0188C133.421 66.1508 133.173 66.2167 132.827 66.2167H130.905C130.548 66.2167 130.298 66.1533 130.153 66.0264C130.008 65.8945 129.936 65.6762 129.936 65.3717C129.936 65.1027 130.006 64.8997 130.145 64.7627C130.29 64.6206 130.499 64.5495 130.773 64.5495H130.905V57.9416H130.773C130.499 57.9416 130.287 57.8705 130.138 57.7284C129.993 57.5813 129.921 57.3706 129.921 57.0966C129.921 56.7971 129.996 56.5814 130.145 56.4495C130.295 56.3175 130.548 56.2515 130.905 56.2515H132.362C132.538 56.2515 132.659 56.2871 132.726 56.3581C132.793 56.4292 132.827 56.5611 132.827 56.754V59.9514Z" fill="#71A9CD"/>
<path d="M92.981 80.6672C92.945 80.8211 92.9012 80.92 92.8497 80.964C92.7982 81.0025 92.7107 81.0217 92.5872 81.0217H91.228C91.1714 81.0217 91.125 81.008 91.089 80.9805C91.053 80.953 91.0349 80.92 91.0349 80.8816C91.0349 80.8651 91.0401 80.8403 91.0504 80.8073C91.0607 80.7744 91.071 80.7386 91.0813 80.7002L92.7802 76.9648C92.8214 76.8823 92.8626 76.8218 92.9038 76.7834C92.945 76.7449 92.9861 76.7256 93.0273 76.7256C93.0531 76.7256 93.0865 76.7311 93.1277 76.7421C93.1432 76.7531 93.1535 76.7586 93.1586 76.7586L93.5988 76.9318C93.6606 76.9538 93.7069 76.9895 93.7378 77.039C93.7738 77.083 93.7919 77.1324 93.7919 77.1874C93.7919 77.2314 93.7893 77.2671 93.7841 77.2946C93.7841 77.3166 93.7816 77.3358 93.7764 77.3523L92.981 80.6672ZM89.9461 80.6672C89.91 80.8211 89.8663 80.92 89.8148 80.964C89.7633 81.0025 89.6758 81.0217 89.5522 81.0217H88.2085C88.1467 81.0217 88.0952 81.008 88.0541 80.9805C88.018 80.953 88 80.92 88 80.8816C88 80.8651 88.0026 80.8403 88.0077 80.8073C88.018 80.7744 88.0309 80.7386 88.0463 80.7002L89.7376 76.9648C89.7839 76.8823 89.8277 76.8218 89.8688 76.7834C89.91 76.7449 89.9564 76.7256 90.0078 76.7256C90.0336 76.7256 90.0671 76.7311 90.1082 76.7421C90.1185 76.7531 90.1288 76.7586 90.1391 76.7586L90.5639 76.9318C90.6256 76.9538 90.6746 76.9895 90.7106 77.039C90.7518 77.083 90.7724 77.1324 90.7724 77.1874C90.7724 77.2094 90.7672 77.2341 90.7569 77.2616C90.7518 77.2891 90.7441 77.3193 90.7338 77.3523L89.9461 80.6672Z" fill="#FF8585"/>
<path d="M98.7034 85.6312H99.2208C99.5245 85.6312 99.7382 85.6752 99.8617 85.7631C99.9853 85.8511 100.047 85.9968 100.047 86.2001C100.047 86.4255 99.993 86.5822 99.8849 86.6702C99.7768 86.7526 99.54 86.7939 99.1744 86.7939H97.4832H97.1357C96.9452 86.7939 96.8011 86.7444 96.7032 86.6454C96.6106 86.5465 96.5642 86.3981 96.5642 86.2001C96.5642 85.9858 96.6183 85.8373 96.7264 85.7549C96.8397 85.6724 97.0507 85.6312 97.3596 85.6312H97.4987V78.2016H97.3751C97.0662 78.2016 96.8525 78.1577 96.7341 78.0697C96.6209 77.9818 96.5642 77.8278 96.5642 77.6079C96.5642 77.4045 96.6106 77.2561 96.7032 77.1627C96.8011 77.0637 96.9504 77.0142 97.1511 77.0142H97.4832H99.0972C99.5091 77.0142 99.7691 77.0582 99.8772 77.1462C99.9904 77.2286 100.047 77.3826 100.047 77.6079C100.047 77.8278 99.9776 77.9818 99.8386 78.0697C99.6996 78.1577 99.437 78.2016 99.0509 78.2016H98.7034V81.0712H102.402V78.2016H101.877C101.584 78.2016 101.373 78.1549 101.244 78.0615C101.12 77.968 101.059 77.8168 101.059 77.6079C101.059 77.3826 101.115 77.2286 101.229 77.1462C101.347 77.0582 101.633 77.0142 102.086 77.0142H103.623H103.97C104.155 77.0142 104.294 77.0637 104.387 77.1627C104.485 77.2616 104.534 77.41 104.534 77.6079C104.534 77.8223 104.48 77.9763 104.372 78.0697C104.264 78.1577 104.07 78.2016 103.792 78.2016H103.607V85.6312H103.731C104.04 85.6312 104.251 85.6752 104.364 85.7631C104.477 85.8456 104.534 85.9913 104.534 86.2001C104.534 86.4255 104.48 86.5822 104.372 86.6702C104.264 86.7526 104.014 86.7939 103.623 86.7939H102.024C101.607 86.7939 101.342 86.7526 101.229 86.6702C101.115 86.5822 101.059 86.4255 101.059 86.2001C101.059 85.9858 101.126 85.8373 101.259 85.7549C101.393 85.6724 101.648 85.6312 102.024 85.6312H102.402V82.2009H98.7034V85.6312Z" fill="#FF8585"/>
<path d="M107.437 83.3471C107.479 84.1387 107.728 84.7516 108.187 85.1859C108.65 85.6147 109.281 85.8291 110.079 85.8291C110.681 85.8291 111.337 85.6587 112.048 85.3178C112.758 84.9715 113.188 84.7984 113.337 84.7984C113.492 84.7984 113.621 84.8506 113.724 84.955C113.827 85.0595 113.878 85.1887 113.878 85.3426C113.878 85.502 113.824 85.6477 113.716 85.7796C113.608 85.9115 113.435 86.0407 113.198 86.1672C112.684 86.4365 112.151 86.6427 111.6 86.7856C111.054 86.9285 110.511 87 109.97 87C108.797 87 107.857 86.6399 107.152 85.9198C106.446 85.1942 106.094 84.2349 106.094 83.042C106.094 81.8271 106.467 80.8431 107.214 80.09C107.96 79.3368 108.933 78.9603 110.133 78.9603C111.219 78.9603 112.12 79.3121 112.835 80.0157C113.551 80.7194 113.909 81.5715 113.909 82.572C113.909 82.8798 113.847 83.086 113.724 83.1904C113.605 83.2949 113.278 83.3471 112.743 83.3471H112.627H107.437ZM107.476 82.2669H112.503C112.426 81.6127 112.169 81.0877 111.731 80.6919C111.299 80.2906 110.766 80.09 110.133 80.09C109.448 80.09 108.871 80.2824 108.403 80.6672C107.934 81.052 107.625 81.5852 107.476 82.2669Z" fill="#FF8585"/>
<path d="M119.029 77.1874H117.716C117.217 77.1874 116.903 77.1462 116.774 77.0637C116.65 76.9758 116.589 76.8191 116.589 76.5937C116.589 76.3958 116.64 76.2474 116.743 76.1484C116.851 76.0495 117.006 76 117.206 76H119.755C119.894 76 120.002 76.0302 120.079 76.0907C120.156 76.1512 120.195 76.2336 120.195 76.3381V85.6312H122.62C122.816 85.6312 122.957 85.6779 123.045 85.7714C123.137 85.8593 123.184 86.0022 123.184 86.2001C123.184 86.4255 123.14 86.5822 123.052 86.6702C122.965 86.7526 122.8 86.7939 122.558 86.7939H116.859C116.658 86.7939 116.504 86.7444 116.396 86.6454C116.293 86.5465 116.241 86.3981 116.241 86.2001C116.241 86.0077 116.295 85.8648 116.403 85.7714C116.511 85.6779 116.674 85.6312 116.89 85.6312H119.029V77.1874Z" fill="#FF8585"/>
<path d="M128.528 77.1874H127.215C126.715 77.1874 126.401 77.1462 126.273 77.0637C126.149 76.9758 126.087 76.8191 126.087 76.5937C126.087 76.3958 126.139 76.2474 126.242 76.1484C126.35 76.0495 126.504 76 126.705 76H129.253C129.392 76 129.501 76.0302 129.578 76.0907C129.655 76.1512 129.694 76.2336 129.694 76.3381V85.6312H132.119C132.314 85.6312 132.456 85.6779 132.543 85.7714C132.636 85.8593 132.682 86.0022 132.682 86.2001C132.682 86.4255 132.639 86.5822 132.551 86.6702C132.463 86.7526 132.299 86.7939 132.057 86.7939H126.358C126.157 86.7939 126.002 86.7444 125.894 86.6454C125.791 86.5465 125.74 86.3981 125.74 86.2001C125.74 86.0077 125.794 85.8648 125.902 85.7714C126.01 85.6779 126.172 85.6312 126.388 85.6312H128.528V77.1874Z" fill="#FF8585"/>
<path d="M138.544 85.8456C139.336 85.8456 139.985 85.579 140.49 85.0457C140.999 84.507 141.254 83.8226 141.254 82.9925C141.254 82.1624 140.999 81.478 140.49 80.9393C139.98 80.3951 139.331 80.1229 138.544 80.1229C137.756 80.1229 137.107 80.3951 136.598 80.9393C136.093 81.478 135.841 82.1624 135.841 82.9925C135.841 83.8281 136.093 84.5125 136.598 85.0457C137.102 85.579 137.751 85.8456 138.544 85.8456ZM142.598 82.9925C142.598 84.1689 142.222 85.1309 141.47 85.8786C140.719 86.6262 139.743 87 138.544 87C137.349 87 136.376 86.6262 135.625 85.8786C134.873 85.1309 134.497 84.1689 134.497 82.9925C134.497 81.8161 134.873 80.8568 135.625 80.1147C136.376 79.3671 137.349 78.9933 138.544 78.9933C139.738 78.9933 140.711 79.3671 141.463 80.1147C142.22 80.8623 142.598 81.8216 142.598 82.9925Z" fill="#FF8585"/>
<path d="M146.034 77.3688C146.07 77.2149 146.114 77.1187 146.166 77.0802C146.217 77.0362 146.307 77.0142 146.436 77.0142H147.78C147.831 77.0142 147.878 77.0307 147.919 77.0637C147.96 77.0912 147.981 77.1269 147.981 77.1709C147.981 77.1874 147.975 77.2121 147.965 77.2451C147.96 77.2781 147.95 77.3138 147.934 77.3523L146.243 81.0877C146.212 81.1592 146.173 81.2141 146.127 81.2526C146.081 81.2856 146.029 81.3021 145.973 81.3021C145.962 81.3021 145.947 81.3021 145.926 81.3021C145.911 81.2966 145.885 81.2856 145.849 81.2691L145.417 81.1042C145.355 81.0767 145.306 81.0437 145.27 81.0052C145.234 80.9613 145.216 80.9145 145.216 80.8651C145.216 80.8431 145.218 80.8183 145.224 80.7909C145.229 80.7579 145.236 80.7276 145.247 80.7002L146.034 77.3688ZM149.077 77.3688C149.113 77.2149 149.154 77.1187 149.201 77.0802C149.252 77.0362 149.342 77.0142 149.471 77.0142H150.815C150.866 77.0142 150.91 77.0307 150.946 77.0637C150.982 77.0912 151 77.1269 151 77.1709C151 77.1874 150.995 77.2121 150.985 77.2451C150.979 77.2781 150.969 77.3138 150.954 77.3523L149.278 81.0877C149.247 81.1592 149.208 81.2141 149.162 81.2526C149.121 81.2856 149.069 81.3021 149.008 81.3021C148.997 81.3021 148.984 81.3021 148.969 81.3021C148.954 81.2966 148.925 81.2856 148.884 81.2691L148.459 81.1042C148.392 81.0767 148.341 81.0437 148.305 81.0052C148.269 80.9613 148.251 80.9145 148.251 80.8651C148.251 80.8211 148.251 80.7881 148.251 80.7661C148.256 80.7386 148.261 80.7166 148.266 80.7002L149.077 77.3688Z" fill="#FF8585"/>
<path d="M84.7642 39.8603L90.4611 42.5262C90.6891 42.6366 90.8523 42.747 90.9508 42.8575C91.0492 42.9626 91.0984 43.0836 91.0984 43.2203C91.0984 43.378 91.0518 43.5042 90.9585 43.5989C90.8705 43.6935 90.7461 43.7408 90.5855 43.7408C90.513 43.7408 90.4326 43.7277 90.3446 43.7014C90.2565 43.6751 90.1321 43.6225 89.9715 43.5437L83.7927 40.6175C83.772 40.6122 83.7461 40.6017 83.715 40.5859C83.2383 40.3651 83 40.1232 83 39.8603C83 39.5974 83.2332 39.3608 83.6995 39.1504C83.7409 39.1294 83.772 39.1136 83.7927 39.1031L89.9715 36.2242C90.1114 36.1559 90.2306 36.1085 90.329 36.0823C90.4275 36.0507 90.513 36.0349 90.5855 36.0349C90.7461 36.0349 90.8705 36.0796 90.9585 36.169C91.0518 36.2584 91.0984 36.3793 91.0984 36.5318C91.0984 36.6738 91.0492 36.8 90.9508 36.9104C90.8523 37.0156 90.6891 37.1208 90.4611 37.2259L84.7642 39.8603Z" fill="#E3B73A"/>
<path d="M93.4145 44.2851V42.8811C93.4145 42.6498 93.456 42.4841 93.5389 42.3842C93.6269 42.2843 93.7668 42.2344 93.9585 42.2344C94.171 42.2344 94.3394 42.3816 94.4637 42.6761C94.5466 42.8548 94.6218 42.9889 94.6891 43.0783C94.9067 43.3623 95.228 43.591 95.6529 43.7645C96.0777 43.9328 96.5466 44.0169 97.0596 44.0169C97.6088 44.0169 98.0492 43.9038 98.3808 43.6777C98.7124 43.4516 98.8782 43.1546 98.8782 42.7865C98.8782 42.4131 98.7435 42.1476 98.4741 41.9899C98.2098 41.8321 97.7539 41.7532 97.1062 41.7532H96.6788C95.6218 41.7532 94.8161 41.5666 94.2617 41.1932C93.7073 40.8199 93.4301 40.2783 93.4301 39.5685C93.4301 38.8744 93.6995 38.3354 94.2383 37.9515C94.7824 37.5677 95.544 37.3758 96.5233 37.3758C96.9223 37.3758 97.329 37.4336 97.7435 37.5493C98.158 37.6597 98.3756 37.7149 98.3964 37.7149C98.4534 37.7149 98.5622 37.665 98.7228 37.5651C98.8834 37.4599 99.0415 37.4073 99.1969 37.4073C99.3731 37.4073 99.5026 37.4731 99.5855 37.6045C99.6736 37.736 99.7176 37.9331 99.7176 38.1961V39.1189C99.7176 39.3976 99.6762 39.6 99.5933 39.7262C99.5104 39.8471 99.3782 39.9076 99.1969 39.9076C99.0415 39.9076 98.8497 39.7735 98.6218 39.5054C98.4611 39.3213 98.329 39.182 98.2254 39.0873C97.9508 38.8297 97.658 38.6456 97.3472 38.5352C97.0363 38.4195 96.671 38.3617 96.2513 38.3617C95.7642 38.3617 95.3705 38.4721 95.0699 38.693C94.7746 38.9085 94.6269 39.1846 94.6269 39.5211C94.6269 39.8524 94.7798 40.089 95.0855 40.231C95.3912 40.373 96.0492 40.4545 97.0596 40.4755C98.1373 40.5018 98.9249 40.6937 99.4223 41.0513C99.9197 41.4036 100.168 41.9504 100.168 42.6918C100.168 43.4017 99.8938 43.9696 99.3446 44.3955C98.7953 44.8214 98.0544 45.0344 97.1218 45.0344C96.8264 45.0344 96.4974 45.0054 96.1347 44.9476C95.772 44.895 95.3161 44.803 94.7668 44.6715C94.5855 44.7925 94.4301 44.8819 94.3005 44.9397C94.171 45.0028 94.0622 45.0344 93.9741 45.0344C93.7927 45.0344 93.6529 44.9713 93.5544 44.8451C93.4611 44.7136 93.4145 44.5269 93.4145 44.2851Z" fill="#E3B73A"/>
<path d="M108.702 38.0383V38.0068C108.702 37.8332 108.751 37.707 108.85 37.6282C108.948 37.544 109.101 37.502 109.308 37.502C109.521 37.502 109.666 37.5651 109.744 37.6913C109.826 37.8175 109.868 38.0777 109.868 38.4721V39.9392C109.868 40.1337 109.819 40.2809 109.72 40.3808C109.622 40.4755 109.474 40.5228 109.277 40.5228C109.137 40.5228 109.016 40.4834 108.912 40.4045C108.813 40.3204 108.692 40.1495 108.547 39.8918C108.298 39.4659 107.995 39.1452 107.637 38.9296C107.285 38.7087 106.878 38.5983 106.417 38.5983C105.609 38.5983 104.951 38.8402 104.443 39.3239C103.94 39.8077 103.689 40.4334 103.689 41.2011C103.689 41.9846 103.93 42.6261 104.412 43.1256C104.899 43.6199 105.523 43.867 106.285 43.867C106.632 43.867 106.961 43.8197 107.272 43.7251C107.588 43.6252 107.886 43.4779 108.166 43.2834C108.264 43.2203 108.396 43.123 108.562 42.9915C108.899 42.7129 109.163 42.5735 109.355 42.5735C109.516 42.5735 109.645 42.6261 109.744 42.7313C109.847 42.8312 109.899 42.9626 109.899 43.1256C109.899 43.541 109.51 43.9669 108.733 44.4034C107.961 44.8346 107.14 45.0501 106.269 45.0501C105.145 45.0501 104.207 44.6847 103.456 43.9538C102.71 43.2229 102.337 42.3106 102.337 41.2169C102.337 40.1232 102.71 39.2109 103.456 38.48C104.202 37.7438 105.135 37.3758 106.254 37.3758C106.648 37.3758 107.041 37.431 107.435 37.5414C107.834 37.6466 108.256 37.8122 108.702 38.0383Z" fill="#E3B73A"/>
<path d="M115.161 43.7408H117.741C117.943 43.7408 118.091 43.7855 118.184 43.8749C118.282 43.9591 118.332 44.0958 118.332 44.2851C118.332 44.5007 118.285 44.6505 118.192 44.7346C118.104 44.8135 117.938 44.853 117.694 44.853H112.611C112.409 44.853 112.256 44.8056 112.153 44.711C112.049 44.6163 111.997 44.4744 111.997 44.2851C111.997 44.101 112.049 43.9643 112.153 43.8749C112.262 43.7855 112.427 43.7408 112.65 43.7408H114.003V38.6851H113.474C112.972 38.6851 112.658 38.6456 112.534 38.5668C112.409 38.4826 112.347 38.3328 112.347 38.1172C112.347 37.9331 112.396 37.7964 112.495 37.707C112.598 37.6124 112.754 37.5651 112.961 37.5651H114.733C114.873 37.5651 114.979 37.594 115.052 37.6518C115.124 37.7044 115.161 37.7833 115.161 37.8885V39.2293C115.653 38.6036 116.166 38.1382 116.699 37.8332C117.233 37.5283 117.808 37.3758 118.425 37.3758C118.886 37.3758 119.259 37.4704 119.544 37.6597C119.829 37.849 119.972 38.0935 119.972 38.3932C119.972 38.5878 119.899 38.7613 119.754 38.9138C119.614 39.061 119.459 39.1346 119.288 39.1346C119.168 39.1346 118.966 39.0558 118.681 38.898C118.402 38.735 118.15 38.6535 117.927 38.6535C117.523 38.6535 117.096 38.8008 116.645 39.0952C116.199 39.3844 115.705 39.8445 115.161 40.4755V43.7408Z" fill="#E3B73A"/>
<path d="M124.767 35.2935C124.767 34.7256 124.816 34.3681 124.915 34.2208C125.018 34.0736 125.236 34 125.567 34C125.889 34 126.101 34.0631 126.205 34.1893C126.308 34.3102 126.36 34.6021 126.36 35.0648C126.36 35.517 126.311 35.7983 126.212 35.9087C126.119 36.0139 125.904 36.0665 125.567 36.0665C125.236 36.0665 125.018 36.0165 124.915 35.9166C124.816 35.8167 124.767 35.609 124.767 35.2935ZM126.205 43.7408H128.699C128.902 43.7408 129.049 43.7855 129.142 43.8749C129.241 43.9591 129.29 44.0958 129.29 44.2851C129.29 44.5007 129.244 44.6505 129.15 44.7346C129.062 44.8135 128.896 44.853 128.653 44.853H122.622C122.415 44.853 122.259 44.8056 122.155 44.711C122.052 44.6163 122 44.4744 122 44.2851C122 44.101 122.054 43.9643 122.163 43.8749C122.272 43.7855 122.435 43.7408 122.653 43.7408H125.023V38.6851H123.508C123.295 38.6851 123.132 38.6377 123.018 38.5431C122.909 38.4432 122.855 38.3012 122.855 38.1172C122.855 37.9331 122.907 37.7964 123.01 37.707C123.114 37.6124 123.269 37.5651 123.477 37.5651H125.754C125.894 37.5651 126.003 37.594 126.08 37.6518C126.163 37.7097 126.205 37.7885 126.205 37.8885V43.7408Z" fill="#E3B73A"/>
<path d="M133.036 46.8721H134.902C135.098 46.8721 135.246 46.9194 135.345 47.0141C135.443 47.1087 135.492 47.2507 135.492 47.44C135.492 47.6451 135.443 47.7897 135.345 47.8738C135.251 47.9579 135.083 48 134.839 48H131.412C131.205 48 131.047 47.9527 130.938 47.858C130.834 47.7634 130.782 47.624 130.782 47.44C130.782 47.2297 130.847 47.0824 130.977 46.9983C131.111 46.9142 131.358 46.8721 131.715 46.8721H131.863V38.6851H131.715C131.358 38.6851 131.111 38.643 130.977 38.5589C130.847 38.4747 130.782 38.3275 130.782 38.1172C130.782 37.9331 130.834 37.7964 130.938 37.707C131.047 37.6124 131.205 37.5651 131.412 37.5651H132.593C132.749 37.5651 132.86 37.5914 132.927 37.6439C133 37.6965 133.036 37.778 133.036 37.8885V38.6535C133.389 38.2854 133.777 38.0094 134.202 37.8254C134.632 37.6413 135.093 37.5493 135.585 37.5493C136.627 37.5493 137.497 37.9069 138.197 38.622C138.896 39.3371 139.246 40.2336 139.246 41.3115C139.246 42.3474 138.915 43.1992 138.251 43.867C137.588 44.5348 136.741 44.8687 135.71 44.8687C135.161 44.8687 134.655 44.7715 134.194 44.5769C133.733 44.3771 133.347 44.0931 133.036 43.7251V46.8721ZM135.446 43.7093C136.166 43.7093 136.756 43.4806 137.218 43.0231C137.679 42.5604 137.909 41.9636 137.909 41.2327C137.909 40.5176 137.676 39.9286 137.21 39.4659C136.749 38.9979 136.161 38.7639 135.446 38.7639C134.731 38.7639 134.145 38.9953 133.689 39.458C133.233 39.9208 133.005 40.5123 133.005 41.2327C133.005 41.9583 133.231 42.5525 133.681 43.0152C134.137 43.4779 134.725 43.7093 135.446 43.7093Z" fill="#E3B73A"/>
<path d="M146.723 38.0068C146.977 38.0068 147.161 38.0515 147.275 38.1408C147.394 38.2302 147.453 38.3722 147.453 38.5668C147.453 38.7508 147.399 38.8901 147.29 38.9848C147.181 39.0742 147.018 39.1189 146.801 39.1189H143.653V41.7532C143.653 42.6156 143.762 43.1835 143.979 43.4569C144.202 43.7303 144.58 43.867 145.114 43.867C145.585 43.867 146.15 43.7277 146.808 43.449C147.466 43.1703 147.873 43.031 148.028 43.031C148.174 43.031 148.295 43.0836 148.394 43.1887C148.497 43.2939 148.549 43.4227 148.549 43.5752C148.549 43.7487 148.484 43.9012 148.355 44.0327C148.231 44.1589 148.016 44.2824 147.71 44.4034C147.202 44.6085 146.744 44.7583 146.334 44.853C145.93 44.9476 145.549 44.9949 145.192 44.9949C144.585 44.9949 144.075 44.8977 143.661 44.7031C143.251 44.5033 142.946 44.2088 142.744 43.8197C142.64 43.6357 142.565 43.4175 142.518 43.1651C142.477 42.9127 142.456 42.5236 142.456 41.9977V41.7532V39.1189H141.135C140.917 39.1189 140.759 39.0768 140.661 38.9927C140.562 38.9033 140.513 38.7613 140.513 38.5668C140.513 38.3512 140.58 38.2039 140.715 38.1251C140.85 38.0462 141.137 38.0068 141.578 38.0068H142.456V36.3899V35.9718C142.456 35.7457 142.503 35.5801 142.596 35.4749C142.694 35.3645 142.845 35.3093 143.047 35.3093C143.275 35.3093 143.433 35.375 143.521 35.5065C143.609 35.6379 143.653 35.9377 143.653 36.4056V38.0068H146.723Z" fill="#E3B73A"/>
<path d="M156.236 39.8603L150.554 37.2259C150.316 37.1155 150.148 37.0077 150.049 36.9025C149.951 36.7921 149.902 36.6685 149.902 36.5318C149.902 36.3793 149.946 36.2584 150.034 36.169C150.127 36.0796 150.251 36.0349 150.407 36.0349C150.484 36.0349 150.57 36.0507 150.663 36.0823C150.762 36.1085 150.883 36.1559 151.028 36.2242L157.207 39.1031C157.228 39.1136 157.259 39.1294 157.301 39.1504C157.767 39.3608 158 39.5974 158 39.8603C158 40.1179 157.772 40.3546 157.316 40.5701C157.264 40.5912 157.228 40.6069 157.207 40.6175L151.028 43.5437L150.997 43.5594C150.728 43.6804 150.531 43.7408 150.407 43.7408C150.251 43.7408 150.127 43.6935 150.034 43.5989C149.946 43.5042 149.902 43.378 149.902 43.2203C149.902 43.0836 149.951 42.9626 150.049 42.8575C150.148 42.747 150.316 42.6366 150.554 42.5262L156.236 39.8603Z" fill="#E3B73A"/>
</svg>
