<svg width="240" height="120" viewBox="0 0 240 120" fill="none" xmlns="http://www.w3.org/2000/svg">
<rect width="240" height="120" fill="url(#paint0_linear_3113_2017)"/>
<path fill-rule="evenodd" clip-rule="evenodd" d="M124.999 34.4803L135.045 44.4178C135.358 44.7305 135.533 45.1535 135.53 45.5938V58.7335H147.194C148.191 58.7335 149 59.543 149 60.5415V76.8141C149 77.8126 148.191 78.6221 147.194 78.6221H135.53V82.0313C135.53 84.7755 133.282 87 130.508 87H97.0227C94.2487 87 92 84.7755 92 82.0313V38.9688C92 36.2246 94.2487 34 97.0227 34H123.811C124.256 33.9975 124.683 34.1703 124.999 34.4803ZM132.182 58.7335H102.041C101.044 58.7335 100.235 59.543 100.235 60.5415V76.8141C100.235 77.8126 101.044 78.6221 102.041 78.6221H132.182V82.0313C132.182 82.946 131.432 83.6875 130.508 83.6875H97.0227C96.098 83.6875 95.3485 82.946 95.3485 82.0313V38.9688C95.3485 38.054 96.098 37.3125 97.0227 37.3125H122.136V43.9375C122.136 45.767 123.636 47.25 125.485 47.25H132.182V58.7335ZM100.235 52.8445C100.235 52.194 100.642 51.6667 101.144 51.6667H119.327C119.829 51.6667 120.236 52.194 120.236 52.8445C120.236 53.4949 119.829 54.0222 119.327 54.0222H101.144C100.642 54.0222 100.235 53.4949 100.235 52.8445ZM101.135 45.778C100.638 45.778 100.235 46.3053 100.235 46.9557C100.235 47.6062 100.638 48.1335 101.135 48.1335H114.63C115.127 48.1335 115.53 47.6062 115.53 46.9557C115.53 46.3053 115.127 45.778 114.63 45.778H101.135Z" fill="white"/>
<path d="M106.658 63V67.5285H110.792V63.0803H113.451V74H110.792V69.6161H106.658V74H104V63H106.658Z" fill="#FD8533"/>
<path d="M114.479 63.0803H123.735C123.789 63.4336 123.837 63.7815 123.881 64.1241C123.935 64.4667 123.989 64.8146 124.043 65.1679H120.428V74H117.769V65.1679H114.479V63.0803Z" fill="#FD8533"/>
<path d="M129.788 70.8204L127.714 68.2511V74H125.055V63.0803H126.854L130.307 67.5445C130.837 66.8058 131.361 66.0618 131.88 65.3124C132.409 64.563 132.939 63.819 133.468 63.0803H135.203V74H132.528V68.3796C132.258 68.765 131.977 69.1504 131.685 69.5358C131.404 69.9105 131.123 70.2905 130.842 70.6759C130.669 70.6866 130.491 70.708 130.307 70.7401C130.134 70.7723 129.961 70.799 129.788 70.8204Z" fill="#FD8533"/>
<path d="M145 74H137.316V63.0803H139.975V71.9285H144.708L145 74Z" fill="#FD8533"/>
<defs>
<linearGradient id="paint0_linear_3113_2017" x1="120" y1="0" x2="120" y2="120" gradientUnits="userSpaceOnUse">
<stop stop-color="#FF8E3E"/>
<stop offset="0.995" stop-color="#FF713E"/>
</linearGradient>
</defs>
</svg>
