<?xml version="1.0" encoding="UTF-8"?>
<svg xmlns="http://www.w3.org/2000/svg" xmlns:xlink="http://www.w3.org/1999/xlink" width="56px" height="56px" viewBox="0 0 56 56" version="1.1">
<g id="surface1">
<path style=" stroke:none;fill-rule:nonzero;fill:rgb(0%,0%,0%);fill-opacity:1;" d="M 0.257812 0.414062 C 0.203125 0.460938 0.15625 4.601562 0.15625 9.609375 L 0.15625 18.726562 L 0.492188 18.804688 C 0.6875 18.851562 4.851562 18.867188 9.75 18.851562 L 18.648438 18.804688 L 18.648438 0.382812 L 9.5 0.335938 C 4.484375 0.320312 0.304688 0.351562 0.257812 0.414062 Z M 15.96875 9.515625 L 15.96875 16.117188 L 9.40625 16.085938 L 2.84375 16.039062 L 2.796875 9.671875 C 2.78125 6.171875 2.796875 3.210938 2.84375 3.117188 C 2.882812 2.960938 4.359375 2.914062 9.4375 2.914062 L 15.96875 2.914062 Z M 15.96875 9.515625 "/>
<path style=" stroke:none;fill-rule:nonzero;fill:rgb(0%,0%,0%);fill-opacity:1;" d="M 5.632812 5.632812 C 5.570312 5.679688 5.523438 7.476562 5.523438 9.625 L 5.523438 13.507812 L 9.351562 13.507812 C 11.789062 13.507812 13.21875 13.445312 13.28125 13.351562 C 13.34375 13.265625 13.367188 11.53125 13.367188 9.484375 C 13.367188 6.664062 13.3125 5.757812 13.171875 5.648438 C 12.9375 5.507812 5.773438 5.476562 5.632812 5.632812 Z M 5.632812 5.632812 "/>
<path style=" stroke:none;fill-rule:nonzero;fill:rgb(0%,0%,0%);fill-opacity:1;" d="M 21.398438 0.507812 C 21.351562 0.632812 21.335938 1.195312 21.367188 1.78125 L 21.414062 2.84375 L 22.6875 2.882812 L 23.945312 2.929688 L 23.945312 0.304688 L 22.71875 0.304688 C 21.828125 0.304688 21.460938 0.367188 21.398438 0.507812 Z M 21.398438 0.507812 "/>
<path style=" stroke:none;fill-rule:nonzero;fill:rgb(0%,0%,0%);fill-opacity:1;" d="M 26.710938 2.914062 L 26.710938 5.523438 L 24.226562 5.523438 C 22.84375 5.523438 21.632812 5.585938 21.523438 5.648438 C 21.382812 5.757812 21.335938 6.648438 21.367188 9.609375 L 21.414062 13.429688 L 22.6875 13.476562 L 23.945312 13.523438 L 23.945312 16.101562 L 22.6875 16.148438 L 21.414062 16.195312 L 21.367188 17.453125 C 21.320312 18.929688 21.335938 18.929688 22.953125 18.851562 L 23.867188 18.804688 L 23.960938 16.101562 L 26.632812 16.195312 L 26.789062 18.804688 L 28.0625 18.851562 L 29.320312 18.898438 L 29.320312 20.015625 C 29.320312 20.773438 29.257812 21.203125 29.117188 21.320312 C 28.984375 21.429688 27.617188 21.507812 25.15625 21.523438 L 21.414062 21.570312 L 21.367188 22.828125 L 21.320312 24.101562 L 18.726562 24.101562 L 18.726562 21.476562 L 17.390625 21.523438 L 16.039062 21.570312 L 15.992188 22.828125 L 15.953125 24.101562 L 14.75 24.101562 C 13.367188 24.101562 13.351562 24.117188 13.351562 25.40625 C 13.351562 26.695312 13.367188 26.710938 14.75 26.710938 L 15.953125 26.710938 L 15.992188 27.96875 L 16.039062 29.242188 L 18.648438 29.398438 L 18.695312 30.734375 L 18.742188 32.085938 L 10.742188 32.085938 L 10.71875 29.429688 L 10.671875 26.789062 L 8.101562 26.742188 L 5.523438 26.710938 L 5.523438 24.101562 L 10.742188 24.101562 L 10.742188 21.492188 L 5.492188 21.523438 L 0.226562 21.570312 L 0.226562 29.242188 L 1.492188 29.289062 L 2.75 29.335938 L 2.84375 26.789062 L 4.1875 26.742188 L 5.523438 26.695312 L 5.523438 29.320312 L 6.757812 29.320312 C 8.148438 29.320312 8.101562 29.257812 8.164062 31.007812 L 8.210938 32.007812 L 10.726562 32.101562 L 10.820312 34.617188 L 18.648438 34.617188 L 18.695312 33.34375 L 18.742188 32.085938 L 23.945312 32.085938 L 23.945312 29.320312 L 21.335938 29.320312 L 21.335938 24.101562 L 23.992188 24.132812 L 26.632812 24.179688 L 26.679688 25.4375 L 26.726562 26.710938 L 27.828125 26.710938 C 28.507812 26.710938 29.03125 26.789062 29.132812 26.898438 C 29.257812 27.015625 29.320312 27.84375 29.320312 29.578125 L 29.320312 32.085938 L 26.710938 32.085938 L 26.710938 37.304688 L 27.921875 37.304688 C 29.335938 37.304688 29.320312 37.273438 29.320312 38.929688 L 29.320312 40.0625 L 39.914062 40.0625 L 39.914062 42.523438 L 38.820312 42.523438 C 37.023438 42.523438 37.148438 42.226562 37.148438 46.664062 L 37.148438 50.507812 L 34.554688 50.507812 L 34.507812 49.226562 L 34.460938 47.96875 L 33.203125 47.921875 L 31.929688 47.882812 L 31.929688 45.296875 L 33.203125 45.257812 L 34.460938 45.210938 L 34.507812 43.953125 C 34.554688 42.476562 34.539062 42.476562 32.929688 42.554688 L 32.007812 42.601562 L 31.960938 43.9375 L 31.914062 45.28125 L 26.710938 45.28125 L 26.710938 43.992188 C 26.710938 42.523438 26.710938 42.523438 25.390625 42.523438 C 24.039062 42.523438 23.945312 42.632812 23.945312 44.054688 L 23.945312 45.28125 L 21.335938 45.28125 L 21.367188 50.546875 L 21.414062 55.796875 L 22.6875 55.84375 L 23.945312 55.890625 L 23.945312 53.265625 L 26.539062 53.265625 C 29.476562 53.265625 29.320312 53.328125 29.320312 51.992188 C 29.320312 50.523438 29.304688 50.507812 27.90625 50.507812 L 26.695312 50.507812 L 26.742188 49.226562 L 26.789062 47.96875 L 29.367188 47.921875 L 31.929688 47.898438 L 31.929688 50.507812 L 34.539062 50.507812 L 34.539062 53.007812 C 34.539062 54.742188 34.601562 55.570312 34.726562 55.695312 C 34.828125 55.796875 35.367188 55.875 36.03125 55.875 L 37.148438 55.875 L 37.148438 50.507812 L 39.898438 50.507812 L 39.945312 49.226562 L 39.992188 47.96875 L 41.21875 47.898438 L 42.445312 47.820312 L 42.492188 43.9375 L 42.523438 40.0625 L 45.132812 40.0625 L 45.132812 50.492188 L 43.875 50.53125 L 42.601562 50.578125 L 42.601562 55.796875 L 46.421875 55.84375 C 48.617188 55.859375 50.289062 55.8125 50.335938 55.742188 C 50.382812 55.664062 50.414062 55.078125 50.382812 54.4375 L 50.320312 53.265625 L 47.773438 53.234375 L 45.210938 53.1875 L 45.164062 51.851562 L 45.117188 50.507812 L 47.757812 50.476562 L 50.398438 50.429688 L 50.367188 49.15625 L 50.335938 47.898438 L 53.117188 47.898438 L 53.117188 45.28125 L 50.351562 45.28125 L 50.351562 44.148438 C 50.351562 42.648438 50.476562 42.523438 51.976562 42.523438 L 53.117188 42.523438 L 53.117188 40.0625 L 51.882812 40.0625 C 50.429688 40.0625 50.351562 39.992188 50.351562 38.390625 L 50.351562 37.304688 L 47.898438 37.304688 L 47.921875 33.34375 L 47.96875 29.398438 L 51.851562 29.351562 L 55.726562 29.320312 L 55.695312 25.4375 L 55.648438 21.570312 L 53.1875 21.570312 L 53.148438 24.132812 L 53.117188 26.710938 L 47.898438 26.710938 L 47.898438 24.101562 L 50.351562 24.101562 L 50.351562 21.492188 L 46.484375 21.523438 L 42.601562 21.570312 L 42.554688 24.132812 L 42.523438 26.710938 L 38.5625 26.742188 L 34.617188 26.789062 L 34.617188 29.242188 L 38.578125 29.289062 L 42.523438 29.320312 L 42.523438 32.085938 L 31.929688 32.085938 L 31.960938 29.445312 L 32.007812 26.789062 L 34.523438 26.695312 L 34.617188 24.179688 L 35.890625 24.132812 L 37.148438 24.085938 L 37.148438 21.492188 L 36.015625 21.492188 C 35.257812 21.492188 34.828125 21.429688 34.710938 21.289062 C 34.601562 21.15625 34.523438 19.789062 34.507812 17.328125 L 34.460938 13.585938 L 32.007812 13.429688 L 31.914062 10.914062 L 34.460938 10.820312 L 34.460938 8.210938 L 33.203125 8.164062 L 31.929688 8.117188 L 31.929688 2.929688 L 33.203125 2.882812 L 34.460938 2.84375 L 34.460938 0.382812 L 30.59375 0.335938 L 26.710938 0.304688 Z M 29.148438 5.742188 C 29.273438 5.882812 29.320312 6.367188 29.304688 7.015625 L 29.257812 8.0625 L 30.59375 8.101562 L 31.929688 8.148438 L 31.929688 10.898438 L 29.320312 10.898438 L 29.320312 11.960938 C 29.320312 13.617188 29.523438 13.507812 26.539062 13.507812 L 23.945312 13.507812 L 23.945312 10.914062 L 25.296875 10.867188 L 26.632812 10.820312 L 26.679688 8.367188 C 26.695312 7.015625 26.742188 5.820312 26.789062 5.710938 C 26.898438 5.4375 28.921875 5.46875 29.148438 5.742188 Z M 31.898438 17.453125 L 31.851562 18.804688 L 30.59375 18.851562 L 29.320312 18.898438 L 29.320312 16.117188 L 31.945312 16.117188 Z M 18.726562 25.40625 L 18.726562 26.710938 L 15.96875 26.710938 L 15.96875 24.101562 L 18.726562 24.101562 Z M 45.101562 28.046875 L 45.148438 29.320312 L 42.523438 29.320312 L 42.523438 26.695312 L 43.796875 26.742188 L 45.054688 26.789062 Z M 31.929688 33.390625 L 31.929688 34.695312 L 37.148438 34.695312 L 37.148438 37.304688 L 34.585938 37.273438 L 32.007812 37.226562 L 31.960938 35.953125 L 31.914062 34.695312 L 30.734375 34.695312 C 30.070312 34.695312 29.476562 34.632812 29.398438 34.554688 C 29.304688 34.460938 29.257812 33.882812 29.289062 33.25 L 29.351562 32.085938 L 31.929688 32.085938 Z M 45.132812 33.390625 L 45.132812 34.695312 L 42.523438 34.695312 L 42.523438 40.0625 L 39.914062 40.0625 L 39.945312 37.40625 L 39.992188 34.773438 L 41.265625 34.726562 L 42.523438 34.679688 L 42.523438 32.085938 L 45.132812 32.085938 Z M 50.351562 46.59375 L 50.351562 47.898438 L 47.898438 47.898438 L 47.898438 45.28125 L 50.351562 45.28125 Z M 50.351562 46.59375 "/>
<path style=" stroke:none;fill-rule:nonzero;fill:rgb(0%,0%,0%);fill-opacity:1;" d="M 37.257812 0.414062 C 37.195312 0.460938 37.148438 4.601562 37.148438 9.609375 L 37.148438 18.726562 L 37.5 18.804688 C 37.6875 18.851562 41.84375 18.867188 46.742188 18.851562 L 55.648438 18.804688 L 55.648438 0.382812 L 46.5 0.335938 C 41.476562 0.320312 37.304688 0.351562 37.257812 0.414062 Z M 53.117188 9.515625 L 53.117188 16.117188 L 39.914062 16.117188 L 39.914062 2.914062 L 53.117188 2.914062 Z M 53.117188 9.515625 "/>
<path style=" stroke:none;fill-rule:nonzero;fill:rgb(0%,0%,0%);fill-opacity:1;" d="M 42.703125 5.648438 C 42.570312 5.757812 42.523438 6.648438 42.554688 9.609375 L 42.601562 13.429688 L 46.484375 13.476562 L 50.351562 13.507812 L 50.320312 9.5625 L 50.273438 5.601562 L 46.59375 5.570312 C 44.5625 5.539062 42.8125 5.585938 42.703125 5.648438 Z M 42.703125 5.648438 "/>
<path style=" stroke:none;fill-rule:nonzero;fill:rgb(0%,0%,0%);fill-opacity:1;" d="M 2.796875 33.34375 L 2.84375 34.617188 L 5.453125 34.617188 L 5.492188 33.34375 L 5.539062 32.085938 L 2.75 32.085938 Z M 2.796875 33.34375 "/>
<path style=" stroke:none;fill-rule:nonzero;fill:rgb(0%,0%,0%);fill-opacity:1;" d="M 53.148438 33.34375 L 53.1875 34.617188 L 55.648438 34.617188 L 55.695312 33.34375 L 55.742188 32.085938 L 53.101562 32.085938 Z M 53.148438 33.34375 "/>
<path style=" stroke:none;fill-rule:nonzero;fill:rgb(0%,0%,0%);fill-opacity:1;" d="M 21.398438 34.890625 C 21.351562 35.015625 21.335938 35.585938 21.367188 36.164062 L 21.414062 37.226562 L 22.6875 37.273438 L 23.945312 37.320312 L 23.945312 34.695312 L 22.71875 34.695312 C 21.828125 34.695312 21.460938 34.757812 21.398438 34.890625 Z M 21.398438 34.890625 "/>
<path style=" stroke:none;fill-rule:nonzero;fill:rgb(0%,0%,0%);fill-opacity:1;" d="M 0.226562 37.484375 C 0.1875 37.59375 0.171875 41.757812 0.1875 46.742188 L 0.226562 55.796875 L 18.648438 55.796875 L 18.648438 37.382812 L 9.46875 37.335938 C 2.210938 37.304688 0.273438 37.335938 0.226562 37.484375 Z M 15.96875 46.664062 L 15.96875 53.265625 L 9.398438 53.234375 L 2.84375 53.1875 L 2.796875 46.617188 L 2.765625 40.0625 L 15.96875 40.0625 Z M 15.96875 46.664062 "/>
<path style=" stroke:none;fill-rule:nonzero;fill:rgb(0%,0%,0%);fill-opacity:1;" d="M 5.632812 42.632812 C 5.570312 42.671875 5.523438 44.46875 5.523438 46.617188 L 5.523438 50.507812 L 9.453125 50.476562 L 13.367188 50.429688 L 13.367188 46.601562 C 13.367188 43.671875 13.3125 42.75 13.171875 42.648438 C 12.921875 42.507812 5.773438 42.476562 5.632812 42.632812 Z M 5.632812 42.632812 "/>
<path style=" stroke:none;fill-rule:nonzero;fill:rgb(0%,0%,0%);fill-opacity:1;" d="M 26.710938 41.296875 L 26.710938 42.539062 L 27.984375 42.492188 L 29.242188 42.445312 L 29.242188 40.140625 L 27.984375 40.09375 L 26.710938 40.046875 Z M 26.710938 41.296875 "/>
<path style=" stroke:none;fill-rule:nonzero;fill:rgb(0%,0%,0%);fill-opacity:1;" d="M 53.171875 50.703125 C 53.132812 50.828125 53.117188 51.421875 53.148438 52.054688 L 53.1875 53.1875 L 55.648438 53.1875 L 55.648438 50.578125 L 54.453125 50.53125 C 53.546875 50.507812 53.234375 50.53125 53.171875 50.703125 Z M 53.171875 50.703125 "/>
</g>
</svg>
