<svg width="240" height="120" viewBox="0 0 240 120" fill="none" xmlns="http://www.w3.org/2000/svg">
<rect width="240" height="120" fill="#4A9BDC"/>
<g clip-path="url(#clip0_3113_1852)">
<path d="M102.68 88.1911C102.531 87.8706 102.409 87.5819 102.409 87.5496C102.409 87.5173 101.89 84.8486 101.831 84.1628C101.572 81.1686 101.165 80.8818 101.278 78.2122C101.347 76.5951 101.118 76.0435 101.606 74.721C102.612 71.9975 103.35 70.9259 104.658 70.2886C105.718 69.7715 106.714 69.8417 107.648 70.4996C107.894 70.673 108.72 71.2192 109.483 71.7134C110.247 72.2076 111.153 72.8067 111.498 73.0448C111.843 73.2829 112.418 73.6265 112.776 73.8083C113.408 74.129 113.431 74.1339 113.559 73.9719C113.841 73.6161 114.52 72.6174 114.887 72.1407C116.727 69.7529 114.994 70.0183 114.561 69.8938C113.881 69.6979 113.594 69.411 112.957 68.6822C111.479 66.9896 110.779 65.1063 110.675 62.7793C110.555 60.0771 110.833 57.8978 112.048 56.6575C112.568 56.1259 113.67 55.3539 114.677 54.8149C115.53 54.3585 120.762 53.4047 121.221 53.6029C121.451 53.7019 120.313 50.7643 120.968 46.945C121.098 46.1862 121.981 43.8383 122.074 43.6786C122.305 43.2841 126.102 42.0143 127.182 41.3945C128.389 40.702 130.998 39.034 131.195 37.7933C131.627 35.067 131.704 33.9019 131.884 33.7996C132.152 33.6472 133.944 37.2569 132.731 40.6604C132.491 41.3322 131.35 42.8917 130.839 43.544C130.471 44.0138 131.27 44.2333 131.73 44.9114C132.148 45.5282 132.423 47.0359 132.477 47.8172C132.531 48.6149 132.273 50.2517 132.042 50.5728C131.948 50.7029 131.91 50.8306 131.956 50.8585C132.002 50.8862 132.314 50.8499 132.649 50.7778C132.984 50.7057 133.711 50.5909 134.264 50.5227C135.248 50.4013 135.283 50.403 135.951 50.6037C136.953 50.9049 141.826 52.0553 138.716 65.3608C137.686 69.769 132.878 75.5858 132.274 75.1354L130.785 74.0264L129.07 76.5116C128.194 77.3904 127.25 78.2384 126.693 78.6464C125.814 79.2902 124.056 80.3044 123.819 80.3044C123.758 80.3044 123.411 80.4432 123.049 80.6129C122.002 81.1036 120.434 81.5058 118.772 81.6124C112.34 82.0196 114.794 81.2607 109.468 78.7406C109.047 78.5418 108.08 79.5446 106.915 80.5809C105.671 81.6872 105.017 82.5292 104.524 83.6631C104.357 84.047 104.096 84.6358 103.946 84.9717C103.535 85.8856 103.198 87.1502 103.147 87.9613C103.123 88.3581 103.069 88.7032 103.027 88.7283C102.985 88.7533 102.829 88.5116 102.68 88.1911ZM109.752 76.9945C110.576 76.7907 110.667 76.7458 111.553 76.0974C112.189 75.6328 112.583 74.7939 112.752 74.7206C113.858 74.2409 111.926 73.8092 111.204 73.3332C110.481 72.8571 109.542 72.5051 108.902 72.0278C108.262 71.5506 107.708 71.1784 107.671 71.2009C107.633 71.2233 107.602 71.5437 107.601 71.9127C107.599 72.989 107.451 74.0691 107.244 74.521C107.139 74.751 107.033 75.1943 107.009 75.5062C106.952 76.2287 107.124 76.5761 107.736 76.9745C108.251 77.3102 108.465 77.3124 109.752 76.9945ZM139.631 56.6091C139.362 54.847 139.584 52.4238 138.179 51.5417C134.937 49.5067 134.582 51.5247 134.383 51.9707C134.056 52.7044 133.854 53.3045 134.103 54.1111C134.865 56.5892 135.841 58.7836 136.305 60.545C136.836 62.5664 137.422 63.845 137.481 65.43C137.523 66.5553 137.512 66.6736 137.342 66.9335C137.101 67.3031 133.46 68.2084 131.627 68.7363C130.997 68.9175 131.555 70.2293 131.483 70.6611C131.411 71.093 130.425 73.5066 130.742 73.9919C133.87 78.7803 140.785 64.186 139.631 56.6091ZM132.894 68.382C133.383 68.2671 133.841 68.1269 133.911 68.0704C133.98 68.014 134.158 67.9767 134.305 67.9876C134.568 68.0072 135.598 67.6902 135.678 67.5654C135.7 67.5302 136.619 67.0616 136.435 66.9426C136.251 66.8235 132.658 64.2427 132.143 63.9802C126.21 60.9576 123.091 60.7495 121.132 61.1351C117.776 61.7958 114.878 63.4584 114.529 63.8685C114.424 63.9924 119.783 62.244 123.587 64.0809C124.29 64.4203 125.741 65.0036 126.832 66.1449C127.829 67.1874 128.737 68.2906 129.453 68.4769C130.228 68.6789 131.817 68.6351 132.894 68.382ZM125.741 55.9201C127.62 55.5989 130.53 51.7856 130.304 51.4287C130.273 51.3803 130.867 50.4178 130.77 50.399C127.255 49.7141 127.34 46.2938 127.289 46.2633C127.238 46.2328 122.106 48.6315 120.923 49.1311C119.919 49.555 121.067 52.0827 121.672 53.6514C121.941 54.3494 123.423 55.2801 124.02 55.6595C124.726 56.1084 125.581 55.9475 125.741 55.9201ZM129.79 44.2824C130.804 43.5013 133.506 39.5914 133.219 38.0048C132.051 31.5405 131.548 35.5424 131.473 36.1193C131.442 36.3582 131.354 36.8874 131.276 37.2952C131.199 37.7031 131.101 38.2919 131.058 38.6038C131.015 38.9157 130.896 39.4653 130.794 39.8252C130.692 40.185 130.53 40.7832 130.435 41.1545C130.34 41.5258 130.019 42.4404 129.723 43.1869C129.427 43.9335 129.184 44.5621 129.184 44.5838C129.184 44.6929 129.39 44.5905 129.79 44.2824Z" fill="url(#paint0_linear_3113_1852)"/>
<path fill-rule="evenodd" clip-rule="evenodd" d="M102.946 87.9866C104.532 81.5675 105.967 80.8481 109.742 78.4686C108.912 78.0074 106.867 76.4786 106.873 75.6648C106.887 73.2889 107.289 69.1476 104.607 70.8689C99.5193 74.135 101.36 84.5188 102.946 87.9866Z" fill="url(#paint1_linear_3113_1852)"/>
<path fill-rule="evenodd" clip-rule="evenodd" d="M108.525 77.6461C110.767 79.3012 112.748 80.7644 114.155 81.5404C127.868 82.2178 131.292 74.8106 131.542 68.7379C130.321 68.7927 128.241 68.5006 127.12 66.8501C124.321 67.7478 115.847 70.2653 115.699 70.8311C114.934 73.7663 112.66 76.1371 108.525 77.6461Z" fill="url(#paint2_linear_3113_1852)"/>
<path fill-rule="evenodd" clip-rule="evenodd" d="M132.323 75.1726C140.606 69.1486 139.54 57.086 139.673 56.4684C140.014 54.8981 138.014 49.5781 135.611 50.5542C131.612 52.1793 138.426 61.3937 137.512 66.4475C137.321 67.5008 134.02 68.2774 131.776 68.6178C131.517 68.657 131.747 72.0555 130.621 73.6197C130.46 73.8437 132.171 75.2827 132.323 75.1726Z" fill="url(#paint3_linear_3113_1852)"/>
<path fill-rule="evenodd" clip-rule="evenodd" d="M133.478 74.3458C144.084 64.1637 138.715 45.9869 135.012 51.2959C140.098 50.2909 140.907 66.9699 133.478 74.3458Z" fill="url(#paint4_linear_3113_1852)"/>
<path fill-rule="evenodd" clip-rule="evenodd" d="M113.339 74.4885C113.535 74.2298 109.874 73.0049 107.661 71.0583C107.416 70.8424 107.377 74.2074 107.145 75.6106C107.001 76.4823 108.516 77.3601 108.862 77.4694C109.149 77.5601 112.534 75.5503 113.339 74.4885Z" fill="url(#paint5_linear_3113_1852)"/>
<path fill-rule="evenodd" clip-rule="evenodd" d="M110.436 64.7906C109.163 58.4877 111.479 54.7816 120.759 53.4796C120.804 53.6183 131.072 50.2465 134.684 50.2236C133.705 51.7438 134.695 55.4975 135.885 58.5832C135.885 58.5832 127.192 60.7996 110.436 64.7906Z" fill="url(#paint6_linear_3113_1852)"/>
<path fill-rule="evenodd" clip-rule="evenodd" d="M114.946 63.7864C116.047 63.4009 119.191 62.4718 122.946 63.7494C125.519 64.6244 126.995 66.8305 128.105 67.6789C130.721 69.6775 135.549 67.4574 136.422 67.4708C136.781 67.4763 129.941 61.4707 124.784 61.1668C117.851 60.7583 113.524 64.2842 114.946 63.7864Z" fill="url(#paint7_linear_3113_1852)"/>
<path fill-rule="evenodd" clip-rule="evenodd" d="M131.862 33.9198C131.824 35.9694 131.164 40.8616 129.039 44.2052C128.068 45.7345 132.664 42.1866 133.158 39.137C133.431 37.4597 131.893 32.2863 131.862 33.9198Z" fill="url(#paint8_linear_3113_1852)"/>
<path fill-rule="evenodd" clip-rule="evenodd" d="M124.964 56.2774C127.27 55.1268 129.371 53.6137 130.702 50.8039C130.928 50.3282 129.604 50.7896 128.587 49.3786C127.579 47.9814 127.817 46.5634 126.954 46.6768C124.259 47.0312 120.664 49.5151 120.664 49.5151C120.664 49.5151 120.871 52.233 121.6 53.3377C123.102 55.6154 124.964 56.2774 124.964 56.2774Z" fill="url(#paint9_linear_3113_1852)"/>
<path opacity="0.552238" fill-rule="evenodd" clip-rule="evenodd" d="M128.533 49.1257C129.213 51.5375 132.994 51.1004 132.204 46.4058C131.863 46.8926 131.012 49.5658 128.533 49.1257Z" fill="url(#paint10_linear_3113_1852)"/>
<path fill-rule="evenodd" clip-rule="evenodd" d="M124.638 56.0764C123.364 55.2304 122.265 54.1779 121.561 53.0645C120.857 51.9511 120.548 46.2728 121.733 44.8616C122.384 43.3095 124.688 41.8095 127.248 41.147C122.382 46.6601 123.959 55.0161 128.265 54.2036C128.48 54.163 125.064 56.0889 124.638 56.0764Z" fill="url(#paint11_linear_3113_1852)"/>
<path fill-rule="evenodd" clip-rule="evenodd" d="M107.624 70.8921C108.575 71.5796 112.676 74.681 113.58 74.1902C111.481 79.2043 105.954 74.9566 107.624 70.8921Z" fill="url(#paint12_linear_3113_1852)"/>
<path d="M124.531 42.7304C123.546 43.2915 122.361 43.9191 122.126 44.4865C121.337 46.1067 121.041 49.0144 121.281 48.8474C123.623 47.22 126.335 46.7688 127.322 45.8972C130.246 43.3143 131.381 37.9748 130.767 38.7663C128.778 41.3285 125.547 42.1516 124.531 42.7304ZM109.203 78.5849C109.203 78.5849 106.438 76.7157 106.489 76.116C106.912 71.1327 106.007 70.8419 105.551 70.8947C105 70.9586 102.136 72.7252 101.577 77.7134C101.172 81.3331 102.635 86.9884 102.858 87.2944C104.012 84.2644 103.562 81.8256 109.203 78.5849ZM139.419 56.5076C139.282 52.7718 136.98 50.2031 135.416 50.8047C134.753 51.0599 134.308 52.7994 134.541 53.878C134.747 54.8347 136.155 58.5366 136.256 58.8496C136.495 59.5896 138.111 64.1248 137.824 66.304C137.572 68.214 131.906 68.8749 131.906 68.8749C131.906 68.8749 131.81 70.4295 131.615 71.48C131.375 72.7714 130.899 73.7848 130.899 73.7848C130.899 73.7848 132.133 74.9078 132.182 74.9065C132.232 74.9053 139.947 70.8305 139.419 56.5076ZM133.505 68.08C133.904 67.9709 136.258 67.3625 136.132 67.2817C135.258 66.7216 134.264 66.0166 132.598 64.7508C123.352 57.7238 114.953 63.6424 115.118 63.5886C116.654 63.0896 118.275 62.8076 120.528 62.9546C122.342 63.0731 125.194 63.9717 127.693 66.8818C128.622 67.9643 129.677 68.6987 133.505 68.08ZM129.38 52.8271C129.66 52.5906 130.632 50.7995 130.457 50.7579C128.003 50.1749 127.764 49.1141 127.524 47.9599C127.299 46.8788 127.334 46.7247 126.869 46.8747C123.113 48.0868 122.075 48.7529 121.5 49.219C120.6 49.949 121.231 51.9106 121.583 52.6902C122.074 53.7769 123.878 55.7431 124.717 55.9015C125.941 56.1324 128.833 53.6822 129.38 52.8271ZM132.11 46.2077C131.906 45.3943 131.252 44.3467 131.078 44.3467C130.914 44.3467 129.176 45.6604 128.728 46.1182C127.709 47.1571 128.205 49.0397 129.335 49.6855C131.248 50.7785 132.652 48.3755 132.11 46.2077ZM130.668 43.0966C131.504 42.2799 132.617 40.9393 132.913 38.9021C133.028 38.1036 133.096 37.4013 132.588 35.8226C132.47 35.4567 132.112 34.4045 132.098 34.5431C131.834 37.2804 131.447 40.32 129.618 43.5503C129.044 44.5643 129.353 44.38 130.668 43.0966ZM111.044 59.4001C110.048 63.4855 112.689 68.8509 114.829 69.1567C116.897 69.4524 122.827 67.7029 125.937 66.8579C126.752 66.6365 127.191 66.752 125.388 65.2764C122.562 63.3991 120.281 63.1573 118.005 63.4097C115.495 63.6881 113.615 64.414 113.791 64.27C114.941 63.3285 116.991 61.6448 120.951 60.8824C122.672 60.551 125.329 60.5219 128.535 61.7457C132.513 63.2638 134.585 65.5151 136.267 66.2781C136.866 66.5498 137.08 66.4235 137.316 65.7444C137.713 64.6068 135.303 57.5036 134.43 55.4323C133.097 52.2713 134.652 50.7604 134.312 50.8336C132.664 51.1886 131.211 52.2236 129.993 53.2894C127.015 55.8946 125.2 56.4496 124.93 56.4272C124.08 56.3566 122.489 54.8858 121.91 54.139C121.542 53.6624 114.939 54.9076 112.992 56.5604C112.948 56.5982 111.445 57.5396 111.044 59.4001ZM108.929 77.1866C111.107 76.2938 113.239 74.3967 113.054 74.3653C111.924 74.1732 107.754 71.3816 107.757 71.4106C107.9 72.8512 107.579 74.1457 107.432 75.5736C107.371 76.1691 108.184 77.0916 108.929 77.1866ZM115.956 70.9418C115.539 71.8493 115.104 75.4175 109.084 77.7073C108.91 77.7736 114.129 81.2608 114.413 81.273C131.649 82.0124 131.503 69.1873 131.274 68.8639C131.241 68.8171 129.767 68.8673 128.625 68.3379C128.538 68.2975 127.764 67.9074 127.302 67.3198C127.145 67.1205 127.121 67.0122 126.54 67.1771C123.854 67.9399 115.834 70.7517 115.956 70.9418ZM110.586 64.6863C107.508 54.178 118.31 53.6905 120.022 53.2859C121.347 52.973 121.058 52.8513 120.779 51.6273C120.387 49.9088 120.509 48.4108 120.845 46.8051C121.163 45.2867 121.327 44.5189 121.998 43.7576C122.539 43.1439 125.588 41.7405 126.344 41.3862C129.565 39.8766 130.796 38.2173 131.155 36.9122C131.408 35.9921 131.778 33.7243 131.612 32.1034C131.571 31.7044 131.834 32.3296 133.145 36.3084C133.815 38.3414 133.485 40.7825 131.373 42.9865C131.086 43.2858 131.225 43.3451 131.611 43.9679C132.412 45.2618 132.855 46.8799 132.731 48.0571C132.628 49.0215 132.206 49.9334 132.81 49.8625C132.897 49.8523 135.562 49.458 137.387 50.5912C138.623 51.3586 140.383 52.8296 139.926 58.9745C138.926 72.4302 132.197 75.3586 132.15 75.3602C132.036 75.364 130.777 74.0869 130.703 74.2373C126.845 82.0249 118.884 81.7451 114.444 81.827C113.557 81.8434 109.865 78.8065 109.554 79.0143C105.625 81.6382 104.534 82.2936 103.019 89C102.961 88.8937 100.918 85.3525 101.003 78.2307C101.072 72.3956 104.335 69.6419 105.785 69.8007C107.546 69.9935 108.429 70.8911 110.909 72.483C111.352 72.7671 112.916 73.6911 113.271 73.6827C114.158 73.6623 114.763 72.0707 114.908 71.0402C115.053 70.0009 115.195 70.2521 114.364 69.9729C113.318 69.6209 111.512 67.7057 110.586 64.6863Z" fill="#2C3B54"/>
<path fill-rule="evenodd" clip-rule="evenodd" d="M116.059 70.8442C117.675 69.9825 126.85 67.1797 126.932 67.0038C126.992 66.8754 116.17 71.2252 113.719 69.6127C113.572 69.5156 114.292 70.0325 114.943 70.1631C114.989 70.1722 114.985 71.844 114.369 72.7899C114.196 73.0551 115.683 71.0443 116.059 70.8442Z" fill="url(#paint13_linear_3113_1852)"/>
<path fill-rule="evenodd" clip-rule="evenodd" d="M131.008 44.3467C130.002 45.0327 128.616 45.9912 128.332 46.7303C128.165 47.1663 128.052 45.513 129.194 44.528C129.837 43.9731 131.214 44.2064 131.008 44.3467Z" fill="url(#paint14_linear_3113_1852)"/>
<path fill-rule="evenodd" clip-rule="evenodd" d="M129.656 49.8688C130.797 50.2012 131.678 49.5205 132.161 48.0538C132.218 47.8804 132.019 49.3382 131.311 49.8802C130.635 50.3968 129.415 49.7988 129.656 49.8688Z" fill="url(#paint15_linear_3113_1852)"/>
<path fill-rule="evenodd" clip-rule="evenodd" d="M132.551 51.3827C134.167 50.521 135.822 50.6529 137.232 50.7149C138.169 50.7561 135.469 49.6893 132.401 49.8561C132.074 50.1286 131.1 51.7184 129.728 53.3284C129.522 53.5701 132.176 51.5828 132.551 51.3827Z" fill="url(#paint16_linear_3113_1852)"/>
<path fill-rule="evenodd" clip-rule="evenodd" d="M117.168 54.791C118.117 54.6001 119.307 54.285 120.095 54.2074C120.752 54.1427 121.575 53.7812 122.207 54.4458C121.855 53.9742 121.182 53.0218 120.972 52.3979C121.163 53.131 120.31 53.2343 120.097 53.2672C115.326 54.0039 112.455 55.2594 111.007 57.5943C113.75 55.5206 116.989 54.8271 117.168 54.791Z" fill="url(#paint17_linear_3113_1852)"/>
</g>
<defs>
<linearGradient id="paint0_linear_3113_1852" x1="125.184" y1="42.4961" x2="132.314" y2="67.4639" gradientUnits="userSpaceOnUse">
<stop stop-color="#0F3060"/>
<stop offset="0.271152" stop-color="#0575CE"/>
<stop offset="0.732747" stop-color="#0575CE"/>
<stop offset="1" stop-color="#0F3060"/>
</linearGradient>
<linearGradient id="paint1_linear_3113_1852" x1="110.931" y1="74.0767" x2="102.405" y2="88.8338" gradientUnits="userSpaceOnUse">
<stop stop-color="#092D61"/>
<stop offset="1" stop-color="#0575CE"/>
</linearGradient>
<linearGradient id="paint2_linear_3113_1852" x1="119.171" y1="82.5813" x2="124.071" y2="49.9474" gradientUnits="userSpaceOnUse">
<stop stop-color="#0F3060"/>
<stop offset="0.456982" stop-color="#0575CE"/>
<stop offset="0.738284" stop-color="#0575CE"/>
<stop offset="1" stop-color="#0F3060"/>
</linearGradient>
<linearGradient id="paint3_linear_3113_1852" x1="122.042" y1="75.1786" x2="117.311" y2="54.5565" gradientUnits="userSpaceOnUse">
<stop stop-color="#FF8000"/>
<stop offset="0.662721" stop-color="#FFF4E1"/>
<stop offset="0.75" stop-color="#FFF4E1"/>
<stop offset="1" stop-color="#FF8400"/>
</linearGradient>
<linearGradient id="paint4_linear_3113_1852" x1="147.377" y1="56.1485" x2="129.856" y2="60.0712" gradientUnits="userSpaceOnUse">
<stop stop-color="white"/>
<stop offset="1" stop-color="white" stop-opacity="0"/>
</linearGradient>
<linearGradient id="paint5_linear_3113_1852" x1="110.241" y1="71.6128" x2="107.238" y2="76.5954" gradientUnits="userSpaceOnUse">
<stop stop-color="#FFC768"/>
<stop offset="0.378421" stop-color="#FF8400"/>
<stop offset="0.774204" stop-color="#FF8400"/>
<stop offset="1" stop-color="#FFC768"/>
</linearGradient>
<linearGradient id="paint6_linear_3113_1852" x1="118.911" y1="49.5412" x2="121.261" y2="63.7259" gradientUnits="userSpaceOnUse">
<stop stop-color="white"/>
<stop offset="1" stop-color="white" stop-opacity="0"/>
</linearGradient>
<linearGradient id="paint7_linear_3113_1852" x1="123.275" y1="62.9568" x2="126.714" y2="70.0126" gradientUnits="userSpaceOnUse">
<stop stop-color="#FF8000"/>
<stop offset="0.341448" stop-color="#FFC768"/>
<stop offset="0.71198" stop-color="#FFC768"/>
<stop offset="1" stop-color="#FF8400"/>
</linearGradient>
<linearGradient id="paint8_linear_3113_1852" x1="130.202" y1="39.543" x2="134.082" y2="39.0676" gradientUnits="userSpaceOnUse">
<stop stop-color="#FF8000"/>
<stop offset="0.5" stop-color="#FFF4E1"/>
<stop offset="0.75" stop-color="#FFF4E1"/>
<stop offset="1" stop-color="#FF8400"/>
</linearGradient>
<linearGradient id="paint9_linear_3113_1852" x1="127.679" y1="54.4544" x2="123.149" y2="48.3179" gradientUnits="userSpaceOnUse">
<stop stop-color="#FF8000"/>
<stop offset="0.341448" stop-color="#FFC768"/>
<stop offset="0.71198" stop-color="#FFC768"/>
<stop offset="1" stop-color="#FF8400"/>
</linearGradient>
<linearGradient id="paint10_linear_3113_1852" x1="133.467" y1="53.1898" x2="129.741" y2="47.7468" gradientUnits="userSpaceOnUse">
<stop stop-color="white"/>
<stop offset="1" stop-color="white" stop-opacity="0"/>
</linearGradient>
<linearGradient id="paint11_linear_3113_1852" x1="113.811" y1="53.7299" x2="126.728" y2="49.5524" gradientUnits="userSpaceOnUse">
<stop stop-color="white"/>
<stop offset="1" stop-color="white" stop-opacity="0"/>
</linearGradient>
<linearGradient id="paint12_linear_3113_1852" x1="114.179" y1="75.4197" x2="107.726" y2="70.7513" gradientUnits="userSpaceOnUse">
<stop stop-color="white"/>
<stop offset="1" stop-color="white" stop-opacity="0"/>
</linearGradient>
<linearGradient id="paint13_linear_3113_1852" x1="116.366" y1="69.4167" x2="117.154" y2="72.2254" gradientUnits="userSpaceOnUse">
<stop stop-color="#212A3A"/>
<stop offset="1" stop-color="#404E67" stop-opacity="0"/>
</linearGradient>
<linearGradient id="paint14_linear_3113_1852" x1="128.227" y1="46.8021" x2="131.478" y2="46.0034" gradientUnits="userSpaceOnUse">
<stop stop-color="#212A3A"/>
<stop offset="1" stop-color="#404E67" stop-opacity="0"/>
</linearGradient>
<linearGradient id="paint15_linear_3113_1852" x1="131.342" y1="50.0964" x2="129.782" y2="49.8688" gradientUnits="userSpaceOnUse">
<stop stop-color="#212A3A"/>
<stop offset="1" stop-color="#404E67" stop-opacity="0"/>
</linearGradient>
<linearGradient id="paint16_linear_3113_1852" x1="131.273" y1="51.0759" x2="137.823" y2="49.7795" gradientUnits="userSpaceOnUse">
<stop stop-color="#212A3A"/>
<stop offset="1" stop-color="#404E67" stop-opacity="0"/>
</linearGradient>
<linearGradient id="paint17_linear_3113_1852" x1="116.69" y1="54.2984" x2="112.317" y2="56.4506" gradientUnits="userSpaceOnUse">
<stop stop-color="#212A3A"/>
<stop offset="1" stop-color="#404E67" stop-opacity="0"/>
</linearGradient>
<clipPath id="clip0_3113_1852">
<rect width="57" height="57" fill="white" transform="translate(92 32)"/>
</clipPath>
</defs>
</svg>
