<svg width="240" height="120" viewBox="0 0 240 120" fill="none" xmlns="http://www.w3.org/2000/svg">
<rect width="240" height="120" fill="#357EE5"/>
<path fill-rule="evenodd" clip-rule="evenodd" d="M92 37.4815V32H100.769C102.231 32 103.692 33.3704 103.692 34.7407V62.5185C103.692 63.0708 104.14 63.5185 104.692 63.5185H112.923C113.476 63.5185 113.923 63.0708 113.923 62.5185V59.4074H121.231V66.2593C121.231 67.6296 119.77 69 118.308 69H99.3078C97.8462 69 96.3847 67.6296 96.3847 66.2593V38.4815C96.3847 37.9292 95.9369 37.4815 95.3847 37.4815H92ZM115.383 34.7407C115.383 33.3704 116.845 32 118.306 32H146.076C147.537 32 148.999 33.3704 148.999 34.7407V41.5926H143.153V38.4815C143.153 37.9292 142.705 37.4815 142.153 37.4815H135.845V69H128.537V37.4815H122.23C121.677 37.4815 121.23 37.9292 121.23 38.4815V41.5926H115.383V34.7407Z" fill="white"/>
<path d="M92 86.1111C92 85.3889 95.1667 76 101.5 76C107.833 76 108.625 83.2222 111 83.2222C113.375 83.2222 114.167 76 120.5 76C126.833 76 127.625 83.2222 130 83.2222C132.375 83.2222 133.167 76 139.5 76C145.833 76 149 85.3889 149 86.1111C149 86.8333 149 89 145.833 89C142.667 89 141.875 81.7778 139.5 81.7778C137.125 81.7778 136.333 89 130 89C123.667 89 122.875 81.7778 120.5 81.7778C118.125 81.7778 117.333 89 111 89C104.667 89 103.875 81.7778 101.5 81.7778C99.125 81.7778 98.3333 89 95.1667 89C92 89 92 86.8333 92 86.1111Z" fill="white"/>
</svg>
