<svg width="240" height="120" viewBox="0 0 240 120" fill="none" xmlns="http://www.w3.org/2000/svg">
<rect width="240" height="120" fill="url(#paint0_linear_3113_1597)"/>
<path d="M145.252 87.7275C144.381 88.5446 143.226 89 142.025 89C140.825 89 139.67 88.5446 138.798 87.7275V87.5992L101.524 49.4645L100.876 49.7723C98.8821 50.7049 96.9962 51.8485 95.2513 53.1831L95.0439 53.3883C93.7887 54.8754 92.9012 56.6316 92.4518 58.5173C92.2772 59.1897 92.034 59.8427 91.726 60.4664C91.2595 60.0304 90.5855 58.3634 91.3372 52.0803C91.7749 49.5591 93.0414 47.2514 94.9402 45.5151C95.1994 45.2586 95.6142 44.8483 95.5623 44.3867C95.9534 43.2816 96.6225 42.2931 97.5064 41.5144C98.3542 40.7571 99.3275 40.1499 100.384 39.7193L101.083 39.4115L100.928 38.7191C100.939 37.9519 101.193 37.2075 101.654 36.5905L106.371 32L114.148 39.3602C112.625 40.8208 111.024 42.1991 109.352 43.4891C108.661 44.1009 107.822 44.525 106.916 44.7201H106.501L105.049 46.105L145.201 81.5725C145.631 81.9626 145.976 82.4361 146.213 82.9637C146.45 83.4912 146.575 84.0614 146.58 84.6388C146.585 85.2162 146.47 85.7885 146.241 86.3199C146.013 86.8512 145.676 87.3304 145.252 87.7275Z" fill="white"/>
<path d="M92.4259 87.1122C92.0071 86.7193 91.6735 86.246 91.4456 85.7213C91.2176 85.1967 91.1001 84.6315 91.1001 84.0604C91.1001 83.4893 91.2176 82.9243 91.4456 82.3996C91.6735 81.8749 92.0071 81.4016 92.4259 81.0086L126.123 51.4908L125.786 50.901C124.683 48.8218 124.299 46.4425 124.692 44.1268C125.085 41.8112 126.234 39.6867 127.963 38.0783C129.329 36.801 130.978 35.8576 132.779 35.3232C134.579 34.7889 136.481 34.6785 138.332 35.0008L131.514 41.4635L133.51 48.5672L141.001 50.4393L147.845 43.8741C148.152 45.6499 148.002 47.4738 147.408 49.1771C146.815 50.8804 145.797 52.4082 144.449 53.6194C142.653 55.3133 140.373 56.419 137.92 56.7861C135.467 57.1532 132.959 56.7638 130.737 55.671L130.115 55.3632L99.0098 87.0609C98.1357 87.9169 96.9582 88.4013 95.7284 88.4109C94.4986 88.4205 93.3136 87.9545 92.4259 87.1122Z" fill="white"/>
<defs>
<linearGradient id="paint0_linear_3113_1597" x1="120" y1="0" x2="120" y2="120" gradientUnits="userSpaceOnUse">
<stop stop-color="#FF8E3E"/>
<stop offset="0.995" stop-color="#FF713E"/>
</linearGradient>
</defs>
</svg>
