<svg width="240" height="120" viewBox="0 0 240 120" fill="none" xmlns="http://www.w3.org/2000/svg">
<rect width="240" height="120" fill="url(#paint0_linear_3113_1717)"/>
<path d="M147.997 71.4783C147.771 65.0188 140.751 66.7401 138.861 62.7767C137.016 58.9072 140.189 57.5811 140.189 53.2628C140.189 48.1472 136.066 44 130.98 44C124.413 44 124.506 49.5584 119.5 49.5584C114.495 49.5584 114.587 44 108.02 44C102.934 44 98.8112 48.1472 98.8112 53.2628C98.8112 57.5811 101.984 58.9072 100.139 62.7767C98.2489 66.7401 91.2292 65.0188 91.0032 71.4783C90.8966 74.5258 93.461 77 96.4933 77C99.5253 77 102 74.5277 101.983 71.4783C101.969 68.9857 100.273 68.0979 100.883 65.1268H100.884C101.374 62.642 104.018 60.5137 107.431 60.0857C111.256 59.6064 115.578 61.506 115.578 65.7956C115.578 68.4517 114.014 68.8114 114.014 71.4783C114.014 74.4091 116.388 77 119.496 77C122.604 77 124.986 74.4091 124.986 71.4783C124.986 68.8114 123.422 68.4517 123.422 65.7956C123.422 61.506 127.744 59.6064 131.569 60.0857C134.982 60.5137 137.627 62.642 138.116 65.1268H138.118C138.726 68.0979 137.031 68.9857 137.017 71.4783C137 74.5277 139.475 77 142.507 77C145.539 77 148.103 74.5258 147.997 71.4783ZM119.504 62.299C116.472 62.299 114.014 59.8267 114.014 56.7771C114.014 53.7278 116.472 51.2554 119.504 51.2554C122.536 51.2554 124.994 53.7278 124.994 56.7771C124.994 59.8267 122.536 62.299 119.504 62.299Z" fill="white"/>
<defs>
<linearGradient id="paint0_linear_3113_1717" x1="120" y1="0" x2="120" y2="120" gradientUnits="userSpaceOnUse">
<stop stop-color="#E5222E"/>
<stop offset="1" stop-color="#D61A26"/>
</linearGradient>
</defs>
</svg>
