<svg width="240" height="120" viewBox="0 0 240 120" fill="none" xmlns="http://www.w3.org/2000/svg">
<rect width="240" height="120" fill="url(#paint0_linear_3113_1837)"/>
<path d="M105 32H97.8H93V36.8V44H97.8V36.8H105V32Z" fill="white"/>
<path d="M148 44V32H136V36.8H143.2V44H148Z" fill="white"/>
<path d="M136 89H143.2H148V84.2V77H143.2V84.2H136V89Z" fill="white"/>
<path d="M93 77V89H105V84.2H97.8V77H93Z" fill="white"/>
<path d="M93.0159 60.601C92.9668 59.0025 93.25 57.4114 93.8471 55.931C94.2494 54.9821 94.8215 54.1169 95.5346 53.379C96.2011 52.6894 96.9977 52.1427 97.877 51.7713C99.106 51.2546 100.425 50.9942 101.756 51.0058C102.934 50.9622 104.109 51.1665 105.206 51.6057C106.303 52.0449 107.298 52.7095 108.128 53.5577C108.952 54.5056 109.583 55.6089 109.985 56.8045C110.387 58 110.552 59.2642 110.471 60.5244C110.541 61.7801 110.366 63.0374 109.955 64.2243C109.545 65.4111 108.907 66.504 108.078 67.4402C107.257 68.2941 106.267 68.9627 105.173 69.4025C104.079 69.8422 102.906 70.0432 101.731 69.9921C100.551 70.0436 99.3743 69.8429 98.2764 69.4033C97.1785 68.9636 96.1843 68.2947 95.3583 67.4402C93.7141 65.5649 92.8717 63.1051 93.0159 60.601ZM96.7688 60.601C96.6502 62.2969 97.1523 63.9775 98.1793 65.3221C98.6264 65.8414 99.1809 66.2547 99.8033 66.5326C100.426 66.8104 101.101 66.946 101.781 66.9298C102.481 66.9458 103.174 66.7974 103.808 66.4963C104.442 66.1953 104.998 65.7497 105.433 65.1945C106.459 63.8408 106.953 62.1493 106.818 60.4479C106.94 58.7636 106.447 57.0926 105.433 55.7523C104.982 55.2409 104.426 54.8363 103.804 54.5672C103.181 54.2982 102.508 54.1713 101.831 54.1957C101.149 54.1689 100.469 54.297 99.8412 54.5708C99.2136 54.8445 98.6544 55.2569 98.2045 55.7779C97.1637 57.1064 96.6515 58.7815 96.7688 60.4734V60.601Z" fill="white"/>
<path d="M125.029 62.9237L128.581 64.0466C128.182 65.7901 127.226 67.3512 125.861 68.4869C124.474 69.5075 122.787 70.0205 121.075 69.9415C119.969 69.9695 118.871 69.7561 117.854 69.3157C116.837 68.8754 115.925 68.2185 115.181 67.3896C113.626 65.5112 112.841 63.0997 112.99 60.6525C112.794 58.0903 113.578 55.5499 115.181 53.5581C115.963 52.7154 116.913 52.0518 117.969 51.6117C119.025 51.1716 120.161 50.9651 121.302 51.0062C123.275 50.9258 125.2 51.6311 126.667 52.9712C127.571 53.9071 128.214 55.0695 128.53 56.3397L124.929 57.2329C124.749 56.3524 124.278 55.5603 123.594 54.9872C122.881 54.4094 121.987 54.1105 121.075 54.1451C120.458 54.1249 119.844 54.2478 119.281 54.5043C118.718 54.7608 118.22 55.1442 117.826 55.6252C116.857 56.993 116.409 58.6701 116.566 60.3463C116.412 62.0825 116.848 63.82 117.801 65.2715C118.189 65.7471 118.678 66.1273 119.232 66.3837C119.786 66.6401 120.39 66.7658 120.999 66.7516C121.926 66.7649 122.823 66.4283 123.518 65.8074C124.298 65.0228 124.825 64.0175 125.029 62.9237Z" fill="white"/>
<path d="M131.855 69.6361V51.3643H139.411C140.829 51.3066 142.248 51.4702 143.617 51.8492C144.496 52.155 145.244 52.759 145.733 53.559C146.281 54.4168 146.561 55.4214 146.539 56.4427C146.58 57.6891 146.147 58.9037 145.33 59.8367C144.381 60.8066 143.122 61.4034 141.779 61.521C142.498 61.9282 143.153 62.4446 143.718 63.0522C144.487 63.9791 145.177 64.9692 145.784 66.0124L148 69.5851H143.718L141.074 65.6041C140.502 64.6637 139.863 63.768 139.159 62.9246C138.861 62.589 138.49 62.3271 138.076 62.159C137.476 62.0024 136.857 61.9337 136.238 61.9548H135.507V69.6106L131.855 69.6361ZM135.507 59.0967H138.177C139.265 59.1545 140.356 59.0774 141.426 58.867C141.844 58.734 142.207 58.4648 142.459 58.1014C142.722 57.6924 142.854 57.2112 142.837 56.7234C142.861 56.1829 142.681 55.6533 142.333 55.2433C141.988 54.8351 141.501 54.5788 140.973 54.5287C140.083 54.4809 139.192 54.4809 138.303 54.5287H135.507V59.0967Z" fill="white"/>
<defs>
<linearGradient id="paint0_linear_3113_1837" x1="120" y1="0" x2="120" y2="120" gradientUnits="userSpaceOnUse">
<stop stop-color="#FF8E3E"/>
<stop offset="0.995" stop-color="#FF713E"/>
</linearGradient>
</defs>
</svg>
