<svg width="240" height="120" viewBox="0 0 240 120" fill="none" xmlns="http://www.w3.org/2000/svg">
<rect width="240" height="120" fill="url(#paint0_linear_3113_2107)"/>
<path d="M117.479 32.0002C111.159 32.0002 105.544 36.015 103.587 41.9408C101.579 42.3493 99.6814 43.175 98.0217 44.3632C96.3619 45.5514 94.9777 47.0747 93.9611 48.8317C90.7914 54.2363 91.5152 61.0308 95.7615 65.6632C94.4505 69.5433 94.9005 73.7893 96.9941 77.3028C100.144 82.7266 106.483 85.5062 112.686 84.2129C114.044 85.725 115.713 86.9341 117.582 87.7596C119.451 88.585 121.477 89.0079 123.525 88.9999C129.845 88.9999 135.46 84.9851 137.417 79.0592C141.486 78.2289 144.989 75.7195 147.023 72.1684C150.212 66.7637 149.489 59.9693 145.243 55.3368V55.3177C145.891 53.3998 146.116 51.3676 145.903 49.3569C145.691 47.3463 145.045 45.4037 144.01 43.6589C140.859 38.2543 134.52 35.474 128.338 36.7674C126.973 35.2592 125.3 34.0542 123.428 33.2324C121.556 32.4105 119.528 31.9905 117.479 32.0002ZM117.479 35.7065L117.459 35.7257C120.003 35.7257 122.449 36.5943 124.405 38.1968C124.327 38.2351 124.17 38.3316 124.053 38.3897L112.549 44.9331C111.962 45.2614 111.61 45.879 111.61 46.5548V61.9192L106.66 59.1013V46.4002C106.659 43.5671 107.797 40.8494 109.826 38.8442C111.855 36.839 114.607 35.7109 117.479 35.7065ZM131.337 40.1796C133.244 40.176 135.117 40.669 136.769 41.6087C138.42 42.5485 139.791 43.9017 140.742 45.5316C141.994 47.6936 142.464 50.2222 142.033 52.6735C141.955 52.6154 141.799 52.5388 141.7 52.4806L130.196 45.9174C129.907 45.7559 129.58 45.671 129.248 45.671C128.915 45.671 128.588 45.7559 128.299 45.9174L114.818 53.5996V47.9631L125.951 41.6125C127.587 40.6763 129.445 40.1819 131.337 40.1789V40.1796ZM102.883 46.0138V59.5062C102.883 60.182 103.236 60.7805 103.823 61.1279L117.283 68.791L112.313 71.628L101.2 65.2966C98.7167 63.8767 96.9057 61.5425 96.1648 58.8066C95.424 56.0706 95.8137 53.1564 97.2486 50.7037C98.5143 48.5392 100.508 46.8805 102.883 46.0138ZM128.67 49.3529L139.803 55.6843C144.988 58.6376 146.748 65.1619 143.755 70.2772L143.774 70.2964C142.503 72.4584 140.507 74.1183 138.139 74.9678V61.4747C138.139 60.7989 137.787 60.1813 137.2 59.8537L123.72 52.1708L128.67 49.3529ZM120.492 54.0052L126.166 57.2478V63.7139L120.492 66.9566L114.818 63.7139V57.2478L120.492 54.0052ZM129.414 59.1013L134.364 61.9192V74.6012C134.364 80.5079 129.511 85.2949 123.544 85.2949V85.2757C121.02 85.2757 118.555 84.4071 116.618 82.8053C116.696 82.767 116.872 82.6699 116.97 82.6117L128.474 76.0683C129.061 75.74 129.433 75.1224 129.413 74.4466L129.414 59.1013ZM126.185 67.4012V73.037L115.052 79.3684C109.867 82.3026 103.254 80.5653 100.261 75.4691H100.28C99.0088 73.3263 98.5582 70.7786 98.9887 68.3272C99.067 68.3854 99.2237 68.462 99.3214 68.5201L110.826 75.0834C111.115 75.2449 111.442 75.3297 111.774 75.3297C112.107 75.3297 112.434 75.2449 112.723 75.0834L126.185 67.4012Z" fill="white"/>
<defs>
<linearGradient id="paint0_linear_3113_2107" x1="1.78814e-06" y1="60" x2="240" y2="60" gradientUnits="userSpaceOnUse">
<stop stop-color="#F9B4FF"/>
<stop offset="1" stop-color="#E574EF"/>
</linearGradient>
</defs>
</svg>
