<svg width="240" height="120" viewBox="0 0 240 120" fill="none" xmlns="http://www.w3.org/2000/svg">
<rect width="240" height="120" fill="url(#paint0_linear_3113_1867)"/>
<path fill-rule="evenodd" clip-rule="evenodd" d="M93.5909 34.5909H140.227V50.1364H142.818V34.5909C142.818 33.16 141.658 32 140.227 32H93.5909C92.16 32 91 33.16 91 34.5909V81.2273C91 82.6582 92.16 83.8182 93.5909 83.8182H109.136V81.2273H93.5909V75.2868L102.659 66.2186L107.841 71.4004L123.386 55.855L126.357 58.8253L128.189 56.9933L123.386 52.1909L107.841 67.7363L102.659 62.5545L93.5909 71.6227V34.5909ZM135.045 81.2273L132.455 83.8182H140.227C141.658 83.8182 142.818 82.6582 142.818 81.2273V73.4545L140.227 76.0455V81.2273H135.045ZM106.546 44.9548C106.546 46.3857 105.386 47.5457 103.955 47.5457C102.524 47.5457 101.364 46.3857 101.364 44.9548C101.364 43.5238 102.524 42.3639 103.955 42.3639C105.386 42.3639 106.546 43.5238 106.546 44.9548ZM109.136 44.9548C109.136 47.8166 106.816 50.1366 103.955 50.1366C101.093 50.1366 98.7728 47.8166 98.7728 44.9548C98.7728 42.0929 101.093 39.7729 103.955 39.7729C106.816 39.7729 109.136 42.0929 109.136 44.9548ZM140.227 68.2727L119.5 89H111.727V81.2273L132.454 60.5L140.227 68.2727ZM142.818 65.6816L135.045 57.9089L140.227 52.7271H142.818L148 57.9089V60.4998L142.818 65.6816Z" fill="white"/>
<defs>
<linearGradient id="paint0_linear_3113_1867" x1="120" y1="0" x2="120" y2="120" gradientUnits="userSpaceOnUse">
<stop stop-color="#FF8E3E"/>
<stop offset="1" stop-color="#FF713E"/>
</linearGradient>
</defs>
</svg>
