<svg width="240" height="120" viewBox="0 0 240 120" fill="none" xmlns="http://www.w3.org/2000/svg">
<rect width="240" height="120" fill="url(#paint0_linear_3113_1807)"/>
<path d="M56.3257 49.3995C61.8475 49.2755 67.0304 53.6684 67.6137 59.054C68.3113 63.7874 65.4643 68.7031 61.0026 70.624C58.2999 71.9364 55.2479 71.5331 52.3407 71.6002H49.5007V80.4998H45.0021C45.0117 73.6328 44.9839 66.7654 45.0159 59.8982C45.1631 54.7833 49.4459 50.2013 54.6166 49.5204C55.182 49.4383 55.7554 49.3981 56.3257 49.399V49.3995ZM56.3257 67.1991C59.5708 67.2786 62.6142 64.8023 63.0985 61.6579C63.7452 58.4927 61.6809 55.0916 58.5253 54.1424C55.4773 53.0845 51.8103 54.4772 50.322 57.2922C49.1669 59.2156 49.5772 61.4894 49.5006 63.6087V67.1992C51.7757 67.1992 54.0506 67.1992 56.3257 67.1991L56.3257 67.1991Z" fill="white"/>
<path d="M69.7895 49.2915H74.2373V71.4927H69.7895V49.2915Z" fill="white"/>
<path d="M87.6038 63.3098H87.7659L94.0882 71.555H99.6L91.0081 60.1386L98.6274 49.3564H93.1155L87.7658 56.9673H87.6036L82.2539 49.3564H76.7421L84.3614 60.1386L75.7695 71.555H81.2814L87.6038 63.3098Z" fill="white"/>
<path d="M109.672 49.2924C114.177 49.2055 118.498 52.0921 120.165 56.1674C121.035 58.0602 121.023 60.1571 120.995 62.189V71.4934C116.981 71.4799 112.965 71.5205 108.951 71.4723C104.336 71.252 100.116 67.9606 98.7946 63.6415C97.5833 59.8864 98.5897 55.5259 101.441 52.7217C103.57 50.5669 106.597 49.2638 109.672 49.2924H109.672ZM116.497 67.0933C116.477 64.6247 116.537 62.1538 116.463 59.6869C116.197 56.3797 113.065 53.6088 109.671 53.6939C106.445 53.6177 103.403 56.0659 102.899 59.1902C102.307 62.1884 104.067 65.4553 106.992 66.5742C108.794 67.3428 110.784 67.0259 112.689 67.0933C113.958 67.0933 115.227 67.0933 116.497 67.0933Z" fill="white"/>
<path d="M134.535 49.3999C139.862 49.2714 144.841 53.3712 145.689 58.5035C146.651 63.3672 143.842 68.6219 139.212 70.6243C134.686 72.7133 128.867 71.3673 125.755 67.5392C123.827 65.3171 122.996 62.3626 123.16 59.4817V40.5H127.658V49.3996C129.95 49.3999 132.243 49.399 134.535 49.4L134.535 49.3999ZM134.535 67.1994C137.951 67.2888 141.075 64.4829 141.325 61.1583C141.754 57.8537 139.249 54.5303 135.905 53.9298C134.056 53.6822 132.178 53.8488 130.315 53.8H127.659C127.688 56.3082 127.597 58.821 127.71 61.3259C128.068 64.6395 131.131 67.2644 134.535 67.1994Z" fill="white"/>
<path d="M158.915 49.2924C163.42 49.2055 167.741 52.0922 169.408 56.1674C170.279 58.0602 170.267 60.1571 170.239 62.189V71.4934C166.224 71.4799 162.208 71.5205 158.195 71.4723C153.58 71.252 149.359 67.9606 148.038 63.6415C146.827 59.8864 147.833 55.5259 150.684 52.7217C152.814 50.5669 155.84 49.2638 158.915 49.2924H158.915ZM165.74 67.0933C165.721 64.6247 165.781 62.1538 165.707 59.6869C165.441 56.3797 162.309 53.6088 158.915 53.6939C155.689 53.6177 152.647 56.0659 152.142 59.1902C151.551 62.1884 153.311 65.4553 156.236 66.5742C158.038 67.3428 160.028 67.0259 161.932 67.0933C163.202 67.0933 164.471 67.0933 165.74 67.0933Z" fill="white"/>
<path d="M194.998 49.3462C194.988 56.1967 195.016 63.0483 194.984 69.8979C194.821 75.2894 190.084 80.135 184.553 80.4167C183.503 80.4711 182.45 80.438 181.399 80.4471V76.0471C183.318 76.0377 185.372 76.2283 187.072 75.165C189.196 73.9999 190.545 71.6499 190.498 69.2736C186.51 72.4185 180.328 72.2552 176.45 69.009C173.625 66.7781 172.081 63.1894 172.299 59.6579V49.3466H176.797C176.818 53.2659 176.755 57.1879 176.831 61.1054C177.075 64.3318 180.016 67.0621 183.322 67.1392C186.671 67.391 189.896 64.8467 190.395 61.6055C190.597 59.6665 190.454 57.7079 190.497 55.7602V49.3465C191.997 49.3464 193.497 49.3463 194.997 49.3462H194.998Z" fill="white"/>
<defs>
<linearGradient id="paint0_linear_3113_1807" x1="120" y1="0" x2="120" y2="120" gradientUnits="userSpaceOnUse">
<stop stop-color="#57B057"/>
<stop offset="1" stop-color="#53A953"/>
</linearGradient>
</defs>
</svg>
