<svg width="240" height="120" viewBox="0 0 240 120" fill="none" xmlns="http://www.w3.org/2000/svg">
<rect width="240" height="120" fill="#584394"/>
<rect x="91" y="32" width="57" height="57" rx="8" fill="white"/>
<path d="M129.263 75C128.603 75 127.949 74.7337 127.474 74.2112L116.184 61.7393C115.555 61.0449 115.401 60.0539 115.788 59.2045C116.174 58.3551 117.029 57.809 117.974 57.809H123.105C125.37 57.809 127.211 55.9955 127.211 53.764C127.211 51.5326 125.37 49.7191 123.105 49.7191H110.789V72.6404C110.789 73.9449 109.719 75 108.395 75C107.071 75 106 73.9449 106 72.6404V47.3596C106 46.0551 107.071 45 108.395 45H123.105C128.011 45 132 48.9303 132 53.764C132 58.5978 128.124 62.4169 123.317 62.5247L131.052 71.0697C131.932 72.0438 131.846 73.5337 130.861 74.4C130.406 74.8011 129.834 75 129.267 75H129.263Z" fill="#584394"/>
<path d="M98.8901 42.6465C98.8901 41.127 100.127 39.8904 101.646 39.8904H113.215C114.392 38.1543 115.712 36.516 117.158 35H101.646C97.43 35 94 38.4303 94 42.6465V67.0951C95.5439 65.5895 97.1786 64.1783 98.8901 62.8684V42.6465Z" fill="#44AC38"/>
<path d="M137.351 39.8904C138.87 39.8904 140.107 41.127 140.107 42.6465V49.8983C141.741 50.2127 143.373 50.5655 144.997 50.9497V42.6465C144.997 38.4303 141.567 35 137.351 35H117.162C115.712 36.516 114.395 38.1543 113.218 39.8904H137.351Z" fill="#1D85C7"/>
<path d="M101.646 81.1094C100.127 81.1094 98.8901 79.8729 98.8901 78.3533V69.2188C97.1401 70.7907 95.502 72.4848 94 74.2873V78.3533C94 82.5696 97.43 85.9998 101.646 85.9998H124.057C123.316 84.379 122.603 82.7477 121.908 81.1094H101.646Z" fill="#E84A1C"/>
<path d="M140.107 78.3539C140.107 79.8734 138.87 81.1099 137.351 81.1099H121.912C122.607 82.7482 123.32 84.3795 124.06 86.0004H137.354C141.57 86.0004 145 82.5701 145 78.3539V55.9767C143.38 55.575 141.748 55.2082 140.11 54.8799V78.3539H140.107Z" fill="#CE0372"/>
</svg>
