<svg width="240" height="120" viewBox="0 0 240 120" fill="none" xmlns="http://www.w3.org/2000/svg">
<rect width="240" height="120" fill="url(#paint0_linear_3113_1762)"/>
<path fill-rule="evenodd" clip-rule="evenodd" d="M109.422 71.3871H92V49.6129H109.422L121.925 38V83L109.422 71.3871ZM136.696 81.6304L134.992 77.5865L135.994 76.9196C141.254 73.419 144.725 67.3725 144.725 60.501C144.725 53.4383 141.058 47.2468 135.551 43.7962L134.504 43.1398L136.199 39.1087L137.6 39.9681C144.428 44.1561 149 51.7839 149 60.501C149 68.9992 144.654 76.4625 138.11 80.712L136.696 81.6304ZM131.583 69.4914L129.897 65.4895L130.946 64.8328C132.376 63.9365 133.325 62.331 133.325 60.501C133.325 58.5154 132.207 56.7932 130.571 55.9566L129.372 55.3437L131.052 51.3489L132.397 52.0182C135.475 53.5491 137.6 56.7709 137.6 60.501C137.6 63.994 135.736 67.0417 132.973 68.6714L131.583 69.4914Z" fill="white"/>
<defs>
<linearGradient id="paint0_linear_3113_1762" x1="120" y1="0" x2="120" y2="120" gradientUnits="userSpaceOnUse">
<stop stop-color="#FF8E3E"/>
<stop offset="0.995" stop-color="#FF713E"/>
</linearGradient>
</defs>
</svg>
