<svg width="240" height="120" viewBox="0 0 240 120" fill="none" xmlns="http://www.w3.org/2000/svg">
<rect width="240" height="120" fill="url(#paint0_linear_3113_1822)"/>
<path fill-rule="evenodd" clip-rule="evenodd" d="M110.695 41.9853C110.695 36.4795 115.094 32 120.5 32C125.907 32 130.306 36.4795 130.306 41.9853V61.6787C130.306 67.1465 125.907 71.5948 120.5 71.5948C115.094 71.5948 110.695 67.1153 110.695 61.6101V41.9853ZM120.5 67.4336C123.654 67.4336 126.219 64.8513 126.219 61.6782V41.9853C126.22 38.7734 123.654 36.1606 120.5 36.1606C117.346 36.1606 114.78 38.7734 114.78 41.9853V61.6095C114.78 64.8214 117.347 67.4336 120.5 67.4336ZM122.543 79.5875C131.233 78.554 138 71.01 138 61.887V60.2228C138 59.0739 137.086 58.1425 135.957 58.1425C134.829 58.1425 133.914 59.0738 133.914 60.2228V61.887C133.914 69.419 127.896 75.5476 120.5 75.5476C113.103 75.5476 107.086 69.4191 107.086 61.887V60.2228C107.086 59.0738 106.171 58.1425 105.043 58.1425C103.914 58.1425 103 59.0738 103 60.2228V61.887C103 71.01 109.767 78.554 118.457 79.5875V84.8398H115.12C113.992 84.8398 113.078 85.7711 113.078 86.9201C113.078 88.0691 113.992 89.0004 115.12 89.0004H125.879C127.008 89.0004 127.922 88.0691 127.922 86.9201C127.922 85.7711 127.008 84.8398 125.879 84.8398H122.543V79.5875Z" fill="white"/>
<defs>
<linearGradient id="paint0_linear_3113_1822" x1="120" y1="0" x2="120" y2="120" gradientUnits="userSpaceOnUse">
<stop stop-color="#FF8E3E"/>
<stop offset="1" stop-color="#FF713E"/>
</linearGradient>
</defs>
</svg>
