<svg width="240" height="120" viewBox="0 0 240 120" fill="none" xmlns="http://www.w3.org/2000/svg">
<rect width="240" height="120" fill="url(#paint0_linear_3118_3593)"/>
<path d="M104.901 63.7778L111.159 81.092C111.159 81.092 111.942 82.712 112.78 82.712C113.617 82.712 126.078 69.7538 126.078 69.7538L139.935 43L105.125 59.3085L104.901 63.7778Z" fill="#C8DAEA"/>
<path d="M113.199 68.2183L111.998 80.9805C111.998 80.9805 111.495 84.891 115.406 80.9805C119.317 77.07 123.061 74.0545 123.061 74.0545" fill="#A9C6D8"/>
<path d="M105.014 64.3957L92.1413 60.2031C92.1413 60.2031 90.6029 59.5792 91.0983 58.1644C91.2003 57.8726 91.406 57.6244 92.0213 57.1977C94.8736 55.2104 144.815 37.2675 144.815 37.2675C144.815 37.2675 146.225 36.7925 147.056 37.1084C147.262 37.1721 147.447 37.2892 147.593 37.4479C147.738 37.6065 147.839 37.801 147.885 38.0113C147.975 38.3829 148.012 38.7652 147.996 39.1471C147.993 39.4776 147.953 39.7838 147.922 40.264C147.618 45.1697 138.516 81.7823 138.516 81.7823C138.516 81.7823 137.971 83.9248 136.02 83.9981C135.54 84.0136 135.063 83.9324 134.615 83.7594C134.168 83.5864 133.76 83.3251 133.416 82.9911C129.587 79.6988 116.352 70.8084 113.428 68.8532C113.362 68.8082 113.307 68.7497 113.265 68.6815C113.224 68.6132 113.198 68.537 113.188 68.4577C113.147 68.2516 113.371 67.9964 113.371 67.9964C113.371 67.9964 136.416 47.5213 137.029 45.3718C137.076 45.2053 136.897 45.1231 136.656 45.1961C135.125 45.7589 108.593 62.5076 105.665 64.3561C105.454 64.4199 105.231 64.4334 105.014 64.3957Z" fill="white"/>
<defs>
<linearGradient id="paint0_linear_3118_3593" x1="120" y1="0" x2="120" y2="120" gradientUnits="userSpaceOnUse">
<stop stop-color="#33ABE0"/>
<stop offset="0.746" stop-color="#2096D4"/>
</linearGradient>
</defs>
</svg>
