<svg width="240" height="120" viewBox="0 0 240 120" fill="none" xmlns="http://www.w3.org/2000/svg">
<rect width="240" height="120" fill="url(#paint0_linear_3113_2077)"/>
<path d="M105.351 72.67V50.4519H94.6618C92.8873 50.4519 92 49.703 92 48.2052C92 46.7351 92.8873 46 94.6618 46H121.871C123.674 46 124.575 46.7212 124.575 48.1636C124.575 49.6891 123.674 50.4519 121.871 50.4519H111.224V72.67C111.224 74.2233 110.266 75 108.351 75C106.351 75 105.351 74.2233 105.351 72.67Z" fill="white"/>
<path d="M145.318 73.4781V62.5201L136.165 74.0036C135.649 74.6168 134.982 74.9234 134.164 74.9234C133.399 74.9234 132.74 74.6168 132.189 74.0036L123.063 62.5464V73.4781C123.063 74.4416 122.44 74.9234 121.195 74.9234C119.967 74.9234 119.354 74.4416 119.354 73.4781V58.0791C119.354 57.0105 119.976 56.4762 121.222 56.4762C122.075 56.4762 122.805 56.8441 123.41 57.5799L134.164 71.0342L144.944 57.5799C145.549 56.8441 146.287 56.4762 147.159 56.4762C148.386 56.4762 149 57.0105 149 58.0791V73.4781C149 74.4416 148.386 74.9234 147.159 74.9234C145.931 74.9234 145.318 74.4416 145.318 73.4781Z" fill="white"/>
<defs>
<linearGradient id="paint0_linear_3113_2077" x1="120" y1="0" x2="120" y2="120" gradientUnits="userSpaceOnUse">
<stop stop-color="#1E7ED7"/>
<stop offset="1" stop-color="#3579B8"/>
</linearGradient>
</defs>
</svg>
