<svg width="240" height="120" viewBox="0 0 240 120" fill="none" xmlns="http://www.w3.org/2000/svg">
<rect width="240" height="120" fill="url(#paint0_linear_3113_1672)"/>
<path d="M129.759 88.3658C129.76 88.4774 129.731 88.5871 129.673 88.6837C129.616 88.7804 129.533 88.8607 129.433 88.9162C129.333 88.9718 129.22 89.0006 129.105 89C128.989 88.9992 128.876 88.969 128.777 88.9122L125.769 87.22L108.866 77.7199C108.76 77.6566 108.671 77.5696 108.607 77.4663C108.543 77.363 108.506 77.2463 108.498 77.1261V55.7861C108.49 55.6018 108.409 55.4274 108.272 55.2992C108.135 55.171 107.952 55.0986 107.761 55.0974H92.7368C92.6403 55.0981 92.5446 55.0804 92.4553 55.0453C92.3659 55.0101 92.2847 54.9581 92.2162 54.8925C92.1477 54.8268 92.0933 54.7487 92.0562 54.6626C92.0191 54.5765 92 54.484 92 54.3908V32.7125C92 32.5235 92.0776 32.3423 92.2158 32.2087C92.354 32.0751 92.5414 32 92.7368 32H146.269C146.366 32 146.461 32.0185 146.55 32.0544C146.639 32.0902 146.72 32.1428 146.788 32.209C146.856 32.2753 146.91 32.3539 146.946 32.4403C146.982 32.5267 147.001 32.6192 147 32.7125V54.3908C147 54.5782 146.923 54.7579 146.786 54.8904C146.649 55.0229 146.463 55.0974 146.269 55.0974H139.467C139.372 55.0974 139.279 55.0794 139.192 55.0444C139.104 55.0095 139.025 54.9584 138.959 54.8938C138.892 54.8294 138.839 54.7528 138.803 54.6685C138.767 54.5842 138.748 54.4938 138.748 54.4027V43.715C138.75 43.5445 138.689 43.379 138.577 43.2477C138.464 43.1162 138.308 43.0273 138.134 42.9966L119.058 39.8556C118.961 39.8409 118.861 39.8597 118.776 39.9089C118.691 39.958 118.626 40.0343 118.594 40.1246C118.561 40.2148 118.562 40.3134 118.596 40.4031C118.631 40.4928 118.696 40.568 118.782 40.6156L129.349 46.2088C129.477 46.2771 129.585 46.3777 129.659 46.4999C129.734 46.6222 129.773 46.7616 129.772 46.9035V55.0974L129.759 88.3658Z" fill="white"/>
<defs>
<linearGradient id="paint0_linear_3113_1672" x1="120" y1="0" x2="120" y2="120" gradientUnits="userSpaceOnUse">
<stop stop-color="#F44725"/>
<stop offset="1" stop-color="#D93F21"/>
</linearGradient>
</defs>
</svg>
