<svg width="240" height="120" viewBox="0 0 240 120" fill="none" xmlns="http://www.w3.org/2000/svg">
<rect width="240" height="120" fill="#F1F1F1"/>
<path d="M144.208 88.9996C146.292 88.9996 148 87.321 148 85.2655V47.176C148 45.1205 146.292 43.4419 144.208 43.4419H107.196L122.05 88.9996H144.208Z" fill="#DBDBDB"/>
<path d="M144.208 45.1548C144.762 45.1548 145.287 45.3718 145.681 45.76C146.07 46.1426 146.287 46.645 146.287 47.176V85.2655C146.287 85.7965 146.075 86.299 145.681 86.6815C145.287 87.0698 144.762 87.2867 144.208 87.2867H123.295L109.554 45.1548H144.208ZM144.208 43.4419H107.196L122.05 88.9996H144.208C146.292 88.9996 148 87.321 148 85.2655V47.176C148 45.1205 146.292 43.4419 144.208 43.4419Z" fill="#DCDCDC"/>
<path d="M118.543 78.2368L122.049 88.9996L131.798 78.2368H118.543Z" fill="#4352B8"/>
<path d="M144.459 59.1838V56.9513H133.694V53.3428H130.199V56.9513H123.329V59.1838H137.001C136.27 61.7589 134.654 64.1912 133.078 66.0811C130.285 62.7752 130.273 61.7018 130.273 61.7018H127.372C127.372 61.7018 127.492 63.3119 131.41 67.9025C130.136 69.2043 129.171 69.9751 129.171 69.9751L130.062 72.7615C130.062 72.7615 131.41 71.6024 133.095 69.8153C134.785 71.6481 136.967 73.852 139.788 76.4785L141.621 74.6457C138.6 71.905 136.384 69.7296 134.757 67.9825C136.938 65.4017 139.154 62.1529 139.622 59.1781H144.454V59.1838H144.459Z" fill="#607988"/>
<path d="M94.792 32C92.7075 32 91 33.7072 91 35.797V74.4517C91 76.5357 92.7075 78.2429 94.792 78.2429H131.804L116.95 32H94.792Z" fill="#4285F4"/>
<path d="M121.513 43.4419H144.208C146.293 43.4419 148 45.1205 148 47.176V70.0263L121.513 43.4419Z" fill="url(#paint0_linear_3109_11196)"/>
<path d="M112.21 56.5859C112.067 58.3159 110.588 60.8796 107.008 60.8796C103.907 60.8796 101.394 58.3159 101.394 55.1585C101.394 52.001 103.907 49.4373 107.008 49.4373C108.772 49.4373 109.949 50.2024 110.623 50.8248L112.975 48.5637C111.428 47.1363 109.412 46.2456 107.008 46.2456C102.091 46.2456 98.0986 50.2367 98.0986 55.1527C98.0986 60.0688 102.091 64.0599 107.008 64.0599C112.159 64.0599 115.562 60.4456 115.562 55.3469C115.562 54.616 115.471 54.0793 115.351 53.5312H107.013V56.5802L112.21 56.5859Z" fill="#EEEEEE"/>
<path d="M144.208 43.4423H120.628L116.95 32H94.792C92.7075 32 91 33.7072 91 35.797V74.4517C91 76.5357 92.7075 78.2429 94.792 78.2429H118.543L122.05 89H144.208C146.292 89 148 87.3214 148 85.2659V70.0266V47.1764C148 45.1209 146.292 43.4423 144.208 43.4423Z" fill="url(#paint1_radial_3109_11196)"/>
<defs>
<linearGradient id="paint0_linear_3109_11196" x1="121.513" y1="56.7341" x2="148" y2="56.7341" gradientUnits="userSpaceOnUse">
<stop stop-color="white" stop-opacity="0.2"/>
<stop offset="1" stop-color="white" stop-opacity="0.02"/>
</linearGradient>
<radialGradient id="paint1_radial_3109_11196" cx="0" cy="0" r="1" gradientUnits="userSpaceOnUse" gradientTransform="translate(94.7239 33.1057) scale(79.8532 79.8372)">
<stop stop-color="white" stop-opacity="0.1"/>
<stop offset="1" stop-color="white" stop-opacity="0"/>
</radialGradient>
</defs>
</svg>
