<svg width="240" height="120" viewBox="0 0 240 120" fill="none" xmlns="http://www.w3.org/2000/svg">
<rect width="240" height="120" fill="url(#paint0_linear_3113_1657)"/>
<path d="M67.3518 74.1078C67.3518 73.2695 67.5981 72.6527 68.0908 72.2575C68.5958 71.8623 69.1932 71.6647 69.883 71.6647C70.4865 71.6647 70.9792 71.8383 71.361 72.1856C71.7552 72.5329 71.9522 72.9461 71.9522 73.4251L71.8599 74.2335C71.8599 74.3892 71.9214 74.5329 72.0446 74.6647C72.1678 74.7964 72.3217 74.8623 72.5065 74.8623C73.1224 74.8623 73.6951 74.3772 74.2247 73.4072C74.5573 72.8084 75.0377 71.6347 75.6658 69.8862L71.1208 58.982C70.8006 58.2156 70.4865 57.497 70.1786 56.8263C69.883 56.1557 69.5689 55.503 69.2363 54.8683C68.8914 54.2216 68.6205 53.8144 68.4234 53.6467C68.2263 53.479 67.8691 53.3713 67.3518 53.3234V52.4251H76.8113V53.3234C76.2201 53.3353 75.7336 53.4012 75.3518 53.521C74.9822 53.6407 74.7975 53.8982 74.7975 54.2934C74.7975 54.3772 74.816 54.491 74.8529 54.6347C74.9022 54.7784 75.0007 55.0359 75.1485 55.4072L78.1231 62.8084H78.4187L80.839 56.1796C80.9622 55.8204 81.0607 55.509 81.1346 55.2455C81.2208 54.9701 81.2639 54.7305 81.2639 54.5269C81.2639 54.012 81.0854 53.6886 80.7282 53.5569C80.3833 53.4132 79.866 53.3353 79.1762 53.3234V52.4251H84.9036V53.3234C84.411 53.3593 84.0045 53.491 83.6843 53.7186C83.3763 53.9341 83.0561 54.4671 82.7235 55.3174L77.07 69.976C76.0353 72.6826 75.1424 74.521 74.391 75.491C73.652 76.4611 72.488 76.9461 70.8991 76.9461C69.7413 76.9461 68.8606 76.6467 68.2571 76.0479C67.6536 75.4611 67.3518 74.8144 67.3518 74.1078Z" fill="white"/>
<path d="M96.728 67.8383C98.0952 67.8383 99.019 66.9581 99.4994 65.1976C99.758 64.2275 99.8874 62.8323 99.8874 61.012C99.8874 58.9042 99.6903 57.2275 99.2962 55.982C98.902 54.7246 98.1014 54.0958 96.8943 54.0958C96.0814 54.0958 95.3547 54.4431 94.7142 55.1377C94.0737 55.8323 93.7535 56.3353 93.7535 56.6467V65.5928C93.7535 65.9521 94.0552 66.4192 94.6588 66.994C95.2746 67.5569 95.9644 67.8383 96.728 67.8383ZM86.3447 76.0659C87.1577 75.982 87.7119 75.7964 88.0075 75.509C88.3032 75.2335 88.451 74.7066 88.451 73.9281V55.4431C88.451 54.6766 88.3093 54.1617 88.026 53.8982C87.7551 53.6228 87.2254 53.4311 86.4371 53.3234V52.4251H93.6611V54.8503C94.1784 54.012 94.6834 53.3952 95.1761 53C96.0629 52.3054 97.1961 51.9581 98.5756 51.9581C100.559 51.9581 102.203 52.6826 103.509 54.1317C104.827 55.5808 105.485 57.7425 105.485 60.6168C105.485 63.2874 104.777 65.503 103.361 67.2635C101.957 69.012 100.245 69.8862 98.2246 69.8862C97.1899 69.8862 96.2107 69.5928 95.2869 69.006C94.7943 68.6946 94.2831 68.2515 93.7535 67.6766V70.7844C93.7658 72.4371 93.7781 73.3653 93.7904 73.5689C93.8766 74.5389 94.1291 75.2036 94.5479 75.5629C94.979 75.9222 95.6934 76.1317 96.6911 76.1916V76.9461H86.3447V76.0659Z" fill="white"/>
<path d="M107.555 60.9401C107.555 58.3772 108.362 56.2395 109.975 54.5269C111.601 52.8144 113.639 51.9581 116.09 51.9581C118.591 51.9581 120.635 52.8323 122.224 54.5808C123.826 56.3293 124.626 58.4491 124.626 60.9401C124.626 63.3952 123.838 65.509 122.261 67.2814C120.685 69.0419 118.628 69.9222 116.09 69.9222C113.627 69.9222 111.589 69.0659 109.975 67.3533C108.362 65.6287 107.555 63.491 107.555 60.9401ZM113.116 60.9401C113.116 63.515 113.251 65.3174 113.522 66.3473C113.953 67.9401 114.81 68.7365 116.09 68.7365C117.31 68.7365 118.11 68.1257 118.492 66.9042C118.874 65.6826 119.065 63.6946 119.065 60.9401C119.065 58.1976 118.862 56.2156 118.455 54.994C118.061 53.7605 117.279 53.1437 116.109 53.1437C114.828 53.1437 113.972 53.9401 113.541 55.5329C113.258 56.5988 113.116 58.4012 113.116 60.9401Z" fill="white"/>
<path d="M132.035 57.9222C132.035 59.3353 132.158 60.3832 132.404 61.0659C132.774 62.1437 133.482 62.6826 134.529 62.6826C135.478 62.6826 136.13 62.2814 136.488 61.479C136.845 60.6647 137.023 59.479 137.023 57.9222C137.023 56.2695 136.832 55.0659 136.451 54.3114C136.081 53.5569 135.441 53.1796 134.529 53.1796C133.531 53.1796 132.866 53.5868 132.534 54.4012C132.201 55.2036 132.035 56.3772 132.035 57.9222ZM129.836 73.3713C129.836 74.1257 130.249 74.7186 131.074 75.1497C131.912 75.5808 133.119 75.7964 134.695 75.7964C136.1 75.7964 137.257 75.6886 138.169 75.4731C139.881 75.0659 140.737 74.3174 140.737 73.2275C140.737 72.5928 140.491 72.1138 139.998 71.7904C139.518 71.479 138.637 71.3234 137.356 71.3234H131.148C130.754 71.6347 130.471 71.8982 130.298 72.1138C129.99 72.509 129.836 72.9281 129.836 73.3713ZM126.511 73.6228C126.511 73.0958 126.732 72.5509 127.176 71.988C127.632 71.4371 128.414 71.0778 129.522 70.9102V70.6587C128.783 70.3832 128.247 70.1018 127.915 69.8144C127.324 69.2994 127.028 68.6108 127.028 67.7485C127.028 66.7186 127.49 65.8383 128.414 65.1078C129.35 64.3772 130.261 63.8683 131.148 63.5808V63.3293C129.867 62.8263 128.833 62.1078 128.044 61.1737C127.256 60.2395 126.862 59.1078 126.862 57.7784C126.862 56.1018 127.552 54.7186 128.931 53.6287C130.311 52.5389 132.177 51.994 134.529 51.994C135.416 51.994 136.229 52.0778 136.968 52.2455C137.707 52.4132 138.28 52.5868 138.686 52.7665H143.675V54.7246H140.608C141.1 55.1916 141.476 55.7365 141.735 56.3593C142.006 56.982 142.141 57.6587 142.141 58.3892C142.141 60.6886 141.014 62.2635 138.76 63.1138C137.578 63.5689 136.106 63.7964 134.344 63.7964C133.963 63.7964 133.71 63.7904 133.587 63.7784C133.476 63.7665 133.304 63.7605 133.07 63.7605C132.7 63.8204 132.312 64.012 131.906 64.3353C131.487 64.6707 131.277 65.0719 131.277 65.5389C131.277 65.9102 131.382 66.1976 131.592 66.4012C131.801 66.6048 132.09 66.7305 132.46 66.7784C132.645 66.8024 133.039 66.8263 133.642 66.8503C134.246 66.8623 134.714 66.8683 135.046 66.8683L137.504 66.9042C138.896 66.9281 140.066 67.1257 141.014 67.497C142.825 68.2156 143.73 69.503 143.73 71.3593C143.73 73.7545 142.375 75.4012 139.665 76.2994C138.237 76.7665 136.438 77 134.271 77C132.497 77 130.97 76.8323 129.689 76.497C127.57 75.9341 126.511 74.976 126.511 73.6228Z" fill="white"/>
<path d="M145.245 68.485C145.972 68.4012 146.477 68.2335 146.76 67.982C147.043 67.7305 147.197 67.2455 147.222 66.5269L147.259 65.4491V55.4431C147.259 54.6766 147.123 54.1557 146.852 53.8802C146.581 53.6048 146.046 53.4192 145.245 53.3234V52.4251H152.432V55.3174C153.233 54.2994 154.027 53.491 154.815 52.8922C155.604 52.2934 156.515 51.994 157.55 51.994C158.326 51.994 159.022 52.2395 159.638 52.7305C160.266 53.2096 160.58 53.9162 160.58 54.8503C160.58 55.5689 160.358 56.1617 159.915 56.6287C159.484 57.0958 158.917 57.3293 158.215 57.3293C157.414 57.3293 156.718 56.9641 156.127 56.2335C155.548 55.503 155.142 55.1377 154.908 55.1377C154.403 55.1377 153.892 55.4431 153.374 56.0539C152.869 56.6527 152.617 57.515 152.617 58.6407V65.5928C152.617 66.8144 152.795 67.5808 153.153 67.8922C153.522 68.1916 154.249 68.3892 155.333 68.485V69.3653H145.245V68.485Z" fill="white"/>
<path d="M169.67 67.2635C170.286 67.2635 170.858 67.0838 171.388 66.7246C171.684 66.509 172.035 66.1737 172.441 65.7186V60.3473C171.431 60.5868 170.544 60.9641 169.781 61.479C168.487 62.3533 167.841 63.4671 167.841 64.8204C167.841 65.6228 168.025 66.2335 168.395 66.6527C168.777 67.0599 169.202 67.2635 169.67 67.2635ZM162.335 65.9341C162.335 64.2814 163.154 62.9701 164.792 62C166.43 61.0299 168.999 60.0539 172.497 59.0719V56.3952C172.497 55.3054 172.256 54.503 171.776 53.988C171.308 53.4611 170.47 53.1976 169.263 53.1976C168.586 53.1976 168.025 53.3234 167.582 53.5749C167.151 53.8144 166.935 54.1198 166.935 54.491C166.935 54.6347 166.96 54.7545 167.009 54.8503C167.059 54.9461 167.132 55.0479 167.231 55.1557L167.453 55.4072C167.625 55.6108 167.761 55.8383 167.859 56.0898C167.97 56.3293 168.025 56.5868 168.025 56.8623C168.025 57.5569 167.785 58.0958 167.305 58.479C166.837 58.8503 166.289 59.0359 165.661 59.0359C164.934 59.0359 164.312 58.8263 163.795 58.4072C163.29 57.988 163.037 57.3832 163.037 56.5928C163.037 55.1796 163.721 54.0599 165.088 53.2335C166.455 52.4072 168.136 51.994 170.132 51.994C172.275 51.994 174.067 52.3952 175.508 53.1976C176.937 54.012 177.651 55.509 177.651 57.6886V66.5988C177.651 66.8623 177.719 67.0898 177.854 67.2814C178.002 67.4611 178.162 67.5509 178.335 67.5509C178.483 67.5509 178.612 67.5269 178.723 67.479C178.846 67.4192 179.031 67.2695 179.277 67.0299L179.85 67.8024C179.111 68.6407 178.292 69.2275 177.393 69.5629C176.826 69.7784 176.229 69.8862 175.6 69.8862C174.48 69.8862 173.661 69.5689 173.143 68.9341C172.848 68.5749 172.632 68.0419 172.497 67.3353C171.45 68.3533 170.267 69.0719 168.949 69.491C168.149 69.7545 167.36 69.8862 166.584 69.8862C165.55 69.8862 164.583 69.5689 163.684 68.9341C162.785 68.2874 162.335 67.2874 162.335 65.9341Z" fill="white"/>
<path d="M180.811 68.485C181.587 68.4251 182.141 68.2575 182.473 67.982C182.818 67.7066 182.991 67.1317 182.991 66.2575V54.2934H180.811V52.6766H182.991V51.3114C182.991 49.5988 183.268 48.1916 183.822 47.0898C184.869 45.0299 186.803 44 189.623 44C191.126 44 192.395 44.3353 193.429 45.006C194.476 45.6647 195 46.5389 195 47.6287C195 48.3114 194.778 48.8623 194.335 49.2814C193.904 49.7006 193.325 49.9102 192.598 49.9102C191.994 49.9102 191.477 49.7186 191.046 49.3353C190.615 48.9521 190.399 48.491 190.399 47.9521C190.399 47.5449 190.535 47.1198 190.806 46.6766C191.089 46.2216 191.231 45.9461 191.231 45.8503C191.231 45.5509 191.12 45.3593 190.898 45.2754C190.677 45.1916 190.436 45.1497 190.178 45.1497C189.562 45.1497 189.088 45.3234 188.755 45.6707C188.423 46.018 188.256 46.7665 188.256 47.9162V52.6766H191.545V54.2934H188.256V65.5928C188.256 66.8623 188.441 67.6407 188.811 67.9281C189.192 68.2156 190.03 68.4012 191.323 68.485V69.3653H180.811V68.485Z" fill="white"/>
<path d="M45.037 44.5034H67.8174L67.8543 51.9226H66.7643C66.4071 49.2759 65.3848 47.4855 63.6973 46.5513C62.7489 46.0364 61.3325 45.7549 59.4479 45.707V65.0723C59.4479 66.4256 59.6881 67.3238 60.1685 67.7669C60.6612 68.21 61.6773 68.4316 63.217 68.4316V69.3657H49.7298V68.4316C51.2078 68.4316 52.187 68.21 52.6674 67.7669C53.1601 67.3118 53.4064 66.4136 53.4064 65.0723V45.707C51.5588 45.7549 50.1424 46.0364 49.157 46.5513C47.3464 47.5094 46.3241 49.2998 46.0901 51.9226H45L45.037 44.5034Z" fill="white"/>
<defs>
<linearGradient id="paint0_linear_3113_1657" x1="120" y1="0" x2="120" y2="120" gradientUnits="userSpaceOnUse">
<stop stop-color="#AE1717"/>
<stop offset="1" stop-color="#9B1212"/>
</linearGradient>
</defs>
</svg>
