<svg width="240" height="120" viewBox="0 0 240 120" fill="none" xmlns="http://www.w3.org/2000/svg">
<rect width="240" height="120" fill="url(#paint0_linear_3113_1687)"/>
<path d="M138.521 77.0617C137.798 79.9634 135.192 82 132.202 82C129.219 82 126.617 79.9734 125.888 77.0812L121.429 59.4118C121.218 58.6078 120.853 56.951 120.335 54.4412C120.216 53.8363 118.726 53.8655 118.608 54.4706C118.147 56.8039 117.792 58.4706 117.542 59.4706L113.107 77.0914C112.38 79.9772 109.785 82 106.809 82C103.829 82 101.231 79.9711 100.509 77.0795L92.3114 44.2515C91.6452 41.5837 93.6631 39 96.4128 39C98.3834 39 100.093 40.3616 100.533 42.2823L105.164 62.4706C105.636 64.6483 106.043 66.68 106.385 68.5656C106.516 69.2858 107.86 69.2801 107.985 68.5588C108.407 66.2059 108.801 64.3824 109.165 63.0882L114.257 43.0871C114.869 40.6828 117.033 39 119.514 39C121.995 39 124.16 40.6828 124.772 43.0871L129.864 63.0882C130.132 64.1667 130.468 65.8137 130.871 68.0294C131.028 68.8907 132.554 68.8901 132.714 68.0294C133.136 65.7353 133.52 63.8824 133.865 62.4706L138.47 42.2869C138.909 40.364 140.619 39 142.591 39C145.339 39 147.357 41.5816 146.693 44.2486L138.521 77.0617Z" fill="white"/>
<defs>
<linearGradient id="paint0_linear_3113_1687" x1="120" y1="0" x2="120" y2="120" gradientUnits="userSpaceOnUse">
<stop stop-color="#FF8E3E"/>
<stop offset="0.995" stop-color="#FF713E"/>
</linearGradient>
</defs>
</svg>
