<svg width="240" height="120" viewBox="0 0 240 120" fill="none" xmlns="http://www.w3.org/2000/svg">
<rect width="240" height="120" fill="#207196"/>
<path fill-rule="evenodd" clip-rule="evenodd" d="M91 60.4993C91 44.7847 103.785 32 119.499 32C135.213 32 148 44.7847 148 60.4993C148 76.2158 135.213 89 119.499 89C103.785 89 91 76.2158 91 60.4993ZM92.3068 60.4993C92.3068 75.4942 104.506 87.6937 119.499 87.6937C134.492 87.6937 146.69 75.4942 146.69 60.4993C146.69 45.5053 134.492 33.3068 119.499 33.3068C104.505 33.3068 92.3068 45.5053 92.3068 60.4993ZM136.004 59.2669C136.004 56.2453 134.919 54.1527 133.988 52.524C133.892 52.3686 133.797 52.2151 133.703 52.0631L133.702 52.0617C132.576 50.2443 131.587 48.6487 131.587 46.7906C131.587 44.5432 133.291 42.4511 135.692 42.4511C135.762 42.4511 135.83 42.4567 135.897 42.4623C135.934 42.4654 135.971 42.4685 136.009 42.4706C131.659 38.4856 125.864 36.0525 119.499 36.0525C110.958 36.0525 103.444 40.4348 99.0722 47.0726C99.6458 47.0898 100.186 47.1019 100.646 47.1019C103.203 47.1019 107.161 46.7916 107.161 46.7916C108.479 46.7139 108.634 48.6496 107.318 48.8055C107.318 48.8055 105.993 48.9613 104.52 49.0386L113.423 75.5211L118.773 59.4743L114.964 49.0376C113.648 48.9604 112.4 48.8046 112.4 48.8046C111.083 48.7273 111.237 46.7129 112.555 46.7906C112.555 46.7906 116.592 47.1009 118.995 47.1009C121.551 47.1009 125.51 46.7906 125.51 46.7906C126.829 46.7129 126.984 48.6487 125.667 48.8046C125.667 48.8046 124.34 48.9604 122.869 49.0376L131.704 75.3197L134.143 67.1704C134.208 66.9617 134.272 66.7566 134.335 66.555C135.296 63.4902 136.004 61.2307 136.004 59.2669ZM95.0511 60.4985C95.0511 70.176 100.675 78.5392 108.83 82.5024L97.1678 50.5484C95.8112 53.5891 95.0511 56.954 95.0511 60.4985ZM112.593 83.9531L119.929 62.6372L127.445 83.2264C127.493 83.3474 127.553 83.4586 127.619 83.5632C125.077 84.4569 122.347 84.9491 119.5 84.9491C117.1 84.9491 114.784 84.597 112.593 83.9531ZM140.952 48.7704C141.057 49.5492 141.116 50.3852 141.116 51.2845C141.116 53.7655 140.653 56.5544 139.257 60.0417L131.789 81.6338C139.058 77.3952 143.946 69.5205 143.946 60.5009C143.947 56.2502 142.861 52.253 140.952 48.7704Z" fill="white"/>
</svg>
