<svg width="240" height="120" viewBox="0 0 240 120" fill="none" xmlns="http://www.w3.org/2000/svg">
<rect width="240" height="120" fill="url(#paint0_linear_3113_1702)"/>
<path fill-rule="evenodd" clip-rule="evenodd" d="M141.769 42.1649C144.223 42.8069 146.151 44.6918 146.808 47.0903C147.995 51.4333 148 60.5 148 60.5C148 60.5 148 69.5667 146.808 73.9098C146.151 76.3083 144.223 78.1931 141.769 78.8351C137.325 80 119.5 80 119.5 80C119.5 80 101.675 80 97.2311 78.8351C94.7772 78.1931 92.8487 76.3083 92.1918 73.9098C91 69.5667 91 60.5 91 60.5C91 60.5 91 51.4333 92.1918 47.0903C92.8487 44.6918 94.7772 42.8069 97.2311 42.1649C101.675 41 119.5 41 119.5 41C119.5 41 137.325 41 141.769 42.1649ZM128.603 60.5005L113.795 68.8563V52.1447L128.603 60.5005Z" fill="white"/>
<defs>
<linearGradient id="paint0_linear_3113_1702" x1="120" y1="0" x2="120" y2="120" gradientUnits="userSpaceOnUse">
<stop stop-color="#ED3323"/>
<stop offset="1" stop-color="#E53020"/>
</linearGradient>
</defs>
</svg>
