<svg width="240" height="120" viewBox="0 0 240 120" fill="none" xmlns="http://www.w3.org/2000/svg">
<rect width="240" height="120" fill="#008DFF"/>
<path fill-rule="evenodd" clip-rule="evenodd" d="M167.128 54.2961C167.701 55.2059 167.889 56.2409 167.951 57.4046L168.032 58.9555V69.801L168.115 71.3536C168.282 73.8892 170.315 75.764 173.093 75.9235L174.773 76V58.9555L174.856 57.4046C174.925 56.2539 175.111 55.1993 175.693 54.2831C176.286 53.3433 177.138 52.5635 178.163 52.0222C179.187 51.4808 180.349 51.1969 181.53 51.1988C182.712 51.2008 183.872 51.4887 184.895 52.0334C185.917 52.5782 186.766 53.3608 187.355 54.3026C187.928 55.2124 188.107 56.267 188.176 57.4046L188.259 58.9507V69.801L188.343 71.3536C188.516 73.9022 190.533 75.777 193.321 75.9235L195 76V57.4046C195 54.1164 193.58 50.9628 191.052 48.6372C188.525 46.3117 185.096 45.0046 181.52 45.0033C179.607 45.0014 177.715 45.3751 175.971 46.0995C174.227 46.8239 172.671 47.8822 171.407 49.2038C170.143 47.8827 168.587 46.8247 166.843 46.1001C165.099 45.3755 163.207 45.001 161.293 45.0016C158.494 45.0016 155.896 45.7828 153.744 47.132C152.431 45.7844 149.493 45.0016 147.807 45.0016V76L149.493 75.9235C152.314 75.7526 154.353 73.9282 154.462 71.3536L154.553 69.801V58.9555L154.636 57.4046C154.707 56.2344 154.884 55.2059 155.459 54.2896C156.052 53.3504 156.904 52.5708 157.928 52.0288C158.951 51.4868 160.112 51.2012 161.293 51.2007C162.476 51.2009 163.637 51.487 164.661 52.0303C165.685 52.5736 166.536 53.355 167.128 54.2961ZM51.7406 75.9251L53.4271 76H78.7067L78.6236 74.4539C78.3953 71.9053 76.4327 70.0435 73.6526 69.8775L71.9661 69.801H56.8001L77.0202 51.199L76.9371 49.6546C76.8061 47.0799 74.7604 45.2197 71.9661 45.0781L70.2796 45.0081L45 45.0016L45.0832 46.5526C45.3044 49.0768 47.2952 50.9777 50.0524 51.1242L51.7406 51.2007H66.9066L46.6865 69.8026L46.7697 71.3536C46.936 73.9087 48.941 75.7591 51.7406 75.9235V75.9251ZM141.19 49.539C142.755 50.9782 143.997 52.6869 144.844 54.5675C145.691 56.448 146.127 58.4636 146.127 60.4992C146.127 62.5347 145.691 64.5504 144.844 66.4309C143.997 68.3115 142.755 70.0202 141.19 71.4594C138.028 74.3653 133.74 75.9976 129.269 75.9976C124.799 75.9976 120.511 74.3653 117.349 71.4594C110.768 65.4068 110.768 55.5916 117.349 49.539C118.913 48.1003 120.77 46.9589 122.813 46.1801C124.857 45.4013 127.047 45.0003 129.259 45C131.474 44.9986 133.669 45.3989 135.716 46.178C137.763 46.9571 139.623 48.0998 141.19 49.5406V49.539ZM136.421 53.9283C138.316 55.673 139.381 58.0385 139.381 60.5049C139.381 62.9713 138.316 65.3368 136.421 67.0815C134.524 68.8248 131.951 69.8041 129.269 69.8041C126.588 69.8041 124.015 68.8248 122.118 67.0815C120.223 65.3368 119.158 62.9713 119.158 60.5049C119.158 58.0385 120.223 55.673 122.118 53.9283C124.015 52.1849 126.588 51.2056 129.269 51.2056C131.951 51.2056 134.524 52.1849 136.421 53.9283ZM93.8869 45C96.099 45.0005 98.2894 45.4018 100.333 46.1809C102.376 46.96 104.233 48.1016 105.797 49.5406C112.38 55.5916 112.38 65.4084 105.797 71.4594C102.634 74.3653 98.3467 75.9976 93.8763 75.9976C89.4058 75.9976 85.1182 74.3653 81.9558 71.4594C75.3745 65.4068 75.3745 55.5916 81.9558 49.539C83.5197 48.1003 85.3764 46.9589 87.4198 46.1801C89.4633 45.4013 91.6536 45.0003 93.8656 45H93.8869ZM101.027 53.925C102.924 55.6698 103.989 58.0356 103.989 60.5024C103.989 62.9693 102.924 65.3351 101.027 67.0799C99.1303 68.8232 96.5582 69.8025 93.8763 69.8025C91.1944 69.8025 88.6222 68.8232 86.7251 67.0799C84.8294 65.3352 83.7645 62.9697 83.7645 60.5033C83.7645 58.0368 84.8294 55.6713 86.7251 53.9267C88.6222 52.1833 91.1944 51.204 93.8763 51.204C96.5582 51.204 99.1303 52.1833 101.027 53.9267V53.925Z" fill="white"/>
</svg>
