<svg width="240" height="120" viewBox="0 0 240 120" fill="none" xmlns="http://www.w3.org/2000/svg">
<rect width="240" height="120" fill="#CC2936"/>
<path d="M67.3962 52.8704L50.8105 74.4103H68V78H45V75.1268L61.5828 53.5883H45.8474V50H67.3962V52.8704Z" fill="white"/>
<path fill-rule="evenodd" clip-rule="evenodd" d="M117.954 53.9777H110.05V69.7614C110.028 70.581 110.126 71.3995 110.342 72.1917C110.489 72.7362 110.771 73.237 111.163 73.6499C111.51 73.9912 111.943 74.2377 112.418 74.3646C112.943 74.5029 113.485 74.5698 114.028 74.5634C114.721 74.5598 115.411 74.4641 116.077 74.2789C116.747 74.1009 117.395 73.8516 118.009 73.5355L118.185 77.0236C116.54 77.7105 114.763 78.0421 112.974 77.9957C112.194 77.9911 111.418 77.8952 110.662 77.7098C109.854 77.515 109.103 77.1424 108.466 76.6206C107.757 76.0262 107.196 75.2811 106.827 74.4422C106.354 73.2993 106.134 72.0715 106.183 70.8397V53.9777H100.389V50.5481H106.186V43H110.05V50.5481H117.954V53.9777ZM99.0991 63.9288C99.1184 65.8479 98.7509 67.7521 98.0173 69.5327C97.331 71.2076 96.3019 72.7282 94.9933 74.0015C93.6846 75.2747 92.1237 76.2739 90.4061 76.9378C88.5331 77.66 86.5342 78.0193 84.5207 77.9957C82.5274 78.0159 80.5491 77.6566 78.6965 76.9378C76.9789 76.2739 75.4181 75.2747 74.1094 74.0015C72.8007 72.7282 71.7717 71.2076 71.0853 69.5327C70.3495 67.7527 69.9809 65.8482 70.0008 63.9288C69.9807 62.0093 70.3493 60.1048 71.0853 58.3249C71.7713 56.6495 72.8003 55.1285 74.1093 53.8551C75.4183 52.5818 76.9797 51.5829 78.6979 50.9197C80.5502 50.1998 82.5286 49.84 84.522 49.8605C86.5357 49.8366 88.5348 50.1964 90.4075 50.9197C92.1254 51.5831 93.6866 52.582 94.9953 53.8554C96.3041 55.1287 97.3329 56.6496 98.0187 58.3249C98.7519 60.1055 99.119 62.0097 99.0991 63.9288ZM94.885 63.9288C94.8959 62.5059 94.6476 61.0924 94.1518 59.7544C93.6965 58.5071 92.9924 57.3604 92.0803 56.3807C91.1679 55.4173 90.0617 54.6483 88.8309 54.122C86.0741 53.0146 82.9812 53.0146 80.2244 54.122C78.9999 54.644 77.9029 55.4139 77.0056 56.3807C76.1074 57.3665 75.4117 58.5119 74.9564 59.7544C73.9806 62.4552 73.9806 65.4009 74.9564 68.1017C75.4107 69.3451 76.1065 70.4911 77.0056 71.4769C77.9029 72.4436 78.9999 73.2135 80.2244 73.7356C82.9819 74.8393 86.0733 74.8393 88.8309 73.7356C90.0617 73.2092 91.1679 72.4402 92.0803 71.4769C92.9958 70.4978 93.7024 69.3504 94.1588 68.1017C94.6523 66.7638 94.8982 65.3508 94.885 63.9288ZM124.563 68.7317C124.016 67.538 123.681 66.2616 123.574 64.9577H146.403V63.2422C146.415 61.4813 146.118 59.7315 145.525 58.0685C144.974 56.5054 144.108 55.066 142.978 53.8357C141.821 52.6049 140.416 51.6221 138.85 50.9493C137.098 50.2012 135.201 49.8298 133.288 49.8601C131.419 49.8445 129.566 50.2051 127.845 50.9194C126.195 51.6052 124.701 52.6059 123.452 53.8629C122.186 55.148 121.191 56.664 120.525 58.3245C119.808 60.109 119.45 62.0116 119.47 63.9284C119.45 65.8477 119.818 67.752 120.553 69.5323C121.237 71.1903 122.24 72.7045 123.509 73.9925C124.78 75.2639 126.304 76.2663 127.988 76.9374C129.781 77.6526 131.702 78.0122 133.638 77.9953C135.829 78.0107 137.996 77.562 139.992 76.6801C142.126 75.6741 143.982 74.184 145.406 72.3342L142.422 69.9326C141.542 71.2464 140.372 72.3505 138.997 73.1634C137.387 74.1264 135.525 74.6125 133.638 74.563C132.331 74.5751 131.036 74.3224 129.834 73.821C127.481 72.8373 125.597 71.0186 124.563 68.7317ZM141.659 58.538C142.061 59.6031 142.242 60.7357 142.192 61.8698H123.707C123.709 60.7564 123.98 59.6591 124.499 58.6676C125.027 57.6361 125.741 56.7063 126.607 55.9228C127.504 55.1099 128.542 54.4606 129.674 54.0059C130.821 53.5347 132.053 53.2917 133.298 53.2911C134.499 53.2217 135.702 53.397 136.829 53.8058C137.957 54.2145 138.986 54.8478 139.85 55.6655C140.642 56.4965 141.256 57.4729 141.659 58.538ZM151.089 58.8969C151.089 57.7169 151.059 56.5161 151 55.2944C150.94 54.0727 150.894 52.4906 150.86 50.5482H154.665V55.5258H154.782C155.067 54.7783 155.462 54.0749 155.953 53.4373C156.477 52.7549 157.098 52.1488 157.797 51.6374C158.56 51.0831 159.408 50.6494 160.309 50.3522C161.357 50.0147 162.455 49.8505 163.558 49.8661C164.526 49.8506 165.492 49.966 166.427 50.2092L165.663 53.9206C164.942 53.7005 164.188 53.6037 163.433 53.6347C162.113 53.5985 160.806 53.884 159.627 54.4652C158.611 54.9887 157.715 55.7085 156.993 56.581C156.308 57.4061 155.782 58.3458 155.441 59.3544C155.121 60.2757 154.953 61.2407 154.943 62.2135V77.3097H151.089V58.8969ZM193.916 69.5327C194.651 67.7524 195.019 65.8481 194.999 63.9288C195.019 62.0094 194.651 60.1051 193.916 58.3249C193.23 56.6496 192.201 55.1287 190.893 53.8554C189.584 52.582 188.023 51.5831 186.305 50.9197C184.433 50.1964 182.434 49.8366 180.421 49.8605C178.427 49.8399 176.448 50.1997 174.595 50.9197C172.877 51.5831 171.316 52.582 170.007 53.8554C168.699 55.1287 167.67 56.6496 166.984 58.3249C166.249 60.1049 165.88 62.0093 165.901 63.9288C165.881 65.8482 166.249 67.7526 166.984 69.5327C167.67 71.2076 168.699 72.7282 170.008 74.0015C171.317 75.2747 172.878 76.2739 174.595 76.9378C176.448 77.6567 178.427 78.016 180.421 77.9957C182.434 78.0194 184.432 77.6601 186.305 76.9378C188.022 76.2739 189.583 75.2747 190.892 74.0015C192.201 72.7282 193.23 71.2076 193.916 69.5327ZM190.052 59.7544C190.547 61.0927 190.794 62.506 190.784 63.9288C190.795 65.3511 190.547 66.764 190.052 68.1017C189.594 69.35 188.888 70.4971 187.973 71.4769C187.061 72.4402 185.954 73.2092 184.723 73.7356C181.966 74.8393 178.875 74.8393 176.118 73.7356C174.893 73.2139 173.795 72.444 172.897 71.4769C171.998 70.4911 171.303 69.3451 170.848 68.1017C169.872 65.4009 169.872 62.4553 170.848 59.7544C171.303 58.5119 171.999 57.3665 172.897 56.3807C173.795 55.4135 174.893 54.6436 176.118 54.122C178.874 53.0147 181.966 53.0147 184.723 54.122C185.954 54.6484 187.061 55.4173 187.973 56.3807C188.887 57.3605 189.593 58.5071 190.052 59.7544Z" fill="white"/>
</svg>
