<svg width="120" height="60" viewBox="0 0 120 60" fill="none" xmlns="http://www.w3.org/2000/svg">
<path fill-rule="evenodd" clip-rule="evenodd" d="M37 28.9994C37 16.3175 47.3179 6 59.9994 6C72.6806 6 82.9996 16.3175 83 28.9994C83 41.6829 72.6806 52 59.9994 52C47.3179 52 37 41.6829 37 28.9994ZM38.0546 28.9994C38.0546 41.1006 47.8994 50.9458 59.9994 50.9458C72.0991 50.9458 81.9432 41.1006 81.9432 28.9994C81.9432 16.899 72.0991 7.05461 59.9994 7.05461C47.899 7.05461 38.0546 16.899 38.0546 28.9994ZM73.3191 28.0047C73.3191 25.5662 72.4433 23.8775 71.692 22.5631C71.6146 22.4373 71.5376 22.313 71.4614 22.19C70.5524 20.7233 69.7545 19.4357 69.7545 17.9361C69.7545 16.1224 71.13 14.4341 73.0676 14.4341C73.124 14.4341 73.1786 14.4386 73.2331 14.4431C73.2631 14.4456 73.293 14.4481 73.3233 14.4498C69.813 11.2338 65.1363 9.27026 59.9997 9.27026C53.1068 9.27026 47.0425 12.8069 43.5146 18.1637C43.9776 18.1776 44.4138 18.1873 44.7843 18.1873C46.8481 18.1873 50.0426 17.9369 50.0426 17.9369C51.1062 17.8742 51.2316 19.4364 50.1691 19.5622C50.1691 19.5622 49.1003 19.6879 47.9109 19.7503L55.0959 41.1221L59.4137 28.1721L56.3397 19.7495C55.2772 19.6872 54.2707 19.5614 54.2707 19.5614C53.2075 19.4991 53.3321 17.8735 54.3953 17.9361C54.3953 17.9361 57.6537 18.1866 59.5924 18.1866C61.6557 18.1866 64.8506 17.9361 64.8506 17.9361C65.9149 17.8735 66.04 19.4357 64.9771 19.5614C64.9771 19.5614 63.906 19.6872 62.7189 19.7495L69.8491 40.9596L71.8171 34.383L71.9726 33.8864C72.7477 31.413 73.3191 29.5895 73.3191 28.0047ZM40.2695 28.9989C40.2695 36.8088 44.808 43.5581 51.3892 46.7564L41.9777 20.969C40.883 23.4229 40.2695 26.1384 40.2695 28.9989ZM54.4263 47.927L60.346 30.7247L66.4114 47.3405C66.4508 47.4382 66.4988 47.5279 66.5518 47.6124C64.5008 48.3336 62.2975 48.7308 59.9998 48.7308C58.063 48.7308 56.1938 48.4466 54.4263 47.927ZM77.312 19.5339C77.3968 20.1624 77.4449 20.8371 77.4449 21.5628C77.4449 23.565 77.0709 25.8158 75.9447 28.6301L69.918 46.0553C75.7836 42.6347 79.729 36.2796 79.729 29.0006C79.7293 25.5702 78.8531 22.3445 77.312 19.5339Z" fill="white"/>
</svg>
