<?xml version="1.0" encoding="UTF-8"?>
<svg xmlns="http://www.w3.org/2000/svg" xmlns:xlink="http://www.w3.org/1999/xlink" width="28px" height="28px" viewBox="0 0 28 27" version="1.1">
<g id="surface1">
<path style=" stroke:none;fill-rule:nonzero;fill:rgb(0%,0%,0%);fill-opacity:1;" d="M 0 13.503906 L 0 27.011719 L 27.976562 27.011719 L 27.976562 0 L 0 0 Z M 10.527344 3.59375 C 10.605469 3.628906 10.617188 3.964844 10.617188 6.910156 L 10.617188 10.191406 L 7.253906 10.191406 C 4.234375 10.191406 3.886719 10.179688 3.855469 10.101562 C 3.835938 10.054688 3.820312 8.597656 3.820312 6.855469 C 3.820312 4.472656 3.835938 3.675781 3.886719 3.628906 C 3.9375 3.578125 4.753906 3.5625 7.195312 3.5625 C 8.984375 3.5625 10.476562 3.578125 10.527344 3.59375 Z M 12.554688 3.6875 C 12.574219 3.753906 12.585938 3.972656 12.574219 4.164062 L 12.554688 4.519531 L 12.191406 4.535156 C 11.585938 4.5625 11.574219 4.558594 11.574219 4.09375 C 11.574219 3.855469 11.601562 3.664062 11.640625 3.628906 C 11.679688 3.589844 11.875 3.5625 12.117188 3.5625 C 12.496094 3.5625 12.527344 3.570312 12.554688 3.6875 Z M 16.394531 3.628906 C 16.433594 3.664062 16.460938 3.851562 16.460938 4.085938 C 16.460938 4.546875 16.460938 4.546875 15.898438 4.546875 C 15.601562 4.546875 15.511719 4.570312 15.484375 4.636719 C 15.4375 4.746094 15.4375 6.125 15.484375 6.285156 C 15.515625 6.398438 15.550781 6.410156 15.953125 6.410156 C 16.464844 6.410156 16.460938 6.40625 16.460938 6.964844 L 16.460938 7.339844 L 15.988281 7.339844 C 15.550781 7.339844 15.515625 7.347656 15.484375 7.460938 C 15.4375 7.636719 15.445312 8.179688 15.496094 8.257812 C 15.523438 8.296875 15.714844 8.328125 15.984375 8.339844 L 16.433594 8.355469 L 16.449219 9.734375 L 16.460938 11.121094 L 16.910156 11.121094 C 17.433594 11.121094 17.433594 11.128906 17.40625 11.726562 L 17.386719 12.082031 L 16.925781 12.097656 L 16.460938 12.113281 L 16.460938 13.039062 L 19.324219 13.039062 L 19.324219 12.140625 C 19.324219 11.449219 19.34375 11.230469 19.40625 11.183594 C 19.453125 11.136719 19.886719 11.121094 20.847656 11.132812 L 22.21875 11.148438 L 22.21875 12.082031 L 21.753906 12.097656 L 21.285156 12.113281 L 21.304688 12.5625 L 21.320312 13.011719 L 22.265625 13.027344 C 22.996094 13.039062 23.203125 13.027344 23.203125 12.972656 C 23.207031 12.9375 23.207031 12.542969 23.203125 12.101562 C 23.203125 11.664062 23.214844 11.265625 23.234375 11.214844 C 23.265625 11.136719 23.347656 11.121094 23.679688 11.121094 C 23.953125 11.121094 24.105469 11.144531 24.152344 11.199219 C 24.195312 11.25 24.214844 11.671875 24.203125 12.605469 L 24.183594 13.945312 L 22.753906 13.972656 L 21.320312 14 L 21.320312 16.792969 L 21.785156 16.808594 L 22.246094 16.824219 L 22.246094 17.746094 L 23.214844 17.777344 L 23.21875 18.21875 L 23.21875 18.65625 L 22.273438 18.710938 L 22.257812 19.1875 L 22.242188 19.667969 L 23.191406 19.667969 L 23.214844 20.082031 C 23.226562 20.308594 23.226562 20.519531 23.214844 20.546875 C 23.203125 20.578125 22.984375 20.601562 22.726562 20.601562 L 22.253906 20.601562 L 22.234375 21.050781 L 22.21875 21.503906 L 21.28125 21.519531 L 20.335938 21.53125 L 20.335938 22.464844 L 21.28125 22.472656 L 22.21875 22.492188 L 22.234375 22.847656 C 22.246094 23.039062 22.234375 23.257812 22.21875 23.324219 L 22.191406 23.449219 L 20.820312 23.449219 C 19.726562 23.449219 19.4375 23.433594 19.386719 23.371094 C 19.34375 23.324219 19.324219 23.023438 19.335938 22.429688 L 19.355469 21.558594 L 19.847656 21.542969 L 20.335938 21.527344 L 20.324219 19.652344 L 20.308594 17.777344 L 19.820312 17.761719 L 19.324219 17.746094 L 19.316406 19.160156 L 19.296875 20.574219 L 18.398438 20.628906 L 18.382812 21.078125 L 18.363281 21.53125 L 17.414062 21.53125 L 17.414062 22.417969 C 17.414062 22.914062 17.394531 23.34375 17.363281 23.382812 C 17.335938 23.433594 17.203125 23.449219 16.90625 23.4375 L 16.488281 23.421875 L 16.472656 22.480469 L 16.460938 21.539062 L 15.964844 21.519531 L 15.476562 21.503906 L 15.460938 21.230469 C 15.449219 21.082031 15.453125 20.875 15.476562 20.777344 L 15.511719 20.59375 L 15.972656 20.613281 L 16.433594 20.628906 L 16.449219 21.078125 L 16.464844 21.53125 L 17.414062 21.53125 L 17.425781 20.125 L 17.445312 18.710938 L 17.910156 18.695312 L 18.371094 18.675781 L 18.371094 17.75 L 14.5 17.75 L 14.484375 18.199219 L 14.464844 18.65625 L 13.535156 18.6875 L 13.566406 19.640625 L 14.523438 19.660156 L 15.484375 19.667969 L 15.476562 20.125 L 15.464844 20.574219 L 13.566406 20.628906 L 13.566406 21.503906 L 14.035156 21.519531 L 14.496094 21.539062 L 14.496094 22.464844 L 12.585938 22.464844 L 12.585938 22.867188 C 12.585938 23.457031 12.589844 23.449219 12.113281 23.449219 C 11.871094 23.449219 11.679688 23.421875 11.640625 23.382812 C 11.589844 23.335938 11.574219 22.839844 11.574219 21.492188 L 11.574219 19.675781 L 12.066406 19.660156 L 12.554688 19.640625 L 12.574219 19.164062 L 12.589844 18.683594 L 13.535156 18.683594 L 13.550781 18.234375 L 13.566406 17.777344 L 14.035156 17.761719 L 14.496094 17.746094 L 14.496094 16.824219 L 14.035156 16.808594 L 13.566406 16.792969 L 13.566406 14.929688 L 14.035156 14.914062 L 14.496094 14.898438 L 14.484375 13.980469 L 14.464844 13.066406 L 13.566406 13.011719 L 13.550781 12.558594 L 13.535156 12.109375 L 11.574219 12.109375 L 11.574219 13.007812 C 11.574219 14.035156 11.535156 13.972656 12.136719 13.972656 C 12.585938 13.972656 12.585938 13.976562 12.585938 14.523438 L 12.585938 14.902344 L 10.625 14.902344 L 10.605469 15.378906 L 10.589844 15.863281 L 9.175781 15.878906 L 7.753906 15.890625 L 7.753906 14.902344 L 6.746094 14.902344 L 6.730469 14.449219 L 6.714844 14 L 5.816406 13.945312 L 5.796875 13.488281 L 5.78125 13.039062 L 4.835938 13.039062 L 4.820312 13.488281 L 4.804688 13.945312 L 4.4375 13.960938 C 4.242188 13.972656 4.015625 13.960938 3.949219 13.945312 L 3.820312 13.917969 L 3.820312 12.585938 C 3.820312 11.621094 3.835938 11.238281 3.886719 11.1875 C 3.9375 11.136719 4.445312 11.121094 5.824219 11.121094 L 7.695312 11.121094 L 7.726562 11.25 C 7.742188 11.3125 7.753906 11.53125 7.742188 11.726562 L 7.726562 12.082031 L 6.757812 12.097656 L 5.785156 12.109375 L 5.785156 13.039062 L 6.757812 13.050781 L 7.726562 13.066406 L 7.742188 13.980469 L 7.753906 14.902344 L 10.617188 14.902344 L 10.617188 13.972656 L 9.664062 13.972656 L 9.664062 13.046875 L 9.203125 13.027344 L 8.734375 13.011719 L 8.71875 12.558594 L 8.703125 12.109375 L 9.65625 12.109375 L 9.675781 11.625 L 9.691406 11.148438 L 10.589844 11.148438 L 10.605469 11.625 L 10.625 12.109375 L 11.574219 12.109375 L 11.574219 11.675781 C 11.574219 11.386719 11.59375 11.226562 11.644531 11.183594 C 11.695312 11.144531 12.195312 11.117188 13.09375 11.109375 L 14.464844 11.09375 L 14.484375 10.640625 L 14.5 10.191406 L 13.539062 10.191406 L 13.539062 9.257812 L 12.589844 9.257812 L 12.574219 9.707031 L 12.554688 10.164062 L 11.601562 10.164062 L 11.585938 9.835938 C 11.554688 9.265625 11.554688 9.257812 12.105469 9.257812 L 12.585938 9.257812 L 12.585938 8.328125 L 12.144531 8.328125 C 11.882812 8.328125 11.679688 8.300781 11.640625 8.261719 C 11.589844 8.210938 11.574219 7.828125 11.574219 6.871094 C 11.574219 5.714844 11.585938 5.539062 11.664062 5.511719 C 11.714844 5.496094 12.152344 5.480469 12.644531 5.480469 L 13.539062 5.480469 L 13.539062 4.609375 C 13.539062 4.125 13.554688 3.699219 13.574219 3.648438 C 13.601562 3.570312 13.78125 3.5625 14.964844 3.5625 C 15.949219 3.5625 16.34375 3.578125 16.394531 3.628906 Z M 24.152344 3.636719 C 24.195312 3.6875 24.207031 4.601562 24.203125 6.9375 L 24.183594 10.164062 L 20.804688 10.179688 L 17.414062 10.191406 L 17.414062 6.910156 C 17.414062 4.332031 17.433594 3.621094 17.488281 3.601562 C 17.523438 3.582031 19.027344 3.566406 20.820312 3.566406 C 23.511719 3.5625 24.101562 3.570312 24.152344 3.636719 Z M 5.695312 14.933594 C 5.769531 14.960938 5.785156 15.054688 5.785156 15.402344 C 5.785156 15.898438 5.773438 15.90625 5.195312 15.878906 L 4.859375 15.863281 L 4.84375 15.457031 C 4.832031 15.230469 4.835938 15.019531 4.855469 14.972656 C 4.886719 14.898438 5.515625 14.871094 5.695312 14.933594 Z M 24.125 14.933594 C 24.195312 14.960938 24.214844 15.054688 24.214844 15.363281 C 24.214844 15.597656 24.183594 15.785156 24.144531 15.824219 C 24.105469 15.863281 23.914062 15.890625 23.675781 15.890625 C 23.359375 15.890625 23.265625 15.871094 23.234375 15.800781 C 23.191406 15.6875 23.191406 14.984375 23.242188 14.941406 C 23.285156 14.890625 24.003906 14.890625 24.125 14.933594 Z M 12.554688 16.355469 L 12.554688 16.792969 L 12.191406 16.808594 C 11.585938 16.835938 11.574219 16.832031 11.574219 16.359375 C 11.574219 16.140625 11.589844 15.945312 11.613281 15.921875 C 11.636719 15.898438 11.855469 15.894531 12.105469 15.898438 L 12.554688 15.917969 Z M 10.617188 20.101562 C 10.617188 23.042969 10.605469 23.382812 10.527344 23.417969 C 10.476562 23.433594 8.984375 23.449219 7.195312 23.449219 C 4.753906 23.449219 3.9375 23.433594 3.886719 23.382812 C 3.835938 23.335938 3.820312 22.539062 3.820312 20.15625 C 3.820312 18.414062 3.835938 16.957031 3.855469 16.90625 C 3.886719 16.832031 4.234375 16.820312 7.253906 16.820312 L 10.617188 16.820312 Z M 16.394531 18.75 C 16.433594 18.789062 16.460938 18.972656 16.460938 19.210938 C 16.460938 19.667969 16.460938 19.667969 15.898438 19.667969 C 15.464844 19.667969 15.449219 19.652344 15.449219 19.136719 C 15.449219 18.695312 15.460938 18.683594 15.921875 18.683594 C 16.164062 18.683594 16.355469 18.710938 16.394531 18.75 Z M 24.183594 21.65625 C 24.207031 21.730469 24.214844 21.933594 24.203125 22.105469 L 24.183594 22.4375 L 23.742188 22.453125 C 23.21875 22.46875 23.203125 22.457031 23.203125 22.015625 C 23.203125 21.53125 23.203125 21.53125 23.714844 21.53125 C 24.128906 21.53125 24.15625 21.539062 24.183594 21.65625 Z M 24.183594 21.65625 "/>
<path style=" stroke:none;fill-rule:nonzero;fill:rgb(0%,0%,0%);fill-opacity:1;" d="M 4.832031 6.902344 L 4.832031 9.257812 L 7.234375 9.25 L 9.636719 9.230469 L 9.652344 6.886719 L 9.664062 4.546875 L 4.832031 4.546875 Z M 8.695312 6.871094 C 8.707031 7.929688 8.691406 8.246094 8.640625 8.285156 C 8.601562 8.304688 7.953125 8.328125 7.214844 8.328125 C 6.027344 8.328125 5.847656 8.316406 5.820312 8.242188 C 5.773438 8.121094 5.773438 5.5625 5.824219 5.511719 C 5.847656 5.496094 6.496094 5.484375 7.269531 5.488281 L 8.679688 5.507812 Z M 8.695312 6.871094 "/>
<path style=" stroke:none;fill-rule:nonzero;fill:rgb(0%,0%,0%);fill-opacity:1;" d="M 13.539062 6.40625 L 13.539062 7.335938 L 13.078125 7.351562 L 12.613281 7.367188 L 12.59375 7.851562 L 12.578125 8.328125 L 13.523438 8.316406 L 14.464844 8.300781 L 14.484375 7.863281 C 14.496094 7.597656 14.527344 7.414062 14.566406 7.386719 C 14.605469 7.363281 14.824219 7.339844 15.054688 7.339844 L 15.476562 7.339844 L 15.476562 6.414062 L 14.523438 6.382812 L 14.496094 5.945312 L 14.464844 5.507812 L 14.003906 5.488281 L 13.539062 5.472656 Z M 13.539062 6.40625 "/>
<path style=" stroke:none;fill-rule:nonzero;fill:rgb(0%,0%,0%);fill-opacity:1;" d="M 14.496094 9.726562 L 14.496094 10.191406 L 14.972656 10.191406 C 15.246094 10.191406 15.449219 10.167969 15.453125 10.136719 C 15.453125 10.101562 15.460938 9.921875 15.460938 9.726562 C 15.460938 9.527344 15.453125 9.339844 15.453125 9.3125 C 15.449219 9.28125 15.246094 9.257812 14.972656 9.257812 L 14.496094 9.257812 Z M 14.496094 9.726562 "/>
<path style=" stroke:none;fill-rule:nonzero;fill:rgb(0%,0%,0%);fill-opacity:1;" d="M 9.664062 12.574219 L 9.664062 13.039062 L 10.617188 13.039062 L 10.617188 12.109375 L 9.664062 12.109375 Z M 9.664062 12.574219 "/>
<path style=" stroke:none;fill-rule:nonzero;fill:rgb(0%,0%,0%);fill-opacity:1;" d="M 15.476562 13.09375 C 15.453125 13.128906 15.449219 13.539062 15.453125 14.015625 L 15.472656 14.875 L 14.496094 14.90625 L 14.496094 15.367188 C 14.496094 15.90625 14.496094 15.90625 15.113281 15.878906 L 15.476562 15.863281 L 15.460938 15.550781 C 15.449219 15.378906 15.453125 15.160156 15.476562 15.074219 L 15.515625 14.902344 L 19.324219 14.902344 L 19.324219 15.882812 L 18.863281 15.898438 L 18.398438 15.917969 L 18.382812 16.832031 L 18.371094 17.75 L 19.324219 17.75 L 19.324219 15.890625 L 19.804688 15.890625 C 20.355469 15.890625 20.355469 15.890625 20.324219 15.285156 L 20.308594 14.929688 L 19.820312 14.914062 L 19.324219 14.898438 L 19.324219 13.976562 L 19.820312 13.960938 L 20.308594 13.945312 L 20.308594 13.066406 L 19.820312 13.050781 L 19.324219 13.035156 L 19.324219 13.972656 L 17.910156 13.960938 L 16.488281 13.945312 L 16.472656 13.488281 L 16.453125 13.039062 L 15.984375 13.039062 C 15.71875 13.039062 15.496094 13.066406 15.476562 13.09375 Z M 15.476562 13.09375 "/>
<path style=" stroke:none;fill-rule:nonzero;fill:rgb(0%,0%,0%);fill-opacity:1;" d="M 15.476562 16.0625 C 15.453125 16.164062 15.449219 16.371094 15.460938 16.519531 L 15.476562 16.792969 L 17.386719 16.792969 L 17.386719 15.917969 L 16.449219 15.898438 L 15.511719 15.890625 Z M 15.476562 16.0625 "/>
<path style=" stroke:none;fill-rule:nonzero;fill:rgb(0%,0%,0%);fill-opacity:1;" d="M 21.304688 20.117188 L 21.320312 20.574219 L 21.785156 20.589844 L 22.246094 20.605469 L 22.246094 19.667969 L 21.285156 19.667969 Z M 21.304688 20.117188 "/>
<path style=" stroke:none;fill-rule:nonzero;fill:rgb(0%,0%,0%);fill-opacity:1;" d="M 18.382812 6.886719 L 18.398438 9.230469 L 20.804688 9.230469 C 22.125 9.230469 23.203125 9.214844 23.203125 9.1875 C 23.203125 9.167969 23.203125 8.113281 23.203125 6.847656 L 23.203125 4.546875 L 18.371094 4.546875 Z M 22.21875 6.902344 L 22.21875 8.300781 L 20.847656 8.316406 C 19.886719 8.328125 19.453125 8.3125 19.40625 8.269531 C 19.34375 8.21875 19.324219 7.9375 19.324219 6.875 C 19.324219 6.148438 19.34375 5.535156 19.363281 5.511719 C 19.386719 5.496094 20.035156 5.484375 20.808594 5.488281 L 22.21875 5.507812 Z M 22.21875 6.902344 "/>
<path style=" stroke:none;fill-rule:nonzero;fill:rgb(0%,0%,0%);fill-opacity:1;" d="M 4.832031 20.109375 L 4.832031 22.464844 L 9.664062 22.464844 L 9.652344 20.117188 L 9.636719 17.777344 L 7.234375 17.761719 L 4.832031 17.75 Z M 8.640625 18.726562 C 8.691406 18.765625 8.707031 19.082031 8.695312 20.140625 L 8.679688 21.503906 L 5.816406 21.503906 L 5.796875 20.21875 C 5.792969 19.511719 5.796875 18.875 5.816406 18.804688 L 5.84375 18.683594 L 7.207031 18.683594 C 7.953125 18.683594 8.601562 18.703125 8.640625 18.726562 Z M 8.640625 18.726562 "/>
</g>
</svg>
